<?xml version="1.0" encoding="utf-8"?>
<!-- Generator: Adobe Illustrator 19.1.0, SVG Export Plug-In . SVG Version: 6.00 Build 0)  -->
<svg version="1.1" id="Layer_1" xmlns="http://www.w3.org/2000/svg" xmlns:xlink="http://www.w3.org/1999/xlink" x="0px" y="0px"
	 viewBox="0 0 70 70" style="enable-background:new 0 0 70 70;" xml:space="preserve">
<style type="text/css">
	.st0{clip-path:url(#SVGID_3_);}
	.st1{fill-rule:evenodd;clip-rule:evenodd;fill:#BED8F1;}
	.st2{fill-rule:evenodd;clip-rule:evenodd;fill:#222225;}
	.st3{fill-rule:evenodd;clip-rule:evenodd;fill:#8D5A47;}
	.st4{fill-rule:evenodd;clip-rule:evenodd;fill:#683E30;}
	.st5{fill-rule:evenodd;clip-rule:evenodd;fill:#905741;}
	.st6{fill-rule:evenodd;clip-rule:evenodd;fill:#2D2320;}
	.st7{fill-rule:evenodd;clip-rule:evenodd;fill:#C07C5B;}
	.st8{fill-rule:evenodd;clip-rule:evenodd;fill:#DBA27C;}
	.st9{fill-rule:evenodd;clip-rule:evenodd;fill:#E2B99E;}
	.st10{fill-rule:evenodd;clip-rule:evenodd;fill:#9F573B;}
	.st11{fill-rule:evenodd;clip-rule:evenodd;fill:#DA9E7B;}
	.st12{fill-rule:evenodd;clip-rule:evenodd;fill:#A25740;}
	.st13{fill-rule:evenodd;clip-rule:evenodd;fill:#7A3426;}
	.st14{fill-rule:evenodd;clip-rule:evenodd;fill:#431815;}
	.st15{fill-rule:evenodd;clip-rule:evenodd;fill:#E7B79B;}
	.st16{fill-rule:evenodd;clip-rule:evenodd;fill:#D39174;}
	.st17{fill-rule:evenodd;clip-rule:evenodd;fill:#9E5342;}
	.st18{fill-rule:evenodd;clip-rule:evenodd;fill:#733027;}
	.st19{fill-rule:evenodd;clip-rule:evenodd;fill:#D38E7E;}
	.st20{fill-rule:evenodd;clip-rule:evenodd;fill:#B46F4D;}
	.st21{fill-rule:evenodd;clip-rule:evenodd;fill:#763022;}
	.st22{fill-rule:evenodd;clip-rule:evenodd;fill:#C7A790;}
	.st23{fill-rule:evenodd;clip-rule:evenodd;fill:#623B2F;}
	.st24{fill-rule:evenodd;clip-rule:evenodd;fill:#CDC1AA;}
	.st25{fill-rule:evenodd;clip-rule:evenodd;fill:#322F21;}
	.st26{fill-rule:evenodd;clip-rule:evenodd;fill:#59533D;}
	.st27{fill-rule:evenodd;clip-rule:evenodd;fill:#0E0E0F;}
	.st28{fill-rule:evenodd;clip-rule:evenodd;fill:#F3FAFE;}
	.st29{fill-rule:evenodd;clip-rule:evenodd;fill:#341E1A;}
	.st30{fill-rule:evenodd;clip-rule:evenodd;fill:#7D4A38;}
	.st31{fill-rule:evenodd;clip-rule:evenodd;fill:#541313;}
	.st32{fill-rule:evenodd;clip-rule:evenodd;fill:#73493B;}
	.st33{fill-rule:evenodd;clip-rule:evenodd;fill:#798DB4;}
	.st34{fill-rule:evenodd;clip-rule:evenodd;fill:#711716;}
	.st35{fill-rule:evenodd;clip-rule:evenodd;fill:#5D1312;}
	.st36{fill-rule:evenodd;clip-rule:evenodd;fill:#D0E3F5;}
	.st37{fill-rule:evenodd;clip-rule:evenodd;fill:#0A090B;}
	.st38{fill-rule:evenodd;clip-rule:evenodd;fill:#786857;}
	.st39{fill-rule:evenodd;clip-rule:evenodd;fill:#483A38;}
</style>
<g>
	<defs>
		<circle id="SVGID_1_" cx="35" cy="35" r="35"/>
	</defs>
	<linearGradient id="SVGID_2_" gradientUnits="userSpaceOnUse" x1="35" y1="70" x2="35" y2="-9.094947e-13">
		<stop  offset="0" style="stop-color:#212121"/>
		<stop  offset="1" style="stop-color:#EF4438"/>
	</linearGradient>
	<use xlink:href="#SVGID_1_"  style="overflow:visible;fill:url(#SVGID_2_);"/>
	<clipPath id="SVGID_3_">
		<use xlink:href="#SVGID_1_"  style="overflow:visible;"/>
	</clipPath>
	<g id="Shape_238_5_" class="st0">
		<g>
			<path class="st1" d="M32.4,59.4c0.9-2.6,1.7-4.9,1.7-4.9s-3.6,0.1-4.6-3.9c-1-3.9-1.4-6.7-1.7-6.4c0,0-3,16.6-2.7,21
				c0.4,4.4-0.5,8.7,2.2,9.1c2.7,0.4,6-1.3,6-1.3S31.5,62,32.4,59.4z"/>
		</g>
	</g>
	<g id="Shape_237_5_" class="st0">
		<g>
			<path class="st2" d="M28.3,43.2c0,0-5,1.1-7.9,2.1s-8.4,3.3-9.3,3.5s-5.1,0.3-6.7,6.6c-1.6,6.3-2.2,18.3-2.2,18.3l24.6,0.4
				c0,0-0.8-15.3,0.3-20.2s0.3-4.9,0.2-6.6C27.2,45.6,27.8,43.4,28.3,43.2z"/>
		</g>
	</g>
	<g id="Shape_186_5_" class="st0">
		<g>
			<path class="st3" d="M45.8,37.8c-0.6-0.8-3.9-0.4-4.7-0.4c-1.4,0.1-2.7,0.5-4.1,0.8c-1.9,0.4-3.7,0.8-5.5,1.4
				c-1,0.3-2.1,0.6-2.9,1.2c0.3-0.4-1.4,1.8-1.4,1.8c0.4,1,1,2,1.2,3c0.6,3,0.7,4.5,2.7,7c0.3,0.4,2.1,2.1,2.6,2.2
				c0.4,0.1,1.1-0.4,1.4-0.6c1.2-0.8,2.4-1.3,3.4-2.3c3.3-2.8,6.1-5.7,6.9-9.9C45.7,40.8,46.4,39.1,45.8,37.8z"/>
		</g>
	</g>
	<g id="Shape_187_5_" class="st0">
		<g>
			<path class="st4" d="M45.7,39c-0.5,0-1.4,2.4-1.7,2.9c-0.3,0.5-1.9,1.8-2.4,1.8c-0.3,0.6-2.3,1.7-2.9,2.2
				c-0.7,0.6-1.7,0.6-2.6,0.8c-1.2,0.2-3,0.5-4.2,0c-0.9-0.4-1.4-1.2-2.2-1.8c-0.8-0.6-0.8-0.2-1.4-0.4c-0.3-0.2-0.6-0.4-0.9-0.6
				c0,0.1,0.1,0.1,0.1,0.2c0.4,0.2,0.9,1.9,1.2,2.3c0.4,0.4,1.3,0.5,1.9,0.5c0.3,0.2,0.6,0.9,0.9,1c0.6,0.5,0.6,0.4,1.2,0.9
				c0.4,0.3,1.6,0.8,2,1.2c0.8,0.1,1.4-1.1,2.2-0.9c0.5,0.1,0.7,0.7,1.3,0.6c0.3-0.4,2.3-2.5,2.6-2.3c0,1.2-0.3,2.1-1.2,2.9
				c-0.4,0.3-1.6,1.4-1.6,1.8h0c0.3,0,2.6-2,2.7-2.1c0.4-0.4,1.2-1,1.3-1.6c0-0.3-0.3-0.5-0.3-0.8c0-0.4,0.2-0.7,0.2-1
				c1.2-1.2,2.6-2.3,2.8-4.2C44.9,41.7,46,39.3,45.7,39z"/>
		</g>
	</g>
	<g id="Shape_185_5_" class="st0">
		<g>
			<path class="st5" d="M49,26c-0.8-0.5-1.4,0.7-2.1,0.7c-0.5-0.3-1.1-2.6-1.2-3.2c-0.1-1.1-0.1-2.2-0.2-3.2c-0.2-1-0.5-2.1-0.7-3.1
				c-0.1-0.8-0.2-1.6-0.3-2.3c-0.5-1.2-2.4-1-3.4-0.9c-3.2,0.4-6.5,0.8-9.7,1.2c-2.4,0.3-5.3,0.1-7.2,2c-0.5,0.5-1.2,1.1-1.1,1.9
				c0,0.4,0.2,0.7,0.1,1.1c-0.1,0.4-0.3,0.8-0.4,1.2c-0.2,0.9-0.2,2.1,0,3c0.1,0.5,0,3.2-0.2,3.3l0.5,3.4c1.2,1.4,0.6,5.9,1.3,7.9
				c0.7,1.8,1.7,3.2,2.9,4.7c0.4,0.5,0.9,1.2,1.6,1.2c0.4,0.2,0.7,0.4,1.1,0.6c0.7,0.5,1.3,1.3,2.1,1.6c1.3,0.4,4.6,0.6,5.9,0.1
				c0.9-0.3,1.6-1.1,2.4-1.6c0.8-0.5,1.7-1,2.5-1.6c0.9-0.8,1.8-2,2.3-3.1c0.3-0.6,0.5-1.2,0.8-1.8c0.2-0.8,0.4-1.6,0.6-2.4l0.5-0.2
				c0.4-0.4,0.6-0.9,0.7-1.4c1-1,0.6-3.7,0.9-5c0.1-0.3,0.2-0.7,0.3-1C49.1,28.4,49.6,26.3,49,26z"/>
		</g>
	</g>
	<g id="Shape_184_5_" class="st0">
		<g>
			<path class="st6" d="M48.9,16.2c-0.2-0.5-2-2.4-2.5-2.6c-0.6-0.3-1.8,0-1.8-0.9c-0.1-0.1-0.1-0.2-0.2-0.3c0,0,0.1-0.1,0.1-0.1
				c0-0.4,0-0.8-0.2-1.2c-0.4-0.8-1.6-1.5-2.5-1.7c-1.2-0.3-2.2-0.6-3.3-0.9c-0.6-0.2-1.4-0.3-2-0.6c-0.3-0.1-0.5-0.3-0.8-0.4
				C34,7.2,32,7.3,30.3,7.7c-4,1-6.7,4.6-8.9,7.8c-0.4,0.6-0.8,1.3-1.1,2c-0.4,1.2-0.3,2.5,0,3.7c0,0.6,0,1.2,0,1.7
				c0.1,1,0.4,3,0.8,3.9c0.2,0.3,0.7,0.6,0.9,0.9c0.6,0.9,0.5,3.5,1.3,3.9c0.1,0,0.2,0,0.3,0.1c-0.2-0.4-0.3-0.9-0.5-1.3
				c0-1,0.1-1.9,0.1-2.9c0.2-0.6,0.4-1.1,0.7-1.7c0.2-0.4,0.6-0.6,0.6-1.1c0.2-2.4-2.1-2.5-0.5-4.5c0.3-0.2,0.2-0.4,0.6-0.6
				c0,0,0.6-0.5,1.4-1c1.6,0.5,1.8,0.7,3.1,0c0.4-0.2,0.8-0.3,1.2-0.5c1.1-0.7,2.1-1.5,3.3-1.9c1.7-0.6,3.4-0.8,5.2-1
				c0.7,0,3.8-0.9,4.3-0.5c0.9,0.7,1.2,3.7,1.3,4.8c0.1,1.1,0.1,2.1,0.2,3.2c0.2,1,0.6,1.9,1.1,2.9c0.1,0.5,0.2,1.1,0.3,1.6
				c0.2,1,0.2,1.6,0.3,2.6c0,0.4-0.1,1.1-0.1,1.2h0c0-0.1,0.7-0.6,0.8-1c0.1-1.3,0.2-4,2.1-4C49,22.9,50.4,19.3,48.9,16.2z"/>
		</g>
	</g>
	<g id="Shape_188_5_" class="st0">
		<g>
			<path class="st7" d="M44.6,31.6c0.4-0.4,0.5-1.7,0.5-2.3c-0.2-0.4-0.3-0.7-0.6-1c-0.7,0-1.5,0.5-2.1,0c-0.1-0.2-0.2-0.3-0.3-0.5
				c0-0.3,0.1-0.5,0.2-0.8c0.2-0.7-0.4-1.6,0.4-2c0.3-0.2,0.7,0.2,1,0.2c0.5-0.5,0.1-1.6,0-2.3c0-0.4,0.1-0.8,0.1-1.2
				c-0.2-1.9-0.2-4.6-2.2-5.3c-2.6-0.9-4.7-0.3-7.2,0.2c-0.5,0.2-1,0.3-1.5,0.5c-0.6,0.1-2,1.2-2.8,1.5c-1,0.4-2.1,0.3-3,0.6
				c-0.3,0.1-1-0.5-1-0.3l0,0c-3.9,1.5-0.6,3.7-1.6,6.3c-0.6,1.7-0.9,3.5-0.8,5.4c0.2,0.7,0.4,1.3,0.6,2c0.5,3,0.5,5.4,2.1,8.2
				c0.4,0.7,0.7,1.5,1.3,2c0.4,0.4,0.6,0.2,1,0.4c0.3,0.2,0.6,0.5,1,0.7c0.8,0.7,1.6,1.6,2.6,2c1.3,0.5,3.3,0.3,4.4-0.4
				c0.5,0,1.2,0.5,1.7,0.2c0.5-0.5,1-0.9,1.6-1.4c0.7-0.5,1.4-0.9,2.1-1.4c0.3-0.2,0.4-0.6,0.8-0.7c1.3-0.4,2.3-4.5,1.3-5.4
				c0,0-0.1,0-0.1,0c-0.1,0.1-0.4,0.6-0.4,0.8c-0.6,0,0-1.8,0-2C43.8,34.3,44.6,32.9,44.6,31.6z"/>
		</g>
	</g>
	<g id="Shape_189_5_" class="st0">
		<g>
			<path class="st8" d="M41.5,21c0.3-0.7-0.9-3.1-1.3-3.5c-0.4-0.4-1.2-0.5-1.8-0.6c-2.8-0.5-5.1,1.1-7.6,2.1
				c-0.9,0.3-2.8,0.1-3.5,0.6l0.4,0c-0.5,0.3-2.5,1.3-1.8,2.2c0.3,0.4,1.3,1,1.4,1.2l0,0c0,0,0,0.1,0,0.1c0,0.4-1.9,3.1-0.2,3.1
				c0,0.5-1.1,1.7-0.7,2.1c0.1,0,0.1,0,0.2,0c0.3-0.3,0.6-0.5,0.9-0.8c0.5-0.2,1.6-0.2,1.6-0.8c0,0-1.3-0.4-1.4-0.4
				c0-0.5,1.1-0.7,1.5-0.7c0.8,0,2.2,0.4,2.9,0.9c0.4,0,0.9-0.1,1.3-0.1c0.5-0.1,1-0.2,1.4-0.3c0.3,0,0.7,0.1,1,0.1
				c0.6,0.1,1.7-0.4,2-0.8c1,0,2.3-0.5,3.1-1c0.5-1-0.5-1.7-0.3-2.7C41,21.4,41.3,21.2,41.5,21z"/>
		</g>
	</g>
	<g id="Shape_192_5_" class="st0">
		<g>
			<path class="st9" d="M29.9,20.6c0.5,0,1,0,1.6,0c1,0,1.9-0.3,2.9-0.4c0.5,0,1-0.1,1.5-0.1c0.5-0.1,1.4-0.2,1.2-1
				c-0.2-0.8-1.3-0.4-1.9-0.3c-1.4,0.3-4.8,0.1-5.4,1.6c0,0,0,0.1,0,0.1c0,0,0,0.1,0,0.1C29.8,20.6,29.9,20.6,29.9,20.6z M32.4,22.7
				c1.3-0.2,1.9-0.2,3.2-0.7c0.4-0.1,1.2-0.3,1.2-0.8c-0.4-0.3-0.7-0.3-1.3-0.2c-1,0.1-1.7,0.2-2.7,0.3c-0.4,0-1.2-0.1-1.5,0.2
				c-0.5-0.2-1,0.1-0.9,0c-0.4,0.2-0.7,0.2-0.7,0.8C29.7,22.6,32.1,22.7,32.4,22.7z M38.8,22.5c-0.4-0.4-2.7,0.1-3,0.2
				c-1.2,0.3-2.2,0.3-3.4,0.4c-0.8,0.1-1.5,0.1-2.1,0.1c-1.3-0.3-2.7,0.1-0.5,0.9c1.1,0.8,4.4,1,5.6,0.6
				C36.7,24.3,39.2,23.1,38.8,22.5z"/>
		</g>
	</g>
	<g id="Shape_193_5_" class="st0">
		<g>
			<path class="st8" d="M39.5,26c0,0.1-0.5,0.4-0.3,0.4c0.4-0.4,2.5,0.6,2.6,0.4C41.8,25.6,40.7,25.4,39.5,26z"/>
		</g>
	</g>
	<g id="Shape_195_5_" class="st0">
		<g>
			<path class="st10" d="M38.3,25.9c-0.6,0.6-1.8,0.7-2.6,0.7c0,0,0,0.1,0,0.1c0,0,0,0,0,0c0.1,0.3,0,1.7,0.5,1.6
				c0.3-0.1,0.5-0.6,0.8-0.6c0,0,0,0,0,0v0.4c0.1,0,0.1,0.1,0.2,0.1c0.2-0.2,0.9-0.1,1.1-0.1c0-0.6-0.2-1.3,0.4-1.9
				C39.1,26.1,38.5,25.8,38.3,25.9z M30.8,26.6c-0.4-0.1-1.5-0.5-1.6-0.4c0,0,0,0,0,0c0.2,0.1,0.4,0.3,0.7,0.4
				c0,0.4-0.2,0.5-0.6,0.7c0,0,0,0,0,0c0,0.1,0,0.2,0,0.3c0.7,0,1.6,0.5,2.1,1c0.1,0,0.1,0,0.2,0c0-0.1,0-0.3-0.1-0.4
				c0.2,0.2,0.4,0.3,0.5,0.5c0.4,0,0.2-0.5,0.2-0.9C33.3,26.6,31.6,26.6,30.8,26.6z"/>
		</g>
	</g>
	<g id="Shape_196_5_" class="st0">
		<g>
			<path class="st8" d="M35.3,32.6c0-0.6,0.2-1.1,0.1-1.7c-0.2-1.3,0.1-2.6,0.1-3.9c-0.1-0.1-0.5-0.1-0.6-0.2c-0.4,0-1-0.4-1.1,0.1
				c-0.1,0-0.1,0-0.2,0.1c-0.3,0.1-0.8,0.3-0.9,0.5c0.1,0.5,0.3,1,0.3,1.5c0,0.5,0.1,1,0.1,1.6c0.2,1.3-0.6,3.6-0.2,4.5
				c0.6,0.3,1.4,0.3,2.1,0.3c0.1-0.2,0.5-0.2,0.5-0.5C35.7,34.4,35.6,32.9,35.3,32.6z"/>
		</g>
	</g>
	<g id="Shape_197_5_" class="st0">
		<g>
			<path class="st11" d="M37.1,27.8C37.1,27.7,37,27.7,37.1,27.8C37,27.8,37,27.8,37.1,27.8c0,0.1,0,0.1,0,0.1
				C37,27.9,37.1,27.7,37.1,27.8z M44.2,29.4C44.2,29.4,44.2,29.4,44.2,29.4C44.2,29.4,44.2,29.4,44.2,29.4
				C44.2,29.4,44.2,29.4,44.2,29.4L44.2,29.4z M43.8,31.9c0.4-0.5,0.5-1.2,0.4-1.8c0-0.2-0.1-0.5-0.1-0.7l0,0c0-0.4-0.5-1-0.9-0.9
				c-1.4,0.4-2.6,1.3-4.1,1.2c-0.4,0-1.2-0.1-1.3-0.6c-0.1-0.2,0.3-0.3,0.2-0.5c-0.3-0.4-1.3,0.3-1-0.8c0-0.1-0.1,0-0.1,0.1
				c-0.5,0,0,1.5,0,1.8c0,0.2-0.1,0.3-0.1,0.5c0.1,0.6,0.8,1,0.9,1.7c0,0.3,0,1,0.2,1.2c0.6,0.6,1.3,1.3,1.5,2.2
				c0.3,0.9-1,0.4-1.3,0.8c-0.4,0.4,0,0.8,0.1,1.2c0.1,0.3,0.1,0.7,0.5,0.8c0.3,0.1,1.4,0,1.6-0.2c0.1-0.2,0-0.8,0.2-0.9
				c0.4-0.2,0.8,0.6,1.3,0.4c0.2-0.1-0.1-1.1,0.1-1.3C42.4,34.5,42.9,33.2,43.8,31.9z"/>
		</g>
	</g>
	<g id="Shape_198_5_" class="st0">
		<g>
			<path class="st11" d="M42.3,38.6c-0.1-0.3-0.1-0.8-0.5-0.8c-0.1,0-0.1,0.1-0.2,0.1c0,0,0,0,0.1-0.1c-0.4,0.3-0.1,0.9-0.3,1.3
				c-0.1,0.4-0.6,0.4-0.8,0.7c-0.2,0.3,0,0.8-0.1,1.2c0,0.2-0.1,0.4-0.1,0.5c0.3,0.5,1.1-0.2,1.4-0.4C42.6,40.4,42.7,39.6,42.3,38.6
				z"/>
		</g>
	</g>
	<g id="Shape_199_5_" class="st0">
		<g>
			<path class="st12" d="M37.3,32.8c0.2,0.4,0.5,0.8,0.7,1.2c0.1,0.3,0,0.4,0,0.6c-0.5,0-1,0.1-1.6,0.1c-0.4,0.1-0.5,0.6-0.9,0.7
				c0,0,0,0,0,0c-0.6,0-1.1,0.1-1.7,0.1c-0.5-0.1-1-0.3-1.5-0.4c-0.3,0-0.6,0.1-0.9,0.1c-0.1-0.3-0.2-0.4-0.1-0.8c0,0,0,0,0,0
				c0,0,0,0,0,0c0,0,0,0,0,0c-0.4,0-0.3,1.5,0.2,1.7c0.6,0.3,1-0.2,1.6-0.1c0.4,0.1,0.7,0.4,1.1,0.5c0.4,0,0.8,0,1.2-0.1
				c0.2-0.1,0.4-0.2,0.7-0.3c0.7-0.1,1.2,0.2,1.9-0.2c0.4-0.3,0.4-0.7,0.7-1c0.2,0,0.1,0.2,0.3,0.2c0,0,0,0,0.1,0l0-0.1
				C38.8,34.6,37.8,32.8,37.3,32.8z"/>
		</g>
	</g>
	<g id="Shape_200_5_" class="st0">
		<g>
			<path class="st13" d="M35.3,35.8c-0.4,0-0.8,0.4-1.4,0.3c-0.7-0.1-2.2-1.7-2.2-0.2c-0.1,0.1-0.3,0-0.4,0c0,0,0,0,0,0c0,0,0,0,0,0
				c0,0.2,0.2,0.3,0.5,0.3c0.4-0.1,0.7-0.4,1.1-0.3c0.5,0.1,0.8,0.6,1.5,0.5C34.8,36.4,35.4,36.3,35.3,35.8
				C35.4,35.8,35.4,35.8,35.3,35.8z"/>
		</g>
	</g>
	<g id="Shape_201_5_" class="st0">
		<g>
			<path class="st14" d="M36,35.6C36,35.6,36,35.6,36,35.6C36,35.6,36,35.6,36,35.6c0.2,0,1.1-0.1,1-0.3
				C36.8,34.8,36.1,35.3,36,35.6z"/>
		</g>
	</g>
	<g id="Shape_202_5_" class="st0">
		<g>
			<path class="st14" d="M32.2,35.5c0,0.1,0.1,0.1,0.1,0.2c0,0,0,0,0,0c0.2,0,0.4,0.1,0.6,0.1C33,35.5,32.2,35.2,32.2,35.5z
				 M32.3,35.7C32.3,35.7,32.3,35.7,32.3,35.7C32.3,35.7,32.3,35.7,32.3,35.7C32.3,35.7,32.3,35.7,32.3,35.7z"/>
		</g>
	</g>
	<g id="Shape_203_5_" class="st0">
		<g>
			<path class="st15" d="M34.4,33.2c-0.1-0.4,0.1-0.7,0.1-1c-0.1-0.4-0.1-0.8-0.2-1.2c-0.1-0.3-0.5-0.7-0.6-0.2c0,0.9,0.1,1.8,0,2.7
				c0,0.3-0.3,0.8-0.2,1c0.1,0.2,0.7,0.1,0.9,0.1c0.2-0.1,0.4,0,0.5-0.3C35.1,33.8,34.5,33.6,34.4,33.2z M33.8,30.8
				C33.8,30.7,33.8,30.7,33.8,30.8C33.8,30.7,33.8,30.7,33.8,30.8L33.8,30.8z"/>
		</g>
	</g>
	<g id="Shape_204_5_" class="st0">
		<g>
			<path class="st16" d="M36.5,33.4C36.5,33.4,36.5,33.4,36.5,33.4c-0.1,0.5-0.3,1.2,0.4,1.2c0.1,0,0.3,0,0.4,0
				C37.6,34.4,37.1,32.5,36.5,33.4z"/>
		</g>
	</g>
	<g id="Shape_205_5_" class="st0">
		<g>
			<path class="st16" d="M31.7,33.7C31.7,33.7,31.7,33.7,31.7,33.7C31.7,33.7,31.7,33.7,31.7,33.7C31.7,33.7,31.7,33.7,31.7,33.7z
				 M31.7,33.7C31.1,34.2,31,35,32,34.9c0.2,0,0.3-0.2,0.4-0.4C33.3,34.1,32.2,33.3,31.7,33.7z"/>
		</g>
	</g>
	<g id="Shape_206_5_" class="st0">
		<g>
			<path class="st11" d="M25.3,29.5C25.3,29.5,25.3,29.5,25.3,29.5C25.3,29.4,25.3,29.4,25.3,29.5C25.3,29.4,25.3,29.4,25.3,29.5z
				 M38.6,40.9C38.6,40.9,38.6,41,38.6,40.9c-0.4,0.4-0.8,0.6-1.3,0.9c-0.2,0-1.4,0.2-1.4,0.3c0.1,0.2,1,0.4,1,0.6c0,0,0,0.1,0,0.1
				v0c-0.4-0.1-0.9-0.2-1.3-0.3c-0.5,0-1.1,0-1.7,0c-0.2,0-0.9,0.1-1.1,0c0-0.1,0.1-0.3,0.1-0.4c-0.5-0.5-1.2-0.3-1.7-0.7
				c-0.5-0.5-1-1-1.5-1.5c-0.4-0.1-0.9-0.3-1.3-0.4c-0.2-0.1-0.3-0.2-0.5-0.4c0-0.6-0.7-1.3-0.7-1.8c0,0,1.9-0.5,1.9-0.5
				c0,0.4-1.2,1-1,1.3c0.1,0.2,1,0.2,1.2,0.1c0.2-0.1,0.3-0.5,0.5-0.4c0.3,0.2,0.6,0.4,1,0.6c0.3,0,0.6,0.1,0.9,0.1
				c1,0.2,2,0.6,3,0.6c0,0,0,0,0,0c0.3-0.1,1.4-0.4,1.6-0.6c0,0,0.5-0.7,0.5-0.7c0-1.7-1.2-1-2.3-1.1c-0.5-0.1-1-0.4-1.5-0.3
				c-0.4,0.1-1.1,0.6-1.5,0.5c-0.7-0.2-0.4-1.1-0.8-1.6c-0.3,0-0.5,0.3-0.8,0.4c-0.3,0.2-0.6,0.1-1,0.1c0-0.4,1.5-1.3,1.8-1.7
				c0.7-0.7,0.8-3.9,0.9-4.9c0.1-0.5,0.1-1.4-0.6-1.4c0,0.2,0.3,0.5,0.2,0.7c-0.3,0.3-1.9,0.5-2.7,0.5c-0.2,0-1.2-0.2-1.2,0.1
				c0,0.9,1.5,0.7,2,0.5c0.5-0.2,0.8-0.4,1.2-0.2c0,0.6-1.1,0.7-1.5,0.7c-1.2,0.1-1.4-0.4-2.2-0.6c-0.4,0-0.8,0.1-1.2,0.1
				c-0.3-0.1-0.3-0.3-0.6-0.2c-0.6,1.1-0.8,2.5,0,3.6c0.3,0.4,0.7,0.8,0.9,1.2c0.2,0.4,0.5,1.8,1.2,1.8l0.1,0.2c0,0.4-0.8,0.4-1,0.8
				c-0.4,1,0.1,2.3,0.5,3.3c0.8,2,1.4,1,2.8,1.6c0.3,0.1,0.8,0.3,0.9,0.6c0,0.1,0,0.2,0,0.3c0,0.2,0.7,0,0.9,0.6
				c0.5,1.6,1.2,2.4,3.1,2c0.5-0.1,0.9,0.1,1.4-0.1c0.7-0.2,0.9-0.9,1.5-1.2c0.5-0.3,1.4-0.7,1.6-1.3C39.3,42.5,39.1,40.9,38.6,40.9
				z"/>
		</g>
	</g>
	<g id="Shape_207_5_" class="st0">
		<g>
			<path class="st17" d="M39.7,38.7C39.7,38.7,39.7,38.7,39.7,38.7L39.7,38.7L39.7,38.7z M40.6,38.9c-0.1,0-0.6-0.1-0.8-0.2
				c0,0-0.1,0-0.1,0v0c-0.8,0-1.2,0-1.9,0.5c-0.7,0.1-1.3,0.1-2,0.2c-0.3,0.1-0.9,0.5-1.2,0.2c0,0,0,0,0,0v0c0,0,0,0,0,0
				c0,0,0,0,0,0c-0.9,0-2.1,0.2-3-0.1c-0.4-0.1-0.8-0.2-1.2-0.3c-0.1-0.1-0.3-0.2-0.4-0.4c-0.2,0-1.4,0.2-1.4,0.4c0,0,0,0,0,0
				c0.1,0,0.2,0.1,0.2,0.1c0.8,0.1,1.3,0.5,2,0.6c0,0,0,0,0.1,0c0,0,0,0,0.1,0c0,0,0,0,0.1,0c0,0,0,0,0.1,0h0.2c0.6,0,1.2,0,1.8-0.1
				c0.6,0.1,1.2,0.1,1.8,0.2c0.5,0,1-0.1,1.5-0.1c0.5,0.1,1,0.1,1.5,0.2c0.4,0,2-0.5,2.1-0.4c0.1,0.1,0.1,0.2,0.2,0.3
				c0.2,0,0.5-0.6,0.6-0.8C40.7,39.1,40.6,39,40.6,38.9z"/>
		</g>
	</g>
	<g id="Shape_208_5_" class="st0">
		<g>
			<path class="st18" d="M40.2,39.1c-0.5,0-1.4,0.1-1.7,0.4c-0.9,0-1.8,0.2-2.8,0.2c-0.3,0.1-0.6,0.2-0.9,0.3c0,0,0,0,0,0
				c1,0,2.3-0.2,3.6-0.2c0.2-0.1,0.4-0.1,0.6-0.2c0.2-0.2,1.2-0.1,1.2-0.4C40.2,39.2,40.2,39.2,40.2,39.1
				C40.2,39.1,40.2,39.1,40.2,39.1z M34.8,40C34.8,40,34.8,40,34.8,40C34.8,40,34.8,40,34.8,40L34.8,40z"/>
		</g>
	</g>
	<g id="Shape_209_5_" class="st0">
		<g>
			<path class="st19" d="M31.9,40.3C31.9,40.3,31.9,40.3,31.9,40.3C31.9,40.3,31.9,40.3,31.9,40.3L31.9,40.3z M37.4,40.4
				c-0.3,0.1-0.5,0.1-0.8,0.2c0-0.1-0.1-0.1-0.1-0.2c0-0.1,0.1-0.1,0.1-0.2c0,0,0-0.1,0-0.1c-0.6,0-1.5,0.4-2.3,0.1
				c-0.3,0-0.6,0-0.9,0.1L32.8,40c-0.4,0-0.9,0.1-0.9,0.2c0,0,0,0.1,0,0.1c0.4,1.4,1.6,0.9,2.7,0.9c0.5,0,1,0,1.4,0.1
				c0,0,0.1,0,0.1-0.1C36.5,41.2,37.5,40.7,37.4,40.4C37.5,40.4,37.5,40.4,37.4,40.4z"/>
		</g>
	</g>
	<g id="Shape_210_5_" class="st0">
		<g>
			<path class="st20" d="M48.1,33.4c-0.3,0-0.6,0.4-0.6,0.8c0,0-0.1,0-0.1,0c0-0.3,0.2-1.2-0.2-1.2c0,0,0,0,0,0
				c-0.1-0.1-0.1,0.7-0.1,0.8c-0.3,0-0.6,1.9-0.6,2.4c0,0,0.1,0,0.1,0.1c0.2,0,0.4-1.4,0.5-1.4h0.1c0.1,0.2,0.1,0.4,0.2,0.6
				C47.7,35.4,48.4,33.8,48.1,33.4z"/>
		</g>
	</g>
	<g id="Shape_212_5_" class="st0">
		<g>
			<path class="st20" d="M47.4,30.8c-0.1,0-0.2-0.1-0.3-0.1c0,0,0,0.1-0.1,0.1v0.1c0,0,0,0,0-0.1c-0.1,0.5,0.1,1,0.1,1.5
				c0.1,0,0.2,0.1,0.3,0.1c0,0,0.1-0.1,0.1-0.1C47.5,31.7,47.5,31.2,47.4,30.8z"/>
		</g>
	</g>
	<g id="Shape_213_5_" class="st0">
		<g>
			<path class="st20" d="M48.7,28.6L48.7,28.6C48.8,28.6,48.8,28.6,48.7,28.6C48.8,28.6,48.7,28.6,48.7,28.6z M48.8,28.6
				c-0.1,0.4-0.6,1.6-0.7,1.6c0,0,0,0,0,0.1c0,0.6-0.1,1.2-0.1,1.8c0,0.3,0.1,0.6,0.1,0.7c0,0,0.1,0,0.1,0l0.1-0.1
				c0.1-0.9,0.2-1.8,0.3-2.6c0.1-0.3,0.1-0.6,0.2-0.8C48.8,29.2,49,28.6,48.8,28.6z M48.8,28.6C48.8,28.6,48.8,28.6,48.8,28.6
				C48.8,28.6,48.8,28.6,48.8,28.6L48.8,28.6z"/>
		</g>
	</g>
	<g id="Shape_211_5_" class="st0">
		<g>
			<path class="st21" d="M49.1,27.3c-0.1,0-0.3-0.1-0.5-0.1c-0.2,0.1-0.4,0.1-0.5,0.2c0,0.1-0.5,0.8-0.5,1.2l0-0.1
				c0.2,0,0.2-0.6,0.5-0.6h0.1c0,0.8,0.5,0.4,0.7,0.4C48.9,27.9,49.1,27.5,49.1,27.3C49.1,27.3,49.1,27.3,49.1,27.3z"/>
		</g>
	</g>
	<g id="Shape_215_5_" class="st0">
		<g>
			<path class="st22" d="M38.1,27.3c0,0-0.3,0.4-0.2,0.6c0.1,0.2,0.8,0.3,1.4,0.4c0.6,0.1,2.3-0.1,2.3-0.5
				C41.5,27.5,39.4,26.3,38.1,27.3z"/>
		</g>
	</g>
	<g id="Shape_214_5_" class="st0">
		<g>
			<path class="st23" d="M43.4,28.3c-0.3,0-0.5-0.1-0.7-0.1c0-0.2-1.6-1.2-1.6-1.2c-0.5-0.1-1.1-0.3-1.6-0.4c-0.4,0-1.8-0.1-1.8,0.3
				c-0.3,0-1.2,0.6-1.2,0.8l0.1,0.1c0.1,0,0.1,0,0.2,0c0.3,0,1.1-0.5,1.6-0.7c0.3,0,0.4-0.1,0.9,0c0.6,0.2,1.4-0.1,2.2,0.7
				c-0.1,0.1-0.4,0.2-0.4,0.3C41.1,28.9,42.9,28.4,43.4,28.3C43.4,28.3,43.4,28.3,43.4,28.3z"/>
		</g>
	</g>
	<g id="Shape_219_5_" class="st0">
		<g>
			<path class="st24" d="M27.8,28c-0.1,0.1-0.1,0.2-0.2,0.4c0,0,0,0,0.1,0c1,0.8,3.4,0.2,3.3-0.4C30.8,27.1,28.3,27.8,27.8,28z"/>
		</g>
	</g>
	<g id="Ellipse_5_5_" class="st0">
		<g>
			<path class="st25" d="M39,26.8c-0.1,0.2-0.2,0.4-0.2,0.6c0,0.5,0.4,0.9,0.9,0.9c0.5,0,0.9-0.4,0.9-0.9c0-0.1,0-0.2,0-0.2
				C40.2,27.1,39.5,26.9,39,26.8z"/>
		</g>
	</g>
	<g id="Ellipse_5_copy_5_" class="st0">
		<g>
			<path class="st26" d="M40.4,27.7c-0.2-0.1-0.4-0.3-0.7-0.3c-0.3-0.1-0.7,0-0.9,0.1c0,0,0,0,0,0c0,0.4,0.4,0.8,0.8,0.8
				C40,28.2,40.3,28,40.4,27.7z"/>
		</g>
	</g>
	<g id="Ellipse_5_copy_2_5_" class="st0">
		<g>
			<circle class="st27" cx="39.7" cy="27.4" r="0.4"/>
		</g>
	</g>
	<g id="Ellipse_5_copy_3_5_" class="st0">
		<g>
			<circle class="st28" cx="39.3" cy="27.3" r="0.1"/>
		</g>
	</g>
	<g id="Shape_216_5_" class="st0">
		<g>
			<path class="st23" d="M31.6,27.9c-0.1-0.2-1.4-0.6-1.6-0.6c-1.1,0.1-3.1,0.2-3.3,1.6c-0.1,0.1-0.2,0.3-0.3,0.4c0,0,0.1,0,0.1,0
				c0,0,0,0,0,0c0.4-0.1,0.8-0.4,1-0.8c0.2-0.1,0.4-0.3,0.6-0.5c0.6-0.2,1.4-0.4,2.1-0.3c0.5,0.1,0.7,0.5,1.2,0.5l-0.1-0.2
				C31.3,27.9,31.5,27.9,31.6,27.9L31.6,27.9z"/>
		</g>
	</g>
	<g id="Ellipse_5_copy_4_23_" class="st0">
		<g>
			<path class="st25" d="M30.1,27.9c0-0.2-0.1-0.3-0.1-0.4c-0.6,0-1.2,0.2-1.7,0.3c0,0,0,0.1,0,0.1c0,0.3,0.2,0.6,0.4,0.8
				c0.3,0,0.7,0,1,0C29.9,28.5,30.1,28.2,30.1,27.9z"/>
		</g>
	</g>
	<g id="Ellipse_5_copy_4_21_" class="st0">
		<g>
			<path class="st26" d="M29.5,28.7c0.2-0.1,0.4-0.3,0.5-0.5c-0.2-0.1-0.4-0.3-0.7-0.3c-0.3-0.1-0.7,0-0.9,0.1c0,0,0,0,0,0
				c0,0.4,0.3,0.7,0.6,0.8C29.1,28.7,29.3,28.7,29.5,28.7z"/>
		</g>
	</g>
	<g id="Ellipse_5_copy_4_19_" class="st0">
		<g>
			<circle class="st27" cx="29.2" cy="27.9" r="0.4"/>
		</g>
	</g>
	<g id="Ellipse_5_copy_4_17_" class="st0">
		<g>
			<circle class="st28" cx="28.8" cy="27.9" r="0.1"/>
		</g>
	</g>
	<g id="Shape_217_5_" class="st0">
		<g>
			<path class="st29" d="M30.5,27.4c-0.4-0.1-0.9-0.1-1.7,0.1c-0.8,0.2-1.1,0.2-1.4,0.5s-0.4,0.4-0.5,0.6c-0.1,0.2-0.3,0.5-0.2,0.5
				c0,0,0.2-0.1,0.5-0.6c0.3-0.4,0.5-0.4,0.9-0.5c0.4-0.1,0.8-0.3,1.4-0.3S30.9,27.5,30.5,27.4z"/>
		</g>
	</g>
	<g id="Shape_218_5_" class="st0">
		<g>
			<path class="st29" d="M42.1,28.3c-0.3-0.3-0.6-0.6-0.9-0.9c-0.5-0.5-2.5-0.9-3.1-0.5c0,0-0.1,0.1-0.1,0.2c1.1-0.1,2-0.2,2.9,0.4
				C41.3,27.7,42.3,28.5,42.1,28.3z"/>
		</g>
	</g>
	<g id="Shape_220_5_" class="st0">
		<g>
			<path class="st30" d="M45.1,27.9c-0.2-0.2-1-1.3-1.9-2.1s-2.1-1.3-2.6-1.1c-0.6,0.1-2.8,0.6-2.8,0.6c0.9,0.6,1.1,0.3,2.7,0.4
				c1.5,0.1,1.9,1,2.4,1.4c0.3,0.3,0.7,0.6,1,0.7C44.2,27.9,45.3,28.1,45.1,27.9z"/>
		</g>
	</g>
	<g id="Shape_221_5_" class="st0">
		<g>
			<path class="st12" d="M38.4,40.4c-0.6,0.1-0.3,0.3-1.4,0.9c-1.1,0.6-1.4,0-2.4,0c-1,0,0,0.3-1.3,0.3s-1.3-0.6-1.9-0.7
				c-0.6-0.1-1.2-0.6-1.2-0.6c0.1,0.3,0.6,0.8,1.2,1.1c0.5,0.3,0.7,0.6,2,0.8c1.3,0.2-1,0.7-1,0.7s1.5,0,2.2,0s3.1,0.1,2.6,0.1
				s-0.6-0.4-1.6-0.5S34.7,42,35.4,42c0.7,0,1.8-0.1,2.2-0.4S39,40.3,38.4,40.4z"/>
		</g>
	</g>
	<g id="Shape_223_5_" class="st0">
		<g>
			<path class="st31" d="M31.7,39.8c-0.4,0-1.3-0.3-1.6-0.4c-0.3-0.1-1-0.3-1.3,0s0.4-0.1,0.6,0s1.8,0.6,2.2,0.6c0.4,0,2,0,2.2,0.1
				c0.2,0,0.4,0,0.6,0c0,0-0.4-0.2-0.7-0.3C33.6,39.7,32.1,39.7,31.7,39.8z M40.2,39.3c-0.1,0-0.4-0.2-0.9,0
				c-0.5,0.2-0.8,0.3-1.3,0.4c-0.5,0.1-1.8,0.1-2.1,0.1S35,40,35,40c-0.1,0.1,0.6-0.1,1.1-0.1c0.4-0.1,1.9,0,2.2,0s1-0.4,1.2-0.5
				C39.7,39.3,40.3,39.3,40.2,39.3z"/>
		</g>
	</g>
	<g id="Shape_224_5_" class="st0">
		<g>
			<path class="st11" d="M40.8,28.2c-0.8,0.3-2.5,0.1-2.5,0.1c-0.7,0.3,1.1,1,1.7,0.9C40.6,29.1,41.7,27.9,40.8,28.2z"/>
		</g>
	</g>
	<g id="Shape_225_5_" class="st0">
		<g>
			<path class="st30" d="M29.9,25.7c-1-0.3-2.4-0.8-3.3-0.2c-0.9,0.6-1,1.3-1.2,1.8c-0.2,0.5-0.5,1-0.7,1.3c0,0,0.9,0.1,1.4-0.5
				c0.5-0.6,1.1-2.1,2.8-1.8c1.6,0.4,2.4-0.1,2.4-0.1S30.6,25.9,29.9,25.7z"/>
		</g>
	</g>
	<g id="Shape_226_5_" class="st0">
		<g>
			<path class="st7" d="M34.5,37.2c0,0-0.4,0.4-0.4,1s0.5,1,0.8,0.6C35.2,38.3,34.9,37.3,34.5,37.2z"/>
		</g>
	</g>
	<g id="Shape_227_5_" class="st0">
		<g>
			<path class="st7" d="M28.2,30.3c-0.6,0.1-1.6-0.3-1.6-0.3c-0.9-0.1,0.9,0.8,2,0.7C29.7,30.5,28.9,30.3,28.2,30.3z"/>
		</g>
	</g>
	<g id="Shape_228_5_" class="st0">
		<g>
			<path class="st7" d="M31,29.7c-0.4,0.5-1.1,1.1-1.1,1.1c-0.5,0.6,1.1-0.4,1.5-1C31.7,29.3,31.3,29.1,31,29.7z"/>
		</g>
	</g>
	<g id="Shape_233_5_" class="st0">
		<g>
			<path class="st32" d="M41.5,48.5c-0.4,1-2.2,2.4-3.6,2.9c-1.4,0.5-3.4,1.6-4.6,0c-1.6-2.1-3.6-4.4-3.6-4.4
				c-0.2-0.8-1.4-2.1-1.3-1.6c0.1,0.5,0.2,2.1,0.4,3.2c0.2,1.1,2.5,6,2.5,6s1.9,0.6,2.6,0.7c0.7,0.2,1.2-0.2,1.8-0.6
				s6.2-4.6,6.7-5.8C42.6,47.8,41.9,47.5,41.5,48.5z"/>
		</g>
	</g>
	<g id="Shape_229_5_" class="st0">
		<g>
			<path class="st7" d="M39.6,30.4c-0.5-0.1-2.4-1.5-2.1-1.1c0,0,0.8,1.1,1.8,1.4C40.2,30.9,40.1,30.5,39.6,30.4z"/>
		</g>
	</g>
	<g id="Shape_232_5_" class="st0">
		<g>
			<path class="st1" d="M39.2,61.6c-0.2-0.6-0.6-1-1-1.5c-0.2-0.2-1.3-1.8-1.4-1.8l-0.5,0.3c-3.6,2,0.3,7.1,0.3,10h0.1
				c0.6-0.4,0.8-1.3,1.1-1.9C38.5,65.6,39.6,62.8,39.2,61.6z"/>
		</g>
	</g>
	<g id="Shape_235_5_" class="st0">
		<g>
			<path class="st33" d="M39.5,51c-1.7,1-3.9,3.3-5.7,3c-1.7-0.4-4.1-3.6-4.1-3.6l0.1,3.6l1.3,2.3l1,0.9L35,56
				C35,56,41.2,50,39.5,51z"/>
		</g>
	</g>
	<g id="Shape_231_5_" class="st0">
		<g>
			<path class="st33" d="M37.5,57.7c-0.4-0.5-1.4-1.5-2-1.1c-1.1,0.7-2.2,2.6-2.1,3.9c0.1,0.8,0.5,1.4,0.8,2.1c0.4,1,0.6,2,1.1,3
				c0.4,1,0.8,2.1,1.2,3.1c0.2,0,0.3-0.1,0.5-0.1c-0.1,0-0.1,0-0.2,0c0-2.1-1.1-4.3-1.3-6.4c-0.1-0.7,0.8-1.5,0.8-1.5
				c0.8,0,1.8,2.9,2.4,2.9c0.3-0.2,0.5-0.5,0.6-0.8C40.2,61,38.5,59,37.5,57.7z"/>
		</g>
	</g>
	<g id="Shape_234_copy_5_" class="st0">
		<g>
			<path class="st33" d="M33.7,54.8C33.7,54.8,33.7,54.8,33.7,54.8C33.7,54.8,33.8,54.8,33.7,54.8z M30.2,51.2
				c-1.2-1.4-1.3-3.6-1.4-4.5c-0.1-0.8-0.9-2.4-0.9-2.4s-0.8,1.8-0.6,3.1c0.2,1.2,0,3.4-0.1,3.9c-0.1,0.5-0.2,4.2,0.1,5.5
				c0.3,1.3,0.7,7,0.5,7.4c-0.1,0.4,3.3-0.7,4-2.4c0.7-1.7-0.5-5.8,1.5-6.9c0.3-0.2,0.4-0.3,0.5-0.3C33.3,54.5,31.3,52.6,30.2,51.2z
				"/>
		</g>
	</g>
	<g id="Shape_239_5_" class="st0">
		<g>
			<path class="st34" d="M34.1,61.3c0.2-0.3,2.4-2.7,2.4-2.7s-0.8-3.5-1.7-3.3c-0.9,0.2-1.4-0.4-2.4-0.2c-1,0.3-0.9,2.6-0.9,2.6
				s-0.2,2.4-0.4,3.3c-0.2,0.2-1.1,1.3-2.3,2.8c-1.1,1.5-1.8,10.6-1.8,10.6l7.4,0.3l2.2-6.2C36.7,68.6,34.8,62.4,34.1,61.3z"/>
		</g>
	</g>
	<g id="Shape_240_5_" class="st0">
		<g>
			<path class="st35" d="M34.2,61.3l2-2.2c0,0-1.3-4.1-1.9-3.7c-0.6,0.4,0.1,1.8,0.4,2.6c0.2,0.9-0.3,1.7-1.1,2.2
				c-0.8,0.5-2.1-0.3-2.1-0.3c-0.1,0.4-0.6,1.3-0.2,1.3c0.4,0,1.7,0.4,2.5,1.1c0.8,0.7,3.1,6.5,3,6.3C36.7,68.4,34.2,61.3,34.2,61.3
				z"/>
		</g>
	</g>
	<g id="Shape_234_5_" class="st0">
		<g>
			<path class="st36" d="M30.2,51.2c-1.2-1.4-1.3-3.6-1.4-4.5c-0.1-0.8-0.9-2.4-0.9-2.4s-0.8,1.8-0.6,3.1c0.2,1.2,0,3.4-0.1,3.9
				c-0.1,0.5,0.1,3.9,0.4,5.2c0.3,1.3,0.9,6.4,0.8,6.9c-0.1,0.4,2.1-0.7,2.8-2.4c0.7-1.7,0.1-4.8,2.1-5.9c0.3-0.2,0.4-0.3,0.5-0.3
				C33.3,54.5,31.3,52.6,30.2,51.2z M33.7,54.8C33.7,54.8,33.7,54.8,33.7,54.8C33.7,54.8,33.8,54.8,33.7,54.8z"/>
		</g>
	</g>
	<g id="Shape_230_5_" class="st0">
		<g>
			<path class="st36" d="M45.9,39.5c0,0,0.1,0,0.1-0.1c0,0,0,0,0,0C46,39.4,46,39.4,45.9,39.5z M46.7,40c0-0.1-0.6-0.6-0.6-0.6
				c0,0,0,0-0.1,0c-0.2,0.7-0.4,1.4-0.6,2c-0.2,1.1-0.7,3.2-1.4,4.1c-1.2,1.5-2.3,3-3.6,4.4c-0.6,0.6-2.4,2.5-3.2,2.7
				c-0.2,0.4-2.2,1.8-2.7,2.1l-0.4,0.8c0,2.6,2.7,4.3,3.8,6.4c0.2,0.5,0.6,0.9,0.6,1.4h0c0.7-1.1,1.3-2.1,2-3.2
				c0.9-1.9,1.9-3.9,2.8-5.8c1.4-3.2,2.8-6.5,3.6-9.9c0.2-0.8,0.4-1.7,0.5-2.5C47.3,41.2,47.1,40.6,46.7,40z"/>
		</g>
	</g>
	<g id="Shape_236_5_" class="st0">
		<g>
			<path class="st2" d="M64.4,49.8c-4.5-1.6-13.5-5-14.7-7.2c-1.3-2.3-3.6-3.8-3.6-3.8s0,0.4-0.3,0.8c1.9,0.1,1.7,4.1,0.4,7
				c-1.3,2.8-3.6,9.7-5.9,13.7c-2.4,4.3-6,14.1-6,14.1l36.5-1.1C70.8,73.1,68.9,51.5,64.4,49.8z"/>
		</g>
	</g>
	<g id="Shape_242_5_" class="st0">
		<g>
			<path class="st37" d="M54.8,55c0,0-1.4-6.6-2.2-8.7c0.1,2,2,8.4,1.7,8.7s-3.8,1.7-4.1,2.3c0.7,1,3.1,3.9,3,4.6
				c-0.2,0.6-7.8,12.2-7.8,12.2s-0.1,0.5,0.2,0.1c0.3-0.4,8.1-11.8,8.1-12.4s-2.9-4.4-2.9-4.4l3.8-1.9L54.8,55z M19.2,50.7
				c-0.3,1.1,1.2,3.1,1.4,3.4c0.2,0.3-2.8,2.5-3.3,3.4s2.3,16.3,2.5,17c0.1,0.7,0.1-0.5,0.1-0.5s-2.3-15.2-2.2-16.2
				c0.2-1,3.5-3.4,3.5-3.4s-1.4-2.4-1.5-3.4c-0.1-0.9,2-3.3,3.2-4.2C21.8,47.2,19.4,49.6,19.2,50.7z"/>
		</g>
	</g>
	<g id="Shape_243_5_" class="st0">
		<g>
			<path class="st38" d="M23.6,27.8c-0.3-2.1-0.9,1.5-0.9,2.1c0,0.9,0.8,1.6,0.8,1.6s0-0.3-0.2-0.7c-0.2-0.5,0.1-1.2,0.2-1.5
				S23.6,27.8,23.6,27.8z"/>
		</g>
	</g>
	<g id="Shape_243_copy_5_" class="st0">
		<g>
			<path class="st38" d="M45.8,27.8c0,0,0,1.2,0.1,1.5c0.1,0.3,0.3,1,0.1,1.5c-0.2,0.5-0.2,0.7-0.2,0.7s0.8-0.6,0.8-1.5
				C46.7,29.3,46.2,25.7,45.8,27.8z"/>
		</g>
	</g>
	<g id="Shape_246_5_" class="st0">
		<g>
			<path class="st38" d="M45.7,13.9c0.6,0.7,0.9,2.4,0.9,2.8s-1.1-1-1.1-1s0.5,1.3,0.1,2.6c-0.2-1.2-0.9-2-0.9-2s0.5,2.1,0.2,3
				c-0.1-1.1-0.6-1.1-0.6-1.1s0,1.8,0.1,3.1c0.1,1.4,0.2,2,0.8,2.5c-0.2-0.8-0.3-1.9,0.2-3.8c0.2,0.6,0.4,0.8,0.4,0.8
				s-0.3-1.3,0.4-2.4c0.1-0.4,0.2-1.1,0.2-1.1l0.7,1C47,18,46.9,14.5,45.7,13.9z"/>
		</g>
	</g>
	<g id="Shape_244_5_" class="st0">
		<g>
			<path class="st39" d="M23.9,21.9c0.1-0.5,0.1-1.8-0.4-1.6c-0.4,0.2-1-1-0.1-2.4c0.9-1.4-1.5,1-1.6,3.4c0.6-0.8,0.2,1.1,0.2,1.8
				c0.4-0.6,0.5-0.2,0.3,0.4c-0.2,0.6-0.2,1.8-0.1,2.1c0,0,0.4-1.6,1.2-2.1c0.8-0.5,0.9-0.9,0.9-0.9S23.8,22.4,23.9,21.9z"/>
		</g>
	</g>
	<g id="Shape_245_5_" class="st0">
		<g>
			<path class="st38" d="M30.7,15.9c0.5-0.1,2.8-1.6,1.9-1.2c-0.9,0.4-1.6,0.1-2.9,0.5c-1.3,0.4-2.6,0-2.3-0.3s2.1-2.9,1.6-2.6
				c-0.5,0.3-2.5,1.1-1.4,0.4c1.1-0.8,2-2.1,2-2.1s-1.6,0.8-0.7-0.1s6.4-1.9,4.3-1.8c-2.1,0.1-3.7,0.5-5,1.2C26.8,10.7,26,12,26,12
				s1-0.5,0.5,0.2c-0.5,0.7-0.6,1.4-1,1.9c0.5,0.1,1.4,0,1,0.5c-0.4,0.5-0.8,0.9-1.1,1.4c1,0.3,4,0.1,3.7,0.4
				c-0.3,0.3-1.3,0.3-1.3,0.3s1.3,0.6,2.2,0.5s4.9-1.9,4.9-1.9C33.7,15.6,30.2,16,30.7,15.9z"/>
		</g>
	</g>
</g>
</svg>
