<?xml version="1.0" encoding="utf-8"?>
<!-- Generator: Adobe Illustrator 19.1.0, SVG Export Plug-In . SVG Version: 6.00 Build 0)  -->
<svg version="1.1" id="Layer_1" xmlns="http://www.w3.org/2000/svg" xmlns:xlink="http://www.w3.org/1999/xlink" x="0px" y="0px"
	 viewBox="0 0 150 150" style="enable-background:new 0 0 150 150;" xml:space="preserve">
<style type="text/css">
	.st0{clip-path:url(#SVGID_3_);}
	.st1{fill-rule:evenodd;clip-rule:evenodd;fill:#2F394D;}
	.st2{fill-rule:evenodd;clip-rule:evenodd;fill:#C98A63;}
	.st3{fill-rule:evenodd;clip-rule:evenodd;fill:#EDAA7E;}
	.st4{fill-rule:evenodd;clip-rule:evenodd;fill:#FDCBA7;}
	.st5{fill-rule:evenodd;clip-rule:evenodd;fill:#C98961;}
	.st6{fill-rule:evenodd;clip-rule:evenodd;fill:#CA8258;}
	.st7{fill-rule:evenodd;clip-rule:evenodd;fill:#9B6945;}
	.st8{opacity:0.3216;clip-path:url(#SVGID_3_);}
	.st9{fill-rule:evenodd;clip-rule:evenodd;fill:#271A14;}
	.st10{fill-rule:evenodd;clip-rule:evenodd;fill:#E8CBC0;}
	.st11{fill-rule:evenodd;clip-rule:evenodd;fill:#261811;}
	.st12{fill-rule:evenodd;clip-rule:evenodd;fill:#503520;}
	.st13{fill-rule:evenodd;clip-rule:evenodd;fill:#DFD9DC;}
	.st14{fill-rule:evenodd;clip-rule:evenodd;fill:#895632;}
	.st15{fill-rule:evenodd;clip-rule:evenodd;fill:#986A4D;}
	.st16{fill-rule:evenodd;clip-rule:evenodd;fill:#F1DED5;}
	.st17{fill-rule:evenodd;clip-rule:evenodd;fill:#B98666;}
	.st18{fill-rule:evenodd;clip-rule:evenodd;fill:#201712;}
	.st19{fill-rule:evenodd;clip-rule:evenodd;fill:#423020;}
	.st20{fill-rule:evenodd;clip-rule:evenodd;fill:#F2E6E2;}
	.st21{fill-rule:evenodd;clip-rule:evenodd;fill:#372618;}
	.st22{fill-rule:evenodd;clip-rule:evenodd;fill:#FCBF91;}
	.st23{fill-rule:evenodd;clip-rule:evenodd;fill:#995B38;}
	.st24{fill-rule:evenodd;clip-rule:evenodd;fill:#5F291A;}
	.st25{fill-rule:evenodd;clip-rule:evenodd;fill:#804E2D;}
	.st26{fill-rule:evenodd;clip-rule:evenodd;fill:#936048;}
	.st27{fill-rule:evenodd;clip-rule:evenodd;fill:#2C211E;}
	.st28{fill-rule:evenodd;clip-rule:evenodd;fill:#724728;}
	.st29{fill-rule:evenodd;clip-rule:evenodd;fill:#DEA17C;}
	.st30{fill-rule:evenodd;clip-rule:evenodd;fill:#5F5656;}
	.st31{fill-rule:evenodd;clip-rule:evenodd;fill:#885128;}
	.st32{fill-rule:evenodd;clip-rule:evenodd;fill:#59351A;}
	.st33{fill-rule:evenodd;clip-rule:evenodd;fill:#B6B8C8;}
	.st34{fill-rule:evenodd;clip-rule:evenodd;fill:#640C0F;}
	.st35{fill-rule:evenodd;clip-rule:evenodd;fill:#D6D7E2;}
</style>
<g>
	<defs>
		<circle id="SVGID_1_" cx="75" cy="75" r="75"/>
	</defs>
	<linearGradient id="SVGID_2_" gradientUnits="userSpaceOnUse" x1="75" y1="150" x2="75" y2="9.094947e-13">
		<stop  offset="0" style="stop-color:#212121"/>
		<stop  offset="1" style="stop-color:#EF4438"/>
	</linearGradient>
	<use xlink:href="#SVGID_1_"  style="overflow:visible;fill:url(#SVGID_2_);"/>
	<clipPath id="SVGID_3_">
		<use xlink:href="#SVGID_1_"  style="overflow:visible;"/>
	</clipPath>
	<g id="Shape_782_2_" class="st0">
		<g>
			<path class="st1" d="M111,95.8c-4.5-2.2-11.7-13.4-11.7-13.4L54.3,94.2c0,0-45.6,19.6-46.6,19.8s8.8,41.6,8.8,41.6h117.3
				l9.8-48.7C143.6,106.9,115.5,98,111,95.8z"/>
		</g>
	</g>
	<g id="Shape_748_2_" class="st0">
		<g>
			<path class="st2" d="M106.8,51.8c-1.6-0.4-1.3-0.9-1.3-0.9s-4.6-5.1-4.7-6.2c-0.1-1.1-5.1-18.2-6.6-18.6s-26-5.5-26.6-5.5
				c-0.5,0-8.5,2.3-9,2.6c-0.5,0.3-6.1,0.9-8,3.9c-1.9,3-5.1,8.7-3.5,24.1c-0.8,4-1,5.9-1,6.8c0.2,0.5,0.3,0.8,0.3,0.8
				s-0.3,0.3-0.3-0.8c-0.7-1.9-2.6-6.1-3.9-5.2c-1.6,1.1-0.7,2.2-0.6,5.2c0.1,3.1,1.8,3.6,1.5,5.6c-0.3,2-0.2,3.7,0.3,5.8
				s0.8,4.5,1.1,6.1c0.3,1.6,1.5,2.1,2.4,2.6c0.5,3.1,0.4,9,5.2,16s5.8,7.8,6.6,9.6c0.8,1.8,2.8,6.6,4.8,8.6c2.1,2,2.7,5.7,9.1,2.8
				c6.4-2.9,9.9-6.2,9.9-6.2s7.5-8.5,10.2-11.5s5.6-11.8,6.2-14s1.3-6.4,1.3-6.4s2.2,1.5,3.9-1.1s2-6.8,2.2-8.3
				c0.3-1.5-0.1-4.1,0.2-5.5C107,60.7,108.4,52.2,106.8,51.8z"/>
		</g>
	</g>
	<g id="Shape_752_2_" class="st0">
		<g>
			<path class="st3" d="M83,48.2c-0.2-1.2,0.5-1.2,0.3-3c-0.1-1.8,0-2.9-0.2-4.7c-0.2-1.8-0.3-3.3-0.8-4.8c-0.4-1.5-2.8-2.8-4.9-3.5
				c-2.2-0.7-4-0.2-5.1-1.8s-13.8-5.7-15.7-3.8c0,0-7.6,5.2-8,9.7C48.3,40.9,47.8,47,48.3,49s1.3,5.2,1.3,6.7s0,3.2-0.6,3.8
				s-2.3,0.4-2,4.2c0.3,3.7,0.7,14.2,0.9,16.1s1,2.6,1.7,3.8c0.7,1.2,0.2,4.1,1.5,6.5c1.2,2.4,1.9,2.8,2.4,3.4
				c0.5,0.7,2.8,0.1,3.6,1.5c0.8,1.4-0.3-4.7,0.8-3.7c1.1,1,0.6,2.9,1.1,4.2s0.8,3.6,2.2,5.6c1.4,2,3,4.1,6.2,4.5
				c3.2,0.4,4.6-0.4,5.8-1c1.2-0.6,0.4-0.5,1.2-2.8s0.9-4.3,0.9-4.3s-9.7-1.5-10.1-2.5c-0.4-1,1.6-0.8,3.6-1.3
				c2-0.6,3.1-0.9,3.8-1.2c0.8-0.3-0.1-2.7-1.3-2.7s-0.1-0.7,1.2-0.9s2.2-1.4,1.4-2.4s-0.2-2.8-1.4-2.3s-2.7,3.2-3,1.2
				c-0.3-2-3.6-3-2.2-3.3c1.4-0.3,2.5-0.6,3.9-1.1c1.4-0.5,1.8-1.5,2.1-2.9s0.3-2.5,0.1-3.2s-0.8-0.6-1.1-1.9
				c-0.2-1.3-0.1-2.8,0.1-3.7c0.2-0.9,0.4-4.2,0.5-5.7c0.1-1.4-0.6-0.5-1-1.5s-0.7-1.9-0.1-3.3c0.6-1.4,0.4-0.7,1.1-0.2s1,0.9,1.6,0
				c0.6-0.9,0.3-2.1,2-1.6c1.7,0.5,1.4,0.6,2.5-0.5c1.1-1.1,1.4-2.6,2.3-3.2c0.9-0.5,1.8-1.5,2.1-2.4C83.6,49.6,83.2,49.4,83,48.2z"
				/>
		</g>
	</g>
	<g id="Shape_753_2_" class="st0">
		<g>
			<path class="st4" d="M70.7,70.5c0.5-2,1.2-4.3,0.7-6.5c-0.3-1.1-2-4.3-2-4.3c-0.2,0.1-0.4,0.2-0.6,0.3c-1.3,0.4-1.4,1.8-1.4,3
				c-0.4,0-0.9-0.4-1.2-0.4c-0.1,0.3-0.1,0.6-0.2,0.9l0,0c-0.3,0-0.3-0.5-0.7-0.5c-1.2,1.2-1,3-2.7,4.2c-1.2,0.8-3,0.6-4.3,0.8
				c-1.2,0.1-2.5,0.4-3.4-0.5v0c0.5-0.6,2.9-1,2.9-1.9c-0.1-0.1-4.5-2.7-4.5-2.7c-0.6-0.1-0.8,0.8-1.1,0.8c0,0,0,0,0,0.1
				c0,0-0.1,0-0.1,0c-0.2,0.3-0.8,1.4-1.4,1.2c-0.4-0.4,0-1.1,0-1.5c-0.4-0.4-1.8-0.2-2.2,0.2c0.2,0.4,0.4,0.9,0.6,1.3
				c0.1,0.5-1.6,2.2-0.1,3.2c0.4-0.1,0.7-0.2,1.1-0.3c0.5,0.7-0.9,2.4-1.1,3.1c-0.2,0.8-0.1,1.8,0.1,2.7c0.3,0.9,0.7,1.7,1.2,2.5
				c3.6,5.4,8.3,0.2,12.3-1.7c0.7-0.3,1.2-1,2-1c0.7,0.7-0.7,1.9-1.1,2.3c-1.1,1.1-4.8,4.4-4.2,5.8c0.4,1,3.9,1,4.5,0.1
				c0-1.1-1.7-2.9-1.5-3.6c0-0.1,0.1-0.1,0.1-0.2c0.1,0,0.2,0,0.3,0c0.9,0.6,1.3-0.2,2.2,0.1c0.1,0,0.2,0,0.3,0.1
				c0,2,3.3,1.6,4.4,1.6c0.5-0.3,0.7-0.6,1.1-1c0.6-2.3-1-4.3-0.8-6.6C70.3,71.6,70.5,71,70.7,70.5z"/>
		</g>
	</g>
	<g id="Shape_754_2_" class="st0">
		<g>
			<path class="st5" d="M50.8,79.3c-0.1,0.2-0.1,0.3-0.2,0.5c0-0.1,0.1-0.2,0.1-0.3c-0.3,0.5-0.9,0.9-0.9,1.5
				c-0.1,1,1.6,4.2,2.8,3.4C53.8,83.6,52.3,79.3,50.8,79.3z"/>
		</g>
	</g>
	<g id="Shape_755_2_" class="st0">
		<g>
			<path class="st6" d="M74.4,86.7c-0.6-0.6-1.1-2.4-2.1-2.6c-1.1-0.2-1.7,1.7-2.4,1.5c-0.3-0.1-1.3-3.5-1.5-3.5
				c0-0.3,1.3-0.6,1.3-1.3c-0.9,0-2,0.1-2.9-0.2c-1.3-0.5-2.4-1.6-3.8-1.6c0,1.9,4.1,3.5,5,4.7c0.3,0.8,0.7,1.7,1,2.5
				c0.8,0.5,1.6,0.1,2.1-0.5c0.6,0,1.6,0.7,1.2,1.4c-0.8,1.6-2.9,0.8-4.2,0.4c-0.9-0.2-1.7-0.4-2.6-0.6c-0.3-0.3-6-3.4-6.3-3.4
				c0,0,0,0.1,0,0.1c0,0-0.1,0.1-0.1,0.1c-0.5,0.5-1,1-1.5,1.6C57.2,86,56.6,90,57.8,90c1.1-1.1,3.2-2.3,4.8-2c1,0.1,2,0.8,3,1
				c1.7,0.2,3.5,0.5,5.2,0.7c2.2-0.3,4.5-0.5,6.7-0.8C77.5,86.1,76.1,88.1,74.4,86.7z"/>
		</g>
	</g>
	<g id="Shape_756_2_" class="st0">
		<g>
			<path class="st6" d="M44.3,57.9L44.3,57.9c0-0.1,0-0.1,0-0.1C44.3,57.8,44.3,57.9,44.3,57.9z M47.3,71.8c-0.1-1-0.4-2-0.9-2.8
				c-0.4-0.7-1.4-1.1-1.5-2c-0.3-2.8,1.6-6.8-0.6-9.1c0,0,0,0,0,0c0,0.9,0,1.7-0.1,2.6c-0.2,2.2-1,4.6-0.3,6.8
				c0.4,0.8,0.8,1.7,1.2,2.5c0,0.2-0.1,0.3-0.3,0.3c-0.3-0.3-0.5-0.7-0.8-1c-0.1,0-0.1,0-0.2,0c-0.2,0.9,1.4,8.3,3,7.1
				C47.6,75.6,47.4,72.7,47.3,71.8z"/>
		</g>
	</g>
	<g id="Shape_749_2_" class="st0">
		<g>
			<path class="st7" d="M64.8,58.2c-1-0.4,0.1-1-2.4-1.6s-8.1-0.9-10.4-0.5c-2.3,0.4-3,4.3-3,4.3c1.1,0.5,1.5,2.5,1.8,0.9
				c0.3-1.6,2.3-2.5,4-3.2c1.7-0.8,3,0.4,4.3,0.8s-0.2,1.2-0.2,1.2s1.2,0.4,2.1,0.3c0.9,0,1.5,1,2.1,1.4s0.1,1.5-0.8,2.1
				c-1,0.6-3,0.8-4.3,0.8c-1.3,0,0.5,1,2.6,0.8c2-0.2,4.2-1.9,4.6-2.6c0.4-0.7-0.7-1.4-0.7-1.4s0.9-0.4,2.1-0.8
				c1.2-0.3,1.2-1,1.3-1.7S65.8,58.7,64.8,58.2z"/>
		</g>
	</g>
	<g id="Shape_750_2_" class="st8">
		<g>
			<path class="st9" d="M64.3,58.7c-0.4-0.2,0.2-1.5-1.2-1.6c-1.3-0.1-2.6-0.5-6.3-1.2c-3.8-0.7-5.5,0.7-5.5,0.7s1.2,0.9,2.2,1.2
				c1.1,0.3,2.2-0.1,3,0.2s4.2,1.2,5.2,1.3C62.7,59.5,64.8,59,64.3,58.7z"/>
		</g>
	</g>
	<g id="Shape_751_2_" class="st0">
		<g>
			<path class="st4" d="M79.3,44.7c-0.2-2.5-0.2-5.2-1.5-6.2c-1.2-1.1-2.6-3.8-5.3-5.9c-2.8-2.1-5.2-1.9-6.4-2.2s-5.9-0.9-7.2-0.3
				c0,0-6.2,2.1-7.6,8.8s-0.5,9.5-0.1,11.8c0.4,2.2,0.8,3.2,3.2,3.8c2.3,0.6,8.8,1.9,10.4,2.6c1.6,0.7,1.9-0.5,3.4-1.1
				c1.5-0.6,3.3,0.4,4.9,0.2c1.6-0.2,3.8-4,5.2-4.1S79.5,47.2,79.3,44.7z"/>
		</g>
	</g>
	<g id="Shape_758_2_" class="st0">
		<g>
			<path class="st10" d="M57.9,60.5c-0.7,0.1-1.4,0.3-2,0.4c0,0,0-0.1,0-0.1c-3.5,4.1,7.5,3.9,7.5,1.7
				C62.7,60.5,59.3,60.2,57.9,60.5z"/>
		</g>
	</g>
	<g id="Ellipse_19_copy_3_2_" class="st0">
		<g>
			<path class="st11" d="M60.5,60.2c-0.4-0.3-1,0-1.5,0c-0.7,0-1.3-0.2-1.7,0.3c-0.3,0.4-0.5,0.9-0.5,1.5c0,1.3,1,2.3,2.3,2.3
				c1.3,0,2.3-1,2.3-2.3C61.3,61.3,61,60.6,60.5,60.2z"/>
		</g>
	</g>
	<g id="Ellipse_19_2_" class="st0">
		<g>
			<circle class="st12" cx="59.1" cy="62.2" r="2"/>
		</g>
	</g>
	<g id="Ellipse_19_copy_2_" class="st0">
		<g>
			<circle class="st11" cx="59.1" cy="61.9" r="0.9"/>
		</g>
	</g>
	<g id="Ellipse_19_copy_2_2_" class="st0">
		<g>
			<circle class="st13" cx="58.2" cy="61.7" r="0.7"/>
		</g>
	</g>
	<g id="Shape_757_2_" class="st0">
		<g>
			<path class="st11" d="M63.3,61.5c0-1.3-2.2-1.4-3.1-1.4c-1.9,0-3.6,0.3-5.4,0.6c-0.6,0.1-1.2,0.3-1.7,0.4
				c-0.3,0.6-0.6,1.1-0.9,1.7c0,0.1,0,0.1,0,0.2c0,0,0-0.1,0-0.1c0.8,0,2-0.4,2.7-0.4c0-0.7,0.8-1.5,1.6-1.5
				c2.1,0.2,3.1-0.2,4.7-0.1c0.8,0.5,1.6,1,2.4,1.4l0.2-0.1C63.6,61.9,63.4,61.7,63.3,61.5z"/>
		</g>
	</g>
	<g id="Shape_759_2_" class="st0">
		<g>
			<path class="st6" d="M63.5,74.8c0-0.1,0-0.2,0.1-0.3c0,0,0,0,0,0c-0.9,0-5.4,4-4.5,5.2c1,1.1,4.2-4.3,4.7-5.1
				C63.6,74.7,63.6,74.8,63.5,74.8z"/>
		</g>
	</g>
	<g id="Shape_760_2_" class="st0">
		<g>
			<path class="st14" d="M98.4,62.2c-0.8-0.8-0.7-4.1-1-4.8c-0.3-0.8-3,3.4-3.2,2.2s0.2-0.9,1.4-3c1.2-2.1,2.1-6.7,2.8-8.2
				c0.8-1.6,0.2-8.1-0.2-10c-0.4-1.9-1.2-5.9-3.8-7.2s-7.3-2.4-9.8-2.8c-3.9-0.6-2.3,1.2,0.7,2.4c3,1.2,5.2,1.7,5.8,5.2
				c0.6,3.5,1.1,3.7,0.6,7.2s-0.9,6.6-1.4,8.4c-0.5,1.8,0.1,2.3-1.2,3.2c-1.2,0.8-0.1,0.3-2.4,0.8c-2.3,0.5-2.2,0.3-4,0.6
				c-1.8,0.2-2.9,0.5-4.5,1.2c-1.6,0.7-2,0.2-2.6,1.3c-0.6,1.1-1.8-0.7-1.2,2.9c-0.7,3.4-1.2,6.8-1.4,10.3c-0.1,1.1,1.4,1.6,1.6,2.7
				c0.7,3.6-1.9,8-5.7,8v0.1c0.4,0.4,0.7,0.9,1.1,1.3c0.2,0.5,0.4,1,0.6,1.4c0.1,0,0.2,0,0.3,0c0,0,0.1,0,0.1-0.1
				c0.2-0.6,0.3-1.2,0.5-1.8c1.4-1.4,2.9,2,3.4,2.4c1.1,0,1.7-1.6,2-1.6c0-2.1,2.8,0.7,3.7,0.7c0,0.1,0,0.3,0,0.4
				c-0.6,0.8-1.8,0.9-2.6,1.4c-0.5,0.4-0.4,0.9-0.8,1.3l-0.2,0.4c-0.5,0-1.1,0-1.6,0c-1.1,0.2-3.4,0.2-4,1.3c0,0.1-0.1,0.1-0.1,0.2
				c1.5,0.7,4.7,0.1,6.2-0.3c0.4-0.1,1.7-0.4,1.9,0.2c0.7,2.1-4.6,4.1-3.2,5.5c1.7,1.7,5.5-4.6,6.4-5.4c0.6-0.5,1.4,0.1,2-0.2
				c0.5-0.5-0.5-1.5-0.7-2c-0.5-1.1-1.1-2.2-1.6-3.4c-0.9-0.7-1.7-1.5-2.6-2.2c0-0.1-0.1-0.2-0.1-0.3c0-0.1,0-0.2,0-0.4
				c0-0.1,0-0.2,0-0.3c0.2-0.7,0.4-1.5,0.6-2.2c0-0.5-0.1-1-0.1-1.5c0-0.1-0.1-0.2-0.1-0.3c0,0-0.5-0.9-0.8-1.4c0,0-1.2-1.2-0.8,0.3
				c0.4,1.6-1.7,1.7-1.8-0.3s-1.1-1.9-0.9-3.7c0.2-1.8,0.8-2.5,0.3-3.3s-1.2-4.5,0-5.8c1.2-1.3,1.7-1.4,3.2-2
				c1.5-0.6,4.4-1.1,6.5-0.5c2.1,0.6,2.8,1,2.3,1.9c-0.4,0.9-0.8,2.1-2.2,2.7s-0.6,0.5,1.6,0.8s7.1,1.6,6.3,3.6s-1.3,2.4-1.4,4.5
				c-0.1,2.1-0.8,4.8-1.1,8.2s-0.6,6.4-1.2,8.2c-0.6,1.8-1,5.2-2.3,4.4c-1.3-0.8-1.5-1.8-2.4-0.8c-0.9,1.1-1.3,1.2-1.6,3
				s-0.2,2.8-0.5,3.4c-0.2,0.7,0.4,0.6,1.1-1.4c0.7-2,1.3-4.1,1.7-3.1c0.3,1-0.7,3.5,1.1,2.9c1.8-0.6,2.8-0.1,3.4-1.4
				c0.7-1.3,3.9-2.4,4.5-4.5c0.6-2.1,1.6-5.8,1.9-8.3c0.3-2.6,0.7-4.7,0.8-7.5c0.2-2.8-0.5-4.8,0-7.2C97.9,67.3,99.3,63.1,98.4,62.2
				z"/>
		</g>
	</g>
	<g id="Shape_762_2_" class="st0">
		<g>
			<path class="st15" d="M87.4,59.1c-2.2-0.4-4.9-0.5-6.8,0.9c0,0,0,0.1,0,0.1c1.7-0.9,8.6,2.5,8.9,0.4
				C89.7,59.7,88.1,59.3,87.4,59.1z"/>
		</g>
	</g>
	<g id="Shape_765_2_" class="st0">
		<g>
			<path class="st16" d="M81.1,60.3C81.2,60.3,81.2,60.3,81.1,60.3c0.1,0,0.1,0,0.1,0C81.2,60.3,81.2,60.3,81.1,60.3z M83.1,60.5
				c-0.6-0.1-1.2-0.1-1.9-0.2c-2.6,0.9-2.6,2.8-0.1,3.7c2.2,0.7,5.5,0,6.9-1.4C88.5,60.3,84.4,60.6,83.1,60.5z"/>
		</g>
	</g>
	<g id="Shape_763_2_" class="st0">
		<g>
			<path class="st17" d="M83.3,59.5v0.1c0.2,0.1,0.4,0.2,0.6,0.3V60c0.4-0.4,2.8,0.5,2.8-0.7C86.2,58.8,83.7,58.9,83.3,59.5z"/>
		</g>
	</g>
	<g id="Ellipse_20_copy_3_2_" class="st0">
		<g>
			<path class="st18" d="M83.7,60.3c-1.2,0-2,0.6-2,1.8c0,1.2,1,2.1,2.1,2.1c1.2,0,2.1-1,2.1-2.1C85.9,61,84.8,60.3,83.7,60.3z"/>
		</g>
	</g>
	<g id="Ellipse_20_2_" class="st0">
		<g>
			<path class="st19" d="M83.7,60.8c-1,0-1.7,0.3-1.7,1.3s0.8,1.9,1.9,1.9s1.9-0.8,1.9-1.9S84.7,60.8,83.7,60.8z"/>
		</g>
	</g>
	<g id="Ellipse_20_copy_2_" class="st0">
		<g>
			<circle class="st18" cx="83.8" cy="62" r="1"/>
		</g>
	</g>
	<g id="Ellipse_20_copy_2_2_" class="st0">
		<g>
			<circle class="st20" cx="82.7" cy="61.7" r="0.5"/>
		</g>
	</g>
	<g id="Shape_761_2_" class="st0">
		<g>
			<path class="st21" d="M85.9,60.3c-3.6-0.6-7.2-0.7-10.1,2.1c0,0,0,0.1,0,0.1c0.6-0.2,1.3-0.4,1.9-0.5c-0.3,0.4-0.7,0.8-1,1.3
				c0,1,2.4,0.6,2.4,0.4c-0.1-0.2-0.2-0.5-0.4-0.7c-0.8-0.8,1.8-2.2,2.2-2.4c0.4-0.1,4.9,0.7,5.2,0.9c0.4,0.4,0.8,0.8,1.1,1.2
				c0.7,0.1,1.3,0.1,2,0.2C89.4,60.9,87.6,60.5,85.9,60.3z"/>
		</g>
	</g>
	<g id="Shape_766_2_" class="st0">
		<g>
			<path class="st22" d="M86.9,69.7c-0.4-1.1-2.5-0.9-3.4-1.5c-1.8-1.3-1.2-1.8-1.2-3.3c-0.8-0.8-2.7-1.2-3.5-0.8c0,0,0,0.1,0,0.1
				c-2.1,0.6-0.9,2.2-0.8,3.8c0.1,1.4-0.8,3.5-0.5,4.5c0.3,1.2,1.9,1.8,2.6,2.7c0.5,0.9,1.1,1.8,1.6,2.7c0.6,1.1,1.5,4.8,3.3,4.6
				c2.2-0.3,0-5.7-0.3-6.6C84.2,73.4,87.5,71.2,86.9,69.7z"/>
		</g>
	</g>
	<g id="Shape_767_2_" class="st0">
		<g>
			<path class="st22" d="M70.8,90.7c-0.6-0.1-1.2-0.3-1.7-0.4c-0.1,0-0.2-0.1-0.3-0.1c-0.1,0-0.2-0.1-0.3-0.1c-0.1,0-0.1,0-0.2-0.1
				c0,0,0,0,0,0c-0.9-0.2-1.5-0.6-2.4-0.6c0,0,0,0-0.1,0c0,0-0.1,0-0.1,0.1c0,0,0,0,0,0.1c0,0-0.1,0-0.1,0c-1.6,3.1,4,2.4,5.2,2.5
				c1.2,0.1,3.4,0.6,4.3-0.2C74.9,89.7,72.1,90.5,70.8,90.7z"/>
		</g>
	</g>
	<g id="Shape_771_2_" class="st0">
		<g>
			<path class="st23" d="M80.6,88.1c-0.5-0.2-2.7,0.5-4.1,0.2c-1.4-0.3-3.4,0-4.1,0.2c-0.7,0.3-1.5,0.8-2.3,0.5
				c-0.8-0.3-1.3-0.7-3.1-0.5c-1.8,0.2-4.6-1.6-4.6-1.6s-0.6,0.1-1.4,0.4c-0.8,0.3-0.3,0.8,0.1,0.8s0.8-0.3,1.4-0.2
				c0.6,0,1.5,1,2.2,1.2c0.6,0.2,2.7,0.4,3.4,0.4c0.8,0,2.2,0.5,2.6,0.5s3-0.1,3.8-0.2c0.8-0.2,1-0.1,1.8,0c0.8,0.1,1.2,0.8,1.3,0.2
				s1.8-0.3,3.2-0.9C82.2,88.4,81.1,88.2,80.6,88.1z"/>
		</g>
	</g>
	<g id="Shape_772_2_" class="st0">
		<g>
			<path class="st22" d="M62.4,88.7c-0.1,0-0.2-0.1-0.3-0.1l0,0.1c-0.8,0.5-2.2,0.7-2.7,1.5c-0.9,1.3,2.2,3.8,3.3,3.8
				c0,0,0.1,0,0.1-0.1C63,93.6,62.4,89.7,62.4,88.7z"/>
		</g>
	</g>
	<g id="Shape_764_2_" class="st0">
		<g>
			<path class="st12" d="M84,56.3c-1.6,0.4-3.2,0.9-4.9,1.3c-0.1,0.1-0.3,0.1-0.4,0.2c0,0,0,0.1,0,0.1c0,0,0,0,0,0.1
				c-0.6,0-1.3,0.5-1.2,1.1c1.1,1.8,8.5-1.1,10.9-0.6c0.3,0.1,3.6,1.6,3.6,0.5C89.5,57.8,86.8,56,84,56.3z"/>
		</g>
	</g>
	<g id="Shape_768_2_" class="st0">
		<g>
			<path class="st24" d="M58.3,89.3C58.3,89.3,58.3,89.3,58.3,89.3C58.3,89.3,58.3,89.3,58.3,89.3C58.3,89.2,58.3,89.2,58.3,89.3
				C58.3,89.3,58.3,89.3,58.3,89.3z M81.8,87.3c0-0.1-0.1-0.2-0.1-0.2c-0.1,0-0.1,0-0.2,0c-1,0.2-2,1.2-3.2,1.5
				c-1.4,0.3-2.8,0-4.2,0.1c-1.2,0.3-2.4,0.6-3.6,0.9c-2.9,0.2-6.1-1.4-8.7-2.3c-0.8,0.2-1.7,0.5-2.5,0.7c0,0.1,0,0.2,0,0.2l0.2,0.1
				c0,0.5-1.3,0.4-1.3,1c1.2-0.4,2.3-0.9,3.5-1.3c0.9-0.1,5,1.4,6,1.7c1.1,0.1,2.2,0.3,3.3,0.4c3.2,0,6.3-0.7,9.4-1
				c0.8,0.1,1.5,0.1,2.3,0.2c0,0,0,0,0,0C82.7,88.9,81.8,88.2,81.8,87.3z"/>
		</g>
	</g>
	<g id="Shape_769_2_" class="st0">
		<g>
			<path class="st25" d="M93,91.9c-0.7,0.7-0.9-0.1-1.5-0.1c0,0.3-4.3,5.5-5.2,4.6c-0.4-0.5,0-1.1-0.6-1.5c-0.1,0-0.1,0-0.2,0
				c-0.6,0-1.1,2.1-1.3,2.5c-1.2,2.5-1.2,5.3-3.4,7.1c-5.3,4.2-12.7,4.4-17.7-0.2c-0.8-0.9-1.6-1.8-2.5-2.7c-0.5-1-1.1-1.9-1.6-2.9
				c-0.1,0-0.2,0-0.2,0c-0.1,0.2-0.1,0.3-0.2,0.5c-0.8,1.2-2.6-0.2-3.2-0.9c0,0-2.4-3.1-2.5-3.2c0,0,0.4,1,0.4,1
				c0,2.2,4,4.3,4.6,6.1c1.2,4.2,2.7,6.8,5.6,10.1c2,2.3,2.4,4.7,5.8,4.9c0.5,0,1.6-0.4,2.1-0.5c1-0.6,1.9-1.2,2.8-2
				c1.6-1.1,3.7-2.4,5.9-3.6c3.4-2.6,5.6-4.4,8.7-7.3c1.6-1.5,3.6-4.3,4.6-6.2c2-3.9,4.4-7.5,4.4-12.2C97.8,85.6,93.2,91.6,93,91.9z
				"/>
		</g>
	</g>
	<g id="Shape_770_2_" class="st0">
		<g>
			<path class="st26" d="M70.6,109.7c-1-0.8-5.1-2.6-6.4-2.6c-1.8-1.3-3.6-2.6-5.1-4.3c0,0.1,0.1,0.1,0.1,0.2
				c0.5,1.3,0.9,2.6,1.4,3.9c1.6,3.2,2.6,5.2,6.3,6.5c1,0.4,2.8,1,3.7,0C71.2,112.7,71.7,110.5,70.6,109.7z"/>
		</g>
	</g>
	<g id="Shape_773_2_" class="st0">
		<g>
			<path class="st24" d="M79,75.8c-0.7-0.8,0.1,1.6,0,2.4c-0.1,0.8-1,1.3-3.2,1.7s-3.8,2.4-4.9,2.8c-1.1,0.3-3.2-0.4-4.5-1.4
				c-1.3-1-1.4-1-2.3-1.4c-0.9-0.4-1.5-1.2-1.5-1.2c-0.4,1.1,1.9,2,2.8,2.5s2.5,1.7,3.5,1.8c1,0.2,2.2,0.4,3-0.1s2.6-1.4,3.7-2.2
				c1.1-0.8,2.8-0.8,3.5-1.2C79.7,79,79.7,76.6,79,75.8z"/>
		</g>
	</g>
	<g id="Shape_774_2_" class="st0">
		<g>
			<path class="st27" d="M106,42.2c0-3.8-1.2-11.5-3.5-14.5s-7-9.5-13.2-10.8s-8.7-4.7-16.8-3.6c-8.2,1.1-17.3,4.6-19.2,9.1
				c-4.3,2.5-9.3,3.6-10.2,13.9c-0.9,10.3,0.5,11.8,0.9,14.8s2.8,11.1,2.8,12.5c0,0,1.3-8,1.1-12.2s-1.5-13.8,1.8-18.8
				s4.4-8.6,7.8-8.2s3.1,2,10,3.1c6.9,1.1,13-0.3,21.1,2c8.1,2.3,9.6,5.1,9.8,10.1s0.4,13.9,0.6,17.6c0.2,3.7,1.2,6.4,1.4,8.4
				c0.2,2,0.2-7.5,3.8-11.5S106,45.9,106,42.2z"/>
		</g>
	</g>
	<g id="Shape_775_2_" class="st0">
		<g>
			<path class="st28" d="M106.1,53.7c-1.7,1.6-2.6,3.4-3.4,5c-0.8,1.6-1.4,3-2.3,3.2s-0.9-1.2-0.9-3.5s-0.4-5.6-0.1-7.2
				s1-15.9-3-17.8c0.6,4.3,0.8,9.4,0.2,13.7c-0.4,3.1-1.6,5.7-1.6,8.8c-0.4,1.4-0.9,2.8-1.3,4.2c-0.8,0-1.7-0.8-2.6-0.8
				c0,0,0,0,0,0.1c-0.2,0.5,0.4,3.2,0.9,3.5c0.3,0.1,0.5,0.1,0.8,0.2c1.3-0.5,3.2-4.4,4-4.4c0.6,0.3,0.6,2.2,0.6,2.8
				c0,2.8-1,5.5-1.3,8.3c-0.3,2.2,0.1,4.3-0.1,6.5c-0.2,1.4-0.4,2.8-0.7,4.2c0,1.4,0,2.8,0,4.2c-0.4,1.6-0.7,3.3-1.1,4.9
				c-0.2,0.6-0.5,1.1-0.8,1.7c-2,2-3.1,4.4-5.5,6.3c-0.7,0.6-2.4,1.9-2.4,2.9c3,0,6.6-4.2,8.5-6.2c2.7-3.1,4.6-7.2,5.3-11.2
				c0.4-1,0.8-2.7,1.2-3.7c0.2-2.2,0.4-4.3,0.7-6.5c0.4-2,1.5-3.5,1.5-5.7c-0.1,0-0.1,0-0.2,0c-0.3,0-1.2,2.2-1.3,2.1
				c0-0.9,0-1.9,0-2.8c0-1.8-0.8-4.5,1.7-4.5c0.2,0.3,0.3,1.1,0.7,1.1c0.6-1.2-1.4-4.1,0.8-4.5c0.4-0.4,0.6-0.5,0.6-0.6c0,0,0,0,0,0
				c0,0,0.1-0.1,0,0c0.1,0.3,1.4,3.7,1.4,2.7c0-1.1-1-2.9,0.1-4.7C107.4,54,107.8,52,106.1,53.7z"/>
		</g>
	</g>
	<g id="Shape_776_2_" class="st0">
		<g>
			<path class="st29" d="M105.1,59.9c-0.2,0-0.4,0.1-0.6,0.1c-0.3,0.3-0.2,0.5-0.2,1c0,0,0,0,0.1,0c0,0,0.1,0,0.1,0
				c0,2.3,0.7,3.3-0.4,5.8c-0.1,0.3-0.5,1.6-0.1,1.8h0.1C105.5,67.3,107.3,61,105.1,59.9z"/>
		</g>
	</g>
	<g id="Shape_778_2_" class="st0">
		<g>
			<path class="st30" d="M47,50.2c0.1,0.6,0.3,1.2,0.4,1.9C47.3,51.4,47.2,50.8,47,50.2z M47.3,52.1C47.3,52.1,47.3,52.1,47.3,52.1
				C47.3,52.1,47.3,52.1,47.3,52.1L47.3,52.1z M52.5,25.2c-0.7,0.3-1.3,0.6-2,0.9c-1.4,0.4-2.9,1-3.9,2.1c-0.4,0.8-0.8,1.5-1.2,2.3
				c0.1,0.4,0.2,0.9,0.3,1.3c-0.3,1.3-1.3,2.3-1.5,3.7c0.1,0.6,0.2,1.2,0.3,1.8c0.2,0,0.4-0.1,0.5-0.1c-0.2,0.6-0.5,1.2-0.7,1.8
				c-0.3,1-0.9,6,0.1,6.4c0.1-0.3,0.2-0.6,0.3-0.9c0,2,1.4,3.8,2.1,5.6c-0.1-0.7-0.3-1.4-0.4-2.2c0.1-2.1,0.2-4.2,0.3-6.3
				c0.2-1.6,0.4-3.1,0.6-4.7c-0.1,0.1-0.3,0.2-0.4,0.3h0c0-1.4,0.4-2.6,0.8-3.9c0.2-0.6,0.5-1.1,0.7-1.7h0c-0.5,0-0.9,1-1.1,1.3
				c-0.2-0.2-0.3-0.3-0.5-0.5c-0.2,0,0.5-2,0.6-2.2c1-1.8,2.8-2.9,4.3-4.2c0,0,0,0,0,0C52.1,25.9,52.3,25.6,52.5,25.2z"/>
		</g>
	</g>
	<g id="Shape_777_2_" class="st0">
		<g>
			<path class="st30" d="M78,22.2c-1.4-0.2-2.8-0.3-4.1-0.9c-0.9-0.4-1.7-0.8-2.6-1.2c0.4-0.1,0.8-0.1,1.1-0.2c0-0.5-4.3-2.3-5-2.3
				c0.2,0,0.5-0.1,0.7-0.1c1.1-0.1,2.2-0.1,3.2-0.5c0.5-0.3,1-0.5,1.5-0.8l-0.4-0.5v0c0.2-0.6,2.9-1.3,2.9-1.3
				c-1,0.1-2.1,0.2-3.1,0.2c-1.7,0.3-3.5,0.7-5.2,1c-1.2,0.1-2.5,0.2-3.7,0.4c0,0,0,0.1,0,0.1c-0.1,0-0.2,0-0.3,0.1
				c-1,0.8-4.2,1.6-4.2,3.2c0.5,0.1,1,0.2,1.5,0.3c-0.6,0.8-1.1,1.6-1.7,2.3c0.2,0,0.4,0,0.6,0.1c1.5,0,2.8,0,4.3,0.1
				c2.2,0.5,4.3,0.9,6.5,1.4c3.4,0.1,6.8-0.9,10.1-0.9v0C79.8,22.2,78.4,22.2,78,22.2z"/>
		</g>
	</g>
	<g id="Shape_779_2_" class="st0">
		<g>
			<path class="st28" d="M89.4,62.3c-0.1,0-0.2,0-0.2,0.1c-1.1,2.2-3.2,2.3-5.4,2.8c-0.4,0-0.8,0.1-1.2,0.1c1.8,1.8,5.2,0.1,6.8-0.3
				c0.2-0.1,0.3-0.3,0.5-0.4C90.2,63.8,89.5,61.6,89.4,62.3z"/>
		</g>
	</g>
	<g id="Shape_780_2_" class="st0">
		<g>
			<path class="st31" d="M86.1,85.9c0,0.1,0,0.1,0,0.2c0,0,0.1,0,0.1,0c0,0-0.1,0.1-0.1,0.1c0,0,0-0.1,0-0.1c0,0-0.1,0-0.1,0
				c0,0.2,0,0.4,0,0.5c0,0.5,0,0.9,0.1,1.4c-0.1,0.5-1.5,2.3-0.4,2.5C88.6,91,87.3,86.9,86.1,85.9z"/>
		</g>
	</g>
	<g id="Shape_781_2_" class="st0">
		<g>
			<path class="st32" d="M97.1,85.7C97.1,85.7,97.1,85.7,97.1,85.7L97.1,85.7L97.1,85.7z M91.4,96c-0.5,0.5-0.9,1-1.4,1.5
				c-0.9,0.9-1.6,1.9-2.9,1.2c-0.3,0-3.3,5.5-4.5,6.6c-4.4,3.8-14.6,3.3-19.4,0.2c-1.4-0.9-3.9-3.4-3.9-5h-0.1l-0.1-0.1
				c-0.4,0,0,1.6,0,1.7c0.9,0.5,1.9,3.4,3.7,4.4c4.9,2.8,11.6,4.2,16.9,1.5c1.4-0.7,2.9-1.3,4.2-2.2c0.9-1.1,1.9-2.2,2.8-3.3
				c1.1-1.1,2.3-2.2,3.4-3.4c1.2-1.7,2.4-3.4,3.6-5.1c1-1.7,2.4-3.7,2.7-5.8c0,0,0-0.1,0-0.1c0.1-0.9,0.3-1.7,0.4-2.6
				c-0.5,1.3-1,2.5-1.4,3.8C95.4,90.2,92,96,91.4,96z"/>
		</g>
	</g>
	<g id="Shape_785_2_" class="st0">
		<g>
			<polygon class="st33" points="73.7,116.4 66.7,115.9 54.8,117.7 48.8,158.1 71.5,157.2 84.4,125.7 			"/>
		</g>
	</g>
	<g id="Shape_786_2_" class="st0">
		<g>
			<path class="st34" d="M72.9,116.7c0,0-5-1.1-7-0.2c-2,0.8-3.2,1.5-3.2,1.5l1.6,10l-1.8,5.1c0,0-10.2,12.4-11.2,23.3
				c-1,10.8,20.5,0.2,20.5,0.2s-0.3-17.3-1.6-22.9c-1.2-5.6,4.9-7.9,7.1-9.7S72.9,116.7,72.9,116.7z"/>
		</g>
	</g>
	<g id="Shape_784_2_" class="st0">
		<g>
			<path class="st35" d="M59.2,102.2l-1.5-0.6l-0.9-0.7l-3.5,28l12-12.1l1.6-0.8c0,0-3.7-3.7-5.5-7.6
				C59.5,104.7,59.2,102.2,59.2,102.2z M97.5,88.7c0,0-4.3,7.3-8.2,12.3S72,116.4,72,116.4c2.5,4.7,10.9,11.2,10.9,11.2
				s4.9-8.2,5.7-10.6c0.8-2.3,9.2-21.7,9.8-25.8C99,87.2,97.5,88.7,97.5,88.7z"/>
		</g>
	</g>
</g>
</svg>
