<?xml version="1.0" encoding="utf-8"?>
<!-- Generator: Adobe Illustrator 19.1.0, SVG Export Plug-In . SVG Version: 6.00 Build 0)  -->
<svg version="1.1" id="Layer_1" xmlns="http://www.w3.org/2000/svg" xmlns:xlink="http://www.w3.org/1999/xlink" x="0px" y="0px"
	 viewBox="0 0 150 150" style="enable-background:new 0 0 150 150;" xml:space="preserve">
<style type="text/css">
	.st0{clip-path:url(#SVGID_3_);}
	.st1{fill-rule:evenodd;clip-rule:evenodd;fill:#2E3084;}
	.st2{fill-rule:evenodd;clip-rule:evenodd;fill:#7F5C3C;}
	.st3{fill-rule:evenodd;clip-rule:evenodd;fill:#603E2B;}
	.st4{fill-rule:evenodd;clip-rule:evenodd;fill:#906D49;}
	.st5{fill-rule:evenodd;clip-rule:evenodd;fill:#9C634A;}
	.st6{fill-rule:evenodd;clip-rule:evenodd;fill:#AE6E4F;}
	.st7{fill-rule:evenodd;clip-rule:evenodd;fill:#C58061;}
	.st8{fill-rule:evenodd;clip-rule:evenodd;fill:#B67455;}
	.st9{fill-rule:evenodd;clip-rule:evenodd;fill:#AA644F;}
	.st10{fill-rule:evenodd;clip-rule:evenodd;fill:#E7A580;}
	.st11{fill-rule:evenodd;clip-rule:evenodd;fill:#D59270;}
	.st12{fill-rule:evenodd;clip-rule:evenodd;fill:#F3B697;}
	.st13{fill-rule:evenodd;clip-rule:evenodd;fill:#E89C7E;}
	.st14{fill-rule:evenodd;clip-rule:evenodd;fill:#854638;}
	.st15{fill-rule:evenodd;clip-rule:evenodd;fill:#3F1612;}
	.st16{fill-rule:evenodd;clip-rule:evenodd;fill:#E19A7C;}
	.st17{fill-rule:evenodd;clip-rule:evenodd;fill:#804934;}
	.st18{fill-rule:evenodd;clip-rule:evenodd;fill:#D26A69;}
	.st19{fill-rule:evenodd;clip-rule:evenodd;fill:#DE8585;}
	.st20{fill-rule:evenodd;clip-rule:evenodd;fill:#F5BEB4;}
	.st21{fill-rule:evenodd;clip-rule:evenodd;fill:#6F362B;}
	.st22{fill-rule:evenodd;clip-rule:evenodd;fill:#812728;}
	.st23{fill-rule:evenodd;clip-rule:evenodd;fill:#935B41;}
	.st24{fill-rule:evenodd;clip-rule:evenodd;fill:#784634;}
	.st25{fill-rule:evenodd;clip-rule:evenodd;fill:#B18B75;}
	.st26{fill-rule:evenodd;clip-rule:evenodd;fill:#92766D;}
	.st27{fill-rule:evenodd;clip-rule:evenodd;fill:#1D1314;}
	.st28{fill-rule:evenodd;clip-rule:evenodd;fill:#50463E;}
	.st29{fill-rule:evenodd;clip-rule:evenodd;fill:#736253;}
	.st30{fill-rule:evenodd;clip-rule:evenodd;fill:#FCDEE1;}
	.st31{fill-rule:evenodd;clip-rule:evenodd;fill:#BD7F61;}
	.st32{fill-rule:evenodd;clip-rule:evenodd;fill:#943034;}
	.st33{fill-rule:evenodd;clip-rule:evenodd;fill:#5C3526;}
	.st34{fill-rule:evenodd;clip-rule:evenodd;fill:#BE7B5A;}
	.st35{fill-rule:evenodd;clip-rule:evenodd;fill:#E7A07E;}
	.st36{fill-rule:evenodd;clip-rule:evenodd;fill:#7B4C39;}
	.st37{fill-rule:evenodd;clip-rule:evenodd;fill:#362018;}
	.st38{fill-rule:evenodd;clip-rule:evenodd;fill:#D9906C;}
	.st39{fill-rule:evenodd;clip-rule:evenodd;fill:#9C5D37;}
	.st40{fill-rule:evenodd;clip-rule:evenodd;fill:#90512A;}
	.st41{fill-rule:evenodd;clip-rule:evenodd;fill:#704432;}
	.st42{fill-rule:evenodd;clip-rule:evenodd;fill:#B47864;}
	.st43{fill-rule:evenodd;clip-rule:evenodd;fill:#965931;}
	.st44{fill-rule:evenodd;clip-rule:evenodd;fill:#B4875E;}
	.st45{fill-rule:evenodd;clip-rule:evenodd;fill:#513421;}
	.st46{fill-rule:evenodd;clip-rule:evenodd;fill:#D6A77B;}
	.st47{fill-rule:evenodd;clip-rule:evenodd;fill:#C07D56;}
	.st48{fill-rule:evenodd;clip-rule:evenodd;fill:#641A17;}
	.st49{fill-rule:evenodd;clip-rule:evenodd;fill:#0F1239;}
	.st50{fill-rule:evenodd;clip-rule:evenodd;fill:#252564;}
	.st51{fill-rule:evenodd;clip-rule:evenodd;fill:#1E1D57;}
	.st52{fill-rule:evenodd;clip-rule:evenodd;fill:#734A34;}
	.st53{fill-rule:evenodd;clip-rule:evenodd;fill:#A5694E;}
	.st54{fill-rule:evenodd;clip-rule:evenodd;fill:#A57955;}
	.st55{fill-rule:evenodd;clip-rule:evenodd;fill:#A98464;}
	.st56{fill-rule:evenodd;clip-rule:evenodd;fill:#C49975;}
</style>
<g>
	<defs>
		<circle id="SVGID_1_" cx="75" cy="75" r="75"/>
	</defs>
	<linearGradient id="SVGID_2_" gradientUnits="userSpaceOnUse" x1="75" y1="150" x2="75" y2="9.094947e-13">
		<stop  offset="0" style="stop-color:#212121"/>
		<stop  offset="1" style="stop-color:#488FCC"/>
	</linearGradient>
	<use xlink:href="#SVGID_1_"  style="overflow:visible;fill-rule:evenodd;clip-rule:evenodd;fill:url(#SVGID_2_);"/>
	<clipPath id="SVGID_3_">
		<use xlink:href="#SVGID_1_"  style="overflow:visible;"/>
	</clipPath>
	<g id="Shape_251_3_" class="st0">
		<g>
			<path class="st1" d="M131.5,117.4c-4.9-2.1-18.3-7.9-18.3-7.9s-2.8-1.2-8.1-4.4c-4.4-2.6-12.8-4.8-12.8-4.8s-28.1,3.5-34.1,4.3
				c-6,0.8-10.1,4.5-14.9,5.8c-4.8,1.3-17.9,5.5-22.8,7.9c-5,2.4-7.1,8.3-7.1,8.3l-5.4,26.8c0,0,32.1,4.2,64.6,4
				c33.4-0.2,67.2-4.7,67.2-4.7S136.4,119.5,131.5,117.4z"/>
		</g>
	</g>
	<g id="Shape_234_2_" class="st0">
		<g>
			<path class="st2" d="M114.5,63.3c0.3-2.3,1.7-3.7,1.8-7.1c0.2-3.4-1.4-8.7-2.9-12.4c-1.5-3.7-2.9-9.4-5.6-13.5
				c-2.7-4.1-7.7-7-11.5-8.2c-3.8-1.3-7-1.3-7-1.3s-2.7-3.7-5.4-5.4c-2.7-1.7-23.9-3.5-32.1,7.2c-8.2,10.8-8.8,16.7-10.3,21.1
				c-1.4,4.4-10,11.9-5.5,24c-1.7,7.4-2.4,15.2-0.5,21.3c1.8,6.1,2.3,13.3,8.5,15.8c6.3,2.5,7.6-1.2,13.4-1.9s36.5-3.5,36.5-3.5
				s7.8,6.1,13.4,1c5.6-5.1,3.1-6.2,3.4-8.3s0.7-4.6,2.1-6.1c1.3-1.4,3-8.1,3-12.1S114.2,65.6,114.5,63.3z"/>
		</g>
	</g>
	<g id="Shape_250_3_" class="st0">
		<g>
			<path class="st3" d="M52,88.5l-5.8-26.2c0,0-1.1-2.7-3.4,5.3c-2.3,8-1.6,7.3,1.2,23.3c2.8,16,11.6,9.4,11.6,9.4
				C57.1,94.9,52,88.5,52,88.5z"/>
		</g>
	</g>
	<g id="Shape_235_2_" class="st0">
		<g>
			<path class="st4" d="M45,92.8c0.5-5.2-0.8-6.6-0.8-6.6s-3.6-6.2-1.5-14.3c1.7-6.5,2.6-11.1,2.6-11.1l-1.5-11.7
				c0,0,0.5,9.5-4.7,25.6c-2.6,8.2-2.1,17.1,1.3,22.2c-0.6-7.9-0.3-7.2,0.1-9.2c0.4-1.9-1.9,7.7,7.5,12.7
				C48.1,100.4,44.6,96.8,45,92.8z"/>
		</g>
	</g>
	<g id="Shape_181_2_" class="st0">
		<g>
			<path class="st5" d="M100.3,50c-0.4-0.5-1.9-9.1-3.4-11c-1.4-1.9-2.6-5.8-5.6-7.9c-3-2.1-7.2-5.2-9.1-5.8c-1.8-0.6-4-2.2-6.1-2.2
				s-6.4,1.1-7,1.2c-0.6,0.1-16.9,7.5-20,18.9c0,0-4.4,14.1-4.4,18.4s0,9.7,0.1,12.7c0.1,2.9,0.1,9.3,4.5,15.3
				c3,4.1,5.3,5.3,5.3,5.3s1.5,10.3,1.6,14.2c0.1,3.9,2.3,19.6,11.5,18.1c9.2-1.5,20.1-9.7,22.8-17.1c2.7-7.4,1.1-16.6,1.4-19.9
				c0.3-3.4,0.8-7.2,2.6-7.9c1.8-0.6,4.3,0.9,4.8-4.5c0.4-5.4,0.1-13.3,0-15.1C99.2,60.6,100.8,50.5,100.3,50z"/>
		</g>
	</g>
	<g id="Shape_248_3_" class="st0">
		<g>
			<path class="st5" d="M93.4,71.6c0.1-2.5-0.3-4.5-1.6-2.3c-1.3,2.3-1.8,2.8-3.1,5.8c-1.3,3-0.8,3.2-0.8,3.2c1.6,7.2,4.3,1.1,5.1-1
				C93.7,75.4,93.3,74.1,93.4,71.6z"/>
		</g>
	</g>
	<g id="Shape_247_3_" class="st0">
		<g>
			<path class="st6" d="M93.9,51.8c-0.8-2.6-1.6-7.9-1.6-7.9c-1.4-0.6-4.8,5.4-4.1,6.9c0.6,1.5,2.1,4.4,1.7,7.4
				c-0.3,2.9,2.4,1.9,3.7,0.6C94.9,57.5,94.7,54.4,93.9,51.8z"/>
		</g>
	</g>
	<g id="Shape_182_2_" class="st0">
		<g>
			<path class="st7" d="M89.9,61.4c-2.4-0.2-3-0.6-5.1-0.9s-3.7,0.3-5.3,0.2c-1.6-0.1-3.7-1.3-4.9-1.9c-1.2-0.6-1.1-0.3-2.3-1
				c-1.2-0.6-1.8-1.5-1.5-3.7c0.3-2.2,0-2.8,2.6-3.2c2.6-0.4,5.2-1.7,8.7-0.9s5.8,2.2,7,1.5s-0.8-1.7,0.9-3.2
				c1.6-1.5,3.4-3.5,1.8-6.4c-1.5-2.9-3.6-7.8-7-10.1S72.2,29.2,67.5,31c-4.7,1.8-6.8,5.7-9.1,8s-5.4,6.4-7.2,8s-3.9,6.6-4.9,8
				s-2.3,7.4-1.6,10.5c0.6,3.1,0.2,8.4,0.4,9.8c0,0-0.9,9.7,5.4,14c2.6,1.7,3.5,0.1,6.4,2.4c2.9,2.3,4.5,2.4,7.9,2.6
				s8.1-0.1,9.7-1.5c1.6-1.4,3.4-3.6,4.5-5.4s1.9-5.1-0.5-4.7c-2.5,0.4-2.4,0.5-3.2,2.2s-2.5,2.3-4,1.3c-1.5-1-1.6-0.1-3.7,0
				c-2.1,0.1-3.7,0-5.2-0.8c-1.5-0.8-0.6-2.1-2.2-3s-2.5-1.9-3.9-0.9c-1.3,1-1.3,0.5-1.9-0.2c-0.6-0.8-0.9-2.6-2.6-2.9
				c-1.7-0.3-5.3-0.4-2.5-1.1c2.6-0.6,2.7,0.8,4.4-0.3c2.6-1.8,3.9-2.3,3.2-0.8s-2.2,2-1.5,3.2c0.5,0.9,2.8,0.9,4.8,0.4
				c1.9-0.4,3.4-0.9,5.1-0.6c1.7,0.2,2.8-0.5,4.8,0.1c1.9,0.6,2.7,1,4.4-0.4s2.2-3.1,2.4-3.8c0.2-0.5-0.1-1.1,2.1,0
				c1.5,0.7,4.2,1.3,6-0.1c1.7-1.4,3.2-5,4.3-6.7c1.1-1.7,2.7-4.3,3-5.4C92.6,61.9,92.3,61.6,89.9,61.4z"/>
		</g>
	</g>
	<g id="Shape_241_1_" class="st0">
		<g>
			<path class="st8" d="M63.4,51.9l-4.5,1.3c-0.9,0-0.7,0.6,0.3,1.1c1,0.5,1.6,2.2,3.1,2.5c1,0.2,1.2,0.1,1.6-1.2
				C64.6,53.8,63.4,51.9,63.4,51.9z"/>
		</g>
	</g>
	<g id="Shape_191_1_" class="st0">
		<g>
			<path class="st9" d="M74.3,68.6c-1-2.1-2.4-1.9-2.4-1.9c-1-0.1-0.4,0.9,0.1,1.1c0.5,0.2,1.3,0.9,1.5,1.6c0.2,0.8-0.2,1.4-1.1,1.1
				c-0.9-0.3-1.8-0.4-2.8-0.3c-1,0.1-1.1,0.6-2.6,0.9c-1.5,0.3-1.8,0.2-2.7,0c-0.9-0.2-1.4-0.2-2.4,0s-1.5,1-1.3,1.7
				c0.2,0.8,1.4,1.4,2.1,1.6c0.7,0.2,2.5,0.4,3.2,0.9c0.8,0.5,0.8,1.4,1.2,0.9s1.1-0.6,2.1-0.9c0.9-0.2,3.7-0.5,4.3-0.8
				s1.6-1.5,1.8-2.2C75.6,71.5,75.2,70.6,74.3,68.6z"/>
		</g>
	</g>
	<g id="Shape_183_2_" class="st0">
		<g>
			<path class="st10" d="M84.3,46.4c-1.6-1.7-2.6-5.6-5-8.9c-2.4-3.2-11.3-1.6-11.3-1.6c-7.1,0.5-7.6,4.7-8.7,6.1
				c-1.1,1.4-3.5,3.5-7,5.5c-3.6,2.1,0.5,1.5,3.4,1.1c2.3-0.3,6.4,0.8,8.2,1.3c1.8,0.5,1.8,3.1,1.5,4c-0.3,0.9-0.1,2.2-0.6,3.5
				s-1.4,1.2-1.8,2.3s-1.4,1.5-3,2.8s-2.3,0.9-2.8,0.6c-0.5-0.2,1.7-1.8,2.9-2.3s1.3-1.6,0.4-1.1c-0.9,0.5-2.1,0.9-4.3,1
				c-2.3,0.1-3-0.6-4-1.5c-1-0.9-1.9-0.1-3.2,0.4c-1.3,0.5-0.5-0.5-2.6-0.4s-0.1,3,0.1,4.7c0.2,1.7,0.3,4.4,1.1,5.9
				c0.8,1.4,1.9,3.7,3.1,4.5c2.4,1.6,3.9,0.4,6.1-1.7c1.5-1.5,1.9-1.5,2.5-2.6c0.5-1.1,1.6-2.3,2.3-2.7c0.6-0.4-0.3,0.9-1,2.6
				s0,1.6,0.6,1s1.9-0.5,3.1-0.5s3.8-0.1,4.8-1.2c1-1.1,0.1-2.9-0.3-5c-0.4-2.1,0.5-5.4,0.4-7.1c-0.1-1.7-0.8-2.5-0.2-4.9
				c0.5-2.4,3.9-2.4,6.6-2.9c2.7-0.5,7.9-0.2,10.1,0.2C87.8,49.8,85.9,48.1,84.3,46.4z"/>
		</g>
	</g>
	<g id="Shape_244_2_" class="st0">
		<g>
			<path class="st11" d="M54.9,62.4c-0.8,0-2-0.6-3.1-1.3c-1.1-0.6-1.9-2.1-1.9-2.1c-0.9,0.2-2.3-0.2-2.1,0.2s2.2,2.3,3.2,2.9
				s3.1,1.2,4.5,1C57,62.9,55.7,62.4,54.9,62.4z"/>
		</g>
	</g>
	<g id="Shape_184_2_" class="st0">
		<g>
			<path class="st12" d="M66.7,62c-0.2-1,0.4-5.6,0.4-5.6c-1.6-0.7-1.4,2.4-1.7,4.2c-0.3,1.8-0.1,3.2-0.8,5c-0.6,1.7-1,3.6,0.5,3.1
				c1.5-0.4,1.8-1.4,1.6-2.6C66.6,64.9,66.9,62.9,66.7,62z"/>
		</g>
	</g>
	<g id="Shape_185_2_" class="st0">
		<g>
			<path class="st12" d="M60.2,65.3c-2.1,0.2-3.7-0.2-4.8-0.6s-6.8-2.6-6.1-0.5c0,0,0,3.2,2.2,4.3c2.2,1.1,2.3,1.8,4.2,1.3
				C57.7,69.2,62.2,65.1,60.2,65.3z"/>
		</g>
	</g>
	<g id="Shape_186_2_" class="st0">
		<g>
			<path class="st13" d="M65.9,86.5c-2.7-0.2-3.7-0.1-5.4-0.2c-1.7-0.1,0.4-1.2-0.2-1.5c-0.6-0.3-1.9-2.2-1.9-2.2
				c-1.6-1.7-2.3,1.9-3.4,4.2c-1.1,2.3,0.6,1,1.3,1.7c0.6,0.8,0.5,1.6,2.4,3c1.8,1.4,5.1,1.1,7,0.5c1.9-0.5,3.6-0.6,3.5-3
				C69.1,86.7,68.6,86.7,65.9,86.5z"/>
		</g>
	</g>
	<g id="Shape_187_2_" class="st0">
		<g>
			<path class="st14" d="M75.3,82.8c-0.4,0.3-1.8,1-2.6,1.3c-0.8,0.3-2,0.5-3,0.1c-1-0.4-2.5,0.1-3.8,0s-1.8-0.3-3.1-0.2
				c-1.4,0.1-3.1-0.6-3.1-0.6c-1.3,0.2,2.9,1.8,3.6,1.8c0.7,0.1,1.5,0.8,2.2,0.6c0.6-0.2,2.8,0.1,3.1-0.1s1.9-0.4,2.7-0.5
				s1.4,0.1,2.5-0.5S75.8,82.6,75.3,82.8z"/>
		</g>
	</g>
	<g id="Shape_188_2_" class="st0">
		<g>
			<path class="st14" d="M70.6,70.7c-1.2-0.4-2.7,0.8-3.5,1.1c-0.8,0.3-1.7,0.6-2.3,0.3c-0.6-0.3-1.4-0.7-2.6-0.9s-1.5,1.3-1.5,1.3
				c0.3,1.8,3.1,1.3,3.8,1.4c0.7,0.1,0.9,0.4,1.5,0.8c0.6,0.3,1.6,0.2,2.1-0.1c0.4-0.3,1.9-0.4,2.8-0.4c0.9-0.1,2-0.3,2.6-1.2
				C74.1,72.1,71.8,71.1,70.6,70.7z"/>
		</g>
	</g>
	<g id="Shape_189_2_" class="st0">
		<g>
			<path class="st15" d="M64.3,72.2c-0.9-0.7-1.6-0.8-2.1-0.4c0,0-0.5,0.6,0.5,0.9S65.2,72.9,64.3,72.2z"/>
		</g>
	</g>
	<g id="Shape_190_1_" class="st0">
		<g>
			<path class="st15" d="M71.4,71.7c-0.8-0.5-2.3,0.2-2.3,0.2c-1.1,0.3-1.2,1-0.8,1.1c0.4,0.1,2.6,0,2.9-0.1
				C71.7,72.7,72.2,72.2,71.4,71.7z"/>
		</g>
	</g>
	<g id="Shape_193_2_" class="st0">
		<g>
			<path class="st16" d="M67.7,78c-0.7,0.4-1.7-0.3-2.1-0.9c-0.4-0.6-1.2-1.2-2.1-1.4c-0.9-0.2-1.6-0.6-2.2-1.2
				c-0.5-0.5-1.7-1.7-1.7-1.7c-2.4-0.9-1,2.3-1,3.7s-1.4,0.9-0.9,2.3c0.5,1.4,4.5,0.2,5.4,0.1c0.9-0.1,1.4-0.7,2.4-0.3
				c1,0.4,2.1,0.1,2.5-0.1C68.5,78.2,68.4,77.5,67.7,78z"/>
		</g>
	</g>
	<g id="Shape_206_2_" class="st0">
		<g>
			<path class="st17" d="M87.6,79.1c-0.6-0.5-2.4-1.3-4.5-1.6c-2.2-0.3-3.1-1.1-4.9-2.3c-1.7-1.1-0.4,2,0.4,2.5
				c1.9,1.1-0.1,1.4-1.5,2.1s-3.6,0.2-3.6,0.2c-1.4,0.2,0.2,2.4,1.4,1.8c1.2-0.5,1.2-1,2.5-0.9c1.6,0.1,2.9,2.4,2.9,1.1
				c0-0.7,1-1.6,2.3-2.5c1.1-0.7,2.4-0.4,3.5,0C87.4,80.1,88.2,79.6,87.6,79.1z"/>
		</g>
	</g>
	<g id="Shape_196_2_" class="st0">
		<g>
			<path class="st18" d="M75.6,81.2c-0.6-0.3-4.1-0.3-5.7-0.5s-11.5,0-10.8,0.6c0,0,0.9,0.8,1.8,1.2c1,0.4,2.3,0.7,3.9,0.9
				s3.7,0.1,5.6-0.4C72.3,82.4,76.2,81.5,75.6,81.2z"/>
		</g>
	</g>
	<g id="Shape_198_2_" class="st0">
		<g>
			<path class="st19" d="M71.8,81.8c-0.3-0.3-2.3,0-3.2,0.1c-0.9,0.1-2.9-0.2-2.9-0.2c-0.4-0.1-2.3-0.1-3-0.1s-1.2-0.1-1.7,0.2
				c-0.5,0.3,1.4,1,2.1,1c0.6,0,2.4,0.4,3,0.4c0.6,0.1,2.9-0.1,3.7-0.4C70.4,82.4,72.1,82,71.8,81.8z"/>
		</g>
	</g>
	<g id="Shape_197_2_" class="st0">
		<g>
			<path class="st20" d="M65.1,81.5c-0.9-0.2-2.1-0.3-2.1,0.1c0,0-0.2,0.5,0.9,0.5S65.9,81.8,65.1,81.5z"/>
		</g>
	</g>
	<g id="Shape_202_2_" class="st0">
		<g>
			<path class="st21" d="M57.1,80.6c-0.5,0.3-1.6,1.4-1.6,1.4c-0.6,0.7,1.2-0.7,1.7-1c0.8-0.3,0.8,0,1.4,0.1c0.6,0.1,1.2,0,1.2,0
				s-0.3-0.3-1-0.4C58.1,80.5,57.9,80.1,57.1,80.6z M78.9,80.6c-0.4-0.4-0.7-0.6-1.6-0.5c-0.9,0.1-1.7,1.3-1.7,1.3
				c0.3-0.1,1.1-0.6,1.9-0.8s0.8,0.3,1.6,0.5S79.3,81,78.9,80.6z M54.5,79.1c0.6-0.8,1.3-1.6,1.3-1.6s1.2-1.9,1.5-2.5
				c0,0-1.2,1.5-1.9,2.2c-0.7,0.6-1.7,2.3-1.4,3c0.3,0.8,0.9,1.3,0.9,1.3S53.8,79.9,54.5,79.1z M81.6,78.2c-0.4-0.2-1.2-0.7-2.2-1.2
				c-1-0.5-2.1-2.3-2.1-2.3C77.3,75,78.6,77,79,77.2s0.7,0.5,1.7,0.9c0.6,0.2,0.5,0.6,0.5,1c0,0.3-0.5,1-1.1,1.6
				c-0.5,0.6,0,1.9,0,1.9s0.2-1.1,0.4-1.7c0.3-0.6,1-1.1,1.1-1.7C81.8,78.5,82,78.4,81.6,78.2z"/>
		</g>
	</g>
	<g id="Shape_192_2_" class="st0">
		<g>
			<path class="st22" d="M74.1,80.2c-0.8-0.1-2.9-0.3-3.7-0.5c-0.8-0.3-2.1-0.3-2.7-0.2c-0.6,0.1-1.2,0.2-1.8,0s-1.1-0.1-1.9,0
				c-0.8,0.1-2.8,0.5-3.9,0.6c-1.1,0.1-2.1,0.4-2.1,0.4c1.4,0.8,3.2,0.6,5,0.5c1.3,0,2.4,0.3,3.6,0.3c2.7,0,5.1-0.3,5.5-0.3
				c1.3,0.1,3.5,0.5,4.5-0.8C75.8,80.4,74.9,80.3,74.1,80.2z"/>
		</g>
	</g>
	<g id="Shape_195_2_" class="st0">
		<g>
			<path class="st23" d="M63.2,51.5c-0.5-0.8-1.4-1.4-2.9-1.8c-1.6-0.4-2.6-0.3-4.7-0.3c-4.5,0-6.9,2.6-6.4,2.4c3.3-1.5,5-1.2,6-1.1
				c1,0.2,0.2,0.5-0.1,0.9c-0.3,0.3-1.3,0.8-2.3,1.3c-1,0.5-1,1.1-1.6,1.6s0.1,1.7-0.6,2.3c-0.8,0.5-0.8,1.1,0,0.8
				c0.8-0.4,0.7,0.2-0.5,1.2c-1.2,1,0.9,0.1,1.6-0.1s0.8,0.2,1.8,0.8c1,0.5,1.9,0.5,2.9,0.3s2.6-0.8,3.2-1c0.6-0.2,1.4-0.5,2.2-0.4
				c0.8,0.1,0.6-0.5,0-0.9C61.2,57,60.7,56.4,60,56c-0.7-0.4-1.7-0.8-2.4-1.2c-0.7-0.4-1.8-0.5-2.9-0.6c-1.1-0.1-0.7-0.3,0.4-0.5
				c1.1-0.2,2.7,0.1,3.2,0.3c0.5,0.2,1.8,1.7,2.3,2.1c0.5,0.4,1.2,0.8,1.9,1c0.7,0.2,0.7-0.5,0-0.6c-0.7-0.1-1.4-0.5-2.2-1.2
				s-1.7-1.5-1.7-1.5c1.7,0.2,1.2,0.2,2.5,0.1c1.2-0.1,2.4,0.8,2.7,0.4C64.5,53.6,63.8,52.2,63.2,51.5z"/>
		</g>
	</g>
	<g id="Shape_203_2_" class="st0">
		<g>
			<path class="st24" d="M96.1,65.2c-1,1.9-1.1,8.5-1.2,9.3c-0.1,0.8-0.9,3.7-1.4,5.2c-0.5,1.5-1.7,4.7-3.5,5.7
				c-1.7,1.1-2.4,1.9-4.4,4.4s-5.5,1.9-7.4,1.8c-1.8-0.1-3,2.7-4.8,3.2s-7.7,0.6-10.1,0.4s-4.5-0.8-6.2-2.2
				c-1.6-1.4-4.9-0.3-4.9-0.3c0.8,1.1,2.5,1.9,3.7,2.5c1.2,0.5,3.2,4.5,5,6.3c1.7,1.7,4.4,0.5,5.6,0.8s5.2,1.8,7.4,2.9
				c2.2,1.1,6.5-1.2,7.6-2.1c1.1-0.9,5.6-6.4,6.1-7.4c0.4-1,1.2-2.3,2.6-3.8c1.4-1.5,0.9,1.4,0.8,2.8s-2.2,5.4-3,7.6
				c-0.9,2.2,1.5-1.8,2.3-3.2c0.8-1.4,2.1-6.5,1.9-9.3c-0.1-2.8,0.8-4.3,1.1-5.6c0.3-1.3,1.7-0.9,2.4-1.9c0.6-1.1,1.6-9,1.6-10.5
				S97.1,63.3,96.1,65.2z"/>
		</g>
	</g>
	<g id="Shape_212_5_" class="st0">
		<g>
			<path class="st25" d="M59.9,57c-0.8-0.5-2.2-1.3-3.8-1.4c-1.5-0.1-2.8,0.3-3.2,1.7c0,0,0.3,1.2,2.5,1.3c2.2,0.1,3.9-0.9,4.5-1
				C60.5,57.5,60.6,57.5,59.9,57z"/>
		</g>
	</g>
	<g id="Shape_212_copy_5_" class="st0">
		<g>
			<path class="st26" d="M59.9,57c-0.8-0.5-2.2-1.3-3.8-1.4c-1.5-0.1-2.8,0.3-3.2,1.7c0,0,0.1,0.4,0.7,0.8c-0.1-0.3-0.1-0.7,0.1-0.9
				c0.6-0.7,1.6-0.8,2.7-0.8c1,0,1.9,0.4,2.6,0.7c0.4,0.2,0.6,0.4,0.3,0.7c0.3-0.1,0.5-0.2,0.7-0.2C60.5,57.5,60.6,57.5,59.9,57z"/>
		</g>
	</g>
	<g id="Ellipse_3_4_" class="st0">
		<g>
			<path class="st27" d="M54.6,55.7c-0.3,0.3-0.4,0.8-0.4,1.2c0,0.7,0.3,1.3,0.9,1.6c0.1,0,0.2,0,0.3,0c0.8,0,1.5-0.1,2.2-0.2
				c0.4-0.4,0.6-0.9,0.6-1.5c0-0.4-0.1-0.7-0.3-1c-0.6-0.2-1.2-0.4-1.8-0.4C55.5,55.6,55,55.6,54.6,55.7z"/>
		</g>
	</g>
	<g id="Ellipse_3_copy_3_12_" class="st0">
		<g>
			<path class="st28" d="M56.1,56.4c-0.6,0-1.2,0-1.7,0.2c0,0.1,0,0.2,0,0.3c0,0.8,0.5,1.4,1.2,1.7c0.5,0,0.9,0,1.3-0.1
				c0.6-0.3,1-0.9,1-1.6c0,0,0-0.1,0-0.1C57.3,56.6,56.7,56.5,56.1,56.4z"/>
		</g>
	</g>
	<g id="Ellipse_3_copy_4_5_" class="st0">
		<g>
			<path class="st29" d="M57.5,57.2c-0.2-0.2-0.7,0.3-1.3,0.2c-0.6,0-1.2-0.4-1.3-0.2c-0.2,0.1,0.3,1.2,1.3,1.2
				C57.2,58.4,57.7,57.4,57.5,57.2z"/>
		</g>
	</g>
	<g id="Ellipse_3_copy_12_" class="st0">
		<g>
			<circle class="st27" cx="56.1" cy="56.9" r="0.9"/>
		</g>
	</g>
	<g id="Ellipse_3_copy_2_12_" class="st0">
		<g>
			<circle class="st30" cx="56.8" cy="56.5" r="0.3"/>
		</g>
	</g>
	<g id="Shape_221_2_" class="st0">
		<g>
			<path class="st31" d="M88.9,57.1c-0.1-0.9-0.9-1.8-2.9-2.8c-3.5-1.7-1.3,0.4,0.9,2.3C88.5,58,89,58,88.9,57.1z"/>
		</g>
	</g>
	<g id="Shape_238_2_" class="st0">
		<g>
			<path class="st32" d="M71.9,80.6c-0.6-0.2-2.1-0.6-3.1-0.9c-1-0.3-1.4,0.1-1.9,0.2c-0.5,0.2-0.8,0-1.5-0.2s-1.1,0-1.9,0.2
				c-0.9,0.2-2.7,0.5-2.7,0.5c-1.4,0.3,1.8,0.3,2.6,0.3s2.2,0.3,2.8,0.1s0.8-0.2,1.4,0c0.6,0.2,1.8,0.1,2.4,0
				C70.7,80.8,72.5,80.7,71.9,80.6z"/>
		</g>
	</g>
	<g id="Shape_204_2_" class="st0">
		<g>
			<path class="st33" d="M88.5,90c-1.2,0.6-4.3,3.6-6.1,4.5c-1.7,1-3.9,0.2-5.3,0.3c-1.4,0.1-2.4,0.9-6.8,1.8c-4.4,1-10-0.8-10-0.8
				c-6-0.6,6.5,5.1,9.7,4.9c3.2-0.2,5.8-0.8,7.1-1.7c1.3-1,1.9-0.4,1.6,0.4c-0.3,0.9-1.7,3.5-0.2,3s5.1-4,5.7-5.2
				c0.6-1.2,2.1-3.7,3.1-5C88.6,91.1,89.7,89.3,88.5,90z"/>
		</g>
	</g>
	<g id="Shape_205_2_" class="st0">
		<g>
			<path class="st34" d="M85.8,102.5c-1.9,1.6-3.8,5.6-5.3,6.9c-1.5,1.3-3.6,3.1-6.1,3.8s-7.5-0.2-9.8-1.4c-2.4-1.2-3.6-3.5-5.5-6.2
				s-2.7-2.9-2.5-0.5c0.2,2.4,3.7,7.4,3.7,7.4s0.5,5,2.2,7.9c2,3.5,7,4,10.6,2.6c4.2-1.6,6.8-3.8,7.9-6.6c1.1-2.8,4.2-5.8,5.5-8.9
				C87.8,104.5,87.8,100.9,85.8,102.5z"/>
		</g>
	</g>
	<g id="Shape_207_2_" class="st0">
		<g>
			<path class="st35" d="M86.5,64.3c-1.2-0.2-3.6,0.7-2.9-1.1c0.6-1.8-7.5-2.3-7.1-1.3c0.3,1,3.9,2.4,2.1,2.7
				c-1,0.2-2.9-1.1-3.8-1.8c-0.9-0.8-0.6-1.4-1.7-1.5c-1.1-0.1-2.5,1.9-0.3,2.4c0.8,0.2,2.6,3.7,2.8,5.7c0.2,1.8,1.1,3.7,4,3.7
				s4.8-1.1,5.8-3.2c1.1-2.2,1.7-2.9,2.8-3.8C89.2,65.2,87.7,64.6,86.5,64.3z"/>
		</g>
	</g>
	<g id="Shape_208_2_" class="st0">
		<g>
			<path class="st36" d="M89,60.3c-1.5-0.4-1.2-0.8-0.5-1s0.2-0.6-0.3-0.5c-0.5,0.1-0.6-0.2-0.8-0.4c-0.2-0.3,1-0.1,0.4-0.5
				c-0.5-0.5-2.1-1.8-2.7-2.5c-0.6-0.6-1.9-1.8-1.7-1.3c0.2,0.5,0.3,0.6-0.2,0.4c-0.5-0.2-2.1-1.1-3.6-1.1c-1.5,0,0.6-1,1.9-0.5
				c1.3,0.5,3.2,1.1,1.6,0.1c-1.6-1-3.1-0.9-3.6-1.3s0.1-0.4,0.2-0.8c0.2-0.3,0.1-0.9-1.2-0.8c-1.2,0.1-4,0.1-3.9,0.8
				c0,0-3.1,2.2-2.1,2.4s1.5,0.6,2.2,0.9s1,0,1,0.4s-1,1.5-1.6,1.7c-0.6,0.3-1.7,0.4-1.4,0.6c0.3,0.3,0.7,0.5,1.3,0.1
				c0.6-0.4,0.9,0,0.4,0.4s-0.9,1.2-0.1,1.1c0.8-0.1,1.6-0.3,2.2,0.2c0.6,0.5,2.6,1.6,3.9,1.5c1.3-0.1,1.7-0.3,2.5-0.3
				s1.7-0.2,2.5-0.1c0.8,0.1,1.8,0.4,2.5,0.6S90.4,60.7,89,60.3z"/>
		</g>
	</g>
	<g id="Shape_209_2_" class="st0">
		<g>
			<path class="st37" d="M60.8,57.3c-0.4-0.3-1.1-1.3-2.1-1.8c-1-0.5-1.4-1.1-3.4-1.2c-2-0.1-1.5-0.3-1.5-0.3
				c-2.1,0.1-3.4,2.4-3.1,2.8c0.3,0.4,0.6,0.1,0.6,0.8c0,0.5,2,0.6,1.8,0.4c-0.2-0.2-0.5-0.5-0.3-0.6c0.7-0.6,0.3-0.7,1.5-1.3
				c1.2-0.6,2.9-0.1,3.6,0.2c0.7,0.3,1.4,0.8,1.9,1.1C60.5,57.6,61.2,57.6,60.8,57.3z"/>
		</g>
	</g>
	<g id="Shape_212_2_" class="st0">
		<g>
			<path class="st25" d="M79.7,56c-2.4-0.5-3.2,1.5-3.2,1.5c-0.4,0.2-0.3,0.7,0.5,1c0.8,0.3,1.7,0.7,3.8,0.8c2.1,0,2.9-0.5,3.6-1
				C83.6,57.5,82,56.5,79.7,56z"/>
		</g>
	</g>
	<g id="Shape_212_copy_1_" class="st0">
		<g>
			<path class="st26" d="M77.2,58.4c-0.3-0.4-0.3-0.9-0.1-1.2c0.6-0.7,1.6-0.8,2.7-0.8c1,0,1.4,0.4,2.2,0.8c0.5,0.2,0.5,0.5,0.9,0.9
				c0.3,0.3,0,0.8-0.5,1.1c1-0.2,1.6-0.6,2-0.9c-0.8-0.8-2.3-1.8-4.7-2.3c-2.4-0.5-3.2,1.5-3.2,1.5c-0.4,0.2-0.3,0.7,0.5,1
				c0.1,0,0.1,0,0.2,0.1C77.2,58.4,77.2,58.4,77.2,58.4z"/>
		</g>
	</g>
	<g id="Ellipse_3_10_" class="st0">
		<g>
			<ellipse class="st27" cx="79.6" cy="57.2" rx="2" ry="2"/>
		</g>
	</g>
	<g id="Ellipse_3_copy_3_10_" class="st0">
		<g>
			<path class="st28" d="M77.9,56.9c0,0.1,0,0.2,0,0.3c0,1,0.8,1.7,1.8,1.7s1.8-0.8,1.8-1.7c0,0,0-0.1,0-0.1
				c-0.6-0.2-1.2-0.4-1.8-0.4C79,56.7,78.4,56.8,77.9,56.9z"/>
		</g>
	</g>
	<g id="Ellipse_3_copy_4_7_" class="st0">
		<g>
			<path class="st29" d="M81,57.5c-0.2-0.2-0.7,0.3-1.3,0.2c-0.6,0-1.2-0.4-1.3-0.2c-0.2,0.1,0.3,1.1,1.3,1.1
				C80.7,58.7,81.2,57.7,81,57.5z"/>
		</g>
	</g>
	<g id="Ellipse_3_copy_10_" class="st0">
		<g>
			<ellipse class="st27" cx="79.6" cy="57.2" rx="0.9" ry="0.9"/>
		</g>
	</g>
	<g id="Ellipse_3_copy_2_10_" class="st0">
		<g>
			<ellipse class="st30" cx="80.3" cy="56.8" rx="0.3" ry="0.3"/>
		</g>
	</g>
	<g id="Shape_210_2_" class="st0">
		<g>
			<path class="st37" d="M86.4,58.3c-0.5-0.5-1.2-1.8-2.2-2.6c-0.9-0.8-0.4-0.2-0.8,0.2c-0.3,0.4-1.9-0.7-3.2-1
				c-1.3-0.3-2.3,0-3.2,0.5c-0.9,0.5-1.8,1.9-1.8,1.9c-0.4,0.2-0.5,0.5,0.1,0.6c0.6,0.1,1.1-0.6,1.9-1.5c0.8-0.9,1.8-0.6,3.5-0.3
				c1.6,0.3,2,1.2,2.6,1.6c0.1,0.1,0.4,0.2,0.6,0.4c0.2,0.1,0.3,0.3,0,0.5c-0.1,0.1,1.1,0,1.3,0.1c0.6,0.2,1.1,0.4,1.4,0.4
				C87.3,59.3,86.9,58.8,86.4,58.3z"/>
		</g>
	</g>
	<g id="Shape_211_2_" class="st0">
		<g>
			<path class="st38" d="M53.4,80.7c-1.1-1.5-3.2-1.9-3.2-1.9c-3.8-0.5,0.8,8.6,2.1,6.5S54.5,82.2,53.4,80.7z"/>
		</g>
	</g>
	<g id="Shape_213_2_" class="st0">
		<g>
			<path class="st39" d="M63.2,51c-0.6-0.8-1.5-1.3-3.4-1.7c-1.8-0.4-3.5-0.8-4.3-0.9c-0.9-0.1-5.4,0.2-6.7,3.5c0,0,3.2-2.1,5.5-1.7
				c2.3,0.4,3.8,0.6,4.8,1.3s3.4,1.9,4,2.1C63.8,53.7,63.9,51.8,63.2,51z"/>
		</g>
	</g>
	<g id="Shape_214_2_" class="st0">
		<g>
			<path class="st40" d="M63,51.3c-0.3-0.6-2-1.7-3.8-1.9c-1.9-0.3-5.5-0.1-5.5-0.1c1.1,0,3.5,1.4,4.7,1.8c1.2,0.4,3.5,1.1,4.4,1
				C63.7,51.9,63.3,51.9,63,51.3z"/>
		</g>
	</g>
	<g id="Shape_215_2_" class="st0">
		<g>
			<path class="st41" d="M58.7,52.1c-1.7-0.3-2.3-0.4-3.5-0.1C54,52.3,52,54,51.3,54.7c-0.7,0.8,0.6-0.2,0.6-0.2s1.3-1.6,2.8-1.9
				s3.2-0.2,4.1,0.2S60.4,52.4,58.7,52.1z"/>
		</g>
	</g>
	<g id="Shape_217_2_" class="st0">
		<g>
			<path class="st42" d="M82.4,54.7c-0.8-0.6-3.1-1-3.1-1s-1.1-0.1-2.3,0.6c-1.5,1-0.6,0.8,0.9,0.5c1.5-0.3,2.6-0.1,3.8,0.2
				C82.8,55.4,83.2,55.3,82.4,54.7z"/>
		</g>
	</g>
	<g id="Shape_218_2_" class="st0">
		<g>
			<path class="st43" d="M86.5,50.7c-2.2-1-3.9-1.6-6.2-1.3c-2.3,0.3-3.5,0.2-4.5,0.4s-2.5,0.2-3.4,1.4s-0.3,2.2,1,1.9
				S77,52,78,51.7c1-0.3,3-1,4.8-0.6c1.7,0.4,4.4,1.1,5.3,1.7c0.9,0.6,2.3,1.7,2.3,1.7S88.6,51.7,86.5,50.7z"/>
		</g>
	</g>
	<g id="Shape_219_2_" class="st0">
		<g>
			<path class="st40" d="M80.1,49.5c-1.3-0.1-3.4,0.4-4.9,1S73.5,52,73.5,52c-0.7,1.2,2.2,0.1,2.8-0.2c0.6-0.3,3.6-1.1,4.1-1.3
				c0.5-0.2,2.9-0.8,2.9-0.8S81.4,49.6,80.1,49.5z"/>
		</g>
	</g>
	<g id="Shape_220_2_" class="st0">
		<g>
			<path class="st31" d="M86.6,52c-2.4-1.1-5.7-0.9-5.7-0.9c-1.8-0.2,0.1,1.1,2.9,1.5c2.8,0.4,3,2.4,4.1,2.3
				C89,54.8,89,53.1,86.6,52z"/>
		</g>
	</g>
	<g id="Shape_226_2_" class="st0">
		<g>
			<path class="st38" d="M56.4,58.6c-1.3,0.2-2.8-0.2-2.8-0.2c-1.8-0.1,0.2,0.8,1.6,0.9c1.4,0.1,2.6-0.3,3.2-0.9
				C59.1,57.9,57.7,58.4,56.4,58.6z"/>
		</g>
	</g>
	<g id="Shape_228_2_" class="st0">
		<g>
			<path class="st3" d="M112.7,66.8c-0.5-4.7,2.5-8.1,2.2-9c-1.2-3.2-2.4-14.1-2.4-14.1s-3.5-9.7-7.1-13.3c-2-1.9-9.4-4.6-10.3-4.9
				c-0.9-0.2-8.1-2.1-9.1-3.4c-1.4-1.8-2.4-2.5-5.3-4.3c-2.1-1.3-10.9,0.5-14.7,2.4c-1.8,0.9-8.7,5.8-8.7,5.8l-7.9,9.3l-3.2,5.1
				c0,0-1.1,4.5-1.4,5.3C44.4,46.6,43,51,43,51l3.1,3c0,0,2.1-4.9,3.7-7c1.6-2.2,4.4-6.3,5.8-8.4c1.4-2.2,2.6-5.8,9.6-7.9
				c7-2.1,10-1.9,12.5-1.8s6.6,0.9,8.5,1.7c2,0.8,5.2,2.9,5.2,2.9c0,0,0.9,7.8,2.1,13c0.9,4.2,1.4,5.2,2.9,9.9
				c1.4,4.7,1.1,7.7,0.3,10.1s-0.4,6.6-0.6,8.2c-0.2,1.6-2.6,9.9-2.8,10.8c-0.2,0.9,0.3,7.4,2.1,9.2c2,2.1,8.3,0.7,10-0.5
				c1.9-1.5,7.1-9.7,7-14.2c-0.1-4.5-1.5-12-1.5-12S112.8,67.8,112.7,66.8z"/>
		</g>
	</g>
	<g id="Shape_249_3_" class="st0">
		<g>
			<path class="st5" d="M99,70.5c-0.6-2.1-2.8-4.5-2.8-1.1s-1.9,11.7-1.9,11.7s4.2,3,5-2.3C100,73.5,99.7,72.6,99,70.5z"/>
		</g>
	</g>
	<g id="Shape_227_2_" class="st0">
		<g>
			<path class="st7" d="M81.3,59.2c-1.2,0.2-2.8-0.3-2.8-0.3s0-0.4-1.5-0.5c-1.5-0.2,1.6,1.4,3.2,1.5c1.4,0.1,3.3-0.6,3.6-0.9
				C84.3,58.4,82.5,59,81.3,59.2z"/>
		</g>
	</g>
	<g id="Shape_233_2_" class="st0">
		<g>
			<path class="st44" d="M102.2,55.7c-1.2-2.6-3.6-8.2-5.3-11.3c-1.7-3-4.2-4.3-4.2-4.3l3.2,8.2l-2.1-0.8c0,0,2.2,9.8,2.6,13.3
				c0.4,3.5,0.2,4.3,0.3,5.8c0.1,0.8-0.5,1.1,0.5,5.4c1.1,4.3,3.4,7.8,4.3,10.1c0.9,2.3-0.2-4.7-0.4-7.9c-0.2-3.2-0.3-6.3-0.3-6.3
				s7,7.8,7.7,12.3s0.1,7.9,0.1,7.9s3.4-3.4,3.2-8.7c-0.1-5.3-0.5-8.5-2.1-11.8C108.3,64.6,103.4,58.3,102.2,55.7z M114.2,58
				c-1.6-3.4-1.7-6.4-2.2-8.5c-0.4-2.2-4.3-9.4-5.2-11c-0.9-1.6,5,6.2,5,6.2s-2.6-10.6-7.8-13.7c-4.2-2.6-8.3-3.6-8.3-3.6l5.2,5
				c0,0-9.1-2.6-12.2-4.8c2.2,3.7,9.8,6.9,9.8,6.9s-10.3-3.4-12.5-3c0,0,6,4.7,7.9,7.6c1.9,2.9,3.5,5.7,7.1,8.3
				c3.7,2.6,4.8,2.9,5.8,7.2c1.1,4.3,1,6.1,2.6,9.4c0.5,1,1.2,1.8,2.6,2.4c-1.7-5.4-1.3-7.6-1.3-10.3S111.6,57.4,114.2,58z"/>
		</g>
	</g>
	<g id="Shape_237_2_" class="st0">
		<g>
			<path class="st45" d="M81,24.9c-0.6-2.3-7.2-4.2-9.6-4c3,2.4,2.5,4.7,2.5,4.7s-5.3-1.6-8.3-0.9c2.9,1.2,3,2.4,3,2.4
				s-6.7,0.1-10,2.5c-3.2,2.4-6.5,6-6.5,6s-5.7,9.2-6.1,9.8c-0.3,0.6-4,4.2-3,10.2s1.4,5.7,2.4,2.4c1-3.4,2.2-10.3,3.7-13.2
				c0,0,4.8-8.5,7.7-10.7c2.9-2.2,3.9-2.8,6.8-3.6c2.9-0.8,3.9-1.4,7.5-1.6c3.6-0.2,8.4-0.1,9.3-0.1S81.6,27.1,81,24.9z"/>
		</g>
	</g>
	<g id="Shape_231_2_" class="st0">
		<g>
			<path class="st46" d="M96.9,79.1c0,0-0.2,2.6-1.4,3.7c-1.2,1.1-0.5,2.2,1.4,1.8c1.9-0.3,2.8-3.1,2.9-4.1
				C99.9,79.5,97.9,78.2,96.9,79.1z"/>
		</g>
	</g>
	<g id="Shape_242_2_" class="st0">
		<g>
			<path class="st6" d="M90.3,82.3c-0.7-1.5-2.1-2-4.2-2.7c-1.6-0.6-2.2,0-4,0.8c-1.8,0.8-0.9,4.1-0.9,4.1S81,87.8,80.9,90
				c-0.1,2.2,4.2-0.5,4.8-1.3c0.6-0.8,1.8-1.7,3.4-2.9S91,83.8,90.3,82.3z"/>
		</g>
	</g>
	<g id="Shape_243_2_" class="st0">
		<g>
			<path class="st47" d="M85.5,79.5c-1.2-0.5-2.7,0.2-2.7,0.2c-1.7,0.7-2.9,3.5-1.3,4.5s4.9-2.3,5-3.1C86.6,80.2,86.7,80,85.5,79.5z
				"/>
		</g>
	</g>
	<g id="Shape_245_2_" class="st0">
		<g>
			<path class="st48" d="M62.6,83c-1.2-0.1-1.9-0.8-2.4-1.1c-0.5-0.3-0.8-0.9-0.8-0.9h-0.9c0,0,0.8,0.9,1.2,1.1
				c0.4,0.2,1.9,1,2.6,1.1c0.7,0.1,1.8,0.1,1.8,0.1S63.8,83.1,62.6,83z"/>
		</g>
	</g>
	<g id="Shape_246_2_" class="st0">
		<g>
			<path class="st48" d="M74.1,81c0,0,0.2,0.1,0.1,0.3c-0.1,0.2-1,0.7-1.5,0.9s-1.4,0.5-2.4,0.6c-1,0.1-1.3,0.4-1.3,0.4
				c1.5-0.1,3.9-0.8,5-1.2c1-0.4,1.6-0.9,1.6-0.9L74.1,81z"/>
		</g>
	</g>
	<g id="Shape_254_3_" class="st0">
		<g>
			<path class="st49" d="M96.4,92.6c-0.4-1.3-4.2-2.8-4.2-2.8c-1.5,5.7,1.9,15.5,1.9,15.5l3.5-1.6C97.6,103.6,96.8,93.8,96.4,92.6z"
				/>
		</g>
	</g>
	<g id="Shape_252_3_" class="st0">
		<g>
			<path class="st50" d="M96.5,92.4c0,0,0,0.2,0.1,0.5C96.7,92.5,96.5,92.4,96.5,92.4z M96.6,92.9c-0.2,1.1-2.1,4.6-14.4,14.1
				c-4.6,3.6-8.7,6.1-8,13.4c0.2,2.3-0.5,5.1,0.3,4.8c4.3-1.7,7-2.3,12.2-6.9c6.6-5.8,10.9-12.7,10.9-15.5
				C97.8,100.4,96.9,94.6,96.6,92.9z"/>
		</g>
	</g>
	<g id="Shape_253_3_" class="st0">
		<g>
			<path class="st51" d="M60.3,111.4c-0.3-3.7-3.4-8.6-5.5-12.7c-1.8,0.3-2.7,10.1-2.7,10.1s6.1,13.1,8.9,15.7
				C60.9,124.5,60.7,115.4,60.3,111.4z"/>
		</g>
	</g>
	<g id="Shape_258_3_" class="st0">
		<g>
			<path class="st52" d="M98.1,59.8c-2.6-2.6-1.8-6.7-2.4-12.9c-0.5-5.1-1.5-7.6-2.4-9.2s-6.4-5.8-6.4-5.8s3.7,4.9,5,7.2
				s1.5,6.9,1.8,11.4s2.1,10.7,2.1,11.4s0.7,2.8,1.3,1.9c0.6-0.8,3.2,2.2,3.2,2.2S100.7,62.4,98.1,59.8z"/>
		</g>
	</g>
	<g id="Shape_255_3_" class="st0">
		<g>
			<path class="st53" d="M51.3,89.4c-1.1-1.2-0.5-2.2-2.3-5.1c-1.4-2.3-2-6.6-2.2-8.9c-0.2-2.2-0.9-6.2-0.5-9.1
				c0.4-2.8,0.2-4.8,0.9-6.3c0.6-1.5,1.8-0.9,2.9-1.4c1-0.4,1.6-2.1-0.1-1.3c-0.8,0.3-0.5-1.8-1.5-3.2c-1-1.4,0.9-5,0.9-5
				c0.4-1.1,1-2.7-0.5-0.6c-1.5,2.1-2.5,4.5-2.7,6.1s-1,3.8-1.3,5.2c-0.3,1.4-0.5,2.7-0.2,6.3c0.2,3,0.3,3.9,0.2,9.6
				c-0.1,5.7,1.3,8.9,3.1,11.6C49.8,90,52.4,90.6,51.3,89.4z"/>
		</g>
	</g>
	<g id="Shape_256_3_" class="st0">
		<g>
			<path class="st53" d="M63.4,51.8c-0.4-0.4-1.3,1.2-2.1,1.5c0,0,0.8,0.4,1,1.4c0.2,1,0.1,3.2,1,2.5c0.9-0.8,0.9-1.2,0.9-2.6
				S63.9,52.2,63.4,51.8z"/>
		</g>
	</g>
	<g id="Shape_259_3_" class="st0">
		<g>
			<path class="st3" d="M45.8,77.6c-0.8-3.5-0.9-9.6,0-13.1c0.9-3.5,1.7-7.1,1.8-10.1c0.1-3.1,1.9-7.3,1.9-7.3
				c-1.9,1.7-1.5,1.8-2.4,3.6c-0.9,1.8-0.9,1.4-1.3,3.7c-0.5,3-0.9,4.1-2.1,8.6c-1.2,4.5-1.4,4.3-1.3,8.9c0.1,4.5,0,5.4,1,9.4
				c1.3,5.2,5.4,11.7,8.7,12.7c2.2,0.7,3.1-0.1,3.4-0.6c-0.5-0.2-1.4-0.6-2.9-1.4C47.2,88.9,46.6,81.1,45.8,77.6z M55.8,92.8
				c0,0,0,0.2-0.2,0.5C57.1,93.9,55.8,92.8,55.8,92.8z"/>
		</g>
	</g>
	<g id="Shape_239_2_" class="st0">
		<g>
			<path class="st54" d="M47.1,48.4c0,0-4.3,3.2-4.9,7.4c-0.6,4.2-2.4,7.1-3.3,9c-1.9,3.9-1.4,8-0.8,10.6s2.9,5.2,2.9,5.2
				s-0.4-9.3,1.5-13.2c1.9-3.9,3.8-8.5,3.8-8.5S47.7,50.9,47.1,48.4z"/>
		</g>
	</g>
	<g id="Shape_240_2_" class="st0">
		<g>
			<path class="st55" d="M46.5,39c0,0-4.5,18.2-9.7,21.2c0,0,7.4-4,9.7-8.1c2.4-4.1,4.6-12.3,5.3-14.9C52.4,34.6,46.5,39,46.5,39z"
				/>
		</g>
	</g>
	<g id="Shape_236_2_" class="st0">
		<g>
			<path class="st56" d="M83.6,20c0,0-4.1-5.4-13.3-3.1s-13,6.8-14.5,8.8c-1.5,1.9-5,8.4-7.4,10.1c-2.4,1.6-5.2,1.9-5.2,1.9
				s-0.2,3.8,3.5,3.1s7-3.9,9.1-7.2c2.1-3.4,6.4-10.7,9.7-12.4c3.2-1.7,9.3-4.5,14.3,1.5c1.1,1.3,1.7,4.4,1.7,4.4s-0.2-2.7-0.1-5.5
				C81.4,20.2,82.4,20,83.6,20z"/>
		</g>
	</g>
</g>
</svg>
