<?xml version="1.0" encoding="utf-8"?>
<!-- Generator: Adobe Illustrator 19.2.0, SVG Export Plug-In . SVG Version: 6.00 Build 0)  -->
<svg version="1.1" id="Layer_1" xmlns="http://www.w3.org/2000/svg" xmlns:xlink="http://www.w3.org/1999/xlink" x="0px" y="0px"
	 viewBox="0 0 1690 192" style="enable-background:new 0 0 1690 192;" xml:space="preserve">
<style type="text/css">
	.st0{fill:#FFFFFF;}
	.st1{fill:none;}
	.st2{opacity:0.54;}
	.st3{clip-path:url(#SVGID_2_);}
	.st4{clip-path:url(#SVGID_4_);}
	.st5{fill:#4DAF4E;}
	.st6{opacity:0.2;fill:#1E5F30;}
	.st7{opacity:0.2;fill:#FFFFFF;}
	.st8{fill:url(#SVGID_5_);}
	.st9{fill:#F5F5F5;}
	.st10{fill:#E0E1E0;}
	.st11{clip-path:url(#XMLID_2_);fill:url(#XMLID_3_);}
</style>
<symbol  id="logo_x5F_dark" viewBox="0 -136 416 136">
	<path class="st0" d="M0.7-52.6C0.7-23.6,25-0.1,54-0.1c16,0,27.4-6.3,36-14.5L79.8-24.7C73.7-18.9,65.4-14.4,54-14.4
		c-21.1,0-37.6-17-37.6-38.1c0-21.1,16.5-38.1,37.6-38.1c13.7,0,21.5,5.5,26.5,10.5c4.1,4.1,6.8,10,7.8,18H54v14.3h48.3
		c0.5-2.6,0.8-5.6,0.8-9c0-10.8-2.9-24.1-12.4-33.5C81.4-99.9,69.6-105,54-105C25-105,0.7-81.5,0.7-52.6z"/>
	<path class="st0" d="M142-37.5c-18.7,0-33.9-14.2-33.9-33.8c0-19.5,15.2-33.8,33.9-33.8c18.7,0,33.9,14.3,33.9,33.8
		C175.9-51.7,160.7-37.5,142-37.5z M142-91.7c-10.2,0-19.1,8.4-19.1,20.5c0,12.2,8.8,20.5,19.1,20.5c10.2,0,19.1-8.3,19.1-20.5
		C161.1-83.3,152.2-91.7,142-91.7z"/>
	<path class="st0" d="M216-37.5c-18.7,0-33.9-14.2-33.9-33.8c0-19.5,15.2-33.8,33.9-33.8c18.7,0,33.9,14.3,33.9,33.8
		C249.9-51.7,234.7-37.5,216-37.5z M216-91.7c-10.2,0-19.1,8.4-19.1,20.5c0,12.2,8.8,20.5,19.1,20.5s19.1-8.3,19.1-20.5
		C235.1-83.3,226.2-91.7,216-91.7z"/>
	<path class="st0" d="M306.8-39.5V-45h-0.5c-3.3,4-9.7,7.6-17.8,7.6c-16.9,0-32.4-14.8-32.4-33.9c0-18.9,15.5-33.7,32.4-33.7
		c8.1,0,14.5,3.6,17.8,7.7h0.5v-4.9c0-12.9-6.9-19.8-18-19.8c-9.1,0-14.7,6.5-17,12l-12.9-5.4c3.7-9,13.6-20,30-20
		c17.4,0,32.1,10.2,32.1,35.2v60.7H306.8z M289.8-91.7c-10.2,0-18.8,8.6-18.8,20.4c0,11.9,8.6,20.6,18.8,20.6c10.1,0,18-8.7,18-20.6
		C307.9-83.2,299.9-91.7,289.8-91.7z"/>
	<rect x="331.2" y="-103" class="st0" width="14.8" height="99.3"/>
	<path class="st0" d="M386.7-91.7c-7.6,0-12.9,3.5-16.4,10.2l45.2,18.7L414-59c-2.8,7.6-11.4,21.5-28.9,21.5
		c-17.4,0-31.9-13.7-31.9-33.8c0-18.9,14.3-33.8,33.5-33.8c15.5,0,24.4,9.5,28.2,15l-11.5,7.7C399.5-88,394.3-91.7,386.7-91.7z
		 M385.6-50.5c5.9,0,10.9-2.9,12.5-7.2l-30.2-12.5C367.5-57.2,378-50.5,385.6-50.5z"/>
	<rect y="-136" class="st1" width="416" height="136"/>
</symbol>
<rect x="1" class="st1" width="1688" height="192"/>
<g class="st2">
	<defs>
		<rect id="SVGID_1_" x="217" class="st2" width="1472" height="192"/>
	</defs>
	<clipPath id="SVGID_2_">
		<use xlink:href="#SVGID_1_"  style="overflow:visible;"/>
	</clipPath>
	<g class="st3">
		<rect x="217" y="41" class="st1" width="1472" height="136"/>
		<g>
			<path id="XMLID_49_" class="st0" d="M662.7,98.2c0-27.3,20.6-47.9,47.6-47.9c13.8,0,25.5,5.5,33.7,15l-8.2,7.9
				c-6.4-7.9-15-11.6-25.5-11.6c-19.3,0-35.6,14.1-35.6,36.6s16.3,36.6,35.6,36.6c11.5,0,21.2-5.4,28.2-13.3l8.2,8.2
				c-8.1,9.6-21,16.4-36.4,16.4C683.3,146,662.7,125.4,662.7,98.2z"/>
			<path id="XMLID_46_" class="st0" d="M816.2,112.6c0,19.1-13.4,33.4-32.3,33.4s-32.3-14.3-32.3-33.4c0-19.1,13.4-33.4,32.3-33.4
				S816.2,93.6,816.2,112.6z M804.4,112.6c0-14.3-10-22.7-20.5-22.7s-20.5,8.3-20.5,22.7c0,14.3,10,22.7,20.5,22.7
				S804.4,127,804.4,112.6z"/>
			<path id="XMLID_44_" class="st0" d="M836.9,90h0.5c3.3-5.8,11.3-10.8,19.8-10.8c16,0,23.9,10.9,23.9,26.4V144h-11.8v-36.6
				c0-13.1-6.5-17.4-15.5-17.4c-10.2,0-16.5,9.7-16.5,19.3V144h-11.8V81.3h11.3V90z"/>
			<path id="XMLID_42_" class="st0" d="M889.7,128.1l10.5-4.4c3.3,7.9,9.5,11.8,17,11.8c7.3,0,12.5-3.6,12.5-8.8
				c0-3.2-1.9-6.7-8.6-8.3l-12.7-3.1c-5.8-1.4-16.8-6.4-16.8-17.4c0-11.4,11.8-18.7,24.8-18.7c10.9,0,20.4,5,24.2,14.6L930.5,98
				c-2.4-5.9-8.2-8.3-14.3-8.3c-6.7,0-12.4,2.9-12.4,8.1c0,4,3.3,6.1,8.3,7.3l12.4,2.9c12.4,2.9,17.3,10.6,17.3,18.3
				c0,11.1-10,19.7-24.7,19.7C902,146,893.4,137.1,889.7,128.1z"/>
			<path id="XMLID_39_" class="st0" d="M995.1,144v-8.7h-0.5c-3.5,5.8-11.3,10.8-19.8,10.8c-16.1,0-23.9-10.9-23.9-26.4V81.3h11.8
				v36.5c0,13.1,6.5,17.5,15.5,17.5c10.2,0,16.5-9.9,16.5-19.5V81.3h11.8V144H995.1z"/>
			<path id="XMLID_34_" class="st0" d="M1019.5,81.3h11.3V90h0.5c3.6-6,11.9-10.8,19.3-10.8c10.1,0,16.6,4.6,19.8,12
				c4.5-7,12.2-12,21.9-12c15.4,0,22.4,10.9,22.4,26.4V144h-11.8v-36.6c0-13.1-5-17.4-14-17.4c-9.6,0-16,9.7-16,19.3V144h-11.8
				v-36.6c0-13.1-5-17.4-14-17.4c-9.6,0-16,9.7-16,19.3V144h-11.8V81.3z"/>
			<path id="XMLID_31_" class="st0" d="M1123.7,112.6c0-17.8,12.3-33.4,30.7-33.4c18.7,0,30.7,13.2,30.7,33.4c0,0.9-0.1,2.2-0.1,2.2
				h-49.5c0.6,13.3,10.2,20.5,20,20.5c6.9,0,13.8-2.8,17.2-10.8l10.5,4.4c-3.7,9-12.9,17.2-27.4,17.2
				C1136.5,146,1123.7,131.6,1123.7,112.6z M1154.1,90c-8.7,0-15.6,5.9-17.9,15.1h36.4C1172.2,99.6,1167.6,90,1154.1,90z"/>
			<path id="XMLID_29_" class="st0" d="M1194.6,144V81.3h11.3v10.2h0.5c2.6-7.2,11.6-11.8,18.2-11.8c3.8,0,6.4,0.5,8.8,1.5l-4.5,11
				c-1.7-0.6-3.7-0.9-6.3-0.9c-8.1,0-16.3,6.8-16.3,18.3V144H1194.6z"/>
			<path class="st0" d="M1263.1,121.2l10.8-4.4c2.6,9.9,11.1,17.9,21.2,17.9c9.6,0,18.6-5.2,18.6-15c0-10.9-8.4-15.2-22.7-19.6
				c-15.5-4.9-24.7-12.4-24.7-25.5c0-12.5,10.9-24.4,28.2-24.4s26.1,11.3,28.4,18.6l-10.8,4.5c-1.3-4.9-6.9-11.8-17.4-11.8
				c-8.8,0-16.4,5.5-16.4,13.2c0,7.3,6.9,11.5,17.4,15c15.4,4.9,30,11.3,30,29.8c0,18.6-16.5,26.5-30.6,26.5
				C1283.2,146,1267.3,138.1,1263.1,121.2z"/>
			<path class="st0" d="M1379.2,144v-8.7h-0.5c-3.5,5.8-11.3,10.8-19.8,10.8c-16.1,0-23.9-10.9-23.9-26.4V81.3h11.8v36.5
				c0,13.1,6.5,17.5,15.5,17.5c10.2,0,16.5-9.9,16.5-19.5V81.3h11.8V144H1379.2z"/>
			<path class="st0" d="M1403.5,144V81.3h11.3v10.2h0.5c2.6-7.2,11.6-11.8,18.2-11.8c3.8,0,6.4,0.5,8.8,1.5l-4.5,11
				c-1.7-0.6-3.7-0.9-6.3-0.9c-8.1,0-16.3,6.8-16.3,18.3V144H1403.5z"/>
			<path class="st0" d="M1445.9,81.3h12.8l18.4,48.6h0.3l18.7-48.6h12.5L1483,144h-11.8L1445.9,81.3z"/>
			<path class="st0" d="M1509.5,112.6c0-17.8,12.3-33.4,30.7-33.4c18.7,0,30.7,13.2,30.7,33.4c0,0.9-0.1,2.2-0.1,2.2h-49.5
				c0.6,13.3,10.2,20.5,20,20.5c6.9,0,13.8-2.8,17.2-10.8l10.5,4.4c-3.7,9-12.9,17.2-27.4,17.2
				C1522.3,146,1509.5,131.6,1509.5,112.6z M1540,90c-8.7,0-15.6,5.9-17.9,15.1h36.4C1558,99.6,1553.4,90,1540,90z"/>
			<path class="st0" d="M1585,171.6l14.6-31.6l-25.9-58.8h12.8l18.7,45.1h0.3l18.2-45.1h12.8l-39.3,90.4H1585z"/>
			<path class="st0" d="M1636.8,128.1l10.5-4.4c3.3,7.9,9.5,11.8,17,11.8c7.3,0,12.5-3.6,12.5-8.8c0-3.2-1.9-6.7-8.6-8.3l-12.7-3.1
				c-5.8-1.4-16.8-6.4-16.8-17.4c0-11.4,11.8-18.7,24.8-18.7c10.9,0,20.4,5,24.2,14.6l-10.2,4.2c-2.4-5.9-8.2-8.3-14.3-8.3
				c-6.7,0-12.4,2.9-12.4,8.1c0,4,3.3,6.1,8.3,7.3l12.4,2.9c12.4,2.9,17.3,10.6,17.3,18.3c0,11.1-10,19.7-24.7,19.7
				C1649.1,146,1640.6,137.1,1636.8,128.1z"/>
		</g>
		
			<use xlink:href="#logo_x5F_dark"  width="416" height="136" id="XMLID_21_" y="-136" transform="matrix(1 0 0 -1 217 41)" style="overflow:visible;"/>
	</g>
</g>
<g>
	<defs>
		<rect id="SVGID_3_" x="1" width="168" height="192"/>
	</defs>
	<clipPath id="SVGID_4_">
		<use xlink:href="#SVGID_3_"  style="overflow:visible;"/>
	</clipPath>
	<g id="XMLID_14_" class="st4">
		<path id="SVGID_20_" class="st5" d="M52.3,152L1,184V29.3C1,21.9,6.9,16,14.3,16h141.5c7.3,0,13.3,5.9,13.3,13.3v109.5
			c0,7.3-5.9,13.2-13.3,13.2H52.3z"/>
		<path id="XMLID_38_" class="st6" d="M155.7,151H52.3L1,182.8v1.1L52.3,152h103.4c7.3,0,13.3-6,13.3-13.3v-1.1
			C169,144.9,163.1,151,155.7,151z"/>
		<path id="XMLID_37_" class="st7" d="M169,16.5c0-0.3-0.2-0.5-0.5-0.5H1.5C1.2,16,1,16.2,1,16.5l0,0C1,16.8,1.2,17,1.5,17h167
			C168.8,17,169,16.8,169,16.5L169,16.5z"/>
		<linearGradient id="SVGID_5_" gradientUnits="userSpaceOnUse" x1="48.9457" y1="64.1596" x2="148.4692" y2="163.6831">
			<stop  offset="0" style="stop-color:#378F43;stop-opacity:0.2"/>
			<stop  offset="1" style="stop-color:#378F43;stop-opacity:2.000000e-02"/>
		</linearGradient>
		<path id="SVGID_19_" class="st8" d="M98,32.6v66.3L54,59.1V125H27.5l24.8,26h103.4c7.3,0,13.3-6.1,13.3-13.4v-36.8L98,32.6z"/>
		<rect id="XMLID_28_" x="28" y="59" class="st9" width="26" height="66"/>
		<rect id="XMLID_27_" x="28" y="59" class="st0" width="26" height="1"/>
		<rect id="XMLID_26_" x="28" y="124" class="st10" width="26" height="1"/>
		<rect id="XMLID_24_" x="72" y="33" class="st9" width="26" height="92"/>
		<rect id="XMLID_23_" x="72" y="33" class="st0" width="26" height="1"/>
		<rect id="XMLID_22_" x="72" y="124" class="st10" width="26" height="1"/>
		<rect id="XMLID_20_" x="116" y="90" class="st9" width="26" height="35"/>
		<rect id="XMLID_19_" x="116" y="90" class="st0" width="26" height="1"/>
		<rect id="XMLID_18_" x="116" y="124" class="st10" width="26" height="1"/>
		<g id="XMLID_15_">
			<defs>
				<path id="XMLID_16_" d="M155.7,16H14.3C6.9,16,1,21.9,1,29.3v1.1v152.4v1.1v0.1l51.3-32h103.4c7.3,0,13.3-5.9,13.3-13.2v-0.1
					v-1.1v-36.8V30.4v-1.1C169,21.9,163.1,16,155.7,16z"/>
			</defs>
			<clipPath id="XMLID_2_">
				<use xlink:href="#XMLID_16_"  style="overflow:visible;"/>
			</clipPath>
			<linearGradient id="XMLID_3_" gradientUnits="userSpaceOnUse" x1="1" y1="184" x2="169" y2="16">
				<stop  offset="0" style="stop-color:#FFFFFF;stop-opacity:0.1"/>
				<stop  offset="1" style="stop-color:#FFFFFF;stop-opacity:0"/>
			</linearGradient>
			<rect id="XMLID_17_" x="1" y="16" class="st11" width="168" height="168"/>
		</g>
	</g>
</g>
</svg>
