<?xml version="1.0" encoding="utf-8"?>
<!-- Generator: Adobe Illustrator 19.1.0, SVG Export Plug-In . SVG Version: 6.00 Build 0)  -->
<svg version="1.1" id="Layer_1" xmlns="http://www.w3.org/2000/svg" xmlns:xlink="http://www.w3.org/1999/xlink" x="0px" y="0px"
	 viewBox="0 0 150 150" style="enable-background:new 0 0 150 150;" xml:space="preserve">
<style type="text/css">
	.st0{clip-path:url(#SVGID_3_);}
	.st1{fill-rule:evenodd;clip-rule:evenodd;fill:#434343;}
	.st2{fill-rule:evenodd;clip-rule:evenodd;fill:#C2ADAC;}
	.st3{fill-rule:evenodd;clip-rule:evenodd;fill:#974036;}
	.st4{fill-rule:evenodd;clip-rule:evenodd;fill:#FFFFFB;}
	.st5{fill-rule:evenodd;clip-rule:evenodd;fill:#F6CDC4;}
	.st6{fill-rule:evenodd;clip-rule:evenodd;fill:#EABAAF;}
	.st7{fill-rule:evenodd;clip-rule:evenodd;fill:#CB7161;}
	.st8{fill-rule:evenodd;clip-rule:evenodd;fill:#C48980;}
	.st9{fill-rule:evenodd;clip-rule:evenodd;fill:#AF7970;}
	.st10{fill-rule:evenodd;clip-rule:evenodd;fill:#6F3416;}
	.st11{fill-rule:evenodd;clip-rule:evenodd;fill:#E3ACA2;}
	.st12{fill-rule:evenodd;clip-rule:evenodd;fill:#A0766A;}
	.st13{fill-rule:evenodd;clip-rule:evenodd;fill:#80584C;}
	.st14{fill-rule:evenodd;clip-rule:evenodd;fill:#D6988E;}
	.st15{fill-rule:evenodd;clip-rule:evenodd;fill:#E8BBB4;}
	.st16{fill-rule:evenodd;clip-rule:evenodd;fill:#FDE6E0;}
	.st17{fill-rule:evenodd;clip-rule:evenodd;fill:#C78A7F;}
	.st18{fill-rule:evenodd;clip-rule:evenodd;fill:#AF776E;}
	.st19{fill-rule:evenodd;clip-rule:evenodd;fill:#F3D7D6;}
	.st20{fill-rule:evenodd;clip-rule:evenodd;fill:#68451F;}
	.st21{fill-rule:evenodd;clip-rule:evenodd;fill:#2F1D13;}
	.st22{fill-rule:evenodd;clip-rule:evenodd;fill:#F3E1DF;}
	.st23{fill-rule:evenodd;clip-rule:evenodd;fill:#B37F75;}
	.st24{fill-rule:evenodd;clip-rule:evenodd;fill:#F7D6CC;}
	.st25{fill-rule:evenodd;clip-rule:evenodd;fill:#65443E;}
	.st26{fill-rule:evenodd;clip-rule:evenodd;fill:#A26F64;}
	.st27{fill-rule:evenodd;clip-rule:evenodd;fill:#DE978F;}
	.st28{fill-rule:evenodd;clip-rule:evenodd;fill:#6A443F;}
	.st29{fill-rule:evenodd;clip-rule:evenodd;fill:#916254;}
	.st30{fill-rule:evenodd;clip-rule:evenodd;fill:#8D523A;}
	.st31{fill-rule:evenodd;clip-rule:evenodd;fill:#9D6E64;}
	.st32{fill-rule:evenodd;clip-rule:evenodd;fill:#9B6358;}
	.st33{fill-rule:evenodd;clip-rule:evenodd;fill:#503F3B;}
	.st34{fill-rule:evenodd;clip-rule:evenodd;fill:#D3B7B6;}
	.st35{fill-rule:evenodd;clip-rule:evenodd;fill:#A37063;}
	.st36{fill-rule:evenodd;clip-rule:evenodd;fill:#9F6E64;}
	.st37{fill-rule:evenodd;clip-rule:evenodd;fill:#92685B;}
	.st38{fill-rule:evenodd;clip-rule:evenodd;fill:#EDC0B6;}
	.st39{fill-rule:evenodd;clip-rule:evenodd;fill:#8F6053;}
	.st40{fill-rule:evenodd;clip-rule:evenodd;fill:#543832;}
	.st41{fill-rule:evenodd;clip-rule:evenodd;fill:#6B605F;}
	.st42{fill-rule:evenodd;clip-rule:evenodd;fill:#74493D;}
</style>
<g>
	<defs>
		<circle id="SVGID_1_" cx="75" cy="75" r="75"/>
	</defs>
	<linearGradient id="SVGID_2_" gradientUnits="userSpaceOnUse" x1="75" y1="150" x2="75" y2="0">
		<stop  offset="0" style="stop-color:#212121"/>
		<stop  offset="1" style="stop-color:#EF4438"/>
	</linearGradient>
	<use xlink:href="#SVGID_1_"  style="overflow:visible;fill:url(#SVGID_2_);"/>
	<clipPath id="SVGID_3_">
		<use xlink:href="#SVGID_1_"  style="overflow:visible;"/>
	</clipPath>
	<g id="Shape_848_7_" class="st0">
		<g>
			<path class="st1" d="M145,104.9c-0.9-0.2-15.2-3.6-22.5-5S99.8,89.2,99.8,89.2s-45.1,3.3-48.8,3c-3.6-0.3-13.2,7.8-17.7,9.8
				c-4.4,2-20.4,5.9-22.8,7.3c-2.4,1.4-6.5,47.4-6.5,47.4h146.1c0,0,0.2-16.7,0.6-20.8C151.2,131.8,145.9,105.2,145,104.9z"/>
		</g>
	</g>
	<g id="Shape_852_7_" class="st0">
		<g>
			<path class="st2" d="M84.7,115.3l-9.8,2.7c0,0-4.1,0.3-8.7-1.2c-4.6-1.6-12.6-1.1-12.6-1.1l6.8,43.8l24.6-1.2
				c0,0,7.6-42.5,8.5-47.9C94.3,104.9,84.7,115.3,84.7,115.3z"/>
		</g>
	</g>
	<g id="Shape_853_7_" class="st0">
		<g>
			<path class="st3" d="M76.6,137.6c-1.2-3.5-3.7-5.6-1.3-8.3c2.3-2.8,4.7-3.5,5.2-6.2c0.5-2.6-4.8-5.9-4.8-5.9s-5.9,0.3-7.3,0.1
				c-1.4-0.2-4.3,5.2-4.3,5.2s2.3,8.4,2.7,10.2s-6.8,12.9-6.2,21.5s20.3,2.5,20.3,2.5S78.1,141.9,76.6,137.6z"/>
		</g>
	</g>
	<g id="Shape_849_7_" class="st0">
		<g>
			<path class="st4" d="M50.7,95.9c0,0-1.8,6.2,0.5,12.6c2.3,6.4,5.9,26.9,5.9,26.9s6.8-12.3,9.2-14.4c2.3-2.1,4.8-3.9,4.8-3.9
				L50.7,95.9z"/>
		</g>
	</g>
	<g id="Shape_850_7_" class="st0">
		<g>
			<path class="st4" d="M95.5,97.7c-0.1-1-22.8,17.7-22.5,19.5c0,0,9.3,9.5,12.1,14c2.8,4.5,2.9-3.8,3.8-8.1
				c0.9-4.3,5.1-14.5,5.6-17.2S95.6,98.8,95.5,97.7z"/>
		</g>
	</g>
	<g id="Shape_148_15_" class="st0">
		<g>
			<path class="st5" d="M106.4,61.6c0.3-1.3,1.4-6.2-0.6-7.4s-2.2,1-2.9,2.5c-0.7,1.5-2.3,2.4-2.7,4.4s-0.8,6.3-0.4,8.3
				c0.3,1.9,0.8,9.8,0.8,9.8s2,1.5,3.9-0.6c2.8-3.1,1.2-4.4,1.4-8.1S106.1,62.9,106.4,61.6z"/>
		</g>
	</g>
	<g id="Shape_152_15_" class="st0">
		<g>
			<path class="st6" d="M106.6,55.1c-0.4-0.4-0.9-0.8-1.3-1.2c-1.6-0.6-1.8,1.3-2.5,2.7c-0.7,1.5-2.3,2.4-2.7,4.4s-0.8,6.3-0.4,8.3
				c0.3,1.9,0.8,9.8,0.8,9.8s2,1.5,3.9-0.6c2-2.3,1.7-3.6,1.5-5.5c-0.5-0.1-1,0.6-1.3,0.1c-0.5-0.8-1.2-1.4-0.6-1.9
				c0.6-0.5,0.6-1.5,1.2-2.8c0.6-1.3-1.7-3.5-2.5-4.7c-0.8-1.2-0.2-2.8,0.3-3.8c0.6-0.9,2.2,5,2.3,3.6c0.1-0.8,0.8-2.3,1.4-3.7
				C107,58.3,107.2,56.4,106.6,55.1z"/>
		</g>
	</g>
	<g id="Shape_151_15_" class="st0">
		<g>
			<path class="st7" d="M103.2,64.6c-0.9-0.2-2.5-2.5-2.3,0.2c0,0,0.8,0.8,0.9,2.2c0.1,1.5-0.6,4.8,2,2.1
				C106.3,66.4,104.1,64.7,103.2,64.6z M105.5,58c-0.9-0.5-1.7-0.7-1.8,0.6c0,0,0.9,0.2,0.8,1.2c-0.1,0.9,0.2,2.2,0.6,2.8
				c0.3,0.6,0.1-0.2,0.3-1.3S106.4,58.5,105.5,58z M104.8,69c0,0-0.4,2.2-1.2,2.2s0.7,1,0.8,1.9c0.2,0.9,0.4-0.3,0.6-1.2
				C105.1,71,105.3,68.3,104.8,69z"/>
		</g>
	</g>
	<g id="Shape_148_13_" class="st0">
		<g>
			<path class="st8" d="M46.6,61c-0.3-2-2-2.9-2.7-4.4C43.3,55.1,43,53,41,54.1c-2,1.2-0.9,6.1-0.6,7.4c0.3,1.3,0.3,5.2,0.5,8.8
				s-1.4,5,1.4,8.1c1.9,2.1,3.9,0.6,3.9,0.6s0.4-7.8,0.8-9.7S46.9,63,46.6,61z"/>
		</g>
	</g>
	<g id="Shape_152_13_" class="st0">
		<g>
			<path class="st9" d="M46.3,79c0,0,0.4-7.8,0.8-9.7S46.9,63,46.6,61c-0.3-2-2-2.9-2.7-4.4c-0.6-1.4-0.9-3.3-2.5-2.7
				c-0.4,0.3-0.9,0.7-1.3,1.2c-0.6,1.2-0.4,3.2-0.2,4.7c0.6,1.4,1.3,2.9,1.4,3.7c0.2,1.4,1.8-4.5,2.3-3.6c0.6,0.9,1.2,2.6,0.3,3.7
				c-0.8,1.2-3.1,3.3-2.5,4.7c0.6,1.3,0.6,2.3,1.2,2.8s-0.1,1.2-0.6,1.9c-0.3,0.5-0.9-0.2-1.3-0.1c-0.2,1.9-0.5,3.3,1.5,5.5
				C44.2,80.6,46.3,79,46.3,79z"/>
		</g>
	</g>
	<g id="Shape_151_13_" class="st0">
		<g>
			<path class="st10" d="M43.7,64.5c-0.9,0.2-3.2,1.8-0.6,4.6c2.6,2.7,1.9-0.6,2-2.1c0.1-1.5,0.9-2.2,0.9-2.2
				C46.2,62.1,44.6,64.4,43.7,64.5z M42.3,59.7c-0.1-0.9,0.8-1.2,0.8-1.2c-0.2-1.3-0.9-1.1-1.8-0.6c-0.9,0.5-0.2,2.1,0.1,3.2
				s0,1.9,0.3,1.3S42.4,60.6,42.3,59.7z M43.3,71.2c-0.8,0-1.3-2.2-1.3-2.2c-0.5-0.7-0.3,2-0.2,2.9c0.2,0.9,0.4,2.2,0.6,1.2
				C42.7,72.2,44.2,71.2,43.3,71.2z"/>
		</g>
	</g>
	<g id="Shape_146_7_" class="st0">
		<g>
			<path class="st8" d="M100.9,67.2c-0.9-6.5-0.1-18.9-0.1-18.9c2.1-7.6-8.7-22.7-10.1-25.2c-1.4-2.4-5.6-5.1-7.5-5.6
				s-12.6,1-14.2,1.1c-1.7,0.1-9,2.4-12.6,4.8c-3.6,2.4-5,4.2-8,10.4c-3,6.2-2.4,7.2-2.1,12.4c0.3,5.2,0.3,8-0.5,14
				S45.5,71.5,46.1,80s4.1,9.2,4.6,15.3c0.5,6.2,2.8,10.7,7.2,14.2c4.3,3.6,8.5,8.2,13.7,8.9c5.2,0.7,8.9-3.5,11.2-5.5
				c2.3-2,6.1-2.8,8.9-6c2.8-3.2,4-6,4.8-10.1s2.9-5.6,4-10.2C101.5,82.2,101.8,73.7,100.9,67.2z"/>
		</g>
	</g>
	<g id="Shape_153_7_" class="st0">
		<g>
			<path class="st11" d="M97.5,63.2c-1-2.1-5.3-5.2-0.8-11.8c1.2-1.8-0.3-8.2-0.3-8.2c0.1-5.2-3.6-14.2-5.7-16.3
				c-1.7-1.8-4.2-3-6.1-3.6c-2.3-0.7-5.1,0.6-6.2,2.2c-1.7,2.6-8.3,4.3-9.7,6c-2,2.6-7.2,1.6-6.8,4.3s2.8,6.8,1.5,7.3
				c-1.2,0.6-0.1,2.5-0.2,4.8s4.6,2,6,3.8s1.5-1.5,2.1-2.8c0.7-1.7,2.3,3.8,1.5,5.7c-1.1,2.4,0.2,5.4,0.1,7.8
				c-0.1,2.5,1.1,2.8-1.2,4.3c-2.2,1.5-3.9,3.9-2.1,3.2c1.8-0.8,1.7,0.2,3.3,1.7c0.4,0.4,3.8,1,4.3,0.3c2.6-2.9,5.6,3.8-0.3,1.3
				c-0.5-0.2-2.4,1.1-3.2,2.2c-1.3,1.5-1.1,5.1-2.8,5.5c-1.7,0.4-5.2,5.4-4.3,5.7c0.9,0.3,4,2.3,7.8,2.4c3.8,0.1,1.5,3.8-1.4,3.9
				s-9.8-0.5-7.1,1.9c2.7,2.4,0.7,2.6,6.9,2.6s2.2,4.8,5,4.8c2.8,0,5.5,0.4,8.2-3.5c1.4-1.9,3-4.1,4.4-4.4c1.4-0.3,1.6,2.3,4.2,0.1
				c3.1-2.7,3.9-7.1,3.1-9.9c-0.6-2.2,0-11.5,0.3-13.3C98.6,68.5,98.3,64.9,97.5,63.2z"/>
		</g>
	</g>
	<g id="Shape_854_7_" class="st0">
		<g>
			<path class="st12" d="M76.2,110.8c-2.8-3.8,0.2-5,2.3-5.4c2.2-0.4,1.1-0.9-2.3-1.3S71.2,104,68,102c-3.2-2-6.7-4.7-7.6-7.3
				c-0.9-2.6-5.8-10-7.3-4.6s-2.7,2-4.2,0.2c-1.6-1.8,1.1,3.8,1.9,7c0.8,3.2-0.6,7.6,8.1,13.8c8.7,6.2,6.6,6.9,11.5,7.7
				s6.8-1.6,9.2-2.8c2.5-1.1,3.4-3.2,3.4-3.2S78.9,114.6,76.2,110.8z"/>
		</g>
	</g>
	<g id="Shape_874_7_" class="st0">
		<g>
			<path class="st13" d="M88.7,109c-2.5,0.8-4.8,1.7-7.3,3.8c-2.5,2.2-5.2,3.3-9.8,3.5c-4.7,0.2-6.2-3.2-10.7-5.8
				c-4.5-2.7-7.5-8.3-8.3-11.2c-0.8-2.8-3-6-3-6c-0.5-1.8,1.3,8.3,2.5,10.7c1.2,2.3,6.5,7.5,8,8.2s4.3,2.8,6.2,4.7
				c1.8,1.8,5,2.5,8.2,1.8c3.2-0.7,6.7-1.8,7.8-4.5C83.3,111.5,91.2,108.2,88.7,109z"/>
		</g>
	</g>
	<g id="Shape_154_7_" class="st0">
		<g>
			<path class="st14" d="M89.4,81.7c-0.2-3.2-2.7-7.1-4.1-8.6c-1.1-1.2-1.7-1.6-2.8-2.8c0,0-1.2-3.3-1.5-2.2c-0.2,0.5,2.2,3.3,0,5.4
				c-1.3,1.2,1.7-0.1,1.9,0.2c1.1,1.6,2.4,4.7,3.6,6.7C89.4,85.2,89.5,83,89.4,81.7z"/>
		</g>
	</g>
	<g id="Shape_183_7_" class="st0">
		<g>
			<path class="st15" d="M93.9,66.2c-2,1.3-3.1,3.1-7.5,0.9c-4.4-2.2-2.4,0.3-1.8,1.2c0,0,4,4.5,7.3,3.8c3.3-0.7,4.8-2.6,5.2-4.8
				C97.5,65.2,95.9,64.9,93.9,66.2z"/>
		</g>
	</g>
	<g id="Shape_156_7_" class="st0">
		<g>
			<path class="st8" d="M79.5,71.7c-0.7-0.4-2.5,0.7-2.5,0.7c0.3,0,1.1,0.9,1.7,1.5c0.5,0.6,1.1,0.4,1.4-0.1
				C80.4,73.3,80.2,72,79.5,71.7z"/>
		</g>
	</g>
	<g id="Shape_157_7_" class="st0">
		<g>
			<path class="st16" d="M76.5,65.9c-1.5-0.2-2.3-0.2-2.6,0.1c0,0-1.6,0.7-0.4,1.2s1.7,0,2.8,0.2S78,66.1,76.5,65.9z"/>
		</g>
	</g>
	<g id="Shape_158_7_" class="st0">
		<g>
			<path class="st16" d="M77.5,69.4c0,0-0.7,0.5-0.6,1.1c0.1,0.6,0.9,0.1,1.4-0.2C78.8,69.9,79,69.2,77.5,69.4z"/>
		</g>
	</g>
	<g id="Shape_159_7_" class="st0">
		<g>
			<path class="st17" d="M94.5,60.4c-0.8-0.1-1.8,1.6-1.2,2s-0.4,1.8-1.8,2.7c-1.4,0.9-2.9,1.7-4.6,1.2c-1.7-0.5-1.2-2.3-1.6-2.9
				c-0.3-0.6,0.5-0.5,0.3-0.9c-0.2-0.4-1.4-1.3-0.4-1.7c1-0.3,2.3,0.1,2.2-0.5c-0.1-0.6,1.3-0.8,2-1c0.8-0.2,1.4-0.6,2.7-0.1
				s1.8,0,0.7-0.9c-1.1-0.9-3.4-2.2-5-3.8s2.3-1.7,3.5-1.6c1.2,0.1,1.8,2,2.2,2.4c0.4,0.4,1,0.3,0.9-1c-0.1-1.3-1.4-2.8-3.2-3.8
				s-5.8-0.4-8.2,0c-2.5,0.4-2.2,0.6-2.8,2c-0.6,1.4-1.8,1.3-2.3,4.3c-0.6,3,1.7,5.2,3.4,5.8c1.7,0.7,2.5,2.5,5.6,4.3
				c3.1,1.8,6.3-0.7,7.8-2.2C96,63.3,94.5,60.4,94.5,60.4z"/>
		</g>
	</g>
	<g id="Shape_856_7_" class="st0">
		<g>
			<path class="st18" d="M85.8,58.7c-1.7-0.2-4.2-0.7-4.3-1.1c-0.2-0.4,0.2-1.2,0.2-1.9s-0.6-0.2-1.7,0.6s-1.8,1.2-1.8,1.2
				s-0.7,1.5,1.2,2.8c1.9,1.3,2.3,1.2,3.2,1.8c0.9,0.6,0.2-0.7,0.1-1.4c-0.1-0.8,0.8-1.1,2.8-1.2C87.4,59.3,87.4,58.8,85.8,58.7z"/>
		</g>
	</g>
	<g id="Shape_161_7_" class="st0">
		<g>
			<path class="st19" d="M88.1,56.3c-0.9-0.6-5.3-2-6.3-0.2c-0.4,0.6-0.1,1.5-0.3,1.3c0,0,0.3,1.3,2.1,1.6c1.8,0.3,5.4,0,6.8-1.1
				C90,57.4,89,56.9,88.1,56.3z"/>
		</g>
	</g>
	<g id="Ellipse_4_7_" class="st0">
		<g>
			<circle class="st20" cx="85.2" cy="57" r="2.1"/>
		</g>
	</g>
	<g id="Ellipse_4_copy_7_" class="st0">
		<g>
			<circle class="st21" cx="85.2" cy="57" r="1"/>
		</g>
	</g>
	<g id="Ellipse_4_copy_2_7_" class="st0">
		<g>
			<circle class="st22" cx="86.4" cy="57.4" r="0.6"/>
		</g>
	</g>
	<g id="Shape_168_7_" class="st0">
		<g>
			<path class="st11" d="M90.6,57.2c-0.5-0.7-1.3-1.7-3.8-2.3c-2.4-0.6-4.2-0.5-3.8,0.5c0,0,4.5,0.4,6.4,1.9
				C90.8,58.3,91.1,57.8,90.6,57.2z"/>
		</g>
	</g>
	<g id="Shape_859_7_" class="st0">
		<g>
			<path class="st23" d="M70,80.1c1.4-1.4,1.2-4.4,1.2-4.4c-4.7-2.1-3.3-0.4-5,0.3c-1.7,0.8-5.5,4.4-6.7,6.5s-2.1,4-3.9,2
				c-1.8-2-2.1-10.4-2.9-13.4c-0.8-3-1.9-2.1-2.8,4.1c-0.9,6.2,1.5,15,3.1,17.5c1.5,2.5,7,4.1,10.9,7.2c4,3.1,5.3-0.8,3.4-2.8
				c-1.9-1.9-2.4-3.1-0.4-4.6c2-1.5,4.9-0.1,1.8-1.8c-3.2-1.6-3.1-5.5-2.3-7.2S68.6,81.5,70,80.1z"/>
		</g>
	</g>
	<g id="Shape_178_7_" class="st0">
		<g>
			<path class="st24" d="M71.3,46c-1.4-0.2-3.3,3.6-4.1,5c0,0,1.7,2.8,2.7,1.9c1-0.9,0.9-2.3,1.3-3.9C71.5,47.4,72.3,46.2,71.3,46z"
				/>
		</g>
	</g>
	<g id="Shape_160_7_" class="st0">
		<g>
			<path class="st25" d="M90,57.1c-0.6-0.5-2.2-1.2-3.5-1.6c-1.3-0.4-3.5-0.3-2.9-0.6s1.8-0.6,0.8-0.7c-1-0.1-2.6-0.2-3.2,0.3
				c-0.5,0.5-0.9,0.8-1.4,0.8c-0.5,0-1.2-0.7-1.1,0.2c0.1,1-0.5,1.8-0.7,2.1s0.7,0.3,0.8,0.5c0,0,0.5-1,1.2-1.4
				c0.7-0.5,1.2-1,1.3-0.8c0.2,0.3-0.4,0.8-0.5,1.2s-1.4,0.6-0.9,1s1.7,0.2,2.1,0.2s-0.7-0.9-0.2-1.6c0.5-0.7,0.5-0.6,1.6-0.7
				s2.3,0,3.5,0.3c1.2,0.4,2.3,0.5,2.5,1.2c0.2,0.6-0.8,1.2-0.2,1.1c0.6-0.1,1-0.7,1.7-0.2C91.5,59,90.6,57.6,90,57.1z"/>
		</g>
	</g>
	<g id="Shape_163_7_" class="st0">
		<g>
			<path class="st18" d="M70.8,50.2c-0.4,2.4-1.6,2.3-2.1,0.9c-0.5-1.4-2-1.2-3.8-1.4c-1.8-0.2-3.5-0.4-4-1.1
				c-0.5-0.7-0.7-3.6-0.2-5c0.5-1.4,1.7-0.5,3-0.7c1.3-0.1-1.3,0.2-1.9-1.8s-2.4-6.5-1.2-7.9c1.1-1.4,4.7-1.1,6.2-1.7
				c1.5-0.6,0.6-2.2-0.2-2.6s-10.7-8.8-10.3-6.8c0.3,2-4,2.9-5.7,5.2c-1.7,2.3-1.9,4.3-2.8,5.9c-0.9,1.6-1.7,10-2.1,13.6
				s1.8,6,2.6,7.4c0.8,1.4,1.1,4.3,1.3,5.7s0.1,1.8,1.9,3c1.8,1.2,1.9,3,2.2,3.8c0.5,1.2,3,1.5,4.4,1.3c0,0,3.9-1,5.9-2.6
				c2-1.5,2.5-3.2,4.2-4.3c1.7-1,2.4-3.4,2.2-4.7c-0.2-1.2,0.7-2.6,0.8-3.2c0.1-0.6,0.6-5.4,0.8-6.2S71.2,47.9,70.8,50.2z"/>
		</g>
	</g>
	<g id="Shape_164_7_" class="st0">
		<g>
			<path class="st26" d="M75.2,72.9c-0.8-0.3-1.4,0.6-1.9,0.2c-0.5-0.4,0.1-0.7-1.3-2c-0.7-0.6-1.1-1-1.9-1c-0.8,0-3.4,0.9-1.9,4.4
				c0,0,0.7,1.8,2.2,1.8c1.5,0,1.5,1,2,0.2c0.5-0.8,0.8-1.6,1.4-2s1-0.1,1.7-0.3C76.1,73.9,76,73.2,75.2,72.9z"/>
		</g>
	</g>
	<g id="Shape_166_7_" class="st0">
		<g>
			<path class="st9" d="M67.7,73.7c-0.3-0.2-0.8-1-1.2-1.8c-0.4-0.8,0.6-2.7,0.9-3.3c0.3-0.6-0.1-1.5-0.1-1.5
				c-0.2-0.9-1.2,1.1-2.6,2.2c-1.4,1.2-0.8,2.5-0.2,3c0.6,0.5,0.5-0.2-0.2,2.1c-0.7,2.2,0.8,0.3,1.4-0.4
				C66.5,73.4,68,73.9,67.7,73.7z"/>
		</g>
	</g>
	<g id="Shape_167_7_" class="st0">
		<g>
			<path class="st8" d="M79,51.9c-0.1-0.5-2.9-0.7-2-4.7s-0.6-2.2-0.5-0.6c0,0-0.7,4.4,0.9,5.8C79,53.7,79.1,52.5,79,51.9z"/>
		</g>
	</g>
	<g id="Shape_173_7_" class="st0">
		<g>
			<path class="st27" d="M81.7,83.2c-0.3-0.5-2-0.9-2.6-1.3c-0.6-0.4-1.2-0.8-1.9-0.8c-0.7,0-0.7,0.2-1.8,0.6s-1.4,1.6-1.4,1.6
				c-0.2,0.7-2,0.4-2.2,0.5c-0.3,0.1-1.5-0.2-2.8,0.5s0.7,1.4,1.8,2.1c1.1,0.7,2.5,0.8,3.9,1.1c1.4,0.2,3.4,0,3.9-0.3
				c0.5-0.3,2.2-0.9,3.1-1.2c0.8-0.4,1.4-0.9,1.4-1.2C83,84.5,82,83.7,81.7,83.2z"/>
		</g>
	</g>
	<g id="Shape_172_7_" class="st0">
		<g>
			<path class="st9" d="M79.7,84.4c-1.1,0-2.2,0-2.4-0.8s-0.5-0.1-0.6,0.4c-0.1,0.5-0.5,0.6-1.3,0.6c-0.7,0-0.9-0.3-0.9-0.9
				c0-0.6,0.3-1.8-0.4-1.8c-0.7,0-1.3-0.5-2.3-0.6s-1.7,0.5-2.5,0.8s-3.2,2.3-3.2,2.3c-0.2,0.2-0.7,1.3,0.1,1.2
				c0.8-0.1,1.8,0.2,2.4,0.5c0.6,0.2,3.4,1,4.1,1c0.7,0,0.2-0.4-0.7-0.8c-0.9-0.4-2.2-0.9-2.1-1.2c0.1-0.4,3,0,3.5,0
				c0.5,0,1.4,0.2,2,0.2c0.6,0,1.5-0.6,2.2-0.8c0.7-0.2,3.6,0.2,4,0.2S80.8,84.4,79.7,84.4z"/>
		</g>
	</g>
	<g id="Shape_169_7_" class="st0">
		<g>
			<path class="st8" d="M76.8,78.4c-0.2-1.2-1.2-2.2-1.2-2.2c-0.4-0.6-0.9,0.5-1.1,1.2c-0.2,0.7-0.3,2.3-0.8,2.9
				c-0.4,0.6,1.4,0.8,2.3,0.6S76.9,79.6,76.8,78.4z"/>
		</g>
	</g>
	<g id="Shape_174_7_" class="st0">
		<g>
			<path class="st9" d="M82.3,84.4c-0.7,0.2-1.6,0.1-1.6,0.3c0,0.3,0.5,0.4-0.2,0.8c-0.7,0.4-1.1,0.4-1.8,0.8
				c-0.6,0.4-2.5,1.1-2.5,1.1c-1.8,0.8,4.2-0.8,4.9-1.2c0.7-0.3,1.7-0.8,2-1.1S83,84.2,82.3,84.4z"/>
		</g>
	</g>
	<g id="Shape_171_7_" class="st0">
		<g>
			<path class="st28" d="M84.2,84.4c-0.8-0.8-1.4-2.7-1.2-0.9c0,0.6-1.3,0.8-1.3,0.8c-0.8,0.2,0.5,0.6,1.2,0.8
				c0.7,0.2,1.2,0.9,1.5,1.3s1.8,0.9,1.8,0.3C86.1,86.2,85,85.2,84.2,84.4z M73.3,84c-1.8-0.2-2.5-0.1-3.2-0.3
				c-0.6-0.2-2,0.1-2.6,0.1c-1.5,0.1,0.1-1.3-0.8-0.9s-2.2,1.7-2.9,2.1c-0.7,0.4-1.4,1.2-1.4,2.6c0,0,0.5,0.5,0.8-0.4
				c0.3-1,0.6-1.3,1.3-1.6c0.7-0.3,1.1-0.5,2-0.7c1-0.1,1.8-0.6,3-0.5s2.5,0.1,3.1,0.1S75.2,84.2,73.3,84z"/>
		</g>
	</g>
	<g id="Shape_861_7_" class="st0">
		<g>
			<path class="st29" d="M69.9,56.2c-0.5-1.1,0.2-0.4-0.5-1.4c-0.7-1.1-1.2-1.6-2.5-1.7c-1.3-0.1-0.3,1.8-1.6,2.7
				c-1.2,0.9-6.3,3.3-6.3,3.3s-0.5,1,1.7,1.2c2.2,0.2,3.6-0.4,3.3,0.6c-0.2,1,0.4,2.2-1.8,3.2c-2.2,1-3.7,1.9-1.4,1.4s4.3-2,4.9-3.5
				c0.7-1.5,2-3.1,3.1-1.8C70.8,62.5,70.5,57.5,69.9,56.2z"/>
		</g>
	</g>
	<g id="Shape_175_7_" class="st0">
		<g>
			<path class="st9" d="M85,75.1c-0.6-1-2.4-3.5-2.4-3.5c-1-0.6,1.5,3.3,2.2,4.9c0.8,1.6,2.2,4,2.2,3.3C87.1,79.2,85.6,76.1,85,75.1
				z"/>
		</g>
	</g>
	<g id="Shape_176_7_" class="st0">
		<g>
			<path class="st30" d="M75.4,88.7c-2.1,0.2-5.3-0.9-5.3-0.9c-2.9-0.3,3.1,1.7,4.2,1.8c1.2,0.1,4.3-0.7,4.8-1.5
				C79.5,87.2,77.5,88.4,75.4,88.7z"/>
		</g>
	</g>
	<g id="Shape_179_7_" class="st0">
		<g>
			<path class="st31" d="M78.4,92.4c-1.2-0.8-4.2-1-4.2-1c-1.1-0.1-2.9,0.3-4,1.3c-1.1,1,3.5,0.2,5.3,0.2S79.6,93.2,78.4,92.4z"/>
		</g>
	</g>
	<g id="Shape_868_7_" class="st0">
		<g>
			<path class="st32" d="M76.4,73.1c-1,0.7-1.3-0.1-1.9,0.2s-0.8,0-1.9,0.2c-1.1,0.2-0.2-0.6-2.7-0.3s-2.9-2-2.9-2
				c-0.6,4,2.7,3.1,3.9,2.9c1.2-0.2,2.7,0.2,3.7,0.1s2.6-0.5,2.8-1.1C77.7,72.4,77.4,72.4,76.4,73.1z"/>
		</g>
	</g>
	<g id="Shape_180_7_" class="st0">
		<g>
			<path class="st15" d="M90.8,60.2c0.5-1-0.1-2-0.8-1.3s-0.9,0.7-2.8,1.1c-2,0.4-2.9,1.2-2.9,1.2c-1.1,0.8,3.8,1.8,6,1.7
				S90.2,61.2,90.8,60.2z"/>
		</g>
	</g>
	<g id="Shape_147_7_" class="st0">
		<g>
			<path class="st33" d="M105,47.2c-0.2-4.2-0.5-6.1-0.4-7.8c0.1-1.7-1.2-4.3-2.3-7c-1.1-2.7-2.4-6.2-2.4-7.3c0-1.1-3.9-4.2-6-6.8
				c-2.1-2.6-3.4-4.2-8.9-4.8c-4.7-0.5-8.7,1.3-11.9-0.7c-3.2-2-10.8,0.8-13.4,2.2c-2.6,1.4-7.7,1.3-9.5,4.3s-2.2,3.7-3.3,5.2
				c-1.1,1.5-2.7,6.6-4.2,9.7c-1.5,3.1-0.7,6-0.5,8.2c0.2,2.3,0.4,8.6-0.2,10.5c-0.6,1.9,0,2.1,0.6,3.3c0.6,1.3,1.9,3.3,3,4.7
				c1.1,1.4,1.7,0.6,1.7-1.7c0.1-2.3,0.3-8.3,0.7-10.3s-0.6-4.4-0.2-7.3c0.4-2.9,1-5.7,2.2-8s3.8-6.6,4.9-7.9
				c1.1-1.3,2.2-2.2,1.8-1.1c-0.5,1.2-1.7,3.3,3.7,4.3c6,1.2,8.3,0.3,11.2-1.5c2.8-1.8,5.1-2.6,6.8-4.4c1.7-1.8,2.7-0.9,5.6-0.6
				c2.9,0.3,5.1,1,6.3,2.7c0,0,4.4,4,6.3,9.5c1.9,5.5,2.6,11.8,2.9,15.4c0.3,3.6-0.2,12.1,1.3,11.2c1.5-0.8,2.5-3.5,3.3-5.8
				S105.2,51.5,105,47.2z"/>
		</g>
	</g>
	<g id="Shape_182_7_" class="st0">
		<g>
			<path class="st34" d="M66.4,57.8c-0.4-0.8-0.1-1.5-3.8-1.4c-3.8,0.1-4.5,2.2-4.5,2.2c-0.2,0.2-1,0.8,3.6,0.7
				C66.2,59.2,66.8,58.6,66.4,57.8z"/>
		</g>
	</g>
	<g id="Ellipse_4_copy_3_23_" class="st0">
		<g>
			<path class="st20" d="M64.7,57.6c0-0.4-0.1-0.8-0.3-1.1c-0.5,0-1-0.1-1.8,0c-0.7,0-1.4,0.1-1.9,0.3c-0.1,0.3-0.2,0.6-0.2,0.9
				c0,0.7,0.4,1.4,1,1.8c0.1,0,0.1,0,0.2,0c0.9,0,1.6-0.1,2.2-0.1C64.4,58.8,64.7,58.3,64.7,57.6z"/>
		</g>
	</g>
	<g id="Ellipse_4_copy_3_21_" class="st0">
		<g>
			<circle class="st21" cx="62.6" cy="57.6" r="1"/>
		</g>
	</g>
	<g id="Ellipse_4_copy_3_19_" class="st0">
		<g>
			<circle class="st22" cx="63.7" cy="58" r="0.6"/>
		</g>
	</g>
	<g id="Shape_866_7_" class="st0">
		<g>
			<path class="st35" d="M55.9,87.7c-3.9-6.2-3.4-10.2-4-16.5c-0.6-6.3,3.5-4.8,3.5-4.8c-1.8-2.5-4.6-11.8-5.5-15.9
				C49,46.3,48,50.8,47,53.2s-0.3,5.3-1.1,8s-0.8,8-0.2,14.8c0.5,6.8,1,11.5,3.4,15C51.5,94.5,59.8,93.8,55.9,87.7z"/>
		</g>
	</g>
	<g id="Shape_870_7_" class="st0">
		<g>
			<path class="st36" d="M53.5,69.9c-4.9,1.2-5.2-7.2-5.2-7.2c-3,6.9,3.6,12.1,5.7,10C56,70.6,58.4,68.7,53.5,69.9z"/>
		</g>
	</g>
	<g id="Shape_155_7_" class="st0">
		<g>
			<path class="st28" d="M79.5,72.6c-0.2-0.7-0.9-0.6-1.4-0.4s-1,0.5-1,0.5c0.4,0,1.1,0.4,1.7,0.8S79.7,73.3,79.5,72.6z"/>
		</g>
	</g>
	<g id="Shape_165_7_" class="st0">
		<g>
			<path class="st28" d="M71.3,72.2c-0.5-0.4-1.5-0.5-1.7,0.4c-0.2,0.9,1.1,0.8,1.8,0.8c0.6-0.1,1.2,0,1.3-0.1
				C72.8,73.3,72,72.9,71.3,72.2z"/>
		</g>
	</g>
	<g id="Shape_860_7_" class="st0">
		<g>
			<path class="st35" d="M62.3,53.7c-3.5-1.4-5.7,2.9-5.9,0.9s0.2-2.2-1.5-1.2s-2.1,1.8-2.4-0.7s5.7-5.5,4.8-7.1
				c-0.9-1.6-0.4-3.6,0.2-6.5c0.7-2.9,0.7-3.3,0-6.5s-4.2,2.9-5.6,6.3c-1.4,3.4-4.1,3.9-4.1,3.9s-1.3,9.7-0.8,10.7
				c0.6,1,0.6,0.3,1.4,4.2c0.8,3.8-0.3,2.7,3.4,5.3c3.8,2.7,6.6,2.5,8.1,1.6c1.5-0.9,0.3-1.1-3.3-1.9C53,62,55.5,60.3,56.5,59
				C57.5,57.7,65.8,55.2,62.3,53.7z"/>
		</g>
	</g>
	<g id="Shape_845_7_" class="st0">
		<g>
			<path class="st37" d="M85.6,99.7c-0.1,0-4.7,3-5.3,3.4c-3.6,2.2-9.2,0.7-12.8-0.9c-2.3-1-2.3-2.9-3.4-4.7
				c-0.7-1.1-1.7-1.7-2.6-2.6c-1.1-1.1-1.8-2.5-2.4-3.9c-0.8-2-2.7-5.3-5.4-4.4c-1.6,0.8-0.5,4.3-0.8,5.6l-0.2,0.1
				c-2.6,0-6.4-8.6-5.2-3.9c0.2,1.1,1,2.8,1.2,3.9c0.3,0.5,1.1,0.7,1.4,1.2c0.6,0.7,1.1,1.3,1.7,2c1.8,1.9,3.5,3.8,5.3,5.7
				c2.2,1.9,5.1,2.7,7.7,3.7c0.7,0.1,1.4,0.2,2.1,0.2c1,1,5.3,2.2,6.5,2.2c1.8,0.1,5.4-0.8,7.1-1.8C81.6,104.7,87.6,101.7,85.6,99.7
				z"/>
		</g>
	</g>
	<g id="Shape_846_7_" class="st0">
		<g>
			<path class="st13" d="M63.4,98.4C63.3,98.4,63.3,98.4,63.4,98.4c0,0,0,0.1,0,0.2L63.4,98.4z M63.3,98.3
				C63.3,98.4,63.3,98.4,63.3,98.3C63.3,98.4,63.3,98.4,63.3,98.3C63.3,98.4,63.3,98.4,63.3,98.3z M84.6,101.3
				c-0.7,0.7-1.4,1.3-2.2,2c-1,0.6-2,1.1-3,1.7c-4.5,1.1-15.2-0.6-16.1-6.3c0,0,0,0,0,0.1c0-0.1,0-0.2,0-0.2c-0.1,0-0.2-0.1-0.3-0.1
				c-0.1,0-0.1,0.1-0.2,0.1c0,0.6,0.1,1.2,0.1,1.9c0.4,1.4,2,3,3.2,4c1.4,1.1,3.4,2.1,5.2,2.5c2.5,0.6,4.3-0.2,6.8-0.2
				c1-0.7,2.7-0.9,3.8-1.6c1.7-1,3.2-1.8,3.2-3.9C84.9,101.1,84.8,101.2,84.6,101.3z"/>
		</g>
	</g>
	<g id="Shape_840_7_" class="st0">
		<g>
			<path class="st38" d="M92.4,38.7c-0.3-0.7-0.7-1.4-1-2.1c-0.3-1.2-0.5-2.3-0.8-3.5C90.3,31.5,89,30.1,88,29l-0.1-0.1l-0.1-0.1
				c-0.5-0.5-1.1-1-1.6-1.6c-0.4-0.1-0.7-0.1-1.1-0.2c-0.1,0-0.3,0-0.4,0c0,0-0.1,0-0.1,0c0,0.1-0.1,0.2-0.1,0.2
				c0-0.1,0-0.2-0.1-0.2c-0.9,0-2-0.2-2.9,0.1c-2,0.7-1.5,5.6-0.9,7.1c2,4.8,3.5,6.5,8.2,8c0.9,0.3,3,0.9,4,0.4
				C94.4,41.7,92.7,39.7,92.4,38.7z"/>
		</g>
	</g>
	<g id="Shape_841_7_" class="st0">
		<g>
			<path class="st38" d="M89.2,46.2c-0.6-0.1-1.3-0.2-1.9-0.4c0,0.1-0.1,0.1-0.1,0.2c0,0,0,0,0,0c-1.1,0.2-3.5,1.7-1.5,2.9
				c1.4,0.8,2.9,0.4,4.5,0.6c0.9,0.1,2.7,0.6,2.7-0.7C92.4,46.8,90.8,46.9,89.2,46.2z"/>
		</g>
	</g>
	<g id="Shape_842_7_" class="st0">
		<g>
			<path class="st38" d="M84.7,43.3c0.1,0,0.1,0,0.2,0l-0.7,0.1C84.2,43.3,84.4,43.2,84.7,43.3c-1-0.1-1.7,0.2-2.6,0.2
				c-0.1,0.1-0.2,0.2-0.3,0.3c0,1.1,1.7,1.2,2.4,1.3c1.5,0.2,3,0.3,4.4,0.5c1.5,0.4,2.9,0.9,4.4,0.9C92.9,45.3,86.6,43.3,84.7,43.3z
				"/>
		</g>
	</g>
	<g id="Shape_867_7_" class="st0">
		<g>
			<path class="st39" d="M56.6,50.9c0,0-2.9,2.2-3,4.5c-0.1,2.3-3,3.7-1.5,5c0,0,3-1,3.3-2.6c0.3-1.6,0.5-4.6,2.6-5.2
				S56.6,50.9,56.6,50.9z"/>
		</g>
	</g>
	<g id="Shape_844_7_" class="st0">
		<g>
			<path class="st8" d="M68.2,43.2c-0.2,0-0.5-0.1-0.7-0.1c-0.2,0.1-0.3,0.1-0.5,0.2L68.2,43.2z M77.8,40.9c-2.6,0-5.2,0-7.8,0
				c-0.5,0.5-2.4,0.7-3.1,1.4c-0.1,0.1-0.2,0.1-0.2,0.2c0,0.1,0,0.3,0.1,0.4c0.3,0,0.5,0.1,0.8,0.1c4.4-2.2,5.8-1.4,10.4-1.4
				c0.5,0,3.4,0,3.4-0.4C81.3,41,78.6,40.9,77.8,40.9z M77.2,35.4c0.5-0.2,1-0.4,1.5-0.5v0c-0.6-0.6-5.3,0.4-6.9,0.4
				c-0.1,0.1-0.1,0.1-0.2,0.2c0-0.1,0-0.1,0-0.2c0.1,0,0.1,0,0.2,0c0.1-0.1,0.2-0.2,0.3-0.3c-0.4,0-2.3,0.2-2.3,0.8
				c0,0.1,0.1,0.1,0.1,0.2C71.1,36.5,75.9,35.7,77.2,35.4z"/>
		</g>
	</g>
	<g id="Shape_857_7_" class="st0">
		<g>
			<path class="st40" d="M67.2,56.7c-0.6-0.3-1.5-1.6-3.7-1.1c-2.2,0.6-3.2,0.3-4.4,1c-1.2,0.7-1.2-0.5,0.3-0.9s2.9-0.9,4.6-0.8
				c1.6,0.2,2.5,0.4,3.3,0.6c0.8,0.2,0.4-1-0.4-1.4c-0.9-0.4,0.2,0.2-0.9,0.2c-1.1-0.1-3.6,0-4.6,0.3S59.4,54.8,58,56
				c-1.4,1.2-1.3,1.4-1.8,2.2c-0.4,0.9-1,2-1.8,2.2c-0.9,0.3-1.5,1,0,0.7c1.5-0.3,1.9-1.2,1.9-1.2s1.2-0.3,1.5-1s0.9-1.8,2.9-2
				s4-0.8,4.9,0.1c1,0.9,0.8,1.3,0.2,1.6c-0.7,0.3-1.1,0.5,0,0.8c1.1,0.2,1.6-0.8,2.2-0.8C68.8,58.6,67.9,56.9,67.2,56.7z"/>
		</g>
	</g>
	<g id="Shape_858_7_" class="st0">
		<g>
			<path class="st32" d="M67.3,69.5c1.2-1.5,1.6-3.4-0.2-1.2c-0.5,0.6-2.7,5.3-3.4,6.4c-0.7,1.1-2.9,3.9-1.5,3.2s2.2-1.8,2.9-2.9
				c0.7-1.1,0.7-1.3,1.6-0.8s0.7-1.3,0.3-2C67.1,72.2,66.7,70.4,67.3,69.5z"/>
		</g>
	</g>
	<g id="Shape_862_7_" class="st0">
		<g>
			<path class="st41" d="M100.4,26.1c-0.1-3.7-4.2-5.3-6.7-8.3c-2.5-3-5-4.5-10.2-2.8c-5.2,1.7-3.5,1.3-0.7,3.3
				c2.8,2,4.4,1.9,4.4,1.9s3,1.1,7,3.6s3.5,7,4.2,11.2c0.7,4.3,5.4,8.6,5.4,8.6C102,41,100.5,29.7,100.4,26.1z"/>
		</g>
	</g>
	<g id="Shape_863_7_" class="st0">
		<g>
			<path class="st41" d="M80,17.9c-5.5-2.3-8.9-1.2-10.4-0.3c-1.1,1.3-1.2,0.7,0,0c0,0,0.1-0.1,0.1-0.1c2.8-3.4,8.5-1.5,5.2-2.6
				s-2.9-1-8.2,1.7c-5.2,2.6-4.8,1-0.1-1.5c4.7-2.5,7-2.4,2.5-3.4c-4.1-0.2-7.7,2-12,5.1c-4.3,3-1.3,1.8-4.9,3
				c-3.6,1.2-5.4,6.5-6.8,10.5c-1.5,4-3.3,10.3-2.2,8.2c1.9-3.3,5.1-8,7.6-11.2c2.5-3.3,4.2-7.4,7.1-4.6c2.8,2.8,6.4,2,9.5-0.2
				c3.1-2.2,5.1-5,9.6-3.2c4.5,1.8,8.6,1.2,8.6,1.2S90,22.2,80,17.9z"/>
		</g>
	</g>
	<g id="Shape_864_7_" class="st0">
		<g>
			<path class="st41" d="M44.2,40.7c-2.1,3-3.8,3.8-1.5,8.2c2.3,4.5,1.5,5.5,1.2,6.5c-0.3,1,2.3-0.3,2.2-4.5s-0.5-6.1,0.8-6.8
				c1.3-0.7,2.7-11.4,2.7-11.4S46.2,37.7,44.2,40.7z"/>
		</g>
	</g>
	<g id="Shape_865_7_" class="st0">
		<g>
			<path class="st41" d="M103.7,46c-2.4-2.3-4.1-5.2-4.1-5.2c-1.5,3.3,4,4.2,2.4,7.8c-1.5,3.6,0,9.7,0.2,6.9S106.1,48.3,103.7,46z"
				/>
		</g>
	</g>
	<g id="Shape_181_7_" class="st0">
		<g>
			<path class="st42" d="M93.6,52.2c-0.3-0.5-0.9-1-2.3-1.2c-0.8-0.1-1.5-0.2-2.9-0.1c-1.6,0.1-2.8-0.3-4-0.2
				c-1.8,0.3-1,0.2-1.9,0.4c-0.9,0.2-1.8,1-1.1,2c0,0,3.6-0.3,5.1-0.1c1.5,0.2,4.8-0.3,5.8,0.1s0.9,0.6,1.2,0.8
				C93.7,54.1,94.2,53.1,93.6,52.2z M59.2,49.5c-4.1-0.5-5,3-5,3c-2,3.2,0.8,1.8,2.7,0.5c1.9-1.2,5-0.6,7.1,0
				c2.1,0.6,3.8,1.3,4.5,1.3c0.7,0,1-0.6-0.1-2.2C67.3,50.6,63.4,50,59.2,49.5z"/>
		</g>
	</g>
	<g id="Shape_869_7_" class="st0">
		<g>
			<path class="st39" d="M72,46.5c0,0-0.8,4.8-1.1,6.4S69,55.3,69,55.3c0.4,0.6,0.3,1.8,1,1.3s1.7-1.8,1.5-2.9S72,46.5,72,46.5z"/>
		</g>
	</g>
	<g id="Shape_872_7_" class="st0">
		<g>
			<path class="st11" d="M63.7,53.2c-1.6-0.6-2.5-1.2-5.5-0.6c0,0-2.2,1.7-0.4,2.1c1.8,0.4,0.8-0.1,2.6-0.5
				C62.2,53.8,65.2,53.8,63.7,53.2z M64.2,55.1c-0.5-0.2-1.5,0-2.5,0.1S59.8,56,59.8,56c-0.4,0.4,3.6-0.5,4.3-0.6
				C64.9,55.3,64.8,55.3,64.2,55.1z"/>
		</g>
	</g>
	<g id="Shape_873_7_" class="st0">
		<g>
			<path class="st17" d="M63.8,60c-0.6,0-3.9,0.1-4.2,0.3c0,0-1.7,0.6-0.5,0.8c1.2,0.2,3.2-0.2,3.8-0.5S64.5,60,63.8,60z"/>
		</g>
	</g>
	<g id="Shape_875_7_" class="st0">
		<g>
			<path class="st11" d="M63.5,66.2c-3,1.7-5.3,1.8-5.3,1.8c-1.7,1.5-1.3,2.7-1.3,6.3c0,3.7,1.8,6.7,3.5,5.2c1.7-1.5,3-1.8,3.2-4.5
				c0.2-2.7-0.5-3.2,0.2-6C64.3,66.2,66.5,64.5,63.5,66.2z"/>
		</g>
	</g>
</g>
</svg>
