<?xml version="1.0" encoding="utf-8"?>
<!-- Generator: Adobe Illustrator 19.1.0, SVG Export Plug-In . SVG Version: 6.00 Build 0)  -->
<svg version="1.1" id="Layer_1" xmlns="http://www.w3.org/2000/svg" xmlns:xlink="http://www.w3.org/1999/xlink" x="0px" y="0px"
	 viewBox="0 0 150 150" style="enable-background:new 0 0 150 150;" xml:space="preserve">
<style type="text/css">
	.st0{clip-path:url(#SVGID_3_);}
	.st1{fill-rule:evenodd;clip-rule:evenodd;fill:#333B4B;}
	.st2{fill-rule:evenodd;clip-rule:evenodd;fill:#B98776;}
	.st3{fill-rule:evenodd;clip-rule:evenodd;fill:#865F4D;}
	.st4{fill-rule:evenodd;clip-rule:evenodd;fill:#8C6552;}
	.st5{fill-rule:evenodd;clip-rule:evenodd;fill:#7F5C46;}
	.st6{fill-rule:evenodd;clip-rule:evenodd;fill:#DBA492;}
	.st7{fill-rule:evenodd;clip-rule:evenodd;fill:#E3B39D;}
	.st8{fill-rule:evenodd;clip-rule:evenodd;fill:#AB8069;}
	.st9{fill-rule:evenodd;clip-rule:evenodd;fill:#EFD0C3;}
	.st10{fill-rule:evenodd;clip-rule:evenodd;fill:#E8BEAA;}
	.st11{fill-rule:evenodd;clip-rule:evenodd;fill:#B18770;}
	.st12{fill-rule:evenodd;clip-rule:evenodd;fill:#B4846F;}
	.st13{fill-rule:evenodd;clip-rule:evenodd;fill:#DECCC7;}
	.st14{fill-rule:evenodd;clip-rule:evenodd;fill:#6F472D;}
	.st15{fill-rule:evenodd;clip-rule:evenodd;fill:#7A5646;}
	.st16{fill-rule:evenodd;clip-rule:evenodd;fill:#C59381;}
	.st17{fill-rule:evenodd;clip-rule:evenodd;fill:#987663;}
	.st18{fill-rule:evenodd;clip-rule:evenodd;fill:#E1BAAC;}
	.st19{fill-rule:evenodd;clip-rule:evenodd;fill:#50301D;}
	.st20{fill-rule:evenodd;clip-rule:evenodd;fill:#6C3E2E;}
	.st21{fill-rule:evenodd;clip-rule:evenodd;fill:#88634E;}
	.st22{fill-rule:evenodd;clip-rule:evenodd;fill:#735040;}
	.st23{fill-rule:evenodd;clip-rule:evenodd;fill:#543A2C;}
	.st24{fill-rule:evenodd;clip-rule:evenodd;fill:#8F7B74;}
	.st25{fill-rule:evenodd;clip-rule:evenodd;fill:#B2A099;}
	.st26{fill-rule:evenodd;clip-rule:evenodd;fill:#AF9A93;}
	.st27{fill-rule:evenodd;clip-rule:evenodd;fill:#BBA6A1;}
	.st28{fill-rule:evenodd;clip-rule:evenodd;fill:#30272E;}
	.st29{fill-rule:evenodd;clip-rule:evenodd;fill:#655F75;}
	.st30{fill-rule:evenodd;clip-rule:evenodd;fill:#160E11;}
	.st31{fill-rule:evenodd;clip-rule:evenodd;fill:#FFFFFF;}
	.st32{fill-rule:evenodd;clip-rule:evenodd;fill:#5A403B;}
	.st33{fill-rule:evenodd;clip-rule:evenodd;fill:#86543B;}
	.st34{fill-rule:evenodd;clip-rule:evenodd;fill:#7B5847;}
	.st35{fill-rule:evenodd;clip-rule:evenodd;fill:#AB846F;}
	.st36{fill-rule:evenodd;clip-rule:evenodd;fill:#C39C84;}
	.st37{fill-rule:evenodd;clip-rule:evenodd;fill:#6B574F;}
	.st38{fill-rule:evenodd;clip-rule:evenodd;fill:#ADB8C0;}
	.st39{fill-rule:evenodd;clip-rule:evenodd;fill:#992929;}
	.st40{fill-rule:evenodd;clip-rule:evenodd;fill:#DCE4EB;}
</style>
<g>
	<defs>
		<circle id="SVGID_1_" cx="75" cy="75" r="75"/>
	</defs>
	<linearGradient id="SVGID_2_" gradientUnits="userSpaceOnUse" x1="75" y1="150" x2="75" y2="-9.094947e-13">
		<stop  offset="0" style="stop-color:#212121"/>
		<stop  offset="1" style="stop-color:#EF4438"/>
	</linearGradient>
	<use xlink:href="#SVGID_1_"  style="overflow:visible;fill:url(#SVGID_2_);"/>
	<clipPath id="SVGID_3_">
		<use xlink:href="#SVGID_1_"  style="overflow:visible;"/>
	</clipPath>
	<g id="Shape_835" class="st0">
		<g>
			<path class="st1" d="M152.6,112.6c0,0-28.9-15.7-36.1-18.5c-7.3-2.8-9.2-9.8-13.7-12.3c-4.5-2.5-35,17.4-35,17.4s-5.6,2-11.2,4.2
				c-5.6,2.2-28.6,15.7-33.3,18.5c-4.8,2.8-11.5,29.4-11.5,29.4s150.7,4.5,150.4-2.2C161.8,142.3,152.6,112.6,152.6,112.6z"/>
		</g>
	</g>
	<g id="Shape_811" class="st0">
		<g>
			<path class="st2" d="M47.3,59.2c-0.1-0.4-0.7-1.7-0.7-1.9c-0.1,0-0.2,0.1-0.2,0.1c0,0.1,0.1,0.1,0.1,0.2c0-0.1-0.1-0.1-0.1-0.2
				c0,0,0,0,0.1,0c-0.8-1.7-4.1-7-6-6.4c-3.8,1.2,3.2,13.9,3.8,17c0.2,1,1.3,4.1,2.8,3.6C49,70.3,47.7,61.4,47.3,59.2z"/>
		</g>
	</g>
	<g id="Shape_812" class="st0">
		<g>
			<path class="st3" d="M42.8,56.3c0.2,0.2-0.1-1.1-0.1-1.3c0,0-0.3-0.4-0.3-0.4c-0.4-0.2-0.5,0-0.9-0.2c-2.8-0.9,0.7,8,1.5,7.7
				C43,62.1,42.7,57.1,42.8,56.3z"/>
		</g>
	</g>
	<g id="Shape_790" class="st0">
		<g>
			<path class="st4" d="M112.6,53c-2.1-9.4-8.2,2.3-11.8-4.3c-0.2-2-0.4-4-0.7-6c-0.5-2.1-0.9-4.1-1.4-6.2
				c-0.5-3.8-0.7-7.8-2.4-11.4c-4.2-9-23-11.8-31.7-8.5l-0.4,0.5c-3.3,1.1-5.5,3.2-8.1,5.4c-2,1.9-4.1,3.9-6.1,5.8
				c-3.5,5-6.8,13.7-5.7,20.1c0.7,4.5,1.4,9,1.4,13.6c0,12.9,0.8,28.2,13.9,34.8c0.9,1.8,8.5,12.4,9.5,12.8
				c3.6,1.4,7.1-1.4,10.1-2.9c6.2-3.1,12.4-6.2,16.9-11.7c1.3-1.6,3.2-2.8,4.1-4.7c1.4-2.8,2.3-7.3,1.8-10.4c0.1-1,0.2-2,0.4-3
				c0.2-0.1,0.5-0.2,0.7-0.3c0.9-0.6,1.7-0.7,2.6-1.7c0.6-0.9,1.3-1.8,1.9-2.7c0.5-1.9,1.7-3.7,2.8-5.3
				C112.6,63.7,113.5,56.8,112.6,53z"/>
		</g>
	</g>
	<g id="Shape_833" class="st0">
		<g>
			<path class="st5" d="M102.1,80.5c0.1-2.6-2.1,3.3-6.5,5.2c-4.5,1.9-4.3,2.5-4.2-0.8s-2.4,6.4-4.9,8.3c-2.5,1.8-8.6,3.4-10.1,3.8
				c-1.5,0.4-13.9,2.7-15.5,1.4c0,0,1.6,2.7,4.1,5.7c2.5,3.1,3.1,7,6.9,6.7s14.2-9.7,17.9-12c3.7-2.3,8.5-6.4,11.2-9.4
				C103.6,86.3,102,83.1,102.1,80.5z"/>
		</g>
	</g>
	<g id="Shape_792" class="st0">
		<g>
			<path class="st6" d="M73.7,25.1c-2.5-3.4-5.1-7.5-9.4-7.5c-0.6,0.6-5.2,0.8-6,0.8c0,0.1-2.3,2-2.4,2.1c-0.1-0.1-1.2,0.3-1.3,0.3
				c-1.9,2.1-2.4,4.2-4.3,6.2c-0.6,1.1-0.8,3-1.3,4.1c-1.3,3.3-2.7,6.5-3.1,10.1c-0.5,4.4-0.8,9.1-0.4,13.6c0.2,4,0.1,7.9,0.3,11.9
				c-0.6,5.4,0.9,10.8,2.3,15.9c0.4,1.4,1.9,6,3.2,6.5c0.3,0,0.6,0,0.8,0c-0.1,0-0.1,0.1-0.2,0.1c0.1,0,0.1,0,0.2,0c0,0,0,0,0-0.1
				c1.7,0,1.9-3.1,2.8-4c1.3,0,4.4,9.6,7.9,10.3c1.6,0.3,2.6-1.1,3.9-1.7c1.3-0.5,2.7-1,4-1.5c6.4-1.8-2.1-8.5-1.9-11.5
				c0.1-1.8,3.6-0.2,3.6-2c-0.7-1.4-12.3,0.4-13.3,0.4c-0.6,0.6-2.4,3.3-3.3,2.7c-0.4-0.5-0.7-1.1-1.1-1.6c-2.8-1.9-0.8-4.6,0.1-7.1
				c0.6-1.7,0.8-3.4,1.9-4.9c0.7-1,2.1-3.8,3.6-3.8c0.7,0.7-0.9,2.7-1.1,3.4c-0.7,2.4-5.4,8.4-3,10.8c0.1,0,0.1,0,0.2,0
				c1.7-3.5,3-0.8,5.6-1.1c1.1-0.4,2.1-0.7,3.2-1.1c2.6-0.3,5,0.3,7.1-1.1c0.9-3.8-2.4-3.2-4.4-1.3c-0.4-0.1-0.7-0.2-1.1-0.3
				c-1.2-0.9-0.2-2.6-0.2-3.7c-1.5-0.4-3-0.9-4.6-1.3c0-0.1,0-0.2,0-0.3c0.2-0.5,2.4-0.1,3-0.1c1.2-1.2,2.9-1.5,3.9-3
				c1-1.5-0.3-4.3-0.3-6c0-2.8,1.9-5.7,1.4-8.5c-0.1-1-1.2-1.9-1.3-2.9c0-0.1,0.1-0.2,0.1-0.2c0.8-1.6,3-2,4.4-2.8
				c1.1-0.6,2.2-1.2,3.4-1.8c0,0,0,0,0,0.1c0.1-1.4,0.2-2.7,0.2-4.1c0-0.1,0-0.2,0.1-0.3C78.2,32.9,77,29.8,73.7,25.1z"/>
		</g>
	</g>
	<g id="Shape_797" class="st0">
		<g>
			<path class="st7" d="M75.3,31.7c-0.7-1.9-1.3-3.8-2-5.8c-1-1.6-2.6-2.8-4.2-3.8c-3.9-2.6-5.7-3.2-10.1-0.8
				c-1.4,0.8-2.7,1.6-4.1,2.4l0.1,0c-0.6,1.1-1.1,2.1-1.7,3.2c-1.9,2.6-3.1,5.1-4.3,7.9c-2.1,4.7-4.1,23.6-2.4,29
				c0.4,1.2,1.2,2.1,2.1,2.9c5.2,4.7,7,0.9,10.8-2.2c0.5-0.4,0.9-0.7,1.4-1.1c0.9,0.9-1.5,3.8-0.1,4.9c0.7,0.1,1.4,0.1,2.1,0.2
				c2.5,0.5,5.6-1.3,5.2-4.5c-0.2-1.5-0.3-3-0.5-4.5c0.4-1.9,0.8-3.7,1.2-5.6c0-1.4-1.2-3.7-0.9-4.8c0.6-2.2,4.4-3.8,6.1-5
				C76,42.8,75.9,33.9,75.3,31.7z"/>
		</g>
	</g>
	<g id="Shape_791" class="st0">
		<g>
			<path class="st8" d="M92.4,56.4c-2.1-0.2-4.1-0.3-6.2-0.5c-1.5-0.2-2.4-1.7-3.7-2.6c-0.2-0.1-0.3-0.1-0.5-0.2
				c-1.8-0.1-3.6-0.2-5.4-0.3c-0.4,0.4-0.8,0.8-1.2,1.1c0,0,0,0,0.1,0c0,0,0,0.1,0,0.1c-0.1,0.1-0.2,0.2-0.3,0.3
				c2.2,3.3,1.1,6.6,2.7,9.5c2,3.7,6.9,6.3,7.9,10.3c0.8,3.1-4.5,7.2-0.5,9.5c2.4,0.5,2.4-2.8,2.5-4.4c0-1.5,0-3,0.1-4.5
				c-0.4-0.9-0.9-1.8-1.3-2.6c-0.7-2.6,1.7-6.6,2.9-8.7C89.9,62.6,93.4,57.3,92.4,56.4z"/>
		</g>
	</g>
	<g id="Shape_787" class="st0">
		<g>
			<path class="st9" d="M58.4,62.5c-1.5,0.6-9.6,5.7-6.4,8.2c0.1,0,0.2,0,0.3,0.1c0.5-0.1,1.1-0.5,2.7-3c1.7-2.5,4-3.8,4.8-4.4
				c0.4-0.3,0.5-0.5,0.5-0.6C60.4,62.2,59.2,62.4,58.4,62.5z"/>
		</g>
	</g>
	<g id="Shape_788" class="st0">
		<g>
			<path class="st9" d="M65.5,64.1c0,0.1,0,0.1,0,0.2l-0.2-0.1c-0.6,0.4-1.2,0.9-1,1.7c0.7,0.7,2.1,1,2.6,0
				C67.5,64.6,66.4,64.1,65.5,64.1z"/>
		</g>
	</g>
	<g id="Shape_789" class="st0">
		<g>
			<path class="st10" d="M64.7,32.5c-0.6-2.9-6.2-4.7-8.8-4.4C52.4,28.5,46.5,39,48.2,42c0.1,0.1,0.3,0.3,0.4,0.4c0,0,0.1,0,0.1,0
				c0,0,0.1,0,0.1,0c0.9,0.1,1.8,0.3,2.6,0.4c1.1,0.3,1.2,1.5,2.6,1.7c1.3-0.1,2.6-0.3,3.9-0.4c0,0,0,0.1,0,0.1
				c0.1,0.1,0.2,0.1,0.3,0.2c2.9,0.2,4.1-4.2,4.8-6.3C63.6,36.5,65.1,34.3,64.7,32.5z"/>
		</g>
	</g>
	<g id="Shape_793" class="st0">
		<g>
			<path class="st3" d="M73.5,48c-0.1,0-0.3,0.1-0.4,0.1c-2.3,1.4-3.3,9,0.4,9.7c2.1,0.4,1.4-6,1.4-7.7c0.7-0.3,1.3-0.6,2-0.9
				c3.4-1.4,5.9-2.2,9.6-1c0.2-0.2,0.4-0.3,0.6-0.5C87.1,42.1,75.1,45.4,73.5,48z"/>
		</g>
	</g>
	<g id="Shape_794" class="st0">
		<g>
			<path class="st11" d="M64.6,50.4c0-0.7,0.9-0.8,0.7-1.7c-1-4-10.1-4.9-12.8-3.4c-0.1,0.1-0.2,0.1-0.3,0.2
				C50,46.2,48.5,51,50.7,51c1-0.3,1.6-1.7,2.6-2.2c1.8-0.9,4.4,0.6,6.2,0.6c-0.1,0.2-0.1,0.4-0.2,0.6c-1.2,0-10.5,3.7-8.4,5.9
				c1.4,1.4,10.1-7.5,10.1-1.6c0,0.1,0,0.1-0.1,0.2c-0.2,0.7-3.8,3.6-4.8,3.9l-0.1,0.1c0,0.9,3-0.3,3.4-0.4c3.2-1,3.3-2.8,5.2-4.7
				C64.8,53,65.5,50.4,64.6,50.4z"/>
		</g>
	</g>
	<g id="Shape_810" class="st0">
		<g>
			<path class="st3" d="M58.7,50.8c0,0,0.3,0,0.5,0C59.2,50.7,59,50.7,58.7,50.8z M63,52.3c-0.9-2.5-0.9-0.7-2.5-1.6
				c0,0-0.7,0-1.1,0c0.2,0.1-0.1,0.4-0.1,0.4c-0.7,0.1-1.8,0.3-2.1,0.4c-1.2,0.5-3.9,2-3.9,3.5C55,55.2,64.2,55.5,63,52.3z"/>
		</g>
	</g>
	<g id="Shape_795" class="st0">
		<g>
			<path class="st3" d="M54.2,53c0-0.2-0.1-0.4-0.1-0.5c-1.1,1.1-2.1,2.2-3.2,3.4c-0.1,0.3,0.4,0.5,0.4,0.5c0,0,0-0.1,0-0.1
				c2.5-0.3,2.6-2.7,5.4-3.5c2.1-0.6,4.3,0.3,4.2-0.2C60.3,50,54.6,53,54.2,53z"/>
		</g>
	</g>
	<g id="Shape_798" class="st0">
		<g>
			<path class="st12" d="M86.9,30.9c-0.3-3.5-1.7-8.8-4.9-11.1c-7-5-22.2-6.5-31.4,5c0.1,0.1,3.6-1.9,4.5-1.7
				c0.4-0.5,0.7-0.9,1.1-1.4c2.3,0,5.4-2.3,7.7-1.3c9.1,3.9,10.8,4.5,11.8,14.8c0.2,2-0.3,5.1-1,7c-0.6,0.7-0.1,1.1-0.7,1.8
				c-1.7,1-5.5,2-5.9,4.2c-0.3,1.3,1.3,2,1.3,3c-0.5,2.4-0.5,4.8-1,7.2c0,2.1-0.3,3.8-0.3,5.9c0.6,3.4-4.8,4.2-4.8,4.2
				c0.1,0.2,0.8,0.4,0.8,0.6c2.5,2.5,6.9-2.7,8.3-4.2c-0.3-2.1-0.7-4.3-1-6.4c-0.6-0.8-1.2-1.5-1.9-2.3c-0.3-1.1,0.8-7.1,1.3-8.1
				c1.9-0.6,3.2-2.3,5.1-3.1c2.3-1,4.9-0.4,7.3-1c0.6-0.2,1.3-0.4,1.9-0.6c0-2.3,0.1-4.5,0.8-6.9C86.6,34.6,87,32.9,86.9,30.9z"/>
		</g>
	</g>
	<g id="Shape_796" class="st0">
		<g>
			<path class="st13" d="M55.3,55.8c0,0-0.1,0-0.1,0.1c-0.6,0.1-1.3,0.3-1.9,0.4c0,1.3,4.2,1.6,4.8,0.6C59.3,55,56,55.6,55.3,55.8z"
				/>
		</g>
	</g>
	<g id="Shape_799" class="st0">
		<g>
			<path class="st14" d="M83.6,44.6c-2.3,0-5.5,0.4-7.5,1.4c-1.2,0.6-2.6,2.6-3.8,2.6c0,0,0.1,0.1,0.1,0.1c-0.1,0.1-0.1,0.2-0.2,0.3
				c0,3.1-2.6,4.1-0.6,7.3c0.4,0.6,1.6,2.2,2.4,1.5c1.3-0.3-0.4-5.3,1.5-6c0.1-0.2,0.3-0.4,0.4-0.5c-0.4-0.3-0.7-0.6-1.1-0.9
				c0-2.1,8.5-3.5,10.2-3.1c0.6,0.1,3,1.1,3-0.1C88,45.4,85,44.6,83.6,44.6z"/>
		</g>
	</g>
	<g id="Shape_834" class="st0">
		<g>
			<path class="st15" d="M95.7,52.9c-0.7,0-2.1,0.1-3.4-1.3c-1.3-1.4-4.2-4.6-4.2-4.6c-1.3-0.6-1.5,2.1,0.4,3.5s1.3,2.7-0.6,1.8
				c-1.8-0.8-2.9-0.8-2.9-0.8s4.2,3.9,6.7,3.6S96.4,52.9,95.7,52.9z"/>
		</g>
	</g>
	<g id="Shape_800" class="st0">
		<g>
			<path class="st14" d="M92.1,53.8c-1.6-0.3-3.1-0.2-4.7-0.6c-2-0.6-3-2.8-4.2-3.2c-3.6-1.2-6.7,1.2-8.2,3.4
				c-0.1,0.1-0.1,0.1-0.2,0.2c3.3-0.3,2.5-3.5,6.9-3c1.6,0.2,2,2,3.2,2.6c2.8,1.4,4.9,0.8,7.6,0.8C92.4,54,92.2,53.9,92.1,53.8z"/>
		</g>
	</g>
	<g id="Shape_801" class="st0">
		<g>
			<path class="st14" d="M80.9,69.3c-0.4-1.4-3.2-4.6-3.8-5.7c-0.6-1.1-0.7-2.7-2.9-2.4s-1,3.4-1,3.4c3.5,2.5-0.1,1.3-4.6,4.9
				c-2.2,1.7-1.1,1.5,2,1.8c3.1,0.3,5.6,1.3,8.3,1.1C81.4,72.2,81.3,70.7,80.9,69.3z"/>
		</g>
	</g>
	<g id="Shape_802" class="st0">
		<g>
			<path class="st16" d="M83.6,57.5c-0.4,0-1,0.1-1.3,0.1c0,0,0,0,0.1,0c0,0,0,0-0.1,0c-0.1,0-0.1,0.1-0.2,0.1
				c-1.6,3.2-3.6,5.7-0.4,8.8c0.7,0.6,1.4,1.2,2.1,1.7c0.1,0,0.2-0.1,0.3-0.1C85.5,66.7,83.6,59.9,83.6,57.5z"/>
		</g>
	</g>
	<g id="Shape_803" class="st0">
		<g>
			<path class="st17" d="M109.6,51c0.9,0.3,1.9,0.6,2.8,0.9c0,0,0.1-0.1,0.1-0.1c0-2.6-3.5-2.1-4.7-0.6c-0.6,1.1-1.2,2.2-1.8,3.3
				c-0.2,0.2-0.3,0.4-0.5,0.6c-0.3,0.1-0.6,0.3-0.8,0.4c-0.9,0-1.4-0.1-1.9-0.9c0,0.1,0,0.1,0,0.2c0.6-0.1,0.6,3.7,0.7,4.1
				c0.5,1.1,1,2.1,1.4,3.2c0.4,2.5-1.6,4.5-2,6.9c-0.1,0.7-1,3.4-0.2,3.9c1.7,0,1,1.1,1.7,2.4c1.9,0,2.6-3.2,3.3-4.7
				c0,0,0,0.1,0.1,0.1c0-2.1,4.2-6,3.5-8.9c-0.4,0.7-0.9,1.4-1.3,2.1c-0.1,0-0.2,0-0.3,0c0-2,1.5-6.1-0.2-7.7
				c-0.9-0.2-1.7,0.7-2.8,0.4c-0.2-0.2-0.3-0.4-0.5-0.6C106.1,54.8,108.1,51.3,109.6,51z"/>
		</g>
	</g>
	<g id="Shape_804" class="st0">
		<g>
			<path class="st14" d="M108.7,60.4c-1.6-3.3-3.8-2.9-5.1,0.4l0.3,0c0,0,0-0.1,0-0.1c4.5,0-0.6,7.9,0.9,7.9c0.3,0.1,1.6-1.6,3.1-3
				C108.8,63.7,109.4,61.8,108.7,60.4z"/>
		</g>
	</g>
	<g id="Shape_806" class="st0">
		<g>
			<path class="st18" d="M66.7,80c0.2-1.2-2.9-0.2-2.9-0.2c0,0,0,0,0,0c0,0-0.1,0-0.1,0C64.1,80.2,66.6,80.9,66.7,80z M65.8,86.7
				c-0.1,0.1-0.2,0.1-0.4,0.2c0,0,0,0,0,0c0,0,0,0,0,0c-1.9,1.6-1.2,4.9,1.7,3.8C68.9,90,67.8,86.3,65.8,86.7z"/>
		</g>
	</g>
	<g id="Shape_807" class="st0">
		<g>
			<path class="st18" d="M80.2,53.3c-0.7-0.1-1.4-0.3-2.1-0.4c0,0,0,0,0,0.1c0,0,0,0,0,0c-0.5,0.6-1.1,1.1-1.6,1.7
				c0.3,1,4.9,1.6,5.4,0.6C82.2,54.7,80.2,54.2,80.2,53.3z"/>
		</g>
	</g>
	<g id="Shape_814" class="st0">
		<g>
			<path class="st19" d="M68,69.8c-1.2,0.3-2.7,0.4-3.6-0.3c-1.2-0.9-2.5-1.1-2.7-0.6c0,0,0.3,0.4,0.3,0.4c0,0,0.4,0.3,0.4,0.3
				c1,0.4,1.7,0.3,2.7,0.7c2.7,0.7,4.7,0,7-1c0.6-0.3,2.4-0.3,2.4-1C71.8,67.2,71.1,69.2,68,69.8z M76.8,63.5
				C76.9,63.4,76.9,63.4,76.8,63.5c-0.1-0.1-0.3-0.2-0.5-0.2c0.6,1,0.7,1.8,0.7,3c1.2,0,2.4,2.3,3.2,2.3c0,0,0,0,0-0.1
				C80.3,66.9,78.1,64.4,76.8,63.5z"/>
		</g>
	</g>
	<g id="Shape_817" class="st0">
		<g>
			<path class="st20" d="M77.1,76.4c-3-0.5-5.8,0.4-8.7,0.8c-1.2,0-2.3,0-3.5,0c-1,0.4-2,0.8-3,1.2c-3.2,0.4-2-2.6-5.8,0.9
				c0,0.1-0.1,0.1-0.1,0.2c0,0-0.5,2.2,0.6,2c0.6-0.1,1.1-1.9,1.6-2.4c2.2,0,4.4-0.1,6.6-0.1c2.6-0.2,5.5-1.1,8.1-0.5
				c2.1,0.2,4.2,0.3,6.2,0.5c0,1.2-4.4,0.9-4.8,2c-0.7,1.5,2.4,1.5,3,1.5c0.7-0.1,6.3-4.3,6.1-5.1C82.6,74.4,78.7,76.8,77.1,76.4z"
				/>
		</g>
	</g>
	<g id="Shape_815" class="st0">
		<g>
			<path class="st21" d="M72.7,62.9C72.7,62.9,72.7,62.9,72.7,62.9C72.7,62.9,72.7,62.9,72.7,62.9c-0.3,0.1-0.4-0.2-0.5,0.1
				c-0.1,2.9,2.1,4.8,3.5,3.4c0.1-0.4,0.3-0.9,0.4-1.3C76.1,61.4,72.9,65.6,72.7,62.9z"/>
		</g>
	</g>
	<g id="Shape_816" class="st0">
		<g>
			<path class="st19" d="M78.4,77.8c-5.1-0.4-10,0.4-15.1,0.4c-0.1,0.1-0.3,0.1-0.4,0.2c-1.8,0.3-6.3-1.1-6.3,1.9
				c0-0.1-0.1-0.2-0.1-0.3c0,0,0,0,0,0c0.1,0.2,0.2,0.3,0.2,0.5c0.7-0.5,1.5-1,2.2-1.5c5.6,0.9,12.1-1.4,18.1-0.7
				c1.3,0.1,5.1,0.6,5.9-0.7C82.9,76.5,79,77.9,78.4,77.8z"/>
		</g>
	</g>
	<g id="Shape_818" class="st0">
		<g>
			<path class="st22" d="M50.7,47.8C50.7,47.8,50.7,47.8,50.7,47.8C50.8,47.8,50.8,47.8,50.7,47.8c0.7-0.9,1.5-1.4,2.8-1.3
				c0.6,0.4,1.2,0.6,1.8,0.9c2,0.5,4.1,1,6.1,1.4c0.1-0.1,0.3-0.2,0.4-0.3C61.9,45.4,50.4,43.5,50.7,47.8z"/>
		</g>
	</g>
	<g id="Shape_819" class="st0">
		<g>
			<path class="st23" d="M83.9,46.1c-2.3-0.9-6.5-1.7-8,0.8c-0.1,0.2-0.2,0.3-0.2,0.5c0,0,0,0.1,0,0.1c3.1,0.1,5.6-0.6,8.4-1.2
				c0,0,0.1,0,0.1,0C84.1,46.2,84,46.1,83.9,46.1z"/>
		</g>
	</g>
	<g id="Shape_820" class="st0">
		<g>
			<path class="st23" d="M83.3,71.6C83.3,71.6,83.4,71.6,83.3,71.6C83.4,71.6,83.4,71.6,83.3,71.6C83.3,71.5,83.3,71.6,83.3,71.6z
				 M83.4,71.6c0,0.1,0,0.2,0,0.3c0.6,1.3,1.2,2.6,1.8,3.9c0,0.8-0.1,1.6-0.1,2.4c0,0,0.1,0,0.1,0.1C88.3,78.3,84.1,72.4,83.4,71.6z
				"/>
		</g>
	</g>
	<g id="Shape_821" class="st0">
		<g>
			<path class="st14" d="M92,83.8c0.1-1.3,1-8.5-0.1-8.5c-0.1,0-0.3,0-0.4-0.1c-0.2,1-0.4,1.9-0.7,2.9c-0.9,3.5-0.8,9.6-3.8,12.2
				c-2.2,1.9-5,3.8-7.8,4.5c-0.9,0.2-2.3-0.6-3.4-0.5c-1,0.6-2.1,1.2-3.1,1.8c-1.2,0.4-8.5,1.2-9.6,0.8c-1.9-0.7-2.5-2.5-4.2-3.3
				c-1.6-0.7-4.1-0.5-5.4-1.8c0,1.1,4.8,5.2,5.9,5.2c1.1,1.1,3.1,2.3,4.7,2.5c5.6,0.6,18.4-2.4,22.6-6.1c2.1-1.9,2.6-4.8,4.2-6.8
				c0.5-0.6,1.3-3.7,1.2-3.6C92,83.5,92,83.6,92,83.8z"/>
		</g>
	</g>
	<g id="Shape_822" class="st0">
		<g>
			<path class="st24" d="M110.4,41.5c-0.4-5.5-1.1-12.1-4.5-15c-3.4-2.9-5.8-5-9.9-7.4c-4.1-2.5-8.5-5.3-14.3-7.1
				c-5.8-1.8-15.1-2.5-23.4-1.3c-8.3,1.3-8,5.2-10.5,8.8s-5,7.9-6,11.9c-1,4-2.6,12.6-2.5,16.4c0.1,3.8,0.6,3.6,3.1,4.9
				s3.2,2.7,3.2,2.7s-0.3-8.4,0.8-11.5c1.1-3.1,1.3-4.1,1.4-7.7c0.1-3.6,1.1-6.2,4.9-11.9c3.9-5.7,9-6,9-6c6.9,4.4,14.9,1.4,18.4,1
				c3.4-0.4,6.9-1.9,10.5,0.4c3.6,2.3,2.7,3.4,3.9,6.6c1.3,3.2,1.3,7.7,2.1,12.7c0.8,5,0.8,7.6,3.6,10.9c2.8,3.4,3.7,3.8,4.8,1.5
				c1.1-2.2,5.5-1.8,6.6-2.5C112.7,48.2,110.9,47,110.4,41.5z"/>
		</g>
	</g>
	<g id="Shape_823" class="st0">
		<g>
			<path class="st25" d="M49.8,20C48,22.5,47,22.8,44,27.4c-2.9,4.6-2.1,9.9-3.2,14.7c-1.1,4.8,2.4,11.8,2.2,9.9
				c-0.1-1.8,2.2-2.7,2.4-3.9c0.1-1.3,1.4-3.4,2.2-6c0.8-2.7-0.6-5.3-0.1-8.1c0.4-2.8,2.5-5.7,2.5-5.7s0-0.8-3.4,0.4
				c0.4-2.2,2.5-5.9,6.2-10.5c3.4-4.3,8.6-3,9.3-2.8C55.6,13.2,51.6,17.5,49.8,20z"/>
		</g>
	</g>
	<g id="Shape_824" class="st0">
		<g>
			<path class="st26" d="M108.3,40.1c-2.2-4.5-3.6-6.6-4.3-8.3c-0.7-1.7,2.1,6,1.5,5.3s-0.8,1.7-2-0.3s-2.1,0.3-2.1-2.4
				c0-2.7-0.4,2.2-0.7-1.3s-3.8-9-6.2-10.1c0,0,2.7,3.5,3.1,7.8s1.4,5.5,1.4,5.5l-1.8-1.1l0.7,3.8l-2.2-2c0,0,3.4,4.6,4.1,8
				c0.7,3.4,0.4,5.3,1.4,3.5c1-1.8,1.8,1.8,2.8-0.6c1-2.4,1.7,4.8,1.8,2.2c0.1-2.5,0.8,0.6,2.1-1c1.3-1.5,2.8,1.3,3.1-0.8
				S110.6,44.6,108.3,40.1z"/>
		</g>
	</g>
	<g id="Shape_826" class="st0">
		<g>
			<path class="st27" d="M61.7,53.6c-0.8-1.2-2.7-1.6-4.5-1.4S54.4,54,54.4,54c-2.4,2,4.9,1,6,0.6C61.6,54.2,62.5,54.8,61.7,53.6z"
				/>
		</g>
	</g>
	<g id="Ellipse_21_copy_3" class="st0">
		<g>
			<path class="st28" d="M58.5,51.8c-1.2,0-2.1,0.3-2.1,1.5c0,0.9,0.5,1.6,1.3,2c0.3,0.1,0.8,0.1,1.1,0.1c0.4,0,0.7,0,1.1-0.2
				c0.6-0.4,1-1.1,1-1.9C60.8,52.1,59.7,51.8,58.5,51.8z"/>
		</g>
	</g>
	<g id="Ellipse_21" class="st0">
		<g>
			<path class="st29" d="M58.7,54c-1.1,0-2.2-1.8-2.2-0.7c0,1.1,0.9,2,2,2c1.1,0,1.8-0.6,1.8-1.7C59.5,53.1,59.9,54,58.7,54z"/>
		</g>
	</g>
	<g id="Ellipse_21_copy" class="st0">
		<g>
			<circle class="st30" cx="58.6" cy="53.3" r="0.7"/>
		</g>
	</g>
	<g id="Shape_830" class="st0">
		<g>
			<path class="st27" d="M82.8,50.8c-0.9-0.3-2.4-0.3-2.4-0.3s-2.2,0.2-2.8,1.4c-0.6,1.2,0.4,0.9,2.2,1.4c1.9,0.5,4.3,0.6,4.6-0.6
				C84.9,51.6,83.7,51.1,82.8,50.8z"/>
		</g>
	</g>
	<g id="Ellipse_21_copy_7" class="st0">
		<g>
			<path class="st28" d="M81.4,50.1c-1.2,0-2.1,0.3-2.1,1.5c0,0.9,0.5,1.6,1.3,2c0.3,0.1,0.8,0.1,1.1,0.1c0.4,0,0.7,0,1.1-0.2
				c0.6-0.4,1-1.1,1-1.9C83.8,50.4,82.7,50.1,81.4,50.1z"/>
		</g>
	</g>
	<g id="Ellipse_21_copy_6" class="st0">
		<g>
			<path class="st29" d="M81.7,52.3c-1.1,0-2.2-1.8-2.2-0.7s0.9,2,2,2c1.1,0,1.8-0.6,1.8-1.7C82.5,51.4,82.8,52.3,81.7,52.3z"/>
		</g>
	</g>
	<g id="Ellipse_21_copy_5" class="st0">
		<g>
			<circle class="st30" cx="81.6" cy="51.6" r="0.7"/>
		</g>
	</g>
	<g id="Ellipse_21_copy_4" class="st0">
		<g>
			<circle class="st31" cx="80.3" cy="51.1" r="0.3"/>
		</g>
	</g>
	<g id="Ellipse_21_copy_2" class="st0">
		<g>
			<circle class="st31" cx="57.3" cy="52.8" r="0.3"/>
		</g>
	</g>
	<g id="Shape_825" class="st0">
		<g>
			<path class="st32" d="M61.3,52.3c-0.5-0.3-0.6-0.6-2.1-0.7c-1.5-0.1-2.1-0.4-3.4,0.4c-1.3,0.8-2.2,1.2-1.5,0.7s1.2-1.4,2.2-1.5
				c1-0.2,1.6-0.1,2.7-0.4c1-0.3,1.1-0.7,0-0.6c-1.1,0.2-2.8,0.5-3.6,0.8c-0.9,0.4-1.7,0.7-2.7,1.5c-0.9,0.9-1,1.6-1.4,1.8
				s-0.3,0.7,0.7-0.1c1-0.8,1.3-1.3,1.5-1.5s0,0.7-0.4,1.1c-0.4,0.4-0.9,1.3-1.5,1.5s-2.6,1.2-1.5,1.1c0,0,1.9-0.7,2.5-1.1
				c0.6-0.5,0.7-0.6,1.4-0.4s-0.2-0.4,0.4-1c0.7-0.6,0.8-1.3,1.8-1.4c1-0.1,2.1-0.8,3.5-0.3c1.4,0.5,0.7,0.9,2,1.3
				C63,54,61.7,52.6,61.3,52.3z"/>
		</g>
	</g>
	<g id="Shape_827" class="st0">
		<g>
			<path class="st33" d="M61.5,56.3c0,0-1.4,0.9-2.8,1.1c-1.4,0.2-3.4,0.9-4.8,1.8c-1.4,0.9,0.5,0,1.5-0.3s2.8-1.2,3.9-1.3
				C60.5,57.6,62.5,55.9,61.5,56.3z"/>
		</g>
	</g>
	<g id="Shape_828" class="st0">
		<g>
			<path class="st34" d="M61.5,69c0,0,0,0-0.1-0.1C61.5,69,61.5,69,61.5,69z M62.1,62.8c-1.5,0.7-1.3,1.5-2.8,3.2
				c-1.5,1.7-1.5,4.6-1.5,4.6s1.6-3.2,2.1-2.9c0.6,0.3,1.3,0.9,1.6,1.2c-0.2-0.2-0.7-0.8-1-2C60,65.4,62.1,62.8,62.1,62.8z"/>
		</g>
	</g>
	<g id="Shape_808" class="st0">
		<g>
			<path class="st35" d="M75.2,50.2l-0.1,0.2c1.2-1.4,10.3,1.9,10.1-1.1C84.9,45.9,76.5,49.5,75.2,50.2z"/>
		</g>
	</g>
	<g id="Shape_809" class="st0">
		<g>
			<path class="st36" d="M78.7,48.8C78.7,48.8,78.7,48.9,78.7,48.8C78.7,48.9,78.7,48.9,78.7,48.8l-0.1,0c-0.2,0.9,3.3,1.5,3.9,0.5
				l0-0.2C82.5,47.6,79.5,48.8,78.7,48.8z"/>
		</g>
	</g>
	<g id="Shape_832" class="st0">
		<g>
			<path class="st37" d="M102.6,50.4c-0.8-1-2.5-3.5-2.5-3.5s-2.1-5.6-2.7-7.1c-0.6-1.5-1.4-5.7-1.4-7.6c-0.1-3.3-1.1-7.8-1.8-9.1
				c-2.3-4.2-4.6-5.2-8.3-5.3c-2-0.1-5-0.3-2.5,1.1s8.3,3.2,8.8,4.8c0,0,2.4,5.3,2.7,8.5c0.3,3.2-0.1,7.4,1.1,9.2
				c1.3,1.8,2.8,5.7,2.8,7.4s1.4,2.7,2.8,3.2c1.4,0.6,1.1,2.7,3.1,0.7s2.4-2.4,2.4-2.4S103.4,51.4,102.6,50.4z"/>
		</g>
	</g>
	<g id="Shape_838" class="st0">
		<g>
			<path class="st38" d="M72.2,110.3c-2.9-0.5-5.6-0.8-5.6-0.8l-9.1-1.5c0,0-7.6,24.2-3.5,45c4.1,20.8,29.1,0.7,29.1,0.7
				s8.3-35,17.1-51.3C109,86.1,75.1,110.8,72.2,110.3z"/>
		</g>
	</g>
	<g id="Shape_839" class="st0">
		<g>
			<path class="st39" d="M73.5,128.5c-0.6-4,3.9-5.5,6.2-7.6c2.2-2.1-6.2-9.8-6.2-9.8s-4.9,1.1-6.9,0.4c-2-0.6-4.9,5.9-4.9,5.9
				l4.1,8l-1.5,4.8c0,0-8.3,13.2-9.4,23.1c-1.1,9.9,25.2,0.4,25.2,0.4S74.1,132.5,73.5,128.5z"/>
		</g>
	</g>
	<g id="Shape_837" class="st0">
		<g>
			<path class="st40" d="M102.4,83.4c-1.7,2.5-5.6,8.2-9.2,11.5c-3.6,3.2-20.2,13.9-22.7,15l13.9,24.4c0,0,17-32.7,19.3-39.5
				C106,88,104.1,81,102.4,83.4z M55.7,128c3-4.6,13.9-17.7,13.9-17.7L62.1,100C55.8,102.7,52.7,132.5,55.7,128z"/>
		</g>
	</g>
</g>
</svg>
