<?xml version="1.0" encoding="utf-8"?>
<!-- Generator: Adobe Illustrator 19.1.0, SVG Export Plug-In . SVG Version: 6.00 Build 0)  -->
<svg version="1.1" id="Layer_1" xmlns="http://www.w3.org/2000/svg" xmlns:xlink="http://www.w3.org/1999/xlink" x="0px" y="0px"
	 viewBox="0 0 150 150" style="enable-background:new 0 0 150 150;" xml:space="preserve">
<style type="text/css">
	.st0{clip-path:url(#SVGID_3_);}
	.st1{fill-rule:evenodd;clip-rule:evenodd;fill:#463431;}
	.st2{fill-rule:evenodd;clip-rule:evenodd;fill:#EAEAED;}
	.st3{fill-rule:evenodd;clip-rule:evenodd;fill:#797075;}
	.st4{fill-rule:evenodd;clip-rule:evenodd;fill:#B3AAB3;}
	.st5{fill-rule:evenodd;clip-rule:evenodd;fill:#B92F37;}
	.st6{fill-rule:evenodd;clip-rule:evenodd;fill:#991B30;}
	.st7{fill-rule:evenodd;clip-rule:evenodd;fill:#272C35;}
	.st8{fill-rule:evenodd;clip-rule:evenodd;fill:#D3CFD6;}
	.st9{fill-rule:evenodd;clip-rule:evenodd;fill:#513C39;}
	.st10{fill-rule:evenodd;clip-rule:evenodd;fill:#8C6A5C;}
	.st11{fill-rule:evenodd;clip-rule:evenodd;fill:#613D3A;}
	.st12{fill-rule:evenodd;clip-rule:evenodd;fill:#B28774;}
	.st13{fill-rule:evenodd;clip-rule:evenodd;fill:#5E4643;}
	.st14{fill-rule:evenodd;clip-rule:evenodd;fill:#DDB7A0;}
	.st15{fill-rule:evenodd;clip-rule:evenodd;fill:#916C5C;}
	.st16{fill-rule:evenodd;clip-rule:evenodd;fill:#CDA698;}
	.st17{fill-rule:evenodd;clip-rule:evenodd;fill:#6B4D43;}
	.st18{fill-rule:evenodd;clip-rule:evenodd;fill:#6B4535;}
	.st19{fill-rule:evenodd;clip-rule:evenodd;fill:#432B26;}
	.st20{fill-rule:evenodd;clip-rule:evenodd;fill:#69594C;}
	.st21{fill-rule:evenodd;clip-rule:evenodd;fill:#30231F;}
	.st22{fill-rule:evenodd;clip-rule:evenodd;fill:#EFCFBE;}
	.st23{fill-rule:evenodd;clip-rule:evenodd;fill:#D4A793;}
	.st24{fill-rule:evenodd;clip-rule:evenodd;fill:#E4BCAA;}
	.st25{fill-rule:evenodd;clip-rule:evenodd;fill:#EDC6AF;}
	.st26{fill-rule:evenodd;clip-rule:evenodd;fill:#2E2526;}
	.st27{fill-rule:evenodd;clip-rule:evenodd;fill:#544A4A;}
	.st28{fill-rule:evenodd;clip-rule:evenodd;fill:#BF9795;}
	.st29{fill-rule:evenodd;clip-rule:evenodd;fill:#533F3C;}
	.st30{fill-rule:evenodd;clip-rule:evenodd;fill:#724540;}
	.st31{fill-rule:evenodd;clip-rule:evenodd;fill:#391B14;}
	.st32{fill-rule:evenodd;clip-rule:evenodd;fill:#AB8381;}
	.st33{fill-rule:evenodd;clip-rule:evenodd;fill:#E8BFBC;}
	.st34{fill-rule:evenodd;clip-rule:evenodd;fill:#A47D6B;}
	.st35{fill-rule:evenodd;clip-rule:evenodd;fill:#483733;}
	.st36{fill-rule:evenodd;clip-rule:evenodd;fill:#766360;}
	.st37{fill-rule:evenodd;clip-rule:evenodd;fill:#927F7A;}
	.st38{fill-rule:evenodd;clip-rule:evenodd;fill:#846254;}
	.st39{fill-rule:evenodd;clip-rule:evenodd;fill:#59545B;}
	.st40{fill-rule:evenodd;clip-rule:evenodd;fill:#7E7374;}
	.st41{fill-rule:evenodd;clip-rule:evenodd;fill:#A09FA1;}
	.st42{fill-rule:evenodd;clip-rule:evenodd;fill:#56403C;}
	.st43{fill-rule:evenodd;clip-rule:evenodd;fill:#342522;}
	.st44{fill-rule:evenodd;clip-rule:evenodd;fill:#322521;}
	.st45{fill-rule:evenodd;clip-rule:evenodd;fill:#8A685B;}
	.st46{fill-rule:evenodd;clip-rule:evenodd;fill:#3E2F2B;}
</style>
<g>
	<defs>
		<circle id="SVGID_1_" cx="75" cy="75" r="75"/>
	</defs>
	<linearGradient id="SVGID_2_" gradientUnits="userSpaceOnUse" x1="75" y1="150" x2="75" y2="0">
		<stop  offset="0" style="stop-color:#212121"/>
		<stop  offset="1" style="stop-color:#EF4438"/>
	</linearGradient>
	<use xlink:href="#SVGID_1_"  style="overflow:visible;fill:url(#SVGID_2_);"/>
	<clipPath id="SVGID_3_">
		<use xlink:href="#SVGID_1_"  style="overflow:visible;"/>
	</clipPath>
	<g id="Shape_372_19_" class="st0">
		<g>
			<path class="st1" d="M99.4,81.2c-0.7-3.6-45.6,5.5-43.5,9.7c0,0,1.3,5.5,1.7,9.8c0.4,4.3,1,7.4,10.1,10.3s12.5-1.2,17.5-6.3
				c5.1-5.2,13.8-10.1,14.3-13.9C100.1,86.9,100.1,84.8,99.4,81.2z"/>
		</g>
	</g>
	<g id="Shape_380_19_" class="st0">
		<g>
			<path class="st2" d="M82.1,120.4c-2.1-2.2-5,0-7.6,1.1c-2.6,1.1-4.9,5-4.9,5S63,152.3,63,153.1c0,0.8,13.2,0.3,13.2,0.3
				s8.3-24.9,8.5-25.5C84.9,127.4,84.2,122.6,82.1,120.4z"/>
		</g>
	</g>
	<g id="Shape_377_19_" class="st0">
		<g>
			<path class="st3" d="M87.6,116.3c-1.4-4-1.8-5-2.9-6.4c-1.2-1.5-10.3-0.1-11.4,0c-1.1,0.1-13.2-7-13.2-7s-2.7-2.7-2.8-4.9
				c-0.4-5.4-4.5,6.5-5.1,8.2c0,0-5.8,9.8-7.1,10.8c-1.4,1-8.6,12.3-9.1,13.6c-0.5,1.3-1.5,4.6-1.8,5.9s1.3,9.8,1.3,10.5
				c0,0.8,8.2,5.7,9,5.8c0.8,0.2,10.9,1.2,13,1.2s8.5-3.9,8.5-3.9s4.5-14.8,4.9-20.1s0.2-5.3,2.6-7.1s4.8-3.2,6.8-1.5
				c2,1.8,3.2,2.9,3.6,4.6C84.3,127.7,89,120.3,87.6,116.3z"/>
		</g>
	</g>
	<g id="Shape_379_19_" class="st0">
		<g>
			<path class="st4" d="M52.5,132.3c-0.6-1.2-0.4-10.6-2.9-8.2C47,126.7,37.7,144,37.7,144s10.3,5.2,11.3,0.9
				C50,140.6,53.6,134.4,52.5,132.3z"/>
		</g>
	</g>
	<g id="Shape_378_19_" class="st0">
		<g>
			<path class="st5" d="M75.3,110.3c-3.1-0.9-5.4-1.1-8.8-1.1c-3.2,0-6.3,3.7-6.1,5.3l2.4,6.8c0,0,0.2,1.9-1.9,4.3
				c-2,2.3-7.5,14.2-12.9,23.4c-5.4,9.2,17.6,5.1,17.6,5.1s4.5-21.3,4.6-24.9c0.1-3.6,0.1-3.8,1.6-6.4s3.6-4.2,6.1-5.6
				C80.6,115.8,78.4,111.1,75.3,110.3z"/>
		</g>
	</g>
	<g id="Shape_381_19_" class="st0">
		<g>
			<path class="st6" d="M70.4,122c-3.2,0.7-5-0.7-6.4-2.4c-1.4-1.8-1.4-3.4-1.4-5.8c0-2.4,3.2-3.6,3.2-3.6c-3-2.1-5.7,2.8-5.4,4.7
				c0.3,1.9,1.3,4.4,1.9,5.6c0.6,1.2,0.1,1.3-1.2,2.4c-1.3,1.1-3.9,7.2-4.9,8.4c-0.9,1.2-8.7,18.5-8.7,18.5s0.2,3.5,2.3-0.4
				c2.1-3.9,6.2-13.1,7.3-15.5c1.1-2.4,4.6-8.4,6.5-9.8c1.9-1.4,6.6-0.2,7.5-0.6S73.5,121.3,70.4,122z"/>
		</g>
	</g>
	<g id="Shape_374_19_" class="st0">
		<g>
			<path class="st7" d="M51.2,106.2c-2.6,2.6-14.1,10.8-19.4,12.9c-5.3,2-11.5,3.2-16.3,6c-4.8,2.8-11.5,27.7-11.5,27.7
				s25.5,6.1,29.4,2.1c-0.1-11.6,9.3-30.5,13.5-36.4C51.1,112.7,53.9,103.5,51.2,106.2z M140.3,109.2c-4.1-3.1-23.4-7.4-26.8-8.1
				c-3.4-0.7-5.6-4.2-9.3-7.7c-3.7-3.5-0.4-1.4-1.8,2s-6.6,9.4-12.6,18.6c-6.4,9.8-19.4,39.7-19.4,39.7l69.8,1.1
				C140.3,154.7,144.4,112.3,140.3,109.2z"/>
		</g>
	</g>
	<g id="Shape_375_19_" class="st0">
		<g>
			<path class="st8" d="M61.2,104.3c-1.3-1-7.3-3.9-5.2-6c2.1-2.1,0.4-2.2,0.4-2.2s-2.9,0.9-3.4,3.5c-0.5,2.6-0.7,9.5-1.4,13.3
				c-0.7,3.8,4.1,15.7,4.1,15.7s2.8-2.5,3.4-5.5c0.6-2.9,2.1-12.3,5.4-12.9c3.2-0.6,5.2-1,5.2-1S62.5,105.3,61.2,104.3z"/>
		</g>
	</g>
	<g id="Shape_376_19_" class="st0">
		<g>
			<path class="st2" d="M103.5,92.8c-0.3-0.8-1.5-7-3.8-5.1c-2.3,2-8.2,8-10.3,9.7c-2.1,1.7-18.6,9-19,12.3c0,0,2.2-0.7,4.2,1.7
				c2,2.3,9.8,13.4,9.8,13.4s5.8-12.2,8.4-15.2c2.5-3,6.4-7.9,8.4-10.4C103,96.5,103.8,93.6,103.5,92.8z"/>
		</g>
	</g>
	<g id="Shape_359_19_" class="st0">
		<g>
			<path class="st9" d="M47.3,58c0,0-4.9-6.4-5.1-0.6c-0.2,5.9,0.9,7.6,1.8,9.7s1.2,3.6,1.5,4.9c0.2,1.3-0.2,4,2.9,3.2
				C51.6,74.4,50.3,58.4,47.3,58z"/>
		</g>
	</g>
	<g id="Shape_312_19_" class="st0">
		<g>
			<path class="st9" d="M99.6,36.6c-1.6-4.9-3.3-17.9-12.5-18.9c-9.2-1-26-0.4-25.8,1.2c0,0-16.3,3.8-16.1,24.6
				c0.1,14.8,2,20.7,2.5,27.2c0.6,6.5,1.6,11.8,5.6,18.1c4,6.3,6.5,11.4,14.6,12.8c8.1,1.4,18.6-1.8,23.8-6.7
				c5.2-5,7.5-7.5,8.5-18.1c1-10.6,2-15.9,2.2-18.2C102.7,56.1,101.2,41.4,99.6,36.6z"/>
		</g>
	</g>
	<g id="Shape_322_19_" class="st0">
		<g>
			<path class="st10" d="M106.1,52.3c-1.9-1-3.8,2.7-3.8,2.7s-0.6,1.1-1.1,2.7c-0.4,1.7-2.3,8.2-0.7,13.4c1.7,5.2,4.2,0.5,4.2-0.1
				c0-0.6,1.2-1.8,1.4-2.3s0.1-1.4,0.3-2.4s0.1-1.6,0.7-2.8c0.5-1.3,0.6-2.5,0.6-4.6C107.7,56.7,108,53.3,106.1,52.3z"/>
		</g>
	</g>
	<g id="Shape_325_19_" class="st0">
		<g>
			<path class="st11" d="M103.5,63.8c1,0.4,0.8-0.7,0.6-1.4c-0.2-0.6,0-1.5,0.1-2.2c0.1-0.7-1.4-0.6-1.4-0.6
				C102.1,61.2,102.5,63.3,103.5,63.8z M106.6,55.4c0-0.9-0.7-2-1.1-1.6c-0.4,0.5-1.8,1.4-1.8,1.4c1.1-0.2,1.4,1,1.4,1.7
				c0,0.6-0.6,1.6-0.1,2.1c0.5,0.5,0.6,1.5,0.5,2.6c-0.1,1.2,0.4,0.7,0.8-0.4c0.3-1.1,0-2.5-0.2-3.2S106.7,56.3,106.6,55.4z
				 M104.4,67.7c-0.4,0.7-1.6,1.1-1.6,1.1c-0.9,0.7,1.5,0.6,2-0.2C105.2,67.7,104.8,66.9,104.4,67.7z"/>
		</g>
	</g>
	<g id="Shape_313_19_" class="st0">
		<g>
			<path class="st10" d="M101.8,48.9c0.1-1.5,0.6-2.8,0.4-4.3c-0.3-3.9-1.3-7.4-2.4-11.2c-1.1-3.8-2.2-7.4-4.8-10.5
				c-4.4-5.1-16.3-6-22.2-6.2c-1.3,0-8.4,0.5-8.4,1.4c-1.3,0.9-1.6,1.7-1.6,1.7c-3.3,1.3-8.6,3.7-6.2,9.2c0.8,0.9-0.8,2.8-0.2,3.8
				c0,2.8-2.3,9.2-0.8,11.3c2.1,2.8,4.1,1.3,6.7,1.5c2.1,0.2,3.1,0.3,4.7,1.7c0.6,0.5,3.4,2.6,2.7,3.7c-0.6,0.3-1.3,0.6-1.9,0.9
				c0,0.3,3,4.9,0.4,4.9l-0.4-0.4c0-0.2,0-0.4-0.1-0.6c0-1.8,0-2.5-1.9-3.3c-0.1,0-0.3,0.1-0.4,0.1c0.2,0.7,0.4,1.4,0.7,2.1
				c-2.3,0-4.6-0.1-6.7,1.4c-1.3,0-3.4-0.6-4.4-0.1c-0.2,0.4-0.9,1.3-0.9,1.8c-0.5,0,0.5,1.9,0.2,2.4c-0.6,0.9-0.6,1.6-1.1,2.3
				c0,1.9,0,4,0.5,5.8C54.7,72.1,56,73,56,77c0.7,1.4,2.5-1.5,3.2-2.2c0.4-0.4,3.1-0.3,3.1,1.8c0.6,0.1,1.3,0.3,1.9,0.4
				c0.4,0.4,1.1,0.2,1.7,0.2c1.2,1.2,3.5,2.3,5.2,2.3c0,0.2,0,0.3,0,0.5c-1.5,0.5-6.4,1.3-5.3,2.3c2.9,2.7,3.5,1.1,5.3,2.8
				c0.1,0.3,0.1,0.5,0.2,0.8c-0.5,1.1-1.7,1.2-2.6,1.9c-0.3,0.9-0.7,1.8-1,2.8c-1.4,1.8-6-3.5-7.1-4h-0.1c-1.3,0.3,2,3.5,2.3,4.3
				c0.7,2.2,0.5,2.1,2.5,2.6c1.8,0.4,3.5-0.5,5.3-0.5c2.5,0.1,5,0.2,7.5,0.3c3.3-0.1,6-1.5,8.8-2.5c1.5-0.5,2.4,0.8,3.8,0.4
				c5.6-1.7,8.3-9.8,9.5-12.3c0.6-2.5-0.1-4.7,0.5-7.2c0-2.1,1.1-4.7,1.1-6.8c-0.3-1.7-1.7-4.2-1.2-6
				C101.2,55.6,101.6,52.2,101.8,48.9z"/>
		</g>
	</g>
	<g id="Shape_315_19_" class="st0">
		<g>
			<path class="st12" d="M98.7,48.9c-0.9-1.8-3.9-5-3.6-7.4c0.3-2.4,2.4-5.2,1.8-7.2c-0.7-2-2-8.8-4.5-10.8c-2.5-2-7.5-2.6-10.3-2.6
				c-2.8,0-7.1-1.1-7.8-0.3c0,0-8.6,3.8-9.1,8.5c-0.4,4.7,1.7,7.2-0.1,9.9c-1.8,2.8-6.4,4-2.9,5.5c3.5,1.4,5.4-0.2,6.8,1.4
				c1.6,1.8,2.7,1.4,2.2,3.6s-0.8,8.1-0.9,10.6s-1.2,4.3-0.1,5.8c1.1,1.4,2,0.8,3.6,0.7s1.8,0.4,3.5,0.8c1.7,0.4,1.9,0.9,1.5,2
				c-0.5,1.1-1.4,2.5-0.3,3.6c1.1,1.1,2.5,0.5,5.3,2.7c5.3,4.2,6.1,2.2,5.4,0.7s2,0.3,3.1,0.8c1.1,0.4-2.7-3.2-0.6-4.4
				c2.1-1.2,3.9-6.5,4.4-8.7c0.5-2.1,0.9-4.7,1.7-6.6C98.5,55.4,99.7,50.7,98.7,48.9z"/>
		</g>
	</g>
	<g id="Shape_339_19_" class="st0">
		<g>
			<path class="st13" d="M100,50.7c0,1.2,0.3,3.8,0.2,6.2c-0.1,2.4-1.4,3.4-2,7.4s-0.8,7.4-1.3,9.9c-0.5,2.5-2.9,2.9-3.6,4.8
				C92.5,81,91.1,83,89.5,83c-1.6,0-2.6-3.3-3.4-5c-0.8-1.7-3-2-3.4-0.7c-0.4,1.3,0.1,1.3-1.3,1c-1.4-0.3-2.4-0.5-3.5,0.2
				c-1.1,0.7-5.4-0.3-5.4-0.3s-0.6-0.4-2.8-1.1c-2.2-0.6-1.3-1-1.2-2.5c0.1-1.6,1.8-2.1,3-2.8s0.7,1.8,0.7,3s1.9,0.9,2.3-0.4
				c0.4-1.3-0.7-2-0.4-3.6s2.7,0.8,2.7,0.8s1-0.1,2.2-1.3c1.2-1.2,1.1-1.3,0-2.2c-1.1-0.9-4.3-0.1-5.5,0.4s-1.5-0.5-3-1.6
				s-1.4-2-0.8-4.7c0.6-2.7,0-3.2-0.3-5.8c-0.3-2.6,0.9-4.3,0.9-5.8s0.4-1.5-1.1-2.4c-1.5-0.9-2.7-1.4-4.7-2.5
				c-1.9-1.1-3.2-0.2-5.1-0.1c-1.9,0.1-2.3,0-2.3-1.5s1.6-1.4,2.2-3.6c0.6-2.2,0.7-3.7,0.4-5.8c-0.3-2.1-1.3-5.1-1.5-7.3
				s3.9-5.1,6.6-6.2c2.7-1.2,4.6-0.7,8.2-1.5c3.6-0.7,8.4,0.4,11.8,0.7c3.4,0.2,0.3-1.7,0.3-1.7c-1.5-0.5-7.2-0.8-13.1-0.4
				s-10.9,2.8-14.5,4.8c-3.6,2-4.9,5.1-3.7,7.2c1.2,2.1,0.9,3.9,0.8,6.9c-0.1,3.1-0.5,5,0.2,6.8s1.5,3.1,3.9,2.3
				c2.4-0.8,3.9,0,6,0.6c2.1,0.5-2,1.8-3.7,1.8s-5.2-0.2-6.4,2.3s3,1.2,5.6,1.5c2.5,0.2-0.1,2.1-0.1,2.1s-2.3,0.3-4.6,0.5
				c-2.1,0.1-2.2,2.1-3.4,3.9c-1.2,1.8-0.9,6.5-0.2,8c0.7,1.5,1.5,6.4,1.7,7.6c0.1,1.2-0.3,5.3,2.5,4.6c2.8-0.7,2-1.1,3.7-2.5
				c1.7-1.5,1.2-0.1,2.2,0.7c1,0.8,1.3,0.3,3.1,0.1c1.8-0.2,1.3,0.8,2.4,1.7c1.2,0.8,4.5,0.8,5.9,0.8s2,3.9,1.2,4.5
				c-0.8,0.5-3.8-0.6-5.6,0.1c-1.8,0.7-2.7,5.8-4.7,5.1c-1.9-0.7-4.8-5.3-4.8-4.4s-0.3,3.7,0.8,5.9c1.1,2.3,8.9,5.2,11.3,5.7
				s1.1,2.6,4,2c2.9-0.5,6.6-0.9,8.3-2c1.7-1.1,7.7-4.4,9-5.4c1.3-0.9,6.1-8.4,6.7-10.2c0.6-1.8,0.6-4.8,0.7-7.2
				c0.1-2.4,0.8-3.6,0.9-6.4C101.7,64.7,100,49.5,100,50.7z"/>
		</g>
	</g>
	<g id="Shape_314_19_" class="st0">
		<g>
			<path class="st14" d="M88.2,25.2c-1.4-3.3-8-2.6-8-2.6c-4.2-0.4-5.5,6.2-7.4,10.1c-1.9,3.9-1.2,7.4,1.2,8.3
				c2.3,0.9,2,1.4,3.6,2.4c1.6,1,7.4,1.2,9.5,0.4c2.1-0.8,0.8-1.7-0.5-3.4c-1.3-1.7,2.8-2.7,3.6-6S89.6,28.5,88.2,25.2z"/>
		</g>
	</g>
	<g id="Shape_326_19_" class="st0">
		<g>
			<path class="st15" d="M94.1,51.7c0.2-0.7-0.1-1.6-0.6-2.2c-0.5-0.6-1.6-2.1-2.5-3.1c-0.9-1-2.2-1.5-3.1-1.9s-7.1-0.4-8.2-0.1
				c-1.1,0.3-1.8,0.7-2.7,0.1s-0.5,1.8-0.5,2.4s0,1.5,0,2c0,0.5-2.1-0.4-2.1-0.4c-0.7,0.6,0.4,1.1,1.6,1.9s0.6,0.6,0.6,1.1
				c0,0.4-0.1,0.7,0.6,1.3c0.7,0.6,0.4,0.5,1,1.5s1.3-0.1,1.7,0.3c0.4,0.4,0.7,1,1.3,1.2c0.5,0.1,0.9,0.4,1.7,0.5
				c0.7,0,2.2,0.5,3.1,0.6c0.9,0,2.1,0,1.9-0.3s-1.2-0.8-1.9-1.1s-0.3-0.7,0-1.1c0.3-0.3,1.8,0,2.3-0.2c0.6-0.2,2.7,0.7,3.5,1
				c0.8,0.3,2,0.3,2.2,0c0.3-0.3-0.9-0.8-1.3-1.4c-0.4-0.5,1-0.5,1.7-0.7C95,52.9,94,52.4,94.1,51.7z"/>
		</g>
	</g>
	<g id="Shape_319_19_" class="st0">
		<g>
			<path class="st16" d="M89.1,49.1c-0.7,0.4-1.2,0.1-2.4,0.1c-1.3,0-2.3,0.9-2.3,0.9c-0.4,0.6,2.3,0.1,3.2,0.5
				c0.9,0.4,2.5,1,2.5,0.7c0.1-0.5,0-0.8,0.3-1.4C90.7,49.3,89.8,48.7,89.1,49.1z"/>
		</g>
	</g>
	<g id="Shape_316_19_" class="st0">
		<g>
			<path class="st17" d="M83.3,48.2c2-0.2,6.8,0.5,6.9,0.5c0.3-0.1,0.8,1.8,2.2,2.1c0.5,0.1,1,0.2,0.9-0.2c-0.1-0.5-0.3-1.1-0.6-1.8
				c-0.2-0.5-1-0.3-2.2-1c-2.4-1.4,0.3-1.5-0.3-2.1c-0.8-0.7-1.7-1.3-2.8-0.6c-1.1,0.6-1.7-0.2-2.2-0.2c-0.7,0-1.1,0.5-2.1,0
				c-0.9-0.4-3.4-0.4-4.2,0.1c0,0-2.6,1.6-2,3.3c0.6,1.7,1,2.2,0.7,2.8c-0.3,0.6-0.7,1.7,0.1,2c0.8,0.2,0.5,1.4,1.6,1.2
				c1.1-0.2,1.5,0.4,3.1,0.7s2.8-1.1,5.5-0.8c2.7,0.3,3,1,4.2,1.1c1.2,0,1.4,0,1.1-0.8c-0.3-0.8-1.8-1.6-2.3-2.3
				c-0.2-0.2-1.4-0.7-2.8-1.2c-2.8-0.9-7.7-0.4-8.3-1.2C79.2,49.1,81.5,48.4,83.3,48.2z"/>
		</g>
	</g>
	<g id="Shape_320_19_" class="st0">
		<g>
			<path class="st18" d="M87,58.5c-1.2,0-2.7,0.1-4-0.4c-1.3-0.5-2.7-1.8-3-2.1c-0.3-0.4-1.2-0.6-1.5-0.3c0,0,2.7,3.2,4.1,3.6
				c1.4,0.4,3.9,0.7,5.2,0C89.1,58.5,88.2,58.5,87,58.5z"/>
		</g>
	</g>
	<g id="Shape_321_19_" class="st0">
		<g>
			<path class="st19" d="M92.6,54.3c-0.8-0.6-2.1-1.7-3-2.2s-3.2-1.9-5.7-1.5c-2.5,0.4-3,0.6-3.8,0.4c-0.8-0.2-2.1-1.9-2-1
				c0,0.9,0.1,1.1-0.4,1.7c-0.5,0.6-0.8,1.2,0,1.2c0.8,0,1.1-0.2,0.8,0.4c-0.3,0.6-0.8,1.8,0.3,1.1c0,0,0.5-0.7,1.7-0.5
				c1.1,0.2,5,0.1,6.1,0.1c1.1,0,2.5-0.5,3.6,0.1s1.8,1.3,2.9,1.2C94.2,55.1,93.4,54.9,92.6,54.3z"/>
		</g>
	</g>
	<g id="Shape_331_19_" class="st0">
		<g>
			<path class="st20" d="M86.7,52.4c-1.9-0.5-3.7-0.5-3.7-0.5s-2,0.6-1.3,1.6c0.6,0.8,5.8,0.1,6.8-0.1
				C89.1,53.2,88.6,52.8,86.7,52.4z"/>
		</g>
	</g>
	<g id="Shape_332_19_" class="st0">
		<g>
			<path class="st21" d="M82.8,51.9c0,0-0.3,1.5,0.9,1.9c1.3,0.4,4.2,0.2,4.2-0.9C87.9,52.4,85,51.2,82.8,51.9z"/>
		</g>
	</g>
	<g id="Shape_318_19_" class="st0">
		<g>
			<path class="st10" d="M81.5,52C81.5,52,81.5,51.9,81.5,52C81.4,52,81.3,52,81.5,52z M89.2,52.4c-0.5-0.3-0.5-0.7-3-1.4
				c-2.3-0.6-4.3,0.7-4.6,0.9c0.5-0.2,2.1-0.6,3.6-0.5c2.1,0.1,3.3,1.2,3.7,1.4C89.2,52.9,89.7,52.6,89.2,52.4z"/>
		</g>
	</g>
	<g id="Shape_336_19_" class="st0">
		<g>
			<path class="st22" d="M86.8,42.2c-1.3-0.4-5-1-6.1-0.3c0,0-0.8,1.3,1.2,2.1s3.7,0.7,5.4,0C88.9,43.4,88.1,42.6,86.8,42.2z"/>
		</g>
	</g>
	<g id="Shape_330_19_" class="st0">
		<g>
			<path class="st23" d="M95,56.4c-0.4-0.9-3.5-1.1-3.5-1.1c-1.4-0.1,0,1.4-1.1,1.8c-1.1,0.4-0.8,1.6-1.6,2.1c-0.8,0.6-1.8,2-5.4,1
				c-3.6-1.1-5.2-4.3-5.6-5.2c-0.4-0.9-0.7-1.5-1.4-1.9s-0.6-1.4-1.1-2c-0.5-0.6-1.7-2-2.2-2.8c-0.6-0.8-0.8,0.8-1.3,2.3
				c-0.5,1.6-0.5,2.7-0.7,4.3s0,4.5,0.3,6c0.3,1.6-0.8,2-0.8,3.3c0,1.4,1.1,1.6,2.5,1.1c1.5-0.5,1.9,0.3,3.2,1.1
				c1.4,0.8,3.9,1.3,4,0.1c0.1-1.2,2.1-0.3,3.2,0.1c1.1,0.4,2.5,2.8,2.9,4.2s2.2,2.6,2.2,1.7c0-1,2.1-2.5,3.1-3.1
				c1-0.6,1.9-2.9,1.9-4.2c0-1.3,1.7-4.3,2-5.3C96.2,59,95.4,57.2,95,56.4z"/>
		</g>
	</g>
	<g id="Shape_329_19_" class="st0">
		<g>
			<path class="st24" d="M92.6,59.3c-1-0.7-2.6,0.7-3.9,1.4c-1.3,0.7-2.9,0.5-5.5-0.5s-5.4-4.7-5.4-4.7c-0.5-0.6-0.4,0.5-0.2,1
				s1.6,3.1,2.3,5.6c0.7,2.4,3,3.2,4.2,4s4,2.2,5.6,2.1c1.6-0.1,2.1-0.9,2.5-2.4c0.4-1.5-0.1-2.9-0.5-4C91.4,60.6,93.6,60,92.6,59.3
				z"/>
		</g>
	</g>
	<g id="Shape_328_19_" class="st0">
		<g>
			<path class="st25" d="M74.1,54.2c-0.1-0.9,0.2-2.1,0.2-3c0-0.9-0.9-1.7-0.9-1.7c-0.4-0.3-0.7,0.9-0.9,1.9c-0.1,1,0.2,1.9,0.1,2.7
				c-0.1,0.9-0.5,4.2-0.5,5.3s0.4,2.3,0.9,2.4c0.5,0.1,1.1-1.3,1.4-2.3C74.6,58.4,74.2,55.1,74.1,54.2z M73.1,62.3
				c-0.1-0.2-0.7,0.5-0.6,1.5c0.1,0.9,0,1.5,1.1,1.3c1-0.2,0.5-1.1,0.4-1.7S73.1,62.3,73.1,62.3z"/>
		</g>
	</g>
	<g id="Shape_334_19_" class="st0">
		<g>
			<path class="st26" d="M104.9,42.9c0.2-1.9-0.8-6.9-1.2-8.4s-2.5-8.4-4.6-10.4c-2-2-6.8-6.2-8.6-7.2c-1.8-1-5.3-4.8-11.6-5.5
				c-6.3-0.6-9.7,0.5-12,1c-2.3,0.4-6.5,2.7-8.4,4.2c-1.9,1.5-4.4,2.9-6.3,5s-4.8,4.2-5.9,7.6c-1.1,3.4-3.1,7.5-3.2,9.3
				c-0.1,1.8-0.2,4.4-0.1,7.3c0.1,2.9,0.1,6.3,0.6,7.9c0.4,1.6,1,4.1,2.2,6.1s3,4.1,2.6,1.5c-0.3-2.6-1.1-8.3-1.2-9.7
				c0-1.3,1.3-3.8,1.5-5.3c0.1-1.5,0.9-5.3,1-7.4c0-2.1,0.1-6.7,0.3-8.5c0.1-1.8,1.8-4.2,2.7-5c0.9-0.8,2.5-1.1,2.5-1.1
				s5.6-3,9.1-3.6c3.5-0.6,7.1-1.7,12.2-1.8s7.7,1.1,10.3,1.6c2.6,0.4,5.7,2.1,7.3,5.5c1.6,3.3,1.3,10.5,1.8,13.6
				c0.4,3.1,1.3,4.9,2.8,7.2c1.6,2.3,1.6,6.4,1.9,8.4c0.3,2-1.7,6.4-0.2,7.1c1.5,0.7,2-0.1,2.1-2s-0.3-6.7,2.2-8
				C107.3,51.1,104.6,44.8,104.9,42.9z"/>
		</g>
	</g>
	<g id="Shape_335_19_" class="st0">
		<g>
			<path class="st27" d="M103.7,49.7c-0.8-0.2-0.5-2.5-0.3-4.2c0.2-1.7,0.8-2,1-3.4c0.1-1.4-1.6-2.5-2.3-4.2
				c-0.7-1.7,1.5-2.1,1.2-3.4c-0.3-1.3-2-4-3.7-3.8c-1.7,0.2-3.7-2-3.7-2c-0.9,0.6,0.2,4,1,4.8s0.1,2.5-0.1,3.9
				c-0.2,1.4,0,3.1,0.7,3.5c0.7,0.4,0.3,1.9,0.3,3.1c0,1.2,1.2,2.6,2.1,3.2c1,0.6,0.5,1.6,0.2,2.4c-0.3,0.8,0.4,2.4,0.8,3.5
				s0.1,3.9-0.3,4.8c-0.4,0.8-0.6,2.2-0.7,3.5c0,1.3,1.6-0.5,2-1.2s0.9-1.8,0.5-2.6c-0.4-0.8-0.3-2.7,0.8-3.5c1.1-0.8,0-1.7,0.6-2.6
				C104.3,50.5,104.5,50,103.7,49.7z"/>
		</g>
	</g>
	<g id="Shape_317_19_" class="st0">
		<g>
			<path class="st19" d="M93.1,49.4c-0.5-1.2-2.7-3.7-3.7-4.6s-1.8-0.8-2.8-0.6s-2.3,0.3-3.4,0c-1.1-0.3-2.4-0.1-3.4,0.5
				c-1,0.6-1.9,0.8-2.3,0.6c-0.5-0.2-0.8,1.5-0.4,2.1c0.4,0.7,0.5,0.4,0.5,0.4s0.7,0.3,2.8,0.2s4.2-0.4,5.5-0.7c1.2-0.2,1.4,0.7,3,1
				c1.6,0.3,1.9,1.2,3.1,1.9S93.6,50.6,93.1,49.4z"/>
		</g>
	</g>
	<g id="Shape_347_19_" class="st0">
		<g>
			<path class="st28" d="M82.4,78c-0.8-0.8-2.6-1.7-3.3-1.8c-0.7-0.1-1.9-0.1-3-0.4C75,75.6,75.4,75.5,74,76c-1.6,0.6-2.6,0-3.4-0.2
				c-0.8-0.2-6.8,1.2-4.7,2c0,0,2.8-1.5,3.8-1c1,0.5,2.3,1.1,3.7,0.3c1.4-0.8,3.2-0.2,4.8,0.2c1.6,0.4,2,0.6,3.3,1
				S83.2,78.8,82.4,78z"/>
		</g>
	</g>
	<g id="Shape_360_19_" class="st0">
		<g>
			<path class="st29" d="M87.1,79.2c-0.4-1.6-1-1.9-2.3-2.6c-1.4-0.8-1.9-0.8-3.6-1.7c-1.5-0.8-2.9-1.4-4.8-2.2
				c-1.5-0.7-0.8,0.5-1.2,2s-5,2.1-4.4-0.9c0.2-1.1-0.9-1.4-2.5-0.8c-1.7,0.6-2.6,0.7-5,1.6c-2.3,0.9-3.2,1.3-5.3,2.6
				c-2,1.4-1,4.9-1,4.9c0.7,1.6,2.2,0.1,2.1-0.9c-0.1-1,2.4-1.6,3.6-2.3c1.2-0.8,4.5-2.3,5.2-2.4c0.7-0.1,1-0.3,2.7,0.2
				s3.2-0.3,4.2-0.4c1-0.1,1.9-0.5,3.2,0.3c1.3,0.8,2.5,1.6,4.4,3.1s2.1,2.4,2.3,3c0.2,0.6,2,0.8,2,0.1C87,82,87.5,80.7,87.1,79.2z"
				/>
		</g>
	</g>
	<g id="Shape_338_19_" class="st0">
		<g>
			<path class="st30" d="M82.6,79.8c-0.7-0.1-1.4-1.2-2.5-1.9c-1.2-0.6-3.8-1.2-5.2-1.4c-1.4-0.1-1.8,0.4-2.9,0.8
				c-1.2,0.4-1.8-0.3-2.5-0.7c-0.8-0.4-1.1,0.3-2.6,0.8c-1.6,0.5-3.2,1.8-3.2,1.8c-1,0.3,1.7,1.2,2.8,1c1.2-0.2,2.8,0,3.6-0.1
				c0.8,0,0.6,0.7,3.9,0.1s8.2,0.2,8.2,0.2S83.4,79.9,82.6,79.8z"/>
		</g>
	</g>
	<g id="Shape_337_19_" class="st0">
		<g>
			<path class="st31" d="M84.1,78.7c-0.5-0.4-0.5,0.3-0.6,0.6c-0.1,0.3-0.8,0-1.6-0.3c-0.7-0.2-1.1-0.7-2.4-1.3
				c-1.4-0.6,0.1,0.9,0.6,1.4c0.4,0.4-0.8,0.4-2.2,0.3c-1.5-0.1-3.1,0.3-4.2,0.2c-1.1-0.1-1.6,0.3-2.5,0.3c-0.9,0-1.8-0.1-3.3-0.5
				c-1.5-0.4-1-1.6-1-1.6c0.9-0.9-1.2-0.1-1.9,0.3c-0.7,0.4-2.5,1.1-3.4,1.4c-0.9,0.3-0.8,0.8-0.5,1.3c0.3,0.4,1.2,1.6,1.8,1.5
				s0.9-1.4,1.3-1.6c0.3-0.1,1.3,0.2,2-0.1c0.6-0.3,1.9-0.1,2.7-0.2c0.9-0.1,1.8,0.6,2.7,0.5c0.9-0.1,2.3-0.3,3.5-0.5s3,0,4.2,0
				c1.2,0,2.1,0.3,3.2,0.1c1.1-0.2,2.1,0.1,2.4-0.2C85.2,79.9,84.6,79.1,84.1,78.7z"/>
		</g>
	</g>
	<g id="Shape_340_19_" class="st0">
		<g>
			<path class="st32" d="M82.3,80.6c-1.7-0.1-5.2-0.6-7.2-0.4c-2.2,0.3-2.6,0.6-3.8,0.4c-1.3-0.2-3.3-0.3-6.1,0.5
				c0,0-1.9,2.5,4.5,3.1c2.8,0.3,5.3,0,7.1,0.3c1.9,0.3,3.5-1,5.3-2.3C83.5,81.1,83.9,80.7,82.3,80.6z"/>
		</g>
	</g>
	<g id="Shape_341_19_" class="st0">
		<g>
			<path class="st33" d="M76.1,81.2c-2.3-0.2-10.2-0.4-8.7,0.2c0,0,1.8,0.9,3.8,0.9s4.4,0.3,6-0.5C78.9,81,78.4,81.4,76.1,81.2z"/>
		</g>
	</g>
	<g id="Shape_342_19_" class="st0">
		<g>
			<path class="st31" d="M78.2,68.9c-0.6-0.4-1.3-1.5-2.7-1.4c-1.5,0.1-1.9,2.2-1.9,2.2c0.7-0.4,2.2,0.1,3.7,0.3
				C78.7,70.3,78.7,69.3,78.2,68.9z"/>
		</g>
	</g>
	<g id="Shape_343_19_" class="st0">
		<g>
			<path class="st31" d="M70.3,68.8c-0.6-0.6-0.7-1-2-0.8c-1.4,0.2-2.1,1.3-2.1,1.3c-1.4,0.9,1.8,0.4,2.6,0.3
				c0.9-0.1,1.3,0.4,2.2,0.5C71.9,70.2,70.8,69.4,70.3,68.8z"/>
		</g>
	</g>
	<g id="Shape_345_19_" class="st0">
		<g>
			<path class="st10" d="M64.8,54.3c-1.2,0.1-1.3,0.8-3,1.3c-1.7,0.4-3.8,0.6-5.2,0.8c-1.4,0.2-2.5,0.8-0.8,1.3
				c1.8,0.5,4.5-0.2,6.3-0.8c1.3-0.4-0.7,1-3.1,1.8c-1.3,0.4-3.9,0-4.1,1.3c-0.2,1.3-0.7,4.5-0.8,5.9s0,6.6,2.3,6.3
				c0,0,4.3-0.1,5.6-2.3c1.3-2.2,2.1-3.5,2.6-4.3c0.5-0.8,0.1-4.1,0.9-5.7c0.8-1.6,0.9-3.9,1.1-4.6S66,54.2,64.8,54.3z"/>
		</g>
	</g>
	<g id="Shape_355_19_" class="st0">
		<g>
			<path class="st34" d="M65.6,55.1c-1.2-0.2-0.2-0.9-1-0.7c0,0-0.9,0.8-1.4,1.1c-0.5,0.2-1.2,1.1,0,0.9c1.2-0.2,0.2,1,1.4,0.4
				C65.8,56.2,66.7,55.3,65.6,55.1z"/>
		</g>
	</g>
	<g id="Shape_344_19_" class="st0">
		<g>
			<path class="st13" d="M65.2,56.8c-1.5,1.1-5.1,2.9-6.8,3.3c-1.8,0.4-2.2,0.4-1.2,0.8c0,0,5.5,0.3,7.9-2.2
				C67.5,56.2,66.7,55.8,65.2,56.8z"/>
		</g>
	</g>
	<g id="Shape_348_copy_19_" class="st0">
		<g>
			<path class="st35" d="M74.8,84.6C73.3,84.8,72,84,70.2,84s-3.5,0.9-3.5,0.9c-1.5,0.4,2.6,4.2,3.7,4c1.1-0.2,0.9-0.1,3.5,0
				C76,89,78.5,84.1,74.8,84.6z"/>
		</g>
	</g>
	<g id="Shape_349_19_" class="st0">
		<g>
			<path class="st36" d="M63.6,53.4c-0.2-0.9-5.3-1.1-5.9,0.4c0,0,0.7,1.5,3.1,1.3C63.3,54.8,63.9,54.3,63.6,53.4z"/>
		</g>
	</g>
	<g id="Shape_350_19_" class="st0">
		<g>
			<path class="st21" d="M62.8,52.8c0.2-0.5-4.3-0.6-4.3,0.6c0,1.2,0.6,2,2.7,1.7S62.8,52.8,62.8,52.8z"/>
		</g>
	</g>
	<g id="Shape_351_19_" class="st0">
		<g>
			<path class="st21" d="M66.6,54.7c-0.2-0.7-1.3-1.1-2-1.4c-0.7-0.3-0.1-0.7,0.8-0.7s0.9-0.5,0.2-0.5c-0.7,0-1.7-0.2-3.2-0.3
				c-1.6-0.1-3.3,0.6-4.9,1s-1.6,0.8-2.9,2c-1.4,1.3-0.2,1.4,0.4,0.9c0.6-0.5,0.8-0.3,2-0.2c1.3,0.1,2.2-0.5,1.9-0.7s-0.8-0.3-1-1.1
				c0.4-0.6,2.1-1,3.4-1c1.3,0,2,0.2,2.3,0.6s-0.2,1.1-0.2,1.1c-0.5,0.5,0.6,0,1.3-0.3C65.3,54,66.7,55.4,66.6,54.7z"/>
		</g>
	</g>
	<g id="Ellipse_8_19_" class="st0">
		<g>
			<ellipse class="st37" cx="61.4" cy="53.1" rx="0.5" ry="0.4"/>
		</g>
	</g>
	<g id="Ellipse_8_copy_19_" class="st0">
		<g>
			<ellipse class="st37" cx="86.5" cy="52.4" rx="0.5" ry="0.4"/>
		</g>
	</g>
	<g id="Shape_352_19_" class="st0">
		<g>
			<path class="st38" d="M63.3,49.7c-2-1-5.1-1.2-7.3,0.2c-2.2,1.4-0.8,3.6,0.5,2.9c1.3-0.7,3.9-0.8,4.9-1c1-0.1,2.9-0.1,3.9-0.6
				C66.3,50.8,63.3,49.7,63.3,49.7z"/>
		</g>
	</g>
	<g id="Shape_353_19_" class="st0">
		<g>
			<path class="st34" d="M61.6,50.7c-1.8,0-2.3,0.8-2.3,0.8c-1.2,0.4,3.3,0.2,4,0C64,51.2,63.4,50.6,61.6,50.7z"/>
		</g>
	</g>
	<g id="Shape_354_19_" class="st0">
		<g>
			<path class="st19" d="M67.6,48.3c-1.3-1.4-2.7-2.3-4-2.8c-1.3-0.5-4,0.4-5.3,0.4c-1.3,0-2-0.5-2.7-0.4c-0.8,0.1-1.6,1.9-2,2.6
				c-0.5,0.8-0.8,3.4-0.5,4.4c0,0,1.8-2.7,4.2-3c2.4-0.3,4.7-1,6.4-0.5C67.8,50.2,68.9,49.6,67.6,48.3z"/>
		</g>
	</g>
	<g id="Shape_356_19_" class="st0">
		<g>
			<path class="st39" d="M94.8,20.8c-0.8-1.1-1.6-1.1-2.1-2.2c-0.6-1.2-1.4-1.1-2.5-1.2c-1.2-0.1-2-0.7-3-1.8c-1.1-1.1-2-1.1-3-1.8
				c-0.5-0.3-1.8,0.4-3.2,0.8c-1.5,0.4-1.4,0.2-2.1,1.4c-0.8,1.2-2,0.6-3.2-0.1c-1.2-0.7-2.4,0.2-3.2,1c-0.8,0.8-3,0.2-4.7-0.3
				c-1.7-0.5-2.8,1.4-2,1.6c0.8,0.2,0.4,1.3,2.7,0.8c2.3-0.5,3-0.7,4.9-0.3c1.9,0.4,3-0.1,4.7-0.7c1.7-0.6,2.6,0,4.5,0.7
				s2.2,1.3,3.8,0.9s3.3,0,4,0.9s3.5,1,3.5,1C94.2,21.4,95.6,21.8,94.8,20.8z"/>
		</g>
	</g>
	<g id="Shape_357_19_" class="st0">
		<g>
			<path class="st10" d="M84.7,83.9c-1.4-0.8-0.1-1.2,0.7-1.9c0.8-0.7-1-1.5-2.2-1.1c-1.3,0.4-3.1,2.8-7.5,3.7c0,0,3.4,0.4,2.7,1.6
				c-0.7,1.2-1.7,1-2.3,1.7s-2.7,2.4-1.1,3.5c1.7,1.1,3.5,0.8,5.6,1.2c2.6,0.5,4-1.3,4.9-3.4C86.2,87.1,86.1,84.7,84.7,83.9z"/>
		</g>
	</g>
	<g id="Shape_346_19_" class="st0">
		<g>
			<path class="st40" d="M85,86.9c0,0-0.2,4-1.7,4.6c-1.5,0.6-3.8,0.5-5.2,0.1c-1.4-0.4-3.5,0.2-4.8,0.1c-1.3-0.1-3.7-0.2-5.5,0
				s-2.4,1.2-4.3-1.1c-1.9-2.2-3.6-3.3-4-4.5c-0.4-1.2-0.8,3.2,0.4,4.8c1.2,1.6,2.1,4.3,4.4,5c2.2,0.7,4.7,1.5,6.7,1.5
				c2,0,6.9-0.6,8.4-0.7c1.5-0.1,3.4-0.8,4.5-1.7c1.1-0.9,1.9-1.8,2-2.9C86.2,90.9,86.4,85.4,85,86.9z"/>
		</g>
	</g>
	<g id="Shape_358_19_" class="st0">
		<g>
			<path class="st41" d="M84.4,88.7c-0.6,2-1.9,2.8-3.8,3.2c-2,0.4-1.7-0.6-4.1-0.3c-2.4,0.3-5.9-0.4-7.2,0c-1.3,0.4-4.2-0.1-5-0.9
				c-0.7-0.7-2.5-0.8-0.6,1.4c0,0,2.2,2.6,5.5,2.9c3.2,0.3,6.5,0.8,8.9-0.3c2.3-1.1,2.9-1.1,5-1.7c2-0.6,2.9-4.1,2.8-5.6
				C85.8,86.1,85,86.7,84.4,88.7z"/>
		</g>
	</g>
	<g id="Shape_361_19_" class="st0">
		<g>
			<path class="st24" d="M87.6,75.6c-0.6-1.1-3.2-4.7-4.4-5.5c-1.2-0.8-1.6-1.8-2.4-1.3S79,71.4,79,71.4c2,3,7.9,5.5,8.7,5.9
				C88.5,77.8,88.2,76.6,87.6,75.6z"/>
		</g>
	</g>
	<g id="Shape_362_19_" class="st0">
		<g>
			<path class="st42" d="M99.2,82.9c-0.8,1.7-5.7,8.8-7.2,9.5c-1.6,0.7,0.7-3.9,0.5-6.3s-1,0-1.7,2.3c-0.7,2.3-2,5.5-4.2,6.6
				c-2.1,1.2-0.4-2.9-0.4-2.9c-0.5,0.9-2,3-3.7,3.8c-1.7,0.8-6.1,1.7-8.5,1.8c-2.3,0.1-7.8-0.5-10.6-2.3c-2.8-1.9-3.2-4.8-4.1-7.3
				c-0.9-2.5-0.3,2.1,0.5,4.4c0.8,2.2-2.9-0.3-0.9,2.6c2,2.9,3.6,4,10.4,5.8c6.8,1.9,14.4-1.5,18.1-3c3.7-1.6,7.7-6.9,9.2-8.6
				C98.1,87.6,100,81.2,99.2,82.9z"/>
		</g>
	</g>
	<g id="Shape_348_19_" class="st0">
		<g>
			<path class="st43" d="M74.9,84.3C73.4,84.5,72,84,70.2,84s-3.5,0.9-3.5,0.9c-1.5,0.4,2.1,0.1,3.2-0.1s1.9,0,4.5,0.2
				S76.5,84.1,74.9,84.3z"/>
		</g>
	</g>
	<g id="Shape_363_19_" class="st0">
		<g>
			<path class="st44" d="M94.1,91.8c-1.6,1.6-4.4,3.3-3.8,2.2s3.3-5.9,1.7-8.5c-0.4,7.7-4.3,10.2-6,11.1s-1.3-0.7-0.5-1.5
				c0.8-0.8,0.7-5,0.6-3.2c-0.1,1.8-4.1,3.7-5.9,4.3s-6.1,0.9-9.3,0.9c-3.1,0-7.6-2-9.3-3.8c-1.7-1.8-2.3-6.5-2.3-6.5
				c-1.4,2.3,0.9,7.2,3.2,9.3c2.3,2,0.8,1.7-1.8-0.1c-2.5-1.8-5.3-8.5-7-9.8c4,10.7,7,12.8,10.5,14.2c3.5,1.5,10.5,1.2,14.4,0.5
				c3.9-0.7,9.1-3.3,11.8-5.2C93.3,94,95.7,90.3,94.1,91.8z"/>
		</g>
	</g>
	<g id="Shape_367_19_" class="st0">
		<g>
			<path class="st45" d="M70.1,75.8c-0.4-0.5-0.1-2.2-0.1-2.2c-0.7,0.7-1.7,2.7-0.9,2.7c0.9,0,1.9,0.4,1.9,0.4S70.5,76.2,70.1,75.8z
				"/>
		</g>
	</g>
	<g id="Shape_368_19_" class="st0">
		<g>
			<path class="st45" d="M67.2,76.4c-0.7,0-0.5-1.8-0.5-1.8c0-0.3-0.3-0.2-0.9,1s-0.3,2,0.3,1.8C66.8,77.2,67.9,76.5,67.2,76.4z"/>
		</g>
	</g>
	<g id="Shape_369_19_" class="st0">
		<g>
			<path class="st45" d="M76.8,74.2c-0.3-0.4-0.3-0.1-0.4,0.9s-1,1-1,1c0.6,0,1.2,0.1,1.6,0.1C77.4,76.1,77.1,74.6,76.8,74.2z"/>
		</g>
	</g>
	<g id="Shape_370_19_" class="st0">
		<g>
			<path class="st45" d="M79.7,76.5c-0.2-0.7-1.1-2.4-1-1.8c0,0,0.2,1.9-0.1,2c-0.3,0.1,0.6,0.4,1.4,0.9
				C80.8,78.2,79.9,77.3,79.7,76.5z"/>
		</g>
	</g>
	<g id="Shape_371_19_" class="st0">
		<g>
			<path class="st45" d="M85.8,77.3c-0.6-0.6-3.7-3.6-5.9-3.1c0,0,1.1,1,1.6,1.8s0.8,0.2,0.6-0.2c-0.2-0.4,2.4,0.7,3.1,2
				S86.4,77.9,85.8,77.3z"/>
		</g>
	</g>
	<g id="Shape_364_19_" class="st0">
		<g>
			<path class="st46" d="M62.4,75c-1.2,0.5-2.8,0.6-3.7,2.7s-0.1,2,0.5,0.5c0.6-1.6,3.2-2.7,3.3-2.7c0.2,0-0.4,0.6-0.9,1.9
				c0.7-1.4,2-1.8,2.9-2.4c0.9-0.6,1.5-1.4,1.5-1.4C65.6,73.9,63.5,74.5,62.4,75z"/>
		</g>
	</g>
	<g id="Shape_365_19_" class="st0">
		<g>
			<path class="st46" d="M65.2,77.3c-0.2,0.3-2.4,1.3-3.7,1.7s-1.7,1.8-1.8,1.4c0-0.4,0.6-1.9,0.6-1.9c-0.9,0.5-1.9,2.7-1.7,3.6
				c0.3,0.9,1,1.3,0.9,0.4c-0.1-0.9,1-2,1.9-2.6c0.8-0.6,2.9-1.1,3.7-1.9C66,77.4,65.5,77,65.2,77.3z"/>
		</g>
	</g>
	<g id="Shape_366_19_" class="st0">
		<g>
			<path class="st46" d="M86.1,79.8c-0.6-0.3-0.2,0.6-0.5,0.3c-0.3-0.3-3.2-2.3-3.7-2.8c0,0,0.8,1.7,1.5,2.1
				c0.6,0.4,1.3,0.7,1.7,1.5s0.5,1,0.6,1.8c0.1,0.8,0.8,1.3,1.1,0.3C86.9,81.8,86.6,80,86.1,79.8z"/>
		</g>
	</g>
</g>
</svg>
