<?xml version="1.0" encoding="utf-8"?>
<!-- Generator: Adobe Illustrator 19.1.0, SVG Export Plug-In . SVG Version: 6.00 Build 0)  -->
<svg version="1.1" id="Layer_1" xmlns="http://www.w3.org/2000/svg" xmlns:xlink="http://www.w3.org/1999/xlink" x="0px" y="0px"
	 viewBox="0 0 150.7 151.5" style="enable-background:new 0 0 150.7 151.5;" xml:space="preserve">
<style type="text/css">
	.st0{clip-path:url(#SVGID_3_);}
	.st1{fill-rule:evenodd;clip-rule:evenodd;fill:#32282B;}
	.st2{fill-rule:evenodd;clip-rule:evenodd;fill:#45342A;}
	.st3{fill-rule:evenodd;clip-rule:evenodd;fill:#83603F;}
	.st4{fill-rule:evenodd;clip-rule:evenodd;fill:#9D5F3A;}
	.st5{fill-rule:evenodd;clip-rule:evenodd;fill:#E2A376;}
	.st6{fill-rule:evenodd;clip-rule:evenodd;fill:#F4B58F;}
	.st7{fill-rule:evenodd;clip-rule:evenodd;fill:#D29469;}
	.st8{fill-rule:evenodd;clip-rule:evenodd;fill:#C38155;}
	.st9{fill-rule:evenodd;clip-rule:evenodd;fill:#EFB68F;}
	.st10{fill-rule:evenodd;clip-rule:evenodd;fill:#BA7C59;}
	.st11{fill-rule:evenodd;clip-rule:evenodd;fill:#C48458;}
	.st12{fill-rule:evenodd;clip-rule:evenodd;fill:#A55B36;}
	.st13{fill-rule:evenodd;clip-rule:evenodd;fill:#CB9366;}
	.st14{fill-rule:evenodd;clip-rule:evenodd;fill:#8B401F;}
	.st15{fill-rule:evenodd;clip-rule:evenodd;fill:#8F5738;}
	.st16{fill-rule:evenodd;clip-rule:evenodd;fill:#A5684A;}
	.st17{fill-rule:evenodd;clip-rule:evenodd;fill:#5F2A1C;}
	.st18{fill-rule:evenodd;clip-rule:evenodd;fill:#48261D;}
	.st19{clip-path:url(#SVGID_5_);}
	.st20{fill-rule:evenodd;clip-rule:evenodd;fill:#AF9181;}
	.st21{fill-rule:evenodd;clip-rule:evenodd;fill:#65442F;}
	.st22{fill-rule:evenodd;clip-rule:evenodd;fill:#452921;}
	.st23{fill-rule:evenodd;clip-rule:evenodd;fill:#F2BA9D;}
	.st24{fill-rule:evenodd;clip-rule:evenodd;fill:#C7AC9B;}
	.st25{fill-rule:evenodd;clip-rule:evenodd;fill:#D16C61;}
	.st26{fill-rule:evenodd;clip-rule:evenodd;fill:#86362E;}
	.st27{fill-rule:evenodd;clip-rule:evenodd;fill:#572B1E;}
	.st28{fill-rule:evenodd;clip-rule:evenodd;fill:#9D6654;}
	.st29{fill-rule:evenodd;clip-rule:evenodd;fill:#E2C7B4;}
	.st30{fill-rule:evenodd;clip-rule:evenodd;fill:#F2AFA8;}
	.st31{fill-rule:evenodd;clip-rule:evenodd;fill:#BC7249;}
	.st32{fill-rule:evenodd;clip-rule:evenodd;fill:#D69A75;}
	.st33{fill-rule:evenodd;clip-rule:evenodd;fill:#DCA376;}
	.st34{fill-rule:evenodd;clip-rule:evenodd;fill:#BA7D52;}
	.st35{fill-rule:evenodd;clip-rule:evenodd;fill:#87482E;}
	.st36{clip-path:url(#SVGID_7_);}
</style>
<g>
	<defs>
		<circle id="SVGID_1_" cx="75" cy="75" r="75"/>
	</defs>
	<linearGradient id="SVGID_2_" gradientUnits="userSpaceOnUse" x1="75" y1="150" x2="75" y2="9.094947e-13">
		<stop  offset="0" style="stop-color:#212121"/>
		<stop  offset="1" style="stop-color:#EF4438"/>
	</linearGradient>
	<use xlink:href="#SVGID_1_"  style="overflow:visible;fill:url(#SVGID_2_);"/>
	<clipPath id="SVGID_3_">
		<use xlink:href="#SVGID_1_"  style="overflow:visible;"/>
	</clipPath>
	<g id="Shape_663_1_" class="st0">
		<g>
			<path class="st1" d="M148,124.4c-3.8-6.8-14.1-8.1-19.7-8.9s-11.1-3.3-18.5-6.3c-7.4-3-12.5-4.4-12.5-4.4l-40.7,8.7
				c0,0-8.7,5.6-26.8,12s-17.9,26.8-17.9,26.8l138.8-0.7C150.7,151.5,151.9,131.1,148,124.4z"/>
		</g>
	</g>
	<g id="Shape_638_1_" class="st0">
		<g>
			<path class="st2" d="M115.4,67.1c-0.2-3.8-4.8-13.3-7-18.5c-2.2-5.1-4.3-13.8-8-19.5c-3.8-5.6-7.4-10.6-14-13.7S67,15.3,60,16.6
				s-9.9,5.1-15.4,9.7C39.1,31,36,42.3,33.6,48.1s-2.9,16.1-3.1,25.1s1.7,19,9.4,28.6c7.7,9.6,17.6,3.9,17.6,3.9s31.6-6.3,35.4-5.6
				c3.8,0.7,10.4,2.1,15.2-0.9c4.8-2.9,7.2-13.7,8.7-20.5C118.4,71.9,115.5,70.8,115.4,67.1z"/>
		</g>
	</g>
	<g id="Shape_660_1_" class="st0">
		<g>
			<path class="st3" d="M115.4,67.1c-0.2-3.8-4.8-13.3-7-18.5c-2.2-5.1-4.3-13.8-8-19.5c-3.8-5.6-7.4-10.6-14-13.7S67,15.3,60,16.6
				s-9.9,5.1-15.4,9.7C39.1,31,36,42.3,33.6,48.1s-2.9,16.1-3.1,25.1s1.7,19,9.4,28.6c4.7,5.9,10.3,6,13.9,5.2l3-3l-8.4,0.2
				c0,0-8.7-6-6.2-10.8s1.9-6.8,1.5-9.4c-0.3-2.6-0.9-3.2,0.7-7.4c1.5-4.1,1.2-12.5,2.7-16.9c1.5-4.4,1.9-2.2,1.9-5.5
				c0-3.2-1.9,1.5-3.6,4.1c-1.7,2.6-2.6,5.8-4.4,7.4c-1.9,1.5-3.2-0.9-2.7-2.9c0.5-2.1-2.1-1.9-3.1,0.2c-1,2.1-3.8-5-1-10.4
				C37.1,47.1,42,41.9,44.4,37s3.2-4.3,2.4,2.1c-0.9,6.3,1,8.9,0.9,10.8c-0.2,1.9,0.1-0.6,1.3-4.4s1.1-7.6,2.3-12s4.2-6,8.8-7.5
				c4.6-1.5,7.5-0.4,10.4-0.4s0.5-0.8-4.5-0.7c-5,0.2-7.9,0-5.3-2.9c2.6-2.9,4.4-3.4,9.1-4.8c4.6-1.4-3.1,3.9-3.1,3.9
				s3.8-2.1,9.7-2.4c6-0.3,9.7,3.8,10.9,8.2s0.3,3.8,1.7,8.2s5.3,16.9,7.5,19.5s10.3,16.2,13.3,17.8c-2-4.6-11.5-16.8-12.5-23.1
				c-1-6.3,2.7,2.2,2.7,2.2s-1.5-5.6-2.6-9.7c-1-4.1-0.7-8.2-0.7-8.2l3.2,4.3l5.8,12.3c0,0,2.2,7,3.6,9.4s4.4,7.7,5,12
				c0.5,4.3-0.2,5-0.9,8.9c-0.7,3.9-0.2,11.5-2.6,14.7c-0.7,0.9-0.4,0.9,0.3,0.3c2.7-4.6,4.2-11.7,5.4-16.7
				C118.4,71.9,115.5,70.8,115.4,67.1z"/>
		</g>
	</g>
	<g id="Shape_629_1_" class="st0">
		<g>
			<path class="st4" d="M101.3,106.7c-1.5-1.7-8.2-3.1-9.1-6.3c-0.9-3.2,0-5.6,1.4-8.4s3.8-10.8,3.8-10.8c6.2-0.8,3.8-7.7,3.6-10.4
				s-1.5-4.8-1.7-8.2c-0.2-3.4-2.7-8.2-4.4-11.3c-1.7-3.1-5-13.7-7-18.8c-2.1-5.1-4.1-5.1-11.5-6c-7.4-0.9-14.2,0.5-19.1,2.7
				s-6.5,13.2-7,17.1c-0.5,3.9-1.5,7.7-2.6,12c-1,4.3-1.5,3.8-4.3,6.3c-2.7,2.6-0.2,7.9,1,12.7c1.2,4.8,3.2,3.7,5.6,3.6
				c0.2,3.1,1.4,6.8,3.8,10.8c2.4,3.9,3.6,6,3.8,9.6s-0.2,10.6-1.5,14c-1.4,3.4-6.5,6-0.3,13.5c6.2,7.5,25.3,4.1,29.7,2.4
				c4.4-1.7,9.1-5.1,14.4-11.6S102.9,108.5,101.3,106.7z"/>
		</g>
	</g>
	<g id="Shape_640_1_" class="st0">
		<g>
			<path class="st5" d="M84.9,60.7c-2.8-0.7-2.2-0.7-2.2-0.7l-0.2-5.8c-0.2-1.7,5.6-3.4,7-4.1c1.4-0.7,1.5-1.5,0.5-2.9
				s-2.2-5.6-3.6-10.8s-5.1-6-7.9-7.5c-2.7-1.5-8.4,0.2-14.9-0.3c-6.5-0.5-6,2.1-8.9,4.8s-3.4,12.5-3.1,15.4
				c0.3,2.9-0.7,2.7-1.9,4.4c-1.2,1.7-1.5,6.8-2.4,10.6c-0.9,3.8,1.4,3.2,2.6,6c1.2,2.7,0.7,4.4,1,7.9c0.3,3.4,0.3,6,3.1,11.5
				c2.7,5.5,5.3,6.7,8.2,10.1c2.9,3.4,6.8,5.6,12.1,5.6s7.2-2.4,9.7-5.3c2.6-2.9,2.4-2.6,4.6-5.6s3.6-8.5,4.1-11.3s-1-2.9-1.2-4.8
				c-0.2-1.9,1.4-7,1.5-10.3C93.7,60.2,91.6,62.3,84.9,60.7z"/>
		</g>
	</g>
	<g id="Shape_630_1_" class="st0">
		<g>
			<path class="st6" d="M65.4,65.7c1.2-1.9,1.4-3.6-1.2-2.7s-5.4-0.1-6.8,2.2c0,0-3.2,5.8-0.3,7.7c2.9,1.9,6-0.5,8.4-2.6
				C67.8,68.3,64.2,67.6,65.4,65.7z"/>
		</g>
	</g>
	<g id="Shape_631_1_" class="st0">
		<g>
			<path class="st6" d="M88.3,67.1c-1.7-1.5-5.1-3.3-5-1.9c0,0-0.9,4.8,2.6,6.3C89.4,73.1,90.1,68.6,88.3,67.1z"/>
		</g>
	</g>
	<g id="Shape_632_1_" class="st0">
		<g>
			<path class="st6" d="M75.9,73.7c-1-1-2.5-2-2.7-1.2c0,0-2.2,2.7-0.3,3.4C74.7,76.7,76.9,74.8,75.9,73.7z"/>
		</g>
	</g>
	<g id="Shape_633_1_" class="st0">
		<g>
			<path class="st6" d="M74.7,55.6c-1.5-0.9-2.1,1.2-2.4,3.6c-0.3,2.4-0.1,6,0.2,7.2c0,0,0.3,3.4,1.7,3.9s0.7-4.4,1.2-6.8
				C75.9,61.1,76.2,56.5,74.7,55.6z"/>
		</g>
	</g>
	<g id="Shape_634_1_" class="st0">
		<g>
			<path class="st6" d="M80.7,46.2c-2.6-0.3-2.6-1.9-3.1-5.3c-0.5-3.4-0.9-3.6-4.1-4.6c-3.2-1-5.1-1.2-8.7-0.5
				c-3.6,0.7-3.1,3.6-4.1,6.7c-1,3.1-2.4,7-2.4,7c-1.2,3.4,8.4,3.8,10.1,3.1c1.7-0.7,3.9-0.3,6-0.9c2.1-0.5,4.1,0.2,5.5,0.5
				c1.4,0.3,2.4-1,4.1-3.1C85.6,47.1,83.2,46.6,80.7,46.2z"/>
		</g>
	</g>
	<g id="Shape_667_1_" class="st0">
		<g>
			<path class="st7" d="M61,93.6c-1.9-2.2-3.6-5.4-4.4-7.7c-0.9-2.3,0.5-3.1,1.7-3.8c1.2-0.7,3.6-3.5,5.5-5.5s4.5-5.1,2.9-4.8
				s-5.4,3.7-7.9,5.1c-2.5,1.5-4.2-0.9-4.6-2.7c-0.4-1.9-2.3-9.1-2.9-11.5c-0.6-2.3-0.8-5.6,0-8.4s0.3-3.9,0.3-3.9
				c-0.5-4-2.3,4.1-2.7,5.6c-0.4,1.5-0.7,4.5-1.5,7.5c-0.9,3,0.3,3.2,1.2,4.8c0.9,1.5,2.1,5.3,2.4,7.4s0.4,5.1,0.5,8
				c0.1,2.9,2,6.5,3.9,9.1c2,2.6,5.6,5.9,7.5,6.8c2,0.9,4.8,2.1,4.1,0.5C66.3,98.7,62.9,95.8,61,93.6z"/>
		</g>
	</g>
	<g id="Shape_635_1_" class="st0">
		<g>
			<path class="st6" d="M73.6,96.1c-2.9-1.2-4.6-0.5-7.9-2.6c-3.2-2.1-1.9-6.7-1.9-6.7c-1.1-1.6-3.8-2.9-3.8-0.5
				c0,2.4-0.2,6.2,1.5,8c1.7,1.9,3.1,4.8,5.8,6.8c2.7,2.1,8,1.7,9.2-1S76.5,97.3,73.6,96.1z"/>
		</g>
	</g>
	<g id="Shape_636_1_" class="st0">
		<g>
			<path class="st8" d="M65.6,72.4c-1.4,1-2.6,2.5-3.2,3.4s-1.8,1.8-2.9,3.1c-1.1,1.3-2.1,4.4-0.5,4.1c0,0,1.1-0.7,1.2-1.2
				s1-1.9,2.1-2.4s1.7-2.2,2.4-2.9c0.7-0.7,2-2,2.6-2.4c0.6-0.4,0.3-1.4,1-2.2S67,71.4,65.6,72.4z"/>
		</g>
	</g>
	<g id="Shape_641_1_" class="st0">
		<g>
			<path class="st9" d="M76.2,98c-1.3-2.2-5.6-2-8.4-2.7s-3.4-3.8-4.4-6.2C62.4,86.7,62,84,62,84c-0.5-1-1.9,3.2-2.2,5.1
				c-0.3,2,2.1,6.3,3.4,7.4c1.3,1,2.7,3.8,4.8,5.5c2.1,1.7,5.4,0.9,8,0.5C78.7,102,77.5,100.3,76.2,98z"/>
		</g>
	</g>
	<g id="Shape_642_1_" class="st0">
		<g>
			<path class="st10" d="M68.9,59.4c-1.1-0.5-1.8-2.7-4.8-3.6c-3-0.9-8.5,1-8.5,1c-0.9,0.6-3.9,0.3-2.4,2.1c2.1,2.5,4.9,2.7,6,2.2
				c1.1-0.4,3.3,0.3,4.8-0.3c1.5-0.6,2.6-0.3,3.8-0.3S70,59.9,68.9,59.4z"/>
		</g>
	</g>
	<g id="Shape_643_1_" class="st0">
		<g>
			<path class="st11" d="M88.3,77.5c-2.4-1.9-2.4-0.2-3.6-0.9c-1.2-0.7-0.5-2.6-1.4-3.6c-0.9-1-1.4-1.6-2.1-2.4
				c-0.7-0.8-1.1-1-2.6-0.5c-1.5,0.5-0.9,5-1,5.8c-0.2,0.8-1.1,1.9-2.9,2.1s-2.6-0.5-4.3-1.4s-1.7-0.2-1.7-0.2
				c1.1,0.1,3.2,2.4,4.6,2.4c1.5,0,2.6,1.9,4.3,1.5c1.6-0.3,3.2-1,4.3-2.2c1.1-1.2,1.4,0.1,2.2,0.2c0.9,0.1,4.1,1.4,5.5,2.1
				C91.1,81.1,90.7,79.4,88.3,77.5z"/>
		</g>
	</g>
	<g id="Shape_644_1_" class="st0">
		<g>
			<path class="st12" d="M82.4,73.1c-1.1-1.1-0.6,0.1-0.3,0.7c0.3,0.6,0.2,1.8-0.5,2.2c-0.7,0.5-2.2,0.9-3.4,1.2
				c-1.3,0.3-2.1,2.1-2.1,2.1c0.8,0.5,2.6-0.2,3.1-0.9c0.5-0.6,1.3-0.6,2.1-1c0.8-0.5,1.6-1,1.9-1.7C83.3,74.9,83.4,74.2,82.4,73.1z
				"/>
		</g>
	</g>
	<g id="Shape_649_1_" class="st0">
		<g>
			<path class="st13" d="M70.1,59.7c-0.4-1.5-1-3.2-1-3.2c-0.4-0.8-2.1-1.6-1.2-0.9c0.9,0.7,0.5,3.9,0.7,4.3
				c0.2,0.3,0.9,1.6,1.2,2.6C70,63.4,70.5,61.2,70.1,59.7z"/>
		</g>
	</g>
	<g id="Shape_637_1_" class="st0">
		<g>
			<path class="st14" d="M77.2,78.7c-1,0.8,2.1-0.7,2.6-1.4c0.2-0.2,0.4-0.3,0.5-0.4c-0.1,0.1-0.3,0.1-0.6,0.3
				C78.3,77.6,77.2,78.7,77.2,78.7z M80.3,76.9C80.5,76.8,80.4,76.8,80.3,76.9L80.3,76.9z"/>
		</g>
	</g>
	<g id="Shape_645_1_" class="st0">
		<g>
			<path class="st15" d="M67.1,53.7c-1.2-0.7-5.2-2.2-7.4-1.9s-6,1.3-7.4,3.4c0,0,4.4-2.6,6.7-2.6c2.3,0,4.4,0.3,5.5,1.2
				c1.1,0.9,2.6,2.1,3.6,1.4C69.1,54.6,68.3,54.4,67.1,53.7z"/>
		</g>
	</g>
	<g id="Shape_647_1_" class="st0">
		<g>
			<path class="st16" d="M66.8,58.4c-0.3-0.7-0.2-0.5-1-1c-0.9-0.6-3.3-1-4.6-1.4s-3.1,0.6-3.9,1c-0.9,0.5-2.8,0.6-2.7,1.4
				c0.1,0.7,1.8,2.4,2.9,2.9c1.1,0.5,1.1,0.3,0.9-0.2c-0.2-0.5,1.5,0,2.2,0c0.7,0,5.5-0.6,6.2-0.9c0.6-0.2,1.9,0.5,1.9,0.5
				C68.4,60.1,67.1,59,66.8,58.4z"/>
		</g>
	</g>
	<g id="Shape_665_1_" class="st0">
		<g>
			<path class="st17" d="M65.9,59.6c-0.6-0.2-2.3,0.5-3.9,0.7c-1,0.1-2.2-0.1-2.2-0.1s-3.1-1-1.3,0s4.6,0.5,5.6,0.2
				c1.1-0.3,1.4-0.3,1.4-0.3l2.4,0.3C68,60.2,66.6,59.8,65.9,59.6z"/>
		</g>
	</g>
	<g id="Shape_646_1_" class="st0">
		<g>
			<path class="st18" d="M66.3,59c-0.6-0.3-0.6-0.8-1.4-1.4c-0.8-0.6-1.8-0.7-3.2-1.2c-1.5-0.5-3.4,0.2-4.3,0.9
				c-0.9,0.6-2.1,1.4-2.1,1.4s-0.1,0.7,1,1.2c0.8,0.4,1.2,0.7,1.9,0.5c0.3-0.1,2.3-0.1,1.6-0.3c-2.5-0.6-2.1-1.4-2.1-1.4
				s0.6-0.1,1.4-0.5c0.8-0.5,3.1-0.4,3.6-0.3C63.2,58,66.9,59.3,66.3,59z"/>
		</g>
	</g>
	<g class="st0">
		<defs>
			<path id="SVGID_4_" d="M61.4,57.7c-2.3,0-3.6,1-3.6,1c2,2.4,7.9,0.5,7.9,0.5S63.6,57.7,61.4,57.7z"/>
		</defs>
		<clipPath id="SVGID_5_">
			<use xlink:href="#SVGID_4_"  style="overflow:visible;"/>
		</clipPath>
		<g class="st19">
			<g id="Shape_648_3_">
				<g>
					<path class="st20" d="M62,58.5c-2,0.2-3.5,1.4-3.5,1.4c1.9,3.3,7.8,0.4,7.8,0.4S63.9,58.3,62,58.5z"/>
				</g>
			</g>
			<g id="Ellipse_15_copy_1_">
				<g>
					<circle class="st21" cx="62.1" cy="60" r="2.2"/>
				</g>
			</g>
			<g id="Ellipse_15_1_">
				<g>
					<circle class="st22" cx="62.1" cy="60" r="1"/>
				</g>
			</g>
			<g id="Shape_656_1_">
				<g>
					<path class="st23" d="M70.2,81.2C70.2,81.2,70.2,81.2,70.2,81.2C70.2,81.2,70.2,81.2,70.2,81.2z M76.2,81.2
						c-1.8,0.2-2.2,0.2-3.4-0.3c-1-0.4-2.3,0.1-2.6,0.3c0.4,0.1,3.2,1.8,3.8,1.7C74.7,82.8,78,81,76.2,81.2z"/>
				</g>
			</g>
		</g>
	</g>
	<g id="Ellipse_15_copy_2_1_" class="st0">
		<g>
			<circle class="st24" cx="61.3" cy="58.5" r="0.5"/>
		</g>
	</g>
	<g id="Shape_650_1_" class="st0">
		<g>
			<path class="st25" d="M85.1,82.8C84,83.2,82.6,83.4,80,83c-2.6-0.4-3.9,0.9-4.8,1.2c-0.9,0.3-1.5-0.2-2.4-0.7s-3-0.5-5-0.5
				s-5.3-0.5-5.3-0.5c-1,0-0.3,0.4,0.3,1.5s1.1,2.8,2.2,4.3c1.1,1.4,2.6,2.6,4.6,3.4c2,0.8,5.4,1.1,7.9,0.7c2.5-0.5,5.5-2.8,6-3.4
				s1.6-4.2,2.1-4.8C86.1,83.6,86.2,82.5,85.1,82.8z"/>
		</g>
	</g>
	<g id="Shape_654_1_" class="st0">
		<g>
			<path class="st26" d="M84.6,84c-0.4-0.1-0.9,0.3-1.5,0.5c-0.6,0.2-7.3,2.2-8.4,1.9c-1.1-0.3-11-2.1-8.2-0.2c0,0,1.7,1.4,3.2,2.1
				c1.5,0.6,4.2,1.2,6,1s2.9-0.6,4.3-1.2s1.9-1.1,2.7-1.9S85,84.1,84.6,84z"/>
		</g>
	</g>
	<g id="Shape_653_1_" class="st0">
		<g>
			<path class="st27" d="M83.2,83.8c-1.2,0.3-2.9,0.3-3.4,0.5s-2,0.5-2.2,0.5c-0.2,0-1.7,0.4-2.4,0.3c-0.7,0-2.4-0.5-3.1-0.5
				c-0.7,0-3.2-0.7-3.9-0.9s-5.6-0.8-5.3-0.5l2.4,2.4c0,0,4.3,1.2,5.1,1.5c0.9,0.3,3,0.9,4.4,0.7c1.4-0.2,2.9,0.6,3.9,0
				c1-0.6,3.8-1.9,4.4-2.6c0.6-0.7,2.1-2.1,2.1-2.1S84.4,83.5,83.2,83.8z"/>
		</g>
	</g>
	<g id="Shape_652_1_" class="st0">
		<g>
			<path class="st28" d="M81.7,84.5c-0.4,0.2-0.3,1.5-0.3,1.5s1,0.4,1.2,0c0.2-0.4,0.2-1.7,0.2-1.7S82.1,84.3,81.7,84.5z"/>
		</g>
	</g>
	<g id="Shape_651_1_" class="st0">
		<g>
			<path class="st29" d="M80.3,84.5c-0.4,0.2-1.1,0.3-1.7,0.5c-0.9,0.3-2.4,0.2-3.1,0.3c-0.9,0.2-1.6-0.1-3.1-0.3
				c-0.7,0-2-0.4-2.6-0.5c-0.5-0.1-0.8-0.2-2.1-0.3c-0.7,0-1.1-0.3-1.4-0.2s-1.2-0.4-1.2-0.2c0,0-0.1,1.6,0.5,1.7
				c0.6,0.1,0.6,0.2,0.7,0.5c0.1,0.3,0.6,0.4,1,0.3c0.5,0,0.1,0.2,0.5,0.5c0.4,0.3,1.2,0,1.5,0.2c0.3,0.1,0,0.7,0.7,0.9
				c0.7,0.2,0.9-0.2,1.4,0.2c0.4,0.3,2,0.6,3.1,0.2c0.3-0.6,0.2,0.1,1,0.2s2.3,0.1,2.7-0.7c0.6,0,1.2,0,1.5-0.3c0.6,0,1.3-0.5,1.5-1
				c0.2-0.6,0.3-2.1,0.3-2.1S80.6,84.4,80.3,84.5z"/>
		</g>
	</g>
	<g id="Shape_655_1_" class="st0">
		<g>
			<path class="st30" d="M73,90.5c-1.3-0.3-2.2-0.7-2.2-0.7c-1-0.3-1.2,0.6-0.2,1.2s4.4,0.9,5,0.7S74.2,90.8,73,90.5z"/>
		</g>
	</g>
	<g id="Shape_657_1_" class="st0">
		<g>
			<path class="st31" d="M61.7,78.4c-1.3,0.8-2.4,2.6-2.7,3.6c-0.3,1,0.5,1.6,0.5,1s0.7-2,1.7-3.1s3.4-3.4,3.4-3.4
				S63,77.6,61.7,78.4z"/>
		</g>
	</g>
	<g id="Shape_658_1_" class="st0">
		<g>
			<path class="st32" d="M103,110.9c-0.5-2.8-7.8,0.6-9.7-0.2s-6,8.6-7.4,10.4c-1.4,1.8-3.7,5-2.7,2.6s1.2-9.2-0.5-10.6
				c-1.7-1.4-4.1-0.5-5.1-2.4c-1-1.9-3.3-3.2-6.3-4.1c-3.2-1-6.5-2-7.4-2.9c-0.9-0.9-5.3-6.2-5.3-6.2c-1.8-1.9,3.8,15.2,4.6,17.8
				c0.8,2.6,2.9,10.9,2.7,10.4c-0.2-0.4-3.9-8.5-4.6-10.1c-0.7-1.6-1.7-10.2-2.4-12.3c-0.7-2.1-0.9,2.7-0.9,5c0.1,2.2,0.8,0.6-1,3.8
				c-1.8,3.2-2.7,7.7-2.1,13.7c0.7,6,8.9,7.7,16.1,7.9c7.2,0.2,18.8-5,25.3-12.3C98.7,118.7,103.6,113.7,103,110.9z"/>
		</g>
	</g>
	<g id="Shape_659_1_" class="st0">
		<g>
			<path class="st33" d="M49,73.2c-0.6-1.8,0.1-1.8-0.5-4.1c-0.6-2.3-2.7-2.2-2.7-2.2c-3.1,2.7-1.9,1.9-1,3.1c0.9,1.1-1.4,0.5-2.1,0
				s0.9,3.1,1.4,4.3c0.5,1.1,0.8,3,2.1,3.1c1.3,0.1-0.2,0.3,1,1.9c1.3,1.5,1.9,1,2.6-0.5C50.3,77.2,49.7,75.1,49,73.2z"/>
		</g>
	</g>
	<g id="Shape_662_1_" class="st0">
		<g>
			<path class="st34" d="M93.5,52.5c-1-1.3-5.5-1-8.4-0.3c-2.9,0.7-5.5,3.1-6.2,5.8c-0.7,2.7,0.8,2.6,2.1,2.1
				c1.3-0.5,2.2,0.3,5.8,0.9c3.6,0.5,3.1-0.4,4.8-1.4s-0.1,0.3-0.3-1.2c-0.3-1.5-9.8-0.5-9.2-1.2c3-3.8,11.2-1.6,12.1-2.2
				C95.5,54,93.5,52.5,93.5,52.5z"/>
		</g>
	</g>
	<g id="Shape_661_1_" class="st0">
		<g>
			<path class="st35" d="M94.3,51.9c-1.4-1.3-3.8-1.3-6.2-1.4c-2.4-0.1-3.2,0.8-5.5,1.7c-2.2,0.9-2.8,2.7-3.9,4.3
				c-1.1,1.5-0.5,4.8-0.5,4.8c0.2-0.5,0.9-0.9,0.9-1.5c-0.1-0.7,0-1.5,0.3-2.7c0.3-1.2,1.8-1.5,2.7-2.2c0.9-0.8,2-1.7,3.6-2.6
				c1.6-0.9,4.6-0.4,5.6-0.3s3.4,1.5,3.4,1.5S95.7,53.1,94.3,51.9z"/>
		</g>
	</g>
	<g id="Shape_642_copy_1_" class="st0">
		<g>
			<path class="st10" d="M92.6,58.2c-0.5-0.6-1-1.5-1.9-2.1c0,0-3.6-1.3-6.6-0.4s-3.7,3.1-4.8,3.6s0.1,1,1.2,1
				c1.1,0.1,2.3-0.3,3.7,0.3s3.7-0.1,4.8,0.3C90.2,61.6,93.7,59.5,92.6,58.2z"/>
		</g>
	</g>
	<g id="Shape_647_copy_1_" class="st0">
		<g>
			<path class="st16" d="M91,57c-0.9-0.5-2.6-1.4-3.9-1c-1.3,0.4-3.7,0.8-4.6,1.4s-0.7,0.3-1,1c-0.3,0.7-1.6,1.8-1.7,2.4
				c0,0,1.2-0.8,1.9-0.5s5.5,0.9,6.1,0.9s2.4-0.5,2.2,0s-0.3,0.7,0.9,0.2s2.4-1.5,2.5-2.3C93.4,58.3,91.8,57.4,91,57z"/>
		</g>
	</g>
	<g id="Shape_646_copy_1_" class="st0">
		<g>
			<path class="st18" d="M92.8,58.7c0,0-1.2-0.8-2-1.4s-2.8-1.4-4.3-0.9c-1.5,0.5-2.4,0.6-3.2,1.2c-0.8,0.6-0.7,1.1-1.4,1.4
				c-0.6,0.3,3.2-0.8,3.7-0.9s2.6-0.4,3.4,0.1c0.8,0.5,1.4,0.5,1.4,0.5s0.2,0.8-2,1.4c-0.7,0.2,1.2,0.2,1.5,0.3
				c0.7,0.2,1.1-0.1,1.9-0.5C92.9,59.4,92.8,58.7,92.8,58.7z"/>
		</g>
	</g>
	<g class="st0">
		<defs>
			<path id="SVGID_6_" d="M87.1,57.7c-2.2-0.2-4.3,1.6-4.3,1.6s6,1.8,7.9-0.5C90.8,58.8,89.4,57.9,87.1,57.7z"/>
		</defs>
		<clipPath id="SVGID_7_">
			<use xlink:href="#SVGID_6_"  style="overflow:visible;"/>
		</clipPath>
		<g class="st36">
			<g id="Shape_648_copy_1_">
				<g>
					<path class="st20" d="M86.8,55.8c-1.9-0.2-5.3,3.2-5.3,3.2s7.1,2.5,10.1,0C91.5,59,88.8,55.9,86.8,55.8z"/>
				</g>
			</g>
			<g id="Ellipse_15_copy_5_1_">
				<g>
					<ellipse class="st21" cx="86.7" cy="58.7" rx="2.2" ry="2.3"/>
				</g>
			</g>
			<g id="Ellipse_15_copy_4_1_">
				<g>
					<ellipse class="st22" cx="86.7" cy="58.7" rx="1" ry="1"/>
				</g>
			</g>
			<g id="Ellipse_15_copy_3_1_">
				<g>
					<ellipse class="st24" cx="86" cy="58.3" rx="0.4" ry="0.4"/>
				</g>
			</g>
		</g>
	</g>
	<g id="Shape_664_1_" class="st0">
		<g>
			<path class="st6" d="M91.3,62.1c-1.4,0-7.4-0.1-7.4-0.1c-0.5,0.1,0.1,0.5,1.3,0.5c1.3-0.1,5.5,0.4,6.5,0.4
				C92.7,62.8,92.7,62.1,91.3,62.1z"/>
		</g>
	</g>
	<g id="Shape_664_copy_1_" class="st0">
		<g>
			<path class="st6" d="M66.6,61.6c0,0-5.9,0.1-7.4,0.1c-1.4,0-1.4,0.7-0.5,0.7c1,0,5.2-0.5,6.5-0.4C66.6,62.1,67.1,61.6,66.6,61.6z
				"/>
		</g>
	</g>
	<g id="Shape_665_copy_1_" class="st0">
		<g>
			<path class="st17" d="M89.6,59.5c0,0-1.7,1.1-3.3,0.8c-1.7-0.3-3.3-0.9-3.9-0.7s-2.1,0.7-2.1,0.7l2.4-0.3c0,0,0.3,0.1,1.4,0.3
				c1.1,0.3,3.8,0.7,5.6-0.2C91.6,59.2,89.6,59.5,89.6,59.5z"/>
		</g>
	</g>
	<g id="Shape_668_1_" class="st0">
		<g>
			<path class="st4" d="M45.1,68.8c-0.8-1.4-0.3-4.3-0.3-4.3c-0.3-0.7-2.7,0.7-2.9,2.7c-0.2,2.1,1.9,3.7,2.6,3.8
				c0.7,0.1,2,2.1,2.2,1.4C46.9,71.6,45.9,70.2,45.1,68.8z"/>
		</g>
	</g>
	<g id="Shape_666_1_" class="st0">
		<g>
			<path class="st35" d="M99.5,64.5c0,0,0.3,2.7-0.3,3.9c-0.6,1.2-1.8,4.2-1,5.5s0.7-3.1,2.1-3.6C101.5,69.8,100.3,66.2,99.5,64.5z"
				/>
		</g>
	</g>
</g>
</svg>
