<?xml version="1.0" encoding="utf-8"?>
<!-- Generator: Adobe Illustrator 19.1.0, SVG Export Plug-In . SVG Version: 6.00 Build 0)  -->
<svg version="1.1" id="Layer_1" xmlns="http://www.w3.org/2000/svg" xmlns:xlink="http://www.w3.org/1999/xlink" x="0px" y="0px"
	 viewBox="0 0 70 70" style="enable-background:new 0 0 70 70;" xml:space="preserve">
<style type="text/css">
	.st0{clip-path:url(#SVGID_3_);}
	.st1{fill-rule:evenodd;clip-rule:evenodd;fill:#434343;}
	.st2{fill-rule:evenodd;clip-rule:evenodd;fill:#C2ADAC;}
	.st3{fill-rule:evenodd;clip-rule:evenodd;fill:#974036;}
	.st4{fill-rule:evenodd;clip-rule:evenodd;fill:#FFFFFB;}
	.st5{fill-rule:evenodd;clip-rule:evenodd;fill:#F6CDC4;}
	.st6{fill-rule:evenodd;clip-rule:evenodd;fill:#EABAAF;}
	.st7{fill-rule:evenodd;clip-rule:evenodd;fill:#CB7161;}
	.st8{fill-rule:evenodd;clip-rule:evenodd;fill:#C48980;}
	.st9{fill-rule:evenodd;clip-rule:evenodd;fill:#AF7970;}
	.st10{fill-rule:evenodd;clip-rule:evenodd;fill:#6F3416;}
	.st11{fill-rule:evenodd;clip-rule:evenodd;fill:#E3ACA2;}
	.st12{fill-rule:evenodd;clip-rule:evenodd;fill:#A0766A;}
	.st13{fill-rule:evenodd;clip-rule:evenodd;fill:#80584C;}
	.st14{fill-rule:evenodd;clip-rule:evenodd;fill:#D6988E;}
	.st15{fill-rule:evenodd;clip-rule:evenodd;fill:#E8BBB4;}
	.st16{fill-rule:evenodd;clip-rule:evenodd;fill:#FDE6E0;}
	.st17{fill-rule:evenodd;clip-rule:evenodd;fill:#C78A7F;}
	.st18{fill-rule:evenodd;clip-rule:evenodd;fill:#AF776E;}
	.st19{fill-rule:evenodd;clip-rule:evenodd;fill:#F3D7D6;}
	.st20{fill-rule:evenodd;clip-rule:evenodd;fill:#68451F;}
	.st21{fill-rule:evenodd;clip-rule:evenodd;fill:#2F1D13;}
	.st22{fill-rule:evenodd;clip-rule:evenodd;fill:#F3E1DF;}
	.st23{fill-rule:evenodd;clip-rule:evenodd;fill:#B37F75;}
	.st24{fill-rule:evenodd;clip-rule:evenodd;fill:#F7D6CC;}
	.st25{fill-rule:evenodd;clip-rule:evenodd;fill:#65443E;}
	.st26{fill-rule:evenodd;clip-rule:evenodd;fill:#A26F64;}
	.st27{fill-rule:evenodd;clip-rule:evenodd;fill:#DE978F;}
	.st28{fill-rule:evenodd;clip-rule:evenodd;fill:#6A443F;}
	.st29{fill-rule:evenodd;clip-rule:evenodd;fill:#916254;}
	.st30{fill-rule:evenodd;clip-rule:evenodd;fill:#8D523A;}
	.st31{fill-rule:evenodd;clip-rule:evenodd;fill:#9D6E64;}
	.st32{fill-rule:evenodd;clip-rule:evenodd;fill:#9B6358;}
	.st33{fill-rule:evenodd;clip-rule:evenodd;fill:#503F3B;}
	.st34{fill-rule:evenodd;clip-rule:evenodd;fill:#D3B7B6;}
	.st35{fill-rule:evenodd;clip-rule:evenodd;fill:#A37063;}
	.st36{fill-rule:evenodd;clip-rule:evenodd;fill:#9F6E64;}
	.st37{fill-rule:evenodd;clip-rule:evenodd;fill:#92685B;}
	.st38{fill-rule:evenodd;clip-rule:evenodd;fill:#EDC0B6;}
	.st39{fill-rule:evenodd;clip-rule:evenodd;fill:#8F6053;}
	.st40{fill-rule:evenodd;clip-rule:evenodd;fill:#543832;}
	.st41{fill-rule:evenodd;clip-rule:evenodd;fill:#6B605F;}
	.st42{fill-rule:evenodd;clip-rule:evenodd;fill:#74493D;}
</style>
<g>
	<defs>
		<circle id="SVGID_1_" cx="35" cy="35" r="35"/>
	</defs>
	<linearGradient id="SVGID_2_" gradientUnits="userSpaceOnUse" x1="35" y1="70" x2="35" y2="-9.094947e-13">
		<stop  offset="0" style="stop-color:#212121"/>
		<stop  offset="1" style="stop-color:#EF4438"/>
	</linearGradient>
	<use xlink:href="#SVGID_1_"  style="overflow:visible;fill:url(#SVGID_2_);"/>
	<clipPath id="SVGID_3_">
		<use xlink:href="#SVGID_1_"  style="overflow:visible;"/>
	</clipPath>
	<g id="Shape_848_7_" class="st0">
		<g>
			<path class="st1" d="M67.7,49c-0.4-0.1-7.1-1.7-10.5-2.3c-3.4-0.7-10.6-5-10.6-5S25.5,43.2,23.8,43c-1.7-0.1-6.2,3.6-8.2,4.6
				c-2.1,0.9-9.5,2.8-10.6,3.4c-1.1,0.6-3,22.1-3,22.1h68.2c0,0,0.1-7.8,0.3-9.7C70.5,61.5,68.1,49.1,67.7,49z"/>
		</g>
	</g>
	<g id="Shape_852_7_" class="st0">
		<g>
			<path class="st2" d="M39.5,53.8l-4.6,1.2c0,0-1.9,0.1-4-0.6C28.7,53.8,25,54,25,54l3.2,20.4l11.5-0.5c0,0,3.6-19.8,4-22.4
				C44,49,39.5,53.8,39.5,53.8z"/>
		</g>
	</g>
	<g id="Shape_853_7_" class="st0">
		<g>
			<path class="st3" d="M35.7,64.2c-0.6-1.7-1.7-2.6-0.6-3.9c1.1-1.3,2.2-1.7,2.4-2.9c0.2-1.2-2.3-2.8-2.3-2.8s-2.8,0.1-3.4,0
				c-0.7-0.1-2,2.4-2,2.4s1.1,3.9,1.2,4.8c0.2,0.9-3.2,6-2.9,10c0.3,4,9.5,1.2,9.5,1.2S36.4,66.2,35.7,64.2z"/>
		</g>
	</g>
	<g id="Shape_849_7_" class="st0">
		<g>
			<path class="st4" d="M23.6,44.8c0,0-0.9,2.9,0.2,5.9c1.1,3,2.8,12.6,2.8,12.6s3.2-5.8,4.3-6.7c1.1-1,2.2-1.8,2.2-1.8L23.6,44.8z"
				/>
		</g>
	</g>
	<g id="Shape_850_7_" class="st0">
		<g>
			<path class="st4" d="M44.6,45.6c-0.1-0.5-10.7,8.3-10.5,9.1c0,0,4.3,4.4,5.6,6.5s1.4-1.8,1.8-3.8s2.4-6.8,2.6-8
				C44.3,48.1,44.6,46.1,44.6,45.6z"/>
		</g>
	</g>
	<g id="Shape_148_15_" class="st0">
		<g>
			<path class="st5" d="M49.7,28.7c0.2-0.6,0.7-2.9-0.3-3.5c-0.9-0.5-1.1,0.5-1.4,1.2s-1.1,1.1-1.2,2.1c-0.2,0.9-0.3,3-0.2,3.8
				c0.2,0.9,0.4,4.6,0.4,4.6s0.9,0.7,1.8-0.3c1.3-1.5,0.5-2.1,0.7-3.8C49.5,31.1,49.5,29.4,49.7,28.7z"/>
		</g>
	</g>
	<g id="Shape_152_15_" class="st0">
		<g>
			<path class="st6" d="M49.7,25.7c-0.2-0.2-0.4-0.4-0.5-0.5c-0.8-0.3-0.9,0.6-1.2,1.2c-0.3,0.7-1.1,1.1-1.2,2.1
				c-0.2,0.9-0.3,3-0.2,3.8c0.2,0.9,0.4,4.6,0.4,4.6s0.9,0.7,1.8-0.3c0.9-1.1,0.8-1.7,0.7-2.6c-0.2,0-0.5,0.3-0.6,0
				c-0.2-0.3-0.5-0.7-0.3-0.9s0.3-0.7,0.5-1.3c0.3-0.6-0.8-1.6-1.2-2.2c-0.4-0.5-0.1-1.3,0.2-1.8c0.3-0.4,1,2.3,1.1,1.7
				c0-0.4,0.4-1.1,0.6-1.7C49.9,27.2,50,26.3,49.7,25.7z"/>
		</g>
	</g>
	<g id="Shape_151_15_" class="st0">
		<g>
			<path class="st7" d="M48.1,30.1c-0.4-0.1-1.2-1.2-1.1,0.1c0,0,0.4,0.3,0.4,1s-0.3,2.3,0.9,1S48.6,30.2,48.1,30.1z M49.2,27.1
				c-0.4-0.2-0.8-0.3-0.9,0.3c0,0,0.4,0.1,0.4,0.5c0,0.4,0.1,1,0.3,1.3c0.2,0.3,0-0.1,0.2-0.6C49.3,28,49.7,27.3,49.2,27.1z
				 M48.9,32.2c0,0-0.2,1-0.6,1c-0.4,0,0.3,0.5,0.4,0.9c0.1,0.4,0.2-0.2,0.3-0.6S49.1,31.9,48.9,32.2z"/>
		</g>
	</g>
	<g id="Shape_148_13_" class="st0">
		<g>
			<path class="st8" d="M21.7,28.5c-0.2-0.9-0.9-1.4-1.2-2.1c-0.3-0.7-0.4-1.7-1.4-1.2c-0.9,0.5-0.4,2.8-0.3,3.5s0.1,2.4,0.2,4.1
				c0.1,1.7-0.6,2.3,0.7,3.8c0.9,1,1.8,0.3,1.8,0.3s0.2-3.7,0.4-4.5C22.1,31.4,21.9,29.4,21.7,28.5z"/>
		</g>
	</g>
	<g id="Shape_152_13_" class="st0">
		<g>
			<path class="st9" d="M21.6,36.9c0,0,0.2-3.7,0.4-4.5c0.2-0.9,0-2.9-0.2-3.8c-0.2-0.9-0.9-1.4-1.2-2.1c-0.3-0.6-0.4-1.5-1.2-1.2
				c-0.2,0.1-0.4,0.3-0.5,0.5c-0.3,0.6-0.2,1.5-0.1,2.2c0.3,0.7,0.6,1.3,0.6,1.7c0.1,0.7,0.8-2.1,1.1-1.7c0.3,0.4,0.5,1.2,0.2,1.7
				c-0.4,0.5-1.4,1.6-1.2,2.2c0.3,0.6,0.3,1.1,0.5,1.3c0.3,0.2,0,0.5-0.3,0.9c-0.1,0.2-0.4-0.1-0.6,0c-0.1,0.9-0.2,1.5,0.7,2.6
				C20.6,37.6,21.6,36.9,21.6,36.9z"/>
		</g>
	</g>
	<g id="Shape_151_13_" class="st0">
		<g>
			<path class="st10" d="M21,31.3c0-0.7,0.4-1,0.4-1c0.1-1.3-0.7-0.2-1.1-0.1c-0.4,0.1-1.5,0.9-0.3,2.1C21.3,33.5,21,32,21,31.3z
				 M19.8,27.9c0-0.4,0.4-0.5,0.4-0.5c-0.1-0.6-0.4-0.5-0.9-0.3c-0.4,0.2-0.1,1,0,1.5c0.1,0.5,0,0.9,0.2,0.6
				C19.6,28.9,19.8,28.3,19.8,27.9z M20.2,33.2c-0.4,0-0.6-1-0.6-1c-0.3-0.3-0.2,0.9-0.1,1.4c0.1,0.4,0.2,1,0.3,0.6
				C19.9,33.7,20.6,33.2,20.2,33.2z"/>
		</g>
	</g>
	<g id="Shape_146_7_" class="st0">
		<g>
			<path class="st8" d="M47.1,31.3c-0.4-3,0-8.8,0-8.8c1-3.6-4-10.6-4.7-11.7c-0.7-1.1-2.6-2.4-3.5-2.6C38,7.9,33,8.6,32.2,8.7
				c-0.8,0-4.2,1.1-5.9,2.3c-1.7,1.1-2.3,2-3.7,4.9c-1.4,2.9-1.1,3.4-1,5.8c0.2,2.4,0.2,3.7-0.2,6.5c-0.4,2.8-0.2,5.2,0.1,9.2
				s1.9,4.3,2.1,7.2c0.2,2.9,1.3,5,3.3,6.7c2,1.7,4,3.8,6.4,4.2c2.4,0.3,4.2-1.6,5.3-2.6c1.1-0.9,2.8-1.3,4.2-2.8s1.9-2.8,2.2-4.7
				c0.3-1.9,1.4-2.6,1.9-4.7C47.4,38.3,47.5,34.4,47.1,31.3z"/>
		</g>
	</g>
	<g id="Shape_153_7_" class="st0">
		<g>
			<path class="st11" d="M45.5,29.5C45,28.5,43,27,45.2,24c0.6-0.8-0.2-3.9-0.2-3.9c0.1-2.4-1.7-6.6-2.6-7.6c-0.8-0.8-2-1.4-2.8-1.7
				c-1.1-0.3-2.4,0.3-2.9,1c-0.8,1.2-3.9,2-4.5,2.8c-1,1.2-3.4,0.7-3.2,2s1.3,3.1,0.7,3.4c-0.6,0.3-0.1,1.2-0.1,2.3
				c-0.1,1.1,2.2,0.9,2.8,1.8c0.6,0.8,0.7-0.7,1-1.3c0.3-0.8,1.1,1.8,0.7,2.6c-0.5,1.1,0.1,2.5,0,3.7s0.5,1.3-0.5,2s-1.8,1.8-1,1.5
				c0.8-0.3,0.8,0.1,1.6,0.8c0.2,0.2,1.8,0.4,2,0.2c1.2-1.4,2.6,1.8-0.2,0.6c-0.2-0.1-1.1,0.5-1.5,1c-0.6,0.7-0.5,2.4-1.3,2.6
				c-0.8,0.2-2.4,2.5-2,2.6c0.4,0.1,1.8,1.1,3.6,1.1s0.7,1.8-0.7,1.8s-4.5-0.2-3.3,0.9c1.2,1.1,0.3,1.2,3.2,1.2s1,2.2,2.3,2.2
				c1.3,0,2.6,0.2,3.9-1.6c0.6-0.9,1.4-1.9,2.1-2.1c0.6-0.2,0.7,1.1,1.9,0c1.4-1.2,1.8-3.3,1.4-4.6c-0.3-1,0-5.4,0.2-6.2
				C46,32,45.9,30.3,45.5,29.5z"/>
		</g>
	</g>
	<g id="Shape_854_7_" class="st0">
		<g>
			<path class="st12" d="M35.5,51.7c-1.3-1.8,0.1-2.3,1.1-2.5c1-0.2,0.5-0.4-1.1-0.6c-1.6-0.2-2.3,0-3.8-1c-1.5-0.9-3.1-2.2-3.5-3.4
				c-0.4-1.2-2.7-4.6-3.4-2.1c-0.7,2.5-1.3,0.9-2,0.1c-0.7-0.9,0.5,1.8,0.9,3.3c0.4,1.5-0.3,3.5,3.8,6.4c4.1,2.9,3.1,3.2,5.4,3.6
				c2.3,0.4,3.2-0.7,4.3-1.3c1.1-0.5,1.6-1.5,1.6-1.5S36.8,53.5,35.5,51.7z"/>
		</g>
	</g>
	<g id="Shape_874_7_" class="st0">
		<g>
			<path class="st13" d="M41.4,50.9c-1.2,0.4-2.3,0.8-3.4,1.8s-2.4,1.6-4.6,1.6c-2.2,0.1-2.9-1.5-5-2.7c-2.1-1.2-3.5-3.9-3.9-5.2
				c-0.4-1.3-1.4-2.8-1.4-2.8c-0.2-0.9,0.6,3.9,1.2,5s3,3.5,3.7,3.8c0.7,0.3,2,1.3,2.9,2.2c0.9,0.9,2.3,1.2,3.8,0.9
				c1.5-0.3,3.1-0.9,3.7-2.1C38.9,52,42.5,50.5,41.4,50.9z"/>
		</g>
	</g>
	<g id="Shape_154_7_" class="st0">
		<g>
			<path class="st14" d="M41.7,38.1c-0.1-1.5-1.2-3.3-1.9-4c-0.5-0.6-0.8-0.8-1.3-1.3c0,0-0.5-1.5-0.7-1c-0.1,0.2,1,1.5,0,2.5
				c-0.6,0.6,0.8-0.1,0.9,0.1c0.5,0.7,1.1,2.2,1.7,3.1C41.7,39.8,41.8,38.7,41.7,38.1z"/>
		</g>
	</g>
	<g id="Shape_183_7_" class="st0">
		<g>
			<path class="st15" d="M43.8,30.9c-0.9,0.6-1.4,1.4-3.5,0.4c-2.1-1-1.1,0.1-0.8,0.5c0,0,1.9,2.1,3.4,1.8s2.3-1.2,2.4-2.2
				C45.5,30.4,44.7,30.3,43.8,30.9z"/>
		</g>
	</g>
	<g id="Shape_156_7_" class="st0">
		<g>
			<path class="st8" d="M37.1,33.4c-0.3-0.2-1.2,0.3-1.2,0.3c0.1,0,0.5,0.4,0.8,0.7c0.3,0.3,0.5,0.2,0.7,0
				C37.5,34.2,37.4,33.6,37.1,33.4z"/>
		</g>
	</g>
	<g id="Shape_157_7_" class="st0">
		<g>
			<path class="st16" d="M35.7,30.8c-0.7-0.1-1.1-0.1-1.2,0c0,0-0.7,0.3-0.2,0.5c0.5,0.2,0.8,0,1.3,0.1
				C36.1,31.5,36.4,30.9,35.7,30.8z"/>
		</g>
	</g>
	<g id="Shape_158_7_" class="st0">
		<g>
			<path class="st16" d="M36.2,32.4c0,0-0.3,0.2-0.3,0.5s0.4,0,0.7-0.1S36.9,32.3,36.2,32.4z"/>
		</g>
	</g>
	<g id="Shape_159_7_" class="st0">
		<g>
			<path class="st17" d="M44.1,28.2c-0.3,0-0.8,0.7-0.6,0.9c0.2,0.2-0.2,0.8-0.9,1.2c-0.7,0.4-1.4,0.8-2.1,0.5
				c-0.8-0.2-0.6-1.1-0.7-1.4c-0.2-0.3,0.2-0.2,0.2-0.4c-0.1-0.2-0.7-0.6-0.2-0.8c0.5-0.2,1.1,0,1-0.2s0.6-0.4,0.9-0.5
				c0.3-0.1,0.7-0.3,1.2,0s0.8,0,0.3-0.4c-0.5-0.4-1.6-1.1-2.3-1.8c-0.7-0.7,1.1-0.8,1.6-0.7c0.5,0,0.8,0.9,1,1.1
				c0.2,0.2,0.5,0.2,0.4-0.5c0-0.6-0.7-1.3-1.5-1.8s-2.7-0.2-3.8,0c-1.2,0.2-1.1,0.3-1.3,0.9s-0.8,0.6-1.1,2s0.8,2.4,1.6,2.7
				c0.8,0.3,1.2,1.2,2.6,2c1.5,0.9,2.9-0.3,3.6-1C44.8,29.6,44.1,28.2,44.1,28.2z"/>
		</g>
	</g>
	<g id="Shape_856_7_" class="st0">
		<g>
			<path class="st18" d="M40,27.4c-0.8-0.1-1.9-0.3-2-0.5c-0.1-0.2,0.1-0.5,0.1-0.9s-0.3-0.1-0.8,0.3s-0.9,0.6-0.9,0.6
				s-0.3,0.7,0.6,1.3c0.9,0.6,1.1,0.6,1.5,0.9c0.4,0.3,0.1-0.3,0-0.7c0-0.3,0.4-0.5,1.3-0.6C40.8,27.7,40.8,27.5,40,27.4z"/>
		</g>
	</g>
	<g id="Shape_161_7_" class="st0">
		<g>
			<path class="st19" d="M41.1,26.3c-0.4-0.3-2.5-0.9-3-0.1c-0.2,0.3,0,0.7-0.2,0.6c0,0,0.2,0.6,1,0.7s2.5,0,3.2-0.5
				C42,26.8,41.5,26.6,41.1,26.3z"/>
		</g>
	</g>
	<g id="Ellipse_4_7_" class="st0">
		<g>
			<circle class="st20" cx="39.8" cy="26.6" r="1"/>
		</g>
	</g>
	<g id="Ellipse_4_copy_7_" class="st0">
		<g>
			<circle class="st21" cx="39.8" cy="26.6" r="0.5"/>
		</g>
	</g>
	<g id="Ellipse_4_copy_2_7_" class="st0">
		<g>
			<circle class="st22" cx="40.3" cy="26.8" r="0.3"/>
		</g>
	</g>
	<g id="Shape_168_7_" class="st0">
		<g>
			<path class="st11" d="M42.3,26.7c-0.3-0.3-0.6-0.8-1.8-1.1c-1.1-0.3-1.9-0.2-1.8,0.2c0,0,2.1,0.2,3,0.9
				C42.4,27.2,42.5,27,42.3,26.7z"/>
		</g>
	</g>
	<g id="Shape_859_7_" class="st0">
		<g>
			<path class="st23" d="M32.7,37.4c0.6-0.7,0.5-2.1,0.5-2.1c-2.2-1-1.5-0.2-2.3,0.2c-0.8,0.3-2.6,2-3.1,3c-0.5,1-1,1.9-1.8,0.9
				c-0.8-0.9-1-4.8-1.4-6.3c-0.4-1.4-0.9-1-1.3,1.9c-0.4,2.9,0.7,7,1.4,8.2c0.7,1.2,3.2,1.9,5.1,3.3c1.8,1.4,2.5-0.4,1.6-1.3
				c-0.9-0.9-1.1-1.4-0.2-2.1c0.9-0.7,2.3-0.1,0.8-0.8c-1.5-0.8-1.4-2.6-1.1-3.4C31.3,38.2,32,38,32.7,37.4z"/>
		</g>
	</g>
	<g id="Shape_178_7_" class="st0">
		<g>
			<path class="st24" d="M33.3,21.5c-0.7-0.1-1.6,1.7-1.9,2.3c0,0,0.8,1.3,1.2,0.9c0.5-0.4,0.4-1.1,0.6-1.8
				C33.4,22.1,33.8,21.5,33.3,21.5z"/>
		</g>
	</g>
	<g id="Shape_160_7_" class="st0">
		<g>
			<path class="st25" d="M42,26.6c-0.3-0.2-1-0.5-1.6-0.7c-0.6-0.2-1.7-0.2-1.4-0.3c0.3-0.1,0.8-0.3,0.3-0.3c-0.5,0-1.2-0.1-1.5,0.2
				c-0.3,0.2-0.4,0.4-0.7,0.3c-0.3,0-0.5-0.3-0.5,0.1c0,0.4-0.3,0.8-0.3,1c-0.1,0.1,0.3,0.1,0.4,0.2c0,0,0.2-0.4,0.5-0.7
				c0.3-0.2,0.5-0.5,0.6-0.4c0.1,0.1-0.2,0.4-0.2,0.5c-0.1,0.2-0.7,0.3-0.4,0.5c0.2,0.2,0.8,0.1,1,0.1s-0.3-0.4-0.1-0.7
				c0.2-0.3,0.2-0.3,0.7-0.3c0.5,0,1.1,0,1.6,0.2c0.5,0.2,1.1,0.3,1.2,0.5c0.1,0.3-0.4,0.6-0.1,0.5c0.3-0.1,0.5-0.3,0.8-0.1
				C42.7,27.5,42.3,26.9,42,26.6z"/>
		</g>
	</g>
	<g id="Shape_163_7_" class="st0">
		<g>
			<path class="st18" d="M33,23.4c-0.2,1.1-0.7,1.1-1,0.4c-0.3-0.7-0.9-0.5-1.7-0.7c-0.8-0.1-1.6-0.2-1.9-0.5
				c-0.3-0.3-0.3-1.7-0.1-2.3c0.2-0.7,0.8-0.3,1.4-0.3c0.6-0.1-0.6,0.1-0.9-0.9c-0.3-1-1.1-3.1-0.6-3.7s2.2-0.5,2.9-0.8
				c0.7-0.3,0.3-1-0.1-1.2c-0.3-0.2-5-4.1-4.8-3.2s-1.9,1.4-2.6,2.5s-0.9,2-1.3,2.8s-0.8,4.6-1,6.3c-0.2,1.7,0.8,2.8,1.2,3.5
				c0.4,0.6,0.5,2,0.6,2.6c0.1,0.6,0,0.8,0.9,1.4c0.9,0.6,0.9,1.4,1,1.8c0.2,0.6,1.4,0.7,2.1,0.6c0,0,1.8-0.5,2.8-1.2
				c0.9-0.7,1.1-1.5,1.9-2c0.8-0.5,1.1-1.6,1-2.2c-0.1-0.6,0.3-1.2,0.4-1.5c0-0.3,0.3-2.5,0.4-2.9C33.7,21.5,33.2,22.3,33,23.4z"/>
		</g>
	</g>
	<g id="Shape_164_7_" class="st0">
		<g>
			<path class="st26" d="M35.1,34c-0.3-0.1-0.6,0.3-0.9,0.1c-0.3-0.2,0.1-0.3-0.6-0.9c-0.3-0.3-0.5-0.5-0.9-0.5
				c-0.4,0-1.6,0.4-0.9,2.1c0,0,0.3,0.8,1,0.9c0.7,0,0.7,0.5,0.9,0.1c0.2-0.4,0.3-0.8,0.7-0.9c0.3-0.2,0.5,0,0.8-0.2
				C35.5,34.5,35.5,34.2,35.1,34z"/>
		</g>
	</g>
	<g id="Shape_166_7_" class="st0">
		<g>
			<path class="st9" d="M31.6,34.4c-0.1-0.1-0.3-0.5-0.5-0.8c-0.2-0.3,0.3-1.3,0.4-1.6c0.2-0.3,0-0.7,0-0.7
				c-0.1-0.4-0.5,0.5-1.2,1.1c-0.7,0.5-0.4,1.1-0.1,1.4c0.3,0.3,0.2-0.1-0.1,1c-0.3,1,0.4,0.1,0.7-0.2S31.7,34.5,31.6,34.4z"/>
		</g>
	</g>
	<g id="Shape_167_7_" class="st0">
		<g>
			<path class="st8" d="M36.9,24.2c-0.1-0.3-1.3-0.3-0.9-2.2c0.4-1.9-0.3-1-0.2-0.3c0,0-0.3,2.1,0.4,2.7
				C36.9,25.1,36.9,24.5,36.9,24.2z"/>
		</g>
	</g>
	<g id="Shape_173_7_" class="st0">
		<g>
			<path class="st27" d="M38.1,38.8c-0.2-0.2-0.9-0.4-1.2-0.6s-0.6-0.4-0.9-0.4c-0.3,0-0.3,0.1-0.9,0.3c-0.5,0.2-0.7,0.7-0.7,0.7
				c-0.1,0.3-0.9,0.2-1,0.2c-0.1,0.1-0.7-0.1-1.3,0.2c-0.6,0.3,0.3,0.7,0.8,1c0.5,0.3,1.2,0.4,1.8,0.5c0.7,0.1,1.6,0,1.8-0.2
				c0.3-0.1,1-0.4,1.4-0.6c0.4-0.2,0.6-0.4,0.7-0.5C38.8,39.4,38.3,39.1,38.1,38.8z"/>
		</g>
	</g>
	<g id="Shape_172_7_" class="st0">
		<g>
			<path class="st9" d="M37.2,39.4c-0.5,0-1,0-1.1-0.3c-0.1-0.3-0.2,0-0.3,0.2s-0.2,0.3-0.6,0.3c-0.4,0-0.4-0.2-0.4-0.4
				c0-0.3,0.1-0.9-0.2-0.9c-0.3,0-0.6-0.2-1.1-0.3c-0.5-0.1-0.8,0.2-1.2,0.4c-0.4,0.2-1.5,1.1-1.5,1.1c-0.1,0.1-0.3,0.6,0,0.6
				c0.4,0,0.8,0.1,1.1,0.2c0.3,0.1,1.6,0.5,1.9,0.5s0.1-0.2-0.3-0.4c-0.4-0.2-1-0.4-1-0.6c0-0.2,1.4,0,1.6,0s0.7,0.1,0.9,0.1
				s0.7-0.3,1-0.3s1.7,0.1,1.9,0.1S37.7,39.4,37.2,39.4z"/>
		</g>
	</g>
	<g id="Shape_169_7_" class="st0">
		<g>
			<path class="st8" d="M35.8,36.6c-0.1-0.5-0.6-1-0.6-1c-0.2-0.3-0.4,0.3-0.5,0.6c-0.1,0.3-0.2,1.1-0.3,1.4
				c-0.2,0.3,0.6,0.4,1.1,0.3S35.9,37.1,35.8,36.6z"/>
		</g>
	</g>
	<g id="Shape_174_7_" class="st0">
		<g>
			<path class="st9" d="M38.4,39.4c-0.3,0.1-0.7,0-0.7,0.2c0,0.1,0.3,0.2-0.1,0.3c-0.3,0.2-0.5,0.2-0.8,0.4
				c-0.3,0.2-1.2,0.5-1.2,0.5c-0.9,0.4,2-0.4,2.3-0.5s0.8-0.4,0.9-0.5C39,39.6,38.8,39.3,38.4,39.4z"/>
		</g>
	</g>
	<g id="Shape_171_7_" class="st0">
		<g>
			<path class="st28" d="M39.3,39.4c-0.4-0.4-0.6-1.2-0.6-0.4c0,0.3-0.6,0.3-0.6,0.3c-0.3,0.1,0.2,0.3,0.5,0.4
				c0.3,0.1,0.5,0.4,0.7,0.6c0.2,0.2,0.9,0.4,0.9,0.2S39.6,39.8,39.3,39.4z M34.2,39.2c-0.9-0.1-1.2-0.1-1.5-0.2s-1,0-1.2,0
				c-0.7,0,0.1-0.6-0.3-0.4c-0.4,0.2-1,0.8-1.3,1c-0.3,0.2-0.6,0.6-0.7,1.2c0,0,0.3,0.3,0.4-0.2c0.1-0.4,0.3-0.6,0.6-0.7
				c0.3-0.1,0.5-0.3,1-0.3c0.4-0.1,0.8-0.3,1.4-0.2c0.6,0.1,1.1,0.1,1.4,0C34.2,39.4,35.1,39.3,34.2,39.2z"/>
		</g>
	</g>
	<g id="Shape_861_7_" class="st0">
		<g>
			<path class="st29" d="M32.6,26.2c-0.2-0.5,0.1-0.2-0.2-0.7c-0.3-0.5-0.5-0.7-1.2-0.8c-0.6,0-0.2,0.8-0.7,1.2s-3,1.6-3,1.6
				s-0.2,0.5,0.8,0.5c1,0.1,1.7-0.2,1.6,0.3c-0.1,0.5,0.2,1-0.9,1.5c-1,0.5-1.7,0.9-0.7,0.7c1.1-0.2,2-0.9,2.3-1.6
				c0.3-0.7,0.9-1.5,1.4-0.9C33.1,29.2,32.9,26.9,32.6,26.2z"/>
		</g>
	</g>
	<g id="Shape_175_7_" class="st0">
		<g>
			<path class="st9" d="M39.7,35c-0.3-0.5-1.1-1.6-1.1-1.6c-0.5-0.3,0.7,1.6,1,2.3c0.4,0.7,1.1,1.9,1.1,1.6S39.9,35.5,39.7,35z"/>
		</g>
	</g>
	<g id="Shape_176_7_" class="st0">
		<g>
			<path class="st30" d="M35.2,41.4c-1,0.1-2.5-0.4-2.5-0.4c-1.4-0.2,1.4,0.8,2,0.8s2-0.3,2.2-0.7C37.1,40.7,36.2,41.3,35.2,41.4z"
				/>
		</g>
	</g>
	<g id="Shape_179_7_" class="st0">
		<g>
			<path class="st31" d="M36.6,43.1c-0.6-0.4-2-0.5-2-0.5c-0.5-0.1-1.4,0.2-1.9,0.6s1.6,0.1,2.5,0.1S37.2,43.5,36.6,43.1z"/>
		</g>
	</g>
	<g id="Shape_868_7_" class="st0">
		<g>
			<path class="st32" d="M35.7,34.1c-0.5,0.3-0.6,0-0.9,0.1c-0.3,0.1-0.4,0-0.9,0.1s-0.1-0.3-1.2-0.2c-1.2,0.1-1.4-0.9-1.4-0.9
				c-0.3,1.9,1.2,1.4,1.8,1.4c0.6-0.1,1.2,0.1,1.7,0s1.2-0.2,1.3-0.5C36.2,33.8,36.1,33.8,35.7,34.1z"/>
		</g>
	</g>
	<g id="Shape_180_7_" class="st0">
		<g>
			<path class="st15" d="M42.3,28.1c0.2-0.5-0.1-0.9-0.3-0.6s-0.4,0.3-1.3,0.5s-1.4,0.6-1.4,0.6c-0.5,0.4,1.8,0.8,2.8,0.8
				C43.2,29.3,42.1,28.6,42.3,28.1z"/>
		</g>
	</g>
	<g id="Shape_147_7_" class="st0">
		<g>
			<path class="st33" d="M49,22c-0.1-2-0.2-2.8-0.2-3.6s-0.6-2-1.1-3.3s-1.1-2.9-1.1-3.4s-1.8-2-2.8-3.2c-1-1.2-1.6-2-4.2-2.3
				C37.4,6,35.6,6.9,34.1,6c-1.5-0.9-5,0.4-6.3,1c-1.2,0.6-3.6,0.6-4.4,2c-0.8,1.4-1,1.7-1.6,2.5s-1.3,3.1-1.9,4.5
				c-0.7,1.4-0.3,2.8-0.2,3.8c0.1,1.1,0.2,4-0.1,4.9s0,1,0.3,1.6c0.3,0.6,0.9,1.5,1.4,2.2c0.5,0.6,0.8,0.3,0.8-0.8s0.2-3.9,0.3-4.8
				c0.1-0.9-0.3-2-0.1-3.4c0.2-1.4,0.5-2.7,1-3.7c0.6-1.1,1.8-3.1,2.3-3.7c0.5-0.6,1-1,0.8-0.5c-0.2,0.5-0.8,1.5,1.7,2
				c2.8,0.6,3.9,0.1,5.2-0.7c1.3-0.8,2.4-1.2,3.2-2.1s1.3-0.4,2.6-0.3c1.3,0.1,2.4,0.5,3,1.2c0,0,2.1,1.9,3,4.4
				c0.9,2.6,1.2,5.5,1.4,7.2c0.2,1.7-0.1,5.6,0.6,5.2c0.7-0.4,1.2-1.6,1.6-2.7C48.9,24.9,49.1,24,49,22z"/>
		</g>
	</g>
	<g id="Shape_182_7_" class="st0">
		<g>
			<path class="st34" d="M31,27c-0.2-0.4,0-0.7-1.8-0.7s-2.1,1-2.1,1c-0.1,0.1-0.5,0.4,1.7,0.3C30.9,27.6,31.2,27.3,31,27z"/>
		</g>
	</g>
	<g id="Ellipse_4_copy_3_23_" class="st0">
		<g>
			<path class="st20" d="M30.2,26.9c0-0.2-0.1-0.4-0.2-0.5c-0.2,0-0.5,0-0.8,0c-0.4,0-0.6,0.1-0.9,0.1c-0.1,0.1-0.1,0.3-0.1,0.4
				c0,0.4,0.2,0.6,0.5,0.8c0,0,0,0,0.1,0c0.4,0,0.7,0,1-0.1C30,27.5,30.2,27.2,30.2,26.9z"/>
		</g>
	</g>
	<g id="Ellipse_4_copy_3_21_" class="st0">
		<g>
			<circle class="st21" cx="29.2" cy="26.9" r="0.5"/>
		</g>
	</g>
	<g id="Ellipse_4_copy_3_19_" class="st0">
		<g>
			<circle class="st22" cx="29.7" cy="27.1" r="0.3"/>
		</g>
	</g>
	<g id="Shape_866_7_" class="st0">
		<g>
			<path class="st35" d="M26.1,40.9c-1.8-2.9-1.6-4.7-1.9-7.7s1.6-2.3,1.6-2.3c-0.8-1.2-2.1-5.5-2.6-7.4s-0.9,0.2-1.4,1.3
				c-0.5,1.1-0.2,2.5-0.5,3.7c-0.4,1.2-0.4,3.7-0.1,6.9s0.5,5.4,1.6,7C24,44.1,27.9,43.8,26.1,40.9z"/>
		</g>
	</g>
	<g id="Shape_870_7_" class="st0">
		<g>
			<path class="st36" d="M25,32.6c-2.3,0.5-2.5-3.3-2.5-3.3c-1.4,3.2,1.7,5.7,2.6,4.7C26.1,33,27.2,32.1,25,32.6z"/>
		</g>
	</g>
	<g id="Shape_155_7_" class="st0">
		<g>
			<path class="st28" d="M37.1,33.9c-0.1-0.3-0.4-0.3-0.7-0.2c-0.2,0.1-0.5,0.2-0.5,0.2c0.2,0,0.5,0.2,0.8,0.3S37.2,34.2,37.1,33.9z
				"/>
		</g>
	</g>
	<g id="Shape_165_7_" class="st0">
		<g>
			<path class="st28" d="M33.3,33.7c-0.2-0.2-0.7-0.2-0.8,0.2c-0.1,0.4,0.5,0.4,0.9,0.3c0.3,0,0.5,0,0.6,0
				C34,34.2,33.6,34,33.3,33.7z"/>
		</g>
	</g>
	<g id="Shape_860_7_" class="st0">
		<g>
			<path class="st35" d="M29.1,25.1c-1.6-0.7-2.6,1.4-2.8,0.4c-0.1-0.9,0.1-1-0.7-0.5c-0.8,0.5-1,0.9-1.1-0.3
				c-0.2-1.2,2.6-2.6,2.2-3.3s-0.2-1.7,0.1-3c0.3-1.4,0.3-1.5,0-3c-0.3-1.5-1.9,1.4-2.6,3s-1.9,1.8-1.9,1.8s-0.6,4.5-0.3,5
				s0.3,0.2,0.7,1.9c0.4,1.8-0.2,1.2,1.6,2.5s3.1,1.2,3.8,0.7s0.2-0.5-1.6-0.9c-1.7-0.4-0.5-1.2-0.1-1.8
				C26.8,26.9,30.7,25.7,29.1,25.1z"/>
		</g>
	</g>
	<g id="Shape_845_7_" class="st0">
		<g>
			<path class="st37" d="M40,46.5c0,0-2.2,1.4-2.5,1.6c-1.7,1-4.3,0.3-6-0.4c-1.1-0.5-1.1-1.3-1.6-2.2c-0.3-0.5-0.8-0.8-1.2-1.2
				c-0.5-0.5-0.8-1.2-1.1-1.8c-0.4-0.9-1.3-2.5-2.5-2.1c-0.7,0.4-0.2,2-0.4,2.6c0,0-0.1,0-0.1,0.1c-1.2,0-3-4-2.4-1.8
				c0.1,0.5,0.5,1.3,0.5,1.8c0.1,0.2,0.5,0.3,0.6,0.6c0.3,0.3,0.5,0.6,0.8,0.9c0.8,0.9,1.6,1.8,2.5,2.7c1,0.9,2.4,1.2,3.6,1.7
				c0.3,0,0.6,0.1,1,0.1c0.5,0.5,2.5,1,3,1c0.8,0,2.5-0.4,3.3-0.9C38.1,48.9,40.9,47.5,40,46.5z"/>
		</g>
	</g>
	<g id="Shape_846_7_" class="st0">
		<g>
			<path class="st13" d="M39.5,47.3c-0.3,0.3-0.7,0.6-1,0.9c-0.5,0.3-0.9,0.5-1.4,0.8c-2.1,0.5-7.1-0.3-7.5-3c0,0,0,0,0,0.1
				c0,0,0-0.1,0-0.1c0,0-0.1,0-0.1-0.1c0,0-0.1,0-0.1,0.1c0,0.3,0,0.6,0,0.9c0.2,0.7,0.9,1.4,1.5,1.9c0.7,0.5,1.6,1,2.4,1.2
				c1.2,0.3,2-0.1,3.2-0.1c0.5-0.3,1.2-0.4,1.8-0.7c0.8-0.5,1.5-0.9,1.5-1.8C39.6,47.2,39.6,47.2,39.5,47.3z M29.5,45.9
				C29.5,45.9,29.5,45.9,29.5,45.9C29.5,45.9,29.5,45.9,29.5,45.9C29.5,45.9,29.5,45.9,29.5,45.9z M29.6,45.9
				C29.6,45.9,29.6,45.9,29.6,45.9C29.6,46,29.6,46,29.6,45.9C29.6,46,29.6,46,29.6,45.9z"/>
		</g>
	</g>
	<g id="Shape_840_7_" class="st0">
		<g>
			<path class="st38" d="M43.1,18.1c-0.2-0.3-0.3-0.7-0.5-1c-0.1-0.5-0.2-1.1-0.4-1.6c-0.2-0.7-0.8-1.4-1.2-1.9c0,0,0,0,0,0
				c0,0,0,0,0,0c-0.3-0.2-0.5-0.5-0.8-0.7c-0.2,0-0.3-0.1-0.5-0.1c-0.1,0-0.1,0-0.2,0c0,0,0,0-0.1,0c0,0,0,0.1,0,0.1
				c0,0,0-0.1,0-0.1c-0.4,0-0.9-0.1-1.3,0c-0.9,0.3-0.7,2.6-0.4,3.3c0.9,2.3,1.6,3.1,3.8,3.7c0.4,0.1,1.4,0.4,1.8,0.2
				C44.1,19.5,43.3,18.5,43.1,18.1z"/>
		</g>
	</g>
	<g id="Shape_841_7_" class="st0">
		<g>
			<path class="st38" d="M41.6,21.6c-0.3-0.1-0.6-0.1-0.9-0.2c0,0,0,0.1,0,0.1c0,0,0,0,0,0c-0.5,0.1-1.6,0.8-0.7,1.4
				c0.7,0.4,1.4,0.2,2.1,0.3c0.4,0,1.3,0.3,1.3-0.3C43.1,21.9,42.4,21.9,41.6,21.6z"/>
		</g>
	</g>
	<g id="Shape_842_7_" class="st0">
		<g>
			<path class="st38" d="M39.5,20.2c0,0,0.1,0,0.1,0l-0.3,0C39.3,20.2,39.4,20.2,39.5,20.2c-0.4,0-0.8,0.1-1.2,0.1
				c-0.1,0-0.1,0.1-0.2,0.1c0,0.5,0.8,0.6,1.1,0.6c0.7,0.1,1.4,0.2,2.1,0.2c0.7,0.2,1.3,0.4,2.1,0.4C43.4,21.2,40.3,20.2,39.5,20.2z
				"/>
		</g>
	</g>
	<g id="Shape_867_7_" class="st0">
		<g>
			<path class="st39" d="M26.4,23.8c0,0-1.4,1-1.4,2.1c0,1.1-1.4,1.7-0.7,2.3c0,0,1.4-0.5,1.6-1.2c0.2-0.7,0.2-2.2,1.2-2.4
				C28.1,24.3,26.4,23.8,26.4,23.8z"/>
		</g>
	</g>
	<g id="Shape_844_7_" class="st0">
		<g>
			<path class="st8" d="M31.8,20.1c-0.1,0-0.2,0-0.3-0.1c-0.1,0-0.1,0.1-0.2,0.1L31.8,20.1z M36.3,19.1c-1.2,0-2.4,0-3.6,0
				c-0.2,0.2-1.1,0.3-1.5,0.7l-0.1,0.1c0,0.1,0,0.1,0,0.2c0.1,0,0.3,0,0.4,0.1c2-1,2.7-0.6,4.9-0.6c0.2,0,1.6,0,1.6-0.2
				C37.9,19.1,36.7,19.1,36.3,19.1z M36,16.5c0.2-0.1,0.5-0.2,0.7-0.3v0c-0.3-0.3-2.5,0.2-3.2,0.2c0,0-0.1,0.1-0.1,0.1
				c0,0,0-0.1,0-0.1c0,0,0.1,0,0.1,0l0.2-0.1c-0.2,0-1.1,0.1-1.1,0.4l0.1,0.1C33.2,17,35.4,16.6,36,16.5z"/>
		</g>
	</g>
	<g id="Shape_857_7_" class="st0">
		<g>
			<path class="st40" d="M31.4,26.4c-0.3-0.1-0.7-0.8-1.7-0.5c-1,0.3-1.5,0.1-2.1,0.5c-0.6,0.3-0.6-0.2,0.2-0.4s1.4-0.4,2.1-0.3
				c0.8,0.1,1.2,0.2,1.6,0.3c0.4,0.1,0.2-0.5-0.2-0.7c-0.4-0.2,0.1,0.1-0.4,0.1s-1.7,0-2.1,0.2s-1,0.1-1.6,0.7
				c-0.6,0.6-0.6,0.6-0.8,1.1s-0.4,0.9-0.9,1s-0.7,0.5,0,0.3c0.7-0.1,0.9-0.6,0.9-0.6s0.6-0.1,0.7-0.5s0.4-0.8,1.4-0.9
				c1-0.1,1.8-0.4,2.3,0s0.4,0.6,0.1,0.7c-0.3,0.1-0.5,0.2,0,0.4s0.7-0.4,1-0.4C32.1,27.3,31.7,26.6,31.4,26.4z"/>
		</g>
	</g>
	<g id="Shape_858_7_" class="st0">
		<g>
			<path class="st32" d="M31.4,32.4c0.5-0.7,0.8-1.6-0.1-0.5c-0.2,0.3-1.3,2.5-1.6,3s-1.4,1.8-0.7,1.5c0.7-0.3,1-0.8,1.4-1.4
				c0.3-0.5,0.3-0.6,0.7-0.4s0.3-0.6,0.2-0.9C31.3,33.7,31.1,32.8,31.4,32.4z"/>
		</g>
	</g>
	<g id="Shape_862_7_" class="st0">
		<g>
			<path class="st41" d="M46.9,12.2c0-1.7-1.9-2.5-3.1-3.9C42.6,6.9,41.4,6.2,39,7s-1.6,0.6-0.3,1.6c1.3,0.9,2.1,0.9,2.1,0.9
				s1.4,0.5,3.3,1.7c1.9,1.2,1.6,3.3,1.9,5.2s2.5,4,2.5,4C47.6,19.1,46.9,13.9,46.9,12.2z"/>
		</g>
	</g>
	<g id="Shape_863_7_" class="st0">
		<g>
			<path class="st41" d="M37.3,8.4c-2.6-1.1-4.2-0.6-4.8-0.1c-0.5,0.6-0.5,0.3,0,0c0,0,0,0,0.1-0.1C33.9,6.6,36.5,7.5,35,7
				s-1.4-0.4-3.8,0.8S29,8.2,31.2,7c2.2-1.1,3.3-1.1,1.2-1.6c-1.9-0.1-3.6,1-5.6,2.4c-2,1.4-0.6,0.8-2.3,1.4c-1.7,0.6-2.5,3-3.2,4.9
				c-0.7,1.9-1.6,4.8-1,3.9c0.9-1.5,2.4-3.7,3.5-5.2s2-3.5,3.3-2.1c1.3,1.3,3,1,4.4-0.1C33,9.5,33.9,8.2,36,9s4,0.5,4,0.5
				S42,10.3,37.3,8.4z"/>
		</g>
	</g>
	<g id="Shape_864_7_" class="st0">
		<g>
			<path class="st41" d="M20.6,19c-1,1.4-1.8,1.8-0.7,3.8c1.1,2.1,0.7,2.5,0.6,3c-0.1,0.5,1.1-0.1,1-2.1s-0.2-2.9,0.4-3.2
				c0.6-0.3,1.2-5.3,1.2-5.3S21.6,17.6,20.6,19z"/>
		</g>
	</g>
	<g id="Shape_865_7_" class="st0">
		<g>
			<path class="st41" d="M48.4,21.5c-1.1-1.1-1.9-2.5-1.9-2.5c-0.7,1.5,1.8,2,1.1,3.6c-0.7,1.7,0,4.5,0.1,3.2S49.5,22.5,48.4,21.5z"
				/>
		</g>
	</g>
	<g id="Shape_181_7_" class="st0">
		<g>
			<path class="st42" d="M43.7,24.3c-0.2-0.3-0.4-0.4-1.1-0.5c-0.4-0.1-0.7-0.1-1.4,0c-0.7,0.1-1.3-0.2-1.9-0.1
				c-0.8,0.1-0.5,0.1-0.9,0.2c-0.4,0.1-0.9,0.4-0.5,0.9c0,0,1.7-0.1,2.4,0c0.7,0.1,2.2-0.1,2.7,0c0.5,0.2,0.4,0.3,0.5,0.4
				C43.7,25.2,43.9,24.8,43.7,24.3z M27.7,23.1c-1.9-0.2-2.3,1.4-2.3,1.4c-0.9,1.5,0.4,0.8,1.2,0.2c0.9-0.6,2.3-0.3,3.3,0
				c1,0.3,1.8,0.6,2.1,0.6c0.3,0,0.5-0.3,0-1C31.4,23.6,29.6,23.3,27.7,23.1z"/>
		</g>
	</g>
	<g id="Shape_869_7_" class="st0">
		<g>
			<path class="st39" d="M33.6,21.7c0,0-0.4,2.2-0.5,3c-0.1,0.8-0.9,1.1-0.9,1.1c0.2,0.3,0.2,0.9,0.5,0.6s0.8-0.8,0.7-1.4
				C33.3,24.5,33.6,21.7,33.6,21.7z"/>
		</g>
	</g>
	<g id="Shape_872_7_" class="st0">
		<g>
			<path class="st11" d="M29.7,24.8c-0.7-0.3-1.2-0.6-2.6-0.3c0,0-1,0.8-0.2,1s0.3,0,1.2-0.2C29,25.1,30.5,25.1,29.7,24.8z M30,25.7
				c-0.3-0.1-0.7,0-1.2,0c-0.5,0.1-0.9,0.4-0.9,0.4c-0.2,0.2,1.7-0.2,2-0.3C30.3,25.8,30.2,25.8,30,25.7z"/>
		</g>
	</g>
	<g id="Shape_873_7_" class="st0">
		<g>
			<path class="st17" d="M29.8,28c-0.3,0-1.8,0-1.9,0.1c0,0-0.8,0.3-0.2,0.4c0.6,0.1,1.5-0.1,1.8-0.2C29.7,28.1,30.1,28,29.8,28z"/>
		</g>
	</g>
	<g id="Shape_875_7_" class="st0">
		<g>
			<path class="st11" d="M29.6,30.9c-1.4,0.8-2.5,0.9-2.5,0.9c-0.8,0.7-0.6,1.2-0.6,3s0.9,3.1,1.6,2.4c0.8-0.7,1.4-0.9,1.5-2.1
				c0.1-1.2-0.2-1.5,0.1-2.8C30,30.9,31,30.1,29.6,30.9z"/>
		</g>
	</g>
</g>
</svg>
