<?xml version="1.0" encoding="utf-8"?>
<!-- Generator: Adobe Illustrator 19.1.0, SVG Export Plug-In . SVG Version: 6.00 Build 0)  -->
<svg version="1.1" id="Layer_1" xmlns="http://www.w3.org/2000/svg" xmlns:xlink="http://www.w3.org/1999/xlink" x="0px" y="0px"
	 viewBox="0 0 150 150" style="enable-background:new 0 0 150 150;" xml:space="preserve">
<style type="text/css">
	.st0{clip-path:url(#SVGID_3_);}
	.st1{fill-rule:evenodd;clip-rule:evenodd;fill:#DAB099;}
	.st2{fill-rule:evenodd;clip-rule:evenodd;fill:#3B3738;}
	.st3{fill-rule:evenodd;clip-rule:evenodd;fill:#6A4C40;}
	.st4{fill-rule:evenodd;clip-rule:evenodd;fill:#C28166;}
	.st5{fill-rule:evenodd;clip-rule:evenodd;fill:#E6A585;}
	.st6{fill-rule:evenodd;clip-rule:evenodd;fill:#926954;}
	.st7{fill-rule:evenodd;clip-rule:evenodd;fill:#BB826E;}
	.st8{fill-rule:evenodd;clip-rule:evenodd;fill:#7A5143;}
	.st9{fill-rule:evenodd;clip-rule:evenodd;fill:#DDA08C;}
	.st10{fill-rule:evenodd;clip-rule:evenodd;fill:#141414;}
	.st11{fill-rule:evenodd;clip-rule:evenodd;fill:#C2896E;}
	.st12{fill-rule:evenodd;clip-rule:evenodd;fill:#FCC4A0;}
	.st13{fill-rule:evenodd;clip-rule:evenodd;fill:#704F3E;}
	.st14{fill-rule:evenodd;clip-rule:evenodd;fill:#875F4B;}
	.st15{fill-rule:evenodd;clip-rule:evenodd;fill:#EFC2A9;}
	.st16{fill-rule:evenodd;clip-rule:evenodd;fill:#ECC5AD;}
	.st17{fill-rule:evenodd;clip-rule:evenodd;fill:#755140;}
	.st18{fill-rule:evenodd;clip-rule:evenodd;fill:#BA836F;}
	.st19{fill-rule:evenodd;clip-rule:evenodd;fill:#B8836F;}
	.st20{fill-rule:evenodd;clip-rule:evenodd;fill:#E0A78B;}
	.st21{fill-rule:evenodd;clip-rule:evenodd;fill:#B78470;}
	.st22{fill-rule:evenodd;clip-rule:evenodd;fill:#432F25;}
	.st23{fill-rule:evenodd;clip-rule:evenodd;fill:#855F4C;}
	.st24{fill-rule:evenodd;clip-rule:evenodd;fill:#463526;}
	.st25{fill-rule:evenodd;clip-rule:evenodd;fill:#6A5445;}
	.st26{fill-rule:evenodd;clip-rule:evenodd;fill:#BEABA5;}
	.st27{fill-rule:evenodd;clip-rule:evenodd;fill:#D4C7C2;}
	.st28{fill-rule:evenodd;clip-rule:evenodd;fill:#2C2625;}
	.st29{fill-rule:evenodd;clip-rule:evenodd;fill:#A27059;}
	.st30{fill-rule:evenodd;clip-rule:evenodd;fill:#57504D;}
	.st31{fill-rule:evenodd;clip-rule:evenodd;fill:#171115;}
	.st32{fill-rule:evenodd;clip-rule:evenodd;fill:#EDE8E6;}
	.st33{fill-rule:evenodd;clip-rule:evenodd;fill:#40271A;}
	.st34{fill-rule:evenodd;clip-rule:evenodd;fill:#644738;}
	.st35{fill-rule:evenodd;clip-rule:evenodd;fill:#CE9072;}
	.st36{fill-rule:evenodd;clip-rule:evenodd;fill:#BBBBBB;}
	.st37{fill-rule:evenodd;clip-rule:evenodd;fill:#771822;}
	.st38{fill-rule:evenodd;clip-rule:evenodd;fill:#E9E8E6;}
	.st39{fill-rule:evenodd;clip-rule:evenodd;fill:#0E0E0F;}
</style>
<g>
	<defs>
		<circle id="SVGID_1_" cx="75" cy="75" r="75"/>
	</defs>
	<linearGradient id="SVGID_2_" gradientUnits="userSpaceOnUse" x1="75" y1="150" x2="75" y2="9.094947e-13">
		<stop  offset="0" style="stop-color:#212121"/>
		<stop  offset="1" style="stop-color:#EF4438"/>
	</linearGradient>
	<use xlink:href="#SVGID_1_"  style="overflow:visible;fill:url(#SVGID_2_);"/>
	<clipPath id="SVGID_3_">
		<use xlink:href="#SVGID_1_"  style="overflow:visible;"/>
	</clipPath>
	<g id="Shape_847_7_" class="st0">
		<g>
			<path class="st1" d="M102.4,74.8c-0.1,0.1-0.1,0.3-0.1,0.4L102.4,74.8z M106.2,59.5c0,0-0.6-1.2-0.6-1.2
				c-2.1,0.7-2.9,10.5-3,12.8c0,1.2-0.1,2.3-0.1,3.5l0,0.2c0.5-1.1,2.8-2.5,3-4c0.5-2.5,1.2-5,1.4-7.6
				C106.6,62,106.4,60.8,106.2,59.5z"/>
		</g>
	</g>
	<g id="Shape_740_7_" class="st0">
		<g>
			<path class="st2" d="M140.9,143c-2.1-9-0.8-17-5-20.1c-4.2-3.2-12.7-8-23.1-12.2c-10.3-4.2-20.1-11.9-20.1-11.9s-36-8.2-39-8.7
				c-2.9-0.5-3.4,1.6-6.4,4.5c-2.9,2.9-12.2,10.6-16.4,12.2c-4.2,1.6-9.5,6.1-21.5,9.8c-11.9,3.7-11.4,59.4-11.4,59.4h145.8
				C143.9,175.9,143.1,152,140.9,143z"/>
		</g>
	</g>
	<g id="Shape_510_7_" class="st0">
		<g>
			<path class="st3" d="M104.2,28.6c-0.4-3.3-13.7-6.4-14.5-7.2c-0.8-0.8-13.5-2-15.1-1.9c-1.6,0.1-7.1,2-9.7,3.4
				C62.2,24.3,55.2,31,52.1,35C49,39,49.9,48,50,49.5c0.1,1.5-1.3,2.7-3.4,3.4c-2,0.7-1.9,2.3-1.7,3.7c0.2,1.4-0.2,3,0.9,9.8
				s7.2,9.1,7.2,9.1s0.4,6.4,0.1,12c-0.4,5.7,4.4,9.5,6.8,12s13,13.5,17.7,15.9c4.7,2.4,10.2-3.6,12.9-6.2c2.7-2.6,2.6-9.5,3.3-11.3
				c0.7-1.8,0.7-5.3,3.4-7.9c2.7-2.7,4.9-9.9,5.1-12c0.2-2.1,0.7-8.1,0.9-10.7c0.2-2.6,1.1-4.5,1.1-8s0.2-17.7,0.2-17.7
				S104.6,31.9,104.2,28.6z"/>
		</g>
	</g>
	<g id="Shape_514_7_" class="st0">
		<g>
			<path class="st4" d="M90.2,31.7c0,0-0.1,0-0.1,0c-1.2-0.1-2.4,0-3.7,0C87.2,32.2,88.8,31.9,90.2,31.7z M95.4,30.7
				c0,0-1.7,0.7-3.4,1c0.1,0,0.2,0,0.3,0.1C93.7,32.2,95.4,30.7,95.4,30.7z M91.9,31.7c-0.5-0.1-1.1,0-1.7,0.1
				C90.7,31.8,91.3,31.7,91.9,31.7z M86.4,31.8c-0.1,0-0.1-0.1-0.2-0.1c-0.5-0.5-2.9-1.1-5.2-1.5c0.5,0.2,1,0.5,1.6,0.8
				C84,31.6,85.2,31.8,86.4,31.8z M94.4,80.6c-0.2-1.6-1.3-1.7-2.7-2.5c-1.4-0.8-3.1,0.1-5.6-0.4c-2.4-0.5-1.7-2-0.4-2.9
				c1.2-0.9,1.3-1.4,2.9-3.2s-0.4-1.1-1.9-1.1s-3.2,0.1-3.4-1.5c-0.2-1.6-3-15-3.3-17.5c-0.3-2.5-5.8-3.4-8-3.7s-2.5-1.3-1.8-2.8
				c0.8-1.5-0.6-3.7-0.8-5c-0.2-1.4,0.8-6.1,1.2-7.5c0-0.1,0.1-0.2,0.1-0.2c-2.8-0.1-5.7-0.4-5.8,0c-0.2,0.8-3,3.6-2.8,4.6
				c0.1,1-2.9,6-2.8,7.2c0.1,1.1-1.9,6-1.7,8.2c0.3,2.2,0.4,6.4,0.5,8c0.1,1.7,2.5,9.3,3.3,10.6c0.8,1.3-2.6,7.1-1.9,7.5
				c0.7,0.4,1.8,4,1.8,4s2.4-3.9,3.3-3.5c0.8,0.4,13.1,17.5,14,17.7s2.3,1.5,2.3,1.5l-0.7-1.7c0,0-0.4-1.9,0.2-2.3
				c0.6-0.4-0.1-1.1-0.1-1.1s-1.1-1.5-0.8-2.3c0.3-0.8,0.9-1.1,0.9-1.1s1.1-0.4,1.9-0.6c0.8-0.2,2.1,0.1,2.8-0.3s0.3-1,0.5-1.9
				c0.2-0.9,0.2-2.6,0.2-2.6s-2.3,0.2-3,0c-0.8-0.2-1.5-0.7-1.5-1.2c0-0.5,3.2-0.9,4.6-1.1s2,0,3.9-0.4c1.9-0.3,2.3,2,3.3,2.9
				c1,0.9,0.8,0.7,0.7-0.3C93.6,83,94.6,82.2,94.4,80.6z M76.5,29.8c-0.1-0.3,2.1-0.1,4.4,0.4c-2-1-3.2-1.6-3.2-1.6s-2.5,2.5-3.8,2
				c-1.2-0.5-2.6,0.5-3.2,1.7C74.2,32.3,77.5,32,76.5,29.8z"/>
		</g>
	</g>
	<g id="Shape_715_7_" class="st0">
		<g>
			<path class="st5" d="M104.1,58.3c0-0.9-0.6-2.5-0.6-3.4c-0.2-3-0.1-6.1-0.3-9.1c-0.1-1.3-0.8-2.3-1-3.6c-0.2-1.1-0.4-2.2-0.6-3.3
				c-0.4-2-0.6-4.7-2-6.3c-3.6-4-9.2-1.4-13.7-2.1c-1.7-0.5-3.3-1.1-5-1.6c-1.7-0.1-3.5-0.3-5.2-0.4c0,0.1,0.1,0.1,0.1,0.2l-0.6,0.3
				c-9.3,1.5-6.9,6.7-5.9,13.4c0.2,1.1-0.5,3.7-0.2,4.5c1.2,2.7,7.4,2.2,9.9,5.3c1.6,2,2.7,5.3,2.8,7.7c0.2,1.5,0.5,3.1,0.7,4.6
				c0.1,1.1,0.1,2.3,0.2,3.4c0.7,1.9,1.9,2,3.3,3.1c0.2,0.3,0.3,0.6,0.5,0.9c0,1.6-2.4,2.2-2.4,3.9c0.5,0.8,0.9,2.2,1.8,2.6
				c1.6,0.8,6.6-1,6.6,2c-1.4,0.2-2.9,0.4-4.3,0.6c-1.9,0.3-3.7,1-5.6,1c-1.5,2.2-0.1,2.6,2.2,2.6c-0.2,0.4-0.3,0.8-0.5,1.3
				c0,1.2,0.9,1.6-0.1,2.6c-0.6,0-4.8,1.7-4.8,2.1c-0.9,0.9,1,2.8,1.7,3.1c3.3,1.7,1.2,3.8,6.6,2.5c2.6-0.7,7.1-3.7,7.4-6.5
				c0-0.9,0.1-1.8,0.1-2.7c-0.2-0.3-0.3-0.6-0.5-0.9c0-0.1,0-0.3,0-0.4c1.1-1.5,1.8-0.1,2.7,0.4c2.5,0,3.2-3.2,4.2-4.9
				c1.4-2.3,1.7-6.7,1.5-9.3C102.5,67,105,63.2,104.1,58.3z"/>
		</g>
	</g>
	<g id="Shape_511_7_" class="st0">
		<g>
			<path class="st6" d="M97.9,85.3c-1.2,0.8-2.4-1.5-3.4,0.1c-1,1.6,1.1,3.4-1.4,5.5s-3.9,4.6-6.5,4.3c-2.6-0.3-3.7-0.4-5.8-2.4
				c-2.1-1.9-2.1-2.1,0.3-2.7c2.4-0.6,5-1.9,5.4-3.3s2.3-3.2,0.6-3.4c-1.7-0.3,2.6-3.3,3.4-2.3c0.9,1,3.4,4.5,3.5,2.5
				c0.2-2,0.7-4.2-1.3-5.4c-2-1.2-5.9,1.4-7.1-0.8c-1.1-2.2,1.3-2.7,2-4s2.8-2.8,0.4-2.9c-2.4-0.1-4-0.6-4.7-2.4s-1.2-7.1-1.5-8.6
				c-0.3-1.5-0.8-3.6-1.1-5.7s-1.5-2.8-3.5-3.9s-6.8-1.6-9.6-1.5c-2.8,0.1-3.2,0.1-2.4-3c0.8-3.1,0.1-7,0-8.6
				c-0.1-1.6,1-4.1,2.6-5.5c1.6-1.4,5.7-2.6,5.7-2.6s-9.6-1-14.6,7.4c-2.3,3.8-0.9,8.9-1.4,11.3c-0.5,2.4-2.5,5.7-1.7,8.2
				c0.8,2.5,1.5,2.8,1.4,4.4c-0.1,1.6,0.3,5.5,1.3,6.9s-0.5,0.9-0.7,3.4c-0.2,2.5-0.2,9.2,0.6,11.4c0.8,2.2,4.3,8.2,6.5,9.9
				c2.2,1.7,2.4-0.6,1.6-2.4c-0.8-1.8-3.3-9.4-2.4-7.7c0.9,1.7,4.4,9.6,5.6,10.7c1.1,1.1,1.7,1.9,4.3,3.2c2.7,1.2,4.2,3,6.9,3.1
				c2.6,0.1,5.7-0.6,6.9-1.1c1.2-0.5,4.6-3.5,5.7-4.2s4.1-4.4,5-5.7s3.2-5.9,3.2-7.6C101.9,79.1,99.2,84.6,97.9,85.3z"/>
		</g>
	</g>
	<g id="Shape_512_7_" class="st0">
		<g>
			<path class="st7" d="M79.4,59.6c-0.9-1.6-3.1,0.7-2.3-1s-2.2-2.3-3.6-3.3c-1.4-1,2-0.8,1.1-1.9c-0.8-1.1-6.7-3-8.7-1.8
				c-1.9,1.2-1.4,2,0.3,2.3s1.3,3.4-0.1,3.9c-1.4,0.5-3.5,2.1-4.2,1.8c-0.7-0.4-2.6-2.1-2.7-0.8c0,0-0.3,2.2,1.6,4.5
				c1.9,2.3,4.7,8.8,4.8,10.8s1.5,6.5,4.1,4.8c2.6-1.8,5.2-4.1,5.6-6.1s-0.7-7.3,1.9-9C79.7,62.1,80.3,61.2,79.4,59.6z"/>
		</g>
	</g>
	<g id="Shape_713_7_" class="st0">
		<g>
			<path class="st8" d="M84.2,72c-3.5-1.8-4.1-2.1-4.6-6.2c-0.1,0.1-0.1,0.1-0.2,0.2c0-0.1,0-0.1-0.2-0.1c-0.2,0.5-0.4,0.9-0.6,1.4
				c-0.3,1.4,0.5,3.3-1.5,3.3c-1-0.5,0.2-2.2-0.7-2.8c-0.1,0-0.2,0-0.3,0c-1,0-0.2,5.3,0.5,6.2c0.3,0.4,0.8,1.3,1.4,1.4
				c1.3,0.1,1.9-1.2,3-1.4c0.4,0.1,0.8,0.2,1.2,0.4c1.2-0.5,2.4-0.9,3.5-1.4c0,0,0-0.1,0-0.1C85.3,72.6,84.8,72.3,84.2,72z"/>
		</g>
	</g>
	<g id="Shape_513_7_" class="st0">
		<g>
			<path class="st9" d="M73.2,57.8c-1.5,0.1-1.3,0.3-2.7,0.8c-1.4,0.5-4.7,0.7-4.7,0.7c-1.8,0,2.9,1.2,3.3,1.8
				c0.4,0.5-0.4,1.1-4.4,0.9c-4.1-0.2-0.6,2.8,2.1,7.8c2.7,4.9,6.6,3.5,6.8-0.8c0.2-4.3,1.1-4.2,0.5-5.1c-0.6-0.9-0.6-1.6,0.3-2.6
				c0.9-1,0.3-1.1,0.5-2C75.1,58.2,74.7,57.7,73.2,57.8z"/>
		</g>
	</g>
	<g id="Shape_515_7_" class="st0">
		<g>
			<path class="st10" d="M81.2,72.3c-0.8-0.5-1.2-0.6-2.5-0.1c-1.2,0.5-2.2-0.5-2.2-0.5c0.6,1.5,2.9,1,3.7,1c0.8,0,1.5,0.9,2,1
				C82.8,73.6,82,72.8,81.2,72.3z"/>
		</g>
	</g>
	<g id="Shape_738_7_" class="st0">
		<g>
			<path class="st11" d="M87,50.9c-0.8,0-1.2-0.4-1.7-0.4c0-0.8-0.8-1.4-0.8-2.5c0,0.1-0.1,0.2-0.1,0.3c0-0.3-0.1,0-0.3,0
				c-0.6,0-0.7,2.6-0.7,3.2c0,0.6,1.7,2,2.1,2v2.8c0.2,0,0.4-0.1,0.5-0.1c0-2,2.1-3.1,2.1-3.7c0.3,0,1.6-1.2,1.6-1.5
				c0.5,0,2.5-1.2,2.5-1.6C91,49.3,87,49.6,87,50.9z"/>
		</g>
	</g>
	<g id="Shape_516_7_" class="st0">
		<g>
			<path class="st10" d="M88.9,71.2c-0.1,0.3-0.3,0.6-1.1,0.8c-0.8,0.2-1.8,1.4-1.8,1.4c0.5-0.2,1.3-0.7,2-1
				C88.9,72.2,89,70.9,88.9,71.2z"/>
		</g>
	</g>
	<g id="Shape_714_7_" class="st0">
		<g>
			<path class="st12" d="M100,44.3c0-1.5,0.1-3.1-0.3-4.5c-0.7-2.3-3.7-7-6.1-7.7c-2.8-0.8-4.6,1.4-7.2,1.4c-2,0-3.4-1.9-4.6-1.9
				c-0.1,0-0.2,0-0.3-0.1c0,0-0.1,0-0.1-0.1c-3.3-0.1-9.1,3.3-7.4,7.4c0.6,1.4,2.7,1.6,3.1,3c0.4,1.7-0.3,3.7,1.1,4.9
				c1.7,1.5,4.5-1.4,6.5-1.3c2.1,0.2,2.9,2.5,4.6,3c2.1,0.7,4.6-0.5,6.8-0.3c1.3,0.1,2.5,0.2,3.8,0.4C100.7,48,100,45.2,100,44.3z"
				/>
		</g>
	</g>
	<g id="Shape_716_7_" class="st0">
		<g>
			<path class="st13" d="M73.7,50.2c-3.5-1-10.4-1.6-13.2,1.1c0,0.1,0,0.1,0,0.2c0-0.1,0-0.1,0-0.2c-1.2,0-0.9,2.6-0.9,3.2
				c2.8,0,4.5-2.7,7.7-3c2.5-0.2,5.1,0.2,7.4,1.2c0.8,0.3,1.8,1.8,2.6,1C77.4,51.9,75.2,50.6,73.7,50.2z"/>
		</g>
	</g>
	<g id="Shape_717_7_" class="st0">
		<g>
			<path class="st14" d="M101.1,51.1c-3.8-1.3-9.6-4.3-12.8,0c-0.6,0.8-1.4,1.3-1.8,2.3l0.2,0.8c1.8-0.9,3.7-1.9,5.5-2.8
				c0.7-0.2,1.3-0.4,2-0.6c1.5,0,3,0.7,4.4,0.7c0.5,0.3,0.9,0.7,1.4,1c0.3,0.6,0.5,1.1,0.8,1.7c0.2,0,0.4-0.1,0.5-0.1
				C101.9,52.9,101.8,52.5,101.1,51.1z"/>
		</g>
	</g>
	<g id="Shape_718_7_" class="st0">
		<g>
			<path class="st15" d="M102.9,57.9c-0.7,0-1.6,0.2-2.3,0.5c-0.5-0.1-1.1-0.3-1.6-0.4c-2,0.5-4.2,1.1-6.2,1.1
				c0,1.7,3.3,1.4,3.9,2.5c0.4,2-3.8,1.7-4.7,1.5c-2.1-0.5-3.5-3.5-4.3-5.2c-0.4,0.1-0.9,0.3-1.3,0.4c-0.7,0,0.1-4.4-1.8-4.4
				c0,0,0-0.1,0-0.1c0,0.1-0.1,0.2-0.1,0.3c-0.5-0.1-1-0.3-1.5-0.4c-2,0.7,0.7,8.7,1.4,10.3c0.3,0.6,1,0.8,1.2,1.5
				c0.4,1-0.6,1.4-0.4,2.3c0.2,1,1.1,1.9,2.2,1.5c0.6-0.4,0.6-1.4,0.3-1.9c-1.5-2.6-2.1-4.3-2.1-7.4c0.1,0,0.2,0,0.3,0
				c0.7,0.3,0.6,2.3,1.1,2.9c0.4,0.5,0.9,0.4,1.3,0.8c0.5,0.8,0.9,1.5,1.4,2.3c1.2,1.9,3.9,4.6,6.2,4.9c1.3,0.2,1.8-1.4,2.4-2.3
				c1.6-2.3,3.7-4.5,4.2-7.4C102.7,60.6,103.5,58.4,102.9,57.9z"/>
		</g>
	</g>
	<g id="Shape_719_7_" class="st0">
		<g>
			<path class="st16" d="M95.4,51.5C95.4,51.5,95.4,51.5,95.4,51.5C95.4,51.5,95.4,51.5,95.4,51.5L95.4,51.5z M97,51.9
				c-0.5-0.1-1.1-0.2-1.6-0.4c-1,0-2,0.9-2.7,0.9c0,0.4,0.2,0.5,0.5,0.5c1.5,0.1,3.5,0.4,4.9,1.3c0.7,0.4,1.3,0.8,2,1.2
				C100.1,53.4,99.5,51.9,97,51.9z"/>
		</g>
	</g>
	<g id="Shape_720_7_" class="st0">
		<g>
			<path class="st17" d="M73.6,55.1c-0.3-0.3,1.8,0.1,1.4-0.2c-0.8-0.5-2-0.9-2.8-1c-3.7-0.7-7.8,0.2-10.8,2.8c0,0,0,0,0.4,0.8
				c0,0.1-0.1,0.1-0.1,0.2c0,1.1,3-0.5,3.2-0.6c0.1,0,0.1-0.1,0.2-0.1c0.1,0,0.1,0,0.2,0h0c0.8,0.4,0.8,0.9,2.2,1.3
				c1.6,0.1,3.7-0.3,5.1-0.9c1.3-0.6,2,0.3,3.3-0.6C76,56.3,74.5,56,73.6,55.1z"/>
		</g>
	</g>
	<g id="Shape_721_7_" class="st0">
		<g>
			<path class="st18" d="M94.5,79.7c-0.5-0.6-0.9-1.7-1.6-1.9c-1.5-0.6-6.5,1.2-7.2-0.5c-1-2.7,2.6-2.3,2.7-4.7
				c-0.1,0-0.6,0.6-0.7,0.6c0.2-0.4-2.9,1-3.4,1.4c-0.9,0.8,0.5,2.7-0.6,3.1c-1.3,0-0.6-2.7-2.4-2.5c-0.6,0.1-1.1,0.9-1.4,1.3
				c-0.2,0.6-0.4,1.2-0.6,1.7c-0.9,3.3,2.2,1.7,3,3.3c0,0.9-4-1.1-3.6,1.5c0.3,2,2.9,1.7,4.3,1.7c0.2,0.1,0.5,0.1,0.7,0.2
				c-1.5,0.7-0.7,2.5-1.9,3.5c-1.7,1.3-10.3,0.7-6.4,5.4c2.8,3.4,8.9,6.4,13,3.6c0.8-0.5,4.1-3.1,3.8-4l-0.1-0.1
				c0,0.4-3,1.3-3.5,1.4c-0.9,0.1-1.2,0.3-2.1,0.4c0,0-0.6-0.1-1.2-0.2c-0.9-0.3-1.2-0.3-1.8-1c-2.6,0-4.6-3.3-3.8-2.2
				c-0.6-2.1,2.5-1.7,3.7-2.1c2.2-0.7,3.9-1.8,3.9-4.1c0.2-0.4,0.5-1.7,0.7-2.1c-1.4,0.4-5.7,1-6.1,0c-0.6-2.5,4.4-0.9,4.8-0.9
				c1.4-0.3,2.5-1.9,3.9-0.8c1.2,0.9,1.2,2.8,2.4,3.5c0.3-0.1,0.5-0.1,0.8-0.2c0.6-0.9-0.2-2.6,0.7-3.9
				C94.3,80.6,94.6,80.1,94.5,79.7z"/>
		</g>
	</g>
	<g id="Shape_722_7_" class="st0">
		<g>
			<path class="st19" d="M88.4,70.3c-1.3,0-3.9,0.1-4.5-1.7c-0.7-2.2-0.7-4.8-0.9-7.1c-0.4-1.4-0.9-2.8-1.3-4.3
				c-0.5-1.4-0.3-2.8-0.4-4.2c-0.2-0.5-0.4-0.9-0.7-1.4c-3.1-3.1-7.4-2.1-9.2-6.1c-0.2-1.3-0.4-2.7-0.6-4c-0.5-2.8-1.2-6.1-0.9-8.9
				c0.4-3.8,6.3-2.7,8.6-4.6c-0.1,0-0.2,0-0.2,0c0,0,0.1-0.1,0.1-0.1c-4.8,0-12,1-13.3,6.8c-0.7,2.9,0.3,6.3,0.3,9.2
				c0,1.6-1.9,3.4-1.5,4.3c0.3,0.1,0.7,0.2,1,0.3c5.4,0.8,10.2-0.9,14,3.9c0.9,1.1,2.5,8.9,2.2,10.4c-0.3,1.3-0.8,2.8-0.5,4.2
				c0.3,0.9,0.6,1.7,0.9,2.6c0.4,0.6,4.6,2.2,5.5,2C87.6,71.6,89.1,71.1,88.4,70.3z"/>
		</g>
	</g>
	<g id="Shape_723_7_" class="st0">
		<g>
			<path class="st8" d="M92.2,80.5c-0.1-0.6-3.4,0.1-3.9,0.2c-0.7,0.1-1.4,0.2-2.2,0.2c-0.4-0.1-0.9-0.2-1.3-0.4
				c-0.7,0.2-1.3,0.4-2,0.6c-0.8-0.3-1.6-0.5-2.4-0.8c-1.1-0.1-2.3,0.9-3.4,0.2c-0.4-0.4,0.3-2.7-1.1-2.4c-0.7,0.3-0.6,1.3-1.1,1.7
				c-0.6,0.3-2-0.1-2.6-0.1c0,0.1-0.1,0.2-0.1,0.3c0-0.1,0-0.2,0-0.2c-0.3,0.4-2.4,2.3-1.1,2.7c0.5-0.1,1-0.2,1.5-0.4
				c0.4,0.6,0.7,1.2,1.1,1.8c1.4,1.1,3.7,1.6,5.5,1.9c0.5,0.1,2.6,0.4,2.6-0.5c-1.2-1.2-5.1-0.5-4.6-2.7c0.2-0.2,0.4-0.4,0.6-0.7
				c1.3-0.2,3,0.7,4.2,0.3c2.2-0.3,4.5-0.6,6.7-0.8C89.6,81.3,92.5,82.1,92.2,80.5z"/>
		</g>
	</g>
	<g id="Shape_724_7_" class="st0">
		<g>
			<path class="st20" d="M90.3,81.4c-0.5-0.3-1.7,0.4-2.2,0.6c-1.8,0.5-2.7-0.4-4.5,0.1c-0.1,0.1-1.5,0.1-1.5,0.1
				c-1.3,1.4-0.2,2.2,1.1,2.2C84.4,84.5,90.7,83,90.3,81.4C90.3,81.4,90.3,81.4,90.3,81.4z"/>
		</g>
	</g>
	<g id="Shape_727_7_" class="st0">
		<g>
			<path class="st21" d="M67.5,105.9c0-0.1,0-0.2,0-0.2c-0.1-0.1-0.2-0.3-0.2-0.4L67.5,105.9z M67.3,105.3l-0.3-0.6
				C67.1,104.9,67.1,105.1,67.3,105.3z M90.1,98.2c-0.4-0.4-1-0.3-1.6-0.1c-1.1,0.7-2.2,1.1-2.2,1.8c-0.7,0.4-3.1,2.3-3.8,2.7
				c-0.2,0-1.6,0.2-1.6,0.4c-2.9,0-5.5-0.4-8.5-0.4c-0.1,0.1-0.1,0.1-0.2,0.2c-1.3,0-2.1,0.5-3.2,0.5c-0.3,0.3-1.6,1.2-1.8,1.2
				c0,0.4,0.1,0.8,0.1,1.2c1.4,2,5,4.5,5,4.7c1.2,0.6,2.4,1.3,3.5,1.9c1.3,0,2.8,0.4,4.4,0.4c0.6-0.1,1.8,0.1,1.8-0.4
				c1,0,1.1-2.3,1.4-2.3c0-0.2,0.2-0.4,0.4-0.4c0-0.1,3-3.7,3.4-3.7c0.5-0.9,1.1-1.8,1.6-2.6c0.5-1.3,0.9-2.6,1.4-3.9
				C90.5,98.9,90.1,98.4,90.1,98.2z"/>
		</g>
	</g>
	<g id="Shape_725_7_" class="st0">
		<g>
			<path class="st22" d="M91.5,80.9c-0.8-0.4-1.1-0.4-1.6-0.3c-0.4,0.1-0.8,0.2-1.9,0.2c-1.1,0-1.5,0-2,0.3
				c-0.5,0.3-2.3,0.5-2.9,0.5c-0.6,0-1.7,0-2.1-0.1c-0.4-0.1-3.1-0.4-4.1-0.4c-0.9,0-2.7,0-3.4-0.2c-0.7-0.1-1.1,0.1-1.6,0.4
				s-0.8,0.5-0.4,0.6c0,0,0.5-0.7,1.5-0.5c1,0.1,2.3,0.1,3.2,0.2c0.9,0,3.2-0.1,4.3,0.3c1.1,0.4,2,0,2.8,0c0.8,0,3-0.4,4.2-0.4
				s1.4-0.1,2.2-0.3c0.8-0.2,1.2,0.1,1.6,0.3S92.2,81.4,91.5,80.9z"/>
		</g>
	</g>
	<g id="Shape_726_7_" class="st0">
		<g>
			<path class="st23" d="M87.5,98.5c-0.1,0-0.2,0-0.4,0.2C87.3,98.6,87.2,98.7,87.5,98.5z M87.5,98.5C87.5,98.5,87.5,98.5,87.5,98.5
				c0.1-0.1,0.2-0.1,0.3-0.2C87.7,98.4,87.6,98.5,87.5,98.5z M87.5,98.5c-2.8,2-6.3,2.8-9.9,2.8c0,0-2.3-1.1-2.8-1.1
				c0-0.2-5.8-2.6-5.8-2.8h-0.4c-1.1-1.1-2-0.6-3-1.6c0-0.2-1-1.4-1.2-1.4c0-0.4-3-4.1-3-4.1C60.5,88,58.6,86,57.5,86v1.8l1.4,3.5
				h-0.7c0-0.4-1.4-1-1.4-1.6v2.6c0,2.3,3.4,9.5,4.9,9.5c0,0.3,1.8,1.9,2.1,1.9c0.8,0.8,4.4,3.2,4.9,3.2c0-0.6-0.4-1.2-0.4-1.6
				c0.2,0,0.5-0.2,0.5-0.4l2.1-0.7c3,0,4.7-1.4,7.8-1.4c1.2,0,4.8,1.3,4.8,0.5c0.6,0,3.5-3.3,4.1-3.9C87.9,99.2,87.8,98.6,87.5,98.5
				z"/>
		</g>
	</g>
	<g id="Shape_728_7_" class="st0">
		<g>
			<path class="st24" d="M52.7,66.7c-0.3-0.3-0.4-0.7-0.5-1.1c-0.1,0.2-0.2,0.5-0.2,0.8L52.7,66.7z M110.5,28.4c-0.1,0-3-4.3-3-4.8
				c-0.2,0-0.2,0.1-0.2-0.2c-0.2-0.2-1.9-2.8-1.9-2.8c-0.2,0-0.9-0.5-0.9-0.7c-1.7,0-5.1-2.1-5.1-3.7c-0.3,0-0.9-0.9-0.9-1.2
				c-0.3,0-1.9-1.7-1.9-1.9c-0.7,0-7.5-1.8-7.8-2.1c-0.5,0-2.6-1.3-2.6-1.4c-1.2-0.4-2.4-0.7-3.5-1.1c-1.5,0-5.3,0.1-5.3,0.5
				c-0.3,0-2.1,0.2-2.1,0.4c-2.4,0-4.6-0.4-7.2-0.4c0,0.2-0.8,0.4-1.1,0.4c0,0.3-1.4,1.1-1.8,1.1c0,0.5-7.9,4.6-8.5,4.6
				c0,0.3-5,6.4-6,6.4c0,0.3-1.4,1.6-1.6,1.6v0.4c-0.5,0-1.6,2.7-1.6,2.7c0,2.7-1.3,11.7-2.3,12.7c0.1,1.4,0.1,2.7,0.2,4.1
				c0.2,0,0.9,3.1,0.9,3.7c0,1.8-0.3,8,1.8,8c0,0.2,0.7,0.9,0.9,0.9c0,0.9,1.9,1.8,1.9,2.8c0.2,0.2,0.1,0.4,0.4,0.4v0.2
				c0,1,1.2,2.1,1.2,3.2c0,0.2-0.1,0.4,0.2,0.4c0,1.1-0.4,2.4-0.3,3.5c0.6-1.6,1.5-2.6,1.5-4.5l0.2-0.2c0-2.6-0.2-5.3-0.2-7.6
				c0-0.6-0.1-2.5,0.4-2.5c0-0.5,0.5-2.1,0.9-2.1c0-3.1-0.7-5-0.7-7.8c0.2,0,0.9-2.1,0.9-2.5c0.3,0,0.2-0.1,0.2-0.4
				c0.8-0.8,1-1.5,1.8-2.3c0.7,0,2.1-2.1,2.1-3c0.1,0,1.1-1.5,1.1-1.6c0.6,0,4.4-2.7,4.8-2.7c0.2,0,1.9,0.4,1.9,0.2
				c1.9,0,7.4-0.9,7.4-2.2c0.8,0,3,0.3,3,0.9c0.5,0,3.7,0.8,3.7,0c1.7,0,6,1.9,6,2.3c0.6,0,2.4-0.1,2.8,0.4c2.4-0.1,4.8-0.1,7.2-0.2
				c0,0,2.5,1.6,2.5,2.1c0.2,0,0.4,0.4,0.2,0.4c-0.8,0,1.2,1.5,1.2,2.1c0.2,0,0.4,1.2,0.4,1.4c0,0,1.6,3.8,1.6,4.4
				c0,0.2-0.1,0.2,0.2,0.2c0,1,1.1,3.5,1.1,3.5c0,2.3-0.5,4.2-0.5,6.2c0,0.2,0.1,0.2-0.2,0.2c0,4.3,0.5,7.7,0.5,12
				c-0.2,1.2-0.5,2.5-0.7,3.7c0.1-0.1,0.2-0.1,0.4-0.2c0.1-0.2,0.1-0.5,0.2-0.7c0.5,0,1.4-3,1.4-4.1c0-0.2-0.1-0.2,0.2-0.2
				c0-0.3,0.1-2.1,0.4-2.1c0-0.4,0.4-2.3,0.7-2.3c0-0.6,1.1-2.3,1.6-2.3c0-0.4,1.1-2.3,1.1-2.3c0-0.6,0.5-3.7,0.5-3.7
				c0-1.8-0.2-3.7-0.2-5.7c0-0.7-0.3-3.1,0.2-3.5c0-1,0.5-3.5,1.2-3.5c0-0.2,0.7-2.6,0.7-2.6C111.7,31,110.5,29.9,110.5,28.4z"/>
		</g>
	</g>
	<g id="Shape_729_7_" class="st0">
		<g>
			<path class="st24" d="M50.4,58.4c-0.5-0.4-0.9-0.8-1.4-1.1c-1.3,0-3.8-2.1-3.8-3.4c-0.3,0-0.4,0-0.4,0.3c-0.7,0,0.4,2.6,0.4,2.6
				v-0.3c1.8,2.4,0.7,3.8,0.7,6.8c0,0.5,0.3,2.6,0.6,2.6c0,0.6,0.8,1.9,1.2,1.9c0,0.2,0.4,0.1,0.4-0.2c-0.2-0.4-0.4-0.8-0.6-1.2
				c0-1.2-0.6-2.6-0.6-4.1c0-0.1,0.1-0.1,0.1-0.2c0.1-0.6,0.2-1.3,0.4-1.9c0-0.6,0-1.4,0.4-1.8c0.2-0.1,0.5-0.2,0.7-0.3l1.1,1.7
				c0,1.1,0.6,2.8,0.6,4.2h0.4c0.1,0,0.1-0.1,0.2-0.1c0-1,0.6-1.6,0.6-2.9C51,60.1,50.7,59.2,50.4,58.4z"/>
		</g>
	</g>
	<g id="Shape_730_7_" class="st0">
		<g>
			<path class="st25" d="M110.5,32c0.1-0.4,0.3-0.8,0.4-1.2c0-3.7-3.8-3.5-3.8-7.2c-0.3,0-2.1-0.4-2.4-0.7c0-3.3-4.5-2.9-4.5-6.4
				c-0.2-0.3-0.4-0.6-0.7-0.9c-1.1,0-3.3-0.7-4.4-0.7c-0.9-0.9-2.4-3.2-3.4-3.2c-3.4,0-3.5,1.4-6.2-1.3c-0.6-0.2-1.1-0.4-1.7-0.5
				c-1.6,0-2.6,0.7-4.4,0.7c-1.8,0-1.8-1.6-3.4-1.6c-0.2,0-0.7-0.1-0.7,0.1c-2.1,0-3.3,2.3-5.4,2.3c-0.1,0.1-0.3,0.2-0.4,0.3
				c-1,0-5.6-1.4-5.6,0.5c-0.2,0.3-0.4,0.6-0.7,0.9L62.4,14c-3.7,0-4.6,2.2-4.6,2.4c0,0-3.2,3.4-3.2,4.2c0,0.2-0.3,0.7,0,0.7
				c0,0.3,1.7,2.1,1.9,2.1c0,0.9,0.7,2.2,0.7,3.4c0.2,0.3,0.4,0.5,0.7,0.8c2.1,0,3-0.9,4.5-2.4c2.4,0,4.4,1.6,4.4-2
				c0.4-0.4,0.7-0.7,1.1-1.1c2.1,0,2.3,1.3,4.5,1.3c0.6-0.6,9-3,10.2-3c0.6,0,3.8,3,4.4,3.6c0.5,0.1,1.1,0.2,1.6,0.3
				c0.4-0.4,1.9-0.7,2.5-0.7c0.1,0.1,0.3,0.3,0.4,0.4c0,0.6,0.8,2.3,0.8,2.5c1.2,0,2.6-0.1,3.6-0.1c0,0.7-0.2,2.8,0.1,2.8h3.8
				c0,0.9,1.7,4.6,2.4,4.6c0,1.5-0.6,5.8,1.3,5.8c0.2,0.6,0.4,1.2,0.7,1.9c0,0.5-0.1,2.4-0.5,2.4c0,0.9,0.3,2,0.3,2.5
				c0,0.2-0.1,0.5,0.1,0.5c0,1.2-1.4,5.4-0.7,6.1c0,1.8,1.2,2.6,1.2,4.2c0,0.2-0.1,0.7,0.1,0.7c0,0.5-0.1,1-0.1,1.5
				c0,0.3-0.3,1.9,0,1.9l0.4-0.4c0-2.6,0.3-4.4,0.3-7c-0.7-0.7-0.9-5.2-0.9-6.5c0.4-1,0.7-1.9,1.1-2.9h0.4c0.3,0.3,0.9,1.7,0.9,2
				c0.4,0,0.9-0.1,1.3-0.1c0-0.9,0.3-2.2,0.3-3.4c-1.5-1.5,0.5-5.6,1.3-6.5c0-0.7-0.4-2.5-0.4-2.5v-0.1
				C109.5,33.1,110,32.6,110.5,32z"/>
		</g>
	</g>
	<g id="Shape_731_7_" class="st0">
		<g>
			<path class="st26" d="M73.3,55.9c-0.6-0.7-1.9-1.2-2.7-1.3c-0.8-0.1-4.9-0.4-5.7,2.2c0,0,2.5,1.3,4.6,1.1
				c2.1-0.3,2.9-0.8,3.5-1.1C73.6,56.3,73.9,56.6,73.3,55.9z"/>
		</g>
	</g>
	<g id="Shape_731_copy_7_" class="st0">
		<g>
			<path class="st27" d="M72.3,56.1c-0.4-0.5-0.5-0.8-1.1-0.8c-0.5-0.1-3.4-0.3-4,1.5c0,0,1.7,0.9,3.2,0.7c1.4-0.2,1.3-0.3,1.7-0.6
				C72.6,56.6,72.7,56.6,72.3,56.1z"/>
		</g>
	</g>
	<g id="Ellipse_18_7_" class="st0">
		<g>
			<path class="st28" d="M69.3,54.5c-1.3,0-2.9-0.2-2.9,1.1c0,0.7,0.3,1.4,0.8,1.8c0.4,0.4,1,0.4,1.6,0.4c0.4,0,0.7,0.1,1-0.1
				c0.8-0.4,1.4-1.2,1.4-2.2C71.2,54.3,70.6,54.5,69.3,54.5z"/>
		</g>
	</g>
	<g id="Shape_735_7_" class="st0">
		<g>
			<path class="st29" d="M93.1,51c-0.1,0-0.2,0.1-0.3,0.2c0,0,0,0.1,0,0.1C92.9,51.2,93,51.1,93.1,51z M99.2,55.1L99.1,55
				c-0.1-0.1-0.2-0.1-0.3-0.2c-0.1,0-0.1-0.1-0.2-0.1c0-0.6-2.1-0.8-2.5-1.1c-1.8,0-3.2,0.4-4.9,0.4c-0.1-0.1-0.2-0.1-0.4-0.2
				c-0.3,0-0.4-0.3-0.4-0.6c0-0.7,1.4-1.6,2.3-2.1c0-0.1,0-0.1-0.1-0.2c-1.1,0-5.9,2.5-5.9,3.4c0.2,0.3,0.5,0.6,0.7,0.9
				c0,0.6-0.1,1.1-0.1,1.7c0.7,0,4.7,1.2,5.2,1.7c0.7-0.1,1.4-0.2,2.1-0.4c0.3,0,2.1-0.3,2.1-0.5c0.4,0,2.6-0.6,2.6-0.9
				C99.8,56.9,99.2,55.4,99.2,55.1z"/>
		</g>
	</g>
	<g id="Ellipse_18_copy_3_7_" class="st0">
		<g>
			<ellipse transform="matrix(0.214 -0.9768 0.9768 0.214 -1.1946 111.3482)" class="st30" cx="68.6" cy="56.4" rx="1.1" ry="1.3"/>
		</g>
	</g>
	<g id="Ellipse_18_copy_7_" class="st0">
		<g>
			<circle class="st31" cx="68.8" cy="55.6" r="1"/>
		</g>
	</g>
	<g id="Ellipse_18_copy_2_7_" class="st0">
		<g>
			<circle class="st32" cx="70.1" cy="55.5" r="0.3"/>
		</g>
	</g>
	<g id="Shape_732_7_" class="st0">
		<g>
			<path class="st33" d="M70.5,54.1c-0.8,0-1.3,0.1-2.1,0.2c-0.1,0-0.6,0.1-0.8,0.2c-0.1,0-0.3,0.1-0.8,0.3c-0.8,0.4-1,0.6-1.8,1.1
				c-0.6,0-0.8-0.2-1.3-0.2c-0.2,0.1-0.3,0.2-0.5,0.3c-0.1,0.1-0.2,0.2-0.4,0.3c0,0-0.1,0.1-0.1,0.1h0.1c0.3,0,0.6,0.1,1,0.1
				c-0.1,0.2-0.2,0.4-0.3,0.7c0,0,0,0.1,0,0.1c0,0,0.4-0.3,0.8-0.1c0.6,0.2,2.9,0.7,2.1,0.4c-1.2-0.5-1.2-1.1-1-1.2
				c1.2-0.6,2.5-1.3,3.1-1.4c1.4-0.2,1.7,0,2.6,0c0.8,0.3,1.5,0.5,2.3,0.8v-0.2C73.4,54.6,71.5,54.1,70.5,54.1z"/>
		</g>
	</g>
	<g id="Shape_733_7_" class="st0">
		<g>
			<path class="st33" d="M73.1,54c-0.1,0-0.9-0.3-1-0.4c-1.1-0.2-2.1-0.2-3.2-0.4c-1.9,0-6.1,1.3-6.1,2.9c0,0,0.1,0.1,0.1,0.1h0.2
				c0,0,0.1-0.1,0.1-0.1c0,0,0.1-0.1,0.1-0.1c0.3-0.5,1.4-1.2,1.9-1.2c0.8-0.3,1.6-0.5,2.5-0.8c1.9-0.9,6.1,0.5,7.6,1.4v-0.1
				C75.4,54.7,73.6,54,73.1,54z"/>
		</g>
	</g>
	<g id="Shape_731_copy_2_15_" class="st0">
		<g>
			<path class="st26" d="M98,56c-0.6-0.7-1.9-1.2-2.7-1.3c-0.8-0.1-4.9-0.4-5.7,2.2c0,0,2.5,1.1,4.6,0.8c2.1-0.3,2.9-0.5,3.5-0.9
				C98.4,56.4,98.6,56.7,98,56z"/>
		</g>
	</g>
	<g id="Shape_731_copy_2_13_" class="st0">
		<g>
			<path class="st27" d="M97,56.2c-0.4-0.5-0.5-0.8-1.1-0.8s-3.4-0.3-4,1.5c0,0,1.7,0.9,3.2,0.7c1.4-0.2,1.3-0.3,1.7-0.6
				S97.4,56.6,97,56.2z"/>
		</g>
	</g>
	<g id="Ellipse_18_copy_4_31_" class="st0">
		<g>
			<path class="st28" d="M94,54.6c-1.3,0-2.9-0.2-2.9,1.1c0,0.7,0.1,1.2,0.6,1.6c0.4,0.4,1.2,0.4,1.9,0.4c0.4,0,1,0.1,1.3-0.1
				c0.8-0.4,1.1-1,1.1-2C96,54.4,95.4,54.6,94,54.6z"/>
		</g>
	</g>
	<g id="Ellipse_18_copy_4_29_" class="st0">
		<g>
			<ellipse transform="matrix(0.5641 -0.8257 0.8257 0.5641 -6.0889 101.3882)" class="st30" cx="93" cy="56.5" rx="1" ry="1.3"/>
		</g>
	</g>
	<g id="Ellipse_18_copy_4_27_" class="st0">
		<g>
			<circle class="st31" cx="93.6" cy="55.7" r="1"/>
		</g>
	</g>
	<g id="Ellipse_18_copy_4_25_" class="st0">
		<g>
			<circle class="st32" cx="94.6" cy="55.7" r="0.3"/>
		</g>
	</g>
	<g id="Shape_734_7_" class="st0">
		<g>
			<path class="st34" d="M94.1,53.3c-0.8,0-3.7,0.2-3.7,0.7c-0.4,0-1.9,0.8-1.9,1.3c0,0,0,0.1,0,0.1c0.7-0.3,1.3-0.6,2-0.9
				c0,0,0,0,0,0v0c-1,0.7-1.9,1.3-2.9,2v0.1c0,0.1-0.1,0.2-0.1,0.3c2.1,0,2.7-2.3,4.7-2.3c0.3-0.1,0.6-0.1,0.8-0.1
				c0.5,0,2.5,0,2.5,0.5c0.7,0,1.4,0.9,1.4,1.6h0c0.5,0.1,1.1,0.2,1.6,0.4c0.1-0.1,0.2-0.1,0.3-0.2c0-0.4-2.3-2.4-2.9-2.4v-0.2
				c1.3,0,3.2,0.8,3.2,2c0,0,0.1,0.1,0.1,0.1c0,0,0.1-0.1,0.1-0.1C99.4,54,96.6,53.3,94.1,53.3z"/>
		</g>
	</g>
	<g id="Shape_736_7_" class="st0">
		<g>
			<path class="st35" d="M96,77.8c0-1.2-0.9-2.6-1.7-3.7V74c-0.1-0.1-0.3-0.2-0.4-0.3c-0.5,0.5,0.7,4.5,0.7,4.9
				c0.3,0.1,0.6,0.3,0.9,0.4c0.2,0,0.4-0.3,0.4-0.5C96.1,78.5,96,78,96,77.8z"/>
		</g>
	</g>
	<g id="Shape_737_7_" class="st0">
		<g>
			<path class="st35" d="M88.9,66.6c-0.1,0-0.2,0.1-0.3,0.1c0,0.4-0.1,1.9,0.3,1.9c0,0.6,1.3,1.3,1.9,1.3h0.5v-0.1
				C91.3,69.5,89.3,67.4,88.9,66.6z"/>
		</g>
	</g>
	<g id="Shape_739_7_" class="st0">
		<g>
			<path class="st5" d="M88.2,79.3c-0.9-0.3-1.8-0.6-2.7-1c-0.8,0.2-1.5,0.5-2.3,0.7c-0.6-0.1-1.2-0.2-1.8-0.4
				c-0.1,0-0.1-0.1-0.2-0.1c-0.2,0.1-0.4,0.2-0.6,0.4c0,0.3,0.1,0.8,0.1,1c0.8,0,1.4,0.7,2.5,0.7c0.9-0.2,1.8-0.5,2.7-0.7
				c0.6,0,2.5,0.2,2.5-0.4C88.3,79.4,88.3,79.3,88.2,79.3z"/>
		</g>
	</g>
	<g id="Shape_743_7_" class="st0">
		<g>
			<path class="st36" d="M93.8,113.6c0.8-4,0-13-0.3-13.8c-0.3-0.8-1.6,9.3-4.2,10.9s-7.7,5.3-13,3.7c-5.3-1.6-14.6,5.6-13.3,8.5
				l17,49.3l17,0.8c0,0,0.3-26.8,0.5-35.5C97.7,128.7,93,117.6,93.8,113.6z"/>
		</g>
	</g>
	<g id="Shape_744_7_" class="st0">
		<g>
			<path class="st37" d="M89.6,140.4c-3.7-6.9-4.9-12.2-4.9-12.2s1.1-5.8,2.9-9.5c1.9-3.7-2.4-4.8-2.4-4.8s-6.9,1.3-8.7,1.3
				c-1.9,0-5,3.2-4.5,5l5,9c0,0-1.1,5.8-1.1,9.8c0,5.6-0.3,20.4-0.3,20.4l4.5,13.2H96C96,172.7,93.3,147.3,89.6,140.4z"/>
		</g>
	</g>
	<g id="Shape_741_7_" class="st0">
		<g>
			<path class="st38" d="M62,100.6c-5.6-5-9-9-9.5-11.9c0,0-2.9,2.9-1.6,7.2c1.3,4.2,15.1,34.7,15.1,34.7l12.2-16.4
				C78.1,114.1,67.5,105.7,62,100.6z"/>
		</g>
	</g>
	<g id="Shape_742_7_" class="st0">
		<g>
			<path class="st38" d="M93.5,112c1.1-4.5,0-12.2,0-12.2s-2.4,6.1-5,9c-2.7,2.9-5.6,4.8-5.6,4.8s2.9,1.6,5.3,5.6
				c2.4,4,8.2,13,8.2,13S92.4,116.5,93.5,112z"/>
		</g>
	</g>
	<g id="Shape_745_7_" class="st0">
		<g>
			<path class="st39" d="M37.4,109.6c-0.1,0.5-0.1,1-0.2,1.6l1-6.9C38.3,104.3,38,105.5,37.4,109.6z M39.9,136.3l6.2-6.4l-9.2-5.3
				c0,0,0-8.6,0.4-13.4l-2,13.4l8.3,5.6l-5.2,6.1l21.6,35.9l1.1-1.1L39.9,136.3z"/>
		</g>
	</g>
	<g id="Shape_746_7_" class="st0">
		<g>
			<polygon class="st39" points="110.6,126.3 115.2,121 107.5,113 113.6,121 109.1,126.6 118.6,132.7 114.2,173.3 116.1,172.8 
				120.3,132.5 			"/>
		</g>
	</g>
	<g id="Shape_747_7_" class="st0">
		<g>
			<path class="st39" d="M137.2,126.3c0,0-5.7,26.5-6.6,31.4c-0.9,5,0,14.1,0,14.1l1.9,0.3c0,0-0.8-12.1,1.4-20.2
				C135.4,146.6,137.2,126.3,137.2,126.3z"/>
		</g>
	</g>
</g>
</svg>
