<?xml version="1.0" encoding="utf-8"?>
<!-- Generator: Adobe Illustrator 19.1.0, SVG Export Plug-In . SVG Version: 6.00 Build 0)  -->
<svg version="1.1" id="Layer_1" xmlns="http://www.w3.org/2000/svg" xmlns:xlink="http://www.w3.org/1999/xlink" x="0px" y="0px"
	 viewBox="0 0 150 150" style="enable-background:new 0 0 150 150;" xml:space="preserve">
<style type="text/css">
	.st0{clip-path:url(#SVGID_3_);}
	.st1{fill-rule:evenodd;clip-rule:evenodd;fill:#0E0E0E;}
	.st2{fill-rule:evenodd;clip-rule:evenodd;fill:#97A8AF;}
	.st3{fill-rule:evenodd;clip-rule:evenodd;fill:#B02024;}
	.st4{fill-rule:evenodd;clip-rule:evenodd;fill:#87241A;}
	.st5{fill-rule:evenodd;clip-rule:evenodd;fill:#EEF2F1;}
	.st6{fill-rule:evenodd;clip-rule:evenodd;fill:#282A2D;}
	.st7{fill-rule:evenodd;clip-rule:evenodd;fill:#141414;}
	.st8{fill-rule:evenodd;clip-rule:evenodd;fill:#9B624C;}
	.st9{fill-rule:evenodd;clip-rule:evenodd;fill:#8E5742;}
	.st10{fill-rule:evenodd;clip-rule:evenodd;fill:#6B473A;}
	.st11{fill-rule:evenodd;clip-rule:evenodd;fill:#C57C5A;}
	.st12{fill-rule:evenodd;clip-rule:evenodd;fill:#E4A281;}
	.st13{fill-rule:evenodd;clip-rule:evenodd;fill:#E6A388;}
	.st14{fill-rule:evenodd;clip-rule:evenodd;fill:#EBB7A2;}
	.st15{fill-rule:evenodd;clip-rule:evenodd;fill:#9C8073;}
	.st16{fill-rule:evenodd;clip-rule:evenodd;fill:#CEAB9C;}
	.st17{fill-rule:evenodd;clip-rule:evenodd;fill:#333431;}
	.st18{fill-rule:evenodd;clip-rule:evenodd;fill:#57706B;}
	.st19{fill-rule:evenodd;clip-rule:evenodd;fill:#363936;}
	.st20{fill-rule:evenodd;clip-rule:evenodd;fill:#FFFFFF;}
	.st21{fill-rule:evenodd;clip-rule:evenodd;fill:#C86E60;}
	.st22{fill-rule:evenodd;clip-rule:evenodd;fill:#A9644D;}
	.st23{fill-rule:evenodd;clip-rule:evenodd;fill:#934B3D;}
	.st24{fill-rule:evenodd;clip-rule:evenodd;fill:#E89A84;}
	.st25{fill-rule:evenodd;clip-rule:evenodd;fill:#844937;}
	.st26{fill-rule:evenodd;clip-rule:evenodd;fill:#4C261E;}
	.st27{fill-rule:evenodd;clip-rule:evenodd;fill:#C38B78;}
	.st28{fill-rule:evenodd;clip-rule:evenodd;fill:#251916;}
	.st29{fill-rule:evenodd;clip-rule:evenodd;fill:#D8CFBE;}
	.st30{fill-rule:evenodd;clip-rule:evenodd;fill:#CA6F6E;}
	.st31{fill-rule:evenodd;clip-rule:evenodd;fill:#E09B9A;}
	.st32{fill-rule:evenodd;clip-rule:evenodd;fill:#92654C;}
	.st33{fill-rule:evenodd;clip-rule:evenodd;fill:#D6906F;}
	.st34{fill-rule:evenodd;clip-rule:evenodd;fill:#7F4E40;}
	.st35{fill-rule:evenodd;clip-rule:evenodd;fill:#B16E4D;}
	.st36{fill-rule:evenodd;clip-rule:evenodd;fill:#50372C;}
	.st37{fill-rule:evenodd;clip-rule:evenodd;fill:#864E39;}
	.st38{fill-rule:evenodd;clip-rule:evenodd;fill:#A76443;}
	.st39{fill-rule:evenodd;clip-rule:evenodd;fill:#523A33;}
	.st40{fill-rule:evenodd;clip-rule:evenodd;fill:#D69E80;}
	.st41{fill-rule:evenodd;clip-rule:evenodd;fill:#8B523B;}
	.st42{fill-rule:evenodd;clip-rule:evenodd;fill:#E2BEB7;}
	.st43{fill-rule:evenodd;clip-rule:evenodd;fill:#2F2922;}
	.st44{fill-rule:evenodd;clip-rule:evenodd;fill:#5A4F3B;}
	.st45{fill-rule:evenodd;clip-rule:evenodd;fill:#DC9D82;}
	.st46{fill-rule:evenodd;clip-rule:evenodd;fill:#D69977;}
	.st47{fill-rule:evenodd;clip-rule:evenodd;fill:#CAAFA4;}
	.st48{fill-rule:evenodd;clip-rule:evenodd;fill:#50382C;}
	.st49{opacity:0.4314;clip-path:url(#SVGID_3_);}
	.st50{fill-rule:evenodd;clip-rule:evenodd;fill:#B97F65;}
	.st51{fill-rule:evenodd;clip-rule:evenodd;fill:#BE8971;}
	.st52{fill-rule:evenodd;clip-rule:evenodd;fill:#5F281B;}
</style>
<g>
	<defs>
		<circle id="SVGID_1_" cx="75" cy="75" r="75"/>
	</defs>
	<linearGradient id="SVGID_2_" gradientUnits="userSpaceOnUse" x1="75" y1="150" x2="75" y2="0">
		<stop  offset="0" style="stop-color:#212121"/>
		<stop  offset="1" style="stop-color:#EF4438"/>
	</linearGradient>
	<use xlink:href="#SVGID_1_"  style="overflow:visible;fill:url(#SVGID_2_);"/>
	<clipPath id="SVGID_3_">
		<use xlink:href="#SVGID_1_"  style="overflow:visible;"/>
	</clipPath>
	<g id="Shape_501_1_" class="st0">
		<g>
			<path class="st1" d="M103.2,84.8c0,0-1.2,18.5-0.5,17.1c0.7-1.4,3.8-5.1,5.1-10C109.1,87.1,103.2,84.8,103.2,84.8z"/>
		</g>
	</g>
	<g id="Shape_504_1_" class="st0">
		<g>
			<path class="st2" d="M77.1,119.1c-2.7,1.6-5.7,0-8.7-0.5c-3-0.5-7.5,11.2-8.2,14.6s0.9,38.2,0.9,38.2l4.6-11l17.6-28.8
				L77.1,119.1z"/>
		</g>
	</g>
	<g id="Shape_506_1_" class="st0">
		<g>
			<path class="st3" d="M76.4,120.9c0,0-5.6-0.3-6.4-0.9c-0.8-0.6-4.7,1-5,2.7c0,0-1.1,2.5-1.1,4.1s-0.6,2.9,0.9,5
				c0.9,1.3-0.9,3.8-1.6,5.5c-0.9,2.2-2.3,8.3-3,10.5s1.6,22.2,1.6,22.2l13.3-24.2c0,0-1.8-10.1-1.1-11.2c0.7-1.1,2.6-1.6,4.6-2.7
				c2.3-1.4,3.4-3.4,3.4-3.4L76.4,120.9z"/>
		</g>
	</g>
	<g id="Shape_507_1_" class="st0">
		<g>
			<path class="st4" d="M75.8,120.4c0,0,2.1,6.1,2.7,7.8c0.7,1.7-2.7,1.1-4.8,3.2c-2.1,2.1-6.3-0.5-8,0.7c-1.7,1.1,4,0.2,5.5,1.8
				c1.5,1.6,0.1,8.3,0.2,9.6c0.1,1.3-7.2,19.2-8.7,20.8c-1.5,1.6-1.5,0.9-2.1-0.5c-0.6-1.4-0.2,6.2-0.2,6.2l9.4-10.7l5.3-17.1
				l-0.7-7.8c0,0,6.2-2.2,6.9-4.1C81.9,128.3,76.8,119.4,75.8,120.4z"/>
		</g>
	</g>
	<g id="Shape_502_1_" class="st0">
		<g>
			<path class="st5" d="M103.4,86.6c-0.5,1.1-6.6,14.9-10.1,18.3c-3.4,3.4-18.3,14.9-18.3,14.9l6.6,11c0,0,23.8-32.2,24.2-35.7
				C106.4,91.6,103.4,86.6,103.4,86.6z"/>
		</g>
	</g>
	<g id="Shape_503_1_" class="st0">
		<g>
			<path class="st5" d="M63,105.6c-1.1,1.1-0.7,13.5-1.1,18.1c-0.5,4.6-2.3,10.1-0.9,9.4s2.7-7.8,4.8-10.5c2.1-2.7,6.2-3.9,6.2-3.9
				C71.2,117.7,64.1,104.4,63,105.6z"/>
		</g>
	</g>
	<g id="Shape_505_1_" class="st0">
		<g>
			<path class="st6" d="M161.2,127.1c-2.3-3.7-23.1-16.7-28.3-18.7c-5.3-2.1-16.5-11-19.2-13.7s-6.4-10.6-10.5-11.9
				c0.2,0.8,0.2,2.3,0.2,2.3s4.6,3.7,4.1,6.9c-0.5,3.2-7.5,12.6-10.5,17.6c-3,5-14.6,18.3-18.7,25.6c-4.1,7.3-17.4,34.1-17.4,34.1
				v-40.5l1.8-22.6l-2.1-3c0,0-16.2,6.9-27,12.6s-14.9,11.2-16.2,20.6c-1.4,9.4-9.1,46.4-9.1,46.4h153.1
				C161.5,182.6,163.5,130.7,161.2,127.1z"/>
		</g>
	</g>
	<g id="Shape_508_1_" class="st0">
		<g>
			<path class="st7" d="M118.5,103.3c-1.4,2.7-2.5,24.5-2.5,24.5l-12.1,6.2l5.9,11.9l-20.3,19.7l-16.7,17c0,0,35.2-31.4,36.6-33.2
				c1.4-1.8,1.8-3.4,1.8-3.4l-5.5-11l11.9-6.6c0,0,0.5-9.6,0-11.4C117.1,114.9,118.5,103.3,118.5,103.3z"/>
		</g>
	</g>
	<g id="Shape_509_1_" class="st0">
		<g>
			<path class="st7" d="M45.6,128.2l-1.4-7.5l9.4-9.8l-10.3,8.7l0.9,7.5l-9.6,7.1c0,0,3.2,24.1,13.7,48.3c0,0-12.3-37.3-12.8-47.4
				C40.3,131.2,45.6,128.2,45.6,128.2z"/>
		</g>
	</g>
	<g id="Shape_444_1_" class="st0">
		<g>
			<path class="st8" d="M103.6,58.7c-0.1-0.9,0.8-3.4,0.7-4.1c-0.1-0.7-6.2-24.7-15.1-27.9c-8.9-3.2-43.1-4.2-44.8,17.4
				c0,0-1,11.2,0,15.5c0.3,4.8,0.1,7.2,0.9,11c0.8,3.8,1.7,12.3,3.9,16.7c2.2,4.3,6.1,9.5,8.9,11.9c2.9,2.4,4.9,5.3,5.9,7.8
				c1,2.5,5.9,16.1,13.3,10.7c7.3-5.4,10.4-7.4,12.1-8.7c1.7-1.3,9.3-10.6,10.7-12.8c1.5-2.2,3.4-8.1,3.4-9.6s-0.5-6.1-0.5-6.9V67.4
				C103.2,66,103.8,59.6,103.6,58.7z"/>
		</g>
	</g>
	<g id="Shape_492_1_" class="st0">
		<g>
			<path class="st9" d="M101.6,88.9c0-1.4-4.8-1.6-7.5,2.3c-2.7,3.9-4.3,3.2-8.2,4.8s-3.4,3.2-5,4.6c-1.6,1.4-10.7,1.8-14.4,1.8
				c-3.7,0-5.3-2.1-7.5-3.7c-2.3-1.6-2.7-0.9-2.7-0.9s2.7,4.8,4.3,5.9c1.6,1.1,3.7,3.9,5.5,7.8s4.3,7.8,7.3,8.5s7.8-4.3,11.2-7.5
				c3.4-3.2,14.2-13.5,16.5-17.1C103.2,91.6,101.6,90.2,101.6,88.9z"/>
		</g>
	</g>
	<g id="Shape_491_1_" class="st0">
		<g>
			<path class="st10" d="M100,89.8c-1.8,1.8-5.7,5-8.5,5.9c-2.7,0.9-4.6,5-6.6,8s-6.6,3.7-10.7,2.3S63,104,63,104
				c3.4,7.1,9.1,9.6,12.8,8.7c3.7-0.9,15.3-7.8,18.1-11.2S101.8,88,100,89.8z"/>
		</g>
	</g>
	<g id="Shape_445_1_" class="st0">
		<g>
			<path class="st11" d="M94.3,70.8c-0.5-2.1-1.9-3.4-4.3-5c-2.4-1.6-2.9,1.3-2.7,3.9c0.1,2.6-1.1,2.3-2.5,3.7s-6.1-3.9-7.3-5.3
				s-1.3-1.9-1.6-3.9s2.1-0.5,5.9,0.2s4-0.2,7.5-1.1c3.5-0.9-0.1-3-0.2-4.6s2.3-0.2-3.9-3C79,53,75,58.9,73.2,58.7s0.3,3.1-0.7,2.7
				c-1-0.3-2.5-1.3-2.5-2.3c0-1,3.7-6.5,5.7-7.5c2.1-1,7.3-1.9,8.9-1.8c1.6,0.1,2.6,2.7,3.7,2.3c1-0.5,1.7-5.3,1.1-6.9
				c-0.6-1.6-1.3-3.3-1.6-5.7s-0.8-6.7-1.1-8.7c-0.3-1.9-3.7-1.5-8.2-1.4c-4.6,0.1-8.1,0-12.8,0.9S54,34.6,50.8,36.5
				s-3.2,4.9-3.7,9.1c-0.5,4.2,0.7,6.6,0.7,6.6c-1.1,1.1,0.1,3.4,0.9,3.9c0.8,0.5,1.7,1.1,0.9,2.3c-0.5,0.8-0.6,2.9,1.6,4.8
				s6.4,0.3,8-0.5s2.2,0,0.7,1.4c-3.2,2.8,0.8,0.5,0.5,1.6C60,67.2,56.7,70,54,72.5c-2.7,2.5-4.2,1-4.5-3.1
				c-0.3-4.1,1.7-4.2,0.5-4.3c-1.3-0.1-3.7,5.8-3.2,8.5c0.5,2.6,0.7,5.7,1.8,9.4c1.1,3.7,3.5,10.1,5.5,11.9c1.9,1.8,4.7,3.4,7.5,5.7
				c2.9,2.3,4.7,1.3,9.1,1.4c4.5,0.1,9.3-2.1,14.2-3.4C89.8,97.1,92,94,95,90C97.9,86,94.7,72.9,94.3,70.8z"/>
		</g>
	</g>
	<g id="Shape_471_1_" class="st0">
		<g>
			<path class="st12" d="M55.9,55.7c-3-0.5-3.7,2.3-3.7,2.3c0-1.4,8.8,2.2,8.5,1.1S58.8,56.2,55.9,55.7z"/>
		</g>
	</g>
	<g id="Shape_446_1_" class="st0">
		<g>
			<path class="st13" d="M85.4,39c-1.7-1.8-4.8-1.9-6.2-5.5c-1.4-3.5-12.5-5.9-25.8,2.7c0,0-4.6,4.9-4.3,7.5
				c0.2,2.6,2.2,4.5,1.1,5.9c-1,1.5,2.3,2.6,5,1.6c2.7-1,5.2,0.9,7.5,1.1c3.5,0.4,1.9,2,1.6,3.9c-0.4,2,0,1.7,0,3.4
				c0,1.7,3,3.5,3.7,0.9c0.7-2.6,1-4.3,0.9-5.9c-0.1-1.6,1-3.5,2.7-3.2c1.7,0.3,6.9-1,9.1-1.8c2.3-0.8,3.4-3.2,4.1-5.5
				S87.1,40.9,85.4,39z"/>
		</g>
	</g>
	<g id="Shape_447_1_" class="st0">
		<g>
			<path class="st14" d="M80.3,46.6c-0.8-1.4-4.9-0.9-3.9-2.5c1-1.6,1-4.1-1.8-5.7c-2.9-1.6-5.5-1.8-10.3-1.6
				c-5.2,0.3-8.5,1.6-8.5,1.6c-3.5,1.5-1.5,3.2-0.7,5c0.8,1.8-1.5,2.6-1.4,5.3c0.1,2.6,10.3,0.7,12.8,0.7s8.9,0.9,11.9,0.2
				C81.5,48.9,81.1,47.9,80.3,46.6z"/>
		</g>
	</g>
	<g id="Shape_451_4_" class="st0">
		<g>
			<path class="st15" d="M57.7,58c-1.1-0.2-4.8-0.1-5.5,1.4c0,0,0.4,1.2,2.5,1.4c2.8,0.2,5.5-0.7,5.5-1.1
				C60.2,59.3,59.6,58.3,57.7,58z"/>
		</g>
	</g>
	<g id="Shape_451_copy_2_1_" class="st0">
		<g>
			<path class="st16" d="M57.5,58.2c-1.1-0.2-3,0.2-3.7,1.6c0,0-1.2,0.8,0.9,0.9c2.8,0.2,4.6-0.7,4.6-1.1
				C59.3,59.3,59.4,58.5,57.5,58.2z"/>
		</g>
	</g>
	<g id="Ellipse_10_4_" class="st0">
		<g>
			<path class="st17" d="M56.6,57.3c-1.3,0-2.5,0.4-2.5,1.7s1.1,2.4,2.4,2.4s2.4-1.1,2.4-2.4S57.9,57.3,56.6,57.3z"/>
		</g>
	</g>
	<g id="Ellipse_10_copy_4_" class="st0">
		<g>
			<path class="st18" d="M56.6,58.2c-1.1,0-1.5,0.1-2,0.8c0,1.1,0.9,1.9,1.9,1.9c1.1,0,1.9-0.9,1.9-1.9
				C57.9,58.4,57.6,58.2,56.6,58.2z"/>
		</g>
	</g>
	<g id="Ellipse_10_copy_2_4_" class="st0">
		<g>
			<circle class="st19" cx="56.5" cy="59" r="1"/>
		</g>
	</g>
	<g id="Ellipse_10_copy_3_4_" class="st0">
		<g>
			<circle class="st20" cx="56.9" cy="58.6" r="0.3"/>
		</g>
	</g>
	<g id="Shape_454_1_" class="st0">
		<g>
			<path class="st12" d="M60.4,64.4c0.5-0.9,2-3-0.2-2.1c-2.5,1-4,1.5-7.8,1.1c-0.4,0-1.4-0.5-2.3-0.7s-1-0.8-1.4-1.4
				c-0.4-0.6,0.1-1.1-0.5-1.4c-0.6-0.3-1.6-1.1-1.6-1.1c-0.6-0.7-0.7,0.9-0.5,2.5c0.3,1.6,0.2,1.6,0.2,3c0,1.3,1.1,1,0.9,2.3
				c-0.1,1.3,1.8-1.4,2.3-0.9c0.5,0.5-1.3,1.4-0.7,6.4c0.3,2.5,2.6,3.2,4.1,2.5c1.6-0.7,4.5-4.2,5.7-5.5c1.2-1.3,2.4-2.7,2.7-3.9
				C61.9,64.2,60,65.3,60.4,64.4z"/>
		</g>
	</g>
	<g id="Shape_477_1_" class="st0">
		<g>
			<path class="st8" d="M46.5,65.3c-0.6,1.8,0.2,1.4,0.2,1.4s0.9-3.2,3.4-3.7C50.1,62,47.1,63.6,46.5,65.3z"/>
		</g>
	</g>
	<g id="Shape_477_copy_1_" class="st0">
		<g>
			<path class="st8" d="M45.5,64.3c-0.9,1.6,0,1.4,0,1.4s1.4-3,4-3C49.6,61.7,46.4,62.7,45.5,64.3z"/>
		</g>
	</g>
	<g id="Shape_456_1_" class="st0">
		<g>
			<path class="st21" d="M69.6,66.9c-0.2-0.8-2.1-2.6-2.7-1.8s-3.7,0.7-3.7,0.7s-1.9,2.1-2.1,3.7c-0.2,1.5-0.1,1.8,1.6,3
				c1.7,1.2,3.5,1.2,4.6,0.2c1.1-1,2.1-2,2.3-3.4C69.8,67.8,69.8,67.7,69.6,66.9z"/>
		</g>
	</g>
	<g id="Shape_457_1_" class="st0">
		<g>
			<path class="st22" d="M84.2,77.7c-1.1-0.9-3.8-4.5-6.4-7.3c-2.6-2.8-2.9-0.5-3.9-0.9c-1-0.4-0.6,1.2-1.4,1.1
				c-0.8-0.1,0.3-0.8-0.2-1.1c-0.5-0.4,0.4-2.3-1.4-3.4c-1.8-1.1-1.7,2.6-2.1,3.9s-1.2,0.9-2.1,1.8c-0.8,0.9-3,0.1-3.9-0.7
				c-0.9-0.8-1.6-1.6-1.6-1.6c-0.4-2.4-2.9,1.4-3.7,2.3c-0.8,0.8-1.2,2.7-1.8,3.9c-0.6,1.2-2.2,2.4-2.1,4.3c0.2,2,2.6,2.4,3.7,2.3
				c1.1-0.2,3.7-1.4,2.1-2.3c-1.7-0.9-0.4-2.3-0.5-3.9s1.9-1,3,0c1.1,1,2.3,1.1,4.3,1.4c2.1,0.2,2.9-1.2,4.6-1.8
				c1.7-0.6,2.4-1.4,2.7-1.8c0.4-0.5,0.9-1.3,1.1-2.5s1.9,0.2,2.3,1.4c0.4,1.2,3.2,4.2,4.1,5.3c0.9,1.1,0,0.9-1.4,1.6
				s-4.3,0.5-5.5,0.7c-1.1,0.2-1.9,0.2-1.6,0.9s6.4,2.1,6.4,2.1s2.9,0,3.9-0.5c1-0.5,1.5,0.5,2.1-0.9C85.7,80.4,85.3,78.6,84.2,77.7
				z"/>
		</g>
	</g>
	<g id="Shape_463_1_" class="st0">
		<g>
			<path class="st23" d="M82.8,80.9c-0.4,0.1-2,0.1-2.5,0.2c-0.5,0.1-3.4-0.3-4.1-0.5c-0.7-0.2-3.5,0-4.6,0s-2.8,0.3-4.6,0.7
				c-1.1-0.2-3.9-0.9-4.8-0.9c-0.9-0.1-2.5-0.1-3,0.5s-2.7,0.7-2.7,0.7s-0.2,0-0.5,0.5c-0.2,0.5,1.5,1.5,2.3,1.8
				c0.8,0.3,0.6,0.6,0.9,1.4c0.3,0.7,0.9,2.2,2.1,3.4c1.1,1.3,6.7,1.1,8.2,1.1c1.5,0.1,4.6-1.3,5.3-1.6s3.7-1.8,4.8-2.7
				c1.1-0.9,1.9-2.5,3-3C83.6,82,83.2,80.8,82.8,80.9z"/>
		</g>
	</g>
	<g id="Shape_455_1_" class="st0">
		<g>
			<path class="st24" d="M68.2,66.2c-0.1-0.9-0.3-4-0.2-5.3c0.1-1.3-4.2-1.7-3.7,0.2c0,0-0.8,3-0.9,5s-0.8,2.7-0.2,4.1
				c0.5,1.4,2.4,2.3,3.7,0.9S68.3,67.1,68.2,66.2z"/>
		</g>
	</g>
	<g id="Shape_458_1_" class="st0">
		<g>
			<path class="st25" d="M74.2,72.2c-0.5,0-1.3,0.6-2.5,0.5c-1.2-0.1-1.1-0.8-2.7-0.5s-1.1,1.3-1.8,1.6c-0.8,0.3-1.2,0.5-2.1,0.5
				c-0.9,0-1.4-0.6-2.7-1.1c-1.3-0.5-1.6,0.2-1.6,0.2c-1,0.1,2.1,1.6,2.5,2.1c0.4,0.4,1.5,0.6,2.7,0.9c1.3,0.3,2.7-0.7,3.4-1.4
				c0.7-0.6,2.2-0.1,3.4-0.5c1.2-0.4,1.6-1.1,1.8-1.6C74.9,72.3,74.7,72.2,74.2,72.2z"/>
		</g>
	</g>
	<g id="Shape_460_1_" class="st0">
		<g>
			<path class="st26" d="M71.6,73.3c-0.9-0.1-0.9-0.4-2.5,0.2c-1.6,0.6-1.4,1.6-1.4,1.6c-0.2,0.5,2.1-1.1,2.7-1.1
				c0.7-0.1,2.1,0.2,2.7-0.2C73.9,73.3,72.5,73.4,71.6,73.3z M62.7,73.3c-0.5-0.5-2.5-0.4-1.6,0.2c0.9,0.6,2.3,1,2.7,1.1
				C63.9,74.7,63.3,73.8,62.7,73.3z"/>
		</g>
	</g>
	<g id="Shape_461_1_" class="st0">
		<g>
			<path class="st27" d="M82.6,79.3c-0.4-0.3-1.8-1.7-3.2-2.7c-1.4-1.1-2.1-4.6-3.4-5.7c-1.3-1.1-0.8,1-1.1,1.8s-1.1,1.8-1.4,2.7
				s-1.2,1-2.7,0.5c-1.5-0.5-1.8,1.1-3,1.6c-1.1,0.5-2.5-0.4-4.1-0.9c-1.6-0.5-3.4-1.6-3.4-1.6c-0.5-0.5-1.3,2.1-1.4,2.7
				c-0.1,0.6,0.1,1.5,0.5,2.1s3.4,0.2,4.6,0.5c1.1,0.2,2.5,0.6,4.1,0c1.6-0.6,6.5,0,7.3,0c0.8,0,2.5,0.5,2.7-1.1
				C78.3,77.4,83,79.6,82.6,79.3z"/>
		</g>
	</g>
	<g id="Shape_465_1_" class="st0">
		<g>
			<path class="st28" d="M61.6,81.3c-1.4-0.4-3,0.9-3,0.9c-0.7,0.2,1.6,1.3,2.3,1.8s1.5,1.3,1.1,0.5C61.6,83.7,63,81.7,61.6,81.3z"
				/>
		</g>
	</g>
	<g id="Shape_464_1_" class="st0">
		<g>
			<path class="st29" d="M78,82.2c-0.1-0.8-0.3-0.3-0.7,0s-0.8,0.8-0.9,0.2c-0.2-0.5-1-0.7-1.4-0.2c-0.4,0.5-0.7,1.2-0.9,0.5
				C74,82,72.9,82,72.6,82.5s-0.8,1.6-1.1,0.5c-0.4-1.1-2.3-0.9-2.5-0.2c-0.2,0.7-0.6,0.8-1.4,0c-0.7-0.8-1.9-0.3-2.3,0
				s-0.5,0.3-1.1-0.2c-0.6-0.5-0.6,0.4-0.9,0.7s-0.9-0.9-1.4-1.1c-0.5-0.3-0.2,2.3-0.2,2.3c0.2,0.7,1.2,1,1.1,0.7
				c0-0.3,0.5-0.1,0.7,0.2s1.5,0.3,1.6,0c0.1-0.3,0.3-0.1,0.5,0.2c0.2,0.3,2.9,0.2,3,0c0.1-0.2,0.6-0.2,0.7,0
				c0.1,0.2,2.2,0.3,2.5-0.2s0.5,0,0.7,0c0.2,0,1.7-0.1,1.8-0.5s0.5,0,0.5,0s1.8-0.6,2.1-0.7s0.8,0,1.1-0.2
				C78.2,83.6,78.2,83,78,82.2z"/>
		</g>
	</g>
	<g id="Shape_466_1_" class="st0">
		<g>
			<path class="st30" d="M72.3,85.4c-1.3,0-4.6,0.5-6.4,0.5c-1.3,0-4.7-0.9-4.1-0.7c0,0,0.8,1.8,0.7,2.7s0,0.7,1.6,1.1
				c1.6,0.5,5.3,0.8,7.3,0.5c2.1-0.3,2.7-1.4,3-2.1c0.2-0.6-0.3-1.6,1.1-2.1C77,85,78,84.3,78,84.3S73.6,85.4,72.3,85.4z"/>
		</g>
	</g>
	<g id="Shape_467_1_" class="st0">
		<g>
			<path class="st31" d="M69.8,87c-1.2,0.3-2.4,0-3.4,0c-1,0-2.1,0.2-2.1,0.2c-1.6,0.9,2.5,2,3.7,1.4c1.2-0.6,1.6,0,2.5-0.2
				c0.9-0.2,2.4-0.5,3-1.4C74.1,86.1,71,86.8,69.8,87z"/>
		</g>
	</g>
	<g id="Shape_470_1_" class="st0">
		<g>
			<path class="st32" d="M64.3,53.9c-0.6-0.8-4.6-1.7-6.2-2.1c-1.6-0.4-4.5-0.5-6.2-1.1S47.2,53,47.2,53c-2,3.7,0.8,3.1,2.7,1.6
				c1.9-1.5,5.5,0.3,6.4,0.5c0.9,0.2,3,0.3,3.9,0.5c0.8,0.2,2.7,1.4,3.4,1.6c0.7,0.2,0.5-0.9,0.7-1.8C64.6,54.3,64.9,54.7,64.3,53.9
				z"/>
		</g>
	</g>
	<g id="Shape_476_1_" class="st0">
		<g>
			<path class="st32" d="M63.9,58c-0.3,0.3-1.7,0.3-2.7,0c-1-0.3-2.7-2.3-2.7-2.3c0,0.2,1.7,3.9,2.5,4.1c0.8,0.2,3.3,0.5,3.4,0.2
				S64.2,59.1,63.9,58z"/>
		</g>
	</g>
	<g id="Shape_468_1_" class="st0">
		<g>
			<path class="st22" d="M73.2,90.5c-1.3,0.5-2.7,0.5-3.9,0c-1.1-0.5-2.5-0.3-3,0.2c-0.5,0.5-2.5,0.2-2.5,0.2
				c-1.7,0.7,3.9,1.3,5,1.1c1.1-0.2,2.1-0.1,3.7-0.7C74.2,90.8,74.6,90,73.2,90.5z"/>
		</g>
	</g>
	<g id="Shape_469_1_" class="st0">
		<g>
			<path class="st33" d="M75.1,95.3c-0.8-2-3-2.4-4.3-2.1c-1.4,0.3-3,0-3,0c-0.5,0-2.4-0.7-3.9,0.7c-1.5,1.4-0.3,3.5,2.3,3.9
				c2.6,0.4,5.7,0.2,7.5,0C75.6,97.6,75.9,97.3,75.1,95.3z"/>
		</g>
	</g>
	<g id="Shape_449_1_" class="st0">
		<g>
			<path class="st34" d="M61.6,55c-1.4-0.2-1.9-1-3-2.1c-1.1-1.1-5-0.7-5-0.7c-2.5-0.3-0.5,1.5,0.5,1.8s0.5,0.8-0.9,1.1
				c-1.4,0.4-1.8,0.9-3,2.1c-1.2,1.1,1.3-0.8,3.2-1.4c1.9-0.6,3.9-0.3,5.3,0.7c1.4,1,0.8-0.2,0-0.9C57.9,55,58.2,55,60,55.3
				C61.7,55.6,63,55.3,61.6,55z M85.8,54.6c-1-0.6-3.7-1-4.1-1.4c-0.4-0.4,0.5-1.2-0.5-1.4c-0.9-0.2-1.7-0.3-2.5-0.5
				c-0.8-0.2-3.6,0-4.6,2.3c0,0,1,1.1,2.7,0.7c1.8-0.4,3.4-0.5,5.3-0.2s3.7,1.6,4.8,2.3c1.1,0.7,1.6,0.9,1.6,0.9
				S86.8,55.2,85.8,54.6z"/>
		</g>
	</g>
	<g id="Shape_452_1_" class="st0">
		<g>
			<path class="st35" d="M60.7,60.5c0,0-0.3-0.6-1.6-0.5c-5.2,1.3-6.4-0.2-6.4-0.2c-0.2-0.8-1.6,0-2.3,0.7s-0.5,1.1,0.5,2.1
				c0.9,1,2.5,0.7,3.7,0.9c1.1,0.2-0.8,0.4-2.1,0.5c-1.2,0,2.3,1,3.7,0.7c1.3-0.3,1.5-0.1,1.4-0.9c-0.1-0.8,0.7,0.2,2.3-0.7
				S60.7,60.5,60.7,60.5z"/>
		</g>
	</g>
	<g id="Shape_453_1_" class="st0">
		<g>
			<path class="st12" d="M56.8,61.4c-1.8,0.2-3.7-0.7-3.7-0.7c-1.4,0.3-2.7,1.5-0.2,2.1c2.4,0.6,4.6-0.5,5.9-0.9
				C60.2,61.4,58.6,61.2,56.8,61.4z"/>
		</g>
	</g>
	<g id="Shape_450_1_" class="st0">
		<g>
			<path class="st36" d="M61.1,59.4c-0.8-0.2-1.4-0.9-1.8-1.1c-0.5-0.2-1.6-1.2-2.5-1.1s-2,0-3.2,0.5c-1.2,0.4-1.8,0.6-2.5,1.6
				c-0.7,1-0.9,1.6-0.9,1.8c0,0,0.9,0.3,1.4-0.2c0.5-0.5,0.7-0.6,1.1-0.5c0.5,0.2,0.4-0.7,1.1-1.1c0.8-0.4,0.8-2.2,3.7-1.1
				c2.8,1.1,2.3,1.1,2.3,1.1l0.7,0.7c0,0,0.2,0.5,1.1,0.2S61.9,59.6,61.1,59.4z"/>
		</g>
	</g>
	<g id="Shape_472_1_" class="st0">
		<g>
			<path class="st37" d="M60.2,72.9c-0.5-1,0-2.7,0-2.7c-1.4-0.9-3,4.1-3,5c0.1,1,1.5-0.9,2.1-1.1S60.7,73.9,60.2,72.9z"/>
		</g>
	</g>
	<g id="Shape_473_1_" class="st0">
		<g>
			<path class="st38" d="M95.4,71.7c-0.8-2.1-3.5-0.2-4.6,2.1c-1,2.3-1.4,4.8-1.4,7.1c0,2.3-0.6,5.3-1.1,7.1
				c-0.6,1.8-1.1,3.4-3.2,5.3c-2.1,1.8-3.5,2-5.9,3.9c-3.5,2.7-6.7,1.7-9.6,2.1c-2.9,0.3-5.6,0.1-7.3-0.7c-1.7-0.8-3.4-2.5-5.5-3.2
				c-3.5-1.2-4.1-5.7-5.3-7.5c-1.1-1.8-1.4-6.7-1.8-8.2c-0.5-1.5-1.5-2.9-2.5-6.2c-1-3.3-1.4-1.8-1.4-1.8
				c1.3,15.5,4.3,17.9,6.4,21.7c2.1,3.8,6.2,7.2,8.7,8.7c2.5,1.5,16.3,0,18.3,0s3.7-1.6,5.7-2.3s3.7-2.2,5.3-3.4
				c1.6-1.3,4.9-3.7,5.9-5.7c1-2.1,0.7-3.3,1.1-5.3S96.2,73.8,95.4,71.7z"/>
		</g>
	</g>
	<g id="Shape_474_1_" class="st0">
		<g>
			<path class="st39" d="M78.7,100.8c-1.9,0.6-3.8,1-5.7,0.5c-1.9-0.6-4.7-0.1-6.6,0.2c-1.9,0.3-5-0.9-5-0.9c0.9,2.2,5.6,3.1,6.6,3
				c1-0.1,5-0.3,6.2-0.2c1.1,0.1,4.6-0.6,6.4-1.8C85.5,98.1,80.6,100.2,78.7,100.8z"/>
		</g>
	</g>
	<g id="Shape_475_1_" class="st0">
		<g>
			<path class="st40" d="M58.2,89.3c-0.7-1.3-1.5-2.7-1.4-3.7c0.2-1,0.6-1.8-0.7-2.3S53.6,82,53.6,82s-2.2,0.1-1.8,2.1
				s1.9,4.7,3.7,6.9c1.8,2.1,3.4,3,4.1,3C60.3,93.8,58.8,90.6,58.2,89.3z"/>
		</g>
	</g>
	<g id="Shape_478_1_" class="st0">
		<g>
			<path class="st41" d="M56.8,76.5c0,0-0.9,3.8-2.1,4.3c-1.1,0.6-0.1,0.8,1.1,1.1c1.3,0.3,1-0.1,0.9-1.1
				C56.7,79.8,58.4,73.8,56.8,76.5z"/>
		</g>
	</g>
	<g id="Shape_479_1_" class="st0">
		<g>
			<path class="st42" d="M68,69.9c-0.6-0.7-1.4,0-1.4,0s-1.5,1.7-0.5,1.4C67.2,70.9,68.6,70.6,68,69.9z"/>
		</g>
	</g>
	<g id="Shape_480_1_" class="st0">
		<g>
			<path class="st42" d="M63.2,70.6c0,0,0.6,1.3,1.1,0.9C64.9,71.1,63.4,69.8,63.2,70.6z"/>
		</g>
	</g>
	<g id="Shape_482_1_" class="st0">
		<g>
			<path class="st37" d="M85.1,82c-0.1-1.8-1.9-4-3.2-4.8c-1.3-0.8-2.1-2.7-3-4.8s-2.3-1.6-2.3-1.6c-1.1-0.2,1.4,1.6,1.8,2.5
				c0.4,0.9,1.3,3,1.8,3.7c0.5,0.6,2.2,2,3.2,2.7C84.5,80.5,85.2,83.8,85.1,82z"/>
		</g>
	</g>
	<g id="Shape_483_1_" class="st0">
		<g>
			<path class="st43" d="M106.6,36c-1.1-1.6-3.9-7-7.1-7.8c-3.2-0.8-3.6-2.6-4.8-3.7S84.6,15,74.8,15.2c-9.7,0.2-20.6,0.4-24.5,5
				c-3.9,4.7-9.5,10.1-9.4,15.3c0.1,5.3-1.3,7.6,0.2,10.7c1.5,3.1,0.9,6.9,1.4,8.9c0.5,2,0.9,6,2.5,8.7c0,0-1-8.4-0.7-11.4
				c0.3-3.1,1.4-3.7,1.8-5.7c0.4-2-1.7-8.1,1.1-10.1c2.9-2,13.5-6.9,21-7.1c7.6-0.2,12-0.2,16.2-0.7c4.2-0.4,6.2,1.7,7.1,4.6
				c0.9,2.9-1.3,7.8,2.7,12.8c4.2,5.2,4.9,7.6,4.8,8.9c-0.1,1.3,0.8,5.3,0.9,7.3c0.1,2.1,0.5,0.6,2.1-2.1c1.6-2.7,1.7-5.3,3.9-5.9
				c2.2-0.7,2.2-2.3,2.3-5.5C108.5,45.9,107.8,37.7,106.6,36z"/>
		</g>
	</g>
	<g id="Shape_484_1_" class="st0">
		<g>
			<path class="st44" d="M76.7,18c0,0,7.1,1,12.6,3.2c0,0-18.3-11.3-33.6-2.3c3.2-0.5,5.2-0.8,6.4-0.9c1.1-0.2,1.8-0.2,1.8-0.2
				s-0.4,0-1.8,0.2c-2.8,0.5-8.5,2-14.2,6.9c3.3-1.5,6.6-0.9,6.6-0.9s-2.7,2.7-6.2,6.6c3.2-2.3,5.5-2.1,5.5-2.1s-7.1,4.2-9.6,9.1
				c5.5-3.5,9.4-5,13.3-6.2c3.9-1.1,12.3-3.2,12.3-3.2s-2.9-1.7-7.5-0.9c-4.7,0.8,6.7-1.9,12.8-0.7s-8.7-6.1-18.1-2.1
				c5.6-3.1,16.6-2.7,24.5,0.2C78,22.3,73.7,21,73.7,21s7,0.8,13,2.5C83.9,21.1,76.7,18,76.7,18z"/>
		</g>
	</g>
	<g id="Shape_485_1_" class="st0">
		<g>
			<path class="st45" d="M87,63c-2.2,0.5-5.6,1.3-7.5,0.5c-1.9-0.8-3.9-2.6-3.7-1.4c0,0-0.6,4.5,1.1,6.2c1.7,1.7,4.7,4.7,6.4,5.7
				c1.7,1,3.4-0.2,3.9-2.7c0.5-2.5,0.1-4.7,1.4-5.5C89.8,65,89.1,62.6,87,63z"/>
		</g>
	</g>
	<g id="Shape_481_1_" class="st0">
		<g>
			<path class="st42" d="M83.8,69.9c-1.1-0.6-3.2-1.6-2.5-0.5c0,0,0.1,1.4,1.6,2.1C84.3,72.2,84.9,70.5,83.8,69.9z"/>
		</g>
	</g>
	<g id="Shape_486_1_" class="st0">
		<g>
			<path class="st46" d="M86.3,81.6c0,0-2.1,0.5-2.3,2.3c-0.2,1.8,0.4,3,1.8,3.4c1.4,0.4-0.1-1.9,0.7-3
				C87.3,83.2,88.3,80.9,86.3,81.6z"/>
		</g>
	</g>
	<g id="Shape_477_copy_2_1_" class="st0">
		<g>
			<path class="st8" d="M89.5,63.5c-0.6-1.8-3.6-3.3-3.7-2.3c2.5,0.5,3.4,3.7,3.4,3.7S90.1,65.2,89.5,63.5z"/>
		</g>
	</g>
	<g id="Shape_477_copy_3_1_" class="st0">
		<g>
			<path class="st8" d="M90.4,62.3c-0.6-1.8-3.6-3.3-3.7-2.3c2.5,0.5,3.4,3.7,3.4,3.7S91,64.1,90.4,62.3z"/>
		</g>
	</g>
	<g id="Shape_487_1_" class="st0">
		<g>
			<path class="st45" d="M86.7,56.2c-1.3-2-6.5-2.3-8-2.1c-1.5,0.2-3,0.2-3,0.2c-1.4,0.4-3.4,3-1.4,2.5c3.6-0.9,0.5-1.4,5.7-2.1
				C85.4,54.1,88,58.2,86.7,56.2z"/>
		</g>
	</g>
	<g id="Shape_451_1_" class="st0">
		<g>
			<path class="st15" d="M82.2,56.9c-1.5-0.2-4.6,0.6-5.2,2c0,0,0.4,0.9,2.5,1.1c4.2,0.4,6.2-0.5,6.2-0.9
				C85.6,58.8,85.1,57.3,82.2,56.9z"/>
		</g>
	</g>
	<g id="Shape_451_copy_1_" class="st0">
		<g>
			<path class="st47" d="M81.9,58c-1.5-0.3-3.4-0.3-4.1,1.1c0,0-0.5,0.7,1.6,0.9c4.2,0.4,5.3-0.3,5.3-0.7
				C84.7,59.1,83.8,58.4,81.9,58z"/>
		</g>
	</g>
	<g id="Ellipse_10_1_" class="st0">
		<g>
			<path class="st17" d="M84,58.3c0-0.5-0.1-0.8-0.4-1.1c-0.4-0.2-0.9-0.3-1.5-0.4c-0.6-0.1-1.5,0-2.4,0.2c-0.4,0.3-0.6,0.7-0.6,1.2
				c0,0.7,0.3,1.3,0.8,1.8c1.3,0.1,2.5,0.1,3.3,0C83.7,59.6,84,59,84,58.3z"/>
		</g>
	</g>
	<g id="Ellipse_10_copy_1_" class="st0">
		<g>
			<path class="st18" d="M82.2,60.1c0.7-0.3,1.3-1,1.3-1.8c-0.4-0.6-0.7-0.8-1.8-0.8c-1.1,0-1.5,0.1-2,0.8c0,0.8,0.6,1.6,1.3,1.8
				C81.4,60.2,81.9,60.2,82.2,60.1z"/>
		</g>
	</g>
	<g id="Ellipse_10_copy_2_1_" class="st0">
		<g>
			<circle class="st19" cx="81.6" cy="58.3" r="1"/>
		</g>
	</g>
	<g id="Ellipse_10_copy_3_1_" class="st0">
		<g>
			<circle class="st20" cx="82.3" cy="57.9" r="0.3"/>
		</g>
	</g>
	<g id="Shape_489_1_" class="st0">
		<g>
			<path class="st48" d="M87.2,58.7c-1-0.7-1.7-1.3-3.7-2.1c-1.9-0.7-4.1-0.1-5.3,0.5c-1.1,0.5-1.2,1.2-2.3,1.6
				c-1.1,0.4-1.4,1.1-1.4,1.1s1.4,0.1,2.1,0c0.6-0.1,0.7-0.5,0.9-0.9c0.2-0.5,0.6-0.9,1.4-1.4c0.8-0.5,1.7-0.3,3.2-0.2
				c1.5,0.1,2.2,0.7,2.7,0.9c0.5,0.2-0.1,0.7,0,0.9s1.6,0.7,1.6,0.7l2.1-0.5C88.6,59.4,88.2,59.4,87.2,58.7z"/>
		</g>
	</g>
	<g id="Shape_493_1_" class="st49">
		<g>
			<path class="st44" d="M106.2,43.1c-0.5,1.8-0.9,3.2-0.9,3.2s-0.7-5.2-2.5-7.3c0.3,2.4,1.1,3.7,0.9,7.1c-1.7-3.8-3.7-4.6-4.8-6.4
				c1.1,2.2,1.6,3.2,1.6,3.2s-4-2.2-4.8-5.5c-0.5,3.3-3.3-5.9-4.3-7.3c0,0,0.9,2.9,1.1,6.4c0.2,3.5,1.2,7.1,3.7,8.2
				C95,43.4,95.6,42,95.6,42s3.3,2.4,5,4.3c1.8,2,2.4,3.9,1.8,4.8c-0.5-1.6-1.1-1.4-1.1-1.4s0.1,2.3,0,3.7s-1.1,0-1.1,0
				s0.9,6.5,0.7,7.8c0.9-2.4,1.4-4.3,1.4-5.7c0-1.4,2.1,0.3,2.3-1.1S107.2,47,106.2,43.1z"/>
		</g>
	</g>
	<g id="Shape_494_1_" class="st0">
		<g>
			<path class="st8" d="M109.1,63c-0.2-3,0.5-8.9-2.3-8.9c-2.7,0-6.4,8.7-6.4,8.7l0.7,9.6c-0.5,2.1,0.2,6.9,1.1,7.8
				c0.9,0.9,2.7-1.8,3.2-3.9s1.1-3,2.1-5.7C108.4,67.8,109.4,66,109.1,63z"/>
		</g>
	</g>
	<g id="Shape_495_1_" class="st0">
		<g>
			<path class="st50" d="M108.4,58.9c0,0-1.4-1.2-1.4-0.5s0.5,4.9,0.5,6.2s-0.5,4.2-0.9,5c-0.5,0.8-1,1.1-1.4,2.3s-1,2.8-1.1,2.3
				c-0.2-0.5-1.8,0-2.3,1.4c-0.5,1.4-0.7,4.1,0.9,3.2c1.6-0.9,2.4-3.5,2.7-4.3c0.4-0.8,1.6-4.3,2.1-5.3
				C108,68.2,109.1,61.9,108.4,58.9z"/>
		</g>
	</g>
	<g id="Shape_496_1_" class="st0">
		<g>
			<path class="st50" d="M106.4,62.1c-0.2-0.9-0.5-4.1-0.5-4.1c-1.8-0.2-3,3.7-2.7,3.9c0.3,0.2,0.8,1.9,1.1,3c0.4,1.1-1-0.2-1.8-1.4
				c-0.8-1.1-0.2,1,0,2.1c0.2,1.1,0.2,3.2,0.7,3c0.5-0.2,0.9-0.6,1.4,0.2c0.5,0.8,0.2,1.4,0.7,1.1c0.5-0.3,1-2.1,1.4-3.4
				C107,65.2,106.6,63,106.4,62.1z"/>
		</g>
	</g>
	<g id="Shape_497_1_" class="st0">
		<g>
			<path class="st50" d="M103.2,69.9c-0.7-0.2-1.1,1.8-1.1,1.8c-0.5,1.5,0.2,2.6,0.5,1.8c0.3-0.8,1.3-1.4,1.6-1.8
				C104.4,71.3,103.9,70.1,103.2,69.9z"/>
		</g>
	</g>
	<g id="Shape_490_1_" class="st0">
		<g>
			<path class="st12" d="M84.7,61c-1.4,0.1-0.3-0.5-1.6-0.2s-4.6,0-4.6,0c-1.1,0.2-3.7-0.4,0.2,1.1c3.9,1.5,5,0.6,6.2,0
				C86,61.3,86,60.9,84.7,61z"/>
		</g>
	</g>
	<g id="Shape_498_1_" class="st0">
		<g>
			<path class="st39" d="M104.1,77.9c-0.9,0.3-1.9,1.6-2.1,0.2c-0.2-1.4-0.5-11.8-0.9-15.1c0,0,0.3,5.2,0.2,7.1
				c-0.1,1.9-0.2,10.1-0.7,12.3s-0.4,1.2-1.4,3.9c-1,2.7-0.5,3.5-1.4,5.3s-3.2,5.9-3.2,5.9s3.9-5.3,4.3-7.3c0.5-2,2-6.2,2.1-7.3
				c0.1-1.1,0.7-2.4,1.6-3C103.6,79.4,105,77.6,104.1,77.9z"/>
		</g>
	</g>
	<g id="Shape_488_1_" class="st0">
		<g>
			<path class="st51" d="M83.5,55.5c-1.7-0.4-4-1.2-7.3,1.6c0,0-1.2,1.6-0.5,1.4c0.8-0.2,3.2-2.4,5-2.3
				C82.6,56.3,85.2,55.9,83.5,55.5z"/>
		</g>
	</g>
	<g id="Shape_499_1_" class="st0">
		<g>
			<path class="st51" d="M79.2,82.7c-0.7,0.3-0.4-0.5-0.9-0.9s-1.6,1.1-1.6,1.1c-1,1.8,1.1,1.3,1.6,0.9s1.4-0.8,1.8-1.1
				C80.5,82.4,79.9,82.4,79.2,82.7z"/>
		</g>
	</g>
	<g id="Shape_500_1_" class="st0">
		<g>
			<path class="st52" d="M80.3,82c-1.1,0.1-2.6-0.7-3.9-0.7s-2,0.1-3.9,0.2c-1.9,0.2-3.9,0.2-3.9,0.2S67.9,82,67.3,82
				c0,0,0.3,0.5,1.4,0.2c1.1-0.3,4.4-0.6,5.3-0.5c0.9,0.2,3.3-0.1,3.9,0.5c0.6,0.5,1.8,0.2,1.8,0.7c0,0.5,0.6,0.3,1.4-0.5
				C81.8,81.7,81.4,82,80.3,82z"/>
		</g>
	</g>
</g>
</svg>
