<?xml version="1.0" encoding="utf-8"?>
<!-- Generator: Adobe Illustrator 19.1.0, SVG Export Plug-In . SVG Version: 6.00 Build 0)  -->
<svg version="1.1" id="Layer_1" xmlns="http://www.w3.org/2000/svg" xmlns:xlink="http://www.w3.org/1999/xlink" x="0px" y="0px"
	 viewBox="0 0 150 150" style="enable-background:new 0 0 150 150;" xml:space="preserve">
<style type="text/css">
	.st0{clip-path:url(#SVGID_3_);}
	.st1{fill-rule:evenodd;clip-rule:evenodd;fill:#4B3238;}
	.st2{fill-rule:evenodd;clip-rule:evenodd;fill:#AF837E;}
	.st3{fill-rule:evenodd;clip-rule:evenodd;fill:#D2A397;}
	.st4{fill-rule:evenodd;clip-rule:evenodd;fill:#1A0D11;}
	.st5{fill-rule:evenodd;clip-rule:evenodd;fill:#4F4246;}
	.st6{fill-rule:evenodd;clip-rule:evenodd;fill:#9A6C66;}
	.st7{fill-rule:evenodd;clip-rule:evenodd;fill:#84414A;}
	.st8{fill-rule:evenodd;clip-rule:evenodd;fill:#926660;}
	.st9{fill-rule:evenodd;clip-rule:evenodd;fill:#EDBCB1;}
	.st10{fill-rule:evenodd;clip-rule:evenodd;fill:#211010;}
	.st11{fill-rule:evenodd;clip-rule:evenodd;fill:#CF8791;}
	.st12{fill-rule:evenodd;clip-rule:evenodd;fill:#E2D5D8;}
	.st13{fill-rule:evenodd;clip-rule:evenodd;fill:#8D5D56;}
	.st14{fill-rule:evenodd;clip-rule:evenodd;fill:#511D2E;}
	.st15{fill-rule:evenodd;clip-rule:evenodd;fill:#FBDDDC;}
	.st16{fill-rule:evenodd;clip-rule:evenodd;fill:#8F676B;}
	.st17{fill-rule:evenodd;clip-rule:evenodd;fill:#6F4647;}
	.st18{fill-rule:evenodd;clip-rule:evenodd;fill:#B18585;}
	.st19{fill-rule:evenodd;clip-rule:evenodd;fill:#D8BBBD;}
	.st20{fill-rule:evenodd;clip-rule:evenodd;fill:#9D7773;}
	.st21{fill-rule:evenodd;clip-rule:evenodd;fill:#C79298;}
	.st22{fill-rule:evenodd;clip-rule:evenodd;fill:#D5A59B;}
	.st23{fill-rule:evenodd;clip-rule:evenodd;fill:#775051;}
	.st24{fill-rule:evenodd;clip-rule:evenodd;fill:#E9BAAA;}
	.st25{fill-rule:evenodd;clip-rule:evenodd;fill:#72464D;}
	.st26{fill-rule:evenodd;clip-rule:evenodd;fill:#221F3C;}
	.st27{fill-rule:evenodd;clip-rule:evenodd;fill:#DCDBDB;}
	.st28{fill-rule:evenodd;clip-rule:evenodd;fill:#FDFEFD;}
	.st29{fill-rule:evenodd;clip-rule:evenodd;fill:#B63246;}
	.st30{fill-rule:evenodd;clip-rule:evenodd;fill:#CB344C;}
	.st31{fill-rule:evenodd;clip-rule:evenodd;fill:#E6B7AD;}
	.st32{fill-rule:evenodd;clip-rule:evenodd;fill:#A27B75;}
	.st33{fill-rule:evenodd;clip-rule:evenodd;fill:#7B5B62;}
	.st34{fill-rule:evenodd;clip-rule:evenodd;fill:#F7D5DD;}
	.st35{fill-rule:evenodd;clip-rule:evenodd;fill:#5A4248;}
	.st36{opacity:0.2706;clip-path:url(#SVGID_3_);}
	.st37{fill-rule:evenodd;clip-rule:evenodd;fill:#533539;}
	.st38{fill-rule:evenodd;clip-rule:evenodd;fill:#9D8A97;}
	.st39{fill-rule:evenodd;clip-rule:evenodd;fill:#362D2F;}
	.st40{fill-rule:evenodd;clip-rule:evenodd;fill:#171321;}
	.st41{fill-rule:evenodd;clip-rule:evenodd;fill:#D3C1CC;}
	.st42{fill-rule:evenodd;clip-rule:evenodd;fill:#442A38;}
	.st43{fill-rule:evenodd;clip-rule:evenodd;fill:#8E6B65;}
	.st44{fill-rule:evenodd;clip-rule:evenodd;fill:#BF968B;}
</style>
<g>
	<defs>
		<circle id="SVGID_1_" cx="75" cy="75" r="75"/>
	</defs>
	<linearGradient id="SVGID_2_" gradientUnits="userSpaceOnUse" x1="75" y1="150" x2="75" y2="0">
		<stop  offset="0" style="stop-color:#212121"/>
		<stop  offset="1" style="stop-color:#EF4438"/>
	</linearGradient>
	<use xlink:href="#SVGID_1_"  style="overflow:visible;fill:url(#SVGID_2_);"/>
	<clipPath id="SVGID_3_">
		<use xlink:href="#SVGID_1_"  style="overflow:visible;"/>
	</clipPath>
	<g id="Shape_290_1_" class="st0">
		<g>
			<path class="st1" d="M53.2,73.7l-5.2-0.9c0,0-0.8,6,4.6,8.2S53.2,73.7,53.2,73.7z"/>
		</g>
	</g>
	<g id="Shape_247_1_" class="st0">
		<g>
			<path class="st2" d="M107.8,51.9c0-0.9-0.2-1.5-1.2-1.7c-1.8-0.4-4.6,1.1-5.4-1.4c-1-3.3-0.2-6.8-0.5-10.1
				c-0.7-7.5-3.5-13-9.4-17.5c-2.5-1.9-6.6-3.5-9.8-3.7c-9.5-0.6-25.2,2.2-30.7,11.4c-2.1,3.6-3.2,8.3-3.4,12.5
				c0.1,1.8,0.2,3.5,0.3,5.3c0,2.4-0.2,4.8-0.2,7.1c-0.5,0.3-0.7,0.6-1.4,0.8C44,55,41.5,52,40.5,55.1c-0.6,1.8,0.5,4,0.9,5.7
				c1.2,4.9,3,12.3,6.6,15.9c0.7,0.3,1,0.7,2.1,0.5c0,0,0.8-1.4,0.9-1.5c0,0,0,0,0,0c0,0-0.1,0.1-0.1,0.1v-0.5
				c0,0.1,0.1,0.2,0.1,0.4l0,0c0,0,0,0,0,0c1.8,5.5,1.8,10.4,2.4,16.1c0.3,3.4-0.1,7.2,1.6,10.1c2.6,4.3,6.5,6.1,10.4,8.9
				c2,1.5,4.3,2.9,6.2,4.5c0.5,0.4,2,1.6,2.6,1.4c1.8-0.6,3.4-2.6,5.1-3.6c6.2-3.7,13.7-9.1,17-15.8c0.6-1.2,1.4-3.7,1.2-5.1
				c-0.1-1.1-0.1-2.2-0.2-3.2c0.8-1.6,1.7-3.2,2.5-4.8c1.2-2.7,1.7-6.1,2.3-9c0,0,0-0.1,0-0.1c0.5-0.6,1-1.2,1.5-1.9
				c0-0.9,0.5-2.5,1.2-3.3c0.3-0.6,0.6-1.2,0.8-1.8c0-1.8,0-3.9,0.5-5.6c0.3-1,1-1.7,1.2-2.7C107.9,57.3,107.8,54.6,107.8,51.9z"/>
		</g>
	</g>
	<g id="Shape_255_1_" class="st0">
		<g>
			<path class="st3" d="M97.7,73.5c0,0.8-0.7,4.8-1.5,4.8c0-1.9-0.5-4.2-0.5-6c-0.1-0.1-0.2-0.2-0.4-0.4C95.2,72,95.1,72,95,72
				c0,0.8-0.2,3-0.9,3c-0.3,0-0.6-0.9-0.6-1.1c-0.1,0.1-0.2,0.2-0.4,0.2c0,0.7-0.1,1.5-0.1,2.2c-0.4,0.7-0.8,1.3-1.1,2
				c-0.1,0-0.2-0.1-0.2-0.1v-0.1c0,0,1.2-3.1,0.1-3.1c0-0.5-1.2,0.4-1.2,0.4c0,1.3-0.2,3.6-1.8,3.6c-0.1,0.2-0.2,0.3-0.4,0.5
				l-0.9,1.8c0,0.5-0.9,2.6-1.2,2.6c0,0.2-0.6,1-0.8,1c0,0.3-0.5,0.9-0.9,0.9c-0.2,0.2-0.5,0.3-0.8,0.5c-0.3,0.1-0.7,0.2-1,0.4
				c0,1.1-5.3,0.2-6,0.2c-0.2-0.3-0.5-0.7-0.8-1c0-0.9,0.6-1.2,0.6-1.8c0-0.3-0.6-0.6-0.9-0.6c0-1.4-3.7-3.2-5.5-3.2
				c-0.4-0.2-0.8-0.5-1.1-0.8c-0.8-0.8-1.6-1.6-2.4-2.4c0,0,8.9,1.5,15.5,0.6s4.5-4.8,3.5-6c-1-1.2-3,1.3-5.3,1.5
				c-2.3,0.2-6.5-1.5-8.2-1.2c-1.8,0.2-6.2,1.1-4.9,1.8s2,1.4,0.8,1.8S66,79,64.3,76.3c-1.6-2.7,4.2-10.6,7.2-11.7
				c0.2-0.1-0.2,0.7-0.2,1.4c-0.1,1.5-0.3,3.9,1.1,3.8c2.7-0.3,1.2,1.2,2.4,1.3c3.1,0.2,8.9-0.4,9.8-2.2s-1.6-5.6,1-4.8
				c2.6,0.9,6,4.3,9.1,3.4c3.1-0.9,3.1-3.7,3.8-5.9s1.2-6.3-1-6.8c-2.2-0.5-3.2,3.3-4.8,2.5c-1.5-0.8-5.1-1.1-4.5-0.5
				c0.6,0.6,1.2,1.5,3.8,1.2c2.5-0.3-1,1.2-3.8,1.2c-2.8,0.1-6.4-1.7-5.1-2.5c1.3-0.8,0.2-0.3-0.5-1.5c-0.7-1.2,2-2.8,4.6-4.2
				s7.1-1.4,7.5-2.8s-1.9-6.5-0.6-9.2s0.4-5.5-0.2-7.3c-0.7-1.8-2.2-9.1-15.5-9.8C65,21.4,54,28.4,52.6,30.3c-1.4,2,0,12,1.5,14.5
				c1.5,2.5-1,3.5-1.1,6.6s-1.3,6.3-1.2,8.4c0.1,2.1-1.5,8.2-0.2,13.6C52.1,75.6,54,77,54,79c0.2,0.5,0.5,1.1,0.8,1.6
				c0.5,1,1.1,2,1.6,3c1,1.2,1.9,2.4,2.9,3.6c0.7,0.7,5.1,4.6,5.1,5c1.6,1.3,3.2,2.6,4.8,3.9c0.5,0.2,1.1,0.5,1.6,0.8
				c1.5,0,3.5,0.2,5.4,0.2c2.7-0.2,5.5-0.4,8.2-0.6c0-0.2,0.3-0.1,0.5-0.1c1.2,0,2.3-1.2,3.2-1.2c0.1-0.1,0.2-0.2,0.4-0.2
				c0.2-0.1,0.3-0.2,0.5-0.4c0-0.2,0.2-0.5,0.4-0.5c0.2-0.3,0.3-0.6,0.5-0.9c0-1.5,1.5-3.7,1.5-4.9c0.1-0.2,0.2-0.3,0.4-0.5
				c0.3-0.7,0.7-1.3,1-2c0.3-0.7,0.6-1.5,0.9-2.2c0-1.5,2.1-3.6,2.1-3.4c0.4,0.4,0,2.2,0,2.9c0.2,0,0.4-0.1,0.6-0.1
				c0-0.4,1.5-2.5,1.5-2.5c0-0.6,0.3-2.1,0.8-2.5c0-1.6-0.5-3.2-0.5-4.5C98,73.5,97.8,73.5,97.7,73.5z"/>
		</g>
	</g>
	<g id="Shape_248_1_" class="st0">
		<g>
			<path class="st4" d="M107,37c-0.4-1-0.7-2-1.1-3.1c-0.4-1.3-0.3-2.6-0.9-3.9c-0.9-1.5-1.9-3.1-2.8-4.6c-0.8-1.6-1.8-4.3-3.4-5.1
				c-2.1-1-4.4-0.6-6.6-0.9l-0.1,0c0-0.7-4.4-3.5-5.2-3.9c-1.3-0.6-2.3-1.6-3.2-2.5c-2.1-0.4-4.2-0.9-6.4-1.3
				c-2.6-0.3-5.3-0.4-8-0.3c-3,0.2-6.4,1.2-9,2.7c-2.8,1.6-5.6,3-8,5.2c-1,0.9-2.5,2.9-2.8,4.2c-3.8,3.8-5.9,10.6-7.2,15.7
				c-1.3,5.2-2.2,9.5,0.8,14.4c0,0.1,0,0.2,0,0.3c0.1-0.1,0.6,0.4,0.7,0.3c1.7,0,3.2,4.6,5.4,4.6c0.3-1.3,0.6-2.5,0.9-3.8
				c0-2,0-3.9,0-5.9c0.2-2.5,0.5-5,0.8-7.5c0-2.3-0.2-9.6,1.1-11.4c1.3-1.9,4.4-2.5,6.3-3.6c2.3-1.4,5.7-3.1,8.4-3.6
				c0.8-0.8,5-1.3,6.2-1.4c2.8-0.3,5.6-0.3,8.5-0.1c3.3,0.2,6.5-0.2,9.5,1.6c1.7,1,2.5,3.1,3.5,4.7c1.3,2.1,1.9,4.3,3,6.5
				c0.9,1.9,2,3.8,2.2,5.9c0,1-0.1,2-0.1,3c0.4,1.3,0.7,2.6,1.1,3.9c0.2,2.4,0.5,4.7,0.6,7.1c0.1,0.9-0.5,2.2,0.3,2.9
				c1.2,0,1.4-2.5,1.9-3.2c1.8-2.8,3.1-6.6,3.4-10.2C106.9,41.6,107.6,39.1,107,37z"/>
		</g>
	</g>
	<g id="Shape_249_1_" class="st0">
		<g>
			<path class="st5" d="M47.6,47C47.6,47,47.6,47,47.6,47C47.6,47,47.6,47,47.6,47L47.6,47z M53.3,43.1c-0.3-1.6-0.7-3.3-1-4.9
				c-0.3-1.1-0.3-1.6-0.7-2.7c-0.2-1.4-0.5-3,0.1-4.2c0.6-0.9,1.5-1.8,2.1-2.7c-0.8,0.4-2.1,0.3-2.8,0.7c-3.9,2.5-4.7,3.1-6.1,7.5
				c0.7-1.3,0.9-1.7,2.8-3.1c0.6-0.5,1.2-1,1.7-1.5c0,1.4-1.9,4-2.6,5.2c-0.4,0.6-0.8,1.2-1.2,1.7c-0.1,0.1-0.2,0.1-0.3,0.2
				c0.8,0,4.3-3.6,4.7-4.5c0,1.8-1,2.8-1.6,4.5c-0.7,2.1-1.2,3.8-1.2,6.1c0.5-0.6,1-1.1,1.4-1.7c0,1-1,2.3-1,3.4
				c0.4-0.4,0.8-0.8,1.2-1.1c-0.5,1.3-1,2.6-1.4,4c-0.3,0.6-0.6,1.1-0.9,1.7c0-0.3-0.1-0.5-0.1-0.8c0-1.5-0.6,1-0.8,1.6
				c-0.2,0.9,0.1,2.1,0.3,3c0.4,1.8,2.4,3.4,3.8,4.3h0.1c0.1-0.3,0.2-0.6,0.2-1c0.5,0.6,1.1,1.2,1.6,1.8c0-1.4-0.3-2.9-0.3-4.3
				c0.1-0.3,0.2-0.6,0.4-1c1.2-1.6,1.4-3,1.7-5.1c0.1-1,0.5-3.4,1.5-3.9C54.7,45,53.6,44.2,53.3,43.1z"/>
		</g>
	</g>
	<g id="Shape_285_1_" class="st0">
		<g>
			<path class="st6" d="M86.8,75.2C86,75,84.1,75.7,82.6,76c-1.5,0.3-2.1,0.6-3.2,0.7c-1,0.1-3.2-0.4-4.1-0.3c-0.8,0-3.8,0-6,0.2
				c-2.2,0.2-2.3,1.1-2.3,1.1c0.9,1.1,6.2,2.5,6.6,2.6c0.3,0,14.1-0.6,14.4-0.8s1.9-1.8,2.1-2.3C90.3,76.6,87.6,75.3,86.8,75.2z"/>
		</g>
	</g>
	<g id="Shape_252_1_" class="st0">
		<g>
			<path class="st7" d="M83,76.8c-0.7,0.2-1.4,0.4-2,0.5c-0.8,0-1.7,0.1-2.5,0.1c0,0,0,0,0,0c-2.9-0.2-5.7-0.3-8.6-0.5
				c-0.6,0-2.5-0.4-2.6,0.5c0,0-0.1,0-0.1,0c0,0.1,0.1,0.1,0.1,0.2c0.4,0.4,1.9,1.1,1.9,1.8c1.1,0.4,2.3,0.7,3.4,1.1
				c1.4,0.4,2.7,0.8,4.1,1.2c1.1,0,2.1,0.1,3.2,0.1c3.6-0.2,7-1.4,9.5-3.9c0.3-0.2,0.6-0.5,0.9-0.8C90.1,74.8,84,76.6,83,76.8z"/>
		</g>
	</g>
	<g id="Shape_253_1_" class="st0">
		<g>
			<path class="st8" d="M64,74c-0.1,0.2-0.4,2.4,0,2.4c0,0,0,0,0,0c0.5-1.4,1-2.9,1.5-4.3c0.6-1.6,2.4-2.1,2.5-4
				c-0.8,0.8-1.6,1.6-2.4,2.4C64.8,71.2,64.3,73,64,74z M67.9,68.1C67.9,68.1,68,68.1,67.9,68.1C68,68.1,68,68.1,67.9,68.1
				C68,68.1,67.9,68.1,67.9,68.1z M68,68.1C68,68.1,68,68.1,68,68.1C68,68.1,68,68.1,68,68.1C68,68.1,68,68.1,68,68.1z"/>
		</g>
	</g>
	<g id="Shape_254_1_" class="st0">
		<g>
			<path class="st8" d="M87.2,66.7c-0.1-0.2,0.1-0.2-0.4-0.2c0,1.9,4.4,4.8,5.3,6.9c0.5,1.2,0.2,2.9-0.2,4c0,0.2,0,0.4,0,0.6
				c1.2,0,0.8-4.2,1.2-4.7c0.4,0,0.7,1.1,0.9,1.4h0C94.1,70.9,87.3,66.7,87.2,66.7z"/>
		</g>
	</g>
	<g id="Shape_265_1_" class="st0">
		<g>
			<path class="st9" d="M87,42.2c-1.1-0.2-0.2-1.6-0.3-2.3c-0.1-0.8-2.7-2.3-4.3-3.1c-1.7-0.8,0.7-1.4,1.4-2.6
				c0.8-1.2,0-2.5-1.8-3.2c-1.8-0.8-3.8-0.9-2.8-4c1-3.1-3.2-3.8-6.7-3.2s-12.1,4.2-12.1,4.2s-5.9,1.6-4.8,6.7
				c1.2,5.1,3.1,6.2,3.2,9c0.2,2.8-1.2,6.4,1.2,5.6c2.3-0.8,7.8-2.2,12.5-2.2c4.7-0.1,3.5,0.7,5.8,0.2s6.2-1.5,8.8-1.8
				C89.8,45,88.1,42.5,87,42.2z"/>
		</g>
	</g>
	<g id="Shape_266_1_" class="st0">
		<g>
			<path class="st9" d="M77.8,58.8c-0.3-1.4,1.3-6.3,0.5-6.6c-1.8-0.5-2.4,1.2-2.2,2.6c0.3,2.1-0.7,7.1-3,7.1c-0.3,0-0.1-1-0.6-1.1
				c-1.9-0.2-3.8,0.9-6,0.6c-1.7-0.5-3.3-1.1-5-1.6c-0.2-0.2-0.5-0.3-0.7-0.5c0.8-0.3,1.6-0.6,2.5-0.9c-0.4-0.8-3.7,0.2-3.7-1.1
				c-0.1-0.1-0.2-0.2-0.3-0.3c0,0.1,0,0.1,0,0.2c-0.1-0.1-0.1-0.1-0.2-0.2c-1.6-0.4-3.9,0-3.1,2.2c0.6,1.8,3.1,1.2,2.9,1.9
				c-0.6,2.4-3.9,6.2-0.2,8.1c1.8,0.9,3.7-0.6,5.2-1.4c2.4-1.4,4.8-4,7.5-4.4c0.7,0,1.3,0.1,2,0.1c0,0.5,0.1,1,0.1,1.6
				c0.4,0,1.3-0.6,1.5-0.6c0,0.2,0.1,0.5,0.1,0.7c0,1.3-1.3,0.8-2.1,0.8c-0.5,0.8-0.8,1.1-0.8,2.1c0.8,0.5,3.4-0.6,3.4-1
				c0.8,0,2,0.6,2.9,0.8C83.7,69.4,78.1,60.7,77.8,58.8z"/>
		</g>
	</g>
	<g id="Shape_250_1_" class="st0">
		<g>
			<path class="st10" d="M68,77.5c0.1,0.2,0.2,0.3,0.3,0.5c0,0,0,0,0,0c0.1,0.1,0.3,0.2,0.4,0.3c0.9,0.9,2,0.3,2-0.9
				C70.3,77.1,68.1,77.1,68,77.5z"/>
		</g>
	</g>
	<g id="Shape_251_1_" class="st0">
		<g>
			<path class="st10" d="M86.8,76.8C86.8,76.8,86.8,76.8,86.8,76.8C86.8,76.8,86.8,76.8,86.8,76.8L86.8,76.8z M86.8,77.1l0-0.2
				c0,0,0,0,0,0C86.8,76.9,86.8,77,86.8,77.1z M86.8,76.8c0.2,0.5-0.2,2.2,0.6,2c0.7-0.6,1.4-1.2,2.1-1.7
				C88.6,76.3,87.5,76.8,86.8,76.8z"/>
		</g>
	</g>
	<g id="Shape_257_1_" class="st0">
		<g>
			<path class="st11" d="M86,76.9c-1.3,0-3,0.5-3.6,0.6c-0.6,0-1.4,0.7-3.1,0.6c-1.7-0.1-3.9-0.5-4.7-0.5s-2-0.1-3.2-0.1
				c-1.2,0-1.1,1.2-1.1,1.2s8.7,2,10,1.9c1.3,0,6.3-1.8,6.4-2.2C86.9,78,87.1,76.9,86,76.9z"/>
		</g>
	</g>
	<g id="Shape_256_1_" class="st0">
		<g>
			<path class="st12" d="M87,78.2c-0.2-0.2-0.5-0.5-1,0c-0.5,0.5-0.5,0.1-0.7-0.2c-0.2-0.2-0.6,0.2-1,0.9C84,79.7,84,78,83,78.4
				c-0.4,0.2-0.6,1.6-0.8,0.8s-1.2-0.9-1.8-0.5s-0.4,1.5-1,0.4s-1.5-0.8-1.9-0.2s-0.3,0.7-0.9,0.1s-1-0.8-1.4-0.2
				c-0.4,0.5-0.4-0.2-1.2-0.7c-0.9-0.5-0.8,1.1-1.1,0.8S72.3,78,72,78.2s-0.3,0.6-0.9,0.2c-0.6-0.5-0.8,0.7-0.8,0.7
				c1.3,1.1,4.3,2.2,6.7,2.5c2.9,0.4,4.5,0,6.4-0.4c2.4-0.5,4-2.1,4-2.1S87.2,78.5,87,78.2z"/>
		</g>
	</g>
	<g id="Shape_268_1_" class="st0">
		<g>
			<path class="st13" d="M81.3,70.2c-1,0.2-3.2-1.3-3.2,0.5c-0.4,0-5-2.7-4.8-0.3c0,0,0,0,0.1,0h0c0.2,0.2,0.4,0.4,0.6,0.5
				c0.6,0.2,1.3,0.4,1.9,0.6c0.6,0.4,1.2,0.8,1.8,1.3c0,0,0.1,0,0.1,0c1.4,0.3,2.5-0.7,3.2-1.5c1.1,0,2-0.5,2.8-1
				C83.8,68.7,82,70.1,81.3,70.2z"/>
		</g>
	</g>
	<g id="Shape_258_1_" class="st0">
		<g>
			<path class="st14" d="M82.4,69.8C82,70.4,81.1,71,81.1,71c-0.1,0.5,2.4-0.2,2.7-0.7C84,69.9,82.8,69.3,82.4,69.8z"/>
		</g>
	</g>
	<g id="Shape_259_1_" class="st0">
		<g>
			<path class="st14" d="M77.8,71.7c-1-0.2-1.4-0.6-0.9-0.7c0.5-0.1,0.7,0.2,0.4-0.2c-0.3-0.4-1.4-1-2.3-0.9c-1,0-1.2,0.4-1.2,0.4
				c-0.2,1,2,0.8,2.3,1.2c0.3,0.3,1,1.2,2.3,0.9C79.7,72,78.9,71.8,77.8,71.7z"/>
		</g>
	</g>
	<g id="Shape_260_1_" class="st0">
		<g>
			<path class="st15" d="M65.1,35c2.2-1-0.1-5.5-4.6-2.5c0,0-4.4,3.7-3.1,6.2c1.3,2.5,3.1,2.2,3.6,3.2c0.5,0.9,0.3,1.3-0.1,2.1
				c-0.4,0.8-2.1,4.7-1.2,5.2s0.8-0.6,2.8-1.2c2.1-0.7-0.5-3.5,0.9-5c1.4-1.5,2.3-3.2,1.2-4.6C63.6,36.9,62.9,36,65.1,35z"/>
		</g>
	</g>
	<g id="Shape_261_1_" class="st0">
		<g>
			<path class="st15" d="M59.3,63.6c0,0-1.2,2-1,3.8s2.2,1.2,3.2-0.4C62.7,65.4,60.3,62.1,59.3,63.6z"/>
		</g>
	</g>
	<g id="Shape_263_1_" class="st0">
		<g>
			<path class="st16" d="M99.5,83.3c-1,1.2-3.2,4.2-4.2,5.7c-0.9,1.4-5,6.1-6.7,7.5c-1.7,1.4-7.7,2.1-10.4,1.8s-5.8,1.4-5.8,1.4
				c-3.6,1.6,2.7,3,2.3,3.8c-0.3,0.8-2.4,4.6-0.7,5.1s7.8-4.6,8.8-5.5c0.9-0.9,6.1-4.2,7.1-6s4.2-3.2,5.6-5
				C96.9,90.2,100.5,82.2,99.5,83.3z"/>
		</g>
	</g>
	<g id="Shape_264_1_" class="st0">
		<g>
			<path class="st17" d="M73.6,53.2c-0.4-0.6-0.5,0.5-1.6,0.2s-1.5-0.9-3.2-1.1c-1.7-0.2-3.8,0.8-5.4,1.4c-1.7,0.7-2.8,2.2-2.8,2.2
				c-0.8,0.6,3.6-0.3,3.7-0.6s-1.2,0.3,0.5-0.9c1.7-1.2,4.7-0.5,5.2-0.2c0.5,0.3,0.5,0.6,0.5,1c0,0.4,0.5,0.5,1.3,0.5
				c0.9,0,0.9-0.3,0.4-0.8c-0.5-0.5,0.3-0.4,1.2-0.3C74.4,54.6,74,53.7,73.6,53.2z"/>
		</g>
	</g>
	<g id="Shape_267_1_" class="st0">
		<g>
			<path class="st18" d="M74.7,49.3c-2.2-3.6-9.7-1.4-12.6,0c-0.9,0.4-3.7,1.3-3.7,2.4c1.1,0.9,7-1.2,8.9-0.3c0,0.1,0,0.3-0.1,0.4
				c-0.7,0.2-1.3,0.3-2,0.5c-2,0.2-5.3,1.1-6,3.2c-0.1,0.4-0.2,0.9-0.4,1.3c0.4,1.1,1.9,0,2.6-0.1c2.6-0.5,5.2,0.4,7.9,0.4
				c0,1.2-4.2,1.7-5.4,1.7c0,0.1,0.1,0.2,0.1,0.3c0,0,0.1,0,0.1,0l0-0.1C70.5,60.8,79.4,56.9,74.7,49.3z"/>
		</g>
	</g>
	<g id="Ellipse_6_1_" class="st0">
		<g>
			
				<ellipse transform="matrix(0.9656 -0.2601 0.2601 0.9656 -14.488 22.2621)" class="st15" cx="76.9" cy="65.9" rx="0.6" ry="1.2"/>
		</g>
	</g>
	<g id="Shape_269_1_" class="st0">
		<g>
			<path class="st19" d="M83,74.5c-0.7-1.1-1.8,0.1-3-0.1s-2-0.3-3.4,0s-3.1-0.2-3.1-0.2c-2.3,1.2,0.3,1.4,1.5,1.4s3.2,0.2,4.2,0.2
				s1.1-0.5,3-0.4C83.3,75.6,83.7,75.6,83,74.5z"/>
		</g>
	</g>
	<g id="Shape_270_1_" class="st0">
		<g>
			<path class="st20" d="M85.2,81.2c-0.8,0.8-0.1,1.5-0.3,2.4c-0.2,0.9-1.4,1-2.8,1c-1.4,0-3.7-0.8-5.1-0.3c0,0-1.6,0.7-1.2,1.4
				s1.3,0.9,3.7,1c2.2,0.1,3.4,0.8,5.5-1c1.3-1.1,2.7-2.7,3-3.8c0.3-1,0.5-2.8,1.3-3.3C90,78,86,80.4,85.2,81.2z"/>
		</g>
	</g>
	<g id="Shape_271_1_" class="st0">
		<g>
			<path class="st21" d="M81.7,81.3c-2.4,0.4-6.5-0.5-8.2-0.8s-5.8-2.5-5.3-1.9c0,0,2.7,2.5,4.2,3c1.6,0.5,2.2,0.6,2.5,1.6
				s2.2,1.4,3.8,1.2s2.3,0.5,4.2,0.2c1.8-0.3,2.2-0.9,2.2-1.9c0.1-1,0.4-1.7,0.8-2.2S84.1,81,81.7,81.3z"/>
		</g>
	</g>
	<g id="Shape_272_1_" class="st0">
		<g>
			<path class="st22" d="M90.1,103.2c-0.1-1.2-4.6,2-7.4,3.6c-2.8,1.6-3,2.7-5,3.8c-2,1.2-4.9,0.6-7.9,0.7c-3,0.1,0.7-4.9,1.7-6.3
				s-1.4-2.6-4.3-3.7c-2.9-1.1-5.8-2.7-6.5-4.3c-0.7-1.7-2.8-3.5-4.4-5.5c-1.7-2-2.8-8.2-2.8-8.2c0,0.7,0.2,12.8,0.9,16.2
				c0.8,3.4,5.2,6.9,6.9,8.4s8.6,6.5,10.7,7.8c2.1,1.2,2.4,1.9,4.7-0.2c2.2-2.1,9.1-7,11.6-9S90.2,104.4,90.1,103.2z"/>
		</g>
	</g>
	<g id="Shape_273_1_" class="st0">
		<g>
			<path class="st23" d="M87.7,97.7c-1.2,0.2-4.1,1.3-8.2,2.2c-4.1,0.8-10.4-1.8-10.4-1.8c-3.8-1.6-0.2,1.2,2.8,2.3
				c3.1,1.2,7.3,0.8,9.8,0.2C84.1,100,88.9,97.4,87.7,97.7z"/>
		</g>
	</g>
	<g id="Shape_274_1_" class="st0">
		<g>
			<path class="st24" d="M84.9,90.5c-3.2-2.3-4.7-0.6-7.3-0.9c-2.7-0.3-4.2-0.4-5-3.2c-0.8-2.8-1.1-2.9,0.1-3c1.2-0.1-3-3.9-4-4
				c0,0-1,2.9-2,2.4s-1.2-1.6-3.2-1.8c-1.9-0.2,1.3,3,2.3,5c1.1,2,2.9,5.5,3.5,6.9c0.6,1.4,2,2.9,5.2,2.9s5.2-0.9,7-0.8
				S88.2,92.8,84.9,90.5z"/>
		</g>
	</g>
	<g id="Shape_276_1_" class="st0">
		<g>
			<path class="st25" d="M47.4,60.9c0,0-2.7,1.2-3.2,3c-0.5,1.8,0.3,4.6,1.5,5.3s1.6-0.2,1.4-1.2c-0.2-1,0-2.1,0.7-2.7
				C48.5,64.8,49.6,60.6,47.4,60.9z M46,58.6c0.7,0.2-1.2-1.9-2.2-2.3c-1-0.4-2.6-0.7-2.3,1.2c0.3,1.9,0.5,3.2,0.5,3.8
				c0,0.6,0.3,1.7,1,2.1c0,0,0.1-3.5,0.1-4c0-0.5,0.4-2.8,1.2-2.1C45.1,57.9,45.3,58.4,46,58.6z"/>
		</g>
	</g>
	<g id="Shape_307_1_" class="st0">
		<g>
			<path class="st26" d="M59.8,129.2c0.2-1.2-3.5-27.5-6.2-28s-2.8,5-9.6,10.6c-6.8,5.6-29.2,13.9-29.2,13.9l-0.2,33.7h51.5
				C66.2,159.3,59.6,130.4,59.8,129.2z M129.4,114c-2.4-1.2-13.8-5.8-19.5-8.1c-5.7-2.2-11.8-9-11.8-9s-0.6-0.5,0.8,3.3
				c1.4,3.8,0.3,17.2-1.9,23.2c-2.2,6-5.9,28.4-5.9,28.4h53.7v-33.9C144.8,117.9,131.8,115.2,129.4,114z"/>
		</g>
	</g>
	<g id="Shape_306_1_" class="st0">
		<g>
			<path class="st27" d="M76.7,117c-4.3,0.7-7.3-0.2-7.3-0.2l-17-11.8c0,0-4.2,23.7,6.2,47.6c10.5,23.8,34.8-0.2,34.8-0.2l6.8-45.2
				C100.1,107.2,81,116.3,76.7,117z"/>
		</g>
	</g>
	<g id="Shape_310_1_" class="st0">
		<g>
			<path class="st28" d="M93.5,135.2c0,0-1.8-2.2-5.9-4.5c-4.1-2.2-6.6-1.8-9.1,0.9s3.8,21.3,3.8,21.3c1,5,12.2,1.8,12.1,1.1
				C94.2,153.3,93.5,135.2,93.5,135.2z"/>
		</g>
	</g>
	<g id="Shape_309_1_" class="st0">
		<g>
			<path class="st29" d="M73.9,117c-1.8,0.3-8.9,3.9-7.9,5.5c0,0,3.5,4.5,1.8,9.4c-2.8,3.2-8.1,14.4-7.7,20.8
				c0.4,6.4,21.3,0.4,21.3,0.4s-4.3-15.1-4.9-19.2c-0.6-4.2,3.2-8.4,6.2-10.4S75.7,116.7,73.9,117z"/>
		</g>
	</g>
	<g id="Shape_308_1_" class="st0">
		<g>
			<path class="st28" d="M97.3,94.8c-0.7,2.3-6,9-10.7,12.8c-4.7,3.8-12.8,9.4-12.8,9.4c1.2,0.6,7,2.4,9.8,6.4s11.1,10.5,10.1,7.7
				s6.3-22,6.5-24.6C100.3,104,98.7,98.4,97.3,94.8z"/>
		</g>
	</g>
	<g id="Shape_311_1_" class="st0">
		<g>
			<path class="st30" d="M68.6,132.4c0,0-1.9,2.4-3.8,7.8c-1.9,5.3-1.6,17.7-1.6,17.7l15.4-0.4c0,0-5.1-21.4-5-23.6
				C73.7,131.7,69.8,131.8,68.6,132.4z M74,117.6c-3.5-0.1-5.9,1.6-5.9,3.9c0,0-0.1,7.8,1.6,8.7c1.7,0.9,4.7-0.9,6.1-3.2
				c1.4-2.3,3.1-4.3,4.6-5.1S77.5,117.7,74,117.6z"/>
		</g>
	</g>
	<g id="Shape_304_1_" class="st0">
		<g>
			<path class="st28" d="M53.6,98.2c0,0-2.3,8.6-2.4,15c-0.1,6.4,2.6,21.1,2.6,21.1s6.9-4.9,9.2-7.4c2.3-2.5,8.1-8.6,10.6-9.7
				C76.1,116.2,59.4,109.3,53.6,98.2z"/>
		</g>
	</g>
	<g id="Shape_277_1_" class="st0">
		<g>
			<path class="st31" d="M50.3,67.7c-0.2-1.2-0.1-6.1-0.8-5.2c0,0-1.3,2.6-1.2,3.7s0.5,3.1,1.3,3.8S50.5,68.8,50.3,67.7z"/>
		</g>
	</g>
	<g id="Shape_278_1_" class="st0">
		<g>
			<path class="st31" d="M49.2,71.7c-0.6-0.5-0.6-1.9-1.4-2.2c-0.8-0.3-0.5,0.3-1.8,0.1c-1.2-0.2-2.2-3-2.2-3
				c-0.8,0.3,0.5,2.3,1.2,3.2c0.8,0.8,1.7,1.3,1.7,1.9c0,0.6-0.3,2.4,0.8,3.3c1.2,1,2.4-0.5,2.6-1.7S49.9,72.2,49.2,71.7z"/>
		</g>
	</g>
	<g id="Shape_279_1_" class="st0">
		<g>
			<path class="st31" d="M45.9,59.8c-0.9-0.4-1-1.4-1.4-0.9c0,0-1.1,1.6-0.8,2.6c0.2,1,0.6,0,1.5-0.1s1.9-0.5,2.2-1
				C47.7,59.9,46.8,60.2,45.9,59.8z"/>
		</g>
	</g>
	<g id="Shape_280_1_" class="st0">
		<g>
			<path class="st9" d="M94.9,61.2c-0.3-1-1.5-0.6-2.6,0.6C91.2,63,84.1,62,86,63.1c0,0,4.5,1.7,6.1,2.4c1.5,0.8,2-0.2,2.1-1.2
				C94.3,63.2,95.2,62.2,94.9,61.2z"/>
		</g>
	</g>
	<g id="Shape_281_1_" class="st0">
		<g>
			<path class="st32" d="M94.1,47.3c-1.5-0.8-8.3-2-10.9-0.3L83,47.2c0,0-2.5,1.6-2.9,3.8c-0.5,2.2-0.5,3.8-0.4,5.6
				c0.1,1.8,0.5,5.5,1.2,7c0.8,1.5,1.3,2.8,1.2,3.4c-0.1,0.6-0.9,1.7,0.5,1.3c1.4-0.4,1.1-1.3,0.8-1.8c-0.4-0.5-1-1.1,0.1-1.8
				c1-0.7-0.1-0.6-0.8-1.4c-0.7-0.8-0.3-1.5-0.8-2.6c-0.4-1-1.5-3.5-0.6-3.3c0.9,0.2-0.2-1.5,0.2-2.2c0.3-0.7-0.2-0.4,0.8-0.8
				s2.9-3.4,3.3-3.6c0.4-0.2,3.2,0.2,3.2,0.2s5.8,0.2,6-0.9C95.1,49,95.6,48.1,94.1,47.3z"/>
		</g>
	</g>
	<g id="Shape_282_1_" class="st0">
		<g>
			<path class="st33" d="M94.2,48c-1.4-0.5-3.9-1.7-4.7-1.7c-0.8,0-4.8,0.5-5.4,1.1c0,0-1.3,1.2,0.5,1.5c1.8,0.2,2.5,0.5,4.8,0.2
				c2.2-0.3,3.4,0.2,4.8,0.1C95.5,49.2,95.6,48.5,94.2,48z"/>
		</g>
	</g>
	<g id="Shape_284_1_" class="st0">
		<g>
			<path class="st34" d="M73.5,81.5c-1.1-0.5-1-0.2-1.2,0.1c-0.1,0.3-1.6-0.9-1.6-0.9c-2-0.6,0.8,1.8,2,2.1c1.2,0.3,1.2-0.2,1.8-0.3
				C75.2,82.3,74.6,82,73.5,81.5z M83.2,82c-1.2,0.2-1.6,0.4-1.6,0.4s-1.1,0.8,0.2,0.7C83.3,83,84.4,81.8,83.2,82z"/>
		</g>
	</g>
	<g id="Shape_286_1_" class="st0">
		<g>
			<path class="st35" d="M89.2,46.8c-2.1-0.5-2.8,1.7-2.8,1.7s1.6,0.4,2.8,0.5c1.2,0.1,2.6-0.3,3.2-0.9
				C93.1,47.5,91.3,47.3,89.2,46.8z"/>
		</g>
	</g>
	<g id="Shape_287_1_" class="st36">
		<g>
			<path class="st37" d="M74,51.2c-1.3-0.5-2.2-2.1-2.2-2.1c-1.6-0.7-6.7,0.8-5.2,1.4c1.4,0.7,2.8,0.5,4.2,0.7
				c1.3,0.2-0.8,0.8-2.8,1.1s-2.9,1.2-4.6,1.5c-1.7,0.2-2.8,1.8-2.4,2.2c0.3,0.4,2.5,0.1,3.1-1.1c0.6-1.2,5.2-0.9,5.9-0.8
				s0.2,1.7,1.2,2s1.8-0.8,2.5-0.7c0.7,0.1,0.9-0.4,0.9-1.8C74.5,52.4,75.3,51.7,74,51.2z"/>
		</g>
	</g>
	<g id="Shape_288_1_" class="st0">
		<g>
			<path class="st33" d="M71.9,48.3c-1-0.8-2.1-0.2-5-0.2c-2.9,0-5.6,1.8-5.6,1.8c-1.3,0.2,1.3,0.4,2.7,0.5c1.3,0.1,3.3,0.3,4.8-0.2
				s3.8,0.8,4.2,0.2C73.2,49.8,72.9,49.2,71.9,48.3z"/>
		</g>
	</g>
	<g id="Shape_294_3_" class="st0">
		<g>
			<path class="st38" d="M91.7,53.5c-0.8-0.4-2.2-1.6-5.1-0.5s-3.1,1-2.4,1.2c0,0,2,1.1,4.3,1.1c2.3,0,3-0.6,3.2-0.9
				S92.5,53.9,91.7,53.5z"/>
		</g>
	</g>
	<g id="Ellipse_7_3_" class="st0">
		<g>
			<path class="st39" d="M86.6,53c0,0-0.1,0-0.1,0.1c-0.1,0.3-0.2,0.6-0.2,0.9c0,0.4,0.1,0.8,0.3,1.2c0.6,0.1,1.2,0.2,1.9,0.2
				c0.8,0,1.4-0.1,1.8-0.2c0.2-0.3,0.3-0.7,0.3-1.2c0-0.4-0.1-0.8-0.3-1.1C89.5,52.5,88.3,52.3,86.6,53z"/>
		</g>
	</g>
	<g id="Ellipse_7_copy_3_3_" class="st0">
		<g>
			<path class="st5" d="M88.5,53.2c-1,0-1.6,0.3-1.7,1c0,0.4,0,0.7,0.2,1c0.5,0.1,1,0.1,1.5,0.1c0.6,0,1-0.1,1.4-0.1
				c0.2-0.3,0.4-0.6,0.4-1.1C90.4,53.1,89.6,53.2,88.5,53.2z"/>
		</g>
	</g>
	<g id="Ellipse_7_copy_3_" class="st0">
		<g>
			<circle class="st40" cx="88.5" cy="54" r="0.7"/>
		</g>
	</g>
	<g id="Ellipse_7_copy_2_3_" class="st0">
		<g>
			<circle class="st41" cx="89.1" cy="53.5" r="0.5"/>
		</g>
	</g>
	<g id="Shape_289_1_" class="st0">
		<g>
			<path class="st35" d="M68.4,50.3c-0.7-0.4,0.3-1-0.8-1.6c-1.2-0.6-3.2,0.3-3.2,0.3c-1.7,0.2,1.3,1.5,2.2,1.6
				C67.4,50.7,69.1,50.7,68.4,50.3z"/>
		</g>
	</g>
	<g id="Shape_291_1_" class="st0">
		<g>
			<path class="st25" d="M93.4,54.6c-0.4-0.2-1.2-1-2.2-1.7s-2.4-0.9-3.8-0.8c-1.4,0.1-1.1-0.1-0.5-0.3c0.6-0.2,1.8-0.4,0.4-0.5
				c-1.3-0.1-2.2,0.5-3.1,1s-1.9,0.8-1.9,0.8c0.3,0.8,0.5,0.6,1.3,0.4c0.9-0.2,0.3,0.4-0.3,1s1,0.3,1.5-0.1s0.1-0.5,1.3-1.2
				c1.2-0.8,3.9-0.1,4.7,0.2s0.4,1.2,0.9,1.7c0.5,0.5,0.7,0.2,1.2-0.1C93.3,54.7,93.8,54.7,93.4,54.6z"/>
		</g>
	</g>
	<g id="Shape_294_1_" class="st0">
		<g>
			<path class="st38" d="M70.6,54.3c-0.8-0.4-2.2-1.6-5.1-0.5c-2.8,1.1-3.1,1-2.4,1.2c0,0,2,1.1,4.3,1.1c2.3,0,3-0.6,3.2-0.9
				C71,54.9,71.4,54.7,70.6,54.3z"/>
		</g>
	</g>
	<g id="Ellipse_7_1_" class="st0">
		<g>
			<path class="st39" d="M65.5,53.8c0,0-0.1,0-0.1,0.1c-0.1,0.3-0.2,0.6-0.2,0.9c0,0.4,0.1,0.8,0.3,1.2c0.6,0.1,1.2,0.2,1.9,0.2
				c0.8,0,1.4-0.1,1.8-0.2c0.2-0.3,0.3-0.7,0.3-1.2c0-0.4-0.1-0.8-0.3-1.1C68.4,53.3,67.2,53.2,65.5,53.8z"/>
		</g>
	</g>
	<g id="Ellipse_7_copy_3_1_" class="st0">
		<g>
			<path class="st5" d="M67.4,54.1c-1,0-1.6,0.3-1.7,1c0,0.4,0,0.7,0.2,1c0.5,0.1,1,0.1,1.5,0.1c0.6,0,1-0.1,1.4-0.1
				c0.2-0.3,0.4-0.6,0.4-1.1C69.2,54,68.4,54.1,67.4,54.1z"/>
		</g>
	</g>
	<g id="Ellipse_7_copy_1_" class="st0">
		<g>
			<circle class="st40" cx="67.4" cy="54.8" r="0.7"/>
		</g>
	</g>
	<g id="Ellipse_7_copy_2_1_" class="st0">
		<g>
			<circle class="st41" cx="68" cy="54.3" r="0.5"/>
		</g>
	</g>
	<g id="Shape_292_1_" class="st0">
		<g>
			<path class="st25" d="M74,54.2c-0.1-0.6-0.4-1.2-0.8-0.9c0,0-0.2,0.4-1.2,0s-1.5-0.8-2.3-0.8s-1.3-0.1-0.6,0.3
				c0.8,0.4,0.7,0.4-0.1,0.3c-0.8-0.1-3-0.1-3.9,0.2c-0.9,0.4,0-0.7-0.8-0.3c-0.8,0.4-3.2,2.1-3.4,2.6c-0.2,0.5,0.3,0.6,1.6,0.3
				s2-0.5,1.8-0.8c-0.2-0.3-0.1-1,1-1.3s3.4-0.5,4.2-0.2s1,0.9,1,1.3s-0.6,0.8,0.6,0.8c1.2,0,1.8,0,1.4-0.4c-0.4-0.5-0.8-1,0.2-0.8
				C73.7,54.7,74.1,54.7,74,54.2z"/>
		</g>
	</g>
	<g id="Shape_293_1_" class="st0">
		<g>
			<path class="st5" d="M101.7,36c0.3-0.7,1.8,0.6,1.8,0.6s-2.1-2.9-2.1-4.2s1.4-0.9,1.4-0.9s-2.2-1.9-2.4-2.8
				c-0.2-0.9-1.3-2.1-1.8-3.4c-0.4-1.3,2.3,1,3.5,1.5c1.2,0.5-0.6-1.8-0.9-2.6c-0.3-0.8-2-4.2-7.7-4.6c-1.4-0.1-2.3-0.9-3.3-2.4
				s-7.1-5.2-10-5.3c-2.9-0.1-7.3-1.2-12.6-0.8s-7.6,2.8-9.9,3.8c-2.3,1-8.3,6.1-9.2,8.9c0,0,6.6,2,11.2,0.2
				c4.7-1.8,6.1-1.7,6.1-1.7s9.6-2.2,11.4-2.2c-5-1.2-5.7-1.8-6.7-2.8c4.8,1.2,6.4,0.9,8.7,1.2c-3-1.7-3.1-2.9-3.6-3.3
				c2.1,1,3.4,0.9,7.9,2.2s4,2.7,5.8,2.4s1.9,2,1.9,2l0.5-1l1.2,1l1.5,0.7l2.1,1.6h-2.1c0,0,0.7,1.1,1.2,2.1s1.7,3.6,2.7,5.2
				c1,1.7,1.8,4.3,1.9,6.2c0.1,1.8-1-0.5-1-0.5s0.9,4.2,0.6,5.5c-0.3,1.2,1.1,3.2,1.8,4c-0.4-2.1,0.6-2.4,0.7-4.9
				C102.2,39.1,101.3,36.7,101.7,36z"/>
		</g>
	</g>
	<g id="Shape_295_1_" class="st0">
		<g>
			<path class="st42" d="M91.8,53.4c-0.8-0.4-2.3-0.9-2.8-1s-3,0.3-3,0.3c-1.2,0.6,1.9,0.2,3,0.3c1.1,0.1,2.1,0.8,2.4,1.1
				c0.3,0.3,1.1,0.3,1.2,0.1C92.8,54.1,92.6,53.9,91.8,53.4z"/>
		</g>
	</g>
	<g id="Shape_296_1_" class="st0">
		<g>
			<path class="st42" d="M93.2,53.1c-0.3-0.6-3.2-2.1-2.4-1.3c0,0,1.4,0.9,1.9,1.4S93.6,53.6,93.2,53.1z"/>
		</g>
	</g>
	<g id="Shape_297_1_" class="st0">
		<g>
			<path class="st42" d="M70.6,54.1c-0.4-0.4-0.9-0.7-1.6-0.8c-0.7-0.2-2.5-0.2-3.2,0.2s-1.3,0.6-1.8,0.8c-0.6,0.2-2.7,1.1-1.9,1.2
				c0,0,1.8,0.2,1.9-0.2c0.1-0.4,1.2-1.2,2-1.4c0.8-0.2,2.2-0.6,3.2-0.1c0.9,0.5,1.3,0.7,1.7,1c0.3,0.3,0.8,0.3,0.8,0.1
				S71,54.5,70.6,54.1z"/>
		</g>
	</g>
	<g id="Shape_298_1_" class="st0">
		<g>
			<path class="st42" d="M72.2,53.9c-0.4-0.4-1.1-0.6-1.6-0.9c-0.5-0.3-1.2-0.8-1.1-0.4c0,0,0.6,0.9,1.4,1.2S72.6,54.3,72.2,53.9z"
				/>
		</g>
	</g>
	<g id="Shape_300_1_" class="st0">
		<g>
			<path class="st43" d="M71.7,56.2c-1,0.1-1.7,1-1.7,1c-3.6,2.2,1.5,0.6,2.2,0S72.7,56,71.7,56.2z M87.6,55.7
				c-1.4-0.3-4-1.4-3.7-0.8c0,0,0.2,1.3,1.6,1.4S89,56.1,87.6,55.7z"/>
		</g>
	</g>
	<g id="Shape_302_1_" class="st0">
		<g>
			<path class="st25" d="M101.2,58.5c0,0-0.8,1.9,0,3.2c0.8,1.4,1.8,2.7,2.1,0.8C103.6,60.7,102.4,57.2,101.2,58.5z M105.8,53.1
				c-1.6,0.7-1.5,1.8-1.2,2.4c0,0,0.9-0.7,1.2-0.1s0.7,0.9,0.9-0.1C106.9,54.4,107.3,52.4,105.8,53.1z"/>
		</g>
	</g>
	<g id="Shape_303_1_" class="st0">
		<g>
			<path class="st44" d="M107,57c-0.1-1.3-0.6-0.4-0.7,0.4c-0.1,0.8-0.4,2.8-0.8,2.5s-1.1-1.4-1.2-2.2c-0.2-0.8-0.9-2.4-1.7-1.3
				c-0.8,1,0,0.7-0.5,1.2c-0.5,0.5,0,0.6,0.6,1s0.9,1.2,1.3,2.2c0.4,1,1,0.7,0.4,1.8c-0.6,1.2-1.8,1.9-2.4,1.2c0,0-0.1,1,0.3,1.7
				c0.4,0.7-0.5,1.1-0.2,2.1c0.2,1,0.4,1,0.9,0.4c0.5-0.5,1-0.9,0.9-0.5s-0.3,1.5-0.9,1.7c-0.6,0.1-0.9-0.8-0.8,0.8
				c0,1.5-0.6,2.8,0.2,2.9c0.8,0.1,1-1.2,1.2-1.7s1.3-2.5,1.3-3.2c0-0.7-0.9-0.5-0.6-1.2c0.3-0.7,0.8-2,0.8-2.5
				c0.1-0.5,0.7-2.5,0.4-3.2C106.3,60.6,107.1,58.3,107,57z"/>
		</g>
	</g>
</g>
</svg>
