<?xml version="1.0" encoding="utf-8"?>
<!-- Generator: Adobe Illustrator 19.1.0, SVG Export Plug-In . SVG Version: 6.00 Build 0)  -->
<svg version="1.1" id="Layer_1" xmlns="http://www.w3.org/2000/svg" xmlns:xlink="http://www.w3.org/1999/xlink" x="0px" y="0px"
	 viewBox="0 0 70 70" style="enable-background:new 0 0 70 70;" xml:space="preserve">
<style type="text/css">
	.st0{clip-path:url(#SVGID_3_);}
	.st1{fill-rule:evenodd;clip-rule:evenodd;fill:#2F394D;}
	.st2{fill-rule:evenodd;clip-rule:evenodd;fill:#C98A63;}
	.st3{fill-rule:evenodd;clip-rule:evenodd;fill:#EDAA7E;}
	.st4{fill-rule:evenodd;clip-rule:evenodd;fill:#FDCBA7;}
	.st5{fill-rule:evenodd;clip-rule:evenodd;fill:#C98961;}
	.st6{fill-rule:evenodd;clip-rule:evenodd;fill:#CA8258;}
	.st7{fill-rule:evenodd;clip-rule:evenodd;fill:#9B6945;}
	.st8{opacity:0.3216;clip-path:url(#SVGID_3_);}
	.st9{fill-rule:evenodd;clip-rule:evenodd;fill:#271A14;}
	.st10{fill-rule:evenodd;clip-rule:evenodd;fill:#E8CBC0;}
	.st11{fill-rule:evenodd;clip-rule:evenodd;fill:#261811;}
	.st12{fill-rule:evenodd;clip-rule:evenodd;fill:#503520;}
	.st13{fill-rule:evenodd;clip-rule:evenodd;fill:#DFD9DC;}
	.st14{fill-rule:evenodd;clip-rule:evenodd;fill:#895632;}
	.st15{fill-rule:evenodd;clip-rule:evenodd;fill:#986A4D;}
	.st16{fill-rule:evenodd;clip-rule:evenodd;fill:#F1DED5;}
	.st17{fill-rule:evenodd;clip-rule:evenodd;fill:#B98666;}
	.st18{fill-rule:evenodd;clip-rule:evenodd;fill:#201712;}
	.st19{fill-rule:evenodd;clip-rule:evenodd;fill:#423020;}
	.st20{fill-rule:evenodd;clip-rule:evenodd;fill:#F2E6E2;}
	.st21{fill-rule:evenodd;clip-rule:evenodd;fill:#372618;}
	.st22{fill-rule:evenodd;clip-rule:evenodd;fill:#FCBF91;}
	.st23{fill-rule:evenodd;clip-rule:evenodd;fill:#995B38;}
	.st24{fill-rule:evenodd;clip-rule:evenodd;fill:#5F291A;}
	.st25{fill-rule:evenodd;clip-rule:evenodd;fill:#804E2D;}
	.st26{fill-rule:evenodd;clip-rule:evenodd;fill:#936048;}
	.st27{fill-rule:evenodd;clip-rule:evenodd;fill:#2C211E;}
	.st28{fill-rule:evenodd;clip-rule:evenodd;fill:#724728;}
	.st29{fill-rule:evenodd;clip-rule:evenodd;fill:#DEA17C;}
	.st30{fill-rule:evenodd;clip-rule:evenodd;fill:#5F5656;}
	.st31{fill-rule:evenodd;clip-rule:evenodd;fill:#885128;}
	.st32{fill-rule:evenodd;clip-rule:evenodd;fill:#59351A;}
	.st33{fill-rule:evenodd;clip-rule:evenodd;fill:#B6B8C8;}
	.st34{fill-rule:evenodd;clip-rule:evenodd;fill:#640C0F;}
	.st35{fill-rule:evenodd;clip-rule:evenodd;fill:#D6D7E2;}
</style>
<g>
	<defs>
		<circle id="SVGID_1_" cx="35" cy="35" r="35"/>
	</defs>
	<linearGradient id="SVGID_2_" gradientUnits="userSpaceOnUse" x1="35" y1="70" x2="35" y2="-9.094947e-13">
		<stop  offset="0" style="stop-color:#212121"/>
		<stop  offset="1" style="stop-color:#EF4438"/>
	</linearGradient>
	<use xlink:href="#SVGID_1_"  style="overflow:visible;fill:url(#SVGID_2_);"/>
	<clipPath id="SVGID_3_">
		<use xlink:href="#SVGID_1_"  style="overflow:visible;"/>
	</clipPath>
	<g id="Shape_782_5_" class="st0">
		<g>
			<path class="st1" d="M51.8,44.7c-2.1-1-5.4-6.3-5.4-6.3l-21,5.5c0,0-21.3,9.2-21.7,9.2c-0.5,0.1,4.1,19.4,4.1,19.4h54.8L67,49.9
				C67,49.9,53.9,45.7,51.8,44.7z"/>
		</g>
	</g>
	<g id="Shape_748_5_" class="st0">
		<g>
			<path class="st2" d="M49.9,24.2c-0.7-0.2-0.6-0.4-0.6-0.4s-2.1-2.4-2.2-2.9s-2.4-8.5-3.1-8.7C43.3,12,31.8,9.6,31.6,9.6
				c-0.3,0-3.9,1.1-4.2,1.2c-0.3,0.1-2.8,0.4-3.7,1.8c-0.9,1.4-2.4,4-1.6,11.2c-0.4,1.9-0.5,2.8-0.5,3.2c0.1,0.2,0.2,0.4,0.2,0.4
				s-0.1,0.1-0.2-0.4c-0.3-0.9-1.2-2.8-1.8-2.4c-0.8,0.5-0.3,1-0.3,2.5s0.8,1.7,0.7,2.6c-0.1,0.9-0.1,1.7,0.2,2.7s0.4,2.1,0.5,2.8
				s0.7,1,1.1,1.2c0.2,1.4,0.2,4.2,2.5,7.5c2.3,3.3,2.7,3.6,3.1,4.5s1.3,3.1,2.3,4s1.3,2.6,4.2,1.3c3-1.4,4.6-2.9,4.6-2.9
				s3.5-4,4.7-5.4c1.2-1.4,2.6-5.5,2.9-6.5s0.6-3,0.6-3s1.1,0.7,1.8-0.5c0.8-1.2,0.9-3.2,1-3.9c0.1-0.7,0-1.9,0.1-2.6
				C49.9,28.3,50.6,24.4,49.9,24.2z"/>
		</g>
	</g>
	<g id="Shape_752_5_" class="st0">
		<g>
			<path class="st3" d="M38.7,22.5c-0.1-0.6,0.2-0.5,0.2-1.4c-0.1-0.9,0-1.3-0.1-2.2s-0.2-1.5-0.3-2.2c-0.2-0.7-1.3-1.3-2.3-1.6
				c-1-0.3-1.9-0.1-2.4-0.8c-0.5-0.7-6.5-2.7-7.3-1.8c0,0-3.5,2.4-3.7,4.5c-0.2,2.1-0.4,4.9-0.2,5.9s0.6,2.4,0.6,3.1
				c0,0.7,0,1.5-0.3,1.8s-1.1,0.2-0.9,1.9s0.3,6.6,0.4,7.5c0.1,0.9,0.5,1.2,0.8,1.8s0.1,1.9,0.7,3c0.6,1.1,0.9,1.3,1.1,1.6
				c0.2,0.3,1.3,0,1.7,0.7c0.4,0.7-0.2-2.2,0.3-1.7s0.3,1.4,0.5,2c0.2,0.6,0.4,1.7,1,2.6c0.7,0.9,1.4,1.9,2.9,2.1
				c1.5,0.2,2.1-0.2,2.7-0.5c0.6-0.3,0.2-0.2,0.5-1.3c0.3-1,0.4-2,0.4-2s-4.5-0.7-4.7-1.2c-0.2-0.5,0.7-0.4,1.7-0.6
				c0.9-0.3,1.4-0.4,1.8-0.6c0.3-0.2,0-1.3-0.6-1.3s0-0.3,0.5-0.4c0.6-0.1,1-0.7,0.7-1.1c-0.4-0.5-0.1-1.3-0.7-1.1
				c-0.6,0.2-1.2,1.5-1.4,0.5c-0.2-0.9-1.7-1.4-1-1.6c0.7-0.2,1.2-0.3,1.8-0.5s0.9-0.7,1-1.4c0.1-0.7,0.2-1.2,0-1.5
				c-0.1-0.4-0.4-0.3-0.5-0.9s0-1.3,0-1.7s0.2-2,0.2-2.6c0-0.7-0.3-0.2-0.5-0.7s-0.3-0.9,0-1.6c0.3-0.7,0.2-0.3,0.5-0.1
				s0.5,0.4,0.7,0c0.3-0.4,0.1-1,0.9-0.7c0.8,0.2,0.6,0.3,1.2-0.2c0.5-0.5,0.7-1.2,1.1-1.5c0.4-0.2,0.8-0.7,1-1.1
				C39,23.2,38.8,23.1,38.7,22.5z"/>
		</g>
	</g>
	<g id="Shape_753_5_" class="st0">
		<g>
			<path class="st4" d="M33,32.9c0.2-0.9,0.6-2,0.3-3c-0.1-0.5-1-2-1-2c-0.1,0-0.2,0.1-0.3,0.1c-0.6,0.2-0.7,0.8-0.7,1.4
				c-0.2,0-0.4-0.2-0.6-0.2l-0.1,0.4c0,0,0,0,0,0c-0.1,0-0.1-0.2-0.3-0.2c-0.5,0.5-0.5,1.4-1.3,2c-0.5,0.4-1.4,0.3-2,0.4
				c-0.5,0.1-1.2,0.2-1.6-0.3v0c0.2-0.3,1.4-0.5,1.4-0.9c0,0-2.1-1.3-2.1-1.3c-0.3-0.1-0.4,0.4-0.5,0.4c0,0,0,0,0,0c0,0,0,0,0,0
				c-0.1,0.1-0.4,0.7-0.6,0.6c-0.2-0.2,0-0.5,0-0.7c-0.2-0.2-0.9-0.1-1,0.1c0.1,0.2,0.2,0.4,0.3,0.6c0.1,0.2-0.7,1-0.1,1.5
				c0.2,0,0.3-0.1,0.5-0.1c0.2,0.3-0.4,1.1-0.5,1.4c-0.1,0.4,0,0.9,0.1,1.2c0.1,0.4,0.3,0.8,0.6,1.2c1.7,2.5,3.9,0.1,5.7-0.8
				c0.3-0.1,0.6-0.4,0.9-0.4c0.3,0.3-0.3,0.9-0.5,1.1c-0.5,0.5-2.2,2-2,2.7c0.2,0.5,1.8,0.5,2.1,0c0-0.5-0.8-1.4-0.7-1.7l0-0.1
				c0,0,0.1,0,0.1,0c0.4,0.3,0.6-0.1,1,0c0.1,0,0.1,0,0.2,0c0,0.9,1.5,0.8,2.1,0.8c0.2-0.1,0.3-0.3,0.5-0.5c0.3-1.1-0.5-2-0.4-3.1
				C32.8,33.4,32.9,33.2,33,32.9z"/>
		</g>
	</g>
	<g id="Shape_754_5_" class="st0">
		<g>
			<path class="st5" d="M23.7,37c0,0.1-0.1,0.2-0.1,0.2C23.6,37.2,23.6,37.1,23.7,37c-0.2,0.3-0.4,0.5-0.5,0.8
				c-0.1,0.5,0.7,1.9,1.3,1.6C25.1,39,24.4,37,23.7,37z"/>
		</g>
	</g>
	<g id="Shape_755_5_" class="st0">
		<g>
			<path class="st6" d="M34.7,40.4c-0.3-0.3-0.5-1.1-1-1.2c-0.5-0.1-0.8,0.8-1.1,0.7c-0.1-0.1-0.6-1.6-0.7-1.6
				c0-0.2,0.6-0.3,0.6-0.6c-0.4,0-0.9,0.1-1.3-0.1c-0.6-0.2-1.1-0.7-1.8-0.7c0,0.9,1.9,1.6,2.3,2.2c0.2,0.4,0.3,0.8,0.5,1.2
				c0.4,0.2,0.7,0,1-0.2c0.3,0,0.7,0.3,0.6,0.6c-0.4,0.8-1.3,0.4-2,0.2c-0.4-0.1-0.8-0.2-1.2-0.3c-0.1-0.1-2.8-1.6-2.9-1.6
				c0,0,0,0,0,0c0,0,0,0-0.1,0.1c-0.2,0.2-0.5,0.5-0.7,0.7C26.7,40.1,26.4,42,27,42c0.5-0.5,1.5-1.1,2.2-0.9
				c0.5,0.1,0.9,0.4,1.4,0.5c0.8,0.1,1.6,0.2,2.4,0.3c1-0.1,2.1-0.3,3.1-0.4C36.2,40.2,35.5,41.1,34.7,40.4z"/>
		</g>
	</g>
	<g id="Shape_756_5_" class="st0">
		<g>
			<path class="st6" d="M20.7,27C20.7,27,20.7,27,20.7,27L20.7,27C20.7,27,20.7,27,20.7,27z M22.1,33.5c-0.1-0.5-0.2-0.9-0.4-1.3
				c-0.2-0.3-0.6-0.5-0.7-0.9c-0.1-1.3,0.7-3.2-0.3-4.2c0,0,0,0,0,0c0,0.4,0,0.8,0,1.2c-0.1,1-0.5,2.1-0.2,3.2
				c0.2,0.4,0.4,0.8,0.6,1.2c0,0.1,0,0.1-0.1,0.1c-0.1-0.2-0.2-0.3-0.4-0.5c0,0-0.1,0-0.1,0c-0.1,0.4,0.7,3.9,1.4,3.3
				C22.2,35.3,22.1,33.9,22.1,33.5z"/>
		</g>
	</g>
	<g id="Shape_749_5_" class="st0">
		<g>
			<path class="st7" d="M30.2,27.2c-0.5-0.2,0.1-0.4-1.1-0.7c-1.2-0.3-3.8-0.4-4.9-0.2c-1.1,0.2-1.4,2-1.4,2
				c0.5,0.2,0.7,1.2,0.8,0.4c0.1-0.8,1.1-1.2,1.9-1.5s1.4,0.2,2,0.3c0.6,0.2-0.1,0.6-0.1,0.6s0.5,0.2,1,0.2c0.4,0,0.7,0.5,1,0.7
				c0.3,0.2,0.1,0.7-0.4,1s-1.4,0.4-2,0.4c-0.6,0,0.3,0.4,1.2,0.3s2-0.9,2.1-1.2c0.2-0.3-0.3-0.7-0.3-0.7s0.4-0.2,1-0.4
				s0.6-0.5,0.6-0.8C31.7,27.3,30.7,27.4,30.2,27.2z"/>
		</g>
	</g>
	<g id="Shape_750_5_" class="st8">
		<g>
			<path class="st9" d="M30,27.4c-0.2-0.1,0.1-0.7-0.5-0.7c-0.6,0-1.2-0.2-3-0.5S24,26.4,24,26.4s0.5,0.4,1,0.6c0.5,0.2,1,0,1.4,0.1
				c0.4,0.1,2,0.6,2.4,0.6C29.2,27.8,30.2,27.5,30,27.4z"/>
		</g>
	</g>
	<g id="Shape_751_5_" class="st0">
		<g>
			<path class="st4" d="M37,20.9c-0.1-1.2-0.1-2.4-0.7-2.9c-0.6-0.5-1.2-1.8-2.5-2.8c-1.3-1-2.4-0.9-3-1c-0.6-0.1-2.8-0.4-3.3-0.2
				c0,0-2.9,1-3.5,4.1c-0.6,3.2-0.2,4.4,0,5.5s0.4,1.5,1.5,1.8c1.1,0.3,4.1,0.9,4.9,1.2s0.9-0.2,1.6-0.5c0.7-0.3,1.6,0.2,2.3,0.1
				c0.7-0.1,1.8-1.9,2.4-1.9C37.3,24.3,37.1,22,37,20.9z"/>
		</g>
	</g>
	<g id="Shape_758_5_" class="st0">
		<g>
			<path class="st10" d="M27,28.2c-0.3,0.1-0.6,0.1-0.9,0.2c0,0,0,0,0-0.1c-1.6,1.9,3.5,1.8,3.5,0.8C29.3,28.2,27.7,28.1,27,28.2z"
				/>
		</g>
	</g>
	<g id="Ellipse_19_copy_3_5_" class="st0">
		<g>
			<path class="st11" d="M28.2,28.1c-0.2-0.2-0.4,0-0.7,0c-0.3,0-0.6-0.1-0.8,0.1c-0.2,0.2-0.3,0.4-0.3,0.7c0,0.6,0.5,1.1,1.1,1.1
				s1.1-0.5,1.1-1.1C28.6,28.6,28.5,28.3,28.2,28.1z"/>
		</g>
	</g>
	<g id="Ellipse_19_5_" class="st0">
		<g>
			<circle class="st12" cx="27.6" cy="29" r="0.9"/>
		</g>
	</g>
	<g id="Ellipse_19_copy_5_" class="st0">
		<g>
			<circle class="st11" cx="27.6" cy="28.9" r="0.4"/>
		</g>
	</g>
	<g id="Ellipse_19_copy_2_5_" class="st0">
		<g>
			<circle class="st13" cx="27.2" cy="28.8" r="0.3"/>
		</g>
	</g>
	<g id="Shape_757_5_" class="st0">
		<g>
			<path class="st11" d="M29.5,28.7c0-0.6-1-0.7-1.4-0.7c-0.9,0-1.7,0.1-2.5,0.3c-0.3,0.1-0.5,0.1-0.8,0.2c-0.1,0.3-0.3,0.5-0.4,0.8
				c0,0,0,0.1,0,0.1c0,0,0,0,0-0.1c0.4,0,0.9-0.2,1.3-0.2c0-0.3,0.4-0.7,0.7-0.7c1,0.1,1.4-0.1,2.2,0c0.4,0.2,0.7,0.4,1.1,0.7
				c0,0,0.1,0,0.1-0.1C29.7,28.9,29.6,28.8,29.5,28.7z"/>
		</g>
	</g>
	<g id="Shape_759_5_" class="st0">
		<g>
			<path class="st6" d="M29.6,34.9c0,0,0-0.1,0-0.1l0,0c-0.4,0-2.5,1.9-2.1,2.4c0.4,0.5,2-2,2.2-2.4C29.7,34.9,29.7,34.9,29.6,34.9z
				"/>
		</g>
	</g>
	<g id="Shape_760_5_" class="st0">
		<g>
			<path class="st14" d="M45.5,26.8c-0.2-0.4-1.4,1.6-1.5,1c-0.1-0.6,0.1-0.4,0.7-1.4c0.5-1,1-3.1,1.3-3.8c0.3-0.7,0.1-3.8-0.1-4.7
				c-0.2-0.9-0.6-2.8-1.8-3.3c-1.2-0.6-3.4-1.1-4.6-1.3c-1.8-0.3-1.1,0.6,0.3,1.1s2.4,0.8,2.7,2.4c0.3,1.6,0.5,1.7,0.3,3.3
				S42.3,23.2,42,24c-0.2,0.9,0,1.1-0.5,1.5c-0.6,0.4,0,0.2-1.1,0.4c-1.1,0.2-1,0.2-1.9,0.3c-0.9,0.1-1.4,0.2-2.1,0.5
				c-0.7,0.3-0.9,0.1-1.2,0.6s-0.8-0.3-0.6,1.4c-0.3,1.6-0.5,3.2-0.7,4.8c0,0.5,0.6,0.7,0.7,1.3c0.3,1.7-0.9,3.7-2.7,3.7v0
				c0.2,0.2,0.3,0.4,0.5,0.6c0.1,0.2,0.2,0.4,0.3,0.7c0,0,0.1,0,0.1,0c0,0,0,0,0,0c0.1-0.3,0.1-0.6,0.2-0.9c0.6-0.6,1.3,0.9,1.6,1.1
				c0.5,0,0.8-0.8,0.9-0.8c0-1,1.3,0.3,1.7,0.3c0,0.1,0,0.1,0,0.2c-0.3,0.4-0.8,0.4-1.2,0.7c-0.2,0.2-0.2,0.4-0.4,0.6
				c0,0.1-0.1,0.1-0.1,0.2c-0.3,0-0.5,0-0.8,0c-0.5,0.1-1.6,0.1-1.9,0.6c0,0,0,0.1-0.1,0.1c0.7,0.3,2.2,0.1,2.9-0.1
				c0.2-0.1,0.8-0.2,0.9,0.1c0.3,1-2.2,1.9-1.5,2.6c0.8,0.8,2.6-2.1,3-2.5c0.3-0.3,0.7,0,0.9-0.1c0.2-0.2-0.2-0.7-0.3-0.9
				c-0.3-0.5-0.5-1-0.8-1.6c-0.4-0.3-0.8-0.7-1.2-1c0-0.1,0-0.1,0-0.2c0-0.1,0-0.1,0-0.2c0-0.1,0-0.1,0-0.2c0.1-0.3,0.2-0.7,0.3-1
				c0-0.2,0-0.5,0-0.7c0-0.1,0-0.1,0-0.2c0,0-0.2-0.4-0.4-0.7c0,0-0.5-0.6-0.3,0.2s-0.8,0.8-0.9-0.2c-0.1-0.9-0.5-0.9-0.4-1.7
				s0.4-1.2,0.2-1.6c-0.2-0.4-0.6-2.1,0-2.7c0.6-0.6,0.8-0.7,1.5-0.9c0.7-0.3,2.1-0.5,3-0.2c1,0.3,1.3,0.5,1.1,0.9
				c-0.2,0.4-0.4,1-1,1.2c-0.7,0.3-0.3,0.2,0.7,0.3c1,0.1,3.3,0.7,3,1.7c-0.3,0.9-0.6,1.1-0.7,2.1s-0.4,2.2-0.5,3.8
				c-0.1,1.6-0.3,3-0.5,3.8c-0.3,0.8-0.5,2.4-1.1,2.1c-0.6-0.3-0.7-0.9-1.1-0.3c-0.4,0.5-0.6,0.6-0.7,1.4c-0.1,0.8-0.1,1.3-0.2,1.6
				c-0.1,0.3,0.2,0.3,0.5-0.7s0.6-1.9,0.8-1.4s-0.3,1.6,0.5,1.4c0.8-0.3,1.3,0,1.6-0.7c0.3-0.6,1.8-1.1,2.1-2.1
				c0.3-1,0.7-2.7,0.9-3.9c0.2-1.2,0.3-2.2,0.4-3.5s-0.2-2.3,0-3.3c0.2-1.1,0.9-3.1,0.5-3.5C45.5,28.7,45.6,27.1,45.5,26.8z"/>
		</g>
	</g>
	<g id="Shape_762_5_" class="st0">
		<g>
			<path class="st15" d="M40.8,27.6c-1-0.2-2.3-0.2-3.2,0.4c0,0,0,0,0,0.1c0.8-0.4,4,1.2,4.2,0.2C41.9,27.8,41.1,27.7,40.8,27.6z"/>
		</g>
	</g>
	<g id="Shape_765_5_" class="st0">
		<g>
			<path class="st16" d="M38.8,28.2c-0.3,0-0.6-0.1-0.9-0.1c-1.2,0.4-1.2,1.3,0,1.7c1,0.3,2.6,0,3.2-0.7
				C41.3,28.1,39.4,28.3,38.8,28.2z M37.9,28.1C37.9,28.1,37.9,28.1,37.9,28.1C37.9,28.1,37.9,28.1,37.9,28.1
				C37.9,28.1,37.9,28.1,37.9,28.1z"/>
		</g>
	</g>
	<g id="Shape_763_5_" class="st0">
		<g>
			<path class="st17" d="M38.9,27.8L38.9,27.8c0.1,0.1,0.2,0.1,0.3,0.2V28c0.2-0.2,1.3,0.2,1.3-0.3C40.2,27.5,39.1,27.5,38.9,27.8z"
				/>
		</g>
	</g>
	<g id="Ellipse_20_copy_3_5_" class="st0">
		<g>
			<path class="st18" d="M39,28.2c-0.5,0-0.9,0.3-0.9,0.8s0.4,1,1,1s1-0.4,1-1S39.6,28.2,39,28.2z"/>
		</g>
	</g>
	<g id="Ellipse_20_5_" class="st0">
		<g>
			<path class="st19" d="M39,28.4c-0.5,0-0.8,0.1-0.8,0.6s0.4,0.9,0.9,0.9S40,29.5,40,29S39.5,28.4,39,28.4z"/>
		</g>
	</g>
	<g id="Ellipse_20_copy_5_" class="st0">
		<g>
			<circle class="st18" cx="39.1" cy="29" r="0.5"/>
		</g>
	</g>
	<g id="Ellipse_20_copy_2_5_" class="st0">
		<g>
			<circle class="st20" cx="38.6" cy="28.8" r="0.3"/>
		</g>
	</g>
	<g id="Shape_761_5_" class="st0">
		<g>
			<path class="st21" d="M40.1,28.1c-1.7-0.3-3.4-0.3-4.7,1c0,0,0,0,0,0.1c0.3-0.1,0.6-0.2,0.9-0.3c-0.2,0.2-0.3,0.4-0.5,0.6
				c0,0.5,1.1,0.3,1.1,0.2c-0.1-0.1-0.1-0.2-0.2-0.3c-0.4-0.4,0.8-1,1-1.1c0.2-0.1,2.3,0.3,2.4,0.4c0.2,0.2,0.4,0.4,0.5,0.6
				c0.3,0,0.6,0.1,0.9,0.1C41.7,28.4,40.9,28.2,40.1,28.1z"/>
		</g>
	</g>
	<g id="Shape_766_5_" class="st0">
		<g>
			<path class="st22" d="M40.6,32.5c-0.2-0.5-1.2-0.4-1.6-0.7c-0.8-0.6-0.6-0.8-0.6-1.6c-0.4-0.4-1.3-0.5-1.7-0.4c0,0,0,0,0,0
				c-1,0.3-0.4,1-0.4,1.8c0.1,0.6-0.4,1.6-0.3,2.1c0.1,0.5,0.9,0.8,1.2,1.3c0.3,0.4,0.5,0.8,0.8,1.3c0.3,0.5,0.7,2.3,1.5,2.2
				c1-0.1,0-2.6-0.1-3.1C39.3,34.3,40.8,33.2,40.6,32.5z"/>
		</g>
	</g>
	<g id="Shape_767_5_" class="st0">
		<g>
			<path class="st22" d="M33,42.3c-0.3-0.1-0.5-0.1-0.8-0.2c0,0-0.1,0-0.1-0.1c0,0-0.1,0-0.1,0c0,0-0.1,0-0.1,0c0,0,0,0,0,0
				c-0.4-0.1-0.7-0.3-1.1-0.3c0,0,0,0,0,0c0,0,0,0-0.1,0l0,0c0,0,0,0-0.1,0c-0.7,1.4,1.8,1.1,2.4,1.2c0.5,0,1.6,0.3,2-0.1
				C35,41.9,33.7,42.2,33,42.3z"/>
		</g>
	</g>
	<g id="Shape_771_5_" class="st0">
		<g>
			<path class="st23" d="M37.6,41.1c-0.2-0.1-1.2,0.3-1.9,0.1s-1.6,0-1.9,0.1c-0.3,0.1-0.7,0.4-1.1,0.2c-0.4-0.2-0.6-0.3-1.4-0.2
				s-2.1-0.7-2.1-0.7s-0.3,0.1-0.7,0.2s-0.2,0.3,0,0.3s0.4-0.1,0.7-0.1c0.3,0,0.7,0.4,1,0.5c0.3,0.1,1.2,0.2,1.6,0.2
				c0.4,0,1,0.2,1.2,0.2s1.4,0,1.8-0.1s0.5-0.1,0.9,0c0.4,0.1,0.6,0.3,0.6,0.1s0.8-0.1,1.5-0.4C38.3,41.2,37.8,41.2,37.6,41.1z"/>
		</g>
	</g>
	<g id="Shape_772_5_" class="st0">
		<g>
			<path class="st22" d="M29.1,41.4c0,0-0.1,0-0.1-0.1c0,0,0,0,0,0c-0.4,0.2-1,0.3-1.3,0.7c-0.4,0.6,1,1.8,1.5,1.8c0,0,0,0,0.1,0
				C29.4,43.7,29.1,41.8,29.1,41.4z"/>
		</g>
	</g>
	<g id="Shape_764_5_" class="st0">
		<g>
			<path class="st12" d="M39.2,26.3c-0.8,0.2-1.5,0.4-2.3,0.6c-0.1,0-0.1,0.1-0.2,0.1c0,0,0,0,0,0c0,0,0,0,0,0
				c-0.3,0-0.6,0.2-0.6,0.5c0.5,0.8,3.9-0.5,5.1-0.3c0.1,0,1.7,0.8,1.7,0.2C41.8,27,40.5,26.1,39.2,26.3z"/>
		</g>
	</g>
	<g id="Shape_768_5_" class="st0">
		<g>
			<path class="st24" d="M27.2,41.7C27.2,41.7,27.2,41.7,27.2,41.7C27.2,41.7,27.2,41.7,27.2,41.7C27.2,41.6,27.2,41.6,27.2,41.7
				L27.2,41.7z M38.2,40.7c0,0,0-0.1-0.1-0.1c0,0-0.1,0-0.1,0c-0.5,0.1-0.9,0.6-1.5,0.7c-0.7,0.1-1.3,0-2,0.1
				c-0.6,0.1-1.1,0.3-1.7,0.4c-1.4,0.1-2.8-0.7-4-1.1c-0.4,0.1-0.8,0.2-1.2,0.3l0,0.1c0,0,0.1,0,0.1,0c0,0.2-0.6,0.2-0.6,0.5
				c0.5-0.2,1.1-0.4,1.6-0.6c0.4-0.1,2.3,0.7,2.8,0.8c0.5,0.1,1,0.1,1.5,0.2c1.5,0,2.9-0.3,4.4-0.5c0.4,0,0.7,0.1,1.1,0.1
				c0,0,0,0,0,0C38.6,41.5,38.2,41.2,38.2,40.7z"/>
		</g>
	</g>
	<g id="Shape_769_5_" class="st0">
		<g>
			<path class="st25" d="M43.4,42.9c-0.3,0.3-0.4-0.1-0.7-0.1c0,0.2-2,2.6-2.4,2.2c-0.2-0.2,0-0.5-0.3-0.7c0,0-0.1,0-0.1,0
				c-0.3,0-0.5,1-0.6,1.2c-0.6,1.2-0.5,2.5-1.6,3.3c-2.5,2-5.9,2.1-8.3-0.1c-0.4-0.4-0.8-0.9-1.1-1.3c-0.2-0.4-0.5-0.9-0.7-1.3
				c0,0-0.1,0-0.1,0c0,0.1-0.1,0.1-0.1,0.2c-0.4,0.6-1.2-0.1-1.5-0.4c0,0-1.1-1.5-1.2-1.5c0,0,0.2,0.5,0.2,0.5c0,1,1.9,2,2.1,2.9
				c0.6,2,1.3,3.2,2.6,4.7c0.9,1.1,1.1,2.2,2.7,2.3c0.2,0,0.8-0.2,1-0.2c0.4-0.3,0.9-0.6,1.3-0.9c0.7-0.5,1.7-1.1,2.8-1.7
				c1.6-1.2,2.6-2.1,4.1-3.4c0.7-0.7,1.7-2,2.1-2.9c0.9-1.8,2-3.5,2-5.7C45.6,39.9,43.5,42.8,43.4,42.9z"/>
		</g>
	</g>
	<g id="Shape_770_5_" class="st0">
		<g>
			<path class="st26" d="M32.9,51.2c-0.5-0.4-2.4-1.2-3-1.2c-0.8-0.6-1.7-1.2-2.4-2c0,0,0,0.1,0,0.1c0.2,0.6,0.4,1.2,0.7,1.8
				c0.7,1.5,1.2,2.4,2.9,3c0.5,0.2,1.3,0.5,1.7,0C33.2,52.6,33.4,51.6,32.9,51.2z"/>
		</g>
	</g>
	<g id="Shape_773_5_" class="st0">
		<g>
			<path class="st24" d="M36.9,35.4c-0.3-0.3,0,0.7,0,1.1c0,0.4-0.5,0.6-1.5,0.8c-1,0.2-1.8,1.1-2.3,1.3c-0.5,0.2-1.5-0.2-2.1-0.7
				c-0.6-0.5-0.7-0.5-1.1-0.7c-0.4-0.2-0.7-0.5-0.7-0.5c-0.2,0.5,0.9,0.9,1.3,1.2s1.2,0.8,1.6,0.9c0.5,0.1,1,0.2,1.4,0
				c0.4-0.2,1.2-0.7,1.7-1c0.5-0.3,1.3-0.3,1.6-0.6C37.2,36.9,37.2,35.7,36.9,35.4z"/>
		</g>
	</g>
	<g id="Shape_774_5_" class="st0">
		<g>
			<path class="st27" d="M49.5,19.7c0-1.8-0.6-5.4-1.6-6.8c-1-1.4-3.3-4.4-6.2-5c-2.9-0.6-4-2.2-7.9-1.7c-3.8,0.5-8.1,2.1-9,4.2
				c-2,1.2-4.4,1.7-4.8,6.5c-0.4,4.8,0.2,5.5,0.4,6.9s1.3,5.2,1.3,5.8c0,0,0.6-3.7,0.5-5.7c-0.1-2-0.7-6.4,0.8-8.8
				c1.5-2.3,2.1-4,3.7-3.8s1.4,0.9,4.7,1.4s6.1-0.2,9.8,0.9c3.8,1.1,4.5,2.4,4.6,4.7c0.1,2.3,0.2,6.5,0.3,8.2c0.1,1.7,0.5,3,0.7,3.9
				c0.1,0.9,0.1-3.5,1.8-5.4C50.2,23.4,49.5,21.4,49.5,19.7z"/>
		</g>
	</g>
	<g id="Shape_775_5_" class="st0">
		<g>
			<path class="st28" d="M49.5,25c-0.8,0.8-1.2,1.6-1.6,2.3c-0.4,0.8-0.6,1.4-1.1,1.5c-0.4,0.1-0.4-0.5-0.4-1.6c0-1.1-0.2-2.6,0-3.4
				c0.1-0.8,0.5-7.4-1.4-8.3c0.3,2,0.4,4.4,0.1,6.4c-0.2,1.4-0.8,2.6-0.8,4.1c-0.2,0.6-0.4,1.3-0.6,1.9c-0.4,0-0.8-0.4-1.2-0.4
				c0,0,0,0,0,0c-0.1,0.2,0.2,1.5,0.4,1.6c0.1,0,0.3,0.1,0.4,0.1c0.6-0.3,1.5-2,1.9-2c0.3,0.1,0.3,1,0.3,1.3c0,1.3-0.4,2.6-0.6,3.9
				c-0.1,1,0,2-0.1,3c-0.1,0.7-0.2,1.3-0.3,2c0,0.7,0,1.3,0,2c-0.2,0.8-0.3,1.5-0.5,2.3c-0.1,0.3-0.2,0.5-0.3,0.8
				c-0.9,0.9-1.5,2-2.6,2.9c-0.3,0.3-1.1,0.9-1.1,1.4c1.4,0,3.1-1.9,3.9-2.9c1.3-1.4,2.2-3.4,2.5-5.2c0.2-0.5,0.4-1.3,0.5-1.7
				c0.1-1,0.2-2,0.3-3c0.2-0.9,0.7-1.6,0.7-2.7c0,0,0,0-0.1,0c-0.1,0-0.6,1-0.6,1c0-0.4,0-0.9,0-1.3c0-0.8-0.4-2.1,0.8-2.1
				c0.1,0.1,0.1,0.5,0.3,0.5c0.3-0.6-0.7-1.9,0.4-2.1c0.2-0.2,0.3-0.2,0.3-0.3c0,0,0,0,0,0c0,0,0,0,0,0c0,0.1,0.6,1.7,0.6,1.2
				c0-0.5-0.4-1.3,0-2.2C50.1,25.2,50.3,24.3,49.5,25z"/>
		</g>
	</g>
	<g id="Shape_776_5_" class="st0">
		<g>
			<path class="st29" d="M49.1,28c-0.1,0-0.2,0-0.3,0.1c-0.1,0.2-0.1,0.2-0.1,0.5c0,0,0,0,0,0c0,0,0,0,0.1,0c0,1.1,0.3,1.5-0.2,2.7
				c-0.1,0.1-0.2,0.7,0,0.8h0.1C49.2,31.4,50.1,28.5,49.1,28z"/>
		</g>
	</g>
	<g id="Shape_778_5_" class="st0">
		<g>
			<path class="st30" d="M21.9,23.4c0.1,0.3,0.1,0.6,0.2,0.9C22.1,24,22,23.7,21.9,23.4z M22.1,24.3L22.1,24.3
				C22.1,24.3,22.1,24.3,22.1,24.3L22.1,24.3z M24.2,12.3C24.2,12.3,24.2,12.3,24.2,12.3c0.1-0.2,0.2-0.3,0.3-0.5
				c-0.3,0.1-0.6,0.3-0.9,0.4c-0.7,0.2-1.4,0.4-1.8,1c-0.2,0.4-0.4,0.7-0.6,1.1c0,0.2,0.1,0.4,0.1,0.6c-0.1,0.6-0.6,1.1-0.7,1.7
				c0.1,0.3,0.1,0.6,0.2,0.8c0.1,0,0.2,0,0.3-0.1c-0.1,0.3-0.2,0.6-0.3,0.8c-0.2,0.5-0.4,2.8,0,3c0-0.1,0.1-0.3,0.1-0.4
				c0,0.9,0.7,1.8,1,2.6c-0.1-0.3-0.1-0.7-0.2-1c0-1,0.1-2,0.1-3c0.1-0.7,0.2-1.5,0.3-2.2c-0.1,0-0.1,0.1-0.2,0.1h0
				c0-0.6,0.2-1.2,0.4-1.8c0.1-0.3,0.2-0.5,0.3-0.8h0c-0.2,0-0.4,0.5-0.5,0.6c-0.1-0.1-0.1-0.2-0.2-0.2c-0.1,0,0.3-0.9,0.3-1
				C22.7,13.4,23.5,12.9,24.2,12.3z"/>
		</g>
	</g>
	<g id="Shape_777_5_" class="st0">
		<g>
			<path class="st30" d="M36.4,10.4c-0.7-0.1-1.3-0.1-1.9-0.4c-0.4-0.2-0.8-0.4-1.2-0.5c0.2,0,0.4-0.1,0.5-0.1c0-0.2-2-1.1-2.3-1.1
				c0.1,0,0.2,0,0.3-0.1c0.5-0.1,1,0,1.5-0.3c0.2-0.1,0.5-0.2,0.7-0.4c-0.1-0.1-0.1-0.2-0.2-0.2v0c0.1-0.3,1.3-0.6,1.3-0.6
				c-0.5,0-1,0.1-1.4,0.1c-0.8,0.2-1.6,0.3-2.4,0.5c-0.6,0.1-1.2,0.1-1.7,0.2c0,0,0,0,0,0.1c-0.1,0-0.1,0-0.2,0
				c-0.5,0.4-2,0.7-2,1.5c0.2,0.1,0.5,0.1,0.7,0.2c-0.3,0.4-0.5,0.7-0.8,1.1c0.1,0,0.2,0,0.3,0c0.7,0,1.3,0,2,0c1,0.2,2,0.4,3,0.7
				c1.6,0,3.2-0.4,4.7-0.4v0C37.3,10.4,36.6,10.4,36.4,10.4z"/>
		</g>
	</g>
	<g id="Shape_779_5_" class="st0">
		<g>
			<path class="st28" d="M41.7,29.1c0,0-0.1,0-0.1,0c-0.5,1-1.5,1.1-2.5,1.3c-0.2,0-0.4,0-0.6,0.1c0.8,0.8,2.4,0.1,3.2-0.1
				c0.1-0.1,0.2-0.1,0.2-0.2C42.1,29.8,41.8,28.7,41.7,29.1z"/>
		</g>
	</g>
	<g id="Shape_780_5_" class="st0">
		<g>
			<path class="st31" d="M40.2,40.1C40.2,40.1,40.2,40.1,40.2,40.1L40.2,40.1C40.2,40.1,40.2,40.1,40.2,40.1z M40.2,40.1
				C40.2,40.1,40.2,40.1,40.2,40.1C40.2,40.1,40.2,40.1,40.2,40.1C40.2,40.1,40.2,40.1,40.2,40.1z M40.2,40.1
				C40.2,40.2,40.2,40.2,40.2,40.1L40.2,40.1c-0.1,0-0.1,0-0.1,0c0,0.1,0,0.2,0,0.3c0,0.2,0,0.4,0,0.7c0,0.2-0.7,1.1-0.2,1.2
				C41.3,42.4,40.8,40.7,40.2,40.1z"/>
		</g>
	</g>
	<g id="Shape_781_5_" class="st0">
		<g>
			<path class="st32" d="M42.7,44.8c-0.2,0.2-0.4,0.5-0.6,0.7c-0.4,0.4-0.8,0.9-1.4,0.6c-0.1,0-1.5,2.6-2.1,3.1
				c-2.1,1.8-6.8,1.6-9,0.1c-0.6-0.4-1.8-1.6-1.8-2.3h0c0,0,0,0,0,0c-0.2,0,0,0.7,0,0.8c0.4,0.2,0.9,1.6,1.7,2.1
				c2.3,1.3,5.4,1.9,7.9,0.7c0.7-0.3,1.3-0.6,1.9-1c0.4-0.5,0.9-1,1.3-1.5c0.5-0.5,1.1-1,1.6-1.6c0.6-0.8,1.1-1.6,1.7-2.4
				c0.5-0.8,1.1-1.7,1.2-2.7c0,0,0,0,0,0c0.1-0.4,0.1-0.8,0.2-1.2c-0.2,0.6-0.4,1.2-0.7,1.8C44.5,42.1,42.9,44.8,42.7,44.8z
				 M45.3,40C45.3,40,45.3,40,45.3,40L45.3,40C45.3,40,45.3,40,45.3,40z"/>
		</g>
	</g>
	<g id="Shape_785_5_" class="st0">
		<g>
			<polygon class="st33" points="34.4,54.3 31.1,54.1 25.6,54.9 22.7,73.8 33.4,73.3 39.4,58.7 			"/>
		</g>
	</g>
	<g id="Shape_786_5_" class="st0">
		<g>
			<path class="st34" d="M34,54.5c0,0-2.3-0.5-3.3-0.1c-0.9,0.4-1.5,0.7-1.5,0.7l0.7,4.7l-0.8,2.4c0,0-4.7,5.8-5.2,10.8
				C23.5,78,33.5,73,33.5,73s-0.2-8.1-0.7-10.7c-0.6-2.6,2.3-3.7,3.3-4.5S34,54.5,34,54.5z"/>
		</g>
	</g>
	<g id="Shape_784_5_" class="st0">
		<g>
			<path class="st35" d="M27.6,47.7l-0.7-0.3l-0.4-0.3l-1.6,13.1l5.6-5.6l0.7-0.4c0,0-1.7-1.7-2.6-3.5
				C27.8,48.8,27.6,47.7,27.6,47.7z M45.5,41.4c0,0-2,3.4-3.8,5.8s-8.1,7.2-8.1,7.2c1.2,2.2,5.1,5.2,5.1,5.2s2.3-3.9,2.6-4.9
				c0.4-1.1,4.3-10.1,4.6-12C46.2,40.7,45.5,41.4,45.5,41.4z"/>
		</g>
	</g>
</g>
</svg>
