<?xml version="1.0" encoding="utf-8"?>
<!-- Generator: Adobe Illustrator 19.1.0, SVG Export Plug-In . SVG Version: 6.00 Build 0)  -->
<svg version="1.1" id="Layer_1" xmlns="http://www.w3.org/2000/svg" xmlns:xlink="http://www.w3.org/1999/xlink" x="0px" y="0px"
	 viewBox="0 0 150 150" style="enable-background:new 0 0 150 150;" xml:space="preserve">
<style type="text/css">
	.st0{clip-path:url(#SVGID_3_);}
	.st1{fill-rule:evenodd;clip-rule:evenodd;fill:#2F2C2F;}
	.st2{fill-rule:evenodd;clip-rule:evenodd;fill:#A46C54;}
	.st3{fill-rule:evenodd;clip-rule:evenodd;fill:#7F4931;}
	.st4{fill-rule:evenodd;clip-rule:evenodd;fill:#C5896C;}
	.st5{fill-rule:evenodd;clip-rule:evenodd;fill:#A0694F;}
	.st6{fill-rule:evenodd;clip-rule:evenodd;fill:#D7A987;}
	.st7{fill-rule:evenodd;clip-rule:evenodd;fill:#A27056;}
	.st8{fill-rule:evenodd;clip-rule:evenodd;fill:#7D4935;}
	.st9{fill-rule:evenodd;clip-rule:evenodd;fill:#D5BBB0;}
	.st10{fill-rule:evenodd;clip-rule:evenodd;fill:#29120E;}
	.st11{fill-rule:evenodd;clip-rule:evenodd;fill:#F8E5DE;}
	.st12{opacity:0.3882;clip-path:url(#SVGID_3_);}
	.st13{fill-rule:evenodd;clip-rule:evenodd;fill:#5E3025;}
	.st14{fill-rule:evenodd;clip-rule:evenodd;fill:#AE765A;}
	.st15{fill-rule:evenodd;clip-rule:evenodd;fill:#E7BB9B;}
	.st16{fill-rule:evenodd;clip-rule:evenodd;fill:#DCC3A8;}
	.st17{fill-rule:evenodd;clip-rule:evenodd;fill:#5D3526;}
	.st18{fill-rule:evenodd;clip-rule:evenodd;fill:#361510;}
	.st19{fill-rule:evenodd;clip-rule:evenodd;fill:#5C2B1D;}
	.st20{fill-rule:evenodd;clip-rule:evenodd;fill:#C68668;}
	.st21{fill-rule:evenodd;clip-rule:evenodd;fill:#D7A684;}
	.st22{fill-rule:evenodd;clip-rule:evenodd;fill:#844837;}
	.st23{fill-rule:evenodd;clip-rule:evenodd;fill:#29100E;}
	.st24{fill-rule:evenodd;clip-rule:evenodd;fill:#451712;}
	.st25{fill-rule:evenodd;clip-rule:evenodd;fill:#E6E4E5;}
	.st26{fill-rule:evenodd;clip-rule:evenodd;fill:#CE9173;}
	.st27{fill-rule:evenodd;clip-rule:evenodd;fill:#DEC6C8;}
	.st28{fill-rule:evenodd;clip-rule:evenodd;fill:#D1A285;}
	.st29{fill-rule:evenodd;clip-rule:evenodd;fill:#D49371;}
	.st30{fill-rule:evenodd;clip-rule:evenodd;fill:#8E553C;}
	.st31{fill-rule:evenodd;clip-rule:evenodd;fill:#5F3625;}
	.st32{fill-rule:evenodd;clip-rule:evenodd;fill:#B5876F;}
	.st33{fill-rule:evenodd;clip-rule:evenodd;fill:#22120E;}
	.st34{fill-rule:evenodd;clip-rule:evenodd;fill:#E5E5E6;}
	.st35{fill-rule:evenodd;clip-rule:evenodd;fill:#9B644C;}
	.st36{fill-rule:evenodd;clip-rule:evenodd;fill:#131113;}
	.st37{fill-rule:evenodd;clip-rule:evenodd;fill:#ACB1B1;}
	.st38{fill-rule:evenodd;clip-rule:evenodd;fill:#8E1E2D;}
	.st39{fill-rule:evenodd;clip-rule:evenodd;fill:#DEE3E3;}
	.st40{fill-rule:evenodd;clip-rule:evenodd;fill:#0E0E0F;}
	.st41{fill-rule:evenodd;clip-rule:evenodd;fill:#12131C;}
</style>
<g>
	<defs>
		<circle id="SVGID_1_" cx="75" cy="75" r="75"/>
	</defs>
	<linearGradient id="SVGID_2_" gradientUnits="userSpaceOnUse" x1="75" y1="150" x2="75" y2="0">
		<stop  offset="0" style="stop-color:#212121"/>
		<stop  offset="1" style="stop-color:#EF4438"/>
	</linearGradient>
	<use xlink:href="#SVGID_1_"  style="overflow:visible;fill:url(#SVGID_2_);"/>
	<clipPath id="SVGID_3_">
		<use xlink:href="#SVGID_1_"  style="overflow:visible;"/>
	</clipPath>
	<g id="Shape_622_3_" class="st0">
		<g>
			<path class="st1" d="M111.7,105.9c0,0-1.7,0.2-7-7.3s-6.8-6.8-6.8-6.8s-31,12.7-35,12.5s-2.8,2.8-6.2,4.8S21,124.9,21,124.9
				l-1.5,29.2l58.7,1.7l59.2-1.7v-33.3L111.7,105.9z"/>
		</g>
	</g>
	<g id="Shape_583_3_" class="st0">
		<g>
			<path class="st2" d="M50.3,70.5c-0.5-1.2-6.8-8.3-6.8-8.3s-2.6-3.7-3-0.4c-0.4,3.3,0.3,6.9,1.9,9.2c1.6,2.3,1.8,4.1,2.6,6
				c0.8,1.9,1.2,2.3,1.4,3.2c0.2,0.9,0,5.7,4.7,5C55.7,84.3,50.8,71.7,50.3,70.5z"/>
		</g>
	</g>
	<g id="Shape_582_3_" class="st0">
		<g>
			<path class="st3" d="M107.7,57.8c-2.3,0.3-4.7,4.2-5.1,5.5s-3-8-3.1-12.8c-0.1-4.8,2-13-7.7-11.6S89,35.8,86,34.3
				s-18.9-9.2-26.7-5.6S46,36.4,45.2,42c0,0,0.2,7.3,0.5,10.3c0.3,3,1.2,12.5,1.3,13.7c0.2,1.2,1.7,5.4,1.9,7.6
				c0.2,2.2,0.6,7.6,1.5,10.5s1.2,5.2,4.2,8.4c3,3.2,2.9,2.7,2.9,2.7s2.5,9.2,2.9,10.7c0.4,1.5,1.5,6.9,4.7,10
				c3.1,3.1,7.3,7.8,11.7,3.6s12.8-10.2,15.4-13c2.7-2.7,5.8-9.8,5.7-12.8c-0.1-3-0.2-4.5-0.2-4.5s1.6-3.1,2-4.8
				c0.4-1.7,3-1,4.2-4.1c1.2-3.1,0.4-3,1-3.9s1.1-4.5,2.3-5.8s2.3-6.4,2.3-7.8C109.6,61.3,109.4,57.6,107.7,57.8z"/>
		</g>
	</g>
	<g id="Shape_588_3_" class="st0">
		<g>
			<path class="st4" d="M81.3,91.7c-1.8,0.4-3.8,0.8-5.5,0.6c-1.7-0.2-4.2,0.2-4.5-0.3c-0.2-0.6-2.7-1.2-4.2-2.7
				c-1.6-1.5,13.4-5.5,12.8-7c-0.7-1.5,2.5-4,1.3-4.9c-1.1-0.8-2.8-8.5-4.1-8.2c-1.2,0.3,0.8-1.8,0.7-3.1c1,15,11-10.7,9.4-14.8
				s-7.6-12.9-8.5-14c-0.9-1.1-8.1-2.3-13.1-1.9c2.1-0.2-2.5,0-10.2,1.1c1.5-0.2-8.4,1.7-7.8,10l0.1,0.4c0,0,0.5,4.2,0.5,5.9
				s-0.1,5.8-0.2,7.8c-0.1,2-0.6,4.5-0.1,6.5s0.6,3.3,1.3,5.2c0.8,1.8,0.9,1.6,1.2,3.9c0.3,2.3,0.1,8.2,2,10.6
				c1.9,2.3,2.7,2.2,5,3.9c2.3,1.7,5.2,6.6,6.2,7.4c1.1,0.8,4.4,6.2,12,3.6c3.2-1.3,3.8-4.5,5.7-4.9S83.2,91.3,81.3,91.7z
				 M55.3,36.4c-0.1,0-0.2,0-0.4,0.1C55.1,36.4,55.2,36.4,55.3,36.4z"/>
		</g>
	</g>
	<g id="Shape_586_3_" class="st0">
		<g>
			<path class="st5" d="M95.9,78.8c-0.4-1.2-0.9-0.3-1.5-1.1c-0.6-0.7-0.4-2.6-0.2-4.3c0.2-1.7,0.1-2.2,1-4.3
				c0.9-2.1,0.8-3.4,0.4-5.4c-0.4-2-0.3-2.5-1.7-2.7c-1.3-0.2-3.5-0.8-2.4-0.8c1.1,0,3.8-0.3,2.5-0.4c-1.3-0.1-2.2-0.4-2.2-0.4
				s1.3,0.1,2.2-0.4c0.8-0.5-0.4-1.4-2.2-2.4c-1.8-1-1.8-2-1-2s1-0.4,1.2-1.2s-0.3-2.2-1.2-5.1c-0.8-2.8-1.7-5.4-7.3-9.2
				c-5.7-3.8-16.4-4-16.4-4c-2,0.1,5.4,3.4,7.8,4.3c2.4,1,6.9,7.4,8.3,8.8s1.7,4.8,0.7,4.3c-1-0.5-3.6,0.5-4.8,0.9
				c-1.2,0.5-3,1.3-3.8,2.1c-0.8,0.8-1.1,2.2-1.1,3.5c0,1.3-0.2,2.1-0.2,3.2c-0.1,1.1-0.2,2.8,0.2,4.2c0.3,1.4,0.6,2.8,1.2,3.7
				c0.7,0.8,0.6,1.3,0.8,2.2c0.2,0.9,0.1,2-0.8,2.1s-0.9,0.5-2,1.5c-1.1,1-2.4,0.4-1.8,1.2c0.6,0.8,2.7,1.7,3.7,1.5
				c1-0.2,1.6,1.3,2.2,2.2s0.7,1.4,1.5,1.6c0.8,0.2,2.8,1.5,2.9,2.2s-1.3,4.5-2.6,5.6c-1.2,1.1-4.5,1.6-6.6,1.9s-1.7,0.7-0.2,0.7
				s5.7,0.3,7.8,0s0.9,1.5,0.2,2.8c-0.8,1.3-1.5,2.1-2.2,3.7c-0.8,1.6-2.7,2-4.7,2.2c-1.9,0.2-4.4-0.1-6-1.1s-3.1-3-5.1-5.4
				c-2-2.4-2.8-5.8-3.7-7.5c-0.8-1.7-2-5-2.9-6.2c-0.9-1.2-1.6-0.5-0.9,0.2c0.6,0.6,2.3,5.4,3.2,7.2c1,1.8,0.2,1.5-1.6,0.8
				c-1.8-0.7-5-4.2-4.8-3.6s-0.2,0.9,0.4,2.4c0.6,1.6,1.9,3,3.1,4c1.2,1,5.3,3.7,6.4,4.6s3.8,2.4,4.7,3.4c1,1,2.2,1.3,4.2,1.8
				c2,0.5,5.3,0,7-0.5c1.7-0.5,2.3-1,4.5-1.2c2.2-0.3,2.6-2.6,3.8-3.9s2.8-4.9,3.3-6c0.6-1.1,2-4.2,2.3-5.7c0.3-1.4,0.6-4,0.5-5.2
				c-0.1-1.2-0.6-2.8-0.1-2.7s0.7,1.2,0.9,2.1c0.2,0.9-0.2,5.1-0.6,6.8c-0.4,1.7-1,2.9-1.2,4.4s3.8-5.2,4.5-6.5
				C96.2,82.7,96.3,80,95.9,78.8z"/>
		</g>
	</g>
	<g id="Shape_587_3_" class="st0">
		<g>
			<path class="st6" d="M77.7,48c-1.5-0.8-2.9,0.1-3.4-2c-0.5-2.1,0.3-4.8-0.2-6.2s-0.2-1.1-2-2.2c-1.8-1.2-6-3-6.4-2.4
				c0,0-5.9-0.3-9.2,1.8s-5.1,3.8-5.8,4.9s-1.1,3-0.2,5.7c1,2.6,1,3,0.8,4.2c-0.2,1.1-0.9,3.1,1,3.4c1.9,0.4,3.1-0.4,5.1-0.9
				s4.2-2,6.3-1.5c2.1,0.5,3.8,1.2,5.1,1.9c1.2,0.8,1.9,0.7,1.8,2s-0.5,1.7-0.9,3.2c-0.5,1.6-0.5,2-1.4,2.9
				c-0.9,0.9-1.3,0.4-2.8,1.1c-1.5,0.7-4,0-5.4,0.1c-1.4,0.1-2.6-0.7-3.5-1.1s-2-0.8-2.9-0.3c-0.9,0.4-1.9,0.3-2.4-0.2
				c-0.6-0.5-1.3-2.3-1.5-3.2s-0.6,1-0.4,2.6c0.2,1.5,0.9,2.6,1.2,4.1c0.4,1.5-0.1,2.3,0.3,4.2s0.4,3.2,1.7,4.4c1.3,1.3,1,1,2.3,1.8
				c1.3,0.8,2.3-0.1,2.4,1.1c0.1,1.2,0.5,1.5,1.5,0.7c1-0.7,1.3-1.2,1.2,0.2c-0.1,1.3-0.1,2.8,1.2,2.6c1.4-0.2,2.9-1,4-0.9
				c1.1,0.1,2.3-0.5,2.9,0.7c0.6,1.2-0.3,1.7,0.9,1.7c1.2,0.1,2.1,0.2,3.2,0.3c1.1,0.2,1.9-0.1,2.3-0.8c0.4-0.7,0.6-2.3-0.1-2.7
				c-0.7-0.4-2.2-1-3.1-1.5c-0.9-0.5-0.7-1.3-1.4-1.1s-0.8-1.7-1.8-1.2s0.5,1.1,0,1.2s-1.7-0.5-2-1.5c-0.3-1,0.5-1.9,2-1.2
				c1.5,0.7,1.5,1.4,2.8,1s2.7-0.8,3.5-1.3c0.8-0.6,1.2-1.7,0.5-2c-0.7-0.3-1.2-1.5-1.5-2.9S73,64.5,73,63.3c0-1.2,0.9-1.5,0.3-2.7
				c-0.6-1.2-0.7-2.9-0.8-4c0-1.1-0.7-3,0.2-3.2c1-0.2,1.5,0,3-0.1c1.5,0,3.3-1.2,3.4-2.1C79.4,50.4,79.3,48.8,77.7,48z"/>
		</g>
	</g>
	<g id="Shape_589_3_" class="st0">
		<g>
			<path class="st7" d="M68.7,55.2c-0.8-0.7-4-1.6-5.2-1.9c-1.2-0.3-4.5,1.1-5.9,1.8S52.4,57,52.4,57c-3.2,3.7,3.3,0.2,4.3-0.2
				c1-0.3-0.5,0.8-0.8,1.3s-0.6,1.1-1.1,2.2c-0.5,1,1.5-0.7,0.9,0.6s1.7,0.5,2.4,0s2.8,0.2,3.6,0.3c0.8,0.1,0.8,0.7,1.8,0.7
				c1,0,1.1-0.1,0.5,0.5c-0.6,0.6-2.8,1.5-2.1,1.5c0.8,0,2.3-0.5,3.2-0.8c1-0.4,1.9-0.9,1.7-1.3s-1,0.2-0.4-0.3
				c0.6-0.6,0.2-0.5,1.2-0.9s-0.5-1.5,0.7-1.4c1.2,0.1,0.8-0.5,1.2-1.5C69.8,56.6,69.5,55.9,68.7,55.2z"/>
		</g>
	</g>
	<g id="Shape_592_3_" class="st0">
		<g>
			<path class="st8" d="M68.1,55.8c-0.7-0.8-1.4-1.2-2.6-1.6c-1.2-0.3-3.6-0.7-4.7,0.1c-1.1,0.7-1.8,0.8-2.1,1.7
				c-0.3,0.8-0.6,1-1.2,1.5c-0.7,0.5-1.8,1.1-2.3,3c0,0,2.2-2.4,3.7-2.9c1.4-0.5,2.8-0.9,2.8-0.9s0.1,0.6-0.7,1.2
				c-0.8,0.6-2.8,0.9-4.1,2c-1.3,1.1-1.5,1.2-0.4,1.6s1.4-0.7,2-0.7c0.6,0.1,4.2-1,4.2-0.2s0.9,1.3,2.5,0.7c1.6-0.6,3.1-0.9,3-2
				c-0.1-1.1,0-1.4-0.6-1.8c-0.6-0.4,0.8,0.3,1.2,0.2C69.2,57.6,68.7,56.7,68.1,55.8z"/>
		</g>
	</g>
	<g id="Shape_591_3_" class="st0">
		<g>
			<path class="st9" d="M65.4,59.7c-0.4-0.3-0.1-0.9-1.8-1.1c-1.8-0.2-3.6,0.4-3.9,0.7c0,0-1.8,0.3-1.2,0.8s3.8,0.4,4.8,0.2
				C64.3,60.1,65.8,60,65.4,59.7z"/>
		</g>
	</g>
	<g id="Shape_590_3_" class="st0">
		<g>
			<path class="st10" d="M63.7,58c-1.9-0.2-2.5,0-3.8,0.4c-1.3,0.4-2.1,1.2-2.5,1.3s-1.6,1-2,1.3c0,0,1.8-0.2,2.4-0.7
				c0.7-0.6,1.1-0.8,1.6-1c0,0.9,0.5,1.2,0.5,1.2s2.4,0.2,3.5-0.2c0.4-0.8,0.4-1.7,0.4-1.7l1.8,0.5C65.7,59.1,65.6,58.3,63.7,58z"/>
		</g>
	</g>
	<g id="Ellipse_12_3_" class="st0">
		<g>
			<ellipse class="st11" cx="61.1" cy="59.2" rx="0.4" ry="0.5"/>
		</g>
	</g>
	<g id="Shape_593_3_" class="st12">
		<g>
			<path class="st13" d="M66.6,56.4c-0.7-0.4-0.6-0.7-0.4-1.2s-1.3-1.2-2.4-1.2c-1.1-0.1-4.1,0.9-2.7,1.4c1.3,0.5,1.8,0.4,1.9,0.4
				c-0.1,0-1.2,0.2-1.9,0.4c-0.8,0.2-3.1,0.7-4.5,2.1c-1.4,1.4-1.2,1.7-0.8,1.3l2.2-1.7c0,0,2.7-1.4,3.6-1.3c0.9,0,2.8,0.2,3.5,0.3
				C65.9,57,67.2,56.8,66.6,56.4z"/>
		</g>
	</g>
	<g id="Shape_594_3_" class="st0">
		<g>
			<path class="st14" d="M55.5,61.4c0,0-1.5,1.2-2.7,1.6s-1.6,1.3-0.8,1.1C52.8,63.9,56.1,61.6,55.5,61.4z"/>
		</g>
	</g>
	<g id="Shape_594_copy_3_" class="st0">
		<g>
			<path class="st14" d="M55.4,61.1c0,0-1.7,0.8-3,0.8c-1.2,0-1.9,0.8-1.1,0.8C52.1,62.8,55.9,61.5,55.4,61.1z"/>
		</g>
	</g>
	<g id="Shape_594_copy_2_3_" class="st0">
		<g>
			<path class="st14" d="M55.1,60.8c0,0-1.9,0.4-3.1,0.1c-1.2-0.3-2,0.3-1.3,0.5C51.5,61.6,55.6,61.2,55.1,60.8z"/>
		</g>
	</g>
	<g id="Shape_595_3_" class="st0">
		<g>
			<path class="st15" d="M70.3,52.8c-0.3-1.1,0-3.2-3.1-4.7c-3.1-1.5-8.8-0.5-11.1,0.6c-2.2,1.1-2.7,5.7-2.7,5.7
				c-1.3,1.4,3.4-0.7,6-1.2c2.6-0.5,5.3-0.7,7.7,0.1C69.7,54.1,70.7,53.8,70.3,52.8z"/>
		</g>
	</g>
	<g id="Shape_596_3_" class="st0">
		<g>
			<path class="st16" d="M71.9,68.5c0-0.8-0.8-1.8-0.9-0.8c0,0-1,2-0.9,3.4c0.1,1.4,0.3,3,1.2,2C72.2,72.1,71.9,69.3,71.9,68.5z"/>
		</g>
	</g>
	<g id="Shape_597_3_" class="st0">
		<g>
			<path class="st16" d="M60.6,69.9c-1.2,0.2-3.7-0.7-3.7-0.7c-1.6-0.2,0.2,3,2.1,2.9C60.8,72,61.7,69.7,60.6,69.9z"/>
		</g>
	</g>
	<g id="Shape_598_3_" class="st0">
		<g>
			<path class="st3" d="M94.9,59.3c-1,0.5-2.7,0.8-3.2,0.4c-0.5-0.4,2.5-0.1,2.8-0.9c0.3-0.8,0.7-0.6-1.2-0.1
				c-1.9,0.5-1.7,0.1-2.1-0.2c-0.3-0.3-1.9-1.9-3-2.2c-1.1-0.2-3.9-0.7-4.1-0.7c0,0,0,0,0,0c0.1,0.1,2.6,1,1.4,1.2
				c-1.3,0.2-4.3,0.7-5.2,1.2c-1,0.5-0.8-1.5,2.8-2.2c0.5-0.1,0.8-0.2,1.1-0.2c0,0,0,0,0,0s0,0,0,0c1.7-0.5-0.5-0.7-0.9-0.8
				c-0.4-0.2,1.9-0.6,3.8-0.2c1.9,0.4,3.1,0.8,3.1,0.8S90,54.7,88.3,54s-3.9-1.5-5.2-1.3s-3,1.2-4.1,1.7c-1.1,0.5-3,0.7-3.4,2.1
				c0,0-1,3.3-0.6,5.5c0.4,2.2-0.6,2.9,0.1,4.8s1.7,3.7,1.8,4.7c0.1,0.9,0.7,1.6-0.1,2.3s-2.1,1.7-2.3,2.2s-1.3,0.8-1.9,1
				c-0.6,0.2-0.2,1.4,2,1.2s3.2-1.1,4.5-1.6c1.3-0.5,3.1-1.5,2.8-2.3s-0.8-2.5-1.6-3c-0.8-0.5-0.9-1.8-1.1-2.5
				c-0.2-0.7-0.9-2.7-1.1-3.7C78,64,78.6,64,78.5,63.3c-0.1-0.7-1-2.6-0.2-3c0.8-0.4,1.9-0.3,3-0.3c1.1,0,6-0.7,6.6,0.1
				c0.6,0.8,1.1,1,2.6,1.2s0-1.4,1.5-0.9c1.5,0.5,1.5,0.3,2.5,0.7S95.9,58.8,94.9,59.3z"/>
		</g>
	</g>
	<g id="Shape_591_copy_3_" class="st0">
		<g>
			<path class="st9" d="M88.1,59.5c-0.5-0.5,0-1.3-2.2-1.6c-2.2-0.4-4.6,0.3-5,0.6c0,0-2.3,0.3-1.6,1s4.2,0.4,5.9,0.3
				C86.5,59.8,88.5,60,88.1,59.5z"/>
		</g>
	</g>
	<g id="Shape_599_3_" class="st0">
		<g>
			<path class="st17" d="M89.5,57.4c-1-0.3-0.6,0-0.1,0.5c0.5,0.5,0.9,1.1,0.4,1c-0.5-0.1-1.6-0.7-2.3-1c-0.7-0.2-1.8-0.7-2.8-0.7
				s-2.7,0.1-3.8,0.7c-1.1,0.6-2.9,1.3-2.3,0.3c0.5-1,1.2-1.4,2.1-1.7s2.2-1,2.2-1s-3.5,0.5-4.2,0.8C78,56.6,77,56.5,77.4,56
				c0.4-0.5-0.8-0.2-1.4,0.9c-0.7,1.1-0.1,4.1,0.4,4.8s1.7,1.3,1.4,0.5s-1-1.9-0.2-2s1.8-0.2,2.4-0.2c0.7,0-0.1-0.3-0.4-0.6
				s0.5-0.6,1.2-0.8c0.7-0.2,2.8-0.9,3.6-0.7s3,0.8,3,0.8s0.7,0.2,0.6,0.6s-0.2,0.4-0.6,0.6s0,0.1,0.5,0.3s0,0.9,1.1,0.9
				c1.1,0,2.1-0.7,2.1-1.4S90.5,57.8,89.5,57.4z"/>
		</g>
	</g>
	<g id="Shape_600_3_" class="st0">
		<g>
			<path class="st18" d="M68.6,75.1c-0.8-0.2-1.4,0.3-1.4,0.3c-0.4,0.3,1.3,0.4,1.9,0.2C69.7,75.5,69.4,75.3,68.6,75.1z"/>
		</g>
	</g>
	<g id="Shape_602_3_" class="st0">
		<g>
			<path class="st19" d="M80.8,73.8c0,0.3-0.4,1.1-1.2,1.7S78,76,78.4,75.7c0.5-0.3,0-0.3-0.2-0.6s-1.5,0-2.2,0
				c-0.7,0-1.1,0.7-1.9,1.2c-0.8,0.5-1.1,0.9-0.7,1.2s3.6-0.5,4.2-0.7s3-1.1,3.7-1.7C82,74.4,80.8,73.8,80.8,73.8z"/>
		</g>
	</g>
	<g id="Shape_601_3_" class="st0">
		<g>
			<path class="st18" d="M76.6,75c-0.9,0-1.4,0.9-1.4,0.9c-0.4,0.3,2.1-0.2,2.6-0.5C78.3,75.1,77.4,75,76.6,75z"/>
		</g>
	</g>
	<g id="Shape_585_3_" class="st0">
		<g>
			<path class="st20" d="M92.3,66.2c-0.8-1.2-2.4-3.2-4.7-3.1c-2.2,0.2,0.8-0.7,1.5-0.9s-0.3-0.2-2,0s-3.2-0.2-1.4-0.6
				c1.8-0.3,0.7-0.7-0.1-1s-5.5-0.7-6.9-0.2c0,0,0.3,0.9,0.3,1.6c0,0.7,0.2,1.5,0.2,2.7c-0.1,1.2,0.8,3.1,0.8,4.2
				c0.1,1.1,0.5,2.9,1.3,3.4c0.8,0.5,1.2,2.1,1,3.2s-1.7,0.7,0.5,1.7c2.2,1,2.3,1.5,3.2,1.5c0.8,0,3,1.6,2.9,0.3
				c-0.1-1.2,0.3-2.5,1.4-1.8c1.1,0.7,0-1.2,1-1.2c1,0.1,1.6-1,1.8-2.3C93.5,72.4,93.1,67.4,92.3,66.2z"/>
		</g>
	</g>
	<g id="Shape_584_3_" class="st0">
		<g>
			<path class="st21" d="M90,69.7c-0.5-1.6-0.2-3.7-2.1-4.5c-1.8-0.8-7.1-3.1-6.9-2c0,0,0.3,1.6,0.1,3.2s1.7,6.7,2.9,7.7
				s2.3,1.6,5.1-0.2C91.8,72.2,90.5,71.3,90,69.7z"/>
		</g>
	</g>
	<g id="Shape_603_3_" class="st0">
		<g>
			<path class="st22" d="M85.2,80.8C84,81.1,80,82,78.7,81.7c-1.2-0.3-2.1,0.2-3.4,0.7c-1.3,0.5-2.8,0.7-4.1,0.3
				c-1.3-0.3-2.4-0.1-3.7,0.2s-4.4,0.5-4.4,0.5c-3.7-2-1.8,0.5-1.8,1s2.2,0.7,2.8,1c0.6,0.2,0.4,3,4.1,4.7c5.7,2.6,9.8,0.1,11.2-0.5
				c1.4-0.6,1.5-0.7,2.7-2s2-2.5,2.5-3.5c0.5-1,2.2-2,2.7-2.6C87.8,81,86.3,80.4,85.2,80.8z"/>
		</g>
	</g>
	<g id="Shape_607_3_" class="st0">
		<g>
			<path class="st5" d="M79.6,88.7c0-0.4,2.1-2.3,2.2-3.3c0.2-1-1.5-0.4-2.3-0.3c-0.8,0-0.4-0.6-1.2-0.7c-0.9,0,0.5-0.7-0.2-1.2
				s-0.3-1.2-0.3-1.2c-0.5,0-3.6,1-4.2,1.2S71.7,83,70.2,83c-1.5,0-0.8,2-0.2,2.2c0.5,0.3-2.4,0.7-2,1c0.4,0.3,1,1-0.7,0.4
				c-1.7-0.5-0.1,1.4,1,2.2c1.1,0.8-2.4-0.3,0.7,1.4c3.1,1.7,9.5,0.5,10.2,0.1s1.2-1.2,1-1.2S79.5,89,79.6,88.7z"/>
		</g>
	</g>
	<g id="Shape_605_3_" class="st0">
		<g>
			<path class="st23" d="M81.2,84.2C81.2,84.2,81.2,84.2,81.2,84.2C81.1,84.2,81.1,84.2,81.2,84.2z M85.6,81.6
				c-0.4,0-1.4,0.5-2.2,0.7s-1,0.5-1.3,0.9c-0.4,0.4-0.8,1-0.8,1c0.3-0.1,4-1.4,4.4-1.7C86,82,86,81.6,85.6,81.6z"/>
		</g>
	</g>
	<g id="Shape_606_3_" class="st0">
		<g>
			<path class="st24" d="M65.7,85c-0.2-0.3-0.4-0.9-0.4-0.9s-0.8-0.2-1.7-0.3c-0.9-0.1-1.1,0.1-1.1,0.1c-0.6,0.7,0.8,0.4,1.2,0.2
				c0.5-0.1,0.9,0.2,1.2,0.4C65.2,84.8,66,85.3,65.7,85z"/>
		</g>
	</g>
	<g id="Shape_604_3_" class="st0">
		<g>
			<path class="st25" d="M79.5,84.3c-0.2-0.3-3.7,1.2-6,1.6c-2.3,0.3-7.6-1.5-7.6-1.5c-0.3,1.5,4.8,3.2,7.1,3c2.3-0.2,5.6-1.7,6-2.1
				C79.4,85,79.7,84.7,79.5,84.3z"/>
		</g>
	</g>
	<g id="Shape_608_3_" class="st0">
		<g>
			<path class="st26" d="M75.2,87c0,0-3.6,0.3-4,0.2c-0.4-0.2-0.9-0.1-1.5,0.1c-1.1,0.3-1.6,0.1-1.2,1c0.4,0.9,0.5,1.1,1.6,2
				c1.1,0.9-3.8-1.2-2.2,0.5c1.6,1.7,6.4,1,6.8,0.8s0.3-0.3,0.8-1.2c0.5-0.9,0.9-0.5,0.9-1.9S75.2,87,75.2,87z"/>
		</g>
	</g>
	<g id="Ellipse_13_3_" class="st0">
		<g>
			<ellipse class="st27" cx="71.5" cy="87.8" rx="0.9" ry="0.4"/>
		</g>
	</g>
	<g id="Shape_609_3_" class="st0">
		<g>
			<path class="st28" d="M72.7,97.8c-0.2-2-2.1-3.5-3-3.8c-0.9-0.3-1.7-1.3-2.4-2.7c-0.8-1.4,0.4-0.8-0.1-1.3
				c-0.5-0.5-1.5-1.1-2.1-2.2s-2.1-2-2.1-2c-3.2-2.3-0.7,3.5,0,4.8c0.7,1.3,2.5,2.2,3.1,3.5s-3.6-0.4-3.1,0.7c0.5,1.1,1.2,2,2.9,4.2
				c1.7,2.2,5.5,2.3,6.4,1.9C73.3,100.5,72.8,99.7,72.7,97.8z"/>
		</g>
	</g>
	<g id="Shape_610_3_" class="st0">
		<g>
			<path class="st29" d="M64.6,72.1c-0.5-0.4-2.9,2.7-2.9,2.7c-1.6,1.1,0,1.3,1.8-0.3C65.2,72.8,65.1,72.5,64.6,72.1z"/>
		</g>
	</g>
	<g id="Shape_611_3_" class="st0">
		<g>
			<path class="st22" d="M56.9,80.3c0.2,1.5,1.4,3.5,1.5,2.1c0.1-1.5,0.3-3.3,1.4-5C59.8,77.4,56.7,78.8,56.9,80.3z"/>
		</g>
	</g>
	<g id="Shape_613_3_" class="st0">
		<g>
			<path class="st30" d="M77.7,107.3c-3.8,0-9-1.9-9-1.9c2.7,5.6,7.7,6.9,10.6,5.9C82.2,110.3,81.6,107.3,77.7,107.3z"/>
		</g>
	</g>
	<g id="Shape_612_3_" class="st0">
		<g>
			<path class="st31" d="M100.7,74.6c-0.3-1.4,0.1-5.5-0.3-7.3c-0.4-1.9-1-6-1.5-8.1c-0.5-2.1,0-4.3-0.3-5.9
				c-0.3-1.6-0.6-6.6-0.5-7.9c0.1-1.4,0.6-3.1,0.1-4.7c-0.5-1.5-6.3-1.4-7-0.2c-0.7,1.2-1,2.3,1.2,3.3c2.2,1,2,2.9,2,4.2
				c0,1.4-1.1,3.3-0.7,6.9s2.3,6.7,3.7,9.7c1.3,3,1,6.2,0.1,9s-0.4,3.8,0,6.4c0.4,2.6-3.2,8.9-4.2,10.3c-1.1,1.5-2.4,4.4-2.8,2.8
				c-0.4-1.6,3-9.8,3-12.3c0.1-2.5-0.2-3.3-1.1-4.1s0.1,1.2,0.3,3c0.2,1.7-2.2,10.7-3.2,12.5c-1,1.7-2.5,5.6-4,7.6
				c-1.5,2-5.5,3.2-11.8,3.7c-6.2,0.6-8-3.1-9.6-4.7c-1.5-1.6-5.7-4.2-5.7-4.2c-3.3-1.7,4.8,4.3,6.2,5.8c1.4,1.6,3.6,3.2,5.6,3.8
				c2,0.7,5.2,1.2,6.3,1c1.2-0.2,7.4,0.2,9.2-0.2s5.2-0.9,6.2-1.5c1.1-0.6,0,3.5,0.6,2.4s3-2.9,4.3-5.5s0.9-5.1,1.2-7.2
				s-0.5-3.1-0.5-3.9c0-0.8,1-1.3,1.7-2.6c0.6-1.2,1-3.8,1.3-5.4C100.7,80,101,76,100.7,74.6z"/>
		</g>
	</g>
	<g id="Shape_615_3_" class="st0">
		<g>
			<path class="st32" d="M91.3,78.9c0.1-1.1-1.6,2.4-3.2,4.2c-1.7,1.7,0.9,1.1,0.8,1.8s-1.7,4.7-2.5,6.7s1.7,0,3.4-3.2
				C91.6,85.1,91.3,78.9,91.3,78.9z"/>
		</g>
	</g>
	<g id="Shape_616_3_" class="st0">
		<g>
			<path class="st33" d="M87.3,57.9c-1.2-0.4-2-0.8-3.2-0.7c-1.3,0.2-4,0.8-4.6,1.3c0,0,1.5-0.1,2.5-0.5c0.1,1.3,0.5,1.8,0.5,1.8
				s1,0.1,2,0c0.9,0,1.8-0.1,1.8-0.1s0.4-1.2,0.4-1.4c0-0.2,1.9,0.5,2.5,0.7C89.8,59.4,88.5,58.3,87.3,57.9z"/>
		</g>
	</g>
	<g id="Ellipse_14_3_" class="st0">
		<g>
			<ellipse class="st34" cx="83.6" cy="58.3" rx="0.5" ry="0.6"/>
		</g>
	</g>
	<g id="Shape_618_3_" class="st0">
		<g>
			<path class="st35" d="M107.2,58.7c0,0-2.4,1.5-2.8,2.8c-0.4,1.3,0.2,2.6-0.4,3.2c-0.7,0.7-0.3,0.7,0.1,2s0.8,0.4,1.2,1.4
				c0.4,1,0.3,3.6-0.2,4.5c-0.5,0.9-1.8,0.7-1.9,1.5c-0.1,0.8-0.2,1.3,0.8,0.8c1-0.5,2.3-2.9,2.4-3.7c0.1-0.7,0.6-3.2,0.3-3.8
				c-0.3-0.7-0.2-0.8-0.3-1.7c-0.1-0.9,0.4-0.1,0.8-1s0.6-2.3,0.7-3.1c0-0.7-0.2-1.3,0.2-2C108.3,59.1,107.8,58.4,107.2,58.7z
				 M103.7,77.4c-0.7-0.4-2-0.5-2.2,0.1c0,0,0.1,1.2-0.3,2.2c-0.4,1-1.3,2.8-0.2,2.7c1-0.2,2.3-1.1,2.8-2.1
				C104.2,79.3,104.3,77.8,103.7,77.4z"/>
		</g>
	</g>
	<g id="Shape_619_3_" class="st0">
		<g>
			<path class="st31" d="M105,69.1c-0.5-0.9-0.6,0.4-1.4-0.3c-0.8-0.7,0-1.4-0.4-2.2s-0.2-1.8-0.1-2.7c0.1-1,2.1-3.8,2.1-3.8
				l-2.5,0.7l-3.2,4.1l-0.3,2.8l-0.8,3.7l0.2,4.4c0,0,1.4-0.4,1.8-0.2c0.4,0.2,1-0.2,1.3-0.5c0.3-0.3-0.1-0.7,0.8-1
				c0.8-0.3,1.6-0.8,2-1.3C104.9,72.1,105.5,70,105,69.1z"/>
		</g>
	</g>
	<g id="Shape_614_3_" class="st0">
		<g>
			<path class="st36" d="M107.6,52.3c-0.4-1.5-0.4-8.8-1.3-11c-0.9-2.2,0.4-5.3-0.6-6.3c-1-1-3.5-5.5-4.4-7.2
				c-0.9-1.7-8.4-12-13.9-13.4c-5.5-1.4-15.2-3.7-20.3-0.6c-5.2,3.2-12.2,2-15.6,5.6s-6.1,7.1-7.3,10.4c-1.2,3.3-4.6,7.3-4.7,11
				c-0.1,3.7-0.2,6.2,0.6,9.5c0.8,3.3,1.3,6,1.6,8.7c0.2,2.7,0.2,1.5,0.2,1.5s1.4,3,2.7,4.2s1.8,4.7,2.4,6c0.7,1.3,2.4,3.2,2.4,3.2
				s-0.8-2.9-0.9-5.8c-0.2-2.9-0.2-5.7-0.5-7.4c-0.3-1.7-1.3-10.8-1.4-14.1s1.8-7.7,4.6-9.7c2.8-1.9,5.7-5.1,10.3-4.7
				C66,32.6,69,33.3,75,33.8c6,0.6,13.2,7.4,16.4,8c3.2,0.6,4.2-2.4,5.7-0.2c1.4,2.2,0.2,5.2,0.9,8.3c0.7,3.1-0.3,6.1,0.4,8.9
				s0.9,12,2.2,10.7s1.8-1.7,2.1-4.2c0.3-2.4,3.8-8.1,5.5-7.5C109.8,58.6,108,53.8,107.6,52.3z"/>
		</g>
	</g>
	<g id="Shape_620_3_" class="st0">
		<g>
			<path class="st1" d="M85.6,14.3c-8.1-2.7-12.1-3.8-17.9-0.7c-5.8,3.1-4.3,6.8-7.2,8.1c4.3-0.5,8.2-2.2,6.2-0.8
				c-2,1.4-5.5,3.8-6.5,4.6c-1,0.8,4.6-0.8,6.2-1.9s-3.6,4.2-3.6,4.2s7.5-3.8,11.2-3.3c3.7,0.5,1.3-3,5.2-3s-2.2-3.1,5.2-0.6
				c7.3,2.5-0.8-4.2-0.8-4.2l8.1,2.8C91.7,19.5,93.7,17,85.6,14.3z"/>
		</g>
	</g>
	<g id="Shape_621_3_" class="st0">
		<g>
			<path class="st1" d="M58.3,20.4h-2.8l3.1-2.8l-4.8,1.1c0,0-5.5,3-9.5,11.2s-2.9,6.7-2.9,6.7s2.1-2.1,3.6-3.7
				c1.5-1.6,3.2-2.7,3.2-2.7L46.1,35l2.3-1.7l-0.2,2.5l2-0.2c0,0,3.4-3.8,3.8-4.8c0.4-1.1,1.2-3.4,1.2-3.4l-3.2,2l2.8-4.3L58.3,20.4
				z"/>
		</g>
	</g>
	<g id="Shape_626_3_" class="st0">
		<g>
			<path class="st37" d="M75.8,120.8l-6.2-0.6c0,0-8.1-10.5-8.9-7.7c0,0-0.5,21.8-1.1,26.2c-0.6,4.5-1.1,12.3-1.1,12.3l20.5-0.8
				l7.8-19.4L75.8,120.8z"/>
		</g>
	</g>
	<g id="Shape_625_3_" class="st0">
		<g>
			<path class="st38" d="M78.4,133.2c0.7-1.2,1.2-1.8,1.2-1.8l-5.3-8.4l-6.1-0.2l-2.5,3.7l1.3,11.2c0,0-0.6,1.4-2.2,3.7
				c-1.7,2.4-6.7,16.6-6.7,16.6l20.8-0.2c0,0,0.7-11.5-0.9-14.9S77.3,134.1,78.4,133.2z"/>
		</g>
	</g>
	<g id="Shape_623_3_" class="st0">
		<g>
			<path class="st39" d="M97.8,93.4c-0.2,3.7-6.5,14.3-12.5,18.7c-5.6,4-12.2,10.5-12.2,10.5l10.5,15c0,0,14.3-30,15.7-35.8
				C100.7,95.9,97.8,93.4,97.8,93.4z"/>
		</g>
	</g>
	<g id="Shape_624_3_" class="st0">
		<g>
			<path class="st39" d="M62.2,110.4l-1.5-4.2c-0.3,2,0,14.2,0.3,16.3c0.3,2.2,0.5,13.7,0.5,13.7l4.2-8.7c0,0,2-4.3,3.8-7
				C66.3,118.6,62.2,110.4,62.2,110.4z"/>
		</g>
	</g>
	<g id="Shape_627_3_" class="st0">
		<g>
			<path class="st40" d="M112.4,108.7c0,0-0.1,6-1.2,10.7c-1.1,4.7-4.3,24.4-4.3,24.4L96,149.4l3.5,0.2l9-5.5c0,0,4.7-30.6,4.6-32.6
				C113,109.5,112.4,108.7,112.4,108.7z"/>
		</g>
	</g>
	<g id="Shape_628_3_" class="st0">
		<g>
			<path class="st41" d="M44.1,131.3c0,0,11.8-16.6,13.4-19.8c-2.2,3-14.4,19.2-14.4,19.2l1.7,6.3l-4.8,5.7l2.8,7.3l0.6-1.1
				l-2.2-6.2l4.8-5.3L44.1,131.3z"/>
		</g>
	</g>
</g>
</svg>
