<?xml version="1.0" encoding="utf-8"?>
<!-- Generator: Adobe Illustrator 19.1.0, SVG Export Plug-In . SVG Version: 6.00 Build 0)  -->
<svg version="1.1" id="Layer_1" xmlns="http://www.w3.org/2000/svg" xmlns:xlink="http://www.w3.org/1999/xlink" x="0px" y="0px"
	 viewBox="0 0 150 150" style="enable-background:new 0 0 150 150;" xml:space="preserve">
<style type="text/css">
	.st0{clip-path:url(#SVGID_3_);}
	.st1{fill-rule:evenodd;clip-rule:evenodd;fill:#BED8F1;}
	.st2{fill-rule:evenodd;clip-rule:evenodd;fill:#222225;}
	.st3{fill-rule:evenodd;clip-rule:evenodd;fill:#8D5A47;}
	.st4{fill-rule:evenodd;clip-rule:evenodd;fill:#683E30;}
	.st5{fill-rule:evenodd;clip-rule:evenodd;fill:#905741;}
	.st6{fill-rule:evenodd;clip-rule:evenodd;fill:#2D2320;}
	.st7{fill-rule:evenodd;clip-rule:evenodd;fill:#C07C5B;}
	.st8{fill-rule:evenodd;clip-rule:evenodd;fill:#DBA27C;}
	.st9{fill-rule:evenodd;clip-rule:evenodd;fill:#E2B99E;}
	.st10{fill-rule:evenodd;clip-rule:evenodd;fill:#9F573B;}
	.st11{fill-rule:evenodd;clip-rule:evenodd;fill:#DA9E7B;}
	.st12{fill-rule:evenodd;clip-rule:evenodd;fill:#A25740;}
	.st13{fill-rule:evenodd;clip-rule:evenodd;fill:#7A3426;}
	.st14{fill-rule:evenodd;clip-rule:evenodd;fill:#431815;}
	.st15{fill-rule:evenodd;clip-rule:evenodd;fill:#E7B79B;}
	.st16{fill-rule:evenodd;clip-rule:evenodd;fill:#D39174;}
	.st17{fill-rule:evenodd;clip-rule:evenodd;fill:#9E5342;}
	.st18{fill-rule:evenodd;clip-rule:evenodd;fill:#733027;}
	.st19{fill-rule:evenodd;clip-rule:evenodd;fill:#D38E7E;}
	.st20{fill-rule:evenodd;clip-rule:evenodd;fill:#B46F4D;}
	.st21{fill-rule:evenodd;clip-rule:evenodd;fill:#763022;}
	.st22{fill-rule:evenodd;clip-rule:evenodd;fill:#C7A790;}
	.st23{fill-rule:evenodd;clip-rule:evenodd;fill:#623B2F;}
	.st24{fill-rule:evenodd;clip-rule:evenodd;fill:#CDC1AA;}
	.st25{fill-rule:evenodd;clip-rule:evenodd;fill:#322F21;}
	.st26{fill-rule:evenodd;clip-rule:evenodd;fill:#59533D;}
	.st27{fill-rule:evenodd;clip-rule:evenodd;fill:#0E0E0F;}
	.st28{fill-rule:evenodd;clip-rule:evenodd;fill:#F3FAFE;}
	.st29{fill-rule:evenodd;clip-rule:evenodd;fill:#341E1A;}
	.st30{fill-rule:evenodd;clip-rule:evenodd;fill:#7D4A38;}
	.st31{fill-rule:evenodd;clip-rule:evenodd;fill:#541313;}
	.st32{fill-rule:evenodd;clip-rule:evenodd;fill:#73493B;}
	.st33{fill-rule:evenodd;clip-rule:evenodd;fill:#798DB4;}
	.st34{fill-rule:evenodd;clip-rule:evenodd;fill:#711716;}
	.st35{fill-rule:evenodd;clip-rule:evenodd;fill:#5D1312;}
	.st36{fill-rule:evenodd;clip-rule:evenodd;fill:#D0E3F5;}
	.st37{fill-rule:evenodd;clip-rule:evenodd;fill:#0A090B;}
	.st38{fill-rule:evenodd;clip-rule:evenodd;fill:#786857;}
	.st39{fill-rule:evenodd;clip-rule:evenodd;fill:#483A38;}
</style>
<g>
	<defs>
		<circle id="SVGID_1_" cx="75" cy="75" r="75"/>
	</defs>
	<linearGradient id="SVGID_2_" gradientUnits="userSpaceOnUse" x1="75" y1="150" x2="75" y2="-9.094947e-13">
		<stop  offset="0" style="stop-color:#212121"/>
		<stop  offset="1" style="stop-color:#EF4438"/>
	</linearGradient>
	<use xlink:href="#SVGID_1_"  style="overflow:visible;fill:url(#SVGID_2_);"/>
	<clipPath id="SVGID_3_">
		<use xlink:href="#SVGID_1_"  style="overflow:visible;"/>
	</clipPath>
	<g id="Shape_238_7_" class="st0">
		<g>
			<path class="st1" d="M69.5,127.2c1.9-5.5,3.7-10.4,3.7-10.4s-7.7,0.2-9.9-8.4c-2.1-8.3-3-14.4-3.7-13.6c0,0-6.5,35.5-5.7,44.9
				c0.8,9.4-1.1,18.6,4.7,19.5c5.7,0.9,13-2.8,13-2.8S67.6,132.8,69.5,127.2z"/>
		</g>
	</g>
	<g id="Shape_237_7_" class="st0">
		<g>
			<path class="st2" d="M60.5,92.6c0,0-10.7,2.5-17,4.5c-6.4,2.1-18.1,7-19.9,7.5c-1.8,0.5-10.9,0.7-14.3,14.2
				C6,132.3,4.5,158,4.5,158l52.7,0.9c0,0-1.8-32.9,0.7-43.3s0.5-10.6,0.5-14.2S59.5,93,60.5,92.6z"/>
		</g>
	</g>
	<g id="Shape_186_7_" class="st0">
		<g>
			<path class="st3" d="M98.1,81c-1.3-1.8-8.3-0.9-10.1-0.8c-3,0.3-5.8,1.2-8.8,1.8c-4,0.8-7.9,1.7-11.8,2.9
				c-2.1,0.7-4.5,1.3-6.3,2.6c0.6-1-2.9,3.8-2.9,3.8c0.8,2.1,2.1,4.2,2.5,6.4c1.2,6.3,1.6,9.7,5.9,14.9c0.7,0.9,4.4,4.5,5.5,4.6
				c0.9,0.2,2.3-0.8,3-1.3c2.6-1.6,5-2.8,7.4-4.8c7-6,13-12.2,14.8-21.1C97.8,87.5,99.5,83.8,98.1,81z"/>
		</g>
	</g>
	<g id="Shape_187_7_" class="st0">
		<g>
			<path class="st4" d="M98,83.5c-1,0-3,5.2-3.6,6.3c-0.7,1.1-4,3.8-5.1,3.8c-0.6,1.3-5,3.5-6.3,4.6c-1.4,1.2-3.7,1.4-5.5,1.7
				c-2.7,0.5-6.4,1-9,0c-2-0.8-2.9-2.7-4.6-3.8c-1.8-1.2-1.6-0.4-3-0.9c-0.7-0.4-1.3-0.9-2-1.3c0,0.1,0.3,0.3,0.3,0.4
				c0.8,0.5,1.9,4.2,2.6,4.8c0.9,0.8,2.9,1,4,1c0.7,0.4,1.3,1.8,2,2.2c1.3,1.1,1.2,0.8,2.5,1.8c0.8,0.7,3.5,1.8,4.4,2.5
				c1.8,0.3,3-2.3,4.7-1.9c1.1,0.3,1.5,1.6,2.8,1.2c0.6-0.8,4.8-5.4,5.6-4.9c0,2.6-0.7,4.5-2.7,6.3c-0.8,0.7-3.4,2.9-3.4,3.9h0
				c0.6,0,5.6-4.2,5.7-4.4c0.8-0.9,2.7-2.1,2.8-3.4c0.1-0.7-0.6-1-0.6-1.7c0-0.8,0.4-1.5,0.4-2.2c2.6-2.6,5.5-4.9,5.9-9
				C96.2,89.4,98.6,84.1,98,83.5z"/>
		</g>
	</g>
	<g id="Shape_185_7_" class="st0">
		<g>
			<path class="st5" d="M104.9,55.7c-1.7-1-3,1.4-4.5,1.4c-1.1-0.6-2.3-5.6-2.5-6.8c-0.2-2.3-0.3-4.6-0.5-6.9
				c-0.5-2.2-1-4.5-1.5-6.7c-0.2-1.7-0.4-3.3-0.6-5c-1.1-2.5-5.1-2.2-7.3-1.9c-6.9,0.9-13.9,1.6-20.8,2.6C62.1,33,56,32.6,51.9,36.5
				c-1.2,1.1-2.5,2.3-2.3,4.1c0.1,0.8,0.4,1.6,0.2,2.4c-0.3,0.8-0.6,1.7-0.8,2.5c-0.5,1.9-0.4,4.6-0.1,6.5c0.2,1.1-0.1,6.9-0.5,7.1
				l1.1,7.3c2.7,2.9,1.4,12.7,2.9,16.8c1.4,3.9,3.6,6.9,6.2,10c0.8,1,1.9,2.5,3.4,2.5c0.8,0.4,1.5,0.8,2.3,1.3
				c1.5,1,2.8,2.9,4.5,3.4c2.7,0.8,9.8,1.2,12.7,0.2c2-0.7,3.4-2.3,5.1-3.4c1.8-1.1,3.7-2.1,5.4-3.5c2-1.6,3.8-4.3,5-6.6
				c0.5-1.3,1.1-2.6,1.6-3.9c0.4-1.7,0.9-3.5,1.3-5.2c0.4-0.1,0.8-0.2,1.1-0.3c0.8-0.8,1.4-1.8,1.6-3c2.1-2.1,1.3-7.9,1.9-10.7
				c0.2-0.7,0.4-1.5,0.5-2.2C105.2,60.9,106.2,56.5,104.9,55.7z"/>
		</g>
	</g>
	<g id="Shape_184_7_" class="st0">
		<g>
			<path class="st6" d="M104.7,34.8c-0.5-1.1-4.4-5.1-5.4-5.6c-1.2-0.6-3.8-0.1-3.8-1.9c-0.1-0.2-0.3-0.4-0.4-0.5
				c0-0.1,0.2-0.2,0.2-0.3c0-0.8-0.1-1.8-0.4-2.5c-0.9-1.8-3.4-3.2-5.3-3.7c-2.5-0.6-4.6-1.3-7.1-1.9c-1.2-0.4-3.1-0.7-4.3-1.2
				c-0.6-0.3-1-0.7-1.7-0.9c-3.6-0.7-8-0.5-11.6,0.4c-8.6,2.2-14.3,9.9-19,16.8c-0.9,1.3-1.8,2.7-2.4,4.2C42.7,40,43,43,43.5,45.5
				c0,1.2,0,2.5,0,3.7c0.2,2.1,0.8,6.5,1.6,8.3c0.3,0.7,1.5,1.3,1.9,2c1.3,1.8,1.1,7.6,2.8,8.5c0.2,0,0.5,0.1,0.7,0.1
				c-0.4-0.9-0.7-1.9-1.1-2.8c0.1-2.1,0.2-4.1,0.3-6.2c0.4-1.3,1-2.5,1.4-3.7c0.3-0.8,1.2-1.4,1.3-2.3c0.5-5.2-4.5-5.4-1.1-9.6
				c0.7-0.5,0.5-0.8,1.2-1.3c0,0,1.3-1.1,2.9-2.2c3.5,1,3.9,1.4,6.7,0c0.9-0.4,1.8-0.7,2.7-1.1c2.3-1.4,4.6-3.3,7.2-4.2
				c3.6-1.3,7.3-1.8,11.1-2c1.4-0.1,8.2-1.8,9.3-1c2,1.6,2.7,8,2.8,10.3c0.1,2.3,0.2,4.6,0.4,6.8c0.5,2.2,1.4,4.1,2.3,6.2
				c0.2,1.1,0.4,2.3,0.6,3.4c0.5,2.1,0.4,3.4,0.6,5.6c0.1,0.9-0.3,2.4-0.3,2.6h0c0-0.1,1.5-1.2,1.7-2.2c0.3-2.7,0.5-8.5,4.4-8.5
				C104.9,49,108,41.3,104.7,34.8z"/>
		</g>
	</g>
	<g id="Shape_188_7_" class="st0">
		<g>
			<path class="st7" d="M95.5,67.6c0.9-0.9,1.1-3.6,1.1-4.9c-0.5-0.8-0.6-1.5-1.3-2.1c-1.4,0-3.2,1-4.5,0.1
				c-0.2-0.4-0.5-0.7-0.7-1.1c0-0.7,0.3-1,0.5-1.7c0.4-1.4-0.9-3.4,0.8-4.4c0.7-0.4,1.5,0.4,2.2,0.4c1.1-1.1,0.2-3.5,0-5
				c0.1-0.9,0.1-1.7,0.2-2.6c-0.4-4-0.4-9.8-4.8-11.4c-5.6-2-10.1-0.6-15.5,0.4c-1.1,0.3-2.2,0.6-3.3,1c-1.3,0.2-4.2,2.7-5.9,3.3
				c-2.1,0.8-4.5,0.7-6.5,1.3c-0.6,0.2-2-1.1-2.2-0.5c0,0,0,0,0,0.1c-8.4,3.2-1.3,7.8-3.4,13.5c-1.4,3.6-2,7.6-1.7,11.6
				c0.5,1.4,0.9,2.8,1.4,4.2c1.1,6.4,1.2,11.7,4.5,17.5c0.9,1.5,1.5,3.1,2.8,4.4c0.8,0.8,1.4,0.4,2.2,0.8c0.7,0.5,1.4,1,2.1,1.5
				c1.7,1.5,3.5,3.4,5.7,4.2c2.9,1.1,7,0.7,9.4-0.9c1.1,0,2.5,1,3.6,0.4c1.1-1,2.2-2,3.4-3c1.5-1,3.1-2,4.6-2.9
				c0.6-0.4,0.8-1.2,1.6-1.5c2.8-0.9,4.8-9.6,2.8-11.6c-0.1,0-0.1,0-0.2,0c-0.3,0.2-0.8,1.3-0.8,1.6c-1.2,0-0.1-3.9,0-4.2
				C93.9,73.6,95.5,70.6,95.5,67.6z"/>
		</g>
	</g>
	<g id="Shape_189_7_" class="st0">
		<g>
			<path class="st8" d="M89,45c0.6-1.5-1.9-6.6-2.9-7.5c-0.9-0.9-2.6-1.1-3.8-1.3c-6-1-10.9,2.5-16.2,4.4c-2,0.7-6,0.2-7.6,1.3
				l0.8,0c-1.1,0.7-5.3,2.8-3.9,4.7c0.6,0.9,2.7,2.1,2.9,2.5c0,0,0,0,0,0c0,0.1,0,0.2,0,0.3c0,0.8-4,6.7-0.3,6.7
				c0,1-2.3,3.7-1.5,4.5c0.2,0,0.3,0,0.5,0.1c0.7-0.6,1.3-1.1,2-1.7c1.1-0.4,3.5-0.4,3.5-1.7c0,0-2.8-0.8-2.9-0.8
				c0-1.1,2.4-1.6,3.1-1.6c1.7,0,4.7,0.9,6.1,1.9c0.9-0.1,1.9-0.1,2.8-0.2c1-0.2,2.1-0.4,3.1-0.7c0.7,0.1,1.5,0.1,2.2,0.2
				c1.2,0.1,3.6-1,4.4-1.8c2.2,0,5-1.1,6.6-2.2c1.1-2.2-1.1-3.7-0.6-5.9C87.9,45.8,88.4,45.4,89,45z"/>
		</g>
	</g>
	<g id="Shape_192_7_" class="st0">
		<g>
			<path class="st9" d="M64.1,44.2c1.1,0,2.2,0,3.3,0c2.2,0,4.1-0.7,6.2-0.9c1.1-0.1,2.1-0.2,3.2-0.3c1.1-0.3,3-0.5,2.5-2.1
				c-0.5-1.7-2.8-0.9-4.1-0.6c-3,0.7-10.2,0.2-11.5,3.5c0,0.1-0.1,0.1-0.1,0.2c0.1-0.1,0,0.1,0,0.1L64.1,44.2z M69.4,48.6
				c2.8-0.4,4.1-0.5,6.8-1.5c0.8-0.3,2.5-0.6,2.5-1.8c-0.9-0.7-1.6-0.7-2.8-0.5c-2.1,0.2-3.7,0.4-5.8,0.7c-0.8,0-2.6-0.1-3.2,0.5
				c-1-0.5-2.2,0.2-2,0.1c-0.9,0.4-1.5,0.4-1.5,1.6C63.7,48.4,68.8,48.7,69.4,48.6z M83.2,48.3c-0.8-0.9-5.8,0.3-6.4,0.4
				c-2.6,0.6-4.7,0.6-7.3,0.9c-1.6,0.2-3.1,0.3-4.4,0.3c-2.8-0.7-5.9,0.1-1.1,2c2.3,1.7,9.4,2.2,11.9,1.2
				C78.7,52,84.1,49.6,83.2,48.3z"/>
		</g>
	</g>
	<g id="Shape_193_7_" class="st0">
		<g>
			<path class="st8" d="M84.5,55.8c-0.1,0.1-1,0.8-0.7,0.9c0.8-0.8,5.5,1.3,5.7,0.9C89.5,54.8,87.2,54.4,84.5,55.8z"/>
		</g>
	</g>
	<g id="Shape_195_7_" class="st0">
		<g>
			<path class="st10" d="M82.1,55.6c-1.3,1.3-3.8,1.6-5.6,1.6c0,0.1,0,0.1-0.1,0.2c0,0-0.1,0-0.1,0.1c0.3,0.6,0,3.6,1.1,3.4
				c0.7-0.1,1.2-1.3,1.8-1.3c0,0,0.1,0,0.1,0v0.9c0.1,0.1,0.2,0.1,0.5,0.1c0.5-0.5,1.9-0.1,2.5-0.1c0-1.3-0.4-2.8,0.9-4.1
				C83.8,55.9,82.5,55.3,82.1,55.6z M65.9,56.9c-0.8-0.1-3.3-1.1-3.5-0.9c0,0,0,0.1,0,0.1c0.5,0.3,0.9,0.6,1.4,1
				c0,0.8-0.4,1-1.2,1.4c0,0,0,0,0.1,0c0,0.2,0,0.4,0,0.6c1.5,0,3.5,1,4.6,2.1c0.2,0,0.3-0.1,0.5-0.1l-0.1-0.9
				c0.4,0.3,0.8,0.7,1.2,1c0.9,0,0.5-1.2,0.5-1.9C71.4,57.1,67.7,56.9,65.9,56.9z"/>
		</g>
	</g>
	<g id="Shape_196_7_" class="st0">
		<g>
			<path class="st8" d="M75.7,69.9c0-1.2,0.5-2.4,0.3-3.7c-0.5-2.8,0.2-5.6,0.2-8.4c-0.2-0.2-1.1-0.3-1.3-0.5
				c-0.9,0-2.1-0.8-2.5,0.1c-0.1,0-0.2,0.1-0.3,0.1c-0.6,0.3-1.6,0.6-2,1.1c0.2,1.1,0.6,2.2,0.7,3.3c0.1,1.1,0.1,2.2,0.2,3.3
				c0.5,2.7-1.3,7.7-0.3,9.7c1.3,0.6,2.9,0.7,4.4,0.7c0.2-0.4,1-0.3,1.1-1C76.4,73.6,76.3,70.5,75.7,69.9z"/>
		</g>
	</g>
	<g id="Shape_197_7_" class="st0">
		<g>
			<path class="st11" d="M79.4,59.5C79.4,59.5,79.4,59.5,79.4,59.5c-0.1,0.1-0.1,0.1-0.1,0.2c0,0,0,0,0,0.1
				C79.3,59.7,79.4,59.5,79.4,59.5z M94.6,63C94.6,63,94.6,63,94.6,63C94.6,63,94.6,63,94.6,63C94.6,63,94.6,63,94.6,63L94.6,63z
				 M93.9,68.4c0.8-1.1,1.1-2.5,0.9-3.9c-0.1-0.5-0.1-1-0.2-1.5c0,0,0,0,0,0c0-0.8-1-2.1-2-1.9c-3.1,0.8-5.5,2.8-8.8,2.5
				c-0.8-0.1-2.5-0.2-2.8-1.2c-0.1-0.5,0.7-0.7,0.4-1.1c-0.7-0.8-2.9,0.6-2.1-1.6c0-0.1-0.2,0-0.3,0.1c-1.2,0,0.1,3.2,0,3.8
				c-0.1,0.4-0.2,0.7-0.3,1.1c0.3,1.3,1.7,2.2,1.9,3.6c0.1,0.6,0,2.2,0.4,2.6c1.3,1.3,2.7,2.8,3.3,4.7c0.6,1.9-2.2,0.9-2.8,1.6
				c-0.8,0.8-0.1,1.7,0.2,2.6c0.2,0.6,0.2,1.6,1,1.7c0.7,0.2,3,0.1,3.4-0.5c0.3-0.4,0-1.7,0.5-1.9c0.8-0.3,1.7,1.3,2.8,0.8
				c0.4-0.2-0.1-2.3,0.1-2.8C90.8,74,91.9,71.1,93.9,68.4z"/>
		</g>
	</g>
	<g id="Shape_198_7_" class="st0">
		<g>
			<path class="st11" d="M90.7,82.8c-0.2-0.6-0.3-1.8-1-1.8c-0.1,0.1-0.3,0.2-0.4,0.2l0.1-0.1c-0.9,0.6-0.3,1.8-0.6,2.7
				c-0.3,0.9-1.3,0.9-1.7,1.6c-0.4,0.6-0.1,1.7-0.2,2.5c-0.1,0.4-0.1,0.8-0.2,1.1c0.7,1,2.5-0.4,2.9-0.8
				C91.3,86.5,91.6,84.8,90.7,82.8z"/>
		</g>
	</g>
	<g id="Shape_199_7_" class="st0">
		<g>
			<path class="st12" d="M79.8,70.3c0.5,0.9,1,1.8,1.5,2.7c0.2,0.5,0,0.9,0,1.4c-1.1,0.1-2.2,0.2-3.3,0.2c-0.9,0.2-1.1,1.3-2,1.5
				c0,0,0,0,0,0c-1.2,0-2.5,0.3-3.7,0.1c-1-0.3-2.1-0.6-3.2-0.9c-0.7,0.1-1.3,0.1-2,0.2c-0.3-0.6-0.5-0.9-0.3-1.7c0,0,0,0,0,0
				c0,0,0,0,0.1-0.1c0,0-0.1-0.1-0.1-0.1c-0.8,0-0.6,3.1,0.5,3.6c1.3,0.6,2.1-0.4,3.3-0.2c0.9,0.1,1.5,0.9,2.3,1
				c0.8,0.1,1.7,0.1,2.5-0.1c0.5-0.2,0.9-0.4,1.4-0.6c1.5-0.1,2.7,0.5,4.2-0.4c0.9-0.6,0.8-1.4,1.4-2c0.4,0,0.3,0.4,0.6,0.5
				c0.1,0,0.1,0,0.2,0c0-0.1,0-0.1,0-0.2C83.1,74.1,81.1,70.3,79.8,70.3z"/>
		</g>
	</g>
	<g id="Shape_200_7_" class="st0">
		<g>
			<path class="st13" d="M75.7,76.7c-0.9,0-1.6,0.8-3,0.6c-1.5-0.3-4.6-3.5-4.6-0.4c-0.1,0.3-0.7,0-0.8-0.1c0,0,0,0,0,0
				c0,0,0,0-0.1,0c0,0.5,0.5,0.7,1,0.7c0.8-0.1,1.4-0.8,2.4-0.6c1.2,0.3,1.7,1.2,3.1,1.1C74.5,78,75.8,77.7,75.7,76.7
				C75.8,76.8,75.8,76.7,75.7,76.7z"/>
		</g>
	</g>
	<g id="Shape_201_7_" class="st0">
		<g>
			<path class="st14" d="M77.1,76.2C77.1,76.2,77.1,76.2,77.1,76.2C77.1,76.2,77.1,76.2,77.1,76.2c0.4,0,2.5-0.2,2.2-0.7
				C78.9,74.5,77.4,75.6,77.1,76.2z"/>
		</g>
	</g>
	<g id="Shape_202_7_" class="st0">
		<g>
			<path class="st14" d="M69.2,76.5L69.2,76.5C69.3,76.5,69.3,76.5,69.2,76.5C69.2,76.5,69.2,76.5,69.2,76.5z M69,76.1
				c0.1,0.1,0.2,0.2,0.3,0.4c0,0,0,0,0,0c0.4,0.1,0.8,0.1,1.3,0.2C70.7,76.1,69,75.5,69,76.1z"/>
		</g>
	</g>
	<g id="Shape_203_7_" class="st0">
		<g>
			<path class="st15" d="M72.4,65.9C72.4,65.9,72.4,65.9,72.4,65.9c0-0.1,0-0.1,0-0.2L72.4,65.9z M73.8,71.2
				c-0.2-0.8,0.2-1.4,0.2-2.2c-0.1-0.9-0.3-1.8-0.4-2.6c-0.2-0.7-1.1-1.6-1.3-0.5c0,1.9,0.2,3.8,0,5.7c-0.1,0.6-0.6,1.6-0.4,2.1
				c0.3,0.5,1.6,0.3,2,0.3c0.3-0.2,0.9-0.1,1-0.6C75.1,72.5,74,71.9,73.8,71.2z"/>
		</g>
	</g>
	<g id="Shape_204_7_" class="st0">
		<g>
			<path class="st16" d="M78.3,71.5C78.3,71.5,78.3,71.5,78.3,71.5c-0.1,1-0.6,2.5,0.8,2.7c0.3,0,0.6,0,0.9,0
				C80.6,73.8,79.5,69.6,78.3,71.5z"/>
		</g>
	</g>
	<g id="Shape_205_7_" class="st0">
		<g>
			<path class="st16" d="M67.8,72.2c0,0,0.1,0,0.1-0.1c-1.4,1.1-1.5,2.9,0.6,2.6c0.4,0,0.7-0.4,0.9-0.8C71.5,73,68.9,71.3,67.8,72.2
				z"/>
		</g>
	</g>
	<g id="Shape_206_7_" class="st0">
		<g>
			<path class="st11" d="M54.1,63.2C54.1,63.1,54.1,63.1,54.1,63.2c0.1-0.1,0.1-0.1,0.1-0.1C54.2,63.1,54.1,63.1,54.1,63.2z
				 M82.8,87.7C82.8,87.7,82.7,87.8,82.8,87.7c-0.9,0.9-1.8,1.3-2.8,2c-0.4,0-3,0.4-3,0.7c0.3,0.5,2.1,0.8,2.1,1.2
				c0,0.1,0,0.2,0,0.2v0c-0.9-0.2-1.9-0.4-2.8-0.6c-1.2,0-2.4,0-3.5,0c-0.5,0-2,0.3-2.4-0.1c0.1-0.3,0.1-0.5,0.2-0.8
				c-1-1-2.6-0.6-3.6-1.6c-1.1-1-2.1-2.1-3.2-3.1c-0.9-0.3-1.8-0.5-2.8-0.8c-0.4-0.3-0.7-0.5-1.1-0.8c0-1.3-1.5-2.8-1.5-3.8
				c0,0,4.1-1.2,4.1-1.1c0,0.8-2.6,2.1-2.1,2.7c0.3,0.4,2.2,0.5,2.7,0.2c0.4-0.2,0.6-1,1.1-0.9c0.7,0.4,1.4,0.8,2.1,1.2
				c0.6,0.1,1.3,0.2,1.9,0.3c2.1,0.4,4.2,1.4,6.4,1.4c0,0,0.1,0,0.1,0c0.6-0.2,3.1-0.8,3.5-1.2c0.1-0.1,1-1.5,1-1.5
				c0-3.6-2.5-2.2-4.9-2.4c-1.1-0.1-2.2-0.9-3.3-0.6c-0.8,0.2-2.3,1.2-3.1,1c-1.5-0.4-0.9-2.4-1.8-3.4c-0.6,0-1.2,0.6-1.7,0.8
				c-0.7,0.4-1.3,0.2-2.1,0.2c0-0.8,3.2-2.9,3.9-3.6c1.5-1.5,1.7-8.3,2-10.6c0.1-1,0.2-3.1-1.2-3.1c0,0.4,0.6,1,0.3,1.5
				c-0.6,0.6-4.1,1.1-5.8,1c-0.4,0-2.6-0.4-2.6,0.1c0,2,3.2,1.6,4.2,1.1c1-0.4,1.8-0.9,2.5-0.5c0,1.3-2.3,1.5-3.3,1.6
				c-2.5,0.3-2.9-0.9-4.7-1.4c-0.9,0.1-1.7,0.2-2.6,0.3c-0.6-0.2-0.6-0.7-1.2-0.3c-1.4,2.3-1.8,5.5-0.1,7.7c0.7,0.8,1.5,1.6,1.9,2.6
				c0.4,1,1.1,3.8,2.5,3.8c0.1,0.1,0.2,0.2,0.2,0.4c0,0.8-1.8,0.9-2.1,1.7c-0.9,2.2,0.3,5,1.1,7.1c1.8,4.3,3,2.2,6,3.5
				c0.6,0.2,1.7,0.7,1.8,1.4c0,0.2,0,0.4,0,0.6c0,0.4,1.6,0,2,1.2c1.1,3.4,2.6,5.1,6.7,4.3c1-0.2,2,0.1,3-0.2c1.4-0.5,2-1.8,3.2-2.5
				c1.1-0.6,2.9-1.5,3.5-2.7C84.2,91.1,83.8,87.6,82.8,87.7z"/>
		</g>
	</g>
	<g id="Shape_207_7_" class="st0">
		<g>
			<path class="st17" d="M87,83.4c-0.3,0-1.3-0.3-1.7-0.4c-0.1,0-0.2,0-0.3,0v0c-1.7,0-2.6,0.1-4,1c-1.4,0.1-2.9,0.3-4.3,0.4
				c-0.7,0.1-2,1.1-2.6,0.5c0,0,0,0,0,0v0c0,0,0,0,0,0c0,0,0-0.1,0-0.1c-2,0-4.5,0.4-6.5-0.1c-0.9-0.2-1.7-0.5-2.6-0.7
				c-0.3-0.3-0.6-0.5-0.9-0.8c-0.4-0.1-3.1,0.4-3,0.8c0,0,0,0,0,0.1c0.2,0.1,0.3,0.2,0.5,0.3c1.8,0.2,2.7,1.1,4.2,1.4l0.1,0
				c0.1,0,0.1,0,0.2,0c0.1,0,0.1,0,0.2,0c0,0,0.1,0,0.1,0h0.5c1.3-0.1,2.6-0.1,4-0.2c1.3,0.1,2.5,0.3,3.8,0.4
				c1.1-0.1,2.1-0.2,3.2-0.3c1.1,0.1,2.1,0.2,3.2,0.4c0.9,0,4.3-1,4.4-0.9c0.1,0.2,0.3,0.4,0.4,0.6c0.5,0,1.2-1.3,1.3-1.7
				C87.1,83.7,87.1,83.6,87,83.4z M85,82.9C85,82.9,85,82.9,85,82.9L85,82.9L85,82.9z"/>
		</g>
	</g>
	<g id="Shape_208_7_" class="st0">
		<g>
			<path class="st18" d="M74.6,85.7C74.6,85.7,74.6,85.7,74.6,85.7C74.6,85.7,74.6,85.7,74.6,85.7L74.6,85.7z M86.1,83.8
				c-1,0-3,0.1-3.6,0.8c-1.9,0-3.9,0.3-6,0.3c-0.6,0.2-1.2,0.5-1.9,0.7c0,0,0,0,0,0c2.2,0,5-0.4,7.6-0.4c0.4-0.1,0.9-0.3,1.3-0.4
				c0.4-0.4,2.5-0.3,2.5-0.8C86.1,84,86.1,83.9,86.1,83.8C86.1,83.8,86.1,83.8,86.1,83.8z"/>
		</g>
	</g>
	<g id="Shape_209_7_" class="st0">
		<g>
			<path class="st19" d="M68.4,86.5C68.4,86.4,68.4,86.4,68.4,86.5c0-0.1,0-0.1,0-0.1V86.5z M80.2,86.5c-0.6,0.1-1.1,0.2-1.7,0.4
				c-0.1-0.2-0.1-0.3-0.2-0.5c0.1-0.1,0.2-0.3,0.3-0.4c0-0.1-0.1-0.1-0.1-0.2c-1.3,0-3.3,0.8-5,0.2c-0.7-0.1-1.4,0.1-2,0.3l-1.3-0.6
				c-0.9,0-1.9,0.3-1.9,0.5c0,0.1,0,0.2,0,0.3c0.8,3,3.3,1.9,5.8,1.9c1,0,2.1,0.1,3.1,0.1c0.1,0,0.2-0.1,0.3-0.1
				C78.3,88.2,80.3,87.1,80.2,86.5C80.3,86.5,80.3,86.5,80.2,86.5z"/>
		</g>
	</g>
	<g id="Shape_210_7_" class="st0">
		<g>
			<path class="st20" d="M103,71.5c-0.7,0-1.3,0.9-1.3,1.6c-0.1,0-0.2,0-0.3,0c0-0.6,0.5-2.6-0.5-2.6c0,0,0.1,0,0.1,0
				c-0.3-0.3-0.1,1.6-0.1,1.8c-0.6,0-1.3,4.1-1.3,5.1c0.1,0,0.2,0.1,0.3,0.1c0.5,0,0.9-3.1,1.1-3.1h0.1c0.1,0.4,0.3,0.9,0.4,1.3
				C102.2,75.9,103.8,72.3,103,71.5z"/>
		</g>
	</g>
	<g id="Shape_212_7_" class="st0">
		<g>
			<path class="st20" d="M101.6,65.9c-0.2-0.1-0.5-0.2-0.7-0.3c-0.1,0.1-0.1,0.1-0.2,0.2V66c0,0,0-0.1,0-0.1
				c-0.3,1.1,0.2,2.2,0.2,3.1c0.2,0.1,0.4,0.1,0.6,0.2c0.1-0.1,0.2-0.2,0.3-0.2C101.8,68,101.7,66.9,101.6,65.9z"/>
		</g>
	</g>
	<g id="Shape_213_7_" class="st0">
		<g>
			<path class="st20" d="M104.4,61.4l0.2-0.1c0,0,0,0,0,0C104.5,61.3,104.4,61.3,104.4,61.4z M104.6,61.3c-0.2,0.8-1.2,3.5-1.4,3.5
				c0,0.1,0,0.1,0,0.2c-0.1,1.3-0.2,2.6-0.3,3.9c0,0.6,0.2,1.3,0.2,1.6c0.1,0,0.1,0,0.2,0c0.1-0.1,0.1-0.1,0.2-0.2
				c0.2-1.9,0.5-3.8,0.7-5.6c0.2-0.6,0.3-1.2,0.5-1.8C104.6,62.6,105.1,61.4,104.6,61.3z M104.6,61.3
				C104.6,61.3,104.6,61.3,104.6,61.3C104.6,61.3,104.6,61.3,104.6,61.3L104.6,61.3z"/>
		</g>
	</g>
	<g id="Shape_211_7_" class="st0">
		<g>
			<path class="st21" d="M105.1,58.5c-0.2,0-0.6-0.2-1.1-0.2c-0.4,0.1-0.8,0.2-1.1,0.3c0,0.2-1,1.6-1,2.5l0-0.2
				c0.5,0,0.4-1.3,1.1-1.3h0.2c0,1.7,1,0.8,1.5,0.8c0-0.7,0.4-1.4,0.4-1.8C105.2,58.6,105.1,58.5,105.1,58.5z"/>
		</g>
	</g>
	<g id="Shape_215_7_" class="st0">
		<g>
			<path class="st22" d="M81.7,58.6c0,0-0.7,0.9-0.4,1.4s1.6,0.7,2.9,0.8c1.3,0.1,5-0.3,4.8-1.1C88.9,58.9,84.5,56.3,81.7,58.6z"/>
		</g>
	</g>
	<g id="Shape_214_7_" class="st0">
		<g>
			<path class="st23" d="M93,60.7c-0.6,0-1.1-0.2-1.5-0.2c0-0.4-3.4-2.6-3.4-2.6c-1.1-0.3-2.3-0.5-3.4-0.8c-0.8,0-3.8-0.2-3.8,0.7
				c-0.6,0-2.5,1.2-2.5,1.8l0.3,0.3c0.1,0,0.2-0.1,0.3-0.1c0.6,0,2.4-1.1,3.3-1.4c0.7-0.1,0.9-0.3,2,0c1.4,0.3,3-0.2,4.8,1.5
				c-0.1,0.2-0.8,0.5-0.9,0.7C88.1,62,92,60.8,93,60.7C93,60.7,93,60.7,93,60.7z"/>
		</g>
	</g>
	<g id="Shape_219_7_" class="st0">
		<g>
			<path class="st24" d="M59.6,59.9c-0.1,0.3-0.3,0.5-0.4,0.8c0,0,0.1,0,0.1,0c2.1,1.7,7.3,0.4,7.1-0.8
				C66.1,58.1,60.7,59.5,59.6,59.9z"/>
		</g>
	</g>
	<g id="Ellipse_5_7_" class="st0">
		<g>
			<path class="st25" d="M83.5,57.5c-0.3,0.3-0.4,0.8-0.4,1.2c0,1.1,0.9,2,2,2s2-0.9,2-2c0-0.2,0-0.3-0.1-0.5
				C86.2,58.1,84.5,57.7,83.5,57.5z"/>
		</g>
	</g>
	<g id="Ellipse_5_copy_7_" class="st0">
		<g>
			<path class="st26" d="M86.7,59.3c-0.4-0.3-0.9-0.6-1.5-0.7c-0.7-0.2-1.4-0.1-1.9,0.1c0,0,0,0,0,0c0,1,0.8,1.7,1.7,1.7
				C85.8,60.5,86.5,60,86.7,59.3z"/>
		</g>
	</g>
	<g id="Ellipse_5_copy_2_7_" class="st0">
		<g>
			<circle class="st27" cx="85" cy="58.7" r="0.8"/>
		</g>
	</g>
	<g id="Ellipse_5_copy_3_7_" class="st0">
		<g>
			<circle class="st28" cx="84.2" cy="58.6" r="0.3"/>
		</g>
	</g>
	<g id="Shape_216_7_" class="st0">
		<g>
			<path class="st23" d="M67.8,59.7c-0.2-0.4-3-1.3-3.5-1.2c-2.4,0.1-6.6,0.5-7.1,3.4c-0.2,0.3-0.4,0.6-0.6,0.8c0.1,0,0.1,0,0.2,0.1
				c0,0,0,0,0,0c0.9-0.2,1.7-0.9,2.1-1.7c0.5-0.3,0.8-0.7,1.3-1c1.4-0.4,3-0.9,4.4-0.7c1,0.1,1.5,1,2.5,1c-0.1-0.2-0.2-0.3-0.3-0.5
				C67.1,59.8,67.5,59.7,67.8,59.7L67.8,59.7z"/>
		</g>
	</g>
	<g id="Ellipse_5_copy_4_31_" class="st0">
		<g>
			<path class="st25" d="M64.5,59.9c0-0.3-0.1-0.6-0.2-0.9c-1.2,0-2.7,0.3-3.6,0.6c0,0.1,0,0.2,0,0.3c0,0.7,0.3,1.3,0.8,1.6
				c0.8,0.1,1.6,0,2.3-0.1C64.2,61.1,64.5,60.5,64.5,59.9z"/>
		</g>
	</g>
	<g id="Ellipse_5_copy_4_29_" class="st0">
		<g>
			<path class="st26" d="M63.1,61.5c0.5-0.2,0.9-0.6,1-1.1c-0.4-0.3-0.9-0.6-1.5-0.7c-0.7-0.2-1.4-0.1-1.9,0.1c0,0,0,0,0,0
				c0,0.8,0.5,1.4,1.2,1.6C62.4,61.6,62.8,61.5,63.1,61.5z"/>
		</g>
	</g>
	<g id="Ellipse_5_copy_4_27_" class="st0">
		<g>
			<circle class="st27" cx="62.5" cy="59.8" r="0.8"/>
		</g>
	</g>
	<g id="Ellipse_5_copy_4_25_" class="st0">
		<g>
			<circle class="st28" cx="61.7" cy="59.7" r="0.3"/>
		</g>
	</g>
	<g id="Shape_217_7_" class="st0">
		<g>
			<path class="st29" d="M65.4,58.7c-0.9-0.3-2-0.2-3.6,0.2c-1.6,0.4-2.3,0.5-3,1.1c-0.7,0.6-0.9,0.9-1.1,1.2s-0.7,1.1-0.5,1
				c0,0,0.5-0.3,1.1-1.2c0.6-0.9,1.1-1,1.9-1.1c0.8-0.2,1.8-0.5,3-0.6C64.4,59.2,66.3,59,65.4,58.7z"/>
		</g>
	</g>
	<g id="Shape_218_7_" class="st0">
		<g>
			<path class="st29" d="M90.2,60.6c-0.6-0.7-1.4-1.3-1.9-1.9c-1.1-1.2-5.3-2-6.6-1c0,0-0.2,0.2-0.2,0.4c2.3-0.2,4.3-0.4,6.3,0.8
				C88.6,59.4,90.6,61.1,90.2,60.6z"/>
		</g>
	</g>
	<g id="Shape_220_7_" class="st0">
		<g>
			<path class="st30" d="M96.6,59.9c-0.5-0.4-2.2-2.7-4.1-4.5c-1.9-1.8-4.4-2.8-5.7-2.5c-1.2,0.3-6,1.2-6,1.2c2,1.3,2.5,0.6,5.7,0.9
				s4.1,2.1,5.1,3.1c0.7,0.6,1.5,1.2,2.2,1.5C94.6,59.8,97.1,60.3,96.6,59.9z"/>
		</g>
	</g>
	<g id="Shape_221_7_" class="st0">
		<g>
			<path class="st12" d="M82.3,86.5c-1.3,0.2-0.7,0.7-3,1.9c-2.3,1.2-3,0.1-5,0s0,0.5-2.7,0.5s-2.8-1.2-4.1-1.5
				c-1.2-0.3-2.5-1.3-2.5-1.3c0.3,0.7,1.4,1.8,2.5,2.4c1.1,0.6,1.5,1.2,4.4,1.6c2.8,0.4-2.2,1.5-2.2,1.5s3.3,0.1,4.6,0.1
				s6.7,0.2,5.7,0.2c-1.1-0.1-1.4-0.9-3.4-1s-2.3-0.9-0.8-0.8s3.9-0.2,4.8-0.8C81.4,88.5,83.6,86.4,82.3,86.5z"/>
		</g>
	</g>
	<g id="Shape_223_7_" class="st0">
		<g>
			<path class="st31" d="M68,85.2c-0.9,0.1-2.9-0.7-3.4-0.9c-0.6-0.3-2.1-0.7-2.7-0.1c-0.6,0.6,0.8-0.2,1.4,0s3.8,1.3,4.7,1.4
				c0.9,0,4.3,0.1,4.7,0.2c0.4,0.1,0.9,0,1.3,0c0,0-0.9-0.4-1.5-0.5C71.9,85.1,68.9,85.2,68,85.2z M86.1,84.2
				c-0.3,0-0.8-0.3-1.9,0.1s-1.8,0.7-2.8,0.8c-1,0.1-3.8,0.2-4.5,0.2S75,85.8,75,85.8c-0.2,0.2,1.3-0.1,2.3-0.3c1-0.2,4.1,0,4.8-0.1
				s2.1-0.8,2.5-1S86.3,84.2,86.1,84.2z"/>
		</g>
	</g>
	<g id="Shape_224_7_" class="st0">
		<g>
			<path class="st11" d="M87.5,60.5c-1.8,0.6-5.3,0.2-5.3,0.2c-1.5,0.6,2.3,2.2,3.6,1.9C87.1,62.3,89.3,59.9,87.5,60.5z"/>
		</g>
	</g>
	<g id="Shape_225_7_" class="st0">
		<g>
			<path class="st30" d="M64.1,55.1c-2.1-0.7-5.1-1.6-7-0.4c-1.9,1.2-2.1,2.7-2.6,3.8c-0.5,1.1-1.2,2.2-1.5,2.7c0,0,2,0.2,3.1-1.1
				c1.1-1.3,2.5-4.5,5.9-3.8c3.4,0.8,5.1-0.2,5.1-0.2S65.6,55.6,64.1,55.1z"/>
		</g>
	</g>
	<g id="Shape_226_7_" class="st0">
		<g>
			<path class="st7" d="M74,79.7c0,0-0.8,0.8-0.9,2.1C73,83,74.2,84,74.8,83.1C75.4,82.2,74.8,80,74,79.7z"/>
		</g>
	</g>
	<g id="Shape_227_7_" class="st0">
		<g>
			<path class="st7" d="M60.5,65c-1.4,0.2-3.4-0.7-3.4-0.7c-2-0.2,2,1.8,4.3,1.5S61.9,64.8,60.5,65z"/>
		</g>
	</g>
	<g id="Shape_228_7_" class="st0">
		<g>
			<path class="st7" d="M66.4,63.6c-0.8,1.1-2.3,2.5-2.3,2.5c-1.1,1.2,2.5-0.8,3.1-2.1C67.9,62.8,67.1,62.5,66.4,63.6z"/>
		</g>
	</g>
	<g id="Shape_233_7_" class="st0">
		<g>
			<path class="st32" d="M88.8,104c-0.9,2.2-4.8,5.2-7.7,6.3c-3,1.1-7.3,3.4-9.9-0.1c-3.3-4.5-7.7-9.4-7.7-9.4
				c-0.5-1.6-3.1-4.4-2.8-3.4c0.2,1.1,0.3,4.6,0.8,6.9s5.4,12.8,5.4,12.8s4,1.2,5.5,1.5c1.5,0.3,2.6-0.5,3.8-1.2
				c1.1-0.8,13.3-9.9,14.3-12.5C91.4,102.4,89.7,101.8,88.8,104z"/>
		</g>
	</g>
	<g id="Shape_229_7_" class="st0">
		<g>
			<path class="st7" d="M84.9,65.1c-1.1-0.3-5.2-3.3-4.5-2.3c0,0,1.8,2.4,3.8,2.9S86,65.4,84.9,65.1z"/>
		</g>
	</g>
	<g id="Shape_232_7_" class="st0">
		<g>
			<path class="st1" d="M84,132c-0.4-1.3-1.2-2.2-2.1-3.3c-0.4-0.5-2.7-3.8-3-3.8l-1,0.6c-7.7,4.4,0.7,15.1,0.7,21.4h0.1
				c1.3-0.8,1.7-2.9,2.4-4.1C82.4,140.6,84.8,134.6,84,132z"/>
		</g>
	</g>
	<g id="Shape_235_7_" class="st0">
		<g>
			<path class="st33" d="M84.5,109.4c-3.7,2.1-8.4,7.2-12.1,6.4c-3.7-0.8-8.7-7.7-8.7-7.7l0.2,7.7l2.8,4.8l2.1,2l6.1-2.5
				C75,120.1,88.2,107.2,84.5,109.4z"/>
		</g>
	</g>
	<g id="Shape_231_7_" class="st0">
		<g>
			<path class="st33" d="M80.4,123.6c-0.8-1.1-2.9-3.2-4.4-2.3c-2.4,1.4-4.7,5.5-4.4,8.3c0.2,1.6,1,3.1,1.6,4.5
				c0.9,2.1,1.4,4.4,2.4,6.5c0.9,2.2,1.7,4.4,2.6,6.7c0.4-0.1,0.7-0.2,1.1-0.2c-0.1,0-0.3,0-0.4,0c0-4.6-2.3-9.2-2.8-13.8
				c-0.2-1.4,1.6-3.1,1.6-3.2c1.8,0,3.9,6.2,5.1,6.2c0.6-0.3,1.1-1.1,1.4-1.7C86.2,130.8,82.6,126.5,80.4,123.6z"/>
		</g>
	</g>
	<g id="Shape_234_copy_7_" class="st0">
		<g>
			<path class="st33" d="M64.7,109.8c-2.6-3.1-2.9-7.8-3.1-9.6c-0.2-1.8-2-5.1-2-5.1s-1.6,3.9-1.3,6.6s0,7.3-0.2,8.4
				c-0.2,1.1-0.5,9.1,0.2,11.9s1.5,15,1.1,15.9c-0.3,1,7.1-1.5,8.5-5.1c1.5-3.6-1.1-12.4,3.1-14.7c0.6-0.5,0.9-0.6,1.1-0.7
				C71.3,116.6,67,112.6,64.7,109.8z M72.1,117.4c0.1,0.1,0.1,0.1,0.1,0.1S72.3,117.3,72.1,117.4z"/>
		</g>
	</g>
	<g id="Shape_239_7_" class="st0">
		<g>
			<path class="st34" d="M73,131.4c0.4-0.7,5.1-5.8,5.1-5.8s-1.6-7.4-3.6-7.1c-2,0.4-3.1-0.9-5.1-0.4c-2.1,0.5-1.8,5.7-1.8,5.7
				s-0.4,5.2-0.8,7.1c-0.5,0.4-2.4,2.8-4.8,5.9c-2.5,3.1-3.8,22.7-3.8,22.7l15.9,0.6l4.7-13.2C78.6,146.9,74.5,133.8,73,131.4z"/>
		</g>
	</g>
	<g id="Shape_240_7_" class="st0">
		<g>
			<path class="st35" d="M73.4,131.3l4.2-4.8c0,0-2.7-8.9-4.1-8c-1.4,0.9,0.3,3.8,0.8,5.7s-0.5,3.6-2.3,4.8
				c-1.8,1.1-4.6-0.7-4.6-0.7c-0.3,0.9-1.4,2.8-0.5,2.8c0.9,0,3.6,0.8,5.3,2.3c1.7,1.5,6.6,13.9,6.5,13.5
				C78.6,146.5,73.4,131.3,73.4,131.3z"/>
		</g>
	</g>
	<g id="Shape_234_7_" class="st0">
		<g>
			<path class="st36" d="M72.1,117.4c0.1,0.1,0.1,0.1,0.1,0.1S72.3,117.3,72.1,117.4z M64.7,109.8c-2.6-3.1-2.9-7.8-3.1-9.6
				c-0.2-1.8-2-5.1-2-5.1s-1.6,3.9-1.3,6.6s0,7.3-0.2,8.4c-0.2,1.1,0.2,8.3,0.8,11.1c0.6,2.8,1.9,13.8,1.6,14.7
				c-0.3,1,4.6-1.6,6.1-5.1c1.5-3.6,0.2-10.3,4.5-12.6c0.6-0.5,0.9-0.6,1.1-0.7C71.3,116.6,67,112.6,64.7,109.8z"/>
		</g>
	</g>
	<g id="Shape_230_7_" class="st0">
		<g>
			<path class="st36" d="M98.5,84.6c0.1,0,0.2-0.1,0.2-0.1c0,0,0,0,0-0.1C98.6,84.4,98.5,84.5,98.5,84.6z M100.1,85.7
				c-0.1-0.1-1.3-1.3-1.3-1.3c0,0-0.1,0-0.1,0.1c-0.4,1.5-0.9,2.9-1.3,4.4c-0.4,2.4-1.5,6.9-3,8.8c-2.5,3.3-5,6.4-7.8,9.5
				c-1.3,1.4-5.2,5.3-6.8,5.8c-0.4,0.8-4.8,3.8-5.8,4.4l-0.9,1.7c0,5.6,5.7,9.1,8,13.7c0.5,1,1.3,1.9,1.3,3.1h0
				c1.4-2.3,2.8-4.6,4.2-6.8c2-4.1,4-8.3,6-12.4c3-6.9,5.9-13.9,7.6-21.2c0.4-1.8,0.9-3.6,1-5.4C101.4,88.3,101,87,100.1,85.7z"/>
		</g>
	</g>
	<g id="Shape_236_7_" class="st0">
		<g>
			<path class="st2" d="M138,106.8c-9.7-3.5-28.9-10.7-31.6-15.5s-7.7-8.1-7.7-8.1s-0.1,0.9-0.5,1.6c4.1,0.3,3.6,8.9,0.8,14.9
				c-2.8,6.1-7.8,20.8-12.6,29.3c-5.1,9.1-12.9,30.1-12.9,30.1l78.2-2.4C151.7,156.7,147.6,110.3,138,106.8z"/>
		</g>
	</g>
	<g id="Shape_242_7_" class="st0">
		<g>
			<path class="st37" d="M117.4,118c0,0-3-14.1-4.7-18.7c0.3,4.2,4.3,18,3.6,18.6c-0.7,0.7-8.1,3.7-8.9,4.8c1.5,2.1,6.7,8.4,6.4,9.8
				c-0.3,1.4-16.8,26.2-16.8,26.2s-0.2,1.1,0.4,0.2c0.7-0.9,17.4-25.2,17.3-26.7c-0.1-1.5-6.2-9.4-6.2-9.4l8.1-4L117.4,118z
				 M41.1,108.6c-0.6,2.4,2.5,6.7,2.9,7.4c0.4,0.7-5.9,5.3-7.1,7.2c-1.2,1.9,5,34.8,5.3,36.4c0.3,1.6,0.2-1.1,0.2-1.1
				s-5-32.6-4.7-34.8c0.3-2.2,7.4-7.4,7.4-7.4s-3.1-5.2-3.3-7.2c-0.2-2,4.3-7,6.8-9C46.6,101.1,41.7,106.2,41.1,108.6z"/>
		</g>
	</g>
	<g id="Shape_243_7_" class="st0">
		<g>
			<path class="st38" d="M50.5,59.5c-0.7-4.6-1.9,3.3-1.9,4.6c0,2,1.6,3.4,1.6,3.4s0-0.5-0.4-1.5s0.2-2.5,0.4-3.2
				C50.4,62.1,50.5,59.5,50.5,59.5z"/>
		</g>
	</g>
	<g id="Shape_243_copy_7_" class="st0">
		<g>
			<path class="st38" d="M98.2,59.6c0,0,0.1,2.5,0.2,3.2s0.7,2.2,0.3,3.2c-0.4,1-0.4,1.5-0.4,1.5s1.7-1.4,1.7-3.3
				C100,62.9,99,55,98.2,59.6z"/>
		</g>
	</g>
	<g id="Shape_246_7_" class="st0">
		<g>
			<path class="st38" d="M98,29.9c1.2,1.4,2,5.2,2,5.9c0,0.7-2.4-2.1-2.4-2.1s1.1,2.7,0.2,5.5c-0.3-2.6-1.9-4.4-1.9-4.4
				s1.1,4.4,0.4,6.4C96,38.8,95,38.8,95,38.8s0,3.8,0.3,6.7s0.5,4.2,1.6,5.3c-0.5-1.8-0.7-4,0.4-8.2c0.4,1.3,0.8,1.7,0.8,1.7
				s-0.5-2.7,0.8-5.2c0.3-0.9,0.4-2.5,0.4-2.5l1.5,2.1C100.8,38.6,100.6,31.1,98,29.9z"/>
		</g>
	</g>
	<g id="Shape_244_7_" class="st0">
		<g>
			<path class="st39" d="M51.2,46.9c0.2-1.1,0.2-3.8-0.8-3.4c-0.9,0.5-2.1-2.1-0.2-5.2c1.8-3.1-3.1,2.1-3.4,7.4
				c1.4-1.6,0.5,2.5,0.4,3.9c0.8-1.3,1.1-0.5,0.6,0.9s-0.3,3.9-0.2,4.4c0,0,0.9-3.4,2.5-4.5c1.6-1.1,2-1.9,2-1.9S51,48,51.2,46.9z"
				/>
		</g>
	</g>
	<g id="Shape_245_7_" class="st0">
		<g>
			<path class="st38" d="M65.7,34c1-0.3,6-3.4,4.1-2.6c-1.9,0.8-3.4,0.2-6.3,1.1c-2.8,0.9-5.6,0.1-4.9-0.6c0.7-0.7,4.4-6.1,3.4-5.5
				c-1,0.6-5.4,2.5-3.1,0.8s4.4-4.4,4.4-4.4s-3.5,1.8-1.5-0.3c2-2.1,13.7-4.1,9.1-3.8c-4.6,0.3-7.9,1-10.7,2.5
				c-2.8,1.5-4.5,4.4-4.5,4.4s2.1-1.1,1,0.5c-1.1,1.5-1.4,3-2.1,4.1c1.1,0.3,3-0.1,2.1,1c-0.8,1.1-1.7,2-2.5,2.9
				c2.1,0.7,8.6,0.2,7.9,0.8c-0.7,0.5-2.7,0.6-2.7,0.6s2.8,1.3,4.8,1.1c1.9-0.2,10.5-4.1,10.5-4.1C72.2,33.4,64.7,34.3,65.7,34z"/>
		</g>
	</g>
</g>
</svg>
