<?xml version="1.0" encoding="utf-8"?>
<!-- Generator: Adobe Illustrator 19.1.0, SVG Export Plug-In . SVG Version: 6.00 Build 0)  -->
<svg version="1.1" id="Layer_1" xmlns="http://www.w3.org/2000/svg" xmlns:xlink="http://www.w3.org/1999/xlink" x="0px" y="0px"
	 viewBox="0 0 150 150" style="enable-background:new 0 0 150 150;" xml:space="preserve">
<style type="text/css">
	.st0{clip-path:url(#SVGID_3_);}
	.st1{fill-rule:evenodd;clip-rule:evenodd;fill:#494651;}
	.st2{fill-rule:evenodd;clip-rule:evenodd;fill:#8F5B51;}
	.st3{fill-rule:evenodd;clip-rule:evenodd;fill:#98564E;}
	.st4{fill-rule:evenodd;clip-rule:evenodd;fill:#B56B62;}
	.st5{fill-rule:evenodd;clip-rule:evenodd;fill:#DA8C83;}
	.st6{fill-rule:evenodd;clip-rule:evenodd;fill:#AB6457;}
	.st7{fill-rule:evenodd;clip-rule:evenodd;fill:#884B45;}
	.st8{fill-rule:evenodd;clip-rule:evenodd;fill:#040303;}
	.st9{fill-rule:evenodd;clip-rule:evenodd;fill:#75433F;}
	.st10{fill-rule:evenodd;clip-rule:evenodd;fill:#AB8A80;}
	.st11{fill-rule:evenodd;clip-rule:evenodd;fill:#D3C3B9;}
	.st12{fill-rule:evenodd;clip-rule:evenodd;fill:#BE756C;}
	.st13{fill-rule:evenodd;clip-rule:evenodd;fill:#DC998D;}
	.st14{fill-rule:evenodd;clip-rule:evenodd;fill:#EAB7AC;}
	.st15{fill-rule:evenodd;clip-rule:evenodd;fill:#F2CFCC;}
	.st16{fill-rule:evenodd;clip-rule:evenodd;fill:#8C4D40;}
	.st17{fill-rule:evenodd;clip-rule:evenodd;fill:#76342F;}
	.st18{fill-rule:evenodd;clip-rule:evenodd;fill:#975746;}
	.st19{fill-rule:evenodd;clip-rule:evenodd;fill:#E49992;}
	.st20{fill-rule:evenodd;clip-rule:evenodd;fill:#BA7566;}
	.st21{fill-rule:evenodd;clip-rule:evenodd;fill:#D2807A;}
	.st22{fill-rule:evenodd;clip-rule:evenodd;fill:#E6ABAB;}
	.st23{fill-rule:evenodd;clip-rule:evenodd;fill:#ECA29A;}
	.st24{fill-rule:evenodd;clip-rule:evenodd;fill:#BF7066;}
	.st25{fill-rule:evenodd;clip-rule:evenodd;fill:#CC8077;}
	.st26{fill-rule:evenodd;clip-rule:evenodd;fill:#C08071;}
	.st27{fill-rule:evenodd;clip-rule:evenodd;fill:#EBA39B;}
	.st28{fill-rule:evenodd;clip-rule:evenodd;fill:#BB7466;}
	.st29{fill-rule:evenodd;clip-rule:evenodd;fill:#D4837B;}
	.st30{fill-rule:evenodd;clip-rule:evenodd;fill:#C3746D;}
	.st31{fill-rule:evenodd;clip-rule:evenodd;fill:#5E2E27;}
	.st32{fill-rule:evenodd;clip-rule:evenodd;fill:#DD9288;}
	.st33{fill-rule:evenodd;clip-rule:evenodd;fill:#EFAA91;}
	.st34{fill-rule:evenodd;clip-rule:evenodd;fill:#EEBCAF;}
	.st35{fill-rule:evenodd;clip-rule:evenodd;fill:#FAC7C6;}
	.st36{fill-rule:evenodd;clip-rule:evenodd;fill:#CF9189;}
	.st37{fill-rule:evenodd;clip-rule:evenodd;fill:#B7726C;}
	.st38{fill-rule:evenodd;clip-rule:evenodd;fill:#965E54;}
	.st39{fill-rule:evenodd;clip-rule:evenodd;fill:#6B4C55;}
	.st40{fill-rule:evenodd;clip-rule:evenodd;fill:#71594F;}
	.st41{fill-rule:evenodd;clip-rule:evenodd;fill:#503538;}
	.st42{fill-rule:evenodd;clip-rule:evenodd;fill:#C27A70;}
	.st43{fill-rule:evenodd;clip-rule:evenodd;fill:#7D413A;}
	.st44{fill-rule:evenodd;clip-rule:evenodd;fill:#5E2925;}
	.st45{fill-rule:evenodd;clip-rule:evenodd;fill:#EAAE9E;}
	.st46{fill-rule:evenodd;clip-rule:evenodd;fill:#F6CCC0;}
	.st47{fill-rule:evenodd;clip-rule:evenodd;fill:#F0B79C;}
	.st48{fill-rule:evenodd;clip-rule:evenodd;fill:#F2C6C2;}
	.st49{fill-rule:evenodd;clip-rule:evenodd;fill:#7D4742;}
	.st50{fill-rule:evenodd;clip-rule:evenodd;fill:#79635A;}
	.st51{fill-rule:evenodd;clip-rule:evenodd;fill:#2E2827;}
	.st52{fill-rule:evenodd;clip-rule:evenodd;fill:#915850;}
	.st53{fill-rule:evenodd;clip-rule:evenodd;fill:#A0655F;}
	.st54{fill-rule:evenodd;clip-rule:evenodd;fill:#A15D56;}
	.st55{fill-rule:evenodd;clip-rule:evenodd;fill:#E2CCCC;}
	.st56{fill-rule:evenodd;clip-rule:evenodd;fill:#F6C2AE;}
	.st57{fill-rule:evenodd;clip-rule:evenodd;fill:#FDD9AB;}
	.st58{fill-rule:evenodd;clip-rule:evenodd;fill:#644A2B;}
	.st59{fill-rule:evenodd;clip-rule:evenodd;fill:#866B61;}
	.st60{fill-rule:evenodd;clip-rule:evenodd;fill:#A5655F;}
	.st61{fill-rule:evenodd;clip-rule:evenodd;fill:#CF8570;}
	.st62{fill-rule:evenodd;clip-rule:evenodd;fill:#80463F;}
	.st63{fill-rule:evenodd;clip-rule:evenodd;fill:#F1B7A3;}
	.st64{fill-rule:evenodd;clip-rule:evenodd;fill:#B66C62;}
	.st65{fill-rule:evenodd;clip-rule:evenodd;fill:#B8695C;}
	.st66{fill-rule:evenodd;clip-rule:evenodd;fill:#ECA995;}
	.st67{fill-rule:evenodd;clip-rule:evenodd;fill:#E9E8E7;}
	.st68{fill-rule:evenodd;clip-rule:evenodd;fill:#CFC5C6;}
	.st69{fill-rule:evenodd;clip-rule:evenodd;fill:#F4F4F4;}
	.st70{fill-rule:evenodd;clip-rule:evenodd;fill:#393741;}
	.st71{fill-rule:evenodd;clip-rule:evenodd;fill:#FFFFFF;}
</style>
<g>
	<defs>
		<circle id="SVGID_1_" cx="75" cy="75" r="75"/>
	</defs>
	<linearGradient id="SVGID_2_" gradientUnits="userSpaceOnUse" x1="75" y1="150" x2="75" y2="0">
		<stop  offset="0" style="stop-color:#212121"/>
		<stop  offset="1" style="stop-color:#488FCC"/>
	</linearGradient>
	<use xlink:href="#SVGID_1_"  style="overflow:visible;fill-rule:evenodd;clip-rule:evenodd;fill:url(#SVGID_2_);"/>
	<clipPath id="SVGID_3_">
		<use xlink:href="#SVGID_1_"  style="overflow:visible;"/>
	</clipPath>
	<g id="Shape_265_3_" class="st0">
		<g>
			<path class="st1" d="M131.3,101c-6.1-1.5-20-2-25.4-4.5c-5.4-2.5-9.5-7.4-9.5-7.4s-40,3.6-42.5,5.3c-2.5,1.8-6.3,4.9-10.2,5.6
				s-14.9,4.9-25.8,9.4c-10.9,4.4-22.2,8.7-22.2,8.7v48h155.6c0,0,0-51.2,0-58.8C148.1,104.2,137.4,102.4,131.3,101z"/>
		</g>
	</g>
	<g id="Shape_121_2_" class="st0">
		<g>
			<path class="st2" d="M43.2,57.2c0,0-4.9-3.7-5.4-1.7s0.2,2.5,1.4,6c1.3,3.5,1.2,4,2.9,5.8s1.3,3.2,1.7,5.7c0.4,2.5,0.1,4,1.4,6.7
				c1.3,2.7,1,2.8,2.8,2c1.8-0.8,2.8-12.6,2.8-12.6L43.2,57.2z"/>
		</g>
	</g>
	<g id="Shape_82_7_" class="st0">
		<g>
			<path class="st3" d="M53.3,91.7c0,0,1.3,7.2,2.2,10.7s0.6,11,0.9,14.5c0.4,3.5,6.2,29.2,18.5,15.4c12.3-13.8,15.5-19.2,15.5-19.2
				s3.9-16.8,4.6-21.7C95.8,86.5,52.1,85,53.3,91.7z"/>
		</g>
	</g>
	<g id="Shape_81_7_" class="st0">
		<g>
			<path class="st4" d="M98,26.1c-5.6-5.2-13.3-11-25.9-10.2c0,0-21.2,1.5-25.9,14.2c-4.7,12.7-3.5,21.6-2.5,29.2
				c1,7.6,1.5,9.2,2,12.8s1.5,12.1,5.6,17.3s4.5,7.6,8.2,11.4c3.7,3.8,7.1,4.7,12.8,5.5s9.2-1.7,13.2-3.9s6.6-7.4,8.5-9.5
				c1.8-2.1,4.8-7.4,5.6-11.4c0.8-4,1-10.2,2.4-14.9c1.4-4.7,1.2-12.4,1.7-15.7S103.7,31.3,98,26.1z"/>
		</g>
	</g>
	<g id="Shape_104_7_" class="st0">
		<g>
			<path class="st5" d="M101,71.5c-0.1-0.9-0.6-6.8-0.3-9.7c0.3-2.9,0.4-6.6,0-8.5c-0.3-1.9-1.6-13.4-2.3-15.7
				c-0.7-2.4-0.4-7.8-3.3-11c-2.9-3.2-11.6-6.4-17.8-6.9c-6.2-0.5-15.7,2.8-22.5,7c-0.2,0.1-4.7,3.5-3.7,6.9
				c1.1,3.5,6.2,8.9,6.2,10.2C57.6,49,61,51,70.9,59.6c-1.2-1,1.3,2.5,0.8,4.1c-0.5,1.6,0.9,5.5,2.2,7.3s-2.1,7.5-0.6,9.1
				c2.6,2.8,7.7,5.4,6.5,7.9c-0.8,1.6-3.1,4-2.8,5.1c0.8,3,6.8,6.1,6.1,7.9c-0.7,1.8,5.2-2.3,9-6c3.8-3.7,3.8-4.3,5.3-6.4
				s2.1-6.6,2.4-8.1C100.2,78.9,101.1,72.3,101,71.5z"/>
		</g>
	</g>
	<g id="Shape_103_7_" class="st0">
		<g>
			<path class="st6" d="M90.5,77.2c-0.2-1.5-1-2.5-2-3.9c-0.9-1.4-2.6-1.9-4.3-2.8s-2.9-1.1-4.3-1c-1.4,0.1,0.3,2.6,0.8,3.1
				c0.6,0.5,1.4,3,1.7,4.1c0.2,1.1,0.9,1.2,2.1,1.4c1.2,0.2,1.2,0.9,0.7,1.2s-1.7,1.1-2.7,1.6c-0.9,0.5-3,0.1-4.3-0.1
				c-1.3-0.2-3.2-0.2-4.3-0.8s0-2.2,0.2-3.5c0.2-1.3,2.4-2,2.4-2S71,72,70.8,72c-0.2,0-3.7,1.1-4.1,1.7c-0.5,0.6,1.5,1.8,1.7,2.4
				c0.2,0.6,0.5,1,0.2,2S67,79,66.1,79.4c-0.9,0.4-3.6,0.6-4.8,0.5c-1.1-0.1-1.7,0.1-2.4-0.1s-0.5-1.6,0.1-2c0.6-0.4,0.6-3,0.9-3.8
				c0.3-0.9,0.5-1.6,0.7-2.3c0.2-0.7,0.2-1.3-0.1-1.2c-0.3,0.2-1,1-1.8,1.9c-0.8,0.9-1,1.1-1.7,1.8c-0.7,0.7-1.3,1.2-2.1,2.1
				c-0.9,0.9-1.3,2.6-0.7,4.7c0.6,2.2,1.7,2.2,2,2.7c0.4,0.5,0.4,1.4,0.6,2.1c0.2,0.6,0,1.6,0,2.6s0.8-1.4,0.8-2
				c0-0.5,0-2.1,0.1-2.3c0.1-0.2,2.4,0.2,2.9,0.4c0.5,0.3,2.7,2.3,3.3,2.9c0.6,0.7,0.4,1.3-0.3,0.8c-0.7-0.4-2.1-0.8-1.9-0.4
				s1.9,2,2.5,2.2c0.6,0.2,3.1,1.5,3.5,1.6c0.4,0.2,1.4,0.3,2.3,0.1c0.9-0.1,5.1-0.4,6-0.7c0.9-0.3,1.2-1.1,0.5-1
				c-0.7,0.1-1.5,0.2-2.8,0.3c-1.3,0.1-3-0.2-4.3-0.2c-1.3,0-2.9-1.4-3.1-1.9c-0.2-0.5,1.3-1,2.5-0.9s3.9-0.2,3.9-0.2
				s4.9-1.1,5.6-1.4c0.6-0.3,4.4-2.2,5.2-2.3c0.8-0.1,1.7,0.1,2.2,0c0.5-0.2,0.4,1.7,0.2,2.5s1.2,3.1,1.5,3.7
				c0.4,0.5,1.1-0.7,0.8-1.5s0.1-1.6,0.1-2.6s1.1-1.9,1.6-2.9C90.4,81.3,90.7,78.7,90.5,77.2z"/>
		</g>
	</g>
	<g id="Shape_97_2_" class="st0">
		<g>
			<path class="st7" d="M85.3,81.4c-0.9,0.2-2.1,0.3-3.1,0.4c-1,0.1-2.3,0.3-3.6,0.2c-1.3-0.1-3.5-0.4-4.6-0.4
				c-1.1,0-2.1,0.3-2.9,0.4c-0.8,0.1-1.4-0.3-2.4-0.4s-2.5,0.2-3.8,0.2c-1.3,0-3.5,0.3-4.5,0.3c-0.7,0-1-0.1-1.9-0.2
				c-1.4-0.3,0.2,0.7,0.2,0.7s2.3,2.1,2.9,2.6s2,2.4,2.7,2.6c0.8,0.2-0.1-1.1,0.5-1.4s2.5,0.5,3.2,0.5c0.6-0.1,3.9,0.2,5.2,0
				s4.6-1.2,5.1-1.5c0.5-0.3,2-0.9,2.4-1c0.4-0.1,2.2-1.2,2.7-1.7s2.7-1.3,2.7-1.3S86.2,81.2,85.3,81.4z"/>
		</g>
	</g>
	<g id="Shape_99_5_" class="st0">
		<g>
			<path class="st8" d="M63.2,82.4c-0.8,0-2.9,0.3-2.9,0.3c2.3,1.9,5.1,2.6,5.1,2.6s0.1-2.3-0.2-2.3S64,82.4,63.2,82.4z M81.5,82.4
				c-1,0.1-1.6,0.8-1.6,0.8s-0.7,1.1,0,0.9c0.7-0.3,3.4-1.8,3.4-1.8S82.5,82.3,81.5,82.4z"/>
		</g>
	</g>
	<g id="Shape_96_7_" class="st0">
		<g>
			<path class="st9" d="M71.4,82.6c-1.7,0-10-0.4-9.4-0.2c0,0,0.8,0.7,1.2,0.9c0.5,0.2,6.4,1.5,7.9,1.4s7-0.6,7.7-0.9
				c0.7-0.2,1.8-1.2,2.7-1.4C82.4,82.2,73.1,82.6,71.4,82.6z"/>
		</g>
	</g>
	<g id="Shape_95_2_" class="st0">
		<g>
			<path class="st10" d="M78.6,82.7c-0.9-0.1-1.2,0.7-1.2,0.7s-0.5,2.1,0,2c0.5-0.1,2.7-1.3,2.7-1.9C80.2,82.9,79.5,82.8,78.6,82.7z
				 M64.6,82.3c-0.5-0.3-0.9-0.1-1.2,0.2c-0.3,0.3-0.4,1.9-0.4,1.9c0.6,0.4,2.1,0.8,2.1,0.8s0.2-1.8,0.3-2
				C65.5,83.1,65.1,82.6,64.6,82.3z"/>
		</g>
	</g>
	<g id="Shape_94_2_" class="st0">
		<g>
			<path class="st11" d="M77.4,83.6c-0.2-0.5-0.6-0.8-1.5-0.8c-0.9,0-0.8,0.7-1.2,1.1c-0.4,0.4-1-0.8-1.8-1
				c-0.9-0.1-1.1,0.2-1.8,0.8c-0.7,0.6-0.7-0.5-1.7-1c-1-0.5-1.4,0-1.8,0.5c-0.4,0.5-0.3,0.4-1-0.2c-0.7-0.6-1-0.4-1.2,0.1
				c-0.2,0.5-0.3,2-0.3,2l0.7,0.9l0.7,0l0.6-0.1l0.4,0.6l2.7,0.1l0.5-0.4l0.3,0.3l3-0.1l0.7-0.4l0.9,0l1.6-0.8
				C77.3,85.3,77.6,84.1,77.4,83.6z"/>
		</g>
	</g>
	<g id="Shape_83_7_" class="st0">
		<g>
			<path class="st12" d="M77.4,68.9c-1.5-1.8-2.2-4.3-3.5-6.8c-1.3-2.5,0.2-1.6-0.4-5.4c-0.7-3.8-4.3-2.8-4.8-1.7
				C68,56.1,65,65,64.3,66.7c-0.7,1.7-1.9,3.2-1.3,5.3c0.6,2.1,2.5,1.9,4.6,3c2.1,1.1,1.8,2.3,4.3,0.4c2.6-1.9,2.6-0.1,5.1-1.3
				S78.8,70.7,77.4,68.9z"/>
		</g>
	</g>
	<g id="Shape_84_2_" class="st0">
		<g>
			<path class="st13" d="M78.1,70.5c-1.3-1.9-1.6-3.3-2-3.7C75.8,66.3,76,66,75,64.3c-1-1.7-1.9-3-1.9-4.9c0-1.3,0.7-3.5-0.9-4.7
				c0,0-2.3-0.8-3.1,0.4c-0.7,1.2-0.8,3.4-1.1,4.6c-0.4,1.3-1.3,2.3-1.7,4.1c-0.4,1.8-0.6,2.8-0.4,5.6c0.1,2.9,1.1,3.4,3.5,4.1
				c2.1,0.6,2.9,0.4,4.6,0.1c1.8-0.3,1.7,0,2.9-0.3C78.2,73,79.4,72.4,78.1,70.5z"/>
		</g>
	</g>
	<g id="Shape_85_7_" class="st0">
		<g>
			<path class="st14" d="M76.9,69.4c-1.4-1.1-1.4-1.9-1.7-2.8c-0.3-0.8-2.1-5.2-2.3-6.3c-0.1-1,0.3-3.7-0.6-4.8
				c-1-1.1-1.8-0.4-2,0.2c0,0-0.5,2-0.8,3.6c-0.3,1.6-0.5,3.2-0.3,5.6c0.2,2.5,0.5,5,1.7,6.2s2,1,3.5,1.2c1.6,0.2,2.6,0.6,3.3,0
				C78.5,71.6,78.3,70.5,76.9,69.4z"/>
		</g>
	</g>
	<g id="Shape_86_7_" class="st0">
		<g>
			<path class="st15" d="M74.1,67.1c-0.7-0.7-1.5-2.4-1.8-3.3c-0.3-0.9-0.7-2.3-0.7-3.4s0.1-3-0.8-1.2c0,0-0.9,2.6-0.7,4.2
				c0.2,1.6,0.1,3,1.5,4.7c1.4,1.7,2.3,1.8,3,1.2C75.1,68.9,74.8,67.8,74.1,67.1z"/>
		</g>
	</g>
	<g id="Shape_87_7_" class="st0">
		<g>
			<path class="st16" d="M78.6,69.5c-0.5-0.5-1.3-0.4-1-0.2s1.1,2.2,1.1,2.8c0,0.6-0.3,1-1.1,1.5c-0.8,0.5-1.1,0.6-1.5,0.4
				c-0.4-0.3-0.3-0.4-1.3-0.4s-1.9,0.8-3,1.4c-1.1,0.7-1.6,0.8-2.9,0.6c-1.3-0.3-1.7-1.1-2.6-1.9s-1.6-0.4-1.6-0.4
				C63,72.8,63,71.5,63,70.3s1.5-2.4,0.4-1.9c-1.1,0.5-1.2,2.2-0.7,4c0.5,1.8,1.8,2.1,2.5,2c0.7-0.1,0.9,0.3,2,0.7
				c1,0.3,0.7,1.7,2.3,2c1.7,0.3,3.3-1.3,3.8-1.5c0.7-0.2,2.6-0.4,3.5-0.8s1.9-1.7,2.3-2.5C79.6,71.6,79.1,70,78.6,69.5z"/>
		</g>
	</g>
	<g id="Shape_88_7_" class="st0">
		<g>
			<path class="st17" d="M74.9,73.8c-1.2,0-2.7,1.2-2.7,1.2c0.4-0.3,2.3,0.3,3.5-0.2S76.1,73.8,74.9,73.8z"/>
		</g>
	</g>
	<g id="Shape_89_2_" class="st0">
		<g>
			<path class="st17" d="M65.8,73.5c-0.8-0.4-1.2,0.1-1.2,0.1c-0.5,0,0.5,0.5,0.8,0.5c0.4,0,1.7,0.4,1.7,0.4S66.7,73.8,65.8,73.5z"
				/>
		</g>
	</g>
	<g id="Shape_93_7_" class="st0">
		<g>
			<path class="st18" d="M87.9,76.2c-0.8-1.6-1.7-2.5-2.6-3c-0.8-0.5-4.4-2.5-5-3.2c-0.6-0.6,0.1-1.4,2.5-1.6
				c0.8-0.1,4.4-0.2,5.1-0.3c0.6-0.1,2.1-0.8-0.4-1c-2.4-0.3-4.1,0.2-5.2,0.2c-1.2-0.1-3.6-0.2-4.4-0.7c-0.8-0.4-1.4-1-2.3-2.9
				c-0.9-1.9-2-3.5-2.1-4.3c-0.1-0.8-0.1-2.1,0.1-2.7c0.2-0.7-0.1-1.2,0.8-1.5c0.9-0.3,2.5-0.7,3.5-0.8c1-0.1,2.6-0.6,4.4-0.6
				c1.7-0.1,4.3-0.2,5.4-0.1C88.8,53.7,89,53,89,53s-3.7-1.2-5.6-1.5c-1.9-0.3-5.4,1.3-6.7,1.2c-1.3-0.1-2.5,0.5-3.4,0.8
				c-0.9,0.3-3.4,0.2-2.4,0.7s2.4,0.9,2.1,1.7s-0.6,0.9-1,1.5c-0.4,0.6-0.5,0.4,0.2,1.5s0.8,1.4,1,2.4c0.2,0.9,2,3.9,2.5,5
				s1,1.9,1.5,2.5s1.3,1.9,1.3,2.5c0,0.7,0,0.6,0.7,0.8c0.7,0.2,2.2,0.4,3,1c0.7,0.6,1.5,0.9,2.9,2.2c1.4,1.3,0.7,1.8,1.3,2.8
				c0.6,1,0.7,1.8,0.5,2c-0.2,0.3-1.7,2.5-1.2,3.1s0.8,3.3,1.3,2.7c0.5-0.6,0.8-2.4,1.2-3.1c0.4-0.7,1.1-1.4,1.3-2.2
				C89.7,80,88.8,77.9,87.9,76.2z M63,66.5c-0.7,0.5-1.5,2-2.8,3c-1.8,1.5-1.5,2.8-1.8,3.7c-0.3,0.8-1.3,2.1-2.1,3.2
				c-0.8,1.1-1.2,0.9-1.6,2.7c-0.4,1.7,0.5,3.6,1,4.8c0.6,1.2,0.6,1.4,1,0.8c0.3-0.6,0.2-2.1,0.6-2.4s1.7-0.1,0.9-0.5
				c-0.8-0.5-2.1-0.4-2.7-0.6s-0.3-2,0.1-2.7c0.4-0.7,1.9-2.1,2.2-3.2c0.3-1.1,2.1-2,3-2.6s2.1,0.5,1.8-0.6s1.1-3.7,1.3-4.2
				C66.7,61.8,63,66.5,63,66.5z"/>
		</g>
	</g>
	<g id="Shape_91_7_" class="st0">
		<g>
			<path class="st19" d="M84.8,77.7c-1.3-0.6-2.7-0.6-2.9-1.7c-0.3-1.6-1.5-4.3-2.9-3.3c0,0-1.2,1.8-2,2.1c-0.8,0.2-2,1.3-2.3,2.2
				c-0.3,0.9,0,1.3,1.5,2.1c1.5,0.8,1.6,1,3.4,1.1s2.8,0.1,3.8-0.2C84.4,79.4,86.1,78.2,84.8,77.7z"/>
		</g>
	</g>
	<g id="Shape_92_7_" class="st0">
		<g>
			<path class="st20" d="M67,78c-0.6-1.4-0.9-1.4-2.2-2.1c-0.4-0.3-1.5-0.9-1.9-1.8c-0.6-1.4-1.4-1.7-2.3-0.4c0,0-0.8,0.8-0.8,2
				c0,1.2-0.1,2.2-0.9,2.7S57.2,79,59,79.7c1.8,0.7,3.6,0.6,5.2,0.3S67.6,79.4,67,78z"/>
		</g>
	</g>
	<g id="Shape_100_2_" class="st0">
		<g>
			<path class="st21" d="M80.2,84.8c0,0-4.5,2.5-9.8,2.2s-4.9-0.7-5.9-1c-1-0.3-0.2,2.2,0.7,2.6c0.9,0.4,4.9,0.9,7.2,0.7
				s5.1-0.8,6.1-1.4C79.7,87.3,82.8,84.8,80.2,84.8z"/>
		</g>
	</g>
	<g id="Shape_101_2_" class="st0">
		<g>
			<path class="st22" d="M80.5,85.4c-0.9-0.5-1.6,0.1-2.6,0.6c0,0-2.2,1-0.6,1.1C78.8,87.2,81.4,85.9,80.5,85.4z"/>
		</g>
	</g>
	<g id="Shape_102_7_" class="st0">
		<g>
			<path class="st23" d="M82.5,78.3c-1.3-0.1-2.2-0.3-3.3-1s-2.8-1-2.8-1c-0.6,0,0,1.3,0.6,2.3c0.6,1.1,1.2,0.9,1.8,0.8
				c0.6-0.1,1.9,0.1,2.7,0.3c0.9,0.2,2.1,0.3,2.9-0.4C85.3,78.6,83.8,78.4,82.5,78.3z"/>
		</g>
	</g>
	<g id="Shape_105_7_" class="st0">
		<g>
			<path class="st24" d="M83,92.4c-0.8,0.8-0.8,1.4-2.6,2.2c-1.8,0.8-2.6,0.3-4.8,0.3c-2.3,0-4.1,0.5-6.8,0.1
				c-2.7-0.4-3.2,0.5-4.4,0.9c-1.2,0.4-2.4-1.6-2.4-1.6c-2.5,0.6,1.6,8.2,4.5,9.3s5.7,1.2,10.2,0.7c4.5-0.5,6.1-0.5,7.6-5.4
				C85.3,96.4,83.8,91.6,83,92.4z"/>
		</g>
	</g>
	<g id="Shape_106_7_" class="st0">
		<g>
			<path class="st25" d="M81.6,94.4c-2.2,0.3-5.1,1-7.3,1.2c-2.2,0.2-6.1-0.4-4.8,0c0,0-1.2,1.4,0.1,3.5c1.3,2.1,3.3,2.6,6.5,3.4
				s4.3,1.4,6.4-0.2C84.6,100.6,83.8,94.1,81.6,94.4z"/>
		</g>
	</g>
	<g id="Shape_108_7_" class="st0">
		<g>
			<path class="st26" d="M54.3,81.9c0,0,0.3,2.5-0.2,3.7c-0.5,1.3-0.8,2.3,0.5,3.9c1.4,1.7,1.5,1,2-1.8C57,85.1,54.5,80.3,54.3,81.9
				z"/>
		</g>
	</g>
	<g id="Shape_109_7_" class="st0">
		<g>
			<path class="st20" d="M58.1,69.1c-2.7,0-7.6-1.5-7.6-0.3c0,0-1.7,4.5,0.9,4.5s3.7-0.8,5.3-1.4C58.3,71.3,60.9,69.1,58.1,69.1z"/>
		</g>
	</g>
	<g id="Shape_107_7_" class="st0">
		<g>
			<path class="st27" d="M85.2,87.4c-0.9-1.4-2.3-0.3-3.6,0.7c-1.4,0.9-1.6,3.2-0.1,3.9c1.6,0.7,0.8,1.5-0.6,2.3s-5,1.1-5,1.1
				c-1.1,3.3,2.6,6,4.3,6.8c1.7,0.8,2.9-0.1,4.1-1.2c1.2-1.1,1-2.8,1.3-4.4c0.2-1.6,0.9-3.1,0.8-4.6C86.3,90.5,86.1,88.7,85.2,87.4z
				"/>
		</g>
	</g>
	<g id="Shape_110_7_" class="st0">
		<g>
			<path class="st28" d="M77.3,90.5c-1.7,0.2-10.4,0.6-11.6,0.5c-1.2-0.1-1.8-0.7-3.8-2.2c-1.9-1.5-2.2-5.2-3.1-4.1
				c0,0-1.6,2.5-0.7,4.7c0.9,2.2,5.1,5.2,5.9,5.7c0.8,0.5,1.5-0.4,3.2-0.4c1.7-0.1,3.3,0,5.3,0c2,0,3,0,4.1-0.2c1-0.2,0.5-1,0.3-2
				C76.7,91.5,79.1,90.4,77.3,90.5z"/>
		</g>
	</g>
	<g id="Shape_115_2_" class="st0">
		<g>
			<path class="st29" d="M84.7,50.5c0,0-3.6-2.2-9.1-2.7c-5.5-0.4-6.4,1-8.6-0.6c-2.2-1.6-5.8-2.4-7.9-0.9c-1.5,1.1-2.8,3.2,0.6,4.7
				c3.4,1.5,6,1,6.9,2.7c0.9,1.6,0.4,0.3,3.6,0.5c3.2,0.2,2.6-0.4,4.3-0.2C76.3,54.2,94,52.4,84.7,50.5z"/>
		</g>
	</g>
	<g id="Shape_116_7_" class="st0">
		<g>
			<path class="st30" d="M59.1,47.7c-2.6-1.1,1-10.8,0.8-14.4c-0.2-3.6-1.3-8.2-4.9-5.3c-3.6,2.8-5.3,6.6-5,10.1
				c0.2,3.5,0.8,6.3,0.1,9.2c-0.7,3,0.4,5.4,1.5,5c1-0.4,10.3-0.9,10.3-0.9C65.9,50.7,63,49.4,59.1,47.7z"/>
		</g>
	</g>
	<g id="Shape_117_7_" class="st0">
		<g>
			<path class="st7" d="M65.5,52.3c-1.7-0.7-3.5-1.3-5.4-1.9c-1.8-0.5-2.7-0.5-5.2-0.9c-2.1-0.3-1.8-0.9-3.3-0.1
				c-1.5,0.8-2.4,3.7-2.4,3.7c-1.3,0.4,6.6-0.1,8.8,0.2s3.7,0.5,5.4,1.4c1.7,1,1.6,2,1.4,4c-0.3,2,0.7,3.6,1.1,3
				c0.5-0.7,1.4-5.3,1.6-6.1C67.8,54.8,67.2,53,65.5,52.3z"/>
		</g>
	</g>
	<g id="Shape_118_7_" class="st0">
		<g>
			<path class="st7" d="M81.3,67.4c-1-0.2-3.3,0-4.4-1.8c-1.1-1.8-2.8-4.3-3.1-6.7c-0.3-2.3,0.3-3.7,1.8-4.2
				c1.5-0.5-0.1-0.4,3.5-0.7c3.6-0.2,5.3-1.3,5.3-1.3s-1.9-2.1-3.9-1.8c-2,0.3-3.3,2-4,1.9c-0.7,0-1.4-1.7-2.1-0.8
				c-0.8,0.8-1.1,1.7-2.7,1.8c-2,0.1,1.4,1.1,1.5,1.9s-0.8,2-0.8,2s-0.2,1.1,0.5,2.3s0.6,2.2,1.7,3.1c1.1,0.9,0.7,2.5,1.5,3.7
				s0.8,1.1,2.4,1S82.3,67.6,81.3,67.4z"/>
		</g>
	</g>
	<g id="Shape_120_5_" class="st0">
		<g>
			<path class="st31" d="M88,78.4c-0.4-1-1.5-2.2-1.5-2.2c-1.1-0.2,0.6,2,1,2.7c0.4,0.7,0.4,1.2,0.2,1.9s-0.6,1-0.7,2.6
				c-0.2,1.6,0.6,1.8,0.7,0.8c0.1-1,0.1-2.1,0.6-2.7S88.3,79.4,88,78.4z"/>
		</g>
	</g>
	<g id="Shape_122_2_" class="st0">
		<g>
			<path class="st32" d="M110.4,55.5c-1.2-2.4-4.3,0.2-4.3,0.2s-3.5,1.4-5.5,5.3c-1.9,3.9-1.8,4.7-2.4,9.4s-0.3,12.8,1.2,12.6
				c1.5-0.2,3.5-3.4,4-5s1.4-3.8,1.7-5.5c0.4-1.7,1.7-4.2,2.4-5.2c0.8-1,2.9-3.3,3-4C110.6,62.6,111.6,57.9,110.4,55.5z"/>
		</g>
	</g>
	<g id="Shape_124_2_" class="st0">
		<g>
			<path class="st33" d="M106.7,60.5c0,0-1.5-0.3-1.8,0.3c-0.3,0.7,0.3,2,0.6,3.1c0.2,1.1,0,2.4-0.2,3c-0.1,0.6-0.4,2.4-0.7,3
				c-0.4,0.6-0.8,0.6-1.5,0.9c-0.7,0.3-1,0.6-1.5,0.4c-0.5-0.3,0.8-2.9,1.1-3.6c0.3-0.6-0.7-2.9-0.7-2.9s-1.2,2.5-1.2,3
				c0,0.4-0.7,2.4-0.7,2.6c0,0.1-0.3,3.4-0.2,3.6c0.1,0.2-0.1,2.2-0.1,3.6c0.1,1.4,0.2,1.5,1.1,3s1.4-0.8,1.8-1.5
				c0.4-0.7,0.8-2.3,0.9-2.7c0.1-0.4,0.7-1.8,0.8-2.3c0.2-0.4,0.4-1.5,0.4-1.7c0-0.2-0.7,0.5-1.1,1.2c-0.4,0.7-0.7,1.2-0.8,0.8
				s-0.1-0.5-0.4-0.3c-0.3,0.2-0.7,0.5-1.1,0.8c-0.4,0.3-0.6-0.2-0.7-1s0.5-0.3,1-0.2c0.5,0.1,0.9,0,1.2-0.2
				c0.3-0.2,0.6-0.8,0.8-1.4c0.2-0.6,0.6-0.6,0.9-0.8c0.3-0.2,0.5-0.7,0.5-1.1c0-0.4,0.5-1.2,0.7-1.8c0.2-0.6,1.2-4.4,1.1-4.6
				S106.7,60.5,106.7,60.5z"/>
		</g>
	</g>
	<g id="Shape_125_5_" class="st0">
		<g>
			<path class="st34" d="M98.4,35.9c-0.7-2.6,0.2-8.4-9.2-12.3c-9.3-4-10.6-3.6-12.9-3.9c0,0-9.6-0.8-7.4,3.4
				c2.2,4.2,2.1,5.7,3.4,9.6c1.2,3.8,1.5,6.4,2.8,7.5s-0.4,2.1,1.8,4.6c2.2,2.4,3,3.8,4.8,4.7c1.8,1,4,0.1,5.7,1.2
				c1.7,1.1,4.5,1.5,5.2,2.4c0.6,0.8,1.5,3,2.8,3c2.3-0.1,3.3,0.3,4.2-0.9c0.5-0.6,0.6-1.6,0.7-3C101.1,44.1,99.1,38.6,98.4,35.9z"
				/>
		</g>
	</g>
	<g id="Shape_123_2_" class="st0">
		<g>
			<path class="st35" d="M104.2,72.5c-0.5,0.6-1.5,1.6-1.5,1.8s-0.2-0.5-0.6,0c-0.4,0.5-1.3,1.4-1.6,0.1s0.2-1.2,0.9-1.1
				c0.7,0.1,1.2,0.5,1.4-0.1c0.2-0.5,0.8-1.2,0.5-1.6c-0.3-0.4-0.3-0.5-1-0.2c-0.7,0.3-0.7,1-1.3,0.5c-0.6-0.5-1,0-1.3,0.8
				c-0.4,0.8-0.4,3.3-0.5,3.6c-0.1,0.3,0.8,2.1,0.8,2.1s0.4,3.8,1.5,2.5c1.1-1.3,1-2.3,1.5-3.5c0.5-1.3,1-1.9,1.2-2.7
				S104.6,72,104.2,72.5z"/>
		</g>
	</g>
	<g id="Shape_129_1_" class="st0">
		<g>
			<path class="st36" d="M82,53.7c0.8-0.1,1.6-0.1,2.5-0.2C84.5,53.5,83,53.5,82,53.7z M93.6,60.5c1.2-0.2,0.1-1.2-0.3-1.9
				c-0.4-0.7-1.4-0.6-2.6-0.7c-1.1-0.1-1.6-0.5-3.3-1.2s-4.7-0.6-6.1-1.9c-0.6-0.6-0.1-0.9,0.7-1.1c-2.9,0.2-5.1,0.6-6.4,2.6
				c-1.7,2.6,3.2,5.7,4.3,6.2c1.1,0.5,5.4,1,7,1c1.6-0.1,2.2,0.6,3.7,1.4c1.5,0.8,0.5-2.1-0.3-2.6c-0.8-0.5,2.1,0.1,3,0.3
				C94.2,62.7,92.4,60.7,93.6,60.5z"/>
		</g>
	</g>
	<g id="Shape_128_1_" class="st0">
		<g>
			<path class="st37" d="M82.4,60.6c-0.9-0.8,0.4-1.2,0.4-1.7c0-0.5-5.6-1-5.6-1s5.1-2.4,3-2.2c-0.9,0.1-2.1-1.2-0.7-1.6
				c1.3-0.4,5.5-0.8,4.3-1.5c-1-0.6-4.7,1.2-7.2,1.5c-0.7,0.7-1.2,1.6-1.4,2.8c0,0-0.1,3.6,2.9,5.2c2.6,1.5,3.8,1.3,5.7,0.7
				s4-1.1,4-1.8C87.7,60.3,83.6,61.8,82.4,60.6z"/>
		</g>
	</g>
	<g id="Shape_136_1_" class="st0">
		<g>
			<path class="st38" d="M91.1,51.4c-3.5-0.6-4.6-3-10.1-1.8c-5.5,1.2-7.1,2.3-7.1,2.3c1.3,1.3,5.1,1,7.5,0.6
				c2.4-0.5,8.8,1.2,9.9,1.4C92.5,54.1,94.6,52,91.1,51.4z"/>
		</g>
	</g>
	<g id="Shape_127_copy_1_" class="st0">
		<g>
			<path class="st37" d="M88.8,58.4c-0.4-0.1-2.6-1.1-4-1.4s-3.8-0.9-4.7-0.8c-0.9,0.1-5.1,1.1-4.4,1.2c0,0,0.6,1.8,2,2.3
				s4.1,0.4,5.6,0.3c1.5-0.1,3.1-0.6,3.8-0.4C87.7,59.8,89.9,58.7,88.8,58.4z"/>
		</g>
	</g>
	<g id="Shape_127_1_" class="st0">
		<g>
			<path class="st39" d="M84.8,57c-1.4-0.3-3.8-0.9-4.7-0.8c-0.9,0.1-5.1,1.1-4.4,1.2c0,0,1.3,0.7,2.7,1.2s3.5,0.8,5,0.7
				c1.5-0.1,3-0.7,3.6-0.5c0.6,0.2,1.6,0,1.8-0.3S86.1,57.3,84.8,57z"/>
		</g>
	</g>
	<g id="Shape_278_3_" class="st0">
		<g>
			<path class="st40" d="M85.8,57.4c-1.6-0.6-4.8-1.5-5.5-1.2c0,0-2.5,0.6-1.3,1.3s2.2,0.2,3.6,0.4C84.1,58.2,87.4,58.1,85.8,57.4z"
				/>
		</g>
	</g>
	<g id="Shape_126_2_" class="st0">
		<g>
			<path class="st41" d="M90.2,58.5c-1.1-0.1-1.6-0.6-3.3-1.3c-1.7-0.8-3.4-1.3-4.9-1.5c-1.4-0.1-3.4,0.2-4.2,0.8
				c-0.6,0.5-2.4,0.7-2.4,0.7c0.6,0.2,2.7,0,2.7,0s1.3-0.8,2.8-0.9s4.4,1.1,4.4,1.1s4.5,1.5,5,1.6C91,59.1,91.3,58.5,90.2,58.5z"/>
		</g>
	</g>
	<g id="Shape_131_2_" class="st0">
		<g>
			<path class="st42" d="M62.8,63.2c-0.7-0.8-7.1,0.9-7-0.6c0.1-0.1,0.1-0.1,0.2-0.2c1.7-0.5,5.7-0.6,5.9-3.3c-1.8-0.8-8,1.4-9.5,2
				c0,0.2,0,0.4-0.1,0.6c0.4,0.4,1.3,0.7,1.3,1.4c-0.3,0.5-0.7,1-1,1.5c0.9,1-0.5,1.1-0.5,1.9c0.4,0.9,3.5,0.8,4.6,0.8
				c0,0,0,0.1-0.1,0.1c0,0,0,0,0.1-0.1C57.2,67,63.4,64.5,62.8,63.2z"/>
		</g>
	</g>
	<g id="Shape_132_1_" class="st0">
		<g>
			<path class="st42" d="M52.1,55.2c-1.1,1.3-0.4,2.9-0.6,4.2c0.1,0,0.1-0.1,0.2-0.1c2-3.6,5.1-3.7,8.8-3.5c0-0.1,0-0.2,0.1-0.3
				C59.3,53.2,53.5,53.5,52.1,55.2z"/>
		</g>
	</g>
	<g id="Shape_134_2_" class="st0">
		<g>
			<path class="st43" d="M64.2,119.5c-2.2-6.9-9-17.4-10.2-24.8c-0.7,0.6,0,5.8-0.1,6.8c-0.5,9,0.2,14.5,5.3,22.1
				c1.2,1.8,2.4,3.3,3.6,5.1C63,126.5,65,122,64.2,119.5z M54,94.7C54,94.7,54,94.7,54,94.7C54,94.7,54,94.7,54,94.7
				C54,94.7,54,94.7,54,94.7z M54,94.7C54,94.7,54,94.7,54,94.7C54,94.7,54,94.8,54,94.7C54,94.8,54,94.7,54,94.7z"/>
		</g>
	</g>
	<g id="Shape_135_2_" class="st0">
		<g>
			<path class="st44" d="M56.2,83.3c-0.5-0.9-0.7-1.2-0.9-2.2c-0.2-1,0.3-1.8,0.7-2.8s0.8-1.7,0.8-1.7c-0.3-0.8-1.3,1.4-1.6,2.2
				c-0.3,0.8-0.6,1.7-0.4,2.6c0.1,0.9,1,2.4,1.5,3.4c0.5,1,0.7,1.2,0.7,0.9C57.1,85.4,56.7,84.3,56.2,83.3z"/>
		</g>
	</g>
	<g id="Shape_137_2_" class="st0">
		<g>
			<path class="st45" d="M99.8,39.3c-0.3-3.8-1.1-11.7-4.1-14.4c-2.5-2.2-7.9-5-11.1-5.5c-3.8-0.5-5.1-0.4-8.9-0.1
				c0.3,0-21.5,2.2-16,8.5c2.1,2.4,2.2,7.9,3,10.8c0.6,2.2-2.4,4.5,0.6,5.7c3.2,0.2,3.4,3.3,7.5,2.9c2.3-0.2,3.8,1.9,6,2.3
				c1.5,0.3,4.3,0.2,5.8,0.2c2.2,0.4,3.1,0.3,5.3,0.6c2.5-0.2,3.2,3.4,5.3,3.5c1.2-0.6,0.4-2.4,1.3-3.2c2.1-1.8,4.1-3.1,5.1-6
				C99.9,43,99.9,40.9,99.8,39.3z"/>
		</g>
	</g>
	<g id="Shape_138_2_" class="st0">
		<g>
			<path class="st46" d="M93.3,33.8c-1.2-5.1-1-5.9-5.9-8.6c-2.1-1-4.2-2-6.3-2.9c-0.4-0.1-0.8-0.2-1.2-0.2c0,0,0,0,0,0
				c0,0.1-0.1,0.2-0.1,0.3c-1.4-0.1-4.1-0.8-5.1,0.7c0,0.2,0,0.3,0,0.5c1,1.7,6.4,1.9,8.2,3.8c1.6,1.5,0.9,4.6,1.7,6.4
				c0.9,2.2,5.9,5.7,8.4,5.8c0.3-0.2,0.7-0.5,1-0.7C94.5,37.1,93.7,35.5,93.3,33.8z"/>
		</g>
	</g>
	<g id="Shape_139_2_" class="st0">
		<g>
			<path class="st46" d="M78.6,39.5c-2,0.5-3.7,0.6-4.7,1.3c-1.4,1.3,5.4,2.7,6.7,4.6c0.4,0.9,0.3,1.7,1.2,2.8c1,1.1,3.4,1,5.1,1.5
				c1.1,0.4,4,2.1,5,1.4c0.5-0.5,0.8-0.8,0.8-1.6C88.1,41.5,88,37,78.6,39.5z"/>
		</g>
	</g>
	<g id="Shape_140_5_" class="st0">
		<g>
			<path class="st47" d="M99.1,59.6c-0.7-2.6-3.3-1.9-3.4-1.8c0-0.1,0.1-0.2,0.1-0.2c-2-0.1-1,5.2-1.8,6.6c-1.3,2.3-4.2,3-4.8,4.4
				c-0.8,2.3,3.3,3.4,4.3,7c1,3.7,0.6,7.8,0,9.8c-0.8,2.8-3.4,6.6-2.9,8.4c0.5,1.7,2.2-0.3,2.3-0.3c2.7-2,3.5-6.7,4.4-9
				c0.7-1.8-0.1,1.9,0.4,2.4c0.9,0.7,2.1-5.6,2.3-6.5c0.3-3.2,0.7-6.4,1-9.6C101.7,67.1,100.1,63.3,99.1,59.6z"/>
		</g>
	</g>
	<g id="Shape_141_2_" class="st0">
		<g>
			<path class="st48" d="M88.3,63.4c-0.6-0.1-1.1-0.2-2,0c-0.9,0.2-1.1,0.5-1.3,0.9c-0.2,0.4-0.2,0.6,0,1.1s6.9,8.4,9.2,5.9
				C96.1,68.7,90.8,64.2,88.3,63.4z"/>
		</g>
	</g>
	<g id="Shape_142_2_" class="st0">
		<g>
			<path class="st49" d="M66.2,53.8c-3.1-0.4-7.2-3.6-10.4-1.6l0,0c1.2,1.4,7.5,1.5,7.4,3.7c-3.4-0.4-10.8-0.6-12.6,4
				c0,0.1,0.5,2.2,1.3,2.2c0.8,0,0.7-2.4,1-2.5c0.5-0.1,0.7-0.4,0.9-0.6c0.3-0.3,0.6-0.9,0.6-1c0.1,0,5.3-2.6,6.9-1.5
				c0.8,0.5-0.2,0.9-0.5,1.4c0,0.3,1.8,0.5,2.1,1c-0.9,1-0.2,1.9-2.3,3.3c0.8,0,2-0.7,2.6-1.1c0.1,0,0.5,0.3,0.6,0.3
				c0.4,1.1-1,5.3-1,5.9c0.4-0.3,0.8-0.7,1.1-1c3.1-3.6,3.3-6.3,3.8-10.7c0.5-1.2,1.7-1.3,2-1.8C69,53.9,66.8,53.7,66.2,53.8z"/>
		</g>
	</g>
	<g id="Shape_277_3_" class="st0">
		<g>
			<path class="st50" d="M60.4,56.4c-0.6-0.3-4.3-0.3-5.9,0.6s-0.5,0.7,0.3,0.9c0,0,2.1,1.1,5.8,0C64.3,56.7,61.1,56.6,60.4,56.4z"
				/>
		</g>
	</g>
	<g id="Shape_133_1_" class="st0">
		<g>
			<path class="st41" d="M62.4,56.2c-1.5-0.4-2.5-1-4.3-0.7c-1.1,0.1-4,0.7-4.9,1.6c-0.8,0.8-1.3,1.5-2.1,2.4c0,0-0.1,0-0.1,0l0-0.1
				c0,0,0,0-0.1,0c0,0,0,0.1-0.1,0.1c0,0,0,0,0,0c0.1,0.1,0.1,0.1,0.2,0.2c-0.2,0.2-0.4,0.3-0.6,0.5c0,0,0,0.1,0,0.1c0,0,0,0,0,0
				c1.3,0.1,1.2,0.6,1.2,0.6c0.1-2.1,1.7-3,3.4-2.9c-0.5-0.1-0.6-0.7-0.7-1c2-0.7,5.9-1.4,6,0.9c0.4-0.2,0.9-0.1,1.3-0.2
				c0.4,0.3,0.9,0.4,1.3,0.6C64,58.3,62.5,56.3,62.4,56.2z"/>
		</g>
	</g>
	<g id="Shape_147_2_" class="st0">
		<g>
			<path class="st51" d="M60.1,56.7c-0.1-0.6-2.6-0.7-4.3-0.1c0,0,0,1,0.6,1.5c1.7,0.2,3.5-0.1,3.5-0.1S60.2,57.3,60.1,56.7z"/>
		</g>
	</g>
	<g id="Shape_143_2_" class="st0">
		<g>
			<path class="st52" d="M84.2,61.3c-0.1,0-0.2,0-0.3,0c0.1,0.1,0.1,0.1,0.2,0.2c0,0.1,0,0.2,0,0.3c-1.8,3.1-9.7-2.3-8.5-4
				c0.3-0.2,0.7-0.4,1-0.6c0.6-1.5,1-2,2.7-2.9c0-0.2,0.1-0.4,0.1-0.5c-2.8-0.2-5.9,2.6-4.3,5.6c1.3,2.4,4.3,3.6,6.8,3.8
				c1.3,0.1,6.4-0.9,6.5-2.7C87.1,60.3,85.6,61.2,84.2,61.3z M79.4,54.2c-0.1,0-0.1,0.1-0.2,0.1c0,0,0,0,0,0
				C79.3,54.2,79.3,54.2,79.4,54.2z"/>
		</g>
	</g>
	<g id="Shape_275_1_" class="st0">
		<g>
			<path class="st53" d="M76.3,54.1c-0.9,0.2-1.3-0.1-2.3,1c-1,1.2-0.9,3.8,0,4.6c0.9,0.9,1.9,0.6,1.9,0.6c-1.8-1.9-0.4-3.8,0.4-4.9
				C77.1,54.2,77.2,53.9,76.3,54.1z"/>
		</g>
	</g>
	<g id="Shape_148_3_" class="st0">
		<g>
			<path class="st54" d="M53.7,91.4c-1.3-3.3-3.9-5.8-4.5-7.8s-0.5-6.4-1-10c-0.5-3.6,0.3-5.8,1.5-8.4c1.2-2.6,5.2-1.7,3.7-3.2
				c-1.3-1.3-2-1.4-3.5-3c-1.5-1.6-1.5-2.9-1.5-4.7c0-1.8-0.3-2.1,0.1-9.4c0.4-7.6,3-15.1,3-15.1c-0.2-1.9,1.7-5.3-2.2-2.3
				c-3.9,3-4,5.1-5.5,11.5c-1.5,6.4-0.1,16.2,0,18.8s0.3,4.6,0.5,7.4c0.2,2.8,1.7,8.6,1.9,9.8c0.2,1.2,1.3,5.9,2,9.2
				c0.7,3.3,4.2,8,5.3,9.2C54.4,94.7,55.1,94.8,53.7,91.4z"/>
		</g>
	</g>
	<g id="Shape_130_2_" class="st0">
		<g>
			<path class="st55" d="M97.1,36.3c-0.1,0.1-0.3,0.2-0.4,0.3C96.8,36.5,97,36.4,97.1,36.3z M108.8,47c-0.1-2.1-0.2-4.1-0.3-6.2
				C105.3,27.5,95.7,16.3,81.5,14c-3.8-0.6-8.4-2.4-12.3-2c-2,0.3-4,0.5-6,0.8c-1.6,0.9-3.2,1.8-4.8,2.7c-1.9,1.4-3.9,2.8-5.8,4.2
				c-3.3,2.3-8.8,7.6-10.6,11.2c-1.7,3.3-4.2,11.6-3.9,15.3c0,0.1,0,0.2,0.1,0.3c0.3,0.8,0.9,4.1,0.1,4.8c-0.1,0.2-0.1,0.3-0.2,0.5
				c0.7,0,1.6-1.1,1.9-1.1c-0.1,2.2-0.6,8.2,0.8,9.7c0,1,0,1.9,0.1,2.9c0.1,0,1.7-1,1.7-1c0,0,0,0,0,0c-0.1,1.7,1.8,5.4,3.7,5.5
				c-0.3-1.1-0.6-2.3-0.9-3.4c0.1-2.9,0.2-5.9,0.2-8.8c-0.4-2.8-0.9-5.6-1.3-8.3c0.3-2.2,0.5-4.3,0.8-6.5c0,0,0,0,0,0l0,0
				c0.5,1,0.9,2.1,1.4,3.1c0.2-3.8,0.3-8,1.8-11.6c0.4-1,0.9-2,1.3-2.9c0,0.7,0.6,1.6,0.6,2.1c0,0,1.2-2.9,1.5-3.2
				c2.3-2.5,4.9-2.7,6.9-4.4c0.5-0.6,1.1-1.2,1.6-1.7c-0.1,0.7-0.2,1.5-0.3,2.2c0,0,6.9-5.2,7-5.4c0.2-0.1,0.3-0.2,0.5-0.4
				c0,0,0.1,0.1,0.1,0.1c0,0.5-0.1,1-0.1,1.4c0.1-0.1,0.2-0.2,0.4-0.3c0.8-0.4,3.9-0.6,4.4-1.1c3.5,0.2,7,1.7,10.3,1.9
				c-1.3,0.2-2.6,0.3-3.9,0.5c1.5,0.7,3.1,1.4,4.6,2.1c2.8,1.1,5.2,1.7,8.3,1.9c1-0.2,2.1-0.4,3.1-0.6c0,0.1,0,0.1,0,0.2
				c-0.4,0.3-0.9,0.6-1.3,1c0,0,0,0,0,0c0.3-0.1,0.6-0.1,0.9-0.2c0,0,0.1,0,0.1,0.1c3.9,1.1,1.3,7-0.7,8.8c0.7,0,4.2-1,4.2-1.7
				c0,0.2,0,0.4,0,0.5c0,0.4-0.2,2.5-0.6,3.3c0.5-0.3,0.9-0.7,1.4-1c0,1.2,0,2.4,0,3.6c0.2,3.7,0.7,7.6,0.5,11.3c0,0,0,0,0,0
				c0.6-1.2,1.2-2.4,1.8-3.5c1.7,1.9-0.9,10.7-0.8,13.7c0.6,2.5,1.2,5,1.8,7.5c0,0.2,1.8-2.3,2.2-4.4c0.2-1.4,0.8-3.1,0.3-4.5
				c-0.3-0.9,0.2-0.7-0.1-1.6c0.1,0.1,0.3,0.1,0.4,0.1c1,0.7,0.8,1.8,0.8,3c0,0.3-0.1,0.5-0.1,0.8c0.6-1.4,1.1-2.9,1.7-4.3
				c0.7,0.8,1.1,1.3,1,2.5c0,0.2,0,0.3,0,0.5c0.5-0.6,0.9-1.3,1.4-1.9c0.5-1.7,0.9-3.5,0.9-5.4C110.2,50.4,109.1,48.9,108.8,47z"/>
		</g>
	</g>
	<g id="Shape_274_3_" class="st0">
		<g>
			<path class="st56" d="M93.2,55.1c-1.3-1.2-10.6-2.6-9.8-1.6c0,0,3.3,1.9,4.2,2.7c0.7,0.7,1.4,1.2,2.9,1.3c1,0.1,1-0.7,1.6,0
				s1.4,1.7,1.7,0.7C94,57.3,94.5,56.3,93.2,55.1z"/>
		</g>
	</g>
	<g id="Glases_copy_1_" class="st0">
		<g>
			<path class="st57" d="M103.4,54.6c0,0-3.5,1.7-4.9,1.9c-0.9,0.1-2.6,0.2-3.5,0.3c-0.2-1.1-0.6-2.6-1.5-3c-1.2-0.6-5.1-0.8-8.5-1
				c-3.4-0.3-9.3,0.9-9.3,0.9c-0.7,0-2.4,1.1-2.5,2.8c-0.2,2.7,1.1,6.2,3.1,8.7c1.9,2.4,3.5,2,8,2c4.5,0,8.2-1.3,9.4-2.2
				c1.1-0.8,1.4-4.8,1.4-6.5c0.9-0.1,2.7-0.2,3.3-0.2c0.9,0,1.9-0.9,1.9-0.9l3.1-1.7L103.4,54.6z M93.2,64.4c-1.1,0.9-4.8,2-8.8,2
				c-4,0-5.6,0.3-7.3-1.9c-1.8-2.2-3-5.1-3-7.8c0-1.8,1.4-2.3,2-2.3c0,0,5.9-1.2,9-0.9c3.1,0.3,7,0.4,8.1,1c1.1,0.6,1.3,3,1.4,4
				C94.5,59.4,94.3,63.5,93.2,64.4z M66.9,57.1c0-0.1,0-0.2,0-0.4c-0.1-1.7-1.8-2.7-2.4-2.7c0,0-5.8-1.2-9.1-0.9
				c-3.3,0.3-7.1,0.5-8.3,1.1c-0.8,0.5-1.2,1.8-1.4,3l-3.7-0.3l-0.6-0.2l0,1.9c0,0,3.3,0.5,4.1,0.6c0.1,1.8,0.5,5.4,1.5,6.2
				c1.2,0.9,4.8,2.2,9.2,2.2c4.4,0,5.9,0.3,7.8-2.1c1.7-2.2,2.8-5.1,3-7.6C69.2,57.2,73,58,73,58l0.2-1c0,0-2.1-0.1-3.6-0.2
				C68.6,56.7,67.4,56.9,66.9,57.1z M63.3,64.9c-1.7,2.2-3.2,1.9-7.2,1.9c-3.9,0-7.6-1.1-8.7-1.9c-1.1-0.8-1.3-5.1-1.2-6
				c0.1-1,0.3-3.4,1.3-4c1-0.6,4.9-0.8,7.9-1.1c3-0.3,8.8,0.9,8.8,0.9c0.6,0,2,0.5,2,2.3C66.2,59.8,65,62.7,63.3,64.9z"/>
		</g>
	</g>
	<g id="Glases_1_" class="st0">
		<g>
			<path class="st58" d="M103.4,54.6c0,0-3.5,1.7-4.9,1.9c-1.1,0.1-3.2,0.3-3.9,0.3c-0.2-1.1-0.7-2.2-1.4-2.6
				c-1.2-0.6-5.1-0.8-8.5-1c-3.4-0.3-9.3,0.9-9.3,0.9c-0.7,0-2.4,1.1-2.5,2.8c0,0.2,0,0.4,0,0.7c-0.6-0.1-2.1-0.5-3.6-0.4
				c-1.1,0-2.2,0.3-2.7,0.5c0-0.1,0-0.2,0-0.2c-0.1-1.7-1.8-2.7-2.4-2.7c0,0-5.8-1.2-9.1-0.9c-3.3,0.3-7.1,0.5-8.3,1.1
				c-0.7,0.4-1.1,1.4-1.3,2.4l-3.6-0.3l-0.6-0.2l0,1.9c0,0,2.9,0.4,3.9,0.6c0,1.4,0.3,5.9,1.5,6.8c1.2,0.9,4.8,2.2,9.2,2.2
				c4.4,0,5.9,0.3,7.8-2.1c1.7-2.2,2.8-5.1,3-7.7c2.2-0.6,5.7,0,6.4,0.2c0.3,2.4,1.4,5,3.1,7c1.9,2.4,3.5,2,8,2
				c4.5,0,8.2-1.3,9.4-2.2c1.2-0.9,1.5-5.6,1.4-6.9c0.8,0,2.9-0.2,3.6-0.2c0.9,0,1.9-0.9,1.9-0.9l3.1-1.7L103.4,54.6z M63.1,65.5
				c-1.7,2.2-3.2,1.9-7.2,1.9c-3.9,0-7.6-1.1-8.7-1.9c-1.1-0.8-1.3-5.1-1.2-6c0.1-1,0.3-3.4,1.3-4c1-0.6,4.9-0.8,7.9-1.1
				s8.8,0.9,8.8,0.9c0.6,0,2,0.5,2,2.3C66,60.4,64.9,63.2,63.1,65.5z M92.9,64.8c-1.1,0.9-4.8,2-8.8,2c-4,0-5.6,0.3-7.3-1.9
				c-1.8-2.2-3-5.1-3-7.8c0-1.8,1.4-2.3,2-2.3c0,0,5.9-1.2,9-0.9s7,0.4,8.1,1s1.3,3,1.4,4C94.2,59.8,94,64,92.9,64.8z"/>
		</g>
	</g>
	<g id="Shape_149_1_" class="st0">
		<g>
			<path class="st51" d="M84.6,57c-0.1-0.4-3.9-1-4.2-0.7c0,0-0.4,0.8-0.1,1.6c1.2,0.1,4.1,0.2,4.1,0.2S84.7,57.4,84.6,57z"/>
		</g>
	</g>
	<g id="Ellipse_4_copy_2_" class="st0">
		<g>
			<path class="st59" d="M56.8,57.1c-0.2,0-0.3,0.1-0.3,0.3s0.1,0.3,0.3,0.3s0.3-0.1,0.3-0.3S57,57.1,56.8,57.1z M81.2,57.1
				c-0.2,0-0.3,0.1-0.3,0.3s0.1,0.3,0.3,0.3s0.3-0.1,0.3-0.3S81.4,57.1,81.2,57.1z"/>
		</g>
	</g>
	<g id="Shape_150_1_" class="st0">
		<g>
			<path class="st60" d="M88.4,58.8c-0.4,0,0.2-0.6-1.6-0.7s-3.5,0.4-5.4,0.1c-1.8-0.2-2.9-0.7-3.6-0.8s-1.5,0.4-1.5,0.4
				c-0.5,0.1,1.7,1.5,4.8,1.7c3.1,0.2,4.7-0.5,5.4-0.4S88.8,58.8,88.4,58.8z"/>
		</g>
	</g>
	<g id="Shape_260_3_" class="st0">
		<g>
			<path class="st61" d="M98.1,84.2c-0.6-0.7,0-4.8-0.4-7.6c-0.4-2.9-1.9-4-1.7-2.2s0.9,5.8,0.1,9.2c-0.7,3.5-0.7,2.6-2.3,3.9
				s-1.4,0-2.9,1.9c-1.4,1.9-2.3,5.6-2.3,5.6c-1.2,3.1,1.2,2,4-0.4c2.6-2.3,4.6-5.9,5-6.5C98.7,86.8,98.7,85,98.1,84.2z"/>
		</g>
	</g>
	<g id="Shape_264_3_" class="st0">
		<g>
			<path class="st62" d="M91.2,97.1c-2.6,2.2-5.9,5.5-8.1,6.3c-2.2,0.9-7.8,2.2-12.5,1.6c-4.8-0.6-6.8-1.6-9.1-3.6
				c-2.3-2-7.2-7.2-7.2-7.2c-0.4,2.6,1.6,6.8,3.5,10s3,3.6,6.5,6.1c3.5,2.5,5.3,4.6,8.9,4.3c3.6-0.3,6.5-5.5,7.9-7.1
				s7.4-5.6,9.1-7.5S93.8,94.9,91.2,97.1z"/>
		</g>
	</g>
	<g id="Shape_261_3_" class="st0">
		<g>
			<path class="st63" d="M92.9,58.3c-0.1,0-0.2-0.1-0.3-0.1c-1-0.2-1.2-0.1-1.9,0.2c0,0.1,0,0.2,0,0.3c0.9,0.9,1.7,0.6,2.7,0.6
				C93.7,59,93.3,58.2,92.9,58.3z"/>
		</g>
	</g>
	<g id="Shape_262_1_" class="st0">
		<g>
			<path class="st63" d="M91.2,60.9c-0.1-0.1-0.2-0.2-0.3-0.4c-0.9-0.1-1.4,0.7-1.8,0.7c0,1.2,2.2,3,3.3,2.1
				C94.3,61.9,91.3,60.5,91.2,60.9z"/>
		</g>
	</g>
	<g id="Shape_263_3_" class="st0">
		<g>
			<path class="st64" d="M74,40.5c-0.4-0.1-9.1,0-9.1,0s-7.5,1.4-8.1,1.6c-0.6,0.1,7.3-1,8.9-1.2c0,0,5-0.1,8.9,0s7.9-0.1,7.9-0.1
				S74.4,40.6,74,40.5z"/>
		</g>
	</g>
	<g id="Shape_146_2_" class="st0">
		<g>
			<path class="st52" d="M83.9,102.1c0.1-1.5,2.1-2.6,2.2-4.2l-0.1,0c-1,1.4-2.6,3-4.1,4.2c-1.5,0.8-4,2.3-5,2.1
				c-4.2,0.4-5.2,0.7-9.6-0.5c-1.5-0.4-2.8-1.1-4.4-2c-0.8-0.4-1.1-0.5-1.7-1.2C60.1,99,59,97.3,58,95.8c-1.5-3.1-3.9-5.5-5.3-8.4
				c-0.5-0.8-1.7-4.6-1.9-5.3c-0.2-0.8-2.2-6.8-2.9-10.8c-0.2-1.2-0.8-0.7-1.2,0.3c-0.4,0.8-0.7,1.9-0.7,2.8c-0.1,1,2,8.8,2,8.8
				c0.7,2.9,1.5,4.7,2.6,7.4c2.2,3,4.4,5.4,6,8.3c2.6,3.8,9.8,6.6,14.1,7.7c6.9,1.8,18.9-5.6,20.8-10.1
				C89.2,97.6,86.4,102.2,83.9,102.1z"/>
		</g>
	</g>
	<g id="Shape_271_3_" class="st0">
		<g>
			<path class="st65" d="M104.1,64.3c-1.3-0.3-1.3-0.1-1.7,1.9c-0.4,2-1.4,3.6-0.9,3.6c0,0,1,1.4,2.3-1.2
				C105.1,66.1,105.4,64.6,104.1,64.3z"/>
		</g>
	</g>
	<g id="Shape_272_3_" class="st0">
		<g>
			<path class="st65" d="M109.8,60c-0.3-1.3-2.7-0.3-2.7-0.3c0.4,1.2,0.3,2.2-0.4,5.3c-0.7,3.2,1.2,0.9,2.2-0.3
				C109.8,63.6,110,61.3,109.8,60z"/>
		</g>
	</g>
	<g id="Shape_269_3_" class="st0">
		<g>
			<path class="st66" d="M95.3,66.3c-2-1.7-1.7-1.3-1.7-1.3l-1,0.9c0,0,2,3.2,3.5,3.8C97.5,70.2,97.4,68.1,95.3,66.3z"/>
		</g>
	</g>
	<g id="Shape_270_3_" class="st0">
		<g>
			<path class="st66" d="M97.2,61.9c-2.3-1.2-2.5-1.2-2.5-1.2l0.1,0.9c0,0,2.5,2.2,3.3,3C99.1,65.5,99.5,63,97.2,61.9z"/>
		</g>
	</g>
	<g id="Shape_266_3_" class="st0">
		<g>
			<path class="st67" d="M94.2,99.2c-1.3,4.2-5.6,14.7-8.5,18.8c-2.9,4.1-13.6,11.4-13.6,11.4s-5.2-3.1-7.9-7.4
				c-8-12.3-8.9-26.1-10.4-22.4c-1.5,3.7-1.4,15.7-1.9,22.6c-0.5,6.9,2.2,44.3,2.2,44.3l35.6,0.6l6.3-48.9
				C96.1,118.3,95.5,95.1,94.2,99.2z"/>
		</g>
	</g>
	<g id="Shape_267_copy_1_" class="st0">
		<g>
			<path class="st68" d="M67.1,124.2c-0.4-3.3-2.6-7.1-2.6-7.1s-8.5-10.8-10-19.5C53,89,51.3,107,51.3,107l-0.7,30.9
				c0,0,8-10.9,12-14.3c0.1-0.1,1.6,1.1,1.9,3.6c0.4,3.2,7.8,2.8,7.8,2.2C72.3,128.3,67.5,127.8,67.1,124.2z"/>
		</g>
	</g>
	<g id="Shape_267_3_" class="st0">
		<g>
			<path class="st69" d="M67.1,124.2c-0.4-3.3-2.6-7.1-2.6-7.1s-8.5-10.8-10-19.5C53,89,51.3,107,51.3,107l0.3,28.3
				c0,0,6.7-10.9,10.7-14.3c0.1-0.1,2.7,2.1,3,4.6c0.4,3.2,7.1,3.9,6.9,3.8C71.5,128.6,67.5,127.8,67.1,124.2z"/>
		</g>
	</g>
	<g id="Shape_267_copy_3_1_" class="st0">
		<g>
			<path class="st68" d="M93.8,94.8c-2.9,9.6-15,22.6-15,22.6s-2.1,3.6-2.5,6.9c-0.4,3.6-7.4,7-6.3,6.9c2.6-0.3,9.7-1.7,10.1-4.9
				c0.3-2.5,1.5-2.8,1.6-2.7c4,3.4,11.5,15.8,11.5,15.8l5.8-33.3C98.9,106.2,96.3,86.3,93.8,94.8z"/>
		</g>
	</g>
	<g id="Shape_268_3_" class="st0">
		<g>
			<path class="st68" d="M74.6,127.8c0,0-4,1-4.9,2.7c-3,6.2-1.2,29.1-1.2,29.1l1.7,0.3c0,0-1.6-24.5,0-28c0.6-1.3,1.6-1.6,2.5-1.9
				C76.1,129,74.6,127.8,74.6,127.8z"/>
		</g>
	</g>
	<g id="Shape_267_copy_2_1_" class="st0">
		<g>
			<path class="st69" d="M94.2,95.2c-1.5,8.7-14.4,22-14.4,22s-2.2,3.3-2.6,6.6c-0.4,3.6-4.9,5.8-5.6,6.5c-0.1,0.1,6.9-2.5,7.4-5.8
				c0.3-2.5,2.3-4.1,2.5-4c4.9,2.1,11.5,14.7,11.5,14.7l5.3-28.7C98.2,106.4,95.7,86.5,94.2,95.2z"/>
		</g>
	</g>
	<g id="Shape_273_3_" class="st0">
		<g>
			<path class="st56" d="M98.1,65.5c-0.7-1.4-2.5-1.7-2.5-1.7c-2.5-0.1,0,4,1.4,5C98.5,69.8,98.8,66.9,98.1,65.5z"/>
		</g>
	</g>
	<g id="Shape_285_3_" class="st0">
		<g>
			<path class="st7" d="M71,53.8c-0.5,0-0.7-5.2-0.7-5.2c-0.2,0.7-0.3,5.5-0.1,5.5c0.1,0,1.4,0.1,1.4,0.1S71.4,53.8,71,53.8z"/>
		</g>
	</g>
	<g id="Shape_276_3_" class="st0">
		<g>
			<path class="st54" d="M60.7,58.6c-1.9,0.2-6.5-0.4-6.5-0.4c-1.1,0.4-2.2,1.3-1.9,2.3c0.4,1,1.2,0.9,3.2,0.1c2-0.7,4.5-1,5.9-1.4
				C62.8,58.7,62.6,58.3,60.7,58.6z"/>
		</g>
	</g>
	<g id="Shape_280_3_" class="st0">
		<g>
			<path class="st70" d="M112.6,121.9l4.9-6.8l-6.6-11.1l5.3,10.7l-5.5,7.8l9.4,4.9l-15.9,43.4l1.9,0.3l15-44.1L112.6,121.9z
				 M32.9,111.1l3.5,4.9l-11.5,5.8l8.5,43.1l1.6,0.3l-8.7-42.5l12.1-6.2l-3.6-5.6c0,0,7.3-8.5,12.5-12
				C43.8,99.1,32.9,111.1,32.9,111.1z"/>
		</g>
	</g>
	<g id="Shape_281_3_" class="st0">
		<g>
			<path class="st71" d="M103,57.4c-1.4-2-1.3-0.7-1.3-0.7s0,3.2-0.3,5s0,3.2,0.6,4c0,0,0.1-1.3,0.9-3.2
				C103.6,60.7,104.4,59.4,103,57.4z"/>
		</g>
	</g>
	<g id="Shape_282_3_" class="st0">
		<g>
			<path class="st71" d="M107.2,45.3c-1.9-3-2.7-6.8-2.6-10.4s-3-5.8-3-5.8s1.6,4,1.3,7.1c-0.3,3-0.9,5-0.9,7.9s1.4,8.1,1.4,8.1
				s0.7-3.9,1.2-4.9c0.4-1,1.6,3,1.2,4.6s0.3,3.2,0.4,4.6c0,0,0.9-2.6,2.2-5C109.6,49,109,48.3,107.2,45.3z"/>
		</g>
	</g>
	<g id="Shape_283_1_" class="st0">
		<g>
			<path class="st71" d="M96.8,22.5c-0.4,0.4-3.2,0.4-3.2,0.4l1-1.9c0,0-3,0.4-5-0.1c3.1-1.1,2.7-2,2.7-2s-4.6,1-8.9,0
				c-4.3-1-4.5-0.7-4.5-0.7s2.5,2.6,5,2.9c2.6,0.3,4,0.6,4,0.6s-1,0.7-2.5,0.9c-1.4,0.1,2.7,1,5.6,0.3c2.9-0.7-0.1,1-0.1,1
				s1,0.6,3,0.4s2.5,0.1,3.2,3.6c0.4,2.3-0.9,3.6-3.2,6.1c0,0,4-1.2,4.8-4.2C99.5,26.7,98.8,23.9,96.8,22.5z"/>
		</g>
	</g>
	<g id="Shape_284_3_" class="st0">
		<g>
			<path class="st71" d="M78.6,14.4c-2.7-1.7-7.6-1.6-10.8-0.7c-3.2,0.9-8.8,6.2-12.5,8.1c3.8-0.2,4.3-1.2,6.1-2.6
				c-0.2,1.4-0.1,2.7-0.1,2.7s2.7-4.5,5.9-5.2c3.2-0.7,5.2-2.2,5.2-2.2l-4.3,4c0,0,3-0.6,4.9-1.9c1.9-1.3,4.6-1.3,7.1-0.3
				c2.5,1,5.9,0.6,7.6,0.6C84.9,15.5,81.3,16.2,78.6,14.4z"/>
		</g>
	</g>
</g>
</svg>
