<?xml version="1.0" encoding="utf-8"?>
<!-- Generator: Adobe Illustrator 19.1.0, SVG Export Plug-In . SVG Version: 6.00 Build 0)  -->
<svg version="1.1" id="Layer_1" xmlns="http://www.w3.org/2000/svg" xmlns:xlink="http://www.w3.org/1999/xlink" x="0px" y="0px"
	 viewBox="0 0 70 70" style="enable-background:new 0 0 70 70;" xml:space="preserve">
<style type="text/css">
	.st0{clip-path:url(#SVGID_3_);}
	.st1{fill-rule:evenodd;clip-rule:evenodd;fill:#32282B;}
	.st2{fill-rule:evenodd;clip-rule:evenodd;fill:#45342A;}
	.st3{fill-rule:evenodd;clip-rule:evenodd;fill:#83603F;}
	.st4{fill-rule:evenodd;clip-rule:evenodd;fill:#9D5F3A;}
	.st5{fill-rule:evenodd;clip-rule:evenodd;fill:#E2A376;}
	.st6{fill-rule:evenodd;clip-rule:evenodd;fill:#F4B58F;}
	.st7{fill-rule:evenodd;clip-rule:evenodd;fill:#D29469;}
	.st8{fill-rule:evenodd;clip-rule:evenodd;fill:#C38155;}
	.st9{fill-rule:evenodd;clip-rule:evenodd;fill:#EFB68F;}
	.st10{fill-rule:evenodd;clip-rule:evenodd;fill:#BA7C59;}
	.st11{fill-rule:evenodd;clip-rule:evenodd;fill:#C48458;}
	.st12{fill-rule:evenodd;clip-rule:evenodd;fill:#A55B36;}
	.st13{fill-rule:evenodd;clip-rule:evenodd;fill:#CB9366;}
	.st14{fill-rule:evenodd;clip-rule:evenodd;fill:#8B401F;}
	.st15{fill-rule:evenodd;clip-rule:evenodd;fill:#8F5738;}
	.st16{fill-rule:evenodd;clip-rule:evenodd;fill:#A5684A;}
	.st17{fill-rule:evenodd;clip-rule:evenodd;fill:#5F2A1C;}
	.st18{fill-rule:evenodd;clip-rule:evenodd;fill:#48261D;}
	.st19{clip-path:url(#SVGID_5_);}
	.st20{fill-rule:evenodd;clip-rule:evenodd;fill:#AF9181;}
	.st21{fill-rule:evenodd;clip-rule:evenodd;fill:#65442F;}
	.st22{fill-rule:evenodd;clip-rule:evenodd;fill:#452921;}
	.st23{fill-rule:evenodd;clip-rule:evenodd;fill:#F2BA9D;}
	.st24{fill-rule:evenodd;clip-rule:evenodd;fill:#C7AC9B;}
	.st25{fill-rule:evenodd;clip-rule:evenodd;fill:#D16C61;}
	.st26{fill-rule:evenodd;clip-rule:evenodd;fill:#86362E;}
	.st27{fill-rule:evenodd;clip-rule:evenodd;fill:#572B1E;}
	.st28{fill-rule:evenodd;clip-rule:evenodd;fill:#9D6654;}
	.st29{fill-rule:evenodd;clip-rule:evenodd;fill:#E2C7B4;}
	.st30{fill-rule:evenodd;clip-rule:evenodd;fill:#F2AFA8;}
	.st31{fill-rule:evenodd;clip-rule:evenodd;fill:#BC7249;}
	.st32{fill-rule:evenodd;clip-rule:evenodd;fill:#D69A75;}
	.st33{fill-rule:evenodd;clip-rule:evenodd;fill:#DCA376;}
	.st34{fill-rule:evenodd;clip-rule:evenodd;fill:#BA7D52;}
	.st35{fill-rule:evenodd;clip-rule:evenodd;fill:#87482E;}
	.st36{clip-path:url(#SVGID_7_);}
</style>
<g>
	<defs>
		<circle id="SVGID_1_" cx="35" cy="35" r="35"/>
	</defs>
	<linearGradient id="SVGID_2_" gradientUnits="userSpaceOnUse" x1="35" y1="70" x2="35" y2="-9.094947e-13">
		<stop  offset="0" style="stop-color:#212121"/>
		<stop  offset="1" style="stop-color:#EF4438"/>
	</linearGradient>
	<use xlink:href="#SVGID_1_"  style="overflow:visible;fill:url(#SVGID_2_);"/>
	<clipPath id="SVGID_3_">
		<use xlink:href="#SVGID_1_"  style="overflow:visible;"/>
	</clipPath>
	<g id="Shape_663_3_" class="st0">
		<g>
			<path class="st1" d="M69.1,58c-1.8-3.2-6.6-3.8-9.2-4.1s-5.2-1.6-8.6-3c-3.4-1.4-5.8-2.1-5.8-2.1l-19,4.1c0,0-4.1,2.6-12.5,5.6
				C5.5,61.5,5.6,71,5.6,71l64.8-0.3C70.3,70.7,70.9,61.2,69.1,58z"/>
		</g>
	</g>
	<g id="Shape_638_3_" class="st0">
		<g>
			<path class="st2" d="M53.8,31.3c-0.1-1.8-2.2-6.2-3.3-8.6s-2-6.5-3.7-9.1c-1.8-2.6-3.4-4.9-6.5-6.4c-3.1-1.4-9-0.1-12.3,0.6
				s-4.6,2.4-7.2,4.5c-2.6,2.2-4,7.4-5.1,10.1s-1.4,7.5-1.4,11.7c-0.1,4.2,0.8,8.9,4.4,13.3c3.6,4.5,8.2,1.8,8.2,1.8
				s14.8-3,16.5-2.6c1.8,0.3,4.9,1,7.1-0.4c2.2-1.4,3.4-6.4,4.1-9.6C55.3,33.5,53.9,33.1,53.8,31.3z"/>
		</g>
	</g>
	<g id="Shape_660_3_" class="st0">
		<g>
			<path class="st3" d="M53.8,31.3c-0.1-1.8-2.2-6.2-3.3-8.6s-2-6.5-3.7-9.1c-1.8-2.6-3.4-4.9-6.5-6.4c-3.1-1.4-9-0.1-12.3,0.6
				s-4.6,2.4-7.2,4.5c-2.6,2.2-4,7.4-5.1,10.1s-1.4,7.5-1.4,11.7c-0.1,4.2,0.8,8.9,4.4,13.3c2.2,2.8,4.8,2.8,6.5,2.4l1.4-1.4
				l-3.9,0.1c0,0-4.1-2.8-2.9-5c1.2-2.2,0.9-3.2,0.7-4.4c-0.2-1.2-0.4-1.5,0.3-3.4c0.7-1.9,0.6-5.8,1.3-7.9c0.7-2.1,0.9-1,0.9-2.6
				s-0.9,0.7-1.7,1.9c-0.8,1.2-1.2,2.7-2.1,3.4s-1.5-0.4-1.3-1.4c0.2-1-1-0.9-1.4,0.1c-0.5,1-1.8-2.3-0.5-4.9s3.6-4.9,4.7-7.3
				s1.5-2,1.1,1c-0.4,3,0.5,4.1,0.4,5c-0.1,0.9,0.1-0.3,0.6-2.1c0.6-1.8,0.5-3.5,1.1-5.6c0.6-2.1,2-2.8,4.1-3.5
				c2.2-0.7,3.5-0.2,4.9-0.2c1.4,0,0.2-0.4-2.1-0.3s-3.7,0-2.5-1.4c1.2-1.4,2.1-1.6,4.2-2.2c2.2-0.6-1.4,1.8-1.4,1.8s1.8-1,4.5-1.1
				c2.8-0.2,4.5,1.8,5.1,3.8c0.6,2.1,0.2,1.8,0.8,3.8c0.6,2.1,2.5,7.9,3.5,9.1c1,1.2,4.8,7.6,6.2,8.3C50.4,31.6,46,26,45.5,23
				c-0.5-3,1.3,1,1.3,1s-0.7-2.6-1.2-4.5c-0.5-1.9-0.3-3.8-0.3-3.8l1.5,2l2.7,5.7c0,0,1,3.3,1.7,4.4c0.6,1.1,2.1,3.6,2.3,5.6
				c0.2,2-0.1,2.3-0.4,4.1c-0.3,1.8-0.1,5.3-1.2,6.9c-0.3,0.4-0.2,0.4,0.1,0.1c1.2-2.1,2-5.5,2.5-7.8C55.3,33.5,53.9,33.1,53.8,31.3
				z"/>
		</g>
	</g>
	<g id="Shape_629_3_" class="st0">
		<g>
			<path class="st4" d="M47.3,49.8c-0.7-0.8-3.8-1.4-4.2-3c-0.4-1.5,0-2.6,0.6-3.9c0.6-1.3,1.8-5,1.8-5c2.9-0.4,1.8-3.6,1.7-4.9
				s-0.7-2.2-0.8-3.8c-0.1-1.6-1.3-3.8-2.1-5.3s-2.3-6.4-3.3-8.8s-1.9-2.4-5.3-2.8s-6.6,0.2-8.9,1.3s-3,6.1-3.3,8s-0.7,3.6-1.2,5.6
				c-0.5,2-0.7,1.8-2,3c-1.3,1.2-0.1,3.7,0.5,5.9c0.6,2.2,1.5,1.7,2.6,1.7c0.1,1.4,0.6,3.2,1.8,5c1.1,1.8,1.7,2.8,1.8,4.5
				c0.1,1.7-0.1,4.9-0.7,6.5c-0.6,1.6-3,2.8-0.2,6.3c2.9,3.5,11.8,1.9,13.9,1.1s4.2-2.4,6.7-5.4C49,52.8,48,50.6,47.3,49.8z"/>
		</g>
	</g>
	<g id="Shape_640_3_" class="st0">
		<g>
			<path class="st5" d="M39.6,28.3c-1.3-0.3-1-0.3-1-0.3l-0.1-2.7c-0.1-0.8,2.6-1.6,3.3-1.9c0.6-0.3,0.7-0.7,0.2-1.4
				c-0.5-0.6-1-2.6-1.7-5c-0.6-2.4-2.4-2.8-3.7-3.5c-1.3-0.7-3.9,0.1-6.9-0.2c-3-0.2-2.8,1-4.1,2.2s-1.6,5.8-1.4,7.2
				c0.2,1.4-0.3,1.3-0.9,2.1c-0.6,0.8-0.7,3.2-1.1,4.9c-0.4,1.8,0.6,1.5,1.2,2.8c0.6,1.3,0.3,2.1,0.5,3.7s0.2,2.8,1.4,5.3
				c1.3,2.6,2.5,3.1,3.8,4.7s3.2,2.6,5.7,2.6c2.5,0,3.4-1.1,4.5-2.5c1.2-1.4,1.1-1.2,2.2-2.6c1-1.4,1.7-4,1.9-5.3s-0.5-1.4-0.6-2.2
				s0.6-3.3,0.7-4.8C43.7,28.1,42.7,29.1,39.6,28.3z"/>
		</g>
	</g>
	<g id="Shape_630_3_" class="st0">
		<g>
			<path class="st6" d="M30.5,30.7c0.6-0.9,0.6-1.7-0.6-1.3c-1.2,0.4-2.5-0.1-3.2,1c0,0-1.5,2.7-0.2,3.6s2.8-0.2,3.9-1.2
				C31.7,31.9,30,31.5,30.5,30.7z"/>
		</g>
	</g>
	<g id="Shape_631_3_" class="st0">
		<g>
			<path class="st6" d="M41.2,31.3c-0.8-0.7-2.4-1.6-2.3-0.9c0,0-0.4,2.2,1.2,3C41.7,34.1,42,32,41.2,31.3z"/>
		</g>
	</g>
	<g id="Shape_632_3_" class="st0">
		<g>
			<path class="st6" d="M35.4,34.4c-0.5-0.5-1.2-1-1.3-0.6c0,0-1,1.3-0.2,1.6C34.8,35.8,35.9,34.9,35.4,34.4z"/>
		</g>
	</g>
	<g id="Shape_633_3_" class="st0">
		<g>
			<path class="st6" d="M34.8,26c-0.7-0.4-1,0.6-1.1,1.7c-0.2,1.1-0.1,2.8,0.1,3.4c0,0,0.2,1.6,0.8,1.8c0.6,0.2,0.3-2.1,0.6-3.2
				C35.4,28.5,35.6,26.4,34.8,26z"/>
		</g>
	</g>
	<g id="Shape_634_3_" class="st0">
		<g>
			<path class="st6" d="M37.6,21.6c-1.2-0.2-1.2-0.9-1.4-2.5c-0.2-1.6-0.4-1.7-1.9-2.2c-1.5-0.5-2.4-0.6-4.1-0.2
				c-1.7,0.3-1.4,1.7-1.9,3.1c-0.5,1.4-1.1,3.3-1.1,3.3c-0.6,1.6,3.9,1.8,4.7,1.4c0.8-0.3,1.8-0.2,2.8-0.4c1-0.2,1.9,0.1,2.6,0.2
				c0.6,0.2,1.1-0.5,1.9-1.4C40,22,38.8,21.7,37.6,21.6z"/>
		</g>
	</g>
	<g id="Shape_667_3_" class="st0">
		<g>
			<path class="st7" d="M28.5,43.7c-0.9-1-1.7-2.5-2.1-3.6c-0.4-1.1,0.2-1.4,0.8-1.8c0.6-0.3,1.7-1.6,2.6-2.6s2.1-2.4,1.4-2.2
				s-2.5,1.7-3.7,2.4c-1.2,0.7-2-0.4-2.2-1.3c-0.2-0.9-1.1-4.3-1.4-5.3c-0.3-1.1-0.4-2.6,0-3.9c0.4-1.3,0.2-1.8,0.2-1.8
				c-0.2-1.9-1.1,1.9-1.3,2.6c-0.2,0.7-0.3,2.1-0.7,3.5c-0.4,1.4,0.2,1.5,0.6,2.2c0.4,0.7,1,2.5,1.1,3.4c0.2,1,0.2,2.4,0.2,3.8
				c0,1.4,0.9,3,1.8,4.2c0.9,1.2,2.6,2.8,3.5,3.2c0.9,0.4,2.2,1,1.9,0.2C30.9,46.1,29.3,44.7,28.5,43.7z"/>
		</g>
	</g>
	<g id="Shape_635_3_" class="st0">
		<g>
			<path class="st6" d="M34.4,44.9c-1.4-0.6-2.2-0.2-3.7-1.2c-1.5-1-0.9-3.1-0.9-3.1c-0.5-0.8-1.8-1.4-1.8-0.2
				c0,1.1-0.1,2.9,0.7,3.8s1.4,2.2,2.7,3.2c1.3,1,3.7,0.8,4.3-0.5C36.4,45.5,35.7,45.4,34.4,44.9z"/>
		</g>
	</g>
	<g id="Shape_636_3_" class="st0">
		<g>
			<path class="st8" d="M30.6,33.8c-0.7,0.5-1.2,1.2-1.5,1.6c-0.3,0.4-0.8,0.9-1.4,1.4s-1,2-0.2,1.9c0,0,0.5-0.3,0.6-0.6
				c0.1-0.2,0.5-0.9,1-1.1s0.8-1,1.1-1.4c0.3-0.3,0.9-0.9,1.2-1.1c0.3-0.2,0.1-0.6,0.5-1C32.2,33.1,31.3,33.3,30.6,33.8z"/>
		</g>
	</g>
	<g id="Shape_641_3_" class="st0">
		<g>
			<path class="st9" d="M35.6,45.7c-0.6-1-2.6-0.9-3.9-1.3c-1.3-0.4-1.6-1.8-2.1-2.9c-0.5-1.1-0.6-2.4-0.6-2.4
				c-0.2-0.5-0.9,1.5-1,2.4c-0.2,0.9,1,3,1.6,3.4c0.6,0.5,1.3,1.8,2.2,2.6c1,0.8,2.5,0.4,3.7,0.2C36.7,47.6,36.2,46.8,35.6,45.7z"/>
		</g>
	</g>
	<g id="Shape_642_3_" class="st0">
		<g>
			<path class="st10" d="M32.1,27.7c-0.5-0.2-0.8-1.2-2.2-1.7s-4,0.5-4,0.5c-0.4,0.3-1.8,0.1-1.1,1c1,1.2,2.3,1.2,2.8,1
				c0.5-0.2,1.6,0.1,2.2-0.2s1.2-0.1,1.8-0.2C32.1,28.2,32.7,28,32.1,27.7z"/>
		</g>
	</g>
	<g id="Shape_643_3_" class="st0">
		<g>
			<path class="st11" d="M41.2,36.2c-1.1-0.9-1.1-0.1-1.7-0.4c-0.6-0.3-0.2-1.2-0.6-1.7s-0.6-0.8-1-1.1c-0.3-0.4-0.5-0.5-1.2-0.2
				s-0.4,2.4-0.5,2.7c-0.1,0.4-0.5,0.9-1.4,1c-0.8,0.1-1.2-0.2-2-0.6c-0.8-0.4-0.8-0.1-0.8-0.1c0.5,0.1,1.5,1.1,2.2,1.1
				s1.2,0.9,2,0.7c0.8-0.2,1.5-0.5,2-1c0.5-0.6,0.6,0,1,0.1c0.4,0,1.9,0.6,2.6,1C42.5,37.8,42.3,37,41.2,36.2z"/>
		</g>
	</g>
	<g id="Shape_644_3_" class="st0">
		<g>
			<path class="st12" d="M38.4,34.1c-0.5-0.5-0.3,0-0.2,0.3c0.1,0.3,0.1,0.8-0.2,1c-0.3,0.2-1,0.4-1.6,0.6c-0.6,0.2-1,1-1,1
				c0.4,0.2,1.2-0.1,1.4-0.4c0.2-0.3,0.6-0.3,1-0.5s0.7-0.5,0.9-0.8C38.9,35,38.9,34.6,38.4,34.1z"/>
		</g>
	</g>
	<g id="Shape_649_3_" class="st0">
		<g>
			<path class="st13" d="M32.7,27.9c-0.2-0.7-0.5-1.5-0.5-1.5c-0.2-0.4-1-0.7-0.6-0.4c0.4,0.3,0.2,1.8,0.3,2
				c0.1,0.2,0.4,0.7,0.6,1.2C32.7,29.6,32.9,28.6,32.7,27.9z"/>
		</g>
	</g>
	<g id="Shape_637_3_" class="st0">
		<g>
			<path class="st14" d="M36,36.7c-0.5,0.4,1-0.3,1.2-0.6c0.1-0.1,0.2-0.2,0.2-0.2c-0.1,0-0.2,0.1-0.3,0.1
				C36.5,36.2,36,36.7,36,36.7z"/>
		</g>
	</g>
	<g id="Shape_645_3_" class="st0">
		<g>
			<path class="st15" d="M31.3,25.1c-0.6-0.3-2.4-1-3.4-0.9s-2.8,0.6-3.4,1.6c0,0,2-1.2,3.1-1.2c1.1,0,2,0.1,2.6,0.6
				c0.5,0.4,1.2,1,1.7,0.6C32.3,25.5,31.9,25.4,31.3,25.1z"/>
		</g>
	</g>
	<g id="Shape_647_3_" class="st0">
		<g>
			<path class="st16" d="M31.2,27.2c-0.2-0.3-0.1-0.2-0.5-0.5c-0.4-0.3-1.5-0.5-2.2-0.6c-0.6-0.2-1.4,0.3-1.8,0.5s-1.3,0.3-1.3,0.6
				c0.1,0.3,0.8,1.1,1.4,1.4s0.5,0.2,0.4-0.1c-0.1-0.2,0.7,0,1,0c0.3,0,2.6-0.3,2.9-0.4s0.9,0.2,0.9,0.2
				C31.9,28.1,31.3,27.6,31.2,27.2z"/>
		</g>
	</g>
	<g id="Shape_665_3_" class="st0">
		<g>
			<path class="st17" d="M30.8,27.8c-0.3-0.1-1.1,0.2-1.8,0.3c-0.5,0.1-1-0.1-1-0.1s-1.5-0.4-0.6,0c0.9,0.4,2.1,0.2,2.6,0.1
				s0.6-0.2,0.6-0.2l1.1,0.2C31.7,28.1,31.1,27.9,30.8,27.8z"/>
		</g>
	</g>
	<g id="Shape_646_3_" class="st0">
		<g>
			<path class="st18" d="M30.9,27.6c-0.3-0.1-0.3-0.4-0.6-0.6c-0.4-0.3-0.8-0.3-1.5-0.6s-1.6,0.1-2,0.4c-0.4,0.3-1,0.6-1,0.6
				s0,0.3,0.5,0.6c0.4,0.2,0.6,0.3,0.9,0.2c0.2-0.1,1.1-0.1,0.7-0.1c-1.2-0.3-1-0.7-1-0.7s0.3,0,0.6-0.2C28,26.9,29,27,29.3,27
				C29.5,27.1,31.2,27.7,30.9,27.6z"/>
		</g>
	</g>
	<g class="st0">
		<defs>
			<path id="SVGID_4_" d="M28.7,26.9c-1.1,0-1.7,0.5-1.7,0.5c1,1.1,3.7,0.2,3.7,0.2S29.7,26.9,28.7,26.9z"/>
		</defs>
		<clipPath id="SVGID_5_">
			<use xlink:href="#SVGID_4_"  style="overflow:visible;"/>
		</clipPath>
		<g class="st19">
			<g id="Shape_648_11_">
				<g>
					<path class="st20" d="M28.9,27.3c-1,0.1-1.6,0.7-1.6,0.7c0.9,1.6,3.6,0.2,3.6,0.2S29.8,27.2,28.9,27.3z"/>
				</g>
			</g>
			<g id="Ellipse_15_copy_3_">
				<g>
					<circle class="st21" cx="29" cy="28" r="1"/>
				</g>
			</g>
			<g id="Ellipse_15_3_">
				<g>
					<circle class="st22" cx="29" cy="28" r="0.5"/>
				</g>
			</g>
			<g id="Shape_656_3_">
				<g>
					<path class="st23" d="M35.6,37.9c-0.8,0.1-1,0.1-1.6-0.1s-1.2,0.1-1.2,0.1c-0.1-0.2,1.5,0.8,1.8,0.8
						C34.8,38.6,36.4,37.8,35.6,37.9z"/>
				</g>
			</g>
		</g>
	</g>
	<g id="Ellipse_15_copy_2_3_" class="st0">
		<g>
			<circle class="st24" cx="28.6" cy="27.3" r="0.2"/>
		</g>
	</g>
	<g id="Shape_650_3_" class="st0">
		<g>
			<path class="st25" d="M39.7,38.6c-0.5,0.2-1.2,0.3-2.4,0.1c-1.2-0.2-1.8,0.4-2.2,0.6c-0.4,0.2-0.7-0.1-1.1-0.3
				c-0.4-0.2-1.4-0.2-2.3-0.2c-0.9,0-2.5-0.2-2.5-0.2c-0.5,0-0.1,0.2,0.2,0.7c0.3,0.5,0.5,1.3,1,2s1.2,1.2,2.2,1.6
				c0.9,0.4,2.5,0.5,3.7,0.3c1.2-0.2,2.6-1.3,2.8-1.6c0.2-0.3,0.7-1.9,1-2.2C40.2,39,40.2,38.5,39.7,38.6z"/>
		</g>
	</g>
	<g id="Shape_654_3_" class="st0">
		<g>
			<path class="st26" d="M39.5,39.2c-0.2,0-0.4,0.2-0.7,0.2s-3.4,1-3.9,0.9c-0.5-0.1-5.1-1-3.8-0.1c0,0,0.8,0.7,1.5,1
				c0.7,0.3,1.9,0.6,2.8,0.5c0.9-0.1,1.4-0.3,2-0.6c0.6-0.3,0.9-0.5,1.3-0.9S39.7,39.2,39.5,39.2z"/>
		</g>
	</g>
	<g id="Shape_653_3_" class="st0">
		<g>
			<path class="st27" d="M38.8,39.1c-0.5,0.1-1.4,0.1-1.6,0.2c-0.2,0.1-0.9,0.2-1,0.2c-0.1,0-0.8,0.2-1.1,0.2
				c-0.3,0-1.1-0.2-1.4-0.2c-0.3,0-1.5-0.3-1.8-0.4c-0.4-0.1-2.6-0.4-2.5-0.2l1.1,1.1c0,0,2,0.6,2.4,0.7c0.4,0.1,1.4,0.4,2.1,0.3
				c0.7-0.1,1.4,0.3,1.8,0c0.5-0.3,1.8-0.9,2.1-1.2c0.3-0.3,1-1,1-1S39.4,39,38.8,39.1z"/>
		</g>
	</g>
	<g id="Shape_652_3_" class="st0">
		<g>
			<path class="st28" d="M38.1,39.4c-0.2,0.1-0.2,0.7-0.2,0.7s0.5,0.2,0.6,0s0.1-0.8,0.1-0.8S38.3,39.3,38.1,39.4z"/>
		</g>
	</g>
	<g id="Shape_651_3_" class="st0">
		<g>
			<path class="st29" d="M37.5,39.4c-0.2,0.1-0.5,0.1-0.8,0.2c-0.4,0.1-1.1,0.1-1.4,0.2c-0.4,0.1-0.8,0-1.4-0.2
				c-0.3,0-0.9-0.2-1.2-0.2c-0.2,0-0.4-0.1-1-0.2c-0.3,0-0.5-0.1-0.6-0.1c-0.1,0.1-0.6-0.2-0.6-0.1c0,0-0.1,0.7,0.2,0.8
				C31,40,31,40,31,40.2c0,0.1,0.3,0.2,0.5,0.2c0.2,0,0.1,0.1,0.2,0.2c0.2,0.1,0.6,0,0.7,0.1c0.1,0.1,0,0.3,0.3,0.4
				c0.3,0.1,0.4-0.1,0.6,0.1c0.2,0.2,0.9,0.3,1.4,0.1c0.1-0.3,0.1,0,0.5,0.1c0.4,0,1.1,0,1.3-0.3c0.3,0,0.6,0,0.7-0.2
				c0.3,0,0.6-0.2,0.7-0.5c0.1-0.3,0.2-1,0.2-1S37.6,39.4,37.5,39.4z"/>
		</g>
	</g>
	<g id="Shape_655_3_" class="st0">
		<g>
			<path class="st30" d="M34,42.2c-0.6-0.1-1-0.3-1-0.3c-0.5-0.2-0.6,0.3-0.1,0.6c0.5,0.3,2.1,0.4,2.3,0.3
				C35.5,42.7,34.6,42.4,34,42.2z"/>
		</g>
	</g>
	<g id="Shape_657_3_" class="st0">
		<g>
			<path class="st31" d="M28.8,36.6c-0.6,0.4-1.1,1.2-1.3,1.7c-0.2,0.5,0.2,0.8,0.2,0.5c0-0.3,0.3-0.9,0.8-1.4
				c0.5-0.5,1.6-1.6,1.6-1.6S29.4,36.2,28.8,36.6z"/>
		</g>
	</g>
	<g id="Shape_658_3_" class="st0">
		<g>
			<path class="st32" d="M48.1,51.7c-0.2-1.3-3.6,0.3-4.5-0.1c-0.9-0.4-2.8,4-3.4,4.9c-0.6,0.8-1.7,2.4-1.3,1.2s0.6-4.3-0.2-4.9
				c-0.8-0.6-1.9-0.2-2.4-1.1c-0.5-0.9-1.5-1.5-3-1.9c-1.5-0.5-3-0.9-3.4-1.4c-0.4-0.4-2.5-2.9-2.5-2.9c-0.9-0.9,1.8,7.1,2.2,8.3
				c0.4,1.2,1.4,5.1,1.3,4.9s-1.8-3.9-2.2-4.7c-0.3-0.8-0.8-4.7-1.1-5.7c-0.3-1-0.4,1.3-0.4,2.3c0,1,0.4,0.3-0.5,1.8s-1.3,3.6-1,6.4
				s4.1,3.6,7.5,3.7S42,60,45,56.6C46.1,55.4,48.3,53,48.1,51.7z"/>
		</g>
	</g>
	<g id="Shape_659_3_" class="st0">
		<g>
			<path class="st33" d="M22.9,34.2c-0.3-0.9,0-0.8-0.2-1.9c-0.3-1.1-1.3-1-1.3-1c-1.4,1.3-0.9,0.9-0.5,1.4c0.4,0.5-0.7,0.2-1,0
				c-0.3-0.2,0.4,1.5,0.6,2c0.2,0.5,0.4,1.4,1,1.4c0.6,0.1-0.1,0.2,0.5,0.9c0.6,0.7,0.9,0.5,1.2-0.2C23.5,36,23.2,35,22.9,34.2z"/>
		</g>
	</g>
	<g id="Shape_662_3_" class="st0">
		<g>
			<path class="st34" d="M43.6,24.5c-0.5-0.6-2.6-0.5-3.9-0.2c-1.4,0.3-2.6,1.4-2.9,2.7c-0.3,1.3,0.4,1.2,1,1s1,0.2,2.7,0.4
				c1.7,0.2,1.4-0.2,2.2-0.6c0.8-0.4,0,0.1-0.2-0.6c-0.1-0.7-4.6-0.2-4.3-0.6c1.4-1.8,5.2-0.7,5.7-1C44.6,25.2,43.6,24.5,43.6,24.5z
				"/>
		</g>
	</g>
	<g id="Shape_661_3_" class="st0">
		<g>
			<path class="st35" d="M44,24.2c-0.6-0.6-1.8-0.6-2.9-0.6c-1.1,0-1.5,0.4-2.6,0.8c-1,0.4-1.3,1.3-1.8,2s-0.2,2.2-0.2,2.2
				c0.1-0.2,0.4-0.4,0.4-0.7c0-0.3,0-0.7,0.2-1.3c0.2-0.6,0.8-0.7,1.3-1c0.4-0.4,0.9-0.8,1.7-1.2c0.8-0.4,2.2-0.2,2.6-0.2
				c0.5,0,1.6,0.7,1.6,0.7S44.7,24.8,44,24.2z"/>
		</g>
	</g>
	<g id="Shape_642_copy_3_" class="st0">
		<g>
			<path class="st10" d="M43.2,27.2c-0.2-0.3-0.5-0.7-0.9-1c0,0-1.7-0.6-3.1-0.2c-1.4,0.4-1.7,1.5-2.2,1.7c-0.5,0.2,0,0.4,0.6,0.5
				s1.1-0.1,1.7,0.2s1.7,0,2.2,0.2C42.1,28.7,43.7,27.8,43.2,27.2z"/>
		</g>
	</g>
	<g id="Shape_647_copy_3_" class="st0">
		<g>
			<path class="st16" d="M42.5,26.6c-0.4-0.2-1.2-0.7-1.8-0.5c-0.6,0.2-1.7,0.4-2.1,0.6s-0.3,0.2-0.5,0.5c-0.2,0.3-0.7,0.8-0.8,1.1
				c0,0,0.6-0.4,0.9-0.2c0.3,0.1,2.5,0.4,2.9,0.4s1.1-0.2,1,0c-0.1,0.2-0.1,0.3,0.4,0.1c0.5-0.2,1.1-0.7,1.2-1.1
				C43.6,27.2,42.9,26.8,42.5,26.6z"/>
		</g>
	</g>
	<g id="Shape_646_copy_3_" class="st0">
		<g>
			<path class="st18" d="M42.4,26.7c-0.4-0.3-1.3-0.6-2-0.4s-1.1,0.3-1.5,0.6s-0.3,0.5-0.6,0.6c-0.3,0.1,1.5-0.4,1.7-0.4
				s1.2-0.2,1.6,0c0.4,0.2,0.6,0.2,0.6,0.2s0.1,0.4-1,0.7c-0.3,0.1,0.6,0.1,0.7,0.1c0.3,0.1,0.5-0.1,0.9-0.2
				c0.5-0.2,0.5-0.6,0.5-0.6S42.8,27,42.4,26.7z"/>
		</g>
	</g>
	<g class="st0">
		<defs>
			<path id="SVGID_6_" d="M40.7,26.9c-1-0.1-2,0.7-2,0.7s2.8,0.8,3.7-0.2C42.4,27.4,41.7,27,40.7,26.9z"/>
		</defs>
		<clipPath id="SVGID_7_">
			<use xlink:href="#SVGID_6_"  style="overflow:visible;"/>
		</clipPath>
		<g class="st36">
			<g id="Shape_648_copy_3_">
				<g>
					<path class="st20" d="M40.5,26c-0.9-0.1-2.5,1.5-2.5,1.5s3.3,1.1,4.7,0C42.7,27.5,41.5,26.1,40.5,26z"/>
				</g>
			</g>
			<g id="Ellipse_15_copy_5_3_">
				<g>
					<ellipse class="st21" cx="40.5" cy="27.4" rx="1" ry="1.1"/>
				</g>
			</g>
			<g id="Ellipse_15_copy_4_3_">
				<g>
					<ellipse class="st22" cx="40.5" cy="27.4" rx="0.5" ry="0.5"/>
				</g>
			</g>
			<g id="Ellipse_15_copy_3_3_">
				<g>
					<circle class="st24" cx="40.1" cy="27.2" r="0.2"/>
				</g>
			</g>
		</g>
	</g>
	<g id="Shape_664_3_" class="st0">
		<g>
			<path class="st6" d="M42.6,29c-0.7,0-3.4-0.1-3.4-0.1c-0.2,0,0,0.2,0.6,0.2c0.6,0,2.6,0.2,3,0.2S43.3,29,42.6,29z"/>
		</g>
	</g>
	<g id="Shape_664_copy_3_" class="st0">
		<g>
			<path class="st6" d="M31.1,28.7c0,0-2.8,0.1-3.4,0.1c-0.7,0-0.7,0.3-0.2,0.3s2.4-0.2,3-0.2S31.3,28.8,31.1,28.7z"/>
		</g>
	</g>
	<g id="Shape_665_copy_3_" class="st0">
		<g>
			<path class="st17" d="M41.8,27.8c0,0-0.8,0.5-1.6,0.4s-1.5-0.4-1.8-0.3c-0.3,0.1-1,0.3-1,0.3l1.1-0.2c0,0,0.1,0,0.6,0.2
				c0.5,0.1,1.8,0.3,2.6-0.1C42.7,27.6,41.8,27.8,41.8,27.8z"/>
		</g>
	</g>
	<g id="Shape_668_3_" class="st0">
		<g>
			<path class="st4" d="M21,32.1c-0.4-0.6-0.2-2-0.2-2c-0.1-0.3-1.3,0.3-1.4,1.3s0.9,1.7,1.2,1.8c0.3,0,0.9,1,1,0.6
				C21.9,33.4,21.4,32.7,21,32.1z"/>
		</g>
	</g>
	<g id="Shape_666_3_" class="st0">
		<g>
			<path class="st35" d="M46.4,30.1c0,0,0.1,1.3-0.2,1.8s-0.8,2-0.5,2.6c0.4,0.6,0.3-1.4,1-1.7C47.4,32.6,46.8,30.9,46.4,30.1z"/>
		</g>
	</g>
</g>
</svg>
