<?xml version="1.0" encoding="utf-8"?>
<!-- Generator: Adobe Illustrator 19.1.0, SVG Export Plug-In . SVG Version: 6.00 Build 0)  -->
<svg version="1.1" id="Layer_1" xmlns="http://www.w3.org/2000/svg" xmlns:xlink="http://www.w3.org/1999/xlink" x="0px" y="0px"
	 viewBox="0 0 150 150" style="enable-background:new 0 0 150 150;" xml:space="preserve">
<style type="text/css">
	.st0{clip-path:url(#SVGID_3_);}
	.st1{fill-rule:evenodd;clip-rule:evenodd;fill:#403E41;}
	.st2{fill-rule:evenodd;clip-rule:evenodd;fill:#E5AC9B;}
	.st3{fill-rule:evenodd;clip-rule:evenodd;fill:#C48980;}
	.st4{fill-rule:evenodd;clip-rule:evenodd;fill:#C67869;}
	.st5{fill-rule:evenodd;clip-rule:evenodd;fill:#E8AC9F;}
	.st6{fill-rule:evenodd;clip-rule:evenodd;fill:#844C42;}
	.st7{fill-rule:evenodd;clip-rule:evenodd;fill:#53231B;}
	.st8{fill-rule:evenodd;clip-rule:evenodd;fill:#D09280;}
	.st9{fill-rule:evenodd;clip-rule:evenodd;fill:#DA9F91;}
	.st10{fill-rule:evenodd;clip-rule:evenodd;fill:#9B6559;}
	.st11{fill-rule:evenodd;clip-rule:evenodd;fill:#EDB9AE;}
	.st12{fill-rule:evenodd;clip-rule:evenodd;fill:#825347;}
	.st13{fill-rule:evenodd;clip-rule:evenodd;fill:#F4C9BF;}
	.st14{fill-rule:evenodd;clip-rule:evenodd;fill:#664237;}
	.st15{fill-rule:evenodd;clip-rule:evenodd;fill:#D39A8F;}
	.st16{fill-rule:evenodd;clip-rule:evenodd;fill:#877472;}
	.st17{fill-rule:evenodd;clip-rule:evenodd;fill:#F0C9BC;}
	.st18{fill-rule:evenodd;clip-rule:evenodd;fill:#BFAB97;}
	.st19{fill-rule:evenodd;clip-rule:evenodd;fill:#DCCDBF;}
	.st20{fill-rule:evenodd;clip-rule:evenodd;fill:#542913;}
	.st21{fill-rule:evenodd;clip-rule:evenodd;fill:#673717;}
	.st22{fill-rule:evenodd;clip-rule:evenodd;fill:#25120D;}
	.st23{fill-rule:evenodd;clip-rule:evenodd;fill:#EFE0DA;}
	.st24{fill-rule:evenodd;clip-rule:evenodd;fill:#A57062;}
	.st25{fill-rule:evenodd;clip-rule:evenodd;fill:#F2C1BA;}
	.st26{fill-rule:evenodd;clip-rule:evenodd;fill:#7B5044;}
	.st27{fill-rule:evenodd;clip-rule:evenodd;fill:#C98E81;}
	.st28{fill-rule:evenodd;clip-rule:evenodd;fill:#986A5F;}
	.st29{opacity:0.5294;clip-path:url(#SVGID_3_);}
	.st30{fill-rule:evenodd;clip-rule:evenodd;fill:#78544B;}
	.st31{fill-rule:evenodd;clip-rule:evenodd;fill:#A0675D;}
	.st32{fill-rule:evenodd;clip-rule:evenodd;fill:#B4786E;}
	.st33{fill-rule:evenodd;clip-rule:evenodd;fill:#935A52;}
	.st34{fill-rule:evenodd;clip-rule:evenodd;fill:#A96D63;}
	.st35{fill-rule:evenodd;clip-rule:evenodd;fill:#824C43;}
	.st36{fill-rule:evenodd;clip-rule:evenodd;fill:#5D2E27;}
	.st37{fill-rule:evenodd;clip-rule:evenodd;fill:#CFB5A5;}
	.st38{fill-rule:evenodd;clip-rule:evenodd;fill:#DFC9BC;}
	.st39{fill-rule:evenodd;clip-rule:evenodd;fill:#280F0D;}
	.st40{fill-rule:evenodd;clip-rule:evenodd;fill:#504749;}
	.st41{fill-rule:evenodd;clip-rule:evenodd;fill:#AA9892;}
	.st42{fill-rule:evenodd;clip-rule:evenodd;fill:#F4D3C8;}
	.st43{fill-rule:evenodd;clip-rule:evenodd;fill:#A96E64;}
	.st44{fill-rule:evenodd;clip-rule:evenodd;fill:#F0C3BD;}
	.st45{fill-rule:evenodd;clip-rule:evenodd;fill:#C4A995;}
	.st46{fill-rule:evenodd;clip-rule:evenodd;fill:#302D2B;}
	.st47{fill-rule:evenodd;clip-rule:evenodd;fill:#170E0B;}
	.st48{fill-rule:evenodd;clip-rule:evenodd;fill:#19120F;}
	.st49{fill-rule:evenodd;clip-rule:evenodd;fill:#D4D6DE;}
	.st50{fill-rule:evenodd;clip-rule:evenodd;fill:#A3A0AE;}
	.st51{fill-rule:evenodd;clip-rule:evenodd;fill:#B92025;}
	.st52{fill-rule:evenodd;clip-rule:evenodd;fill:#F1F1F5;}
	.st53{fill-rule:evenodd;clip-rule:evenodd;fill:#766866;}
	.st54{fill-rule:evenodd;clip-rule:evenodd;fill:#625553;}
</style>
<g>
	<defs>
		<circle id="SVGID_1_" cx="75" cy="75" r="75"/>
	</defs>
	<linearGradient id="SVGID_2_" gradientUnits="userSpaceOnUse" x1="75" y1="150" x2="75" y2="0">
		<stop  offset="0" style="stop-color:#212121"/>
		<stop  offset="1" style="stop-color:#EF4438"/>
	</linearGradient>
	<use xlink:href="#SVGID_1_"  style="overflow:visible;fill:url(#SVGID_2_);"/>
	<clipPath id="SVGID_3_">
		<use xlink:href="#SVGID_1_"  style="overflow:visible;"/>
	</clipPath>
	<g id="Shape_139_4_" class="st0">
		<g>
			<path class="st1" d="M148.6,109.1c-2.7-1.2-28.2-8.6-31.6-10.2c-3.4-1.5-10.8-6.5-12.7-8.8c-1.9-2.2-44.9,12.3-44.9,12.3
				s-38.5,15.7-43.3,18.3c-4.8,2.6-6.7,5.4-8.1,14.3c-1.4,8.8-3.9,20.2-5.2,24.2c-1.3,4,149.2,2.9,149.2,2.9
				S151.4,110.4,148.6,109.1z"/>
		</g>
	</g>
	<g id="Shape_122_4_" class="st0">
		<g>
			<path class="st2" d="M50.3,68.6c-0.1-1.7-2.6-0.9-2.6-0.9s-1.4,2.9-0.6,5.6c0.8,2.6,1.1,2.9,1,4.5c-0.1,1.6-0.8,4.9,1.2,6.3
				c1.7,1.2,2.6-0.1,3.2-0.9C53,82.4,50.4,70.3,50.3,68.6z"/>
		</g>
	</g>
	<g id="Shape_123_4_" class="st0">
		<g>
			<path class="st3" d="M49,69.5c0,0-0.9-0.3-0.9,2.2c0.1,2.6,0.6,4.3,1.5,2.6S49.1,68.9,49,69.5z"/>
		</g>
	</g>
	<g id="Shape_124_4_" class="st0">
		<g>
			<path class="st3" d="M51.1,80.7c-0.5,0.6-0.2,1.2-2,0.8c-1-0.3-1.1-1.9-1.1-1.9c-1.3,5.6,3.9,5.8,4,5.1
				C52,84,51.5,80.1,51.1,80.7z"/>
		</g>
	</g>
	<g id="Shape_68_4_" class="st0">
		<g>
			<path class="st3" d="M105.3,41.8c-2.4-14.9-13.4-15-13.4-15s-6.2-3.7-9.8-3.6c-3.6,0.1-11.7,1.5-12.5,1.2s-12.1,6-14.2,7.4
				s-4.3,7.5-5,11.8s-1,7.4-0.2,12.5s-0.5,7.1-0.9,12.5c-0.4,5.3,1,9.7,2.3,17.7c1.3,8.1,4.6,7.3,6.6,14s4.5,11.5,7.9,15.7
				c3.4,4.2,7.1,9.9,11.9,8.7c4.7-1.2,7.9-5.9,11-9.8c3.1-3.9,9.7-10.2,11.5-13.4s3.1-7.5,3.8-12.6s0.9-14.3,0.2-19.2
				C104,64.7,107.7,56.7,105.3,41.8z"/>
		</g>
	</g>
	<g id="Shape_143_4_" class="st0">
		<g>
			<path class="st4" d="M88.2,86.4C87.6,86,63.1,86,64.2,86.9c0,0-0.8,0.1,0.5,1.2c1.3,1.2,1.9,3.6,4.7,4.7
				c2.8,1.1,8.1,2.6,12.2-0.5c4.1-3.1,5.4-4,6.5-4.5C89.2,87.4,88.8,86.8,88.2,86.4z"/>
		</g>
	</g>
	<g id="Shape_74_4_" class="st0">
		<g>
			<path class="st5" d="M101.9,55.1c-0.5-2.2,1.1-4.2-0.5-9.8c-1.5-5.6-0.5-8.6-3-11.6c-2.5-3-2.9-4.5-8.8-5.6c-6-1-11,1.2-15.8,2.2
				s-8.7,0.9-13.5,1.9c-4.7,1-6.4-0.3-8.3,4.2c-1.9,4.5-5.4,13.4-4.3,16.7c1.1,3.4,1.8,4.1,1.7,6.4c-0.1,2.3-1.2,8.3-0.8,10.9
				c0.4,2.6,2.1,7.6,2.7,10.2c0.6,2.5,0.8-4.7,2.9-2.9c2.8,2.4,7.1,0.1,10.7-4.7c0.9-1.2,4.3-3.5,3.6-1.2c-0.1,0.5-1.1,0.7-1.2,1.2
				c-0.1,1.5-0.1,2.9,1.5,1.6c0.8-0.6,2.3-0.9,3.2,0.2c0.5,0.7,1.5,1.1,3.6,0.8c1.7-0.3,2.9-2.2,5-0.8c1.6,1,3.3-1.7,0.9-3.3
				c-0.7-0.5-0.6-1.7,1.8-0.5c4.5,2.3,7.8,9.6,11.5,6.9c2.1-1.6,2.4,1.4-0.2,4c-0.9,0.9-1.7,9.4-3.6,9.9c-1.1,0.3,0.2-4.4-2.9-4.6
				c-2.2-0.1-7.2,6.3-11,6.4c-2.8,0-6.1,0.2-8.5-0.7c-0.6-0.2-1.6-0.9-1.6-1.5c0-1.9-1.1-2.8-2.1-3.1c-0.4-0.1-1.1,0.9-1.5,0.7
				c-2-1-3.4-1.7-3.5-1.7c-1.7,3.5,0.7,5.4,1.8,6.6c1.1,1.2,2.5,5.7,3.5,6.8c1,1.1,5.6,3.4,7.4,1.5c1.8-1.9,4.2-1.4,6,0.1
				c1.8,1.5,5.2,1.7,6.5,0.2s3.3-4.7,4.7-5.8c1.4-1.1,6.3-3.3,8.8-7.1c0,0,2.8-4.7,2.1-11.2c-0.7-6.5-1.5-8.9-0.5-12.3
				C101.6,62.8,102.4,57.3,101.9,55.1z"/>
		</g>
	</g>
	<g id="Shape_75_4_" class="st0">
		<g>
			<path class="st6" d="M81.1,76c-1-0.9-2-0.7-2.7-0.5c-0.7,0.1-1.3,1.8-1.3,1.8c0.1,0.3,0.6-0.5,0.8-0.8c0.2-0.2,1.4,0.1,1.7,0.2
				s0.9,0.6,1.3,0.5C81.2,76.9,82,76.9,81.1,76z"/>
		</g>
	</g>
	<g id="Shape_76_4_" class="st0">
		<g>
			<path class="st7" d="M80.3,75.7c-0.3-0.3-0.9-0.4-1.8-0.3c-0.9,0.1-0.5,0.7-0.5,0.7c0.2,0.2,1.1,0.3,1.7,0.2
				C80.3,76.3,80.5,76,80.3,75.7z"/>
		</g>
	</g>
	<g id="Shape_78_4_" class="st0">
		<g>
			<path class="st8" d="M94.5,63.8c-0.8-0.3-1.6-1.2-1.3-1.2c0.3-0.1,0.8-0.2,0.7-2.1s-1.7-4.1-2.9-4.7c-1.2-0.7-3.3-0.9-6.7-0.7
				c-3.4,0.2-4.9,0.5-6.3,0.9c-1.4,0.3-2.1-0.3-2.3-1c-0.3-0.7-0.8-0.7-0.8-0.7s-0.3,0.7-0.3,1.5c0,0.7-0.2,0.6-1.1,0.7
				c-0.9,0.1-1-0.2-1.2-0.7c-0.2-0.5-0.3-1.3-0.6-0.9c-0.3,0.4-0.7,0.7-1.8,1c-1.1,0.3-3.3-0.3-4.4-0.3c-1.1,0-4.1,0.2-6.1,0.2
				c-2.1-0.1-3.1,0.6-4.3,2.2C54,59.4,54,62.7,54.5,64c0.5,1.2-3.8,1.7-1.2,1.9c2.6,0.1,4-1.9,4-1.9s-1.2,0.3-0.6-0.2
				c4.8-4.5,10.2-2.8,9.7-1.3c-0.5,1.5,0.1,1.2,0.4,1.5c0.3,0.4-0.7,0.7-0.8,0.5c0-0.3-0.7-0.6-2.9-0.2c-2.2,0.5,1,0.4,1.9,0.5
				c0.9,0.1,0.4,0.6-0.5,1c-0.9,0.4-5,0.2-6.4,1c-1.4,0.8,4-0.9,4.4,0.2c0.4,1.1-5,0.3-1.5,1.3s6.3-0.7,7.1-1.3
				c0.9-0.6,2.3-2.6,3.1-1.9c0.8,0.6,1.1-0.3,1-1c-0.1-0.7-0.1-1.8,0.1-2.3c0.2-0.5,1.9-0.4,2.9-0.5s1.4,0.6,1.7,0.8
				c0.3,0.2,0-1.4,0.3-1.2c0.3,0.2,1.4-0.4,1.3,0.4c-0.1,0.8,0.3,1.7,1.1,2.9c0.8,1.3,3.5,3.8,4.3,3.8c0.8,0,3.3,0.1,3.6-0.3
				c0.1-0.1-0.1,0-0.8-0.2c-0.7-0.2-2.2-0.7-2.9-1.5s1.2-1.1,2.2-1.5c1-0.4,2.8-1.8,3.6-2c0.8-0.2,2.6,1,3.7,1.4
				C94.5,64.2,95.3,64.1,94.5,63.8z"/>
		</g>
	</g>
	<g id="Shape_77_3_" class="st0">
		<g>
			<path class="st5" d="M87.7,80.9c-0.3-0.7-1-2.4-1.3-2.9c-0.4-0.4-3.1-4.2-3.3-3.6c0,0,0,0.9-0.5,1.4c-0.4,0.5-1.6,1.4-1.9,1.7
				s-0.4,1.2-1.3,1.5c-0.9,0.4-1.7,1.2-1.4,1.7s0.7,2,0.2,2.3c-0.5,0.4-3.1,1.3-5.3,0.2c-2.2-1.2-1.3-2.5-1.2-3.1s-0.7-2.1-1.9-1.6
				s-2.7,1.7-3.2,2.5c-0.5,0.8,0.1,2.4-0.2,3c-0.3,0.6,0.2,0.6,0.9,0.3c0.7-0.3,3.5-1.2,4.7-1s2.3,0.9,3.3,0.9c1-0.1,3-0.9,4.9-0.5
				c1.9,0.4,3.2,0.6,4,1c0.8,0.4,3.1,1.3,3.3,1.1c0.2-0.2,2.2-1,1.9-1.9C89.3,82.9,88,81.7,87.7,80.9z"/>
		</g>
	</g>
	<g id="Shape_80_4_" class="st0">
		<g>
			<path class="st9" d="M102,40.7c-0.6-1.3,0.1-4-1.3-6.7c-1.4-2.8-2.1-4.5-3.3-5.8s-3.5-0.7-4.4-1.5c-0.9-0.7-3.2-1.4-5.7-1.3
				c-2.5,0.1-9.6,2.1-10.4,2.2c-0.8,0.2-4.3,3.5-4.3,3.5l2.2,0.5c0,0,2.5,0.6,5.3,0.2c2.8-0.3,9.4,0.7,10.5,3.4s2.6,10.8,2.9,13.1
				c0.3,2.3,2.4,2.3,3,5c0.7,2.8-0.3,5.7-0.9,7.2c-0.6,1.5,1.1,3.2,2.2,4.5c1.1,1.3,2.6,3.3,3.6-1.3C103,58.1,102,50,103,48.2
				C103.8,46.7,102.7,42.2,102,40.7z"/>
		</g>
	</g>
	<g id="Shape_83_4_" class="st0">
		<g>
			<path class="st10" d="M93.2,62.6c-0.7-0.8-2.1-1.7-3-2.3c-1-0.6-1.5-0.8-2.4-1c-0.8-0.2-0.1-0.5,1.2-1c1.3-0.4,3.4-0.4,3.2-0.9
				c-0.3-0.4-1.7-1-2.6-1.3c-0.8-0.3-8.9,0.7-9.9,0.9c-1,0.3-0.3,0.9-1.2,1.2c-0.9,0.2-1.6-0.2-2.3-0.7C75.5,57.1,75,55,75,55
				c-0.5,0,0.4,3.8,1.2,4.6c0.8,0.9,2.4,0.7,2.3,1.2c0,0.4,0.2,0.7,0.5,1.4c0.3,0.7,1-0.4,1.1-0.2c0,0.2-0.5,1,0.2,1.1
				c0.6,0.1,0.8-0.3,0.3,1.1c-0.5,1.4,1.3,0.7,1.4,0.3c0.1-0.4,2.4,0.3,3.1-0.2c0.7-0.4-0.3-0.3,0.7-0.8c1-0.5,1.9-0.5,2.7-1.1
				c0.8-0.5,1.5,0,1.9,0.2c0.4,0.1,3.3,1.5,4.1,1.3C95.3,63.8,93.8,63.4,93.2,62.6z"/>
		</g>
	</g>
	<g id="Shape_81_4_" class="st0">
		<g>
			<path class="st11" d="M91.3,42.3c-0.3-1.8-5.3-9.1-15.6-8.4c-10.2,0.8-15.9,1.6-18.1,3.7c0,0-3.5,4.5-2.9,7.2
				c0.7,2.8,0.1,5.6-0.9,7.9s-2.8,6.2-0.7,5.3c2.1-0.9,6.8-3.1,8.8-3.2c1.9-0.1,2.8-1.1,5.6-1.9c2.8-0.9,8.1,0.2,11,0.7
				s4,1.2,6.7,0.9s5.3,0.8,6.1-2.5C92.1,48.8,91.6,44,91.3,42.3z"/>
		</g>
	</g>
	<g id="Shape_85_4_" class="st0">
		<g>
			<path class="st12" d="M90.9,61.3c-0.6-0.5-1.9-1.1-3.1-1.5c-1.2-0.4-2.2-0.1-2.6-0.2s1.8-0.9,2.4-1.2c0.6-0.4,3.2-0.6,3.7-0.7
				s0.9,0-0.1-0.5c-1-0.6-1.8-0.4-2.9-0.1c-1.1,0.3-2.7,0.3-3.6,0.8c-1,0.5-1.9,0.2-2.9,0.4S81,57.8,81,57.8s1.2-1.8-1.6,0.2
				c-2.9,2,2.1,1.2,2.6,1.4c0.6,0.2,0,0.2-1.2,1.1c-1.2,0.9-0.8,1.1,0.3,0.5c1.1-0.6,0.4,0.4,0.2,0.7s0,1.4,0.4,1.3
				c0.4-0.1,1.2-0.4,1.1-0.9c-0.2-0.5-0.4-0.5,0.6-1.5c1-0.9,4.2,0,5,0.2c0.8,0.2,0.8,0.8,0.9,1s0.8,0.1,1.2,0.2
				c0.4,0.1,1.8,0.7,2.2,0.6C93.1,62.7,91.5,61.9,90.9,61.3z"/>
		</g>
	</g>
	<g id="Shape_82_4_" class="st0">
		<g>
			<path class="st13" d="M88.7,45.3c-0.5-1.9-2-5-3.5-5.3c-2.2-0.5-7.9-0.9-8.9-1.1c-1-0.2-3.9-1.5-7.3-2.2c-1.3-0.2-1.7-1-4-0.9
				c-2.4,0.1-5.2,1.6-5.8,2.2c0,0-2.4,3.3-1.8,5.6c0.6,2.3,0.7,5.2,0,7s-1.9,4.3-1.9,5.1c0,0.8,1.4-1.1,3.5-0.8c2.1,0.3,4-1.7,6-2.8
				c1.9-1.1,5.2-2.9,7.7-2.7c2.6,0.2,6.2,0.5,7.8,1.8s1.7,3.3,4.4,3.1c2.8-0.2,3.3-0.7,4-2.6C89.5,49.8,89.2,47.2,88.7,45.3z"/>
		</g>
	</g>
	<g id="Shape_86_4_" class="st0">
		<g>
			<path class="st14" d="M92.1,62.6c-0.7-0.4-1.4-1.3-1.9-1.6c-0.5-0.3-3.9-1-4.7-1.2s-1.2-0.3-0.7-0.6c0.5-0.3,1.3-0.5,2.2-1
				s1.5-1.5,1.5-1.5s-5.8,0.3-6.5,1.2c-0.7,0.9,0.5,1.5,1.2,1.5s0,0.4-0.6,0.5c-0.6,0.1,0.1,0.4,0.3,0.4c0.2,0,2.1,0.2,3.4,0.2
				c1.4,0,2.2,0.8,2.6,0.9c0.3,0.2,1,0.4,2.2,1C92.3,63.1,92.7,63,92.1,62.6z"/>
		</g>
	</g>
	<g id="Shape_97_4_" class="st0">
		<g>
			<path class="st15" d="M109.4,68.5c-0.4-1.5-0.4-4.1,0-5.3c0.4-1.2,0.2-2.8-1.9-1.4c-2,1.4-4,2.7-4,3.6c-0.1,0.9,0,15.3,1.2,17.7
				c0,0,3,0,3.4-2.2c0.4-2.2-0.5-5.4,0.7-7.4C110,71.7,109.8,70,109.4,68.5z"/>
		</g>
	</g>
	<g id="Shape_87_4_" class="st0">
		<g>
			<path class="st16" d="M90.4,55.9c-0.9-0.5-2.4-0.2-2.8-0.6c-0.4-0.4-1.9-0.4-2.6-0.2c-0.8,0.2-2.3,0.6-2.9,0.7
				c-0.5,0.1-0.8-0.5-1.7-0.1c-1,0.4-2,1.1-1.5,1.6c0,0,0.9,1,2.9,1.1c2,0,2.3-0.4,3.6-0.8s2.1-0.5,3.4-0.7c1.3-0.2,2.4,0.5,2.9,0.5
				C92.1,57.5,91.2,56.4,90.4,55.9z"/>
		</g>
	</g>
	<g id="Shape_79_4_" class="st0">
		<g>
			<path class="st16" d="M111.2,44.7c-0.2-1.5-1.4-4.7-2.8-8.4s-3.8-6.5-5.2-7.9c-1.4-1.4-4.6,0.2-4.4-0.5c0.2-0.7-1-3.5-2.5-5.6
				c-1.5-2.1-4.3-3.2-7.1-4.3c-2.8-1-6.2-1.3-8.9-1.7c-2.8-0.4-7.5-1-10.9-1.5c-3.4-0.6-5.8,1.4-8.4,2.1s-5.5,2.6-8.1,4.8
				c-2.7,2.2-4.7,5.9-6,9.4c-1.4,3.5-2.2,8.7-2.2,11.9c0,3.1-0.4,3.6,0.1,6.7c0.5,3.1,0.5,3.9,0.6,6.3c0.2,2.4-0.9,4.4,0.5,6.5
				c1.4,2.1,0.3,1.7,0.9,4.7c0.5,2.9,2.3,2.1,1.9,0.3c-0.4-1.7,0.4-2.2,1.4-4.3c1-2.1-0.5-4.2-0.4-6c0.1-1.8-0.1-2.4,1.1-5.7
				c1.2-3.4,0.2-6.9,0.5-10.2c0.3-3.4,0.8-5.6,2.3-4.9c1.5,0.7,2.5,0.1,4.6-1.6c2.1-1.7,5.7-2.8,8.4-2.4c2.7,0.4,4,1.1,7.6,0.1
				s5-0.9,8.7-2.1c3.6-1.2,6.5-1.3,8.7-1.1c3.3,0.2,4.3-0.2,5.4,1.4c1.9,2.7,0.4,6,3.2,14.4c0.7,2.1,0,7.4,0.9,9.1
				c0.8,1.6,1.4,3,0.7,5.5c-0.7,2.5,0.5,4.3,1.6,5.4c1.2,1.2-0.1,5.3-0.1,5.3c1.3-0.6,3-2.2,3-3s0.5-1.9,1.3-4c0.9-2.1,1.6-2,2-3.7
				c0.4-1.7,0.9-5,1.4-6.5C111.5,51.3,111.4,46.2,111.2,44.7z"/>
		</g>
	</g>
	<g id="Shape_88_4_" class="st0">
		<g>
			<path class="st17" d="M91.2,63.3c-1.2-0.4-1.1,0.2-2.2,1.2c-1.1,1-3.2,1.5-3.2,1.5c0.3,2.8,7.1,0,8-0.8S92.4,63.7,91.2,63.3z"/>
		</g>
	</g>
	<g id="Shape_90_3_" class="st0">
		<g>
			<path class="st18" d="M89.5,61.1c-1-0.4-5.5-1-6.1-0.8c0,0-1.2,0.9-1.2,1.7c0,0.8,0.6,0.7,2.2,1.1c1.6,0.4,3,0.2,4.2-0.6
				C89.7,61.8,90.6,61.5,89.5,61.1z"/>
		</g>
	</g>
	<g id="Shape_90_copy_2_" class="st0">
		<g>
			<path class="st19" d="M88.2,61.6c-1-0.4-2.2-0.3-2.9-0.4c0,0-1.9-0.1-2.3,0.5c-0.4,0.7-0.2,0.9,1.4,1.3c1.6,0.4,3,0.2,4.2-0.6
				C89.7,61.8,89.2,62.1,88.2,61.6z"/>
		</g>
	</g>
	<g id="Ellipse_3_6_" class="st0">
		<g>
			<path class="st20" d="M84.1,60.3c-0.3,0.4-0.5,0.8-0.5,1.3c0,0.6,0.3,1.1,0.7,1.5c0,0,0.1,0,0.1,0c0.9,0.2,1.8,0.3,2.6,0.1
				c0.5-0.4,0.8-1,0.8-1.6c0-0.3-0.1-0.6-0.2-0.9C86.4,60.4,84.9,60.3,84.1,60.3z"/>
		</g>
	</g>
	<g id="Ellipse_3_copy_3_4_" class="st0">
		<g>
			<path class="st21" d="M86,60.6c-0.5,0-0.2,0.1-0.7,0.2c-0.3,0.1-0.4,0.3-0.5,0.7C84.6,62.3,85.2,63,86,63s1.5-0.7,1.5-1.5
				c0-0.3-0.1-0.5-0.2-0.8C87,60.3,86.5,60.6,86,60.6z"/>
		</g>
	</g>
	<g id="Ellipse_3_copy_4_" class="st0">
		<g>
			<circle class="st22" cx="85.7" cy="61.5" r="0.9"/>
		</g>
	</g>
	<g id="Ellipse_3_copy_2_4_" class="st0">
		<g>
			<circle class="st23" cx="86.8" cy="61.2" r="0.5"/>
		</g>
	</g>
	<g id="Shape_93_4_" class="st0">
		<g>
			<path class="st24" d="M70,58.7c-0.6-0.3-0.9-0.9-1.9-1.2c-1-0.3-1.7,0.5-3,0.2c-1.4-0.2-9.1-0.2-9.1-0.2s-1.5,1.2-1.1,3.3
				c0.5,2.1,0.6,2.1,0.5,2.6c-0.1,0.5-0.3,1.9,0.7,1.5c1-0.5,3.4-2,4-1.8s2.2,0.9,3.3,0.5c1.1-0.4,1.2-2.5,2.3-2.1
				c1.1,0.4,2.6,1.1,3.2,0.8c0.6-0.3,0.1,2,0.1,2s1,0.1,1.5-0.8c0.5-0.9,0.7-2.1,0.8-2.8c0.1-0.7,0.5-1.4,0.6-2.1
				C72.1,57.9,70.6,59,70,58.7z"/>
		</g>
	</g>
	<g id="Shape_99_4_" class="st0">
		<g>
			<path class="st25" d="M75.6,72.4c0,0-0.5,0.5-0.2,1c0.3,0.5,0.8,0.9,1.1,0.4C76.8,73.3,76.5,72.4,75.6,72.4z M72.3,65.4
				c-0.6,1.6-1.2,2.2-1.9,2.6s-5.1,1.7-6.1,2.6c-1,0.8-1.7,1.5-0.9,1.2c0,0,4.3-2.2,5.2-1.9s2.2-0.3,2.2,0.5c0.1,0.9,0.1,2.6,1,2.6
				s1.6,0.2,1.8-2.1c0.2-2.2-0.3-2.2-0.2-3.9C73.4,65.4,72.9,63.8,72.3,65.4z"/>
		</g>
	</g>
	<g id="Shape_91_4_" class="st0">
		<g>
			<path class="st26" d="M72.3,56.8c-0.3-1.4-0.5-0.9-0.5-0.4c0,0,0,3.3-1.6,3.3s-1.3-1-1.9-1.5s-0.7-1-1.5-1.2
				c-0.8-0.1-10.2,0-11.1,1.2s-0.5,2.2,0.5,2.1c1-0.1,2.5-1.2,3.8-1c1.3,0.2,4.5-0.4,5.6,0.1c1.1,0.5,2.2,0.3,2.4,0.9
				c0.2,0.6,0.3,0.7-1.2,0.2c-1.4-0.5-1.7-0.5-2.2-0.5c-3.7,0-6.4,1.5-6.8,2s-1.2,1.7-1.9,2c-0.6,0.3-0.6,0.9,0.4,0.5s2-1.2,3-1.2
				c1.3,0.1,0.5-0.6,1.9-0.3c1.5,0.3,2.3,0.4,2.9,0c0.7-0.4,0.7-1.9,1.4-1.6c0.7,0.3,1,0.6,1.1,1.2s0.4,0.5,1,0.9s0.6,1.5,0.2,2.1
				c-0.5,0.5-2.2,1.9-1.1,1.3c1.2-0.6,1.6-1.7,2.2-2.2c0.6-0.4,1.2-1.1,1.5-1.9c0.2-0.7,0-1.3,0.5-1.9
				C71.6,60.6,72.6,58.1,72.3,56.8z"/>
		</g>
	</g>
	<g id="Shape_96_4_" class="st0">
		<g>
			<path class="st18" d="M65.9,61.3c-0.7-0.4-2.6-0.5-3.9-0.2c-1.2,0.3-3.2,0.9-3.2,1.1c0,0,0.3,0.5,1.6,0.9
				c1.3,0.3,2.1,0.7,4.5,0.3c2.4-0.3,2.4-0.5,2.4-0.5S66.5,61.8,65.9,61.3z"/>
		</g>
	</g>
	<g id="Shape_96_copy_2_" class="st0">
		<g>
			<path class="st19" d="M65.8,62.1c-0.7-0.4-2.1-0.5-3.3-0.2s-2.1,0.1-2.2,0.3c0,0-1.2,0.5,0.1,0.9c1.3,0.3,2.1,0.7,4.5,0.3
				c0.5-0.1,0.9-0.1,1.2-0.2C68,62.9,66.4,62.5,65.8,62.1z"/>
		</g>
	</g>
	<g id="Shape_100_4_" class="st0">
		<g>
			<path class="st25" d="M60.5,69.5c-2.2-0.1-3.3-2.1-3.3-2.1c-0.8-0.7-2.1,0.4-2.1,0.1s1-1.2-1.6,0.3c-2.6,1.5-1.3,1.7-0.6,1.1
				s2.3-1.2,1.5-0.4c-0.8,0.8-1.4,1.9-0.8,1.3s2.2-1.9,1.4,0.2C54.2,72,54.4,75,56,75s4-2.7,4.9-3.8C61.7,70.2,62.7,69.5,60.5,69.5z
				"/>
		</g>
	</g>
	<g id="Shape_101_4_" class="st0">
		<g>
			<path class="st25" d="M54.4,66.4c-1.1,0.5-4.4,2-3.6,2c0,0,1.6-0.6,2.6-1.1C54.2,66.8,55.5,65.9,54.4,66.4z"/>
		</g>
	</g>
	<g id="Shape_102_4_" class="st0">
		<g>
			<path class="st25" d="M52.7,66c-1.3,0-2-0.7-1.7-0.3c0,0,1,0.9,1.5,0.8C53,66.4,54,65.9,52.7,66z"/>
		</g>
	</g>
	<g id="Shape_103_4_" class="st0">
		<g>
			<path class="st27" d="M82.4,93.6c-2.1,0.5-2.6,0.3-3.9,0.5s-4.2-0.3-5.7-0.5c-1.5-0.2-5.6-2.6-5.4-1.1c0,0-0.8,2.2,0.2,3.8
				c1,1.6,1.5,2.9,5.3,2.2c3.7-0.8,5-0.2,6.4-0.4c1.4-0.2-0.4-1.3,1.9-2.1C83.5,95.1,84.5,93.1,82.4,93.6z"/>
		</g>
	</g>
	<g id="Shape_69_4_" class="st0">
		<g>
			<path class="st28" d="M88.6,102.4c-0.9,1.4-4.5,5.2-8.8,5.5c-3.9,0.2-7.7-0.1-10.4-1.5c-2.9-1.5-3.4-2.7-5-4.4
				c-1.5-1.6-3.4-5.5-4.6-7.7c-1.2-2.2-0.7-1-1.9,0.1c-1.4,1.2-5.6-9.2-5.6-9.2c-0.5,5.3,2.9,9.8,3.8,11.2c0.9,1.4,2,5.5,2.6,7.7
				s4.3,9.2,6.7,12.6s8.7,9.5,12.9,8.4s7.9-4.9,7.4-6.1c-0.5-1.2-0.5-1.6-2.8-2.6s-1.6-3.8-0.9-5.7c0.7-1.9,2.7-3.4,4.2-4.6
				C87.6,105,89.4,101,88.6,102.4z"/>
		</g>
	</g>
	<g id="Shape_104_4_" class="st29">
		<g>
			<path class="st30" d="M83.7,107.4c-2,0.5-5.7,1-9.6,0.6s-12.3-5.8-10.6-2.7c0,0,0.9,1.8,1.9,2.5c1.1,0.7,2.1,2,3.5,4.7
				s3.7,5.6,7,6.3c3.3,0.7,2.4-2.6,2.6-5c0.2-2.3-1.1-3.9,1.2-4.4C81.9,108.8,85.7,106.9,83.7,107.4z"/>
		</g>
	</g>
	<g id="Shape_105_4_" class="st0">
		<g>
			<path class="st28" d="M101.5,90.8c-0.5,1.7-2.1,4.1-3.3,5.3c-1.2,1.2-2.9,5.7-2.9,5.7c-1.4,1.5,0.2,1.2,0.6,0.3
				c0.4-0.9,2-4.6,3-5.6s2.6-3.7,2.8-4.5C102,91.2,102.1,89.1,101.5,90.8z"/>
		</g>
	</g>
	<g id="Shape_106_4_" class="st0">
		<g>
			<path class="st31" d="M90.7,80.4c-1.4-1.8-0.9-2.8-2.9-4c-2.1-1.2-3.5-2.4-3.5-2.4c-1.6-0.5,3.4,4.3,4.3,5.8s2.3,2.8,3,3.2
				C92.4,83.4,92.2,82.2,90.7,80.4z"/>
		</g>
	</g>
	<g id="Shape_92_4_" class="st0">
		<g>
			<path class="st16" d="M66.7,56.4c-0.7,0-1.7-0.2-3.3-0.4c-1.6-0.2-4,0-5.7,0.6c-1.7,0.7-2.2,1.9-2.2,1.9c0.5,0.2,1.2,0.2,1.9-0.2
				c0.7-0.3,2.6-0.7,3.4-0.5c0.8,0.1,3.8,0.4,4.5,0.3s1.6-0.3,2.1-0.9C68,56.7,67.4,56.4,66.7,56.4z"/>
		</g>
	</g>
	<g id="Shape_107_4_" class="st0">
		<g>
			<path class="st32" d="M67.5,73c0,0-0.9-0.5-2.8,2.1c-1.9,2.6-2.6,3.3-3.3,5.4c-0.6,2.1-2.2,8-1.1,6.8c0,0,0.9-3.1,2-3
				c1.2,0.1,1.9-0.6,2.5-2.1c0.6-1.5,1.6-5.8,2.6-5.8C67.2,74.9,67.5,73,67.5,73z"/>
		</g>
	</g>
	<g id="Shape_108_4_" class="st0">
		<g>
			<path class="st33" d="M66.4,74.5c-1.6,0.3-4.1,7.3-4.1,7.3c-0.1,1.4,3.5-4.9,4.3-6C67.4,74.6,68,74.2,66.4,74.5z"/>
		</g>
	</g>
	<g id="Shape_109_4_" class="st0">
		<g>
			<path class="st34" d="M80.5,93.2c-1,0.2-3,0.8-5.6,0.7c-2.6-0.1-6.5-1.5-6.5-1.5c-2.5-0.9,1.2,1.5,3.2,1.9c2,0.4,4.1,0.8,6.6,0.2
				C80.7,94,81.5,93,80.5,93.2z"/>
		</g>
	</g>
	<g id="Shape_116_4_" class="st0">
		<g>
			<path class="st35" d="M87.9,85.9c-0.7-0.2-4.6-1.3-6.6-1.8c-2-0.5-5,0.5-6.1,0.7c-1.2,0.2-1.9-0.5-3.7-0.7
				c-1.3-0.2-4.2,0.8-5.9,1.5c-0.9,0.4-1.2,0-1.2,0c-1.6,0.8-1.9,1.9-0.4,2.4c0.2,0.1,0.5-0.4,0.8-0.2c0.8,0.3,2,0.7,3.4,1.3
				c5.9,2.3,13.8,0.5,14.6,0c0.7-0.5,5.5-2,6.1-2S88.6,86.1,87.9,85.9z"/>
		</g>
	</g>
	<g id="Shape_112_3_" class="st0">
		<g>
			<path class="st36" d="M86.3,85.8c-1.7-0.3-2.9-0.4-4.2-0.7c-1.3-0.3-3.6,0.1-4.6,0.2c-1,0.1-2.3,0.9-3.3,0.7
				c-1-0.2-4-0.6-4.9-0.6s-2.6,0.6-4,0.9c-1.4,0.3-1.2,0.7-0.3,1s3.5,1.5,3.5,1.5c1.3,0.5,2.9,0.6,5,0.9s6.7-0.2,7.4-0.3
				c0.7-0.1,3-1.2,4.3-1.7c1.2-0.5,1.2-0.7,2.3-0.9C88.6,86.7,88,86.1,86.3,85.8z"/>
		</g>
	</g>
	<g id="Shape_73_4_" class="st0">
		<g>
			<path class="st37" d="M84.6,86.4c-0.1-0.3-0.6,0.2-0.6,0.2S83.9,86,83.5,86c-0.5,0-0.9,0.5-0.9,0.5s-0.3-0.5-1-0.5
				c-0.7,0-0.8,0.7-0.8,0.7s-0.2-0.6-1.1-0.6c-0.9,0-0.9,0.9-0.9,0.9s-0.5-0.7-1.5-0.6c-1.1,0.1-1.4,1.1-1.4,1.1s-0.3-0.6-1.4-0.7
				c-1-0.1-1.5,0.7-1.5,0.7s0-0.6-1-0.6s-1,0.5-1,0.5s0.1-0.5-0.5-0.6c-0.6-0.1-0.8,0.5-0.8,0.5s-0.2,0-0.5-0.2
				c-0.3-0.2-0.2,1-0.2,1c0.2,0.7,0.7,0.6,0.7,0.6s0.1,0.2,0.7,0.5s0.8-0.8,0.9-0.5c0.1,0.3,0.3,0.6,1.1,0.6C73,89.3,73,89,73,89
				s0,0.3,0.4,0.5s2.3,0,2.3,0l0.2-0.4c0,0,0,0.3,0.4,0.5c0.3,0.1,1.6-0.1,2.3-0.2C79.4,89.3,79,89,79,89s1.4,0,1.5-0.1
				c0.2-0.1,0.2-0.6,0.2-0.6l0.1,0.5c0,0,0.7,0.2,1.2,0.1c0.5-0.1,0.5-0.8,0.9-0.7c0.5,0.1,0.8-0.2,0.8-0.2s0.8-0.2,0.9-0.5
				C84.9,87.3,84.7,86.6,84.6,86.4z"/>
		</g>
	</g>
	<g id="Shape_144_2_" class="st0">
		<g>
			<path class="st38" d="M73.9,87.6c-0.4,0.9-0.5,1.5-0.5,1.9c0,0,0,0,0,0c0.4,0.2,2.3,0,2.3,0l0.2-0.4c0,0,0,0.3,0.4,0.5
				c0.3,0.1,1.6-0.1,2.3-0.2C79.4,89.3,79,89,79,89s1.4,0,1.5-0.1c0.2-0.1,0.2-0.6,0.2-0.6l0.1,0.5c0,0,0.7,0.2,1.2,0.1
				c0.5-0.1,0.5-0.8,0.9-0.7c0.5,0.1,0.8-0.2,0.8-0.2s0.4-0.1,0.7-0.3l-0.6-1.5c-0.1-0.1-0.2-0.2-0.4-0.2c-0.5,0-0.9,0.5-0.9,0.5
				s-0.3-0.5-1-0.5c-0.7,0-0.8,0.7-0.8,0.7s-0.2-0.6-1.1-0.6c-0.9,0-0.9,0.9-0.9,0.9s-0.5-0.7-1.5-0.6c-1.1,0.1-1.4,1.1-1.4,1.1
				s-0.3-0.6-1.3-0.7C74.2,87,74,87.3,73.9,87.6z"/>
		</g>
	</g>
	<g id="Shape_111_3_" class="st0">
		<g>
			<path class="st39" d="M86.9,86.4C85.9,86,85,86,85,86s0.3,0.5,0.3,0.9c0,0.4,0.2,0,1.2,0C87.4,86.9,87.8,86.7,86.9,86.4z"/>
		</g>
	</g>
	<g id="Shape_110_4_" class="st0">
		<g>
			<path class="st39" d="M67.5,86.3c-1.7,0.1-2.6,0.7-2.6,0.7c-0.3-0.1,1.1,0.5,2.1,1.1c1,0.6,1.8,0.5,1.8,0.5s-0.5-1.5,0-1.9
				S69.2,86.2,67.5,86.3z"/>
		</g>
	</g>
	<g id="Shape_113_2_" class="st0">
		<g>
			<path class="st6" d="M72.7,77.1c0,0-0.8-1-1.4-1.4s-2-0.3-2.6,0.1c-0.6,0.3-0.7,0.6,0.1,1.2c0.8,0.5,0.9,0.6,1.8,0.5
				C71.4,77.3,73.6,77.6,72.7,77.1z"/>
		</g>
	</g>
	<g id="Ellipse_3_copy_4_15_" class="st0">
		<g>
			<path class="st20" d="M65.2,61.1c-0.9-0.2-2.3-0.2-3.2,0.1c-0.2,0.1-0.4,0.1-0.7,0.2c-0.1,0.2-0.1,0.4-0.1,0.6
				c0,0.6,0.3,1.1,0.7,1.5c0.7,0.1,1.5,0.2,2.9,0c0.4-0.4,0.6-0.9,0.6-1.5C65.4,61.6,65.3,61.4,65.2,61.1z"/>
		</g>
	</g>
	<g id="Ellipse_3_copy_4_13_" class="st0">
		<g>
			<path class="st21" d="M64.9,61.1c-0.3-0.4-0.8-0.1-1.3-0.1c-0.5,0-0.2,0.1-0.7,0.2c-0.3,0.1-0.4,0.3-0.5,0.7
				c-0.2,0.8,0.4,1.4,1.2,1.4c0.8,0,1.5-0.7,1.5-1.5C65.1,61.6,65,61.3,64.9,61.1z"/>
		</g>
	</g>
	<g id="Ellipse_3_copy_4_11_" class="st0">
		<g>
			<circle class="st22" cx="63.3" cy="61.9" r="0.9"/>
		</g>
	</g>
	<g id="Shape_131_4_" class="st0">
		<g>
			<path class="st40" d="M50.4,61.2c-0.3-2.1-1-3-0.5-5c0.5-1.9,0.3-5.3,0.3-5.3c-0.4,2.4-1.4,3.6-2.6,5.9c-1.2,2.3,0.6,4,0.5,6.4
				c-0.1,2.4,0.1,6,1,2.9C50,63,50.7,63.3,50.4,61.2z"/>
		</g>
	</g>
	<g id="Shape_145_2_" class="st0">
		<g>
			<path class="st41" d="M105.3,46.5c-1.5-1.8-1.2-5.9-0.5-5.5s1.2,1.1,2,2.9c0-2.6-2.3-4.4-2.8-7c-0.5-2.6-2-3-2-3
				c0.5,0.8,1.8,2.8,1.4,5.7c-0.7,4.9,2.5,7.8,0.9,7.7c-1.5-0.2-2.3-1.8-3.4-4.5c0.2,2.5,1.2,5.1,2.6,5.5c2.8,0.7,3.7,3.5,4.8,5.3
				C108.5,51.5,106.8,48.3,105.3,46.5z"/>
		</g>
	</g>
	<g id="Ellipse_3_copy_4_9_" class="st0">
		<g>
			<circle class="st23" cx="64.4" cy="61.6" r="0.5"/>
		</g>
	</g>
	<g id="Shape_120_3_" class="st0">
		<g>
			<path class="st42" d="M92.1,71c0,0-1.4,1.6-0.5,3.1c0.9,1.5,2,3.6,2.5,1.6C94.5,73.7,94.5,70,92.1,71z M54.8,70
				c0,0-0.9,2.8,0.4,4s2-0.2,2.6-1.7S56.1,68.3,54.8,70z"/>
		</g>
	</g>
	<g id="Shape_115_4_" class="st0">
		<g>
			<path class="st43" d="M77.6,75.8c-0.2-0.4-0.4,0-1.2,0.4c-0.8,0.3-2.4-0.1-3.3-0.2c-0.8,0-1.2,0.2-1.2,0.2
				c0.4,0.7,1.4,2.2,2.6,2.7c2,0.8,2.7-0.7,3-1.7S77.8,76.2,77.6,75.8z"/>
		</g>
	</g>
	<g id="Shape_114_2_" class="st0">
		<g>
			<path class="st7" d="M70.1,75.9c0,0-0.4,0.7,0.1,0.9c0.5,0.2,1.1-0.2,1.5-0.2S71,75.3,70.1,75.9z"/>
		</g>
	</g>
	<g id="Shape_117_4_" class="st0">
		<g>
			<path class="st44" d="M70.8,91.6c-0.8-0.7-2.2-1.1-2.2-1.1c-1.6-0.5,0.9,1.8,1.9,1.9C71.6,92.4,71.6,92.3,70.8,91.6z"/>
		</g>
	</g>
	<g id="Shape_126_4_" class="st0">
		<g>
			<path class="st40" d="M104.3,60.4c-0.7,1.5-0.8,0.9-0.8,0.9s-0.3-1.8-0.3-4.1c-0.1-2.3-2.1-3.2-2.6-4.6c0,0,0.6,2.3,1.4,3.8
				s-0.6,2.4-0.9,4.4c-0.4,1.9,0.9,2.4,1.6,4.6c0.7,2.3-0.5,4.3-0.5,4.3s2-1.3,3-3.8C106.1,63.5,104.3,62.6,104.3,60.4z"/>
		</g>
	</g>
	<g id="Shape_72_4_" class="st0">
		<g>
			<path class="st45" d="M70.3,60.1c0.2,0.7-0.2,3.6-0.5,5.3c-0.3,1.6-0.3,3.8-2.7,4.9c-2.4,1-8.9,0.7-10.8,0.3s-2.6-3.9-3-6
				C52.9,62.3,53,61,53,61s-0.5-0.8-0.5,0.3c0,1.1,0.6,8.8,3.7,9.7c3.1,0.9,10.2,0,10.9-0.3s1.1,0,2.2-2c1.2-2,1.5-8.4,1.5-8.4
				S70.1,59.4,70.3,60.1z M95,59.7c-0.2-1.9-0.7-1.3-0.7-1.3s0.2,1,0.2,1.3c0,0.3,0,6.6-0.6,7.5c-0.6,0.9-2,1.7-3.8,2
				c-1.8,0.3-6.4,0.7-8.1,0.3c-1.7-0.4-2.9-1.3-3.8-3.6c-0.9-2.3-1.8-6.4-1.8-6.4l-0.7,0.2c0,0,1.2,4.8,2.1,6.5s1.4,3.3,4,3.6
				c2.5,0.3,7.6-0.2,9.4-0.6c1.7-0.4,2.8-1,3.2-2.2C94.7,66.1,95.2,61.6,95,59.7z"/>
		</g>
	</g>
	<g id="Shape_121_4_" class="st0">
		<g>
			<polygon class="st46" points="51.3,60.4 49.6,61.5 49.9,63.1 50.4,63.1 52.1,61.6 			"/>
		</g>
	</g>
	<g id="Shape_70_4_" class="st0">
		<g>
			<path class="st47" d="M104.8,59.1c-1.4-0.3-8.8-1.4-8.8-1.4l-3.5-0.3c0,0-6.8-0.7-16.2,1.5c-2.5,0.6-3.8,0.7-6.4,0.2
				c-2.6-0.5-10.7-0.7-16.4,0.7c-0.9,0-2.5,0.6-2.5,0.6s-0.2,0.4-0.2,0.9c0,0.5,0.3,0.9,0.3,0.9l1.4,0.2c0,0-0.7-0.9,0.9-1.6
				s8.8-2.8,16.4-0.9c0.8,0.3-0.1,0.5,1.1,0.7c1.4,0.2,3.2,0.3,4.9-0.2c1.4-0.4-0.4-0.7,2.1-1.3c2.5-0.6,8.9-2,15.8-0.8
				c1.2,0.7,1.2,2,1.2,2s0.4-0.7,1.5-0.7s8.1,1,8.1,1S106.2,59.4,104.8,59.1z"/>
		</g>
	</g>
	<g id="Shape_125_3_" class="st0">
		<g>
			<path class="st48" d="M89.9,60.8c-0.6-0.3-5-0.9-6.3-0.9c-1.3,0-2.3,0.5-2.3,0.5s0.6,0,0.7,0.2c0.2,0.2-0.2,1-0.1,0.8
				c0.3-0.2,0.7-0.7,0.9-0.8c0.8-0.2,4.1-0.1,5.5,0.5c0.3,0.1,0.7,0.2,1,0.5c0.3,0.2,0,0.4,0.9,0.5c0.7,0.1,2.9,1.3,3.2,1.4
				C93.9,63.8,91,61.3,89.9,60.8z M68.4,63c-0.9-0.5-1.7-1.2-2.4-1.9c-0.7-0.7-2.1-0.7-4-0.2c-1.9,0.5-2.9,0.5-4,1.5
				c-1.1,0.9-1.9,2-2.5,2.3c-0.5,0.3-0.2,0.4,0.2,0.4c0,0,0.9-0.4,1.7-0.9c0.8-0.5,0.9-1.2,1.9-1s-0.4-0.7,0.7-1
				c1.1-0.3,1.9-0.7,3.2-0.8c1.3-0.1,1.5-0.2,2.6,0.3c1.1,0.5,1.2,1,1.3,1.4c0.2,0.4,0.2,0,0.9,0.3S69.4,63.5,68.4,63z"/>
		</g>
	</g>
	<g id="Shape_130_4_" class="st0">
		<g>
			<path class="st41" d="M49.6,33c1.2-2.7-2.2,0.6-2.9,3.4c-0.7,2.8-1.7,7.6-0.1,5.7s1,0.3,0.2,2.3c-0.9,2,0.3,6.1-0.5,9.2
				c0,0,1.7-2.3,1.9-4.9c0.2-2.6-0.2-4.5,1.2-6.5c1.4-2-0.9-3.1,0.6-6C51.5,33.4,48.4,35.7,49.6,33z"/>
		</g>
	</g>
	<g id="Shape_138_4_" class="st0">
		<g>
			<path class="st49" d="M101.1,111.5c-0.1-1-5,2.9-5.7,4.3c-0.8,1.4-4.8,10.2-5.7,10.8c-0.8,0.6-2.7,3.8-3.3,4.2
				c-0.6,0.4-13.8-1.8-14.4-1.6c-0.6,0.2-4.7,0.1-5.2-0.2s-6-1-6-1S58,143.4,57.8,157c-0.2,13.6,35,0.5,35,0.5s1.9-15.8,2.8-20.1
				c0.9-4.3,3.3-15.8,4-19.4C100.4,114.5,101.2,112.5,101.1,111.5z"/>
		</g>
	</g>
	<g id="Shape_134_copy_2_" class="st0">
		<g>
			<path class="st50" d="M104,94.5c0,0-2.2,7.7-5.5,11.1c-3.3,3.4-11.4,12.2-14.6,16.4c-0.2,0.3-0.5,0.6-0.7,0.9
				c-0.5-0.1-0.9-0.1-1.5,0.2c-3.8,2.2-7.9,0.5-7.9,0.5l-0.7,0.6c-7.4-5-12.8-15.5-12.8-15.5s0.4,9.1,0.8,12.2
				c0.4,3-0.9,8.3-1.2,14.7c-0.3,6.4,1.4,10.5,1.4,10.5s2.9-3.2,5.1-6.6c2.2,0.2,4.8-1.5,5.5-2.4c1-1.2,5.3-0.4,8.5-1.3
				c3.2-0.9,2-0.2,3.9-0.2c0.8,0,1.6-0.6,2.2-1.3l7.3,7.9c0,0,4.5-17.1,5.3-20.5c0.8-3.4,3.7-11.9,5.5-16.4
				C106.2,100.9,104.8,95.6,104,94.5z"/>
		</g>
	</g>
	<g id="Shape_135_4_" class="st0">
		<g>
			<path class="st51" d="M83.6,124.5c0,0-7.2,2.3-11.5,0.5s-3.1,1.3-3,2.6c0,0,1.7,9.1,3.7,11.3s8.6,1.2,8.6,1.2s0.2-8.7,3.4-10.5
				S83.6,124.5,83.6,124.5z"/>
		</g>
	</g>
	<g id="Shape_137_4_" class="st0">
		<g>
			<path class="st51" d="M81.9,141.8c-0.5-1.6-1.9-5-1.9-5l-7.6-0.2c0,0-1.7,6.4-1.2,11c0.6,4.7-2.1,8.7-2.6,9.9
				c-0.5,1.2,14.5,0.1,14.5,0.1S82.4,143.5,81.9,141.8z"/>
		</g>
	</g>
	<g id="Shape_118_4_" class="st0">
		<g>
			<path class="st52" d="M104,92.9c0,0-2.2,7.7-5.5,11.1c-3.3,3.4-11.4,12.2-14.6,16.4s-3.8,3.9-3.8,3.9l13.6,16.4
				c0,0,4.5-17.1,5.3-20.5c0.8-3.4,3.7-11.9,5.5-16.4C106.2,99.3,104.8,94.1,104,92.9z"/>
		</g>
	</g>
	<g id="Shape_134_4_" class="st0">
		<g>
			<path class="st52" d="M60.2,107.8c0,0,0.4,9.1,0.8,12.2c0.4,3-0.4,7.7-0.7,14.1s1,10.6,1,10.6s4.6-7.1,6-11.4
				c1.4-4.3,7.6-8.8,7.6-8.8C66.7,120.1,60.2,107.8,60.2,107.8z"/>
		</g>
	</g>
	<g id="Shape_140_3_" class="st0">
		<g>
			<path class="st53" d="M107.4,46.8c-1.1-1.1-0.8-1-2.9-3.8c1.4,5.5,4,6.4,4.9,10.4c0.9,4-1.6,6.5-1.3,5c0.3-1.4-0.2-4.1-0.9-4.7
				c-0.7-0.6-1.8-1.6-3.1-4c0.2,1.2-0.1,1.6,1.8,4.5c1.9,2.9-0.1,4.1-0.4,2.6c-0.2-0.9-0.8-2.1-1.3-2.8c0.1,0.4,0.1,1-0.2,2.9
				c-0.5,2.8-0.8,3.6-0.8,3.6s0.1,1.2,0.6,3.4c0.5,2.2-2.1,7.4-0.2,5.6c1.9-1.8,2.5-2.9,3.1-5.4c0.6-2.6,1.3-2,2.2-3.9
				c1-1.9,1.2-3.4,1.5-6.4S108.5,47.9,107.4,46.8z M104.3,54c-0.1-0.2-0.2-0.3-0.3-0.5C103.8,53.4,104,53.6,104.3,54z"/>
		</g>
	</g>
	<g id="Shape_141_4_" class="st0">
		<g>
			<path class="st54" d="M101.4,27C99,27.9,99,27.1,99,27.1s-0.9-4.3-2.7-5.7c-1.8-1.4-5.8-4.5-8.6-3.6c-2.8,0.9-6.7,2.5-9.4-0.3
				c-0.1,0.2,1.1,2,4,2.7c2.2,0.5,2.7,1.7,2.7,1.7l-0.4-1.5c0,0,3.5-1.6,6.2-0.7c2.7,0.9,4.5,2.1,5,3.5c0.4,1.4-0.5,1.4-3-1.1
				c0.4,1.6,0.7,2.1,2.3,3c1.6,0.9,0.7,2.8-1.4,1c-2.1-1.8-4.8-4.3-6.6-4.3c1.3,0.6,4.8,3.6,3.8,4.4c-1,0.8-3.1,1-5-1.2
				c-2.7-3.1-8.1-3.1-9.6-3.1s5.4,0.1,7.3,2.9c0.8,1.2-0.7,1.9-3.4,0.4s-3.2-1.2-5.1-1.2c3.8,0.9,3.2,1.5,4.7,2.7s-2.7,2.1-5.4,0.5
				c-2.7-1.6-3.5-2-3.5-2s2.7,2.7,3.6,3.5c-3,0-2.9,0.8-4.9-0.1c-2.9-1.3-5.9,1.1-8.8,2.4c3.6-0.1,5.4-1.9,7.8-1.1
				c1.4,0.5,2.8,1,4.8,0.8s1.5-1.2,4.8-1.5c3.3-0.4,1.4-1.5,4.7-1.5s2.8,0.3,5.7,0.3s2.8-0.6,4.8,0.2c2,0.7,0.6,0,1.3,0.9
				s2.4,1.5,2.5,2.6s0.7,2.2,1.6,3.6c0.9,1.4,0.5,2.4,1.1,3.8c0.6,1.4,3.9,6.3,4,7.8c0,0,0.2-3.1-1.4-5.4s-1.4-3.3-1.2-5.9
				s0.2-2.9-1.2-4.2c2.9,2.4,3.7,1.2,4.1,3.5c0.4,2.3,0.5,4.1,1.5,4.8c-0.5-2.9-0.9-3.4-0.6-5.2c0.3-1.7-0.9-3.3-1.5-3.9
				c-0.6-0.5,1.5,0,2.6,1.3C107.3,33.2,103.8,26.1,101.4,27z"/>
		</g>
	</g>
	<g id="Shape_142_4_" class="st0">
		<g>
			<path class="st53" d="M70.8,17.9c-4.9,0.2-6-0.9-5.7-0.5c0.3,0.4,1.4,1.6,3.6,1.7c4.7,0.2,2.1,1.2-0.4,1.3S63,22,61.1,23.6
				c-1.9,1.6-1.9,1-4.6,3.8c-2.7,2.8-5.6,2.3-6.8,1.8c1.7,2.9,6.8-0.7,6.5,0.2c-0.3,0.9-1.3,2.6-3.3,3.6s-2.5,4.8-2.4,6.7
				c0.1,1.8,0.4,3.9-0.9,6.5c3.4-2.1,1.7-9.5,3.3-11.5c1.6-2.1,3-2.1,2.3-0.2c0.7-0.6,1-2,2.2-4.5c1.2-2.5,5.1-2.7,5.1-2.7
				s0-0.8-2.8-0.8c2.6-2.2,7.1-1.3,9.5-0.7c-0.5-1-3.5-2.3-6.6-2.2c1-1,4.5-1.5,6.5-2c2.1-0.5,3.3-1.3,6-0.9
				c2.8,0.5,4.3-0.2,4.3-0.2C76.6,20.3,75.7,17.7,70.8,17.9z"/>
		</g>
	</g>
</g>
</svg>
