<?xml version="1.0" encoding="utf-8"?>
<!-- Generator: Adobe Illustrator 19.1.0, SVG Export Plug-In . SVG Version: 6.00 Build 0)  -->
<svg version="1.1" id="Layer_1" xmlns="http://www.w3.org/2000/svg" xmlns:xlink="http://www.w3.org/1999/xlink" x="0px" y="0px"
	 viewBox="0 0 150 150" style="enable-background:new 0 0 150 150;" xml:space="preserve">
<style type="text/css">
	.st0{clip-path:url(#SVGID_3_);}
	.st1{fill-rule:evenodd;clip-rule:evenodd;fill:#1E2B50;}
	.st2{fill-rule:evenodd;clip-rule:evenodd;fill:#101426;}
	.st3{fill-rule:evenodd;clip-rule:evenodd;fill:#0D132B;}
	.st4{fill-rule:evenodd;clip-rule:evenodd;fill:#753530;}
	.st5{fill-rule:evenodd;clip-rule:evenodd;fill:#AA635C;}
	.st6{fill-rule:evenodd;clip-rule:evenodd;fill:#C37A72;}
	.st7{fill-rule:evenodd;clip-rule:evenodd;fill:#E5A397;}
	.st8{fill-rule:evenodd;clip-rule:evenodd;fill:#AD6256;}
	.st9{fill-rule:evenodd;clip-rule:evenodd;fill:#C2706A;}
	.st10{fill-rule:evenodd;clip-rule:evenodd;fill:#CB7E6D;}
	.st11{fill-rule:evenodd;clip-rule:evenodd;fill:#C87765;}
	.st12{fill-rule:evenodd;clip-rule:evenodd;fill:#E09383;}
	.st13{fill-rule:evenodd;clip-rule:evenodd;fill:#EEAB98;}
	.st14{fill-rule:evenodd;clip-rule:evenodd;fill:#9C5347;}
	.st15{fill-rule:evenodd;clip-rule:evenodd;fill:#DE9382;}
	.st16{fill-rule:evenodd;clip-rule:evenodd;fill:#C97665;}
	.st17{fill-rule:evenodd;clip-rule:evenodd;fill:#EDBBAC;}
	.st18{fill-rule:evenodd;clip-rule:evenodd;fill:#F0CFD0;}
	.st19{fill-rule:evenodd;clip-rule:evenodd;fill:#F5BDB1;}
	.st20{fill-rule:evenodd;clip-rule:evenodd;fill:#85423B;}
	.st21{fill-rule:evenodd;clip-rule:evenodd;fill:#F0C5BD;}
	.st22{fill-rule:evenodd;clip-rule:evenodd;fill:#C97E7D;}
	.st23{fill-rule:evenodd;clip-rule:evenodd;fill:#FAC0BC;}
	.st24{fill-rule:evenodd;clip-rule:evenodd;fill:#F9DADB;}
	.st25{fill-rule:evenodd;clip-rule:evenodd;fill:#D8AAA4;}
	.st26{fill-rule:evenodd;clip-rule:evenodd;fill:#E8CAC6;}
	.st27{fill-rule:evenodd;clip-rule:evenodd;fill:#F7E5E2;}
	.st28{fill-rule:evenodd;clip-rule:evenodd;fill:#492019;}
	.st29{fill-rule:evenodd;clip-rule:evenodd;fill:#7E3E33;}
	.st30{fill-rule:evenodd;clip-rule:evenodd;fill:#9C5A51;}
	.st31{fill-rule:evenodd;clip-rule:evenodd;fill:#8E4C42;}
	.st32{fill-rule:evenodd;clip-rule:evenodd;fill:#E09988;}
	.st33{fill-rule:evenodd;clip-rule:evenodd;fill:#DC8F7D;}
	.st34{fill-rule:evenodd;clip-rule:evenodd;fill:#F3B29F;}
	.st35{fill-rule:evenodd;clip-rule:evenodd;fill:#EE9C89;}
	.st36{fill-rule:evenodd;clip-rule:evenodd;fill:#F0AFA0;}
	.st37{fill-rule:evenodd;clip-rule:evenodd;fill:#D47F73;}
	.st38{fill-rule:evenodd;clip-rule:evenodd;fill:#EC9B87;}
	.st39{fill-rule:evenodd;clip-rule:evenodd;fill:#FAB8A7;}
	.st40{fill-rule:evenodd;clip-rule:evenodd;fill:#967169;}
	.st41{fill-rule:evenodd;clip-rule:evenodd;fill:#B2A4A1;}
	.st42{fill-rule:evenodd;clip-rule:evenodd;fill:#241313;}
	.st43{fill-rule:evenodd;clip-rule:evenodd;fill:#5A504E;}
	.st44{fill-rule:evenodd;clip-rule:evenodd;fill:#170E0F;}
	.st45{fill-rule:evenodd;clip-rule:evenodd;fill:#FFFFFF;}
	.st46{fill-rule:evenodd;clip-rule:evenodd;fill:#C87C6D;}
	.st47{fill-rule:evenodd;clip-rule:evenodd;fill:#90534A;}
	.st48{fill-rule:evenodd;clip-rule:evenodd;fill:#C16D65;}
	.st49{fill-rule:evenodd;clip-rule:evenodd;fill:#C88982;}
	.st50{fill-rule:evenodd;clip-rule:evenodd;fill:#E3AA99;}
	.st51{fill-rule:evenodd;clip-rule:evenodd;fill:#8C564D;}
	.st52{fill-rule:evenodd;clip-rule:evenodd;fill:#A47169;}
	.st53{fill-rule:evenodd;clip-rule:evenodd;fill:#D0B5B1;}
	.st54{fill-rule:evenodd;clip-rule:evenodd;fill:#E8A797;}
	.st55{fill-rule:evenodd;clip-rule:evenodd;fill:#F7C2B7;}
	.st56{fill-rule:evenodd;clip-rule:evenodd;fill:#F6B09D;}
	.st57{fill-rule:evenodd;clip-rule:evenodd;fill:#FCD4C9;}
	.st58{fill-rule:evenodd;clip-rule:evenodd;fill:#DA8779;}
	.st59{fill-rule:evenodd;clip-rule:evenodd;fill:#CEBDCD;}
	.st60{fill-rule:evenodd;clip-rule:evenodd;fill:#978497;}
	.st61{fill-rule:evenodd;clip-rule:evenodd;fill:#EAE4EB;}
	.st62{fill-rule:evenodd;clip-rule:evenodd;fill:#C12126;}
	.st63{fill-rule:evenodd;clip-rule:evenodd;fill:#EF3F3F;}
	.st64{fill-rule:evenodd;clip-rule:evenodd;fill:#743C33;}
	.st65{fill-rule:evenodd;clip-rule:evenodd;fill:#E3DDE4;}
	.st66{fill-rule:evenodd;clip-rule:evenodd;fill:#834C4D;}
	.st67{fill-rule:evenodd;clip-rule:evenodd;fill:#CA9077;}
	.st68{fill-rule:evenodd;clip-rule:evenodd;fill:#8A564D;}
	.st69{fill-rule:evenodd;clip-rule:evenodd;fill:#F3E2D7;}
	.st70{fill-rule:evenodd;clip-rule:evenodd;fill:#BA6F65;}
	.st71{fill-rule:evenodd;clip-rule:evenodd;fill:#C6A088;}
	.st72{fill-rule:evenodd;clip-rule:evenodd;fill:#FADBC9;}
	.st73{fill-rule:evenodd;clip-rule:evenodd;fill:#A36944;}
	.st74{fill-rule:evenodd;clip-rule:evenodd;fill:#B46359;}
	.st75{fill-rule:evenodd;clip-rule:evenodd;fill:#FDDED7;}
	.st76{fill-rule:evenodd;clip-rule:evenodd;fill:#AE6359;}
	.st77{fill-rule:evenodd;clip-rule:evenodd;fill:#C49991;}
	.st78{fill-rule:evenodd;clip-rule:evenodd;fill:#F7DFD1;}
	.st79{fill-rule:evenodd;clip-rule:evenodd;fill:#E39999;}
	.st80{fill-rule:evenodd;clip-rule:evenodd;fill:#7F443D;}
	.st81{fill-rule:evenodd;clip-rule:evenodd;fill:#D98F81;}
	.st82{fill-rule:evenodd;clip-rule:evenodd;fill:#E8ABA0;}
	.st83{fill-rule:evenodd;clip-rule:evenodd;fill:#84473B;}
</style>
<g>
	<defs>
		<circle id="SVGID_1_" cx="75" cy="75" r="75"/>
	</defs>
	<linearGradient id="SVGID_2_" gradientUnits="userSpaceOnUse" x1="75" y1="150" x2="75" y2="0">
		<stop  offset="0" style="stop-color:#212121"/>
		<stop  offset="1" style="stop-color:#EF4438"/>
	</linearGradient>
	<use xlink:href="#SVGID_1_"  style="overflow:visible;fill:url(#SVGID_2_);"/>
	<clipPath id="SVGID_3_">
		<use xlink:href="#SVGID_1_"  style="overflow:visible;"/>
	</clipPath>
	<g id="Trump_6_" class="st0">
		<g id="Shape_58_12_">
			<g>
				<path class="st1" d="M163.5,187.9c-1.6-3.3,5.9-18.6,4-23.3c-1.9-4.7-6.3-31.3-8.2-36.4s-3.5-4.7-6.1-6.1
					c-2.6-1.4-13.9-6.1-18.1-7.8c-4.2-1.6-15.5-5.6-22.6-7.8c-7.1-2.1-9.2-5.4-12.9-8.7S69.9,88,69.9,88s-15.8-2.6-20-0.2
					c-4.2,2.4-5.4,8.7-6.6,9.9c-1.2,1.2-5.2,3.8-8.7,5.4s-11.3,5.9-17.2,8c-5.9,2.1-18.1,5.6-23.3,7.8c-5.2,2.1-9.6,4.9-13.9,6.3
					s-4,7.5-4.2,11.5s-1.6,11.8-2.8,16c-1.2,4.2,2.6,22.1,0.7,27.3c-1.9,5.2,0.2,25.6,0.2,25.6s187.8,3.5,187.1,1.6
					C160.7,205.3,165.1,191.2,163.5,187.9z"/>
			</g>
		</g>
		<g id="Shape_60_22_">
			<g>
				<path class="st2" d="M108.1,107.1l-0.8-1.5C107.4,106,107.7,106.5,108.1,107.1z M114.6,126.8l4.5-3.1c0,0-8.2-12-11-16.6
					l9.1,16.4l-5.2,2.8l8.9,7.1c0,0-4.5,51-14.8,74.8c-4.6,4.2,2.4,0,2.4,0s10.5-34.1,13.4-74.8
					C122.1,130.8,114.6,126.8,114.6,126.8z"/>
			</g>
		</g>
		<g id="Shape_59_22_">
			<g>
				<path class="st3" d="M59.1,206.7c-4.9-18.1-31.2-69.1-31.2-70.1c0-0.9,11.2-5.4,10.5-5.9c-0.7-0.5-9.2-4.7-9.2-4.7l6.6-18.1
					c0.1-0.5,3.3-9.6,1.5-5.6c-1.8,4-9.2,24.7-9.2,24.7s10.3,3.5,8.3,4c-2,0.5-11.5,4.5-10.7,5.9c9.3,16,31.4,70.5,31.4,70.5
					S60.5,211.7,59.1,206.7z"/>
			</g>
		</g>
		<g id="Shape_34_32_">
			<g>
				<path class="st4" d="M43.6,58.7c0,0-4.8-0.6-5.1,3.3c-0.2,3.9,0.8,6,0.9,7.2c0.1,1.2-0.1,3.8,1.8,5.9c1.9,2.1,0.8,4.1,4.1,5.3
					c3.3,1.2,1.3-3.1,2.9-4.8C49.9,73.8,46.9,59.9,43.6,58.7z"/>
			</g>
		</g>
		<g id="Shape_37_32_">
			<g>
				<path class="st5" d="M40.5,70.1c-0.3-1.2-0.3-2.9-0.1-3.8c0.2-0.9,0.6-5-0.4-4.5c0,0-1.3,0.2-0.8,2.5c0.5,2.3,0.5,3.5,0.6,4.1
					c0,0.6,0.6,3.2,0.9,4.2c0.4,1.1,1,2.2,1.2,2.4c0.2,0.2,0.6-0.5,0.1-1.1C41.6,73.5,40.8,71.4,40.5,70.1z M46.9,77.7
					c-0.1-1.2-0.3-3.7-0.6-4.5c-0.3-0.7-0.9-1.5-1.3-1.6c-0.4-0.2-0.7-0.6-0.9-1.3c-0.2-0.7,0.1-1.5,0.2-2c0.2-0.5,0.6-1.2,0.2-1.5
					c-0.4-0.3-2.3-3.3-2.9-1.8c0,0-0.9,2-0.6,3.5s0.4,2.5,0.9,3.4c0.6,0.9,0.6,1.3,1.1,0.6c0.5-0.7,0.8-2.1,0.9-0.5
					s-0.5,1.4-0.6,2.6c0,1.2-0.6,1.5,0.2,2.8c0.9,1.3,1.1,2.4,2.1,2.1C46.8,79.3,47,78.9,46.9,77.7z M46.4,72.1
					c0.3,0.3,0.3-4.1-0.8-4.5c0,0-0.8,1.8-0.2,2.7C45.9,71.3,46.1,71.9,46.4,72.1z"/>
			</g>
		</g>
		<g id="Shape_38_32_">
			<g>
				<path class="st6" d="M110.3,63.1c-0.3-1-5.6,2.4-6,6.6c-0.4,4.2-0.5,10.7-0.5,10.7s2.3,1,3.6-1.4c1.3-2.4,3.1-7.5,3.1-10.6
					C110.6,65.3,110.6,64.1,110.3,63.1z"/>
			</g>
		</g>
		<g id="Shape_39_32_">
			<g>
				<path class="st7" d="M109.4,70.7c-0.2,1.3-0.9,2.6-1.4,3.2c-0.3,0.3-0.4-0.2,0-0.8c0.4-0.6,1.1-2.4,1.3-2.9
					c0.2-0.5,0-0.7-1.1-0.2c-1.1,0.5-1.8,1.2-2.4,1.5c-0.6,0.4-0.9,0-0.9,1.3c-0.1,1.3-1.1,6.5-1.1,6.5s2,0.4,2.9-0.8
					c1-1.2,1.8-2.7,2.1-3.6c0.4-0.9,1.2-4.5,1.2-5.1C110.1,69.1,109.6,69.5,109.4,70.7z"/>
			</g>
		</g>
		<g id="Shape_1_22_">
			<g>
				<path class="st8" d="M95.7,24.1c-14.9-5-34.3-4.8-43.5,5c-8.5,9-18.3,32.4-8.2,28.2c0,0,2.1,7.5,2.7,12.3
					c0.7,5.4,0.7,16,4.4,23.4c3.8,7.4,9.6,14.3,15.5,18.7c5.9,4.3,10.2,8.8,15.9,4c6-5.2,12.2-11.1,14.1-14
					c2.2-3.4,7.2-11.3,7.6-20.2s2.2-15.9,3.1-21.3C108.1,54.7,110.6,29.1,95.7,24.1z"/>
			</g>
		</g>
		<g id="Shape_82_34_">
			<g>
				<path class="st9" d="M75.4,90.1c-0.2-0.1-6.4-1.4-7.5-2.1c-1.1-0.8-2.5-1.6-3.1-0.9s1.8,2.5,5.1,4.8c3.2,2.4,6.3,2.5,6.3,2.5
					C84.1,91.5,75.7,90.2,75.4,90.1z"/>
			</g>
		</g>
		<g id="Shape_55_22_">
			<g>
				<path class="st10" d="M99.8,82.5c-0.2,2.1,0.4,3.6-2,2.1c-2.4-1.5-2.5-1.5-1.5,1.1c0.9,2.6-1.8,2.7-1.8,1.1s-1.8,0.1-3.5,1.4
					c-1.8,1.3-4.6,4.5-6.2,6s-4.5,2.1-6.5,2.2c-2,0.1-7.2-1.2-8.8-3.4c-1.6-2.2-6-6.5-9.5-7.1c0,0-4.1-2.4-3.1,1.6
					c1.1,4,4.2,8.9,6.3,11s3.4,4.3,6.7,6c3.3,1.6,4.8,1.8,8.1,1.6c3.3-0.1,8-0.1,10.2-2.4c2.2-2.2,4.6-4.7,5.6-5.9
					c1.1-1.2-4,6.1-4.3,6.8c-0.4,0.7,1.5,1.2,4-0.9s4.7-7.1,6-10.3c1.3-3.3,3.3-6.3,3.2-9.1C102.6,81.8,100,80.4,99.8,82.5z"/>
			</g>
		</g>
		<g id="Shape_54_22_">
			<g>
				<path class="st11" d="M104.4,73.1c-0.4-2.6-1.9,5.1-2.6,6.6c-0.6,1.5-2,4.1-5.2,3.7c-1.4-0.2-0.4,6.1-2.3,1.5
					C93.9,84,92.9,86,91.9,86c-1,0.1-1.1,0.3-1.3,0.8c-0.2,0.5-2,2.6-2.7,3.3c-0.7,0.7-2.6,2.6-3.5,3.6c-0.9,1.1-3.6,2.6-5.5,2.8
					s-6.2,0-8.8-2.1c-1.3-1-2.8-2-2.9-3.2C66.9,90,68,90.8,69.2,91c0.7,0.1-1.9-1.4-4.2-2.6c-2.4-1.3-1.8-0.1-2.6-0.2
					c-0.8-0.1-0.6-1.4-1.8-1.9c-1.1-0.5-1.2,0.4-1.4-1.4c-0.2-1.6-3.3-0.9-3.3-0.9c-1.1-0.6-1.7-2.6-2.7-4.5c-1-1.9-0.9,2.4-0.7,4.9
					c0.2,2.9,1.1,5.6,2,7.9c0.9,2.2,1.8,3.7,2.7,6.3c0.9,2.6,4.4,5.7,5.6,6.5c1.5,0.9-0.6-2.6-1.4-4c-4.9-8.5-3.5-8.4-2.8-7.5
					c3.5,4.8,6.4,7.4,7.9,8.6c0.8,0.7,2.4,2.6,5.3,3.8c4.4,1.8,8.6,1.4,10.7,0.6c2.1-0.8,1.2,0.5,2.1,0.1c0.9-0.4,2.3-1.4,3.2-2.2
					c0.9-0.8,2.8-3.5,4-4.2c1.2-0.8,2.1,1.1,0.5,2.1c-0.6,0.4-1.5,1.4-2.4,2.5c-0.9,1.1-1.6,2.5-0.6,1.9c1.9-1.1,4.1-3.6,4.6-4
					c0.5-0.4,2.7-3.4,3.6-4.6c1-1.3,2.3-2.8,2.6-3.8c0.3-1,1.9-3.9,2.2-5.2c0.3-1.2,0.8-4.9,0.9-6.7
					C103.5,80.5,104.7,75.7,104.4,73.1z"/>
			</g>
		</g>
		<g id="Shape_93_34_">
			<g>
				<path class="st12" d="M102.1,77.7c-1.4,1.1-2.4,4.7-2.8,6.1s-0.7,0.7-2.1,0.1c-1.4-0.6-0.8,1.9-1.6,2.8
					c-0.8,0.9-0.8-0.5-2.9,1.1S92,90.2,91,91.3c-1.1,1.1-3.3,3.4-5.8,4.8c-2.5,1.4-7.5,1.9-9.2,1.6s-2.6-0.5-4.2-1.2
					c-1.6-0.7-3.4-2.9-4.8-4.8c-1.4-1.9,2.5-0.7,1.4-1.4c-1.1-0.7-2.4-2.4-3.9-0.9c-1.5,1.4,1.6,4.9,3.3,8c1.6,3.1,1.6,4.3,4.9,7.1
					c3.3,2.7,10.7,2.2,11.6,1.9c0.9-0.4,7.3-5.2,8.7-6.9c1.4-1.8,3.3-5.1,4.5-7.1c1.2-2,0.4,1.4-0.1,2.5c-0.5,1.1-2.9,4.5-4,5.5
					c-1.1,1.1-1.9,1.9-3.5,4.3c-1.6,2.5,0.9-0.4,3.3-1.8c2.4-1.4,4.1-4.5,4.7-5.8c0.6-1.3,1.6-3.4,2.6-5.4c0.9-2,2.4-7.8,2.6-9.9
					S102.1,77.7,102.1,77.7z"/>
			</g>
		</g>
		<g id="Shape_94_12_">
			<g>
				<path class="st13" d="M95.1,90.2c-1.1-0.5-2.8,0-2.8,0c-2.3,0.4-3.5,3.1-4.5,4.1c-0.9,1.1-3.2,2.2-5.1,2.9
					c-1.9,0.7-5.9-0.2-8.2,0.5c-2.4,0.7-3.3,4,0.1,6.2c3.4,2.2,10,1.5,12.3,0.2c2.4-1.3,6.1-6.3,7.6-8.3
					C96.1,93.9,96.1,90.7,95.1,90.2z"/>
			</g>
		</g>
		<g id="Shape_95_12_">
			<g>
				<path class="st13" d="M96.5,96.1c-1.5,2-5.3,7.3-6.9,9.2c-0.4,0.5,2.8-0.8,4.2-2.1s2.4-3.9,3.2-5.6C97.8,95.8,98,94.1,96.5,96.1
					z"/>
			</g>
		</g>
		<g id="Shape_50_12_">
			<g>
				<path class="st14" d="M89.3,85.9c-1.2,0.3-2.3,0.8-3.8,1.1c-1.5,0.3-3.7,0.5-5.1,0.8c-1.4,0.4-3.6,0.4-5.3,0.2s-4.8-0.5-5.9-0.9
					c-1.1-0.4-2.4-0.6-3.5-1.3c-1.1-0.7-3.3-0.1-3.3-0.1c-1-0.1,1.1,0.7,2.9,1.8c1.2,0.7,2.4,1.4,2.8,1.6c0.9,0.7,3.6,1.5,4.3,1.9
					c0.7,0.4,2.7,0.7,5.4,0.9c2.7,0.2,5.6-1.1,6.1-1.3s2.1-1.1,3.2-1.5c1.1-0.4,2.6-1.4,3.4-1.6c0.8-0.2,1.2-1.4,1.4-1.6
					S90.5,85.6,89.3,85.9z"/>
			</g>
		</g>
		<g id="Shape_56_12_">
			<g>
				<path class="st15" d="M66.1,96c-1.1-2.1-3.9-5.2-3.9-6.7c0-1.5-5.2-3.5-3.9-1.8c0,0,2.4,7.1,3.6,8.8s6.1,7.1,6.6,5.2
					C69.1,99.7,67.2,98.1,66.1,96z"/>
			</g>
		</g>
		<g id="Shape_33_32_">
			<g>
				<path class="st16" d="M76.4,53.5c-2.9-8.7,1.3-11.6-2.9-13.4c-4.2-1.8-21.7-7.7-19-0.5c0,0,1.6,7.9,1.6,9.8S54.6,57.5,57,59
					s11,1.1,12.5,0.7S79.3,62.2,76.4,53.5z"/>
			</g>
		</g>
		<g id="Shape_25_22_">
			<g>
				<path class="st17" d="M91.2,96.5c-1.4-1.1-4.2-0.6-3.1-2.2c1.2-1.6,2.8-5.2,0-3.3c-2.8,1.9-5.9,4.8-7.4,4.8s-9.1,1.7-5.8,2
					c0,0-3.4,2.4-1.2,4.6c2.2,2.2,8,2.1,10.9,1.2c2.9-0.9,2.4,0.4,4.2-1.9C90.8,99.4,92.6,97.5,91.2,96.5z"/>
			</g>
		</g>
		<g id="Shape_26_32_">
			<g>
				<path class="st18" d="M84.6,90.8c-1.2,0.4-5.9,1-7.1,1.4c0,0-2.5,1.2-0.4,1.6s3.6,0.1,5.4-0.8c1.8-0.9,3.1-1.5,3.9-2.4
					C87.2,89.8,85.8,90.4,84.6,90.8z"/>
			</g>
		</g>
		<g id="Shape_27_32_">
			<g>
				<path class="st19" d="M69.1,69.2c-2,0.6-2.8,0.8-4.2,0.8c-1.7,0-3.7,0.3-4.7,0.8c-1,0.6-2.8,2.2-1.2,4.3s3.1,1.8,5.1,1.2
					c1.9-0.6,4.6-1,5.4-2.9C70.3,71.5,71.1,68.6,69.1,69.2z"/>
			</g>
		</g>
		<g id="Shape_30_32_">
			<g>
				<path class="st20" d="M98.6,97.9c-1.1,1.3-3.5,4.6-4.8,5.9c-1.3,1.3-2.9,2.6-4.6,3.4c-1.6,0.8-2.7,0.8-2.2,0.4
					c0.5-0.4,2.6-2.9,3.2-3.8c0.5-0.8,3.6-3.4,2-2.7s-3.7,3.8-5.2,4.9c-1.5,1.2-1.4,0.9-3.9,1.5c-2.5,0.6-7.1,0.8-9.6,0
					c-2.5-0.8-5-1.4-6.7-3.8c-1.7-2.4-3.8-3.3-3.8-3.3c-1.9-0.3,1.5,3.9,2.1,5.2c0.6,1.3-1.1,1.5-2.7,0.7c-1.6-0.8-3.1-2.8-4.2-4.1
					c-1.1-1.4-2.4-5.7-3.2-7.1c-0.8-1.4-2.2-4.5-2.7-6.3s-0.8-6.1-1.1-8.2c-0.3-2.2-0.3-4.8,0-6.1c0.5-2.4,2-4.6-0.2-6.5
					c-3-2.4-1.2-11.3-0.8-14.9c0.4-4.4-2.4,1-3.3,0C45,51,46.2,68.7,46.4,69.6c0.2,0.9,0.3,1.9,0.5,4.1c0.2,2.2,0.5,4.8,0.7,6.6
					s0.5,4.1,1.4,7.1c0.9,3,1.6,5.8,2.5,6.9s3.6,6.7,5.6,9.2c2.1,2.5,5.2,5.2,7.4,7.5c2.2,2.4,7,5.8,9.3,6.6
					c2.3,0.8,3.6,1.3,5.2,0.7c1.6-0.6,3.8-2,4.7-2.8c0.9-0.8,2.8-2.6,3.8-3.5c0.9-0.9,3.2-3.1,4.5-4.2c1.2-1.1,4.4-4.7,5.3-6.1
					S99.7,96.6,98.6,97.9z"/>
			</g>
		</g>
		<g id="Shape_24_22_">
			<g>
				<path class="st21" d="M81.5,97.8c-4.1,0.1-5.2,0.1-5.2,0.1s-3.2,1.8-1.6,4c1.5,2.2,3.9,2.1,7.1,1.6
					C85,103.1,85.7,97.7,81.5,97.8z"/>
			</g>
		</g>
		<g id="Shape_53_22_">
			<g>
				<path class="st22" d="M85.8,88.4C85,88.5,80,89.5,80,89.5l-7.8-0.5c0,0-10.1-3.8-6.7-1.5c0,0,3.5,2.6,4.8,3.4
					c1.4,0.8,3.6,1.3,4.9,1.3s3-0.2,4.8-0.4s4.5-1.2,5.9-1.6s2.9-1.9,3.3-2.7C89.7,86.8,86.6,88.2,85.8,88.4z"/>
			</g>
		</g>
		<g id="Shape_51_12_">
			<g>
				<path class="st23" d="M89.7,86.7c-1.8,0.5-6.8,4.7-8.5,4.8c-1.6,0.1-1.8,0.8-5.5,0.7c0,0-4.1,0.1-2.1,1.2c2,1.1,3.3,1.5,7.2,1.2
					c4.2-0.3,3.4-1.4,5.1-2.8c1.8-1.5,3.8-3.1,4.3-3.9C90.7,87.1,91.4,86.2,89.7,86.7z"/>
			</g>
		</g>
		<g id="Shape_52_22_">
			<g>
				<path class="st24" d="M84.1,90.8c-0.8,0.1-1.6,0.7-2.9,0.9s-3.6,0.9-3.6,0.9c-3,1.3,3.5,0.7,5.5-0.1
					C85.5,91.7,85,90.7,84.1,90.8z"/>
			</g>
		</g>
		<g id="Shape_116_34_">
			<g>
				<path class="st25" d="M72.7,88.7c-0.5-0.4-2.1-0.7-2.1-0.7s-1.8-0.4-2.4-0.7s-2.9-0.6-1.8,0.2s4.7,2.4,4.7,2.4
					S73.3,89.2,72.7,88.7z"/>
			</g>
		</g>
		<g id="Shape_117_34_">
			<g>
				<path class="st26" d="M88.4,87.1c0.1,0-0.8-0.4-1.4,0.1c-0.5,0.4-0.2-0.2-0.8,0c-0.5,0.2-0.9,0.7-0.9,0.7l-1.4,2.2
					c0,0,3.5-1.3,4.2-2C88.4,87.7,88.4,87.1,88.4,87.1z"/>
			</g>
		</g>
		<g id="Shape_2_22_">
			<g>
				<path class="st27" d="M85.2,87.5c-0.7-0.2-1.3,0.7-1.6,0.7c-0.4,0-0.7-0.6-1.8,0.1c-0.8,0.5-1.4-0.4-2.7,0.2
					c-1.2,0.6-1,0-2.5-0.1c-1.3-0.1-1.5,0.5-1.8,0.4c-0.6-0.5-1.2-0.6-1.8-0.2c-0.3,0.2-0.7-0.1-1.5-0.4c-0.6-0.2-0.9-0.1-0.9,0.2
					c-0.1,0.6,0.4,1.4,0.4,1.4s2.1,0.9,4.5,1.3c2.5,0.5,5.5,0.3,8.6-1.1c0.6-0.2,1.2-0.6,1.2-0.6S86,87.8,85.2,87.5z"/>
			</g>
		</g>
		<g id="Shape_17_12_">
			<g>
				<path class="st28" d="M66.9,86.7c-0.9-0.3-2.4-0.2-2.4-0.2c0.8,0.4,3.3,2.1,3.2,1.9C67.1,87.2,68.7,87.3,66.9,86.7z M90.5,86.4
					c-0.5,0.2-1.2,0.4-1.6,0.4c-0.4,0-1.6,0.2-1.6,0.2s0.9,0,0.8,0.5c-0.1,0.5,0,0.7-0.6,1.1c0,0,1.6-0.6,2.5-1.2S91,86.1,90.5,86.4
					z"/>
			</g>
		</g>
		<g id="Shape_118_34_">
			<g>
				<path class="st29" d="M72.4,88.4L72,88.1c0,0-0.3,0-1.3-0.2c-0.9-0.2-2.8-0.8-3.7-1.1l0.6,0.8c0.1-0.1,0.2-0.1,0.4-0.1
					c0.5,0.1,0.9,0.6,0.9,0.6s-0.1-0.4,0.6-0.2c0.6,0.1,0.7,0.3,1.1,0.6c0.5-0.5,2,0.1,2,0.1L72.4,88.4z"/>
			</g>
		</g>
		<g id="Shape_20_32_">
			<g>
				<path class="st28" d="M85.8,79.5c-0.5,0.4-1,0.5-2,0.8c-1,0.4-1.5,1.2-2.2,2c-0.7,0.8-1.6,1.1-3.4,0.9s-2.6-1.6-3.2-2.1
					s-1-0.9-2.2-0.8c-1.2,0.1-2.4-0.7-2.4-0.7c-0.2,1.1,2.2,1.5,3.3,1.6s1.8,1.8,2.6,2.1c0.8,0.3,3.9,0.9,4.7,0
					c0.8-0.9,1.9-1.5,2.1-1.9s0.6-0.4,2-1.2C86.5,79.6,86.3,79.1,85.8,79.5z M72,75.3c0.5-0.3,0.8-0.9,0.5-1.1
					c-0.3-0.1-0.7,0.2-1.1,0.6c-0.4,0.4-0.9,1.4-1.8,2c-0.9,0.6-1.8,0.8-2.6,1.5c-0.8,0.7-2,1.8-2.5,2.1c-0.5,0.3-1.8,1.5-2.6,1.9
					c-0.8,0.4-1.7,1.4-2.1,2.4c0,0,1.5-1.6,2.6-2.1c1.1-0.5,2.4-1.6,3.1-2.2c0.6-0.6,2.9-2.3,3.4-2.6c0.5-0.3,0.9-0.4,1.2,0.1
					c0.2,0.5,0.2-0.7,0.7-1.4C71.3,75.8,71.6,75.6,72,75.3z M95.1,84.3c-0.1-0.8-1.4-2.1-2.2-3.1c-0.9-0.9-2.6-2.8-3.5-3.5
					c-0.9-0.8-1.4-1.5-2.1-1.9c-0.7-0.4-0.6-0.8-1.9-1.8c-1.2-0.9-1.2-0.3-0.8,0s0.9,1.2,1.4,1.6s0.7,1.5,0.7,1.5
					c0.6,0,0.1-1.1,0.5-0.8c0.4,0.3,1.1,1.1,2,1.8c0.9,0.7,2.7,2.7,3.2,3.2c0.5,0.5,1.4,1.9,2,2.5c0.6,0.6,1.1,2.5,1.1,2.5
					S95.2,85,95.1,84.3z"/>
			</g>
		</g>
		<g id="Shape_21_32_">
			<g>
				<path class="st30" d="M88,90.4c-0.7,0.4-1.4,0.8-2.5,1.6c-1.1,0.9-2.1,1.5-3.5,2s-3.8,0.5-5.5,0.4s-3.9-0.9-4.8-1.5
					c-0.9-0.6-2.9-1.5-2.9-1.5c-3-1,3.7,4.6,5.1,5.1c1.9,0.6,5.1,0.5,6.2,0.4c1.2-0.1,3.4-1,3.9-1.4c0.5-0.4,2.3-2,2.7-2.5
					C87.9,91.4,88.7,90,88,90.4z"/>
			</g>
		</g>
		<g id="Shape_22_12_">
			<g>
				<path class="st31" d="M82.6,97.3c-1.3,0-3.4,0.4-4.5,0.2c-1.1-0.1-3.2-0.2-4-0.2c-0.8-0.1-3.4-0.2-2,0.2c0,0,0.7,0.4,1.9,0.4
					c1.2-0.1,3.5-0.1,4.5,0.1c1,0.2,2.9,0,4-0.1S83.9,97.3,82.6,97.3z"/>
			</g>
		</g>
		<g id="Shape_13_12_">
			<g>
				<path class="st32" d="M92.5,43.9c-1.4-1.3-3.9,0.3-6.7,0.1c-2.8-0.2-9.8-1.5-11.5-2.7s-6.3-0.8-9.5-1.9
					c-3.2-1.1-1.2,2.2-1.2,4.9c0,2.7-1.1,4.4-0.9,6.1s5.1,4.2,5.1,4.2s17.8,2.2,19,2c1.3-0.2,6.9,3.4,8-3.9
					C95.8,45.6,93.8,45.2,92.5,43.9z"/>
			</g>
		</g>
		<g id="Shape_48_22_">
			<g>
				<path class="st33" d="M76.3,63.3c0.5-0.9-2-2-2.2-0.6c-0.2,1.4-0.8,2-1.4,2.2c-0.6,0.2-2.9-1.2-2.9-1.2s-8.5,0.5-9.3,0.2
					C59.6,63.8,58,64.6,57,65s-3.3-0.5-4-1.1c-0.7-0.6-2.8,0.7-2.5,2.4c0.4,1.6,2.2,0.9,1.9,2.7c-0.4,1.8,1.2,2.2,0.9,4.8
					s1.6,4.7,4.2,5.9c2.6,1.2,3.9,1.4,6.9-0.5c0,0,4.5-2.7,5.6-3.6c1.2-0.9,2.8-2.6,3.6-1.2c0.8,1.4,0.5,1.9,0.5,1.9
					s2.8,3.9,1.8-6.1C75,60.2,75.8,64.3,76.3,63.3z"/>
			</g>
		</g>
		<g id="Shape_45_22_">
			<g>
				<path class="st34" d="M104.2,59.7c-0.4-2.1-1.3-6.6-1.3-6.6s-0.8-3.1-0.9-2c-0.1,1.1,1.2,9.6-0.5,10.8c-1,0.7-3.6,1-4.1,1.9
					c0,0,0.1,0,0.1,0.1c1.4,0.6,0.7,2.2-0.1,0.7c-0.2-0.3-0.1-0.5,0-0.8c-1.3-0.6-1.7-1-2.9-0.5c-1.3,0.5-6.7,0.9-6,2
					c0.7,1.1,5.4,0.6,3.8,1.6c-1.6,1-3.7,0.4-5.3-0.5c-1.7-1-2.1-1.4-2.6-0.7c-0.5,0.7-1.6,0.2-1.8-1.2c-0.1-1.4,0.1-2.6-1.3-2.6
					c-1.4,0-3.2,0.4-4.3,0.4s-1.2,1.4-1.4,3.4c-0.2,2-0.8,5.4-0.9,6.9c-0.1,1.5,0.5,3.9-0.2,4.1c-0.7,0.2-0.8-1.3-1.4-1.4
					c-0.6-0.1-2.1,0.7-2.1,2.1s0.4,1.9,1.4,1.9c1.1,0,1.3-1.1,2.6-0.1c1.3,0.9,0.8,1.9,2.8,2.5c2,0.6,2.8,0.4,4.1-0.7
					c1.3-1.1,1.9-1.1,3.1-1.6c1.2-0.6,2.2-1.3,1.9-2.4c-0.4-1.1-1.5-2.6-2.8-3.2c0,0-0.2-1.6,2.7,0c2.9,1.6,5.3,2.5,6.6,4.1
					c1.3,1.6,5.7,2.2,7.3,0.6c1.6-1.6,1.9-4,1.5-5.1c-0.6-1.5-0.8-1.1,0.1-2c0.9-0.9,1.2-1.4,0.9-2.1c-0.2-0.7,0.7-1.1,1.2-2.2
					C104.7,66,104.6,61.8,104.2,59.7z"/>
			</g>
		</g>
		<g id="Shape_112_34_">
			<g>
				<path class="st35" d="M103.3,68.9c-0.5-0.3-0.2-0.4-1.5,0c-1.4,0.4-1.4,0.2-0.8,2.7c0.5,2.5-1.2,4.3-2.8,5.4
					C96.5,78,90.6,76,90.6,76c0.8,1.4,2.9,2.7,5.5,3.4c3.3,0.9,5.3-0.9,5.8-1.6c0.4-0.8,0.5-1.9,0.8-3.6s0.2-1.8,0.5-2.8
					C103.3,70.8,103.8,69.1,103.3,68.9z"/>
			</g>
		</g>
		<g id="Shape_12_12_">
			<g>
				<path class="st36" d="M88.1,46.6c-1.4-1.4-14.6-6.5-14.9-2.2c0,0-0.8,3.1-2.1,4c-1.4,0.9-5.5,1.4-4,3.5c1.5,2.2,2.1,2,4.8,2.7
					c2.7,0.7,7.9,1.4,10,1.1s3.8-1.2,5.1-1.9c1.3-0.6,2.6-2.5,2.6-3.9S89.5,48,88.1,46.6z"/>
			</g>
		</g>
		<g id="Shape_11_12_">
			<g>
				<path class="st37" d="M102.5,52.7c-0.3-1.9-0.7-7.8-3.5-3.9c-3.5,4.9-8.2,3.8-9.9,4.1c-1.6,0.3-4.5,2-5.2,2.2
					c-0.6,0.2-1.8,0.5-2.9,0.5c-1.1,0-7.2-0.3-8.5-0.8c-1.3-0.5-5.9-1.9-6.9-2.5c-1.1-0.6-3.9-3.1-4.9-0.6c0,0-0.8,2.3,1.3,3.3
					c2.1,1,10.2,4.6,10.6,4.9c0.4,0.3-2,0.8-1.6,1.2c0.4,0.4,1.8,5.2,3.1,5.2c1.2-0.1,1.6-1.1,2-2.7c0.4-1.6,1.3-1.1,2.7-1.2
					s2.5-0.8,2.8,0.2c0.4,1,0.4,1.1,0.9,2.1c0.6,1.1-0.1,0.2,1.3,0.8c1.4,0.6,4.6,0.8,4.3-0.2c-0.3-1.1,1.4-1.4,1.3-1.9
					c-0.1-0.5-1.4-1.8,0.7-1.9s3.7,0,4.9,0.5c1.2,0.5,0.7,0.6,1.4,1.5c0.7,0.9,1.5,0.9,2.6,0.7c1.1-0.2,3.7-1.5,3.5-2.5
					C102.2,60.5,102.8,54.7,102.5,52.7z"/>
			</g>
		</g>
		<g id="Shape_86_34_">
			<g>
				<path class="st38" d="M100.9,52.5c0.2-1.4,0.6-2.8,0.2-5.1c-0.4-2.3-3.4-2.7-6-2.5c-1.8,0.2-1.1,0.8-0.7,2
					c0.4,1.2,0.3,1.9,0.2,2.8c-0.1,0.9-0.2,1.8-0.6,2c-0.4,0.2-2.8,0.6-3.6,0.8c-0.8,0.2-4.6-0.1-3.9,1.5c0,0,2.4-0.5,3.5-0.1
					s3.6-2.4,7.1-1.5s1.8,4.1,2.5,5.1c0.6,0.9,1.3,1.9,1.4,0.2S100.7,53.9,100.9,52.5z"/>
			</g>
		</g>
		<g id="Shape_10_12_">
			<g>
				<path class="st39" d="M70.3,56.5c-3.5-0.1-4.8-1.8-8-2.6c-2.8-0.7-5.1,4.7-5.1,4.7c-0.6,0.6,14.9,1.5,15.4,0.8
					C73.1,58.8,73.7,56.6,70.3,56.5z"/>
			</g>
		</g>
		<g id="Shape_23_36_">
			<g>
				<path class="st40" d="M68.7,63.3c-0.5-0.2-1-0.5-1.8-0.9c-0.8-0.4-3.7,0-4.6,0.4c0,0-2,0.3-1.2,0.7c0.8,0.4,0.8,0.4,2.5,0.7
					c1.6,0.3,3.8,0,4.6-0.2C69.1,63.6,69.2,63.6,68.7,63.3z"/>
			</g>
		</g>
		<g id="Shape_23_copy_26_">
			<g>
				<path class="st41" d="M69.1,63.9c-0.5-0.2-1-0.5-1.8-0.9s-3.7,0-4.6,0.4c0,0-2,0.3-1.2,0.7c0.8,0.4,0.8,0.4,2.5,0.7
					s3.8,0,4.6-0.2C69.4,64.2,69.6,64.2,69.1,63.9z"/>
			</g>
		</g>
		<g id="Ellipse_1_46_">
			<g>
				<circle class="st42" cx="65.1" cy="62.7" r="2.4"/>
			</g>
		</g>
		<g id="Ellipse_1_copy_2_26_">
			<g>
				<circle class="st43" cx="65.1" cy="62.7" r="2"/>
			</g>
		</g>
		<g id="Ellipse_1_copy_26_">
			<g>
				<circle class="st44" cx="65.1" cy="62.7" r="1.2"/>
			</g>
		</g>
		<g id="Ellipse_2_26_">
			<g>
				<circle class="st45" cx="65.2" cy="62.5" r="0.2"/>
			</g>
		</g>
		<g id="Shape_87_34_">
			<g>
				<path class="st46" d="M58.6,65.6c-0.9-0.7-1.5-0.2-2.9-0.8c-1.4-0.6-2.7-1.9-4.3-0.7c-1.6,1.2-1.4,1.6-0.1,3.2
					c1.3,1.5,0.7,2,0.8,3.1c0.1,1.1,0.4,2.8,1.3,2.6c0,0,4.3-4.5,6.7-4.9C62.4,67.4,59.6,66.3,58.6,65.6z"/>
			</g>
		</g>
		<g id="Shape_4_22_">
			<g>
				<path class="st47" d="M71.4,60.9c-2.5-0.3-4.9-1.1-7.4-1.1c-2.3,0-5.7,0-7.1,0.7c-1.3,0.7-5.1,2.4-3.9,3.4c0,0,3.4,2.4,4.7,1.4
					c1.5-1.2,2.3-2.4,4.3-2.7c2-0.3,3.3-1,5.5,0c2.2,1,2.1,1.1,3.2,1.4c1.1,0.4,1.3,0.6,1.3,0.6s1.8,0.8,1.9-1.1
					C74.1,61.7,73.9,61.2,71.4,60.9z"/>
			</g>
		</g>
		<g id="Shape_6_12_">
			<g>
				<path class="st48" d="M71.1,63.8c-0.7-0.4-1.3-0.4-2-0.4C68.4,63.5,67,64,65.2,64c-1.8,0-3.9-0.7-3.9-0.7s-0.5-0.3-2.6,1.1
					c-2.1,1.4,0.8,3.6,4.5,4.2c3.6,0.6,4.7-0.2,5.6-0.5c2.7-0.7,1.3-1.4,3.8-2.7C73.6,64.9,71.8,64.2,71.1,63.8z"/>
			</g>
		</g>
		<g id="Shape_28_22_">
			<g>
				<path class="st49" d="M70.9,64.7c-1.5-0.2-1.9-0.6-3.8-0.5c-1.8,0.2-3.9-0.1-4.8-0.1c-0.9,0-2.5,1.5-1.4,1.9
					c0,0,0.8,0.6,2.4,0.9c1.5,0.4,3.9,0.4,5.5-0.1c1.6-0.5,1.6-0.5,2.2-0.6C71.6,66.2,72.4,65,70.9,64.7z"/>
			</g>
		</g>
		<g id="Shape_40_32_">
			<g>
				<path class="st50" d="M110.8,37.7c-0.9-5.8-3.5-9.1-6.7-13.9c-3.2-4.8-4.7-6.5-10.1-8.5c-4.9-1.7-4.3-1.3-7.1-2.5
					c-2.7-1.2-5.6,0-9.9,0s-6.9,0.7-9.8,0.8c-2.8,0.1-4.1,0.4-8.9,2.2c-4.8,1.9-5.3,3.9-7.3,5.1c-2,1.2-4.2,2.6-4.7,5.2
					c-0.5,2.6-4.6,5.5-5.3,13.5c0,0,3.8-0.4,5.3-1.5c1.5-1.2,0.8-2.4,4.8-0.2c4,2.1,6.7,2.4,10.9,2.6c4.2,0.2,9.9,2.5,13.8,4.8
					c3.9,2.4,7.8,3.6,12.7,1.3c4.9-2.4,10.5-0.9,12.9-0.1C104,47.3,111.8,43.5,110.8,37.7z"/>
			</g>
		</g>
		<g id="Shape_41_32_">
			<g>
				<path class="st48" d="M65.8,61.3c-1.1-0.4-5.5-1.5-8,0.7c0,0-1.4,0.4-2.1,0.9c-0.7,0.6-0.1,0.8,1.2,0.9c1,0.1,1.6-0.1,2.6-0.7
					c1-0.6,1.7-0.7,2.9-0.9c1.2-0.2,3-0.5,3.8-0.4C66.9,62.1,66.9,61.7,65.8,61.3z"/>
			</g>
		</g>
		<g id="Shape_8_12_">
			<g>
				<path class="st28" d="M71.8,63.8c0.4-0.1,0.6-0.2-0.2-0.5c-0.3-0.1-0.7-0.3-1.1-0.5c-0.6-0.3-1.2-0.7-1.6-0.9
					c-0.8-0.4-0.5-0.8-0.5-0.8S68,60.8,67,61c-1-0.3-3.3-0.5-3.4,0.1c0,0,3.5,0.4,5.1,1.3C69.5,62.9,71.4,63.9,71.8,63.8z
					 M71.9,64.5c-0.4-0.2-0.6-0.4-1.4-0.7c-0.8-0.3-1-0.4-2-0.8c-0.9-0.4-1.1-0.9-2.5-1.1c-1.3-0.2-2.7,0.4-4,0.7
					c-1.4,0.4-1.9,0.8-3.1,1.3c-1,0.5-0.8,1.2-1.5,1.3c-0.7,0.1-3.2-0.7-3.2-0.7c-0.4,0.5,2,1.2,3.2,1.2c0.6,0,0.7-0.5,0.9-0.7
					c0.2-0.1,0.5-0.4,1.1-0.8c0.5-0.4,1.1-0.4,1.6-0.4c0.5,0,2-0.2,1.3-0.2c-0.7-0.1-0.5-0.2-0.5-0.5s1.3-0.5,2-0.6s1.8-0.2,2.2-0.1
					c0.4,0.1,1.3,0.4,1.8,0.6s0.5,0.5,0.5,0.5s0.9,0.3,1.6,0.6c0.7,0.3,1.4,0.8,1.9,0.9S72.3,64.7,71.9,64.5z"/>
			</g>
		</g>
		<g id="Shape_71_12_">
			<g>
				<path class="st51" d="M100.8,46.3c-0.1-0.1-2.8-1-6.7-1.2c-3.5-0.1-7.4-0.2-8.3-0.4c-7.8-2.3-23.7-6.7-24.6-7.2
					c-2-1.2-4.1-2.2-5.3-2.6c-2-0.6-10.7-0.8-11.6,0c-0.9,0.8-2.9,3.3-3.5,5.3c-0.6,2-1.2,2.2-0.9,4.7s-0.8,3.9-1.3,5.9
					s-1.4,3.5-0.5,6.1c0.9,2.6,1.1,2.4,2.5,3.4c1.4,1.1,2.8,2.6,3.5,4.1c0.7,1.5,1.2,2.6,2.2,2.9c0,0,1.4-1.1,0.2-4.9
					c-0.6-2.2-0.6-6.5,1.8-6.9c2.4-0.5,4.6-1.6,4.5-3.2c-0.1-1.3-1.4-4.5-1.3-6.7s-0.1-7.2,2.1-6.5c3.9,1.3,3.5,2.6,7.8,2.7
					c8.8,0.2,8.4,4.7,16.5,6c1.8,0.3,4.3,0.4,6.8,0.1c0.9-0.1,2.7-1,3.4-1.2c1.6-0.5,2.8-1.2,5.8-1.1
					C96.2,45.8,101.2,46.6,100.8,46.3z"/>
			</g>
		</g>
		<g id="Shape_32_32_">
			<g>
				<path class="st52" d="M111.8,52.5c-0.1-1.3-0.6-2-0.4-3.3c0.2-1.3,0.1-3.4-0.4-4.8c-0.5-1.4-0.7-2.1-0.1-3.8
					c0.6-1.6-0.8-4.7-0.8-6c0-1.3-0.4-3.6-1.1-4.9c-0.3-0.6-1,2.4-2.1,6c-0.1,0.3,0.9,2.3,0,2.2c-0.4,0-1.6-0.1-1.4,0.2
					c0.3,0.7,0.3,2.5,0.8,2.8c-0.5,0.8-1.6,0.8-2.7,0.9c0.4,0.9,1.1,2.1,1.8,3.1c-1.9,1-3.7,1-4.8,1.4c0,0,1.1,2.4,2.1,5.9
					s1.3,5.5,1.6,8c0.4,2.5,0.4,8.3,0.4,10.3s0.5,0.6,1.8-1.6c1.3-2.2,1.3-3.3,2.7-4.3c1.4-1.1,0.9,0.8,1.4-0.6
					c0.5-1.4,0.1-4.8,0.7-6.1S111.9,53.8,111.8,52.5z"/>
			</g>
		</g>
		<g id="Shape_31_32_">
			<g>
				<path class="st53" d="M51.7,51c-0.6-1-1-7.7-0.8-10.8c0.2-2.9-4.4-3.4-6.3-1.2c-3.3,3.7,0,1.5-0.7,2.9c-0.7,1.5-2,3-1.2,3.2
					c2.5,0.6-0.7,3.1-1.5,4.5c-0.6,0.9,4.2-2.2,3.3-0.7c-1.2,2-4.1,4.1-2.8,7.5c0,0,3.2-3.7,6.3-2.8C51.3,54.5,52.3,52,51.7,51z"/>
			</g>
		</g>
		<g id="Shape_88_34_">
			<g>
				<path class="st46" d="M80.4,84.3c-2.9,0.8-3.5,0.3-4.5-0.1c-1-0.4-4-1.2-4.7-1.8c-0.7-0.5-1.7-1.8-1.9-0.4s-1.2,3.2-0.9,3.8
					c0,0,2.6,0.9,4.5,0.9c1.9,0,3.4-0.1,5.6-0.1c2,0,3.3-0.4,4-0.5c0.7-0.1,2.5-2.1,2.7-3.5C85.3,81.2,83.4,83.4,80.4,84.3z"/>
			</g>
		</g>
		<g id="Shape_43_22_">
			<g>
				<path class="st54" d="M91.2,82.6c-2.2-0.9-2.1-2.4-2.5-3.1s-1.6-1.8-1.8-1.3c-0.1,0.5-0.6,1-0.8,1.2c0,0-0.9,1.6-1.1,2.1
					s-2.1,2.3-2.7,2.7c-0.6,0.4-2.8,2.1-0.2,2c2.6-0.1,3.1-0.4,4.3-0.2c1.2,0.1,2.1-0.1,2.9-1.1c0.9-0.9,1.1-0.6,1.6-0.7
					C91.6,84.2,93.4,83.5,91.2,82.6z"/>
			</g>
		</g>
		<g id="Shape_44_22_">
			<g>
				<path class="st55" d="M87.7,84.8c-0.1-0.6,0.1-3-1.3-2.1c0,0-2.4,2.5-3.1,2.8c-0.6,0.3,0.8,0,2.5,0.1S87.7,85.4,87.7,84.8z"/>
			</g>
		</g>
		<g id="Shape_46_22_">
			<g>
				<path class="st56" d="M70,67.9c-0.7,0.2-1.1,0.7-3.2,1.4c-2.1,0.7-4.6,0.2-5.8,1.2c0,0-2.9,0.9-3.2,3.9
					c-0.2,2.9,2.2,3.6,5.2,2.6c2.9-1.1,5.5-2.2,6.7-3.3C71,72.6,71.8,67.3,70,67.9z"/>
			</g>
		</g>
		<g id="Shape_47_22_">
			<g>
				<path class="st57" d="M69.6,69.9c-0.3-1.5-2.2,0.6-3.9,1.1c-1.6,0.5-3.4-0.7-5.2,1.8c-2,2.8,3.5,3,5.1,2.5
					C67,74.7,69.8,71.4,69.6,69.9z"/>
			</g>
		</g>
		<g id="Shape_49_22_">
			<g>
				<path class="st58" d="M70.7,84c-0.9-0.8-0.9-2.2-0.8-3.1c0.1-0.9,0.1-2.7,0.1-2.7c0.1-0.9-2.1,0.8-2.9,1.4
					c-0.8,0.6-2.5,2.1-4.1,3.5c-1.6,1.5,0.2,2.1,1.2,1.8c1-0.3,4.6,1.1,5.9,1.3C71.3,86.4,71.7,84.8,70.7,84z"/>
			</g>
		</g>
		<g id="Shape_57_22_">
			<g>
				<path class="st59" d="M98.8,110.2c0-1.9-0.7-9.9-1.8-8.8s-8.5,8.5-11.8,11.8c-3.3,3.3-6.2,5.9-9.8,4.9C58.4,111,50,91.4,50,91.4
					c-4.8,10.2-3.8,11.6-3.5,13.5s3.3,10.6,4.9,14.5s9.6,27,11.6,33.3c2,6.3,13.2,53.7,13.2,53.7h14.1c0,0,5.6-59.9,5.5-65.5
					C95.8,135.3,98.8,112.2,98.8,110.2z"/>
			</g>
		</g>
		<g id="Shape_61_22_">
			<g>
				<path class="st60" d="M85.1,122.7c-1.6-2.2-5.3-4.2-5.3-4.2l-4.8,0.4c0,0-0.8-0.1-2,1.9c-0.8,1.4-3.3,3.7-6.6,6.3
					c-4.6,3.8-9.3,8.1-9.3,8.1l1.1,2.8c0,0,1.6-3.5,4.1-5.8c0.7-0.6,2.3-1.9,4-3.3c1.7-1.4,4.7,2.9,7.5,4.4
					c0.6,0.3-6.8,11.6-9.1,25.4c0.6,1.5,1.7,7.3,2.5,9.5c2,6.1,8.3-2,8.9-16.6c0.5-12.6,0.3-31.6,1.1-31.9c1.5-0.5,2.1,0.5,3.5,0.7
					c1.5,0.2,5.3,5.1,5.3,5.1l2.2,2.7l7.8,9.6l0.2-1.5C96.2,136.3,86.7,124.9,85.1,122.7z"/>
			</g>
		</g>
		<g id="Shape_68_34_">
			<g>
				<path class="st61" d="M86.5,128.5c0,0-3.8,4.1-4.2,6.6c-0.6,3.1,2.1,11,2.9,12.8c0.8,1.8,3.6,14,6.5,9.1
					c2.8-4.9,3.2-12.8,3.4-15.6C95.3,138.4,86.4,126.3,86.5,128.5z"/>
			</g>
		</g>
		<g id="Shape_62_12_">
			<g>
				<path class="st62" d="M90.7,161.1c-0.7-3.4-4.6-14.8-6.3-18.6c-1.8-3.8-2.5-7.9-2.7-9.8c0.8-0.9,1.7-2.2,2.6-3.4
					c1.4-2,2.4-3.9,2.4-3.9s-3.3-3.8-5.4-5.1c-2.1-1.3-4-0.9-5.8-0.6s-2.9,2.4-3.9,3.3s-3.9,3.9-3.9,3.9s2.1,2.2,3.4,3.3
					c1.4,1.2,2.2,1.8,3.5,2.6c1.3,0.8-8.6,12.6-8.8,31c4.1,13.9,10.1,42.7,10.1,42.7l14.6,0.9l2.6-29.7
					C93.1,177.8,91.4,164.5,90.7,161.1z"/>
			</g>
		</g>
		<g id="Shape_63_22_">
			<g>
				<path class="st63" d="M90.5,163.1c-0.4-2.2-2.9-8.9-2.9-6.5c0,2.5-0.1,6.3-0.8,9.5c-0.7,3.2-2-2.6-2.2-5.5
					c-0.2-2.4-0.7-11.6-1.3-14.9c-0.5-2.8-1.5-10.6-2.2-12.2c-0.7-1.6-3.2-0.8-4.6,1.2c-1.4,2,0.4,4,1.3,8.1c1.1,5.3,0.6,8,0.5,10.8
					c-0.1,2.8-0.4,12.3-1.2,15.9s-3.4-7.1-4-9.5c-0.6-2.5-1.4-5.6-2.6-5.5c-1.3,0.1-3.8,7.4-1.6,15.3c2.1,7.9,7.9,36.9,7.9,36.9
					l12.9,0.9c0,0,0.3-5.4,0.5-7.5c0.2-2.9,0.9-14.2,1.2-17.5C91.4,179.4,90.8,165.4,90.5,163.1z"/>
			</g>
		</g>
		<g id="Shape_75_copy_12_">
			<g>
				<path class="st64" d="M87.2,60.2c0,0-2.2,0.2-3.2,0.6c-1,0.4-1.6,1.2-1.4,2.5c0.2,1.2,0,2.7,0.6,2.8c0.6,0.1,0.5-1.3,0.4-2.1
					c-0.1-0.8,0.3-2.2,1.2-2.4c1-0.2,2.4-0.7,3.2-0.7C88.7,60.9,87.7,60.2,87.2,60.2z"/>
			</g>
		</g>
		<g id="Shape_64_22_">
			<g>
				<path class="st65" d="M71.2,117c-2.5-1-6-4.1-8.9-7.1S53,99.7,53,99.7c-1.2-2.2-3.1,3.5-4.8,4.2c-1.8,0.8,1.2,7.6,2.7,10.2
					c2.2,3.8,6.6,18,6.5,17.9c0,0,1.8-0.4,3.1-1.3s9.9-7.8,11.3-10C73,118.7,73.8,118.1,71.2,117z"/>
			</g>
		</g>
		<g id="Shape_65_22_">
			<g>
				<path class="st66" d="M83.4,109.9c-2.5,1.4-5.3,0.4-7.7,0.3c-2.5-0.1-7.4-1.2-7.4-1.2c2.6,4.5-2.4-1.4-3.2-0.1
					c-0.8,1.3,7.8,8.1,11.6,8.3s6.5-3.4,7.8-4.5c1.3-1.1,4.1-3.1,4.5-4.2C89.3,107.4,86,108.5,83.4,109.9z"/>
			</g>
		</g>
		<g id="Shape_66_12_">
			<g>
				<path class="st61" d="M93,107.6c-4.1,5.9-4.7,7.2-5.8,7.9c-1.1,0.7-5.3,1.4-5.6,2.7c0,0,3.3,2.9,5.2,5.1s5.3,7.3,6,7.9
					c0.7,0.6,2.7,3.8,2.9-0.5s-0.2-7.7,0.6-10.1c0.7-2,1.1-6.6,1.3-8.2C97.8,110.6,97.1,101.8,93,107.6z"/>
			</g>
		</g>
		<g id="Shape_67_22_">
			<g>
				<path class="st63" d="M80.5,121c-2.1-1.2-3.9-0.9-5.4,0.4s-3.2,4.9-3.2,4.9c-0.9,1.5,3.2,2.2,4.8,4.2c0.9,1.1,3.1,1.1,4-0.1
					c1.3-1.9,2.8-4.3,2.9-5.9C83.8,123,82.6,122.2,80.5,121z"/>
			</g>
		</g>
		<g id="Shape_81_34_">
			<g>
				<path class="st67" d="M83.3,44.9c-5.2-2.9-9.1-5.5-14-7c-4.9-1.5-8.5-9.8-12.7-13c-4.2-3.3-6.8,0.1-6.8,0.1
					c3.1,0.3,3.4,6.4,3.2,8.8c-3.4-0.5-8.2-0.2-8.8,3.1c3.2-1.8,10,1.1,13.5,2.8c4.2,2,8.3,0.5,12.9,4C77,48.5,88.6,47.9,83.3,44.9z
					"/>
			</g>
		</g>
		<g id="Shape_72_34_">
			<g>
				<path class="st68" d="M110.8,34.5c-0.5-1.5-1.5-5.4-2.5-6.7c-0.9-1.3-4.3-5-5.5-7.5c-0.7-1.5-5.3-4.4-8.6-5.4
					c-2.5-0.8-4.1-1.6-7.9-2.7c-4.5-1.3-12-0.1-13.8,0.1s-8.3,0.9-10.3,1.5s-6.5,2.4-9.3,5.4c0,0,7.1-2.8,12,2.2
					c4.9,5.1,8.1,11.2,13.3,12.5c-2.8-1.9-4.7-4-6.7-7.8S65.3,15.8,60.7,16c4.8-1.2,7.8-3.6,12.6-0.6s7.3,6,8.5,8.6
					c1.2,2.6,3.6,11.8,10,12c-2.2-1.4-4.8-2.6-6.8-10C83.1,19,79.3,15,77.6,14.1c-1.8-0.9,7.1-1.8,11.2,0.2c4.1,2,2.9,4.9,4.9,9.2
					c2.1,4.3,4.6,7.2,8.2,9.2c-2.6-2.6-5.1-4.6-6.5-9.8c-1.3-5-1.1-5.3-2-6.5c-0.9-1.2,3.7,0.5,7.3,6.1c4,6.3,4.2,4.8,5.4,7.2
					c1.2,2.4,1.3,3.9-0.1,2.6c-2.5-2.3-4.6-3.8-1.1,0.8c2.1,2.7,5.9,4.3,6,6.1C111.1,41,111.3,36.1,110.8,34.5z"/>
			</g>
		</g>
		<g id="Shape_73_34_">
			<g>
				<path class="st69" d="M108.1,30.7c-1.7-3.1-4.4-3.8-6.9-6.2c-2.5-2.5-4.4-3.4-4.4-3.4s0.2,2.4,1.8,4.9s-0.3,0.9-1.1,0.4
					c-0.8-0.5,1.4,3.4,2.1,4.1c-0.6-0.6-5.4-1.4-8.2-4.5c-2.8-3.1,3.1,6.5,3.1,6.5s-3.7-0.2-7.6-4.2c-3.9-4,3.6,7.4,3.6,7.4
					s-5.6,2.3-12-1.4c1.4,3.3,3.3,6.2,4,6.6s-4.5,0.3-9.8-1.9c-2.8-1.2-7-2.8-12.2,0.1c0,0,4.4,0.3,8.8,2.7c4.3,2.5,10.1,6.6,15,5.2
					c4.9-1.4,11.6-4.1,14.3-2.9c-2.2-1.6-8.7-2.3-10.9-1.5c-1.3,0.5,6.1-2.6,8.8-1.1c-0.9-2.1-3.6-2.9-3.6-2.9s6.1,0.7,8.8,2.9
					c0.5-1-0.2-3-0.8-3.9c1-0.5,4,0.7,4,0.7s-0.4-2.8-1.4-3.8c1.2-0.6,2.2-0.7,3.9-0.2C109,34.8,109.8,33.8,108.1,30.7z"/>
			</g>
		</g>
		<g id="Shape_76_34_">
			<g>
				<path class="st32" d="M85.7,53.8c-0.6,0.1-4,0.5-7.3,0.5c-4.8,0-10.3-1.1-7.4,0.1c0,0,2.5,0.9,3.5,1.8c1,0.8,0.8,2.4,0.9,3.2
					c0.1,0.8,0.9,0.3,1.3,0s0.2,0.4,1.8,0.4s1.4-0.4,2.4-0.2s1.1-0.3,0.9-1.1c-0.2-0.8-0.3-2.5,1.4-2.9
					C85.4,54.9,87.1,53.7,85.7,53.8z"/>
			</g>
		</g>
		<g id="Shape_23_34_">
			<g>
				<path class="st40" d="M94.3,63c-0.5-0.2-1-0.5-1.8-0.9c-0.8-0.4-3.7,0-4.6,0.4c0,0-2,0.3-1.2,0.7c0.8,0.4,0.8,0.4,2.5,0.7
					c1.6,0.3,3.8,0,4.6-0.2C94.7,63.3,94.8,63.2,94.3,63z"/>
			</g>
		</g>
		<g id="Shape_23_copy_24_">
			<g>
				<path class="st41" d="M94.8,63.6c-0.5-0.2-1-0.5-1.8-0.9c-0.8-0.4-3.7,0-4.6,0.4c0,0-2,0.3-1.2,0.7c0.8,0.4,0.8,0.4,2.5,0.7
					c1.6,0.3,3.8,0,4.6-0.2C95.1,63.9,95.3,63.8,94.8,63.6z"/>
			</g>
		</g>
		<g id="Ellipse_1_44_">
			<g>
				<circle class="st42" cx="90.7" cy="62.3" r="2.4"/>
			</g>
		</g>
		<g id="Ellipse_1_copy_2_24_">
			<g>
				<circle class="st43" cx="90.7" cy="62.3" r="2"/>
			</g>
		</g>
		<g id="Ellipse_1_copy_24_">
			<g>
				<circle class="st44" cx="90.7" cy="62.3" r="1.2"/>
			</g>
		</g>
		<g id="Shape_104_34_">
			<g>
				<path class="st47" d="M96.5,61.9c-0.9-0.6-2.3-0.8-3.4-0.6c-1.1,0.2-4.7,0.1-4.3-0.6c0.4-0.6,0.8-1.1-0.1-0.9
					c-0.9,0.2-2.8,1.1-2.8,1.1s-2.4-0.2-2.6,2.1c-0.2,2.3,0.2,1.7,1.2,1.4c0.9-0.3,2-0.9,2.8-1.2c0.8-0.3,1.3-0.8,1.9-1.1
					c1-0.4,3.4-0.3,4.7,0C95.1,62.4,97.4,62.6,96.5,61.9z"/>
			</g>
		</g>
		<g id="Shape_105_34_">
			<g>
				<path class="st70" d="M97.3,60.9c-1-0.4-7.4-1.9-8.2-1.1c0,0-1.3,0.9-0.4,1.2c0.9,0.2,0.5,0.6,2.6,0.6s3.1-0.1,3.8,0
					c0.6,0.1,2.1,0.4,2.7,0.1C98.4,61.4,98.3,61.2,97.3,60.9z"/>
			</g>
		</g>
		<g id="Shape_103_34_">
			<g>
				<path class="st28" d="M97.9,64.3c-0.2-0.6-0.9-1.4-1.2-1.5s-2.1-0.8-2.8-0.9s-2.6-0.3-3.1-0.2c-0.5,0.1-1.8-0.6-2.7-0.4
					c-1.2,0.3-3.1,1.5-3.5,1.9s1.2-0.3,2-0.8c1.1-0.6,3.4-0.5,2.4-0.2c-0.7,0.2-1.8,0.8-2.8,1.3c-0.9,0.4-3.1,1.5-1.8,1.1
					c0,0,2.4-1.1,3.5-1.5c1.8-0.7,1.9-1,3.1-0.9c1.2,0.1,2.8,0.3,2.8,0.6c0.1,0.3-1,0.9-0.1,0.8c0.9-0.1,1.1-0.7,1.8-0.5
					c0.7,0.2,1,0.2,1.4,0.8C97.2,64.3,98.1,64.9,97.9,64.3z"/>
			</g>
		</g>
		<g id="Ellipse_2_24_">
			<g>
				<circle class="st45" cx="90.8" cy="62.2" r="0.2"/>
			</g>
		</g>
		<g id="Shape_75_34_">
			<g>
				<path class="st64" d="M74.4,63.4c0-1.2-0.1-1.5-0.9-2.1c-0.9-0.6-2.9-0.8-2.9-0.8c-0.5,0.1-1.2,0.8-0.5,0.8s1.8,0.2,2.6,0.6
					c1,0.4,1.3,1.7,1.2,2.5c-0.1,0.9-0.4,2.1,0.2,2C74.6,66.3,74.4,64.7,74.4,63.4z"/>
			</g>
		</g>
		<g id="Shape_9_12_">
			<g>
				<path class="st71" d="M71.3,58.2c-1.4-0.1-3.6,0.4-5.1,0c-1.4-0.3-4.4-1-6.1-0.7c-1.6,0.3-2.1-0.1-2.6,0.6
					c-0.7,1-4.2,6.1-2.2,5.6c0,0,1.3-1.7,4.5-2.1c2.7-0.4,4.8-0.3,6.8-0.4c1.6,0,4.1,0.1,5.2-0.5C72.9,60.1,73.7,58.3,71.3,58.2z"/>
			</g>
		</g>
		<g id="Shape_79_34_">
			<g>
				<path class="st72" d="M72.6,58.5c-0.2-0.2-1.2-0.4-2-0.4c-0.8,0.1-2.8,0-3.6-0.2c-0.8-0.3-2.8-0.6-3.8-0.7
					c-2.5-0.2-6.9,1.3-5.1,1.2c0,0,2.4-0.2,3.6-0.1c1.3,0,2.4-0.3,3.6,0.2c1.3,0.5,4,0.8,5.4,0.6C72.2,58.9,72.8,58.7,72.6,58.5z"/>
			</g>
		</g>
		<g id="Shape_42_32_">
			<g>
				<path class="st73" d="M70,59.8c-1.4-0.1-1.4,0.3-2.2,0.5c-0.7,0.1-1.7,0.5-3.5,0.4c-0.8-0.1-2.1,0.4-4.1,0.4
					c-1.2-0.1-2.6,0-3.5-0.5c-0.9-0.5-1.5,1.4-1.5,1.4c-1,2.7-0.5,2.4,2.4,0.7c2.7-1.6,8.8-1.3,10.1-1.2s4.1-0.2,4.7-0.9
					C72.7,60,71.5,59.9,70,59.8z"/>
			</g>
		</g>
		<g id="Shape_92_34_">
			<g>
				<path class="st39" d="M98.4,54.2c-1.1-1.8-3.3-1.4-6,0.1c-1.2,0.7-2.7,0.6-4,0.5s-4.6,2.6-4.6,2.6c1,0.8,16.1,2,16,1.2
					C99.7,57.7,99.4,55.9,98.4,54.2z"/>
			</g>
		</g>
		<g id="Shape_80_34_">
			<g>
				<path class="st71" d="M98.5,56.6c-2-1-5.3-0.9-7.6-0.4c-2.4,0.6-6.4,0.6-6.9,1.2c0,0-3.9,2.4,1.1,2.8c4.9,0.5,7.3-0.6,10.1,0.1
					c3.1,0.8,3.4,1.4,4.2,0.5C100.1,59.9,100.1,57.4,98.5,56.6z"/>
			</g>
		</g>
		<g id="Shape_90_34_">
			<g>
				<path class="st73" d="M97.3,59.4c-0.6-0.6-4.1-0.5-6.1-0.2c-2.5,0.3-3.5-0.5-5.3-0.8s-3.1,1.3-3.1,1.3c1.3,1.2,5.6,0.9,6.7,0.8
					c1.1-0.1,3.7-0.3,4.9-0.1c1.9,0.3,1.8,1,3.1,0.7S97.9,60.1,97.3,59.4z"/>
			</g>
		</g>
		<g id="Shape_109_34_">
			<g>
				<path class="st74" d="M83,60.4c-0.6-0.4-0.3-0.8-0.6-1.5c-0.5-1.4-0.2-2.5-0.5-3.5c-0.3-1-0.4,1.4-0.2,2.1
					c0.1,0.7,0.3,1.6,0.2,2.4s-0.8,0.8-1.6,0.8c-0.8,0-2.3,0.1-2.9-0.1c-0.6-0.2,0.2-2.4,0.1-3.2c-0.1-0.8-0.4-1.8-0.5-0.6
					c-0.1,1.2-0.2,2.3-0.8,3.1c-0.6,0.8-0.8-1.2-0.9-2.4C75,56.3,74,55.7,74.1,56s0.4,3.2,0.5,3.9c0.1,0.6-1.9,0.9-1.9,0.9
					s0.9,0.9,1.3,1.5c0.4,0.6,0.3,1.8,0.5,1.3c0.2-0.5,1.4-1.6,2.5-1.6c1.3,0,4.2-0.1,4.6-0.1s1.2,0.7,1.2,0.7s0-0.5,0.3-0.9
					c0.2-0.4,0.7-0.8,0.7-0.8S83.6,60.8,83,60.4z"/>
			</g>
		</g>
		<g id="Shape_77_34_">
			<g>
				<path class="st75" d="M95.2,70.7c-3-1.3-6.5-2.3-6.2,0.5c0,0-0.6,2.3,3.3,3.4C96.1,75.7,97.4,71.7,95.2,70.7z"/>
			</g>
		</g>
		<g id="Shape_78_34_">
			<g>
				<path class="st75" d="M80.7,70c0-1.3,0.1-2.8,0-4.2c-0.2-1.9-3.1-1.9-2.9-0.2c0.2,2.3,0.4,3.1,0.5,4.3c0.1,1.2-1,2.5-0.4,4.2
					c0.6,1.6,0.9,4,1.9,4c1.2,0,1.3-1.9,1.4-4.1C81.3,72.2,80.7,71.5,80.7,70z"/>
			</g>
		</g>
		<g id="Shape_84_12_">
			<g>
				<path class="st51" d="M54.5,18.1c0,0-5.4,2.6-8.3,7.1c-2.9,4.5-4.3,7.5-4.6,9.9c-0.2,2.4-1.4,3.5-1.8,6.2
					c-0.4,2.7-0.5,6.8-0.9,8.6c-0.5,1.8,1.1,0.8,2-1.4c0.9-2.2,0-6,1.9-8.5c1.9-2.5,1.3-2.4,3.8-3.6c0,0-4.6,0.6-0.9-1.5
					s2.1-3.2-0.6-2.4c-2.7,0.8,1.5-6.2,4.9-7.6c1.3-2.9,3.4-5.9,8.3-6.5C63.2,17.7,54.5,18.1,54.5,18.1z"/>
			</g>
		</g>
		<g id="Shape_83_34_">
			<g>
				<path class="st76" d="M69.8,63.9c-1.7-0.7-1.6-0.2-2.1-0.1c-0.5,0.1-2,0.4-2.7,0.4c-0.7,0-2.3-0.4-2.8-0.4c-0.5,0-1.6,0-2.2,0.4
					c-0.6,0.4-1.4,0.9-1.5,1.3s0.4,1.1,1.2,1.6c0.7,0.5,3.7,1.6,4.6,1.6c0.9,0,1.5,0,1.9-0.1c0,0-1.5-0.5-2.1-0.7
					c-0.6-0.2-3-1.4-3.5-2.2c-0.5-0.8-0.2-0.7,0.9-0.4c1.1,0.4,2.5,0.9,2.4,0.5c-0.2-0.4-1.9-1.5-0.7-1.4s3.4,0.1,4,0
					c0.6-0.1-0.3,0.5,0.8,0.7c1.1,0.2,1.3-0.3,2.4-0.2S71.5,64.7,69.8,63.9z"/>
			</g>
		</g>
		<g id="Shape_85_34_">
			<g>
				<path class="st51" d="M112.2,51.6c-0.2-1.9,0-4.7-0.8-6.8c-0.8-2.1-0.2-3.9-0.1-6.2c0.1-4.4-1.8-6.9-3.2-8.3c0,0,2,5.4-0.4,4.3
					c-2.4-1.1-2.7-0.1-0.1,1.8c2.6,1.9,1.8,5.1,1.8,5.1s-2.4-1.5-1.9-0.5c0.5,1.1,2.5,5.6,2.6,6.6c0.1,0.9-1.8-0.2-0.1,3.2
					s0.1,2.2,0.5,4.2s-1.5-0.8-1.1,2.8c0.5,3.6-2.6,1.9-3.3,0.2c-0.7-1.6-0.2,1.6,0.1,5.5s-0.1,6.1-0.1,6.1s1.9-3.9,2.9-4.7
					c1.1-0.8,2,0.2,2.2-3.4C111.5,57.8,112.5,53.5,112.2,51.6z"/>
			</g>
		</g>
		<g id="Shape_89_12_">
			<g>
				<path class="st77" d="M110.1,50.7c0,0,0.2-0.8,0.6-1.9c-0.4-1.9-1.1-2.8-1.1-2.8s0.2-1.2-0.2-2.2c-0.5-1-1.9-2.4-1.9-2.4
					s-0.2,1-0.6,1.6c-0.5,0.9-0.7,1.5-0.8,2.7c-0.1,1.2-0.2,2.7-1.2,3.9c-0.9,1.1-1.3,2-1.4,2.9c3-0.1,5.9,5.6,5.9,5.6
					s-0.4-2.8,0.2-2.7c0.5,0.1,0.5,0.3,1.4,1.2C111.6,54.1,110.1,50.7,110.1,50.7z"/>
			</g>
		</g>
		<g id="Shape_91_34_">
			<g>
				<path class="st78" d="M99.3,58c-0.9-1.2-2.4-1.8-3.6-2s-3.2-0.2-4.5,0.1c-1.3,0.3-3.2,0.7-4.2,0.7c-0.8,0-3.4,0.6-2.8,0.9
					c0,0,1.2,0.1,3.3-0.1c2.1-0.2,3.6-0.8,5.1-0.8c1.5,0,3.6,0.1,4.5,0.7C98.2,58.4,100.2,59.2,99.3,58z"/>
			</g>
		</g>
		<g id="Shape_96_34_">
			<g>
				<path class="st79" d="M90.5,86.8c-0.3,0.3-1.7,1.1-2.5,1.4c-0.8,0.4-4.9,2.5-4.9,2.5c-1,0.5,1.1-0.4,2.9-1.1
					c1.8-0.7,1.6,0.7-0.4,2.1c-2,1.4-3.3,2-2.4,1.8c1.3-0.3,3.6-1.8,4.3-2.5c0.8-0.7,1.7-1.5,2.7-2.9C91.3,86.9,90.8,86.6,90.5,86.8
					z"/>
			</g>
		</g>
		<g id="Shape_99_34_">
			<g>
				<path class="st80" d="M64.9,68.9c-0.7,0-3.4-0.9-4.5-1.3c-1.1-0.4-1.3-2-1.3-2c-0.8,0.5-0.3,0.8-1.4,0.8c-1.1,0.1-2.4,0.8-4,1.5
					c-1.6,0.8-2.6,3.6-1.6,2.2c0.9-1.4,4-2.8,5.1-3.2c1.1-0.4,2.3,0.4,2.7,0.7c0.4,0.4-0.7,0.8-3.5,2c-2.8,1.2-3.3,4.1-2.5,2.7
					c0.8-1.4,4.8-3.4,5.5-3.5c0.8-0.2,1.3-0.6,2.7-0.2C64.6,69.6,65.6,68.9,64.9,68.9z M57.8,65.8c1.1-0.4,0.7-0.5,0.6-0.7
					c-0.1-0.2-0.7,0.1-2.4,0.4c-1.6,0.2-5.2-0.8-5.2-0.8C50.8,66.2,56.7,66.2,57.8,65.8z M53.1,66.6c-0.8,0.1-2.5,1.6-2.5,1.6
					c-1.4,1.4,0.3,0.2,1.5-0.6C53.4,66.9,53.9,66.5,53.1,66.6z"/>
			</g>
		</g>
		<g id="Shape_106_34_">
			<g>
				<path class="st76" d="M97.2,63.7c-0.4-0.4-1.5-1.2-2.2-1.2c-0.7,0-1.1,0.5-1.6,0.7c-0.6,0.2-2.8,0.5-3.8,0.5
					c-1,0-1.5-0.3-2.4-0.5c-1.1,0.6-3.5,1.3-3.5,1.3c-0.4,0.1-0.7,1-0.2,1.8c0.4,0.8,1.6,0,3.4,0.8c1.7,0.8,3.2,1.3,4.3,0.9
					c1.3-0.4,4-1.2,4.6-1.5s1.4-1.3,1.5-1.5S97.5,64.1,97.2,63.7z"/>
			</g>
		</g>
		<g id="Shape_110_34_">
			<g>
				<path class="st81" d="M89.9,66.7c-1.4-0.4-2.9-0.7-3.8-0.9c-0.9-0.2-2.8-0.2-2.8-0.2c0,1.3,0.8,1.5,1.8,1.5c1,0,1.5,0,2.6,0.5
					c1.6,0.7,3.2,0.8,4,0.2C92.5,67.3,91.3,67.1,89.9,66.7z"/>
			</g>
		</g>
		<g id="Shape_111_34_">
			<g>
				<path class="st81" d="M103.4,63c-0.8-0.8-0.8-0.9-1.9-0.2c-1.1,0.6-2.3,0.9-3.1,1.3c-0.8,0.4-2.1,0.9-1.9,2.2
					c0,0,3.4,1.8,3.9,2.5c0.5,0.7,2.8,0.7,2.9-1.1C103.5,65.9,104.2,63.7,103.4,63z"/>
			</g>
		</g>
		<g id="Shape_107_34_">
			<g>
				<path class="st49" d="M96.2,63.8c0.1-0.8-0.6-0.3-1.2-0.4c-0.5,0-0.5-0.4-1.2-0.2c-0.7,0.2-2.5,0.7-3.9,0.7s-1.6,0.5-1.6,0.5
					c-3.5,0.1-1.3,0.8-1.3,1.2s-0.4,0.2,0.5,0.9c0.9,0.7,2.3,1.2,2.8,1.2s6.1-1.7,6.3-2.4C97,64.7,96.1,64.6,96.2,63.8z"/>
			</g>
		</g>
		<g id="Shape_108_34_">
			<g>
				<path class="st82" d="M95.8,65.2c-0.5,0.2,0.1-0.5,0.2-0.9c0.1-0.5-0.5-0.5-1.6-0.4c-1.1,0.1-2.8,0.6-2.8,0.6
					c-0.2,0-0.3,0.1-1.4,0.6s0.1,1,0.9,0.9c0.9,0,0.9,0.6,0,0.8c-0.9,0.2-3,0.2-2,0.7c1,0.5,4.7-0.5,5.1-0.6s2-0.7,2.5-1.5
					C97.1,64.7,96.3,65,95.8,65.2z"/>
			</g>
		</g>
		<g id="Shape_102_34_">
			<g>
				<path class="st80" d="M96.6,63.1c0,0,0.6,0.8,2.1,0.1c1.5-0.7,2.6-1.8,2.8-2.5c0.2-0.7,0-0.8-0.9,0.1c-0.9,0.9-2.1,1.9-2.7,2
					C97.2,62.9,95.9,62.7,96.6,63.1z M100.9,65.4c0.6,0,1.8,0.1,2.4-0.5c0.5-0.5,0.4-1.2-0.1-0.6c-0.5,0.6-0.7,0.6-2,0.7
					s-2.7-0.4-2.7-0.4L98,64.5c0.5-0.2,1.3-0.5,1.9-0.8c0.8-0.4,2.4-1.2,2.2-1.9c-0.2-0.6-1.6,0.8-2.9,1.5C97.8,64,97.5,64,97.5,64
					c-0.6,0-0.4,0.5-0.8,1.1c-0.5,0.5-1.7,1.5-3.2,2s-2.7,1.1-1.8,0.9c0.9-0.2,4.3-1.5,4.7-1.9c0,0,0.1-0.1,0.1-0.1
					c0.5,0.1,2,1.2,2,1.2s1.2,1.3,1.8,1.3c0.6,0-0.2-0.7-1.2-1.3c-0.9-0.5-2.2-1.2-2.4-1.4c0.1-0.1,0.2-0.2,0.3-0.4l0.4-0.4l0.5-0.1
					c0,0,0.7,0.5,1.1,0.6s2.2,1.6,2.7,2c0.5,0.4,1.6,1.8,1.5,1.4s-0.8-1.5-1.5-2c-0.7-0.5-1.9-1.4-2.2-1.5S100.3,65.4,100.9,65.4z"
					/>
			</g>
		</g>
		<g id="Ellipse_3_34_">
			<g>
				<path class="st83" d="M53.8,38.1c-2.7-1.5,4.6,0.1,2.4-1.1c-2.3-1.2-5.7-2.8-10.1-1.1c-4.8,1.9-1.8-5.2-1.1-6.9
					c0.8-2,3.6-2.3,5.5-3.3c1.9-1,2.2-0.2,3.9,0.1c2.1,0.4,1.2,2.1,3.1,4.1c0.1-2.2,0.8-4.8-2.1-5.5c-2.9-0.7-2.9-2.7-0.4-4.1
					c2.9-1.7,7.8-1.1,7.8-1.1c-0.2-1.7-3.7-2.3-6.1-2.1c-2.4,0.2-5.1,2.4-7.4,4.1c-3.3,2.4-6.6,7.3-7.2,11.8
					c-0.3,2.1,1.1,2.2-0.2,4.3c-1.4,2.2,0.2,3.9,0.2,3.9s1.6-3.4,5.2-3.9c2.8-0.4,3.6,2.4,5.4,1.9c1.5-0.4,3.6,1.6,5.8,2.2
					c1.8,0.4,3.4,0.9,6.2,0.5C59.3,41,55.4,39,53.8,38.1z"/>
			</g>
		</g>
	</g>
</g>
</svg>
