<?xml version="1.0" encoding="utf-8"?>
<!-- Generator: Adobe Illustrator 19.1.0, SVG Export Plug-In . SVG Version: 6.00 Build 0)  -->
<svg version="1.1" id="Layer_1" xmlns="http://www.w3.org/2000/svg" xmlns:xlink="http://www.w3.org/1999/xlink" x="0px" y="0px"
	 viewBox="0 0 150 150" style="enable-background:new 0 0 150 150;" xml:space="preserve">
<style type="text/css">
	.st0{clip-path:url(#SVGID_3_);}
	.st1{fill-rule:evenodd;clip-rule:evenodd;fill:#2D2C38;}
	.st2{fill-rule:evenodd;clip-rule:evenodd;fill:#C1C2CB;}
	.st3{fill-rule:evenodd;clip-rule:evenodd;fill:#F2F0F1;}
	.st4{fill-rule:evenodd;clip-rule:evenodd;fill:#0F0F11;}
	.st5{fill-rule:evenodd;clip-rule:evenodd;fill:#A03722;}
	.st6{fill-rule:evenodd;clip-rule:evenodd;fill:#D93E3B;}
	.st7{fill-rule:evenodd;clip-rule:evenodd;fill:#F3EFF2;}
	.st8{fill-rule:evenodd;clip-rule:evenodd;fill:#101214;}
	.st9{fill-rule:evenodd;clip-rule:evenodd;fill:#1C1716;}
	.st10{fill-rule:evenodd;clip-rule:evenodd;fill:#B77E66;}
	.st11{fill-rule:evenodd;clip-rule:evenodd;fill:#9B6351;}
	.st12{fill-rule:evenodd;clip-rule:evenodd;fill:#2C1A18;}
	.st13{fill-rule:evenodd;clip-rule:evenodd;fill:#E6A08A;}
	.st14{fill-rule:evenodd;clip-rule:evenodd;fill:#B77D69;}
	.st15{fill-rule:evenodd;clip-rule:evenodd;fill:#C99179;}
	.st16{fill-rule:evenodd;clip-rule:evenodd;fill:#9E5B4B;}
	.st17{fill-rule:evenodd;clip-rule:evenodd;fill:#69463D;}
	.st18{fill-rule:evenodd;clip-rule:evenodd;fill:#B98577;}
	.st19{fill-rule:evenodd;clip-rule:evenodd;fill:#B68278;}
	.st20{fill-rule:evenodd;clip-rule:evenodd;fill:#B77968;}
	.st21{fill-rule:evenodd;clip-rule:evenodd;fill:#854641;}
	.st22{opacity:0.1686;clip-path:url(#SVGID_3_);}
	.st23{fill-rule:evenodd;clip-rule:evenodd;fill:#261510;}
	.st24{fill-rule:evenodd;clip-rule:evenodd;fill:#231110;}
	.st25{fill-rule:evenodd;clip-rule:evenodd;fill:#A68C81;}
	.st26{fill-rule:evenodd;clip-rule:evenodd;fill:#C58D7A;}
	.st27{fill-rule:evenodd;clip-rule:evenodd;fill:#E49E8C;}
	.st28{fill-rule:evenodd;clip-rule:evenodd;fill:#F4B3A3;}
	.st29{fill-rule:evenodd;clip-rule:evenodd;fill:#B2A397;}
	.st30{fill-rule:evenodd;clip-rule:evenodd;fill:#40261C;}
	.st31{fill-rule:evenodd;clip-rule:evenodd;fill:#1E1615;}
	.st32{fill-rule:evenodd;clip-rule:evenodd;fill:#EBE9E9;}
	.st33{fill-rule:evenodd;clip-rule:evenodd;fill:#976551;}
	.st34{fill-rule:evenodd;clip-rule:evenodd;fill:#3E2820;}
	.st35{fill-rule:evenodd;clip-rule:evenodd;fill:#8A5745;}
	.st36{fill-rule:evenodd;clip-rule:evenodd;fill:#BA8269;}
	.st37{fill-rule:evenodd;clip-rule:evenodd;fill:#694136;}
	.st38{fill-rule:evenodd;clip-rule:evenodd;fill:#C28771;}
	.st39{fill-rule:evenodd;clip-rule:evenodd;fill:#43251C;}
	.st40{fill-rule:evenodd;clip-rule:evenodd;fill:#AD6E6B;}
	.st41{fill-rule:evenodd;clip-rule:evenodd;fill:#8C504D;}
	.st42{fill-rule:evenodd;clip-rule:evenodd;fill:#D69C83;}
	.st43{fill-rule:evenodd;clip-rule:evenodd;fill:#9C6752;}
	.st44{opacity:0.349;clip-path:url(#SVGID_3_);}
	.st45{fill-rule:evenodd;clip-rule:evenodd;fill:#693C2D;}
	.st46{fill-rule:evenodd;clip-rule:evenodd;fill:#F6B6A4;}
	.st47{fill-rule:evenodd;clip-rule:evenodd;fill:#CF9B88;}
	.st48{fill-rule:evenodd;clip-rule:evenodd;fill:#D0887B;}
	.st49{fill-rule:evenodd;clip-rule:evenodd;fill:#8B5544;}
	.st50{fill-rule:evenodd;clip-rule:evenodd;fill:#8A5848;}
	.st51{fill-rule:evenodd;clip-rule:evenodd;fill:#7F4E40;}
	.st52{fill-rule:evenodd;clip-rule:evenodd;fill:#643B2E;}
	.st53{fill-rule:evenodd;clip-rule:evenodd;fill:#6D5653;}
</style>
<g>
	<defs>
		<circle id="SVGID_1_" cx="75" cy="75" r="75"/>
	</defs>
	<linearGradient id="SVGID_2_" gradientUnits="userSpaceOnUse" x1="75" y1="150" x2="75" y2="4.296771e-07">
		<stop  offset="0" style="stop-color:#212121"/>
		<stop  offset="1" style="stop-color:#EF4438"/>
	</linearGradient>
	<use xlink:href="#SVGID_1_"  style="overflow:visible;fill:url(#SVGID_2_);"/>
	<clipPath id="SVGID_3_">
		<use xlink:href="#SVGID_1_"  style="overflow:visible;"/>
	</clipPath>
	<g id="Shape_432_15_" class="st0">
		<g>
			<path class="st1" d="M142.3,111.7c-5.1-3.8-25-11.3-25-11.3l-13,27.5l3.2,23.8l35.6-1.5C143.1,150.2,147.4,115.5,142.3,111.7z"/>
		</g>
	</g>
	<g id="Shape_433_15_" class="st0">
		<g>
			<path class="st2" d="M81.4,116.7c-1.8-1.1-15.4-3-19.3-4.9c-3.9-1.8-4.8,2.3-4.8,2.3l-6.6,43.2h33.7l10-39.4
				C94.4,117.9,83.2,117.7,81.4,116.7z"/>
		</g>
	</g>
	<g id="Shape_437_15_" class="st0">
		<g>
			<path class="st3" d="M60.6,127.7c-0.7,1.3-1.9,4.2-2.5,3.6c-0.6-0.5-1.5-1-1.5-1l-3.4,20c0,0,1.5-1.2,2.2-3.9
				c0.6-2.6,6.9-15.4,6.9-15.8C62.2,130.3,61.3,126.5,60.6,127.7z"/>
		</g>
	</g>
	<g id="Shape_438_15_" class="st0">
		<g>
			<path class="st3" d="M79.3,129c-0.7-0.6-5,2.1-5,2.1l-1.5,21.4h5.1l4.4-18.8C82.3,133.6,79.9,129.5,79.3,129z"/>
		</g>
	</g>
	<g id="Shape_431_copy_15_" class="st0">
		<g>
			<path class="st4" d="M114.9,97.7c-4-3.5-4.4-6.6-6.4-9.2s-5.3-2.5-5.3-2.5c-1.1,0.5-1.1,0.1,2.7,2.6c3.8,2.5,0.5,5.1-0.3,7.2
				c-0.8,2-9.4,14.3-15,23.8c-5.5,9.4-9.8,23.3-9.8,23.3l35.6,8.5l-7.4-17.3c0,0,9.2-4.9,9.2-6.9c0-2-0.2-21.2,0-24.1
				C118.5,100.2,118.9,101.1,114.9,97.7z"/>
		</g>
	</g>
	<g id="Shape_429_15_" class="st0">
		<g>
			<path class="st4" d="M101.5,86.4l-6.6,27.3c0,0,8.9-11.6,12.4-20.5C110.8,84.4,101.5,86.4,101.5,86.4z"/>
		</g>
	</g>
	<g id="Shape_434_15_" class="st0">
		<g>
			<path class="st5" d="M72.4,118l-4.2-0.3c0,0-5.9,1.1-5.9,3.3c0,0-0.1,3.5,0.8,5.7c0.7,1.9,1.4,4.1,1.4,4.1s-8.2,13.5-9.8,19.6
				c-1.6,6.2,17.1,2,17.1,2s0.9-20.3,0.6-21.8c3-2.3,6-4.9,6.8-6.6C79.9,122.3,72.4,118,72.4,118z"/>
		</g>
	</g>
	<g id="Shape_439_15_" class="st0">
		<g>
			<path class="st6" d="M74.2,124.6c-0.5-2-1.1-3.8-2.7-4.7c-1.7-1-1.5-1-3.3-1.1c-1.8-0.1-5,4.2-5,4.2s1.3,6.4,2.2,6.8
				c0.9,0.4,4,1.2,5.3,0.3C72.7,128.5,74.6,126.3,74.2,124.6z"/>
		</g>
	</g>
	<g id="Shape_440_15_" class="st0">
		<g>
			<path class="st6" d="M70.3,131.2c-1.8,0.5-5.2-0.2-5.2-0.2c-2.4,1.8-9.4,18.9-9.4,18.9s12.9,1.9,13,0.6s0.5-13.8,1.2-13.3
				C70.6,137.7,71.3,130.9,70.3,131.2z"/>
		</g>
	</g>
	<g id="Shape_436_15_" class="st0">
		<g>
			<path class="st1" d="M29,115.1c-9.6,5.3-12,10.2-15.5,25.3s38.7,10.5,38.7,10.5s6-40.2,9.2-48.1C61.4,102.8,38.6,109.9,29,115.1z
				"/>
		</g>
	</g>
	<g id="Shape_431_15_" class="st0">
		<g>
			<path class="st1" d="M114.9,97.7c-4-3.5-4.4-6.6-6.4-9.2s-5.3-2.5-5.3-2.5c-1.1,0.5-1.1,0.1,2.7,2.6c3.8,2.5,0.5,5.1-0.3,7.2
				c-0.8,2-9.4,14.3-15,23.8c-5.5,9.4-13.2,32.5-13.2,32.5l36.5-1.3l-7.5-17.6c0,0,10.4-4.7,10.4-6.7c0-2,1.2-20.4,1.4-23.3
				C118.5,100.2,118.9,101.1,114.9,97.7z"/>
		</g>
	</g>
	<g id="Shape_430_15_" class="st0">
		<g>
			<path class="st7" d="M105.8,95.1c-1.8-2.7-2.8-8-2.8-8c-1,1.8-5.8,9.2-9,11.3c-5,3.3-22.3,19.1-22.3,19.1s8.9,10.8,13.3,13.7
				C85.6,127.1,107.6,97.9,105.8,95.1z"/>
		</g>
	</g>
	<g id="Shape_435_15_" class="st0">
		<g>
			<path class="st3" d="M59.9,103.1c-0.2,2.1-1.4,14.5-1.8,17.1c-0.4,2.6-1.2,9.3,0.5,10.3c3.8-13.1,11.5-13.1,11.5-13.1
				C68.5,115.6,63.5,110.7,59.9,103.1z"/>
		</g>
	</g>
	<g id="Shape_441_15_" class="st0">
		<g>
			<path class="st8" d="M34,133.5c2.3-1.4,8.4-6.1,8.4-6.1s-2-5.6-1.7-6.8c-0.7,0.9,0.6,6.3,0.6,6.3l-7.9,6.1l2.4,17l0.8-0.1
				C36.6,149.8,33.9,134.8,34,133.5z"/>
		</g>
	</g>
	<g id="Shape_442_15_" class="st0">
		<g>
			<path class="st8" d="M18.5,148.7l1.4,0.5c0,0,0.9-15.5,1.7-21.8s4-9.8,4-9.8C19.3,121.7,18.5,148.7,18.5,148.7z"/>
		</g>
	</g>
	<g id="Shape_382_15_" class="st0">
		<g>
			<path class="st9" d="M106.9,68.3c0,0-5.9,3.3-5.1,6.8c0.8,3.6,0.9,12.8,1,11.7c0.1-1.1,1.6-5.3,3.1-9.3S106.9,68.3,106.9,68.3z"
				/>
		</g>
	</g>
	<g id="Shape_401_15_" class="st0">
		<g>
			<path class="st10" d="M98.7,56.5c-0.3-2.1-0.3-6.9-0.2-11.5c0.1-4.6-0.8-8.3-1.9-13.5s-12-5-17-3.9c-5.1,1.1-9.6-0.8-13.8-1.7
				c-4.2-0.9-9.3-0.9-13,2c-3.7,2.9-5.6,10.7-5.5,14c0.1,3.3,0.7,12,0.1,14.5c-0.5,2.5-0.4,5.3-0.8,7.6c-0.3,2.3-0.6,6.1-0.2,8.9
				c0.4,2.8,3.3,11,5.8,16.5c2.5,5.5,8.3,11.9,15,12.6c6.7,0.8,23.2-13.4,23.7-14.1C93,84.9,98.9,58.6,98.7,56.5z"/>
		</g>
	</g>
	<g id="Shape_387_15_" class="st0">
		<g>
			<path class="st11" d="M109.7,53.4c-1.2-1.2-2.4-1.5-3.8-0.3c-1.3,1.2-7.2,5.9-7.2,4.5s0.9-21.1,0.3-23.4
				c-0.5-2.3-2-16.3-14.3-7.3c0,0,8.3,2.5,8.8,5.4s-0.2,5.4-1.2,8.4c-1.1,3-4,8.4-4.2,9.4c-0.2,1-11.7-1.1-14.3,0.8
				c-2.6,1.9-1.4,1.7-2.9,3.8c-1.5,2-0.3,4.5-0.1,6.3c0.3,1.8-0.7,0.9-0.9,3.1c-0.2,2.3-0.8,2.9-0.6,4.4c0.1,1.5,0.9,2.5,1,3.4
				c0.1,1-0.6,2.3-2.1,2.5c-1.5,0.1-3,0.6-4.2-0.1c-1.2-0.7-2.9-2-3.3-2c-0.4,0,1.6,2.1,2.5,2.7c0.8,0.5,1.9,1.2,2.6,2.2
				c0.7,1,2,0.9,3,1.3s3,0.2,3.1,0.8s-2.2,0.5-3.8,0.9c-1.5,0.3-6.5-0.1-7.3-0.3c-0.8-0.2-1.6-0.2-2.4-0.9c-0.8-0.6-1-0.4-2,1
				c-1.1,1.4-1.5,3,0,2.7s2.2-1.4,3.1-0.7c0.9,0.8,1.1,1.3,2.8,1.4s3.8,0.5,5.1,0.5s4.9-0.2,5.8,0.1c0.9,0.3,1.7,1.5,0.6,1.9
				c-1.1,0.4-3.2,0.2-4.2,0.8c-1,0.6,1.7,1.1,3.5,1s3.9-0.1,4.9-1.3c1-1.2,1.7-2.7,2.7-3.6c1.1-0.9,1.5-1.5,2.6-2.3s0.8-1.7,2.5-1.6
				s2.5,2.1,2,3.3c-0.5,1.2-1.4,4.9-2.2,5.9c-0.8,1.1-1.4,2.4-2.7,1.8c-1.3-0.5-1.4-1.1-2.1,0.3s-1.4,2.9-2.4,3.9s-3.7,3.1-5.1,3.2
				c-1.4,0.1-4.1,1.3-7,1c-2.8-0.3-4.4-0.2-5.5-1c-1.1-0.7-2.2-2-3-3.3c-0.9-1.2-1-2.4-2.6-3.2c-1.6-0.8-1-2.3-1.9-3.6
				c-1-1.4-4.1-5.5-4.6-9.6c-0.5-4.1-2.1-5.3-2.1-5.3s1.1,8.9,1.6,10.9c0.5,1.9,3.5,7.7,4.6,9.2c1.2,1.5,2.7,3.9,4,6.1
				s2.9,4.6,3.6,5.7c0.7,1.1,5.3,9,6.6,10.2c1.3,1.2,2.1,4.3,4.4,3c2.3-1.3,8-7.1,9.1-7.9s7.7-6.4,9.5-7.7c1.8-1.4,5.8-3.3,7.1-5.6
				c1.3-2.3,3.6-5.4,4.7-7.2c1.1-1.8,0.8-2.4,1-3.9c0.2-1.5,1-6.9,0.9-7.8c-0.1-0.9-0.1-1.5,1.2-2.5c1.2-1,1.4-4,2.2-5.8
				s1.4-5.5,1.7-6.8s1.1-3.4,1.4-4.6C110.5,56.3,110.9,54.6,109.7,53.4z"/>
		</g>
	</g>
	<g id="Shape_382_copy_15_" class="st0">
		<g>
			<path class="st12" d="M108.4,41.9c-0.1-2.3-0.9-6.4-1.8-9.6c-1-3.3-2.6-3.4-5.4-6c-2.8-2.6-6.1-3.7-8.3-4.5
				c-2.2-0.8-1.1-0.5-3-2.3c-1.9-1.8-5.7-3.4-7.6-4.2c-1.8-0.8-1.8-0.4-5.7-1.4s-6.2-0.1-9-0.4c-2.9-0.3-3.3,0.9-5.9,1.4
				c-2.7,0.5-4.6,1.6-7.5,3.3c-2.9,1.7-5.7,3.8-6.8,6.8c-1.2,3-1.4,3.9-1.8,6.3c0,0-2.1,5.5-1.8,7c0.3,1.5,0.3,2.9,0.3,5.1
				c-0.1,2.2-0.6,4.8-0.1,6.5c0.5,1.7-0.1,3.1-0.3,5.8s0.5,2.9,1.8,3.8c1.4,1,1,5.3,1.3,2.9c0.3-2.4,0.6-3.2,1-5.8s0.3-4.8,0.8-7.4
				c0.5-2.7-0.6-7.4-0.5-10.5s1.6-6.3,4.4-9.2c2.7-2.9,6.6-2.8,8.7-2.9c2.2-0.1,5.5,0.8,8.1,1.8s7.9-0.3,10.8-0.2
				c2.9,0.1,4.9-0.8,6.8-1.2c1.8-0.5,2-0.8,4.6,0.9c2.6,1.6,4.5,5.6,4.8,8.6c0.3,3-0.8,7.5-1.4,9.6c-0.5,2.1,1.9,5.7,2.4,7.9
				c0.5,2.2,1,5.2,0.9,8.1c-0.1,2.9,0.8,5.8,1.6,4s3.6-7.1,5.4-10.5c1.8-3.4,4-2.9,4-2.9C109.2,51.5,108.5,44.2,108.4,41.9z"/>
		</g>
	</g>
	<g id="Shape_386_15_" class="st0">
		<g>
			<path class="st13" d="M84.2,45.6c0,0-0.1-0.1-0.1-0.1c-0.1-0.1-0.1-0.2-0.2-0.3c-0.3-1.4,0.3-2.6,0.3-4c0-3.8-2-1-3-3.2
				c-1.1-2.3,2.8-4.3,1.5-7.1c-1.2-2-2.6-2-3-2.1c-0.8-0.3-2.6-0.1-3.5-0.4c0,0,0,0,0,0c-0.4-0.1,1.1,0.5,0.6,0.4
				c-1.2,0-3.6,0.4-4.8,0.4c-2.3,0.2-4.6-0.8-6.9-0.9c-3.5-0.1-8.1-1.2-11.2,0.6c-3.2,1.8-3.7,4-4.2,4.4c-0.3,0.4-0.9,4.3-0.9,4.3
				c-1.3,4.2,1.1,5,0.8,9.2c0,0,0,0.1,0,0.1V47l0,0.1c-0.3,1-0.5,2-0.5,3.1v0.4c0.1,0.1,0.2,0.1,0.3,0.2c0.6,0.2,2.7-1,3.9-1.1
				c1,0,2,0,3.1,0c2.6-0.3,7.5-0.2,9,2.3c0.4,0.7-0.1,2.4-0.2,3.2c0,0.6-0.1,1.2-0.1,1.8c-0.2,0.4-0.6,0.9-1,1.1
				c-0.6,1-1.3,1.9-1.9,2.9c-1.5,1.3-3.9,2.3-5.9,2.1c-1-0.2-2.1-0.3-3.1-0.5c-0.5-0.8-0.9-2.1-2-2.3c-1-0.1-2.8-0.4-3.4,0.6
				c-0.1,0.3-0.3,0.7-0.4,1c0.2,1.4,0.4,2.8,0.5,4.1c0.5,3.7,1.1,6.7,5.8,5.7c1.2-0.2,2.3-0.9,3.4-1.4c1.8-0.7,2.9-3.6,4.5-3.8
				c1.5-0.1,2.2,0.9,2.6,2c0.1,0.3,0.2,1.4-0.1,1.4h-0.1c-0.6-0.6-0.9-1.6-1.4-2.3c-1.9,0-2.2,1.9-2.2,3.4c0.6,0.3,1.2,0.6,1.8,0.9
				c0.4,0.4,0.8,0.7,1.2,1.1c1.4,0,2.6,0.2,4,0.2c1.2,0,1.1-0.6,1.7-1.2c0-1.2-1.4-2.2-1.3-3.5c0.2-0.6,0.3-1.1,0.5-1.7
				c0.3-3.7,0.5-7.5,0.8-11.2c-0.1-1.2-1.1-2.2-1.1-3.3c0.3-0.7,1.3-0.5,1.9-0.9c0.6-0.5,1-1.4,1.6-1.9c1-0.2,2.1-0.4,3.1-0.6
				c0.7-0.1,3.1,0,3.5-0.4c0.4,0,0.9,0.1,1.3,0.1c1.3-0.1,2.6-0.2,3.8-0.3c0.4-0.1,0.9-0.6,1.1-0.6c-0.2,0.1-0.3,0.2-0.5,0.4
				c0.3-0.1,0.6-0.1,0.9-0.2c0-0.1,0.1-0.2,0.1-0.3C85.1,46.8,84.9,46.2,84.2,45.6z"/>
		</g>
	</g>
	<g id="Shape_398_15_" class="st0">
		<g>
			<path class="st14" d="M65.7,53c-0.1-1.9-0.5-2.6-2.1-3.6c-3-1.8-7.5,0.9-10.7-0.7l0.6-0.1c0,0-0.1-0.1-0.1-0.1
				c-0.8,0.3-1.6,0.6-2.4,0.9c-0.1,0-0.1,0.1-0.2,0.1c-0.6,0.8-1.2,1.5-1.5,2.5c-0.2,0.7-0.4,1.4-0.6,2.1c-0.1,1.3-0.1,2.7-0.2,4
				c0.1,0.5,0.2,1,0.4,1.5c0.7,0.7,2,0.3,2.8,0.9c0.6,0.6,1.1,1.2,1.7,1.8c1.5,0.7,5.9,0.3,7.2-0.6C63.5,59.6,66,57.1,65.7,53z"/>
		</g>
	</g>
	<g id="Shape_415_15_" class="st0">
		<g>
			<path class="st11" d="M63.3,56.5c0.3-0.6,0.1-1.4-0.8-1.2c-0.9,0.2-3.1-0.1-4.7,0.2s-4.4,1.1-5.5,1.5c-1,0.4-1.9,1.8-1.9,1.8
				c0,0.5,2.3-0.8,2.9-1c0.5-0.3,0.6-0.4,3.1-1c2.5-0.6,4,0,5.1,0.4c1.1,0.4,0.1,0.6-0.4,1c-0.5,0.3,0.3,0.6,1.2,0.6
				c0.9,0,0.9-0.3,1.1-0.8C63.5,57.4,63,57.1,63.3,56.5z"/>
		</g>
	</g>
	<g id="Shape_399_15_" class="st0">
		<g>
			<path class="st15" d="M49.6,56.4c0-0.1,0-0.1,0-0.2c0,0,0-0.1,0-0.1C49.6,56.2,49.6,56.3,49.6,56.4z M56.4,53.4
				c-2-0.6-6.3,0.4-6.8,2.8c0,0.3,0.2,1.2,0.8,1.2c0.7-0.2,1.4-0.4,2.1-0.6c0.6-1.2,6.8-0.6,6.8-2.7C59.3,54.1,58,53.9,56.4,53.4z"
				/>
		</g>
	</g>
	<g id="Shape_400_15_" class="st0">
		<g>
			<path class="st16" d="M59.5,70.1L59.5,70.1c-0.6,0.7-3.8,5.1-3.8,5.9c0.5,0.6,1.5-0.6,1.7-1c1-1.4,2.6-3.4,2.6-5.1
				C59.8,69.7,59.7,70.1,59.5,70.1z"/>
		</g>
	</g>
	<g id="Shape_388_15_" class="st0">
		<g>
			<path class="st17" d="M108.4,54.7c-0.7-0.1-1.7-0.1-2.4,0.2c0,0.1,0,0.2,0,0.3c0,0.1,0,0.3,0.1,0.4c0,0,0,0,0,0c0,0,0,0,0.1,0.1
				c0,0,2,0.1,2.4,0.4c0.1,0.1,0.1,0.1,0.2,0.2c0,1.6-1.3,2.9-1.3,4.4c0,0.2,0.1,1.6,0.4,1.6C107.8,60.5,111.5,55.4,108.4,54.7z"/>
		</g>
	</g>
	<g id="Shape_389_15_" class="st0">
		<g>
			<path class="st18" d="M106.3,59.9c-0.3-1,0.1-2.3-1.3-2.6c-1.2-0.2-1.3,1.5-1.1,2.3c0,0.1,0,0.2,0,0.3l0,0l0,0.1l0-0.1l0,0.1
				c0,0.1-0.1,0.2-0.1,0.2c0.4,0.1,0.9,0.3,1.3,0.4c0.2,0.2,0.4,0.3,0.5,0.5c0.8,1.2,1.1,2.7,0.4,4c-0.2,0.5-2.5,2.8-2,3.3
				c0.1,0,0.2,0.1,0.3,0.1c1.5-1.5,3.3-4,3.3-6.3C107.6,62.4,106.3,60.1,106.3,59.9z"/>
		</g>
	</g>
	<g id="Shape_390_15_" class="st0">
		<g>
			<path class="st19" d="M103.9,64.4c-0.2-1.2-1.7-1.8-1.7-3.2c0,0.1-0.1,0.1-0.1,0.2c0.2-0.3-1.8,5.5,0.6,5.5
				C102.6,66.6,104.1,65.4,103.9,64.4z"/>
		</g>
	</g>
	<g id="Shape_391_15_" class="st0">
		<g>
			<path class="st20" d="M105.5,70.4c-0.3,0-2.5-0.7-2.7-0.9l0.1,0.4c0,0,0.1,0,0.1,0c0,0-0.1,0.1-0.1,0.1l0-0.1
				c-2,0.1-3.2,4-1.4,4.7c1.3,0.5,2.8-0.8,3.8-1.3c0.2-0.4,0.3-0.8,0.5-1.3C105.7,71.6,105.5,71,105.5,70.4z"/>
		</g>
	</g>
	<g id="Shape_393_15_" class="st0">
		<g>
			<path class="st21" d="M80.8,80.3c-0.8-0.5-4.5-0.3-5.9-0.2c-1.4,0.1-5.1,0.2-6.2,0.3c-1.1,0.1-2.9,0-4.6,0c-1.7,0-5-0.5-5-0.5
				s-1,0.3-2.2,1c-1.2,0.7,0.7,0.9,1.8,0.8c1.2-0.1,2,1.6,2.9,1.6s2.4,0.3,3.3,0.5c0.9,0.2,4.2,0,5.1,0s3.7,0,5-0.1
				c1.3-0.1,4.1-1.7,5-2.2C81,81,81.6,80.8,80.8,80.3z"/>
		</g>
	</g>
	<g id="Shape_411_15_" class="st22">
		<g>
			<path class="st23" d="M80.1,80.4c-0.5,0-2.1-0.1-2.7,0.1c-0.6,0.2-1.6,0.8-1.6,0.8l-3.8,1l-1.2,0.2l-2.9,0.2l-4.2-0.1l-3.1-1.5
				c0,0-1.9-0.6-2.3-0.5c0,0-1,0.3-1,0.6s0.5-0.1,1.2,0.1s1.6,0.8,2,0.9c0.3,0.1,3.7,1.5,7.1,1.4c3.4-0.1,3.9-0.1,4.8-0.1
				c0.9,0,2.8-0.5,3.6-0.5c0.8-0.1,3.1-1.1,3.7-1.2s1.2-0.2,1.4-0.5S80.6,80.4,80.1,80.4z"/>
		</g>
	</g>
	<g id="Shape_409_15_" class="st0">
		<g>
			<path class="st24" d="M60.3,80.8c0,0-1.4-0.3-2,0.1c-0.6,0.4,1,0.3,1.7,0.8s1.6,0.6,2.4,0.8S60.9,81,60.3,80.8z M79.1,80.4
				c-1.2,0.1-1,0.4-1.4,0.7s-1.6-0.1-2.2,1.4c0,0,1.1,0.1,2-0.1c1-0.2,2-1.1,2.6-1.2C80.8,80.9,80.3,80.3,79.1,80.4z"/>
		</g>
	</g>
	<g id="Shape_392_15_" class="st0">
		<g>
			<path class="st25" d="M60.4,81L60.4,81C60.4,81,60.4,81,60.4,81C60.4,81,60.4,81,60.4,81z M72,81.2c-2.4,0.2-4.7,0.2-7,0.2
				c-1.3,0-3-0.7-4-0.6c-0.2,0-0.3,0.1-0.5,0.1c0,0,0,0.1,0,0.1c0,0,0,0,0,0c0.1,1,0.4,1.3,1.2,1.3c0.4,0.1,0.5,0.4,1.1,0.4
				c0.1-0.1,0.3-0.2,0.4-0.2c0.5,0.5,1.3,0.5,2.1,0.5c0,0,0,0,0,0c0,0,0,0,0,0v0h0c0,0,0,0.1,0,0.1c0.8,0,2.3,0.7,3.1,0.2
				c0.1,0,0.3,0,0.3,0c0.4,0.2,2.9-0.1,3.1-0.3c0.9,0,2.3,0.3,2.5-0.7c0,0,0,0,0,0c0,0,0,0,0,0c0,0,0.1,0.1,0.1,0.1
				c0.4,0.1,0.9,0.3,1.3,0.4c0.1,0.1,0.6-0.9,0.6-0.9c0.5,0.9,1.5,0.1,1.5,0.1c0.9,0,1.1-0.4,1.1-1.4C76.6,80.6,74.3,80.9,72,81.2z"
				/>
		</g>
	</g>
	<g id="Shape_394_15_" class="st0">
		<g>
			<path class="st26" d="M91.7,60c-1.1-0.5-1.8,0.5-2.7,1c-0.9,0.1-1.8,0.2-2.7,0.2c-1.3,0.3-2.5,0.7-3.8,1c-0.9,0-1.8-0.1-2.8-0.1
				c-0.3-0.1-1.3-0.8-1.3-0.8c1.1-0.7,7.1,0.7,7.1-1.3c-0.5-0.9-2.7-0.2-3.5-0.1c-1,0.1-1.9-0.3-2.8-0.6c-1.2-0.1-2.4-0.2-3.7-0.3
				c-0.5-0.1-1-0.2-1.6-0.4c-0.1,0.4-0.2,0.8-0.3,1.1c-0.1,0.1-0.3,0.1-0.4,0.2c-1.4,0-0.7-2.3-1.1-2.6c0,0-0.1-0.1-0.1-0.1
				c-0.1,0.1-0.2,0.1-0.3,0.2c-1.7,1.5,1.5,4.8,2.3,6.3c0.6,1.2,0.4,2.5,1,3.6c0.5,1,1.9,1.6,2.7,2.4c2.7,2.3,7.3,6.1,10.7,2.7
				c1.1-1.1,1.3-2.3,1.7-3.7c0.4-0.5,0.7-1,1.1-1.5c0.7-1.3,0.9-2.6,0.9-4C92.2,62.3,92.8,60.5,91.7,60z"/>
		</g>
	</g>
	<g id="Shape_395_15_" class="st0">
		<g>
			<path class="st27" d="M76.6,61.9C76.6,61.9,76.6,61.9,76.6,61.9C76.6,61.9,76.6,61.9,76.6,61.9C76.6,61.9,76.6,61.9,76.6,61.9z
				 M88.7,62.3c-1.3-0.8-4.7,0.5-6.1,0.6c-1.7,0.1-3-0.1-4.6-0.4c-0.4-0.2-0.9-0.4-1.3-0.6c0.1,3.5,0.2,6.3,3.5,8.2
				c0.7,0.3,1.3,0.6,2,0.9c1.1,0.2,3.4,1,4.2-0.1c1.3-1.8,1.1-5.2,2.4-6.4C88.8,63.8,89.5,62.8,88.7,62.3z"/>
		</g>
	</g>
	<g id="Shape_396_15_" class="st0">
		<g>
			<path class="st28" d="M59.4,64.3c0-0.4-2-0.1-2.2-0.1c-1.8,0-3.7-0.1-5-1.5c-0.2,0-1.4-0.2-1.4,0.1c0,0.1,0.1,0.2,0.1,0.3
				c0,0-0.1,0-0.1,0c0.4,1.7-0.3,4.8,2,5.5c2.1,0.6,4.6-0.9,5.7-2.5C58.8,65.7,59.6,64.8,59.4,64.3z"/>
		</g>
	</g>
	<g id="Shape_397_15_" class="st0">
		<g>
			<path class="st28" d="M68.3,56.9c-0.4-0.3-0.7-0.6-1.1-0.8c-0.3,0-0.7,0.2-0.9,0.2c0,0.2-0.1,0.3-0.1,0.5c0,0,0-0.1,0-0.1
				c-0.2,1.9-0.3,3.7-0.7,5.6c-0.4,1.8,0.1,4.6,0.1,6.5c-0.6,0.9-2,3.9-0.1,4.2c1.9,0.3,2.1-2.1,2.3-3.4c0-1.9,0.1-3.9,0.1-5.8
				c0.2-0.7,0.4-1.4,0.6-2C68.8,60.8,68.8,57.4,68.3,56.9z"/>
		</g>
	</g>
	<g id="Shape_402_15_" class="st0">
		<g>
			<path class="st29" d="M85.5,58c-0.5-0.5-2.2-1.1-4.3-1.4s-4.4,1-4.4,1c-1.4,0.8,0.5,1,2,1.3s5.3,0.1,5.9-0.2S86,58.5,85.5,58z"/>
		</g>
	</g>
	<g id="Ellipse_9_15_" class="st0">
		<g>
			<path class="st30" d="M83.7,56.6C82,56.5,80,55.3,79.6,56c-0.2,0.3-0.3,0.7-0.3,1.1c0,1.2,1,2.3,2.3,2.3c1.2,0,2.3-1,2.3-2.3
				C83.8,56.9,83.7,56.8,83.7,56.6z"/>
		</g>
	</g>
	<g id="Ellipse_9_copy_15_" class="st0">
		<g>
			<circle class="st31" cx="81.5" cy="57.1" r="1.2"/>
		</g>
	</g>
	<g id="Ellipse_9_copy_2_15_" class="st0">
		<g>
			<circle class="st32" cx="82" cy="57.3" r="0.4"/>
		</g>
	</g>
	<g id="Shape_416_15_" class="st0">
		<g>
			<path class="st33" d="M63.2,54.1c-1.3-0.9-2.3-3-2.3-3s-4.2-0.2-6.2-0.1c-2,0.1,0.4,1.1,2.5,1.9c2.2,0.8,1.5,1,1.6,1.8
				c0.1,0.8-2.7,1.5-2,1.4c0.6-0.1,3-0.4,4.4-0.4c1.5,0,2.5,1.4,3,0.8C64.7,55.9,64.5,55,63.2,54.1z"/>
		</g>
	</g>
	<g id="Shape_403_15_" class="st0">
		<g>
			<path class="st34" d="M86.8,57.1c-0.4-0.2-5.7-1.5-6.6-1.6c-0.9,0-2.8-0.2-3.8,0.4c-1,0.6-0.9,1.1-0.3,1c0.5-0.1,0.6-0.7,1.3-0.8
				c0.7-0.1,1.8-0.1,1.2,0.2c-0.6,0.3-3,0.8-2.8,1.6c0,0,1-0.5,1.8-0.8c0.9-0.2,1.9-0.9,3.1-0.7c1.3,0.2,2.9,0.6,3.6,1
				c0.6,0.4,0.9,0.6,0.8,0.8c-0.1,0.2-0.1,0,0.5,0.2s1.6,1.2,2.2-0.1C88.4,57.1,87.2,57.3,86.8,57.1z"/>
		</g>
	</g>
	<g id="Shape_404_15_" class="st0">
		<g>
			<path class="st35" d="M100.4,75.7c0,0-1.5,13.1-1.6,13.8c0.4,1.3,1.4-3.8,2-6.2s2.5-4.9,2.9-6.4
				C104.1,75.4,101.7,76.9,100.4,75.7z"/>
		</g>
	</g>
	<g id="Shape_405_15_" class="st0">
		<g>
			<path class="st36" d="M86.7,53.8c-1.3-0.5-3.1-1-5.9-0.8s-4.5,1.8-4.5,1.8c-1.4,0.6,2.5,0.2,3.7,0.4c1.2,0.2,4.6,0.4,5.8,0
				C87,54.7,88,54.3,86.7,53.8z"/>
		</g>
	</g>
	<g id="Shape_402_copy_15_" class="st0">
		<g>
			<path class="st29" d="M62,58c-0.5-0.5-0.4-1.2-2.5-1.6c-2.1-0.4-6.3,1.1-6.3,1.1c-1.4,0.8,0.5,1,2,1.3s5.3,0.1,5.9-0.2
				S62.5,58.5,62,58z"/>
		</g>
	</g>
	<g id="Ellipse_9_copy_3_47_" class="st0">
		<g>
			<path class="st30" d="M60.2,56.6c-1.7-0.1-3.4-0.7-3.8,0c-0.2,0.3-0.6,0.1-0.6,0.5c0,1.2,1,2.3,2.3,2.3c1.2,0,2.3-1,2.3-2.3
				C60.3,56.9,60.2,56.8,60.2,56.6z"/>
		</g>
	</g>
	<g id="Ellipse_9_copy_3_45_" class="st0">
		<g>
			<circle class="st31" cx="58" cy="57.1" r="1.2"/>
		</g>
	</g>
	<g id="Shape_385_15_" class="st0">
		<g>
			<path class="st37" d="M89.3,51.4c-1.4-1.5-5.3-1.4-8.7-2c-3.5-0.6-6.8,1.5-6.8,1.5c-1.8,1.5,4.4,2,5.7,1.6s6.2,0.4,7.1,1.1
				c1,0.7,5.1,2,5.1,2S90.7,52.9,89.3,51.4z M57.3,49.8c-2.8,0.5-4.6-0.6-4.6-0.6s-2.2,1.1-3.1,2.5c-0.9,1.4-2,4.2-0.1,3.2
				s4.3-2.7,6.8-2c2.5,0.7,4.9-0.4,5.3-2.3C61.6,50.6,60.1,49.3,57.3,49.8z"/>
		</g>
	</g>
	<g id="Ellipse_9_copy_3_43_" class="st0">
		<g>
			<circle class="st32" cx="58.5" cy="57.3" r="0.4"/>
		</g>
	</g>
	<g id="Shape_407_15_" class="st0">
		<g>
			<path class="st38" d="M62,58.2c-0.8-0.1-1.3,0.3-3.3,0.5c-2,0.1-5.2-0.6-5.2-0.6c-2.8,0.7,0.8,1.3,1.7,1.4
				c0.9,0.1,4.5-0.1,5.1-0.2c0.5-0.1,1.9-0.4,2.3-0.7S62.7,58.3,62,58.2z"/>
		</g>
	</g>
	<g id="Shape_406_15_" class="st0">
		<g>
			<path class="st39" d="M63.1,57.9c-0.1-0.2-1.2-0.6-1-0.8c0.1-0.2,0.6-0.1-0.4-0.8s-2-0.6-2.7-0.5c-0.6,0.1-3.2,0.6-4.4,0.9
				c-1.2,0.2-2,0.6-2.7,1.4c-0.7,0.8-2.9,1.4-1.8,1.6c0,0,1.5,0.1,1.7-0.3c0.2-0.4,0.9-1.1,1.4-1.2c0.5-0.1,1,0.1,1.4,0.1
				c0.4,0-0.2-0.3,0-0.7c0.2-0.4,0.6-0.6,1.3-0.7c0.6-0.1,2.9-0.4,3.8-0.2c0.9,0.2,1.5,0.4,2,0.8c0.4,0.3,0.3,0.5-0.1,0.5
				c-0.4,0.1-0.6,0.2,0.4,0.3S63.2,58.1,63.1,57.9z"/>
		</g>
	</g>
	<g id="Shape_413_15_" class="st0">
		<g>
			<path class="st40" d="M77.6,82.5c-1,0.4-5.5,1.1-6.8,1.2c-1.3,0.1-5.3,0-6.2,0c-0.9,0-5.4-2.1-5-1.2c0,0,2.7,3.5,3.8,4
				c1.1,0.4,5.2,0.2,7.3,0.1s3.8-0.7,5.1-1.4c1.2-0.7,2.2-1.8,2.8-2.5S78.6,82.1,77.6,82.5z"/>
		</g>
	</g>
	<g id="Shape_410_15_" class="st0">
		<g>
			<path class="st41" d="M76.3,80c-0.7,0.1-5.3,0.1-6,0.3c-0.7,0.2-3.6,0.5-4.3,0.4c-0.8-0.1-3.4-0.3-4.1-0.2
				c-0.7,0.1-2.4-0.1-2.1,0.2c0,0,4,1.8,8.7,1.3c4.7-0.5,8.1-1.1,8.4-1.2c0.3,0,1.8-0.7,2.3-0.6C79.7,80.4,77,79.9,76.3,80z"/>
		</g>
	</g>
	<g id="Shape_412_15_" class="st0">
		<g>
			<path class="st42" d="M69.1,84.2c-0.6-0.1-6.6-0.9-6.3-0.5c0,0-0.6,0.3-0.1,0.9c0.5,0.6,2.2,1,3,0.9c0.9-0.1,3.7-0.6,4.3-0.8
				C70.7,84.5,69.7,84.3,69.1,84.2z"/>
		</g>
	</g>
	<g id="Shape_414_15_" class="st0">
		<g>
			<path class="st43" d="M60.5,60.2c-1,0-2.5,0.1-3.8,0.7c-1.3,0.6-2.8,0.5-2.8,0.5c0.6,1.6,5.1,0.1,6-0.2S61.5,60.2,60.5,60.2z"/>
		</g>
	</g>
	<g id="Shape_417_15_" class="st0">
		<g>
			<path class="st10" d="M74.5,68.5c-0.6,0.1-1.7-0.5-2,0c0,0-2,3.3-0.7,3.8s2-0.6,2.8-1.4C75.4,70,75.1,68.4,74.5,68.5z"/>
		</g>
	</g>
	<g id="Shape_418_15_" class="st0">
		<g>
			<path class="st33" d="M82.6,75.4c-0.9-0.6-2.7-2.7-3.1-3.5s-2.3-1.7-2.3-1.7c-1-0.3,1.7,1.6,1.9,2.3c0.2,0.7,2.4,3,2.9,3.2
				C82.7,76,83.5,76,82.6,75.4z"/>
		</g>
	</g>
	<g id="Shape_419_15_" class="st44">
		<g>
			<path class="st45" d="M76.3,70.4c0-0.4-0.1,0.4-0.6,1.1c-0.4,0.5-1.1,0.8-1.5,1c-0.9,0.4-2.3,1-2.9,1s-1.7,1.7-2.5,2
				s-1.9,0.3-2.9,0.2c-1-0.1-2.9-2-2.4-1.3c0.5,0.7,1.3,1.5,2,1.8c0.7,0.4,2,0.8,2.7,0.6c0.7-0.2,2.2-0.8,3.2-0.8
				c1.1,0,2-1.2,2.5-1.9c0.4-0.7,1.7-1.3,2.3-2C76.8,71.5,76.3,70.4,76.3,70.4z"/>
		</g>
	</g>
	<g id="Shape_420_15_" class="st0">
		<g>
			<path class="st46" d="M74.1,46.7c-1-1.3-3.6-1.6-5.1-2.5s-0.7-4.4-0.1-6.6c0.6-2.2,1.8-5.2,1.3-7.2C69.6,28.4,64,29,64,29
				c-1-0.3-2.1-0.5-4.2,0.9c-2,1.4-0.6,6.6-0.4,8.1c0.2,1.5,0,4.1-1.1,5.7c-1.1,1.5,0.4,3.4,2.5,3.9c2.2,0.5,8.8,1.6,10.7,0.6
				C73.4,47.2,75,48,74.1,46.7z"/>
		</g>
	</g>
	<g id="Shape_421_15_" class="st0">
		<g>
			<path class="st47" d="M74.5,88.6c-1.9-0.2-2.5,0.4-5.1-0.1s-5.9-0.8-7.4-2.1c-1.5-1.3-3.7-5-4.4-3.8c0,0-1.6,1.1-1.2,3
				c0.4,1.9,1.1,4.9,1.8,7c0.7,2.2,3.9,4.5,8.3,4c4.3-0.5,5.4-0.9,6-3.3S76.4,88.8,74.5,88.6z"/>
		</g>
	</g>
	<g id="Shape_422_15_" class="st0">
		<g>
			<path class="st48" d="M63.4,77.1c-0.8-0.9-2.5-3.3-2.5-3.3s-0.6,0.5-1,1.9c-0.4,1.4-0.6,2.5,1,3.3c1.6,0.8,4,0.7,4.6,0.2
				S64.2,78,63.4,77.1z"/>
		</g>
	</g>
	<g id="Shape_423_15_" class="st0">
		<g>
			<path class="st49" d="M82.4,75.2c-0.8-1-2.3-2.5-3.1-3.6c-0.9-1.2-1.9-1.3-1.9-1.3c0.4,0,1.2,1.4,1.4,1.6
				c0.1,0.3,1.3,1.7,2.5,2.8C82.5,75.9,83.2,76.3,82.4,75.2z"/>
		</g>
	</g>
	<g id="Shape_443_15_" class="st0">
		<g>
			<path class="st50" d="M75.6,110c-2-0.4-8.6-5.5-6.6-6.8c2-1.2-14.1-7.9-14.1-7.9s9.6,16.2,11.6,18.6c2,2.4,2.3,4,4.2,3.8
				c1.9-0.2,7.6-6.5,8.2-6.8C79.4,110.5,77.6,110.4,75.6,110z"/>
		</g>
	</g>
	<g id="Shape_424_15_" class="st0">
		<g>
			<path class="st51" d="M95.5,81.6c-0.2-1.8,0.2-12.2-0.5-9.3c-0.7,2.9-2.4,12.5-3.5,15.3c-1.1,2.8-6.7,8.1-6.6,5.9
				c0.2-2.5-1-2.4-1.8-0.9c-0.8,1.5-3.3,4.4-7,5.6c-3,1-9.8,1.5-13.4,0.7c-3.6-0.8-3.8-2.6-5.2-3.4c-1.4-0.9-4.7-3.2-4.7-3.2
				c0.7,1.7,6.8,10.3,6.8,10.3s-0.5-0.8,2.5,1.4c3.1,2.2,4.5,2.9,5.8,0.6c1.3-2.3,6.6-2.5,10.4-3.6c3.8-1.1,6-1.5,8.3-2.7
				c2.2-1.2,5-4.3,6.2-6.7C94.1,89.2,95.7,83.4,95.5,81.6z"/>
		</g>
	</g>
	<g id="Shape_425_15_" class="st0">
		<g>
			<path class="st52" d="M73.5,100.3c-4.7,0.8-10.3-0.5-10.3-0.5c-2.3-0.9,2,1.7,7,1.5c5.1-0.2,7-1.2,9-2.5S81,96,81,96
				S78.2,99.5,73.5,100.3z"/>
		</g>
	</g>
	<g id="Shape_428_15_" class="st0">
		<g>
			<path class="st53" d="M78.1,14.6c-3.3-1-7.5,0.5-9.4-0.8c0,1.2,0.8,1.6,0.8,1.6s-5.2,1-6.6,0.7c-1.4-0.3-4.3,2.2-7.1,1.7
				c0,0,2,2.8,6.6,2.5c4.5-0.3,9.2-1.1,12.4-0.3c-2.3-1.4-1.8-1.6-1.8-1.6s2.9,0.3,6.7,1.4c3.2,0.9,4.5,0.9,5.2,1.1
				c-1-0.7-3.3-2.3-4.4-2.6c-1.5-0.5,4.6-0.5,5.1-0.5C86.1,18,81.4,15.7,78.1,14.6z M85.2,21.3c-0.1-0.1-0.2-0.2-0.4-0.2
				C85.2,21.4,85.4,21.5,85.2,21.3z M103.7,40.5c-1.2-1.7-0.6-6.1-2.1-8.7c-1.5-2.6-1.6-3.9-4.3-5.6c-2.7-1.7-2.3-3.5-2.3-3.5
				c-4.4-1.4-9,4.5-7,4.6c1.9,0.1,3.9,1.7,5.7,4.6c1.8,2.8,0.7,11.1,2.1,11.3c1.4,0.2,2.1,2.7,3.6,5.3c-0.1-3.7-2-7.8-0.5-7.7
				s2.1,0.9,3.2,4.2c0.4-2.1-0.5-6.9-0.5-6.9S101.3,37.4,103.7,40.5z M45.5,34.4c-0.9,2.7-1.6,6.3-1.2,8.7c0.4,2.5,1.3,3.1,0.8,5.2
				c1.2-1.5,1.5-2.3,1.4-3.9c-0.1-1.6,0.5-1.8,1.3-2.1c-0.6-3.9,1-10,4-13C51.9,29.3,46.4,31.7,45.5,34.4z"/>
		</g>
	</g>
</g>
</svg>
