<?xml version="1.0" encoding="utf-8"?>
<!-- Generator: Adobe Illustrator 19.1.0, SVG Export Plug-In . SVG Version: 6.00 Build 0)  -->
<svg version="1.1" id="Layer_1" xmlns="http://www.w3.org/2000/svg" xmlns:xlink="http://www.w3.org/1999/xlink" x="0px" y="0px"
	 viewBox="0 0 150 150" style="enable-background:new 0 0 150 150;" xml:space="preserve">
<style type="text/css">
	.st0{clip-path:url(#SVGID_3_);}
	.st1{fill-rule:evenodd;clip-rule:evenodd;fill:#B4C0DA;}
	.st2{fill-rule:evenodd;clip-rule:evenodd;fill:#781214;}
	.st3{fill-rule:evenodd;clip-rule:evenodd;fill:#DCE4F4;}
	.st4{fill-rule:evenodd;clip-rule:evenodd;fill:#2E3033;}
	.st5{fill-rule:evenodd;clip-rule:evenodd;fill:#E2A480;}
	.st6{fill-rule:evenodd;clip-rule:evenodd;fill:#BF8669;}
	.st7{fill-rule:evenodd;clip-rule:evenodd;fill:#8F6447;}
	.st8{fill-rule:evenodd;clip-rule:evenodd;fill:#664733;}
	.st9{fill-rule:evenodd;clip-rule:evenodd;fill:#201712;}
	.st10{fill-rule:evenodd;clip-rule:evenodd;fill:#30281F;}
	.st11{fill-rule:evenodd;clip-rule:evenodd;fill:#E1A484;}
	.st12{fill-rule:evenodd;clip-rule:evenodd;fill:#EDBCA0;}
	.st13{fill-rule:evenodd;clip-rule:evenodd;fill:#F0BAA4;}
	.st14{fill-rule:evenodd;clip-rule:evenodd;fill:#74513E;}
	.st15{fill-rule:evenodd;clip-rule:evenodd;fill:#453227;}
	.st16{fill-rule:evenodd;clip-rule:evenodd;fill:#45231A;}
	.st17{fill-rule:evenodd;clip-rule:evenodd;fill:#704A35;}
	.st18{fill-rule:evenodd;clip-rule:evenodd;fill:#220E0B;}
	.st19{fill-rule:evenodd;clip-rule:evenodd;fill:#160B0B;}
	.st20{fill-rule:evenodd;clip-rule:evenodd;fill:#C3BBB0;}
	.st21{fill-rule:evenodd;clip-rule:evenodd;fill:#1A1D17;}
	.st22{fill-rule:evenodd;clip-rule:evenodd;fill:#403118;}
	.st23{fill-rule:evenodd;clip-rule:evenodd;fill:#CABDB1;}
	.st24{fill-rule:evenodd;clip-rule:evenodd;fill:#311F15;}
	.st25{fill-rule:evenodd;clip-rule:evenodd;fill:#A2675C;}
	.st26{fill-rule:evenodd;clip-rule:evenodd;fill:#7D4338;}
	.st27{fill-rule:evenodd;clip-rule:evenodd;fill:#241313;}
	.st28{fill-rule:evenodd;clip-rule:evenodd;fill:#AC9594;}
	.st29{fill-rule:evenodd;clip-rule:evenodd;fill:#E3CFC1;}
	.st30{fill-rule:evenodd;clip-rule:evenodd;fill:#C4846B;}
	.st31{fill-rule:evenodd;clip-rule:evenodd;fill:#D89881;}
	.st32{fill-rule:evenodd;clip-rule:evenodd;fill:#AF7B6A;}
	.st33{fill-rule:evenodd;clip-rule:evenodd;fill:#B17B68;}
	.st34{fill-rule:evenodd;clip-rule:evenodd;fill:#4F3223;}
	.st35{fill-rule:evenodd;clip-rule:evenodd;fill:#2A1B14;}
	.st36{fill-rule:evenodd;clip-rule:evenodd;fill:#AA7356;}
	.st37{fill-rule:evenodd;clip-rule:evenodd;fill:#3C332C;}
	.st38{fill-rule:evenodd;clip-rule:evenodd;fill:#5E4C38;}
	.st39{fill-rule:evenodd;clip-rule:evenodd;fill:#70432E;}
	.st40{opacity:0.4706;clip-path:url(#SVGID_3_);}
	.st41{fill-rule:evenodd;clip-rule:evenodd;fill:#80533A;}
	.st42{fill-rule:evenodd;clip-rule:evenodd;fill:#D27B7B;}
	.st43{fill-rule:evenodd;clip-rule:evenodd;fill:#E29897;}
	.st44{fill-rule:evenodd;clip-rule:evenodd;fill:#CDA484;}
	.st45{fill-rule:evenodd;clip-rule:evenodd;fill:#A16953;}
	.st46{fill-rule:evenodd;clip-rule:evenodd;fill:#71483C;}
	.st47{fill-rule:evenodd;clip-rule:evenodd;fill:#6D4E3B;}
	.st48{fill-rule:evenodd;clip-rule:evenodd;fill:#583F2D;}
	.st49{fill-rule:evenodd;clip-rule:evenodd;fill:#916347;}
</style>
<g>
	<defs>
		<circle id="SVGID_1_" cx="75" cy="75" r="75"/>
	</defs>
	<linearGradient id="SVGID_2_" gradientUnits="userSpaceOnUse" x1="75" y1="150" x2="75" y2="0">
		<stop  offset="0" style="stop-color:#212121"/>
		<stop  offset="1" style="stop-color:#EF4438"/>
	</linearGradient>
	<use xlink:href="#SVGID_1_"  style="overflow:visible;fill:url(#SVGID_2_);"/>
	<clipPath id="SVGID_3_">
		<use xlink:href="#SVGID_1_"  style="overflow:visible;"/>
	</clipPath>
	<g id="Shape_577_15_" class="st0">
		<g>
			<path class="st1" d="M73.1,122.5c-6.4,0.7-12.6-13.4-12.6-13.4L56,131l-3.6,42.3l22.3,1.5l16.7-41
				C91.3,133.8,79.6,121.8,73.1,122.5z"/>
		</g>
	</g>
	<g id="Shape_580_15_" class="st0">
		<g>
			<path class="st2" d="M75.1,139.4c-0.2-2.3,5.9-8.4,5.9-8.4s-4.6-7.8-5.4-7.8s-6.1-0.2-6.1-0.2l-4.8,5.4c0,0,1.1,5.2,2.5,7.3
				c-0.5,2.1,1,4-6.1,12.2c-7.1,8.3-6.9,24.8-6.9,24.8l19.8,1.8c0,0,5.9-10.7,4.8-13.5C77.6,158.2,75.3,141.7,75.1,139.4z"/>
		</g>
	</g>
	<g id="Shape_575_15_" class="st0">
		<g>
			<path class="st3" d="M101.4,87.9c0,0-8.3,19.2-25.1,32.5c-2.7,1.9-2.1,1.7-1.5,3.1s11.7,15.9,11.7,15.9s8.8-17.1,12.6-24.8
				s7.9-18.5,7.9-18.5S102.4,87.8,101.4,87.9z"/>
		</g>
	</g>
	<g id="Shape_576_15_" class="st0">
		<g>
			<path class="st4" d="M119.7,103.9c-3.7-1.3-6.2-5.1-9.2-8.9s-6.4-3.3-6.4-3.3c-6.9,22-32.4,81.7-32.4,81.7h77l3.6-59
				C152.2,114.4,123.4,105.2,119.7,103.9z"/>
		</g>
	</g>
	<g id="Shape_572_15_" class="st0">
		<g>
			<path class="st5" d="M45.4,59.8c0,0-3.3,3.6-1.8,6.8c1.5,3.1,3.1,6,3.3,7.8s-0.2,6.7,1.7,7.9c1.9,1.2,2.2,1.8,2.8,1.3
				S50.3,58.7,45.4,59.8z"/>
		</g>
	</g>
	<g id="Shape_578_15_" class="st0">
		<g>
			<path class="st3" d="M59.4,103.2c-0.5,0.8-0.8,12.9-1.2,15.9c-0.3,3-0.7,13.4-0.2,16.7c0.5,3.3-0.2,5,2.3,4.5
				c1.3-8.8,10.2-18.3,10.2-18.3C62.8,114.2,61.6,109.3,59.4,103.2z"/>
		</g>
	</g>
	<g id="Shape_573_15_" class="st0">
		<g>
			<path class="st6" d="M46,61.4c0,0-2.5,2.6-1.5,4.6c1,2,2.1,4.1,2.1,4.8s-0.2-3.7-0.3-4.5c-0.1-0.7,0-1.4,0.5-2.3
				C47.4,63.2,46,61.4,46,61.4z"/>
		</g>
	</g>
	<g id="Shape_523_15_" class="st0">
		<g>
			<path class="st7" d="M101.7,87.4c-0.3-2-1-9.2-0.8-10.4s-2-13.2-1.5-17.7c0.5-4.5-0.2-9.7-1-12.4s-1.7-17.5-13.9-20.8
				c-12.2-3.3-37.7,1.6-37.8,11.7c0,0-2.3,12.6-1.2,17.8c1.2,5.3,2,8.6,1.8,12.7c-0.2,4.1,1.7,10.6,3,15.5s5.1,13.5,9.6,16.2
				c0.6,4.5,3.3,13.7,7.3,18c4,4.3,7.9,4.3,10.2,2.1c2.3-2.1,15.4-14.5,18.5-18.3S102,89.3,101.7,87.4z"/>
		</g>
	</g>
	<g id="Shape_527_15_" class="st0">
		<g>
			<path class="st8" d="M99.2,50c-1-3.6-4.3-23.4-11.1-25.1c-6.8-1.7-36.2,1.2-39.5,9.2l-0.2,1c0,0-2.5,4.6,3.1,1.7
				c5.6-3,10.2-7.3,17.2-6.6c6.9,0.7,10.6,0.8,13.7,1.5c3.1,0.7,4,1.8,4.8,5.4c0.8,3.6,0.8,6.3,2.1,8.9s1.8,4.8,1.8,6.6
				s1.2,1.7,2.6,4c1.5,2.3,3.1,6.9,4.5,3C99.7,55.7,100.2,53.7,99.2,50z"/>
		</g>
	</g>
	<g id="Shape_526_15_" class="st0">
		<g>
			<path class="st9" d="M92.9,23.8c-0.5-2.2-1.4-2-4.2-4.7c-2.8-2.6-5-2.5-10.4-4.5s-9.9-1.2-15.2-1.2s-8.4,3.8-12.2,6.1
				c-3.8,2.3-5.3,6.3-7.3,9.4c-2,3.1-3.8,7.1-3.6,9.9c0.2,2.8-1.5,7.3-0.7,10.6c0.8,3.3,3.6,3.6,4.5,8.1c0.8,4.5,4,7.8,4,7.8
				s-0.5-3.5-0.8-6.9s-0.2-5.1-0.7-11.6S48,39.8,50,36.3c2-3.5,9.1-5.3,17.3-7.4s18.8,0.3,18.8,0.3C89,29.3,93.5,26.8,92.9,23.8z"/>
		</g>
	</g>
	<g id="Shape_525_15_" class="st0">
		<g>
			<path class="st10" d="M102.9,37.3c0.3-2.5-0.3-7.3-3-9.2c-2.6-2-6.4-5.6-7.8-4.5c-1.3,1.2-5.2,4.2-5.4,8.4c0,0,3.3,9.9,3.8,12.6
				s0.5,2.3,2,4.6c1.5,2.3,2.1,7.1,3.6,9.1c1.5,2,2.3,1.2,3-1.5s2.5-6.9,3.5-8.1C103.5,47.6,102.5,39.8,102.9,37.3z"/>
		</g>
	</g>
	<g id="Shape_528_15_" class="st0">
		<g>
			<path class="st6" d="M80.4,45.4c-4.6-1.7-2.8-4.1-3.1-7.8c-0.3-3.6,5.1-2,1.8-4.1C75.8,31.4,62.4,32,62.4,32
				c-2.1,0.4-8.9,4.8-11.1,6.6c-2.1,1.8-2.3,2.8-3.5,4.6c-1.2,1.8-0.2,3-0.2,6.1s0.3,15.9,0.5,17.2c0.2,1.3,0,5.3,0.3,6.9
				c0.3,1.7,1,5.9,1.7,8.8c0.7,2.8,1.8,6.3,5,9.9c3.1,3.6,3.6,5.1,8.3,8.3c4.6,3.1,6.3,2.6,10.2,1.3c4-1.3,6.1-6.3,6.4-8.3
				c0.3-2-2.8-0.2-6.1-0.2c-3.3,0-7.3-1.2-3.3-2.1c4-1,12.6-11.2,12.6-11.2l-4.8-0.8c0,0-1,0-2.6-0.7s-3.3-0.2-4.8,0.5
				c-1.5,0.7-2.1-0.7-2.6-1.8s-3.6-0.3-3.6-0.3s-1.2-1.2-0.2-1.7c1-0.5,2,0.5,3.6,0.3c1.7-0.2,1.9-0.7,2.5-2.1
				c0.6-1.7-0.7-2.6-0.7-5c0-2.3,0-6.4-0.2-8.1c-0.2-1.7-1.3-2.1-0.8-3.5c0.5-1.3,2.8-0.8,3.8-2.5c1-1.7,5.6-2.3,8.8-4
				s5.6,0.7,5.6,0S85,47.1,80.4,45.4z"/>
		</g>
	</g>
	<g id="Shape_530_15_" class="st0">
		<g>
			<path class="st11" d="M74.5,49.7c-0.4-0.8-2.6-3-3-4.6s1.8-3.7,1.2-6.9s-9.4-4.6-9.4-4.6c-7.7-0.1-10.7,5.9-12.1,7.1
				c-1.3,1.2-3.3,2.9-3.1,5.1s-0.7,8.1-0.3,10.4c0.3,2.3,1,2.5,1,1.2c0-1.3,2.2-1.7,3.6-2c1.4-0.3,5.6,0.1,6.8,0s1.9,0,4-0.5
				c2.1-0.5,2.6,1.2,3.6,1.5s3.6-3.1,5.8-4.3C74.6,50.8,74.9,50.5,74.5,49.7z"/>
		</g>
	</g>
	<g id="Shape_529_15_" class="st0">
		<g>
			<path class="st12" d="M60.4,47.2c-1-2.8-0.3-3.1,0.5-6.1c0.8-3,0-4.1-3.8-2c-3.8,2.1-2,5.3-2,5.3s1.7,1.5,0.5,3.3s-4,4.3-1.2,6.1
				c2.8,1.8,5.6,1,7.4-1C63.7,50.9,61.4,50,60.4,47.2z"/>
		</g>
	</g>
	<g id="Shape_531_15_" class="st0">
		<g>
			<path class="st5" d="M65,74.6c0.6,0,1-0.1,1.3,0c0.3,0.1,1.1,0.2,2.5-0.2c1.8-0.5,1.6-3.2,0.8-4c-0.9-0.8-1-1.2-0.8-2.1
				c0.2-1,0.3-5,0.3-6.4s-1-2.8-1-2.8c-1.9-1.9-2.6,0.8-3,1.7c-0.3,0.8-0.2,0.8-0.8,1.5c-0.7,0.7-1.7,0.7-1.2,1
				c0.5,0.3,0.4,0.7-0.8,1.5c-1.2,0.8-3.6,1.6-6.1,2c-2.6,0.4-1-0.7,0-0.8c1-0.2,1.9-1.1,0.5-1.7c-1.4-0.6-3.8-0.4-5.4,0
				c-1.7,0.4,0.1-0.6-0.7-1.2c-0.7-0.6-0.1-0.7,0-1s-0.7-0.2-1.2-1.3c-0.4-1.2-1.3,1.7-1.2,3.1c0.2,1.5,0,1.2,0,2.6
				c0,1.4,0.2,4.7,0.5,6.3c0.3,1.6,1.1,4.1,1.8,5c0.7,0.8,1.5,2.5,1.8,3.8c0.3,1.3,1.2,4.1,2.3,6.1s1.8,2.6,3,1.8
				c1.2-0.7,0.2-2.3-0.8-3.5c-1.1-1.2-1.1-1.8-1.7-3.3s-0.7-3.2-0.7-4.5c0-1.2,1.3-1.8,1.7-2.8c0.3-1,3.1-2.9,4.3-4
				c1.2-1.1,2.6-1.6,2.1,0.2c-0.2,0.6-0.5,1.9-0.3,2.3c0.8,2.7-0.7,1-1.3,2c-0.7,1.2-1.7,2.9-2.5,5.1c-0.8,2.2,1.1,1.3,1.8,1.2
				c0.7-0.2,6.5-0.8,7.4-1.2c0.9-0.3,1.4-0.6,1-0.8C68.4,80,68,79.5,68,78.6c0-0.9-1.8-0.7-3.3-1.5c-1.5-0.7-1.2-0.9-1.2-1.7
				C63.6,75.1,64.3,74.7,65,74.6z"/>
		</g>
	</g>
	<g id="Shape_532_15_" class="st0">
		<g>
			<path class="st13" d="M63.6,65.1c-0.6,0.6-2.3,1.8-2.3,1.8c-1.3,0.8,2-0.4,2.6-1.2C64.5,65,64.1,64.5,63.6,65.1z"/>
		</g>
	</g>
	<g id="Shape_533_15_" class="st0">
		<g>
			<path class="st13" d="M59.3,70.2c-1.7,0.2-4.1-0.2-4.1-0.2c-0.9,0-0.7-0.3-2.6,1.2c-2,1.5-1.2,3.9,0.8,4.3c2,0.4,3.6-2.8,4.5-3.5
				C58.6,71.3,61,70,59.3,70.2z"/>
		</g>
	</g>
	<g id="Shape_534_15_" class="st0">
		<g>
			<path class="st13" d="M66.5,69.7c0,0-2.3,2.3-1.5,3.4c0.8,1.1,2.3,2.1,3.1,0.6S68.4,68.8,66.5,69.7z"/>
		</g>
	</g>
	<g id="Shape_581_15_" class="st0">
		<g>
			<path class="st13" d="M67.2,60.1c-0.9,0.3-1.2,6.4-0.5,6.4s1.2-3.8,1.3-5.3S67.2,60.1,67.2,60.1z"/>
		</g>
	</g>
	<g id="Shape_535_15_" class="st0">
		<g>
			<path class="st14" d="M63.2,58.1c-0.3-0.2-2.5-1.5-2.5-1.5c-0.5-0.9-6.2-0.8-7.9-0.8s-3.5,1.5-3.8,2.8c-0.3,1.3-0.1,1.3,1,0.8
				c1.1-0.5,4.3-0.6,5.4-0.7s3.5,0.4,4.8,0.3C61.5,59.1,63.5,58.3,63.2,58.1z"/>
		</g>
	</g>
	<g id="Shape_536_15_" class="st0">
		<g>
			<path class="st15" d="M60.7,57c-0.6-0.1-1.7-0.5-3-0.5s-3.5,1.2-3.5,1.2c0.7,0.9,4.9,0.9,5.6,0.5S61.3,57,60.7,57z"/>
		</g>
	</g>
	<g id="Shape_538_15_" class="st0">
		<g>
			<path class="st16" d="M66.5,76.1c-1.1-0.4-2.1,0.2-2.1,0.2c-0.3,0,0.2,0.3,0.8,0.3c0.9,0,1.4,0.2,1.8,0.2
				C67.8,76.8,67.6,76.5,66.5,76.1z"/>
		</g>
	</g>
	<g id="Shape_551_15_" class="st0">
		<g>
			<path class="st17" d="M89.6,57.6c-0.7-0.3-3.6-0.7-4.1-1.3c-0.5-0.7-0.9-1.1-0.3-1.7S85,53.2,84.9,53c-0.2-0.2-8.9,0.3-8.9,0.3
				s-3.2,1.7-3.6,2c-0.4,0.3-0.4,1.4-1.2,1.8c-0.7,0.4-1.5,0.2-1,1.5c0.6,1.3,1,4.5,0.8,5.8c-0.2,1.3-0.3,2.4,0,3.1
				c0.3,0.8,0.7,2.1,0.8,3c0.2,0.8,0.3,1.4-0.2,2.3c-0.5,0.9-0.9,2.4-1.5,2.8c-0.6,0.4-1.3-0.1-1.2,0.8c0.2,0.9,0.3,2,1.2,2
				c0.8,0,2,0.2,3,0c1-0.2,2.5,0.1,3.3,0.3c0.8,0.2,1.9-0.4,2,0.3c0.1,0.7,2,1,3,0.8c1-0.2,3.6,0.3,4,0c0.3-0.3-0.2-1.9-0.8-2.3
				s-1.5-0.2-2.6-1.3c-1.1-1.2-1.8-3.7-1.7-4.6c0.2-0.9-2.5-1.7-3.1-2.2s-1.7,0.3-1.1,0.9c1.7,1.7-0.3,3-1.2,2.5
				c-0.9-0.6-0.7-2.6-0.8-3.3s-0.3-2.9,0.2-3.8c0.4-0.9-0.1-1.5-0.5-2.5c-0.4-0.9-0.4-1,0.5-0.8c0.9,0.2,1.8,0.2,1.2-0.7
				c-0.7-0.8,1.1-1.9,2-1.8c0.9,0.1,6.1-0.5,6.6,0s1.3,1.4,1,1.8c-0.3,0.4-2,0.6-2.5,1s0.4,0.4,1.7,0.2c1.2-0.3,2.5-0.9,3-1.2
				c0.5-0.3,0.4-0.9,1.3-1.5c0.9-0.6,1.8-0.8,1.3-1.2C89.1,58.7,90.4,58,89.6,57.6z"/>
		</g>
	</g>
	<g id="Shape_539_15_" class="st0">
		<g>
			<path class="st18" d="M77.9,73.6c-0.2,0.2-0.7,0.6-1.3,0.7c-0.6,0-1.3-0.1-2.6,0.2c-1.4,0.3-2.5,2.1-2.5,2.1
				c-0.9,0.8,1.9-0.5,2.8-1.2c0.9-0.6,2.1-0.7,2.6-0.8S78.1,73.4,77.9,73.6z"/>
		</g>
	</g>
	<g id="Shape_542_15_" class="st0">
		<g>
			<path class="st19" d="M83.5,80.8c-1,0.1-2.5,0-3.1,0.2c-0.6,0.2-2,0.3-2.6,0.5c-0.7,0.2-5.6,1-6.3,1.2C70.8,82.7,66,83,65,83.4
				c-1,0.4-0.7,0.5-0.7,0.5s-2.4,0.1-3,0.2s1.6,1.3,2.5,1.7c0.9,0.3,5.1,1.7,7.4,1.5c2.3-0.2,4.8-1.7,5.8-2c0.9-0.3,3.2-0.9,4.3-1.5
				c1-0.6,1.9-1.9,2.3-2.3C84.1,81,84.6,80.6,83.5,80.8z"/>
		</g>
	</g>
	<g id="Shape_552_15_" class="st0">
		<g>
			<path class="st20" d="M84,57.6c-0.9-0.2-5.2-0.7-6.4,1.8c0,0,1.5,0.6,3,0.5c1.4-0.1,3.7-0.6,4.3-1.2C85.5,58.3,84.9,57.9,84,57.6
				z"/>
		</g>
	</g>
	<g id="Shape_552_copy_15_" class="st0">
		<g>
			<path class="st20" d="M60.4,60.6c-0.9-0.2-5.2-0.7-6.4,1.8c0,0,0.4,0.7,3,0.5c1.4-0.1,3.7-0.6,4.3-1.2
				C61.9,61.2,61.3,60.9,60.4,60.6z"/>
		</g>
	</g>
	<g id="Ellipse_11_copy_4_63_" class="st0">
		<g>
			<path class="st21" d="M60.2,61.3c0-0.3-0.1-0.5-0.1-0.7c-0.8-0.2-2.6-0.3-4.1,0.2c0,0.2-0.1,0.3-0.1,0.5c0,0.7,0.3,1.3,0.8,1.7
				c0.1,0,0.1,0,0.2,0c0.9-0.1,2.1-0.3,3-0.6C60.1,62,60.2,61.7,60.2,61.3z"/>
		</g>
	</g>
	<g id="Ellipse_11_copy_4_61_" class="st0">
		<g>
			<circle class="st22" cx="57.9" cy="61.3" r="1.7"/>
		</g>
	</g>
	<g id="Ellipse_11_copy_4_59_" class="st0">
		<g>
			<circle class="st21" cx="58.1" cy="61.3" r="1"/>
		</g>
	</g>
	<g id="Ellipse_11_copy_4_57_" class="st0">
		<g>
			<circle class="st23" cx="56.7" cy="61.2" r="0.3"/>
		</g>
	</g>
	<g id="Ellipse_11_15_" class="st0">
		<g>
			<path class="st21" d="M83.9,58.3c0-0.3-0.1-0.5-0.1-0.7c-0.8-0.2-2.6-0.3-4.1,0.2c0,0.2-0.1,0.3-0.1,0.5c0,0.7,0.3,1.3,0.8,1.7
				c0.1,0,0.1,0,0.2,0c0.9-0.1,2.1-0.3,3-0.6C83.7,59.1,83.9,58.7,83.9,58.3z"/>
		</g>
	</g>
	<g id="Ellipse_11_copy_2_15_" class="st0">
		<g>
			<circle class="st22" cx="81.6" cy="58.3" r="1.7"/>
		</g>
	</g>
	<g id="Ellipse_11_copy_15_" class="st0">
		<g>
			<circle class="st21" cx="81.7" cy="58.3" r="1"/>
		</g>
	</g>
	<g id="Ellipse_11_copy_3_15_" class="st0">
		<g>
			<circle class="st23" cx="80.3" cy="58.2" r="0.3"/>
		</g>
	</g>
	<g id="Shape_537_15_" class="st0">
		<g>
			<path class="st24" d="M62.6,59.9c-0.5-0.3-2.3-0.7-3.8-0.5c-1.5,0.2-3.1,0.9-5.3,1.8c-2.2,0.9-1.3,2.1-1.3,2.1
				c-0.6,0.2,1.9-0.7,2-0.8c0.1-0.2,0-0.8,1.2-1.5s3.1-0.4,4.1-0.7c1-0.2,1.5,1.2,2.1,1.3c0.7,0.1,0.3-0.4-0.5-1
				c-0.8-0.6-0.9-0.7,0-0.7C62,60.2,63.1,60.3,62.6,59.9z"/>
		</g>
	</g>
	<g id="Shape_543_15_" class="st0">
		<g>
			<path class="st25" d="M84.4,80.1c-0.5,0.2-1.9-0.4-3.5-0.2c-1.6,0.3-3.8-0.2-4.8-0.2c-1,0-2.4,0.4-4.1,1
				c-1.7,0.6-3.2,0.5-4.3,0.3c-1.1-0.2-3.2,0.8-4.1,1.2c-0.9,0.4-2.6,1.3-2.6,1.3c-1.6,0.1,1.2,2.1,1.7,2.5c0.4,0.3,1.2,1.2,1.8,1.8
				c0.6,0.6,2.3,1.8,3,2.1s2.7,0.8,3.3,0.7c0.6-0.2,4-0.1,4.6-0.3c0.6-0.2,4.1-2.9,4.5-3.5c0.4-0.6,1.7-1.8,2.1-2.6
				c0.4-0.9,2.2-2.5,2.6-3S84.9,79.9,84.4,80.1z"/>
		</g>
	</g>
	<g id="Shape_565_15_" class="st0">
		<g>
			<path class="st26" d="M82.9,80.4c-0.7-0.1-3.5-0.1-4.6,0s-2.8,0.2-4.1,0.5c-1.4,0.3-3,1-3.8,1.3s-5.6,0.8-6.6,1
				c-1,0.2-2.5,0.7-2.5,0.7c-0.9,1.6,3,1.8,3,1.8s1.1-1,1.8-1s8.3-1,8.6-1c0.3,0,8.6-1.9,9.1-2.5C84.2,80.6,83.6,80.5,82.9,80.4z"/>
		</g>
	</g>
	<g id="Shape_562_15_" class="st0">
		<g>
			<path class="st27" d="M82.4,80.8c-0.9,0-2.3,0.5-2.3,0.5s0.1,0.1,0.5,0.4c0.5,0.4,0.7,0.2,0.7,0.2c0.3-0.3,0.2,0.2,0,1
				c-0.2,0.8,0.5,0.2,1.2-0.5c1-1,1.1-1.4,1.1-1.4S83.3,80.8,82.4,80.8z"/>
		</g>
	</g>
	<g id="Shape_561_15_" class="st0">
		<g>
			<path class="st27" d="M63.9,83.7c-0.9,0.3-2,0.3-2,0.3c-1.3-0.3,0.2,0.9,1.1,1.2c0.9,0.2,1.6,1,1.5,0.3S64.8,83.4,63.9,83.7z"/>
		</g>
	</g>
	<g id="Shape_541_15_" class="st0">
		<g>
			<path class="st28" d="M75,84.6c-0.5,0.2-2.7,0.3-3.3,0.4c-0.6,0.2-6.6-0.1-4.9,1.1c0,0,1.4,0.6,2.3,0.7c0.9,0.1,2-0.3,3-0.2
				c0.9,0.1,2.3-0.1,3-0.6c0.8-0.5,2.4-1.4,2.4-1.4S75.5,84.4,75,84.6z"/>
		</g>
	</g>
	<g id="Shape_540_15_" class="st0">
		<g>
			<path class="st28" d="M81.4,81.7c-0.4,0.5-0.3,0.2-0.7,0c-0.3-0.2-1.1,0.1-1.2,0.3c-0.1,0.3-0.6-1-1.3-0.5
				c-0.7,0.5-0.5,0.7-0.8,0.7s-1.4-0.8-2.5,0.5c-0.5-0.2-2.3-0.9-3,0.7c-0.8-0.3-0.9-0.7-1.7-0.5c-0.7,0.2-1.3,0.7-1.3,0.7l-0.7-0.2
				c0,0-1.4-0.2-1.5,0.3c-0.5-0.3-1.5-0.3-1.7,0c-0.5-0.1-0.8,0.2-0.8,0.2s-0.1,1.7,0.2,2c0.3,0.3,0.7-0.2,0.8,0
				c0.2,0.2,0.7,0.9,1.3,0.2c0.6-0.7-0.1-0.1,0.8-0.2c0.9-0.1,1.3-0.2,1.3-0.2s0.2,0.2,1.3,0.2s1.8-0.3,1.8-0.3s2,0.4,2.8,0
				c0.8-0.4,0.3-0.7,0.3-0.7s0.7,0.2,1.7,0c1-0.2,0.8-0.7,0.8-0.7s1.4,1,2,0c0.4-0.3,1.3-0.3,1.3-0.7s0.9-0.2,1-0.7
				C81.9,82.4,81.8,81.2,81.4,81.7z"/>
		</g>
	</g>
	<g id="Shape_540_copy_15_" class="st0">
		<g>
			<path class="st29" d="M65.4,85.9c0.2,0.3,0.7,0.8,1.3,0.1c0.6-0.7-0.1-0.1,0.8-0.2c0.9-0.1,1.3-0.2,1.3-0.2s0.2,0.2,1.3,0.2
				s1.8-0.3,1.8-0.3s2,0.4,2.8,0c0.8-0.4,0.3-0.7,0.3-0.7s0.7,0.2,1.7,0c1-0.2,0.8-0.7,0.8-0.7s0.7,0.9,1.7,0.2c0,0,0,0,0,0
				c0.1-0.8,0.3-1.9-0.6-2.6c-0.1-0.1-0.3-0.2-0.6-0.2c-0.6,0.4-0.4,0.6-0.7,0.6c-0.3,0-1.4-0.8-2.5,0.5c-0.5-0.2-2.3-0.9-3,0.7
				c-0.8-0.3-0.9-0.7-1.7-0.5c-0.7,0.2-1.3,0.7-1.3,0.7l-0.7-0.2c0,0-0.1,0-0.3,0c-0.5,0.1-0.9,0.3-1.1,0.4
				C65.5,84.2,65.4,85.3,65.4,85.9z"/>
		</g>
	</g>
	<g id="Shape_544_15_" class="st0">
		<g>
			<path class="st30" d="M91.1,61.6c-0.7-1.2-3.5-1.1-3.8-0.3C87,62,86,62.4,84.2,62.9c-1.8,0.5-5.8,0-5.8,0
				c-3.3,0.2-2.6,3.7-1.7,4.8s3.9,3.5,4.8,3.8c0.9,0.3,2.5,2.1,3.8,3c1.3,0.8,3,0.5,2.3-0.3c-0.7-0.8-0.2-3,0-4.6
				c0.2-1.7,2.2-1.9,3.1-3.1C91.7,65.1,91.8,62.8,91.1,61.6z"/>
		</g>
	</g>
	<g id="Shape_545_15_" class="st0">
		<g>
			<path class="st31" d="M85.8,64.1c-1.5,1.5-5.1,0.8-5.1,0.8c-3.6-0.3-2,3,0,4.5c2,1.5,4,0,5-1.3c1-1.3,2.4-3.5,2.6-4.8
				C88.6,61.9,87.3,62.6,85.8,64.1z"/>
		</g>
	</g>
	<g id="Shape_546_15_" class="st0">
		<g>
			<path class="st32" d="M83.9,61.8c-0.5-0.3-2.3-0.6-2.8-1s-3-0.8-3.5-0.7c-0.4,0.2-1.6,0.4-1.3,1c0,0,0.8,1.4,3.5,1.3
				C82.4,62.4,84.4,62.1,83.9,61.8z"/>
		</g>
	</g>
	<g id="Shape_547_15_" class="st0">
		<g>
			<path class="st33" d="M77.8,57.3c-1.2,0.8-2.1,1.4-2.5,2.1C75,60,75,60.1,74.9,60.1c0,0,1.4-0.8,2.3-1.5c0.9-0.7,2.1-1.4,3.6-1.7
				c1.5-0.2,1.8-0.5,1.8-0.5S78.9,56.5,77.8,57.3z"/>
		</g>
	</g>
	<g id="Shape_548_15_" class="st0">
		<g>
			<path class="st24" d="M87.3,58.8c-0.6-0.2-1.8-0.9-2.8-1.3s-3.1-0.9-4.8-0.3c-1.7,0.6-2,1.2-2.6,1.7c-0.7,0.4-1.2,0.5-1.7,0.8
				c-0.5,0.3-0.9,0.9-0.8,1.2c0.1,0.2,0.7-0.2,1.5-0.5c0.8-0.3,1.6-0.9,2-0.8c0,0-0.6-0.1,0.2-0.7c0.7-0.6,0.7-0.9,2.1-1.2
				c1.5-0.2,2.6-0.2,3.5,0.2c0.8,0.4,1.6,0.6,1.8,0.8c0.2,0.3-0.3,0.5-0.3,0.5s0.7,0.3,1.7,0.2S87.9,59,87.3,58.8z"/>
		</g>
	</g>
	<g id="Shape_549_15_" class="st0">
		<g>
			<path class="st34" d="M88.3,53.3c-0.4-0.3-2.3-1.6-3.1-1.7s-1.4-0.4-3-0.2c-1.5,0.2-2.9,0.7-3.8,1c-0.9,0.3-2.4,0-2.8,0.8
				c-0.4,0.8-0.6,1.2-0.8,1.8c-0.3,0.6-0.1,0.5-1,1.2c-0.9,0.7-1.6,2.2-0.8,2.1c0.8-0.1,0.8,0.2,0.5,0.7c-0.3,0.4-0.8,1.1-0.3,1.8
				c0,0,1-1,1.8-1.7s1.8-2.1,2.8-2.3c1-0.2,1.3-0.8,0.7-0.7c-0.6,0.1-3.2,1.7-3.6,1.8c-0.4,0.1-0.6-0.8,0.3-1.3
				c0.9-0.5,3.3-1.6,4.1-1.8c0.8-0.2,3.2-0.8,4.1-0.7c0.9,0.2,2.5,0.4,3.5,0C87.8,53.9,88.8,53.7,88.3,53.3z"/>
		</g>
	</g>
	<g id="Shape_550_15_" class="st0">
		<g>
			<path class="st35" d="M80.6,53c-0.5-0.3-1.2,0.4-1.8,0.3c-0.6-0.1-1-0.6-1.3,0.2s-1.2,1.4-0.7,2c0,0,3.2-0.7,4.3-1.2
				c1-0.5,0.7-0.8,0.8-1.2C82,52.8,81.1,53.3,80.6,53z"/>
		</g>
	</g>
	<g id="Shape_553_15_" class="st0">
		<g>
			<path class="st36" d="M62.2,62.9c0.7-0.5,0.9-0.7,0.3-1c-0.6-0.3-1.8,0.4-3.3,1h-0.2c0,0-1.3,0.8-1,1.2c0.3,0.3,0.7,0.4,1.3,0.2
				s1.9-0.8,1.8-0.5c-0.1,0.3,0.3,0.2-0.2,0.7c-0.4,0.4-0.4,0.8,0.3,0.5s1.4-0.8,1.3-1C62.7,63.7,61.6,63.4,62.2,62.9z"/>
		</g>
	</g>
	<g id="Shape_554_15_" class="st0">
		<g>
			<path class="st37" d="M46.7,54.2c0,0,0,0,0-0.1C46.7,54.1,46.7,54.2,46.7,54.2z M47.2,39.5c0,0-3.4,2.8-5,5.4
				c1.6-0.7,2,0.1,1.8,1.5c-0.2,1.4,0.4,1.5,1.2,2.8c0.7,1.2,1.3,4.2,1.5,4.8C46.5,52.9,44.7,43.9,47.2,39.5z"/>
		</g>
	</g>
	<g id="Shape_555_15_" class="st0">
		<g>
			<path class="st37" d="M88.7,21.3c-0.7-0.1-2.5-1.9-3.6-3c-1.2-1.1-3.9-2.2-5.8-3.1c-1.9-0.9-7.3-4.1-14.9-1.8
				c-7.6,2.3-9.8,3.3-12.4,5.6c-2.6,2.3-6.4,5.3-7.6,7.6s-1.8,6.5-4,9.2c0,0,1.7-1.2,5.8-2.8s2.3,0.1,1.8,0.8s3.1-1.2,5.9-2.1
				c2.9-1,10.8-4.8,15.5-5.9s8.5-1.3,11.4-1.3C77,24,77.5,22.9,82,23C86.6,23,89.4,21.4,88.7,21.3z"/>
		</g>
	</g>
	<g id="Shape_556_15_" class="st0">
		<g>
			<path class="st38" d="M78.4,20.5c-1.2-0.4,1.7-0.5,3.5-0.7c1.8-0.2-1.9-1.1-4-2.3c-2.1-1.2-2.6-2.1-7.1-2.5s-9.5,3.7-12.6,4
				c3.3,0.8,5.5-0.7,7.1-1c1.6-0.2-1.2,1.2-2.3,1.8c-1.1,0.7-5.4,1.8-6.9,2c-1.5,0.2,4.9,0.3,6.9-0.3c2.1-0.7,0.2,2-1.7,2.8
				c0,0,9.4,0.5,14.2-0.3s7.9-1.6,8.8-2C81.5,21.8,79.7,20.9,78.4,20.5z"/>
		</g>
	</g>
	<g id="Shape_557_15_" class="st0">
		<g>
			<path class="st38" d="M94.8,25.6c-0.7-0.7-0.2-1.2-1.7-1.5c-1.4-0.2-1.3,0.2-2.6,0.2c0.1,1.2-0.1,0.8-0.5,1
				c-0.8,0.4-0.7,0.5-0.7,0.5s-0.5,0.7-0.3,1.2c0.2,0.4,0.3,0.3-0.8,0.3s-0.8,0.6-0.5,1.2c0.3,0.6-1,1.5-0.7,2.6c0,0,4.2,0.2,5,2.6
				c-0.1-2.1,0.2-1.6-0.2-2.1c-0.3-0.6-0.2-2.1,1.2-2c-0.8-1.2-0.5-1-0.5-1s1.3-0.4,2-0.3C95.1,28.3,95.4,26.3,94.8,25.6z"/>
		</g>
	</g>
	<g id="Shape_558_15_" class="st0">
		<g>
			<path class="st39" d="M106.7,62.3c0.2-1.2,1.4-5.4,0.8-6.9s-3.8-8.4-5.1-6.6c-1.3,1.8-2.8,5.9-3.3,7.6c-0.5,1.7-1.7,2.9-1,4.8
				s1.2,9.6,1.3,10.9c0,0-0.2,4.7,2.5,4.1c2.7-0.6,3.1-1.9,3.5-3.6c0.3-1.7,0.7-5.4,1.2-6.1C106.9,65.6,106.5,63.5,106.7,62.3z"/>
		</g>
	</g>
	<g id="Shape_559_15_" class="st40">
		<g>
			<path class="st7" d="M102.3,58.1c0-0.1,0-0.1,0-0.1S102.2,58.1,102.3,58.1z M106.3,61.8c-0.3,1.7-0.4,5.7-1.3,5.4
				c-0.9-0.2-2.6-0.9-1.7-1.8c0.9-0.9,1.7-1.1,1.5-2.6c-0.2-1.6-1.1-5.5-2-5c-0.3,0.2-0.5,0.3-0.5,0.3c-0.1,0.3-0.2,1,0.2,2
				c0.5,1.2,1.3,3.3,0.3,4.1c-1,0.8-1.7,1-2,1s-0.4,0.3,0.3,1.3c0.7,1,0.7,1.2,1.5,2.1c0.7,1-0.1,0.7-0.2,2.3
				c-0.1,1.7,0.9,4.2,2,2.5c1.1-1.7,0.9-3.6,1.3-4.5c0.4-0.8,0.9-2.1,0.8-3.1C106.6,64.9,106.7,60.1,106.3,61.8z"/>
		</g>
	</g>
	<g id="Shape_560_15_" class="st0">
		<g>
			<path class="st41" d="M106,53.7c-1-1.4-2.9-3.9-3-2.8c0,0,0.2,1.5,0.7,2.8c0.4,1.3,1,3.3,1.2,4.6c0.2,1.3,0.7,2.1,1.2,0.3
				C106.4,56.9,107,55.1,106,53.7z"/>
		</g>
	</g>
	<g id="Shape_564_15_" class="st0">
		<g>
			<path class="st42" d="M77.8,85.5L76.6,86c-1.3,1.1-4.5,1.7-5.3,1.5c-0.8-0.2-3.8,0.3-4.1,1.7c-0.3,1.3,2.9,1.8,4.3,1.7
				s4.6-1.3,5.4-2c0.9-0.7,0.4-1,0.8-1.7c0.4-0.7,0.9-0.9,1.5-1.8S77.8,85.5,77.8,85.5z"/>
		</g>
	</g>
	<g id="Shape_563_15_" class="st0">
		<g>
			<path class="st43" d="M69.5,87.4c-1,0.1-2-0.3-3.3-0.3s-3.8-1.3-3.8-1.3c-0.4-0.3,1,1.4,2.6,3c1.6,1.5,3.5,1.7,4.5,1.3
				c0.9-0.3,1.2-1,1.2-1.8S70.5,87.2,69.5,87.4z"/>
		</g>
	</g>
	<g id="Shape_566_15_" class="st0">
		<g>
			<path class="st44" d="M70.5,94.5c-2.1-0.1-2.6-1.2-3.6-2.5c-1.1-1.2,0.5-1.5-0.3-2c-0.8-0.5-3.8-3.7-5.1-5s-2.1,1-2.1,1
				s-0.1,2.2,0,4.1s1.2,5,3.1,7.3c2,2.3,4.6,4.6,7.3,4c2.6-0.7,2.6-2.8,3-4.6C73,95,72.6,94.5,70.5,94.5z"/>
		</g>
	</g>
	<g id="Shape_567_15_" class="st0">
		<g>
			<path class="st45" d="M59.1,74c-1.1,0.8-2.6,3.1-3.1,5s0.7,5.6,0.7,5.6c0.4,0.7,0.5-1.2,0.5-2.3c0-1.1,2.1-4.4,2.5-5.6
				c0.4-1.2,1.5-2.4,2-3.6C62.1,71.8,60.2,73.2,59.1,74z"/>
		</g>
	</g>
	<g id="Shape_568_15_" class="st0">
		<g>
			<path class="st46" d="M83.2,84.2c-0.2-0.5-2.3,1.3-2.3,1.3c-0.5,0.2-2.9,2.9-3.8,3.6c-0.9,0.8-1.8,1.5-4.5,1.8
				c-2.6,0.3-1.9,0.5-1,0.5c0.9,0,5.5,0.3,6.6,0.3s3.4-1.5,3.5-2c0.1-0.5,0.7-2.3,1.5-3.3C84,85.5,83.4,84.7,83.2,84.2z"/>
		</g>
	</g>
	<g id="Shape_569_15_" class="st0">
		<g>
			<path class="st47" d="M99.2,90c-0.1-1.7,0.6-4-0.7-7.4c-1.2-3.4-2.6-2.2-3.8-3.1c-1.2-0.9-1.9-7.8-4.1-9.4s-0.3,7.6-0.3,9.2
				s-1,6.1-2.3,8.4c-1.3,2.3-2.5,1.5-4.1,1.7c-1.7,0.2-2.6,6.4-3.6,8.4c-1,2-4,4.5-7.1,5.6s-5.4,0.3-5.4,0.3
				c-3.6,3.4,10.6,4.2,8.4,7.1c-3.5,4.5,5.1,0.2,7.6-1.5c2.5-1.7,2.3,1.7,4,0.5S99.5,97.2,99.6,95S99.3,91.6,99.2,90z"/>
		</g>
	</g>
	<g id="Shape_570_15_" class="st0">
		<g>
			<path class="st48" d="M94.1,86.7c-1.4-0.5-5.3,3.6-7.1,6.3c-1.8,2.6-1.2,2.2-6.3,7.4c-5.1,5.2-13.7,2.3-13.7,2.3
				c-0.6-0.4-7.3-3.9-5.6-1.3c3.2,5,12.5,7.1,17.3,5.3c3.1-1.2,7.9-4.6,10.6-7.3c2.6-2.6,3.5-4.4,4.8-7.4S95.5,87.2,94.1,86.7z"/>
		</g>
	</g>
	<g id="Shape_571_15_" class="st0">
		<g>
			<path class="st6" d="M73.6,121.7c-1-1.3-2.8-6.3-2.1-8.4c0.7-2.1,1.7-3.5-2.3-5.1c-4-1.7-8.3-5.8-8.3-5.8
				C62.2,122.3,74.6,123,73.6,121.7z"/>
		</g>
	</g>
	<g id="Shape_574_15_" class="st0">
		<g>
			<path class="st49" d="M98.9,61.4c-2.5-3.5-0.7,7.5,0.2,6.6c0.9-0.9,1.6-1.7,1.7-3C100.8,63.8,98.9,61.4,98.9,61.4z"/>
		</g>
	</g>
	<g id="Shape_579_15_" class="st0">
		<g>
			<path class="st4" d="M59.3,104.4c-14.4,10.6-39,15-47.2,22.8c-8.3,7.8-7.3,45.6-7.3,45.6s53.2,12.7,51.2-0.2
				C54,159.7,59.3,104.4,59.3,104.4z"/>
		</g>
	</g>
</g>
</svg>
