<?xml version="1.0" encoding="utf-8"?>
<!-- Generator: Adobe Illustrator 19.1.0, SVG Export Plug-In . SVG Version: 6.00 Build 0)  -->
<svg version="1.1" id="Layer_1" xmlns="http://www.w3.org/2000/svg" xmlns:xlink="http://www.w3.org/1999/xlink" x="0px" y="0px"
	 viewBox="0 0 70 70" style="enable-background:new 0 0 70 70;" xml:space="preserve">
<style type="text/css">
	.st0{clip-path:url(#SVGID_3_);}
	.st1{fill-rule:evenodd;clip-rule:evenodd;fill:#DAB099;}
	.st2{fill-rule:evenodd;clip-rule:evenodd;fill:#3B3738;}
	.st3{fill-rule:evenodd;clip-rule:evenodd;fill:#6A4C40;}
	.st4{fill-rule:evenodd;clip-rule:evenodd;fill:#C28166;}
	.st5{fill-rule:evenodd;clip-rule:evenodd;fill:#E6A585;}
	.st6{fill-rule:evenodd;clip-rule:evenodd;fill:#926954;}
	.st7{fill-rule:evenodd;clip-rule:evenodd;fill:#BB826E;}
	.st8{fill-rule:evenodd;clip-rule:evenodd;fill:#7A5143;}
	.st9{fill-rule:evenodd;clip-rule:evenodd;fill:#DDA08C;}
	.st10{fill-rule:evenodd;clip-rule:evenodd;fill:#141414;}
	.st11{fill-rule:evenodd;clip-rule:evenodd;fill:#C2896E;}
	.st12{fill-rule:evenodd;clip-rule:evenodd;fill:#FCC4A0;}
	.st13{fill-rule:evenodd;clip-rule:evenodd;fill:#704F3E;}
	.st14{fill-rule:evenodd;clip-rule:evenodd;fill:#875F4B;}
	.st15{fill-rule:evenodd;clip-rule:evenodd;fill:#EFC2A9;}
	.st16{fill-rule:evenodd;clip-rule:evenodd;fill:#ECC5AD;}
	.st17{fill-rule:evenodd;clip-rule:evenodd;fill:#755140;}
	.st18{fill-rule:evenodd;clip-rule:evenodd;fill:#BA836F;}
	.st19{fill-rule:evenodd;clip-rule:evenodd;fill:#B8836F;}
	.st20{fill-rule:evenodd;clip-rule:evenodd;fill:#E0A78B;}
	.st21{fill-rule:evenodd;clip-rule:evenodd;fill:#B78470;}
	.st22{fill-rule:evenodd;clip-rule:evenodd;fill:#432F25;}
	.st23{fill-rule:evenodd;clip-rule:evenodd;fill:#855F4C;}
	.st24{fill-rule:evenodd;clip-rule:evenodd;fill:#463526;}
	.st25{fill-rule:evenodd;clip-rule:evenodd;fill:#6A5445;}
	.st26{fill-rule:evenodd;clip-rule:evenodd;fill:#BEABA5;}
	.st27{fill-rule:evenodd;clip-rule:evenodd;fill:#D4C7C2;}
	.st28{fill-rule:evenodd;clip-rule:evenodd;fill:#2C2625;}
	.st29{fill-rule:evenodd;clip-rule:evenodd;fill:#A27059;}
	.st30{fill-rule:evenodd;clip-rule:evenodd;fill:#57504D;}
	.st31{fill-rule:evenodd;clip-rule:evenodd;fill:#171115;}
	.st32{fill-rule:evenodd;clip-rule:evenodd;fill:#EDE8E6;}
	.st33{fill-rule:evenodd;clip-rule:evenodd;fill:#40271A;}
	.st34{fill-rule:evenodd;clip-rule:evenodd;fill:#644738;}
	.st35{fill-rule:evenodd;clip-rule:evenodd;fill:#CE9072;}
	.st36{fill-rule:evenodd;clip-rule:evenodd;fill:#BBBBBB;}
	.st37{fill-rule:evenodd;clip-rule:evenodd;fill:#771822;}
	.st38{fill-rule:evenodd;clip-rule:evenodd;fill:#E9E8E6;}
	.st39{fill-rule:evenodd;clip-rule:evenodd;fill:#0E0E0F;}
</style>
<g>
	<defs>
		<circle id="SVGID_1_" cx="35" cy="35" r="35"/>
	</defs>
	<linearGradient id="SVGID_2_" gradientUnits="userSpaceOnUse" x1="35" y1="70" x2="35" y2="0">
		<stop  offset="0" style="stop-color:#212121"/>
		<stop  offset="1" style="stop-color:#EF4438"/>
	</linearGradient>
	<use xlink:href="#SVGID_1_"  style="overflow:visible;fill:url(#SVGID_2_);"/>
	<clipPath id="SVGID_3_">
		<use xlink:href="#SVGID_1_"  style="overflow:visible;"/>
	</clipPath>
	<g id="Shape_847_5_" class="st0">
		<g>
			<path class="st1" d="M49.5,27.8c0,0-0.3-0.6-0.3-0.6c-1,0.3-1.4,4.9-1.4,6c0,0.5,0,1.1-0.1,1.6l-0.1,0.3c0-0.5,1.3-1.3,1.5-2
				c0.2-1.2,0.6-2.3,0.7-3.5C49.7,28.9,49.6,28.4,49.5,27.8z"/>
		</g>
	</g>
	<g id="Shape_740_5_" class="st0">
		<g>
			<path class="st2" d="M65.8,66.7c-1-4.2-0.4-7.9-2.3-9.4c-2-1.5-5.9-3.7-10.8-5.7c-4.8-2-9.4-5.6-9.4-5.6S26.4,42.3,25.1,42
				c-1.4-0.2-1.6,0.7-3,2.1c-1.4,1.4-5.7,4.9-7.7,5.7c-2,0.7-4.5,2.8-10,4.6c-5.6,1.7-5.3,27.7-5.3,27.7h68
				C67.1,82.1,66.8,71,65.8,66.7z"/>
		</g>
	</g>
	<g id="Shape_510_5_" class="st0">
		<g>
			<path class="st3" d="M48.6,13.4c-0.2-1.5-6.4-3-6.8-3.4c-0.4-0.4-6.3-0.9-7-0.9c-0.7,0-3.3,0.9-4.5,1.6c-1.2,0.7-4.5,3.8-6,5.6
				c-1.4,1.9-1,6.1-1,6.8c0,0.7-0.6,1.3-1.6,1.6s-0.9,1.1-0.8,1.7c0.1,0.7-0.1,1.4,0.4,4.6c0.5,3.2,3.3,4.2,3.3,4.2s0.2,3,0,5.6
				c-0.2,2.6,2.1,4.5,3.2,5.6c1.1,1.2,6.1,6.3,8.2,7.4c2.2,1.1,4.8-1.7,6-2.9c1.2-1.2,1.2-4.5,1.5-5.3c0.3-0.8,0.3-2.5,1.6-3.7
				c1.2-1.2,2.3-4.6,2.4-5.6c0.1-1,0.3-3.8,0.4-5s0.5-2.1,0.5-3.7c0-1.6,0.1-8.2,0.1-8.2S48.8,14.9,48.6,13.4z"/>
		</g>
	</g>
	<g id="Shape_514_5_" class="st0">
		<g>
			<path class="st4" d="M42.1,14.8c0.2,0,0.5,0,0.8,0C42.7,14.8,42.4,14.8,42.1,14.8z M42.1,14.8C42.1,14.8,42.1,14.8,42.1,14.8
				c-0.6-0.1-1.2,0-1.8,0C40.7,15,41.4,14.9,42.1,14.8z M44.5,14.3c0,0-0.8,0.3-1.6,0.5c0.1,0,0.1,0,0.2,0
				C43.7,15,44.5,14.3,44.5,14.3z M42.8,36.4c-0.6-0.4-1.5,0.1-2.6-0.2c-1.1-0.2-0.8-0.9-0.2-1.4c0.6-0.4,0.6-0.6,1.4-1.5
				c0.8-0.8-0.2-0.5-0.9-0.5c-0.7,0-1.5,0-1.6-0.7c-0.1-0.7-1.4-7-1.5-8.2c-0.1-1.2-2.7-1.6-3.8-1.7c-1.1-0.1-1.2-0.6-0.8-1.3
				c0.4-0.7-0.3-1.7-0.4-2.3c-0.1-0.6,0.4-2.9,0.6-3.5c0,0,0-0.1,0.1-0.1c-1.3,0-2.6-0.2-2.7,0c-0.1,0.4-1.4,1.7-1.3,2.1
				c0.1,0.5-1.4,2.8-1.3,3.3c0,0.5-0.9,2.8-0.8,3.8c0.1,1,0.2,3,0.2,3.8c0.1,0.8,1.2,4.3,1.5,4.9c0.4,0.6-1.2,3.3-0.9,3.5
				s0.8,1.9,0.8,1.9s1.1-1.8,1.5-1.6c0.4,0.2,6.1,8.2,6.5,8.2c0.4,0.1,1.1,0.7,1.1,0.7l-0.3-0.8c0,0-0.2-0.9,0.1-1.1
				c0.3-0.2,0-0.5,0-0.5s-0.5-0.7-0.4-1.1c0.1-0.4,0.4-0.5,0.4-0.5s0.5-0.2,0.9-0.3c0.4-0.1,1,0,1.3-0.1c0.4-0.2,0.1-0.5,0.2-0.9
				c0.1-0.4,0.1-1.2,0.1-1.2s-1.1,0.1-1.4,0c-0.4-0.1-0.7-0.3-0.7-0.6s1.5-0.4,2.1-0.5c0.7-0.1,0.9,0,1.8-0.2
				c0.9-0.1,1.1,0.9,1.5,1.4s0.4,0.3,0.3-0.1s0.4-0.8,0.3-1.6C44,36.8,43.5,36.8,42.8,36.4z M40.3,14.8c0,0-0.1,0-0.1-0.1
				c-0.2-0.2-1.4-0.5-2.4-0.7c0.2,0.1,0.5,0.2,0.7,0.4C39.2,14.8,39.8,14.8,40.3,14.8z M35.7,13.9c-0.1-0.1,1,0,2.1,0.2
				c-0.9-0.5-1.5-0.8-1.5-0.8s-1.2,1.2-1.8,0.9c-0.6-0.2-1.2,0.2-1.5,0.8C34.6,15.1,36.2,14.9,35.7,13.9z"/>
		</g>
	</g>
	<g id="Shape_715_5_" class="st0">
		<g>
			<path class="st5" d="M48.6,27.2c0-0.4-0.3-1.2-0.3-1.6c-0.1-1.4-0.1-2.8-0.1-4.2c0-0.6-0.4-1.1-0.5-1.7c-0.1-0.5-0.2-1-0.3-1.5
				c-0.2-0.9-0.3-2.2-0.9-3c-1.7-1.9-4.3-0.7-6.4-1c-0.8-0.3-1.5-0.5-2.3-0.8c-0.8-0.1-1.6-0.1-2.4-0.2l0,0.1l-0.3,0.1
				c-4.3,0.7-3.2,3.1-2.7,6.3c0.1,0.5-0.3,1.7-0.1,2.1c0.5,1.3,3.5,1,4.6,2.5c0.7,0.9,1.2,2.5,1.3,3.6c0.1,0.7,0.2,1.4,0.3,2.1
				c0,0.5,0,1.1,0.1,1.6c0.3,0.9,0.9,0.9,1.5,1.5c0.1,0.1,0.2,0.3,0.2,0.4c0,0.7-1.1,1-1.1,1.8c0.2,0.4,0.4,1,0.8,1.2
				c0.8,0.4,3.1-0.5,3.1,0.9c-0.7,0.1-1.4,0.2-2,0.3c-0.9,0.2-1.7,0.5-2.6,0.5c-0.7,1,0,1.2,1,1.2c-0.1,0.2-0.2,0.4-0.2,0.6
				c0,0.6,0.4,0.8-0.1,1.2c-0.3,0-2.3,0.8-2.3,1c-0.4,0.4,0.5,1.3,0.8,1.5c1.6,0.8,0.6,1.8,3.1,1.2c1.2-0.3,3.3-1.7,3.5-3.1
				c0-0.4,0-0.8,0.1-1.3c-0.1-0.1-0.2-0.3-0.2-0.4c0-0.1,0-0.1,0-0.2c0.5-0.7,0.9,0,1.3,0.2c1.2,0,1.5-1.5,2-2.3
				c0.6-1.1,0.8-3.1,0.7-4.3C47.9,31.3,49,29.5,48.6,27.2z"/>
		</g>
	</g>
	<g id="Shape_511_5_" class="st0">
		<g>
			<path class="st6" d="M45.7,39.8c-0.6,0.4-1.1-0.7-1.6,0c-0.5,0.7,0.5,1.6-0.7,2.6s-1.8,2.1-3.1,2c-1.2-0.1-1.7-0.2-2.7-1.1
				c-1-0.9-1-1,0.1-1.3c1.1-0.3,2.3-0.9,2.5-1.5c0.2-0.7,1.1-1.5,0.3-1.6c-0.8-0.1,1.2-1.5,1.6-1.1c0.4,0.5,1.6,2.1,1.6,1.2
				s0.3-1.9-0.6-2.5c-0.9-0.6-2.8,0.7-3.3-0.4s0.6-1.3,0.9-1.9c0.3-0.6,1.3-1.3,0.2-1.4c-1.1,0-1.9-0.3-2.2-1.1
				c-0.3-0.8-0.6-3.3-0.7-4c-0.1-0.7-0.4-1.7-0.5-2.7c-0.1-1-0.7-1.3-1.6-1.8c-0.9-0.5-3.2-0.7-4.5-0.7c-1.3,0-1.5,0-1.1-1.4
				c0.4-1.4,0-3.3,0-4s0.5-1.9,1.2-2.6c0.7-0.7,2.7-1.2,2.7-1.2s-4.5-0.5-6.8,3.5c-1.1,1.8-0.4,4.2-0.7,5.3
				c-0.2,1.1-1.2,2.7-0.8,3.8c0.4,1.2,0.7,1.3,0.7,2.1c0,0.7,0.1,2.6,0.6,3.2s-0.2,0.4-0.3,1.6C27,34,27,37.1,27.4,38.2
				c0.4,1,2,3.8,3.1,4.6c1,0.8,1.1-0.3,0.7-1.1c-0.4-0.8-1.5-4.4-1.1-3.6c0.4,0.8,2.1,4.5,2.6,5s0.8,0.9,2,1.5
				c1.2,0.6,2,1.4,3.2,1.4c1.2,0,2.6-0.3,3.2-0.5c0.6-0.2,2.1-1.6,2.6-2c0.5-0.3,1.9-2.1,2.3-2.7c0.5-0.6,1.5-2.8,1.5-3.5
				C47.5,36.9,46.3,39.5,45.7,39.8z"/>
		</g>
	</g>
	<g id="Shape_512_5_" class="st0">
		<g>
			<path class="st7" d="M37,27.8c-0.4-0.7-1.4,0.3-1.1-0.5c0.4-0.8-1-1.1-1.7-1.5s0.9-0.4,0.5-0.9c-0.4-0.5-3.1-1.4-4-0.8
				c-0.9,0.6-0.7,0.9,0.1,1.1c0.8,0.1,0.6,1.6,0,1.8c-0.7,0.2-1.6,1-2,0.8c-0.3-0.2-1.2-1-1.3-0.4c0,0-0.1,1,0.7,2.1s2.2,4.1,2.2,5
				c0,0.9,0.7,3.1,1.9,2.2c1.2-0.8,2.4-1.9,2.6-2.8c0.2-0.9-0.3-3.4,0.9-4.2C37.2,29,37.5,28.6,37,27.8z"/>
		</g>
	</g>
	<g id="Shape_713_5_" class="st0">
		<g>
			<path class="st8" d="M39.3,33.6c-1.7-0.8-1.9-1-2.2-2.9c0,0.1-0.1,0.1-0.1,0.2c0.1-0.1,0-0.1,0-0.1c-0.1,0.2-0.2,0.4-0.3,0.6
				C36.6,32.1,36.9,33,36,33c-0.5-0.2,0.1-1-0.3-1.3c0,0-0.1,0-0.1,0c-0.5,0-0.1,2.5,0.2,2.9c0.2,0.2,0.4,0.6,0.6,0.6
				c0.6,0.1,0.9-0.5,1.4-0.6c0.2,0.1,0.4,0.1,0.6,0.2c0.6-0.2,1.1-0.4,1.7-0.7c0,0,0,0,0-0.1C39.8,33.9,39.6,33.7,39.3,33.6z"/>
		</g>
	</g>
	<g id="Shape_513_5_" class="st0">
		<g>
			<path class="st9" d="M34.2,27c-0.7,0-0.6,0.1-1.3,0.4s-2.2,0.3-2.2,0.3c-0.9,0,1.4,0.6,1.5,0.8c0.2,0.2-0.2,0.5-2.1,0.4
				c-1.9-0.1-0.3,1.3,1,3.6c1.3,2.3,3.1,1.6,3.2-0.4c0.1-2,0.5-2,0.2-2.4s-0.3-0.7,0.1-1.2c0.4-0.5,0.1-0.5,0.2-0.9
				C35.1,27.2,34.9,26.9,34.2,27z"/>
		</g>
	</g>
	<g id="Shape_515_5_" class="st0">
		<g>
			<path class="st10" d="M37.9,33.7c-0.4-0.2-0.6-0.3-1.2,0c-0.6,0.2-1-0.2-1-0.2c0.3,0.7,1.3,0.5,1.7,0.5s0.7,0.4,0.9,0.5
				C38.6,34.4,38.3,34,37.9,33.7z"/>
		</g>
	</g>
	<g id="Shape_738_5_" class="st0">
		<g>
			<path class="st11" d="M40.6,23.8c-0.4,0-0.6-0.2-0.8-0.2c0-0.4-0.4-0.7-0.4-1.2c0,0,0,0.1-0.1,0.1c0-0.1-0.1,0-0.1,0
				c-0.3,0-0.3,1.2-0.3,1.5c0,0.3,0.8,0.9,1,0.9v1.3c0.1,0,0.2,0,0.2-0.1c0-0.9,1-1.4,1-1.7c0.2,0,0.7-0.6,0.7-0.7
				c0.2,0,1.2-0.5,1.2-0.7C42.5,23,40.6,23.2,40.6,23.8z"/>
		</g>
	</g>
	<g id="Shape_516_5_" class="st0">
		<g>
			<path class="st10" d="M41.5,33.2c-0.1,0.1-0.1,0.3-0.5,0.4c-0.4,0.1-0.8,0.7-0.8,0.7c0.2-0.1,0.6-0.3,0.9-0.5
				C41.5,33.7,41.6,33.1,41.5,33.2z"/>
		</g>
	</g>
	<g id="Shape_714_5_" class="st0">
		<g>
			<path class="st12" d="M46.7,20.7c0-0.7,0.1-1.5-0.1-2.1c-0.3-1.1-1.7-3.3-2.9-3.6c-1.3-0.4-2.2,0.7-3.4,0.7
				c-0.9,0-1.6-0.9-2.2-0.9c-0.1,0-0.1,0-0.2,0c0,0,0,0-0.1,0c-1.6,0-4.3,1.5-3.4,3.5c0.3,0.6,1.3,0.8,1.4,1.4
				c0.2,0.8-0.1,1.7,0.5,2.3c0.8,0.7,2.1-0.7,3-0.6c1,0.1,1.4,1.1,2.2,1.4c1,0.3,2.1-0.2,3.2-0.2c0.6,0.1,1.2,0.1,1.8,0.2
				C47,22.4,46.7,21.1,46.7,20.7z"/>
		</g>
	</g>
	<g id="Shape_716_5_" class="st0">
		<g>
			<path class="st13" d="M34.4,23.4c-1.6-0.5-4.8-0.8-6.1,0.5c0,0,0,0.1,0,0.1c0,0,0-0.1,0-0.1c-0.5,0-0.4,1.2-0.4,1.5
				c1.3,0,2.1-1.3,3.6-1.4c1.2-0.1,2.4,0.1,3.4,0.6c0.4,0.2,0.9,0.8,1.2,0.5C36.1,24.2,35.1,23.6,34.4,23.4z"/>
		</g>
	</g>
	<g id="Shape_717_5_" class="st0">
		<g>
			<path class="st14" d="M47.2,23.9c-1.8-0.6-4.5-2-6,0c-0.3,0.4-0.7,0.6-0.9,1.1l0.1,0.4c0.9-0.4,1.7-0.9,2.6-1.3
				c0.3-0.1,0.6-0.2,0.9-0.3c0.7,0,1.4,0.3,2,0.3c0.2,0.2,0.4,0.3,0.6,0.5c0.1,0.3,0.2,0.5,0.4,0.8l0.2,0
				C47.6,24.7,47.5,24.5,47.2,23.9z"/>
		</g>
	</g>
	<g id="Shape_718_5_" class="st0">
		<g>
			<path class="st15" d="M48,27c-0.3,0-0.7,0.1-1.1,0.2c-0.3-0.1-0.5-0.1-0.8-0.2c-0.9,0.2-1.9,0.5-2.9,0.5c0,0.8,1.6,0.6,1.8,1.2
				c0.2,0.9-1.8,0.8-2.2,0.7c-1-0.2-1.6-1.6-2-2.4c-0.2,0.1-0.4,0.1-0.6,0.2c-0.3,0,0.1-2.1-0.9-2.1c0,0,0,0,0,0c0,0,0,0.1,0,0.1
				c-0.2-0.1-0.5-0.1-0.7-0.2c-0.9,0.3,0.3,4.1,0.7,4.8c0.1,0.3,0.4,0.4,0.6,0.7c0.2,0.5-0.3,0.7-0.2,1.1c0.1,0.5,0.5,0.9,1,0.7
				c0.3-0.2,0.3-0.6,0.2-0.9c-0.7-1.2-1-2-1-3.4c0,0,0.1,0,0.1,0c0.3,0.2,0.3,1.1,0.5,1.4c0.2,0.2,0.4,0.2,0.6,0.4
				c0.2,0.4,0.4,0.7,0.6,1.1c0.5,0.9,1.8,2.1,2.9,2.3c0.6,0.1,0.9-0.6,1.1-1.1c0.7-1.1,1.7-2.1,2-3.5C47.9,28.3,48.3,27.2,48,27z"/>
		</g>
	</g>
	<g id="Shape_719_5_" class="st0">
		<g>
			<path class="st16" d="M44.5,24C44.5,24,44.5,24,44.5,24C44.5,24,44.5,24,44.5,24L44.5,24z M45.3,24.2c-0.3-0.1-0.5-0.1-0.8-0.2
				c-0.5,0-0.9,0.4-1.3,0.4c0,0.2,0.1,0.2,0.2,0.2c0.7,0.1,1.7,0.2,2.3,0.6c0.3,0.2,0.6,0.4,0.9,0.6C46.7,24.9,46.4,24.2,45.3,24.2z
				"/>
		</g>
	</g>
	<g id="Shape_720_5_" class="st0">
		<g>
			<path class="st17" d="M34.4,25.7c-0.1-0.1,0.8,0,0.7-0.1c-0.4-0.2-0.9-0.4-1.3-0.5c-1.7-0.3-3.7,0.1-5,1.3c0,0,0,0,0.2,0.4
				c0,0,0,0-0.1,0.1c0,0.5,1.4-0.2,1.5-0.3c0,0,0.1,0,0.1,0c0,0,0.1,0,0.1,0h0c0.4,0.2,0.4,0.4,1,0.6c0.7,0,1.7-0.1,2.4-0.4
				c0.6-0.3,0.9,0.1,1.5-0.3C35.5,26.3,34.8,26.1,34.4,25.7z"/>
		</g>
	</g>
	<g id="Shape_721_5_" class="st0">
		<g>
			<path class="st18" d="M44.1,37.2c-0.2-0.3-0.4-0.8-0.7-0.9c-0.7-0.3-3,0.6-3.3-0.2c-0.5-1.3,1.2-1.1,1.3-2.2c0,0-0.3,0.3-0.3,0.3
				c0.1-0.2-1.4,0.5-1.6,0.7c-0.4,0.4,0.2,1.3-0.3,1.4c-0.6,0-0.3-1.3-1.1-1.2c-0.3,0-0.5,0.4-0.7,0.6c-0.1,0.3-0.2,0.5-0.3,0.8
				c-0.4,1.5,1,0.8,1.4,1.5c0,0.4-1.9-0.5-1.7,0.7c0.1,0.9,1.4,0.8,2,0.8l0.3,0.1c-0.7,0.3-0.3,1.2-0.9,1.6c-0.8,0.6-4.8,0.3-3,2.5
				c1.3,1.6,4.2,3,6.1,1.7c0.4-0.2,1.9-1.5,1.8-1.9l0,0c0,0.2-1.4,0.6-1.6,0.6c-0.4,0-0.6,0.2-1,0.2c0,0-0.3,0-0.6-0.1
				c-0.4-0.2-0.5-0.2-0.8-0.4c-1.2,0-2.1-1.5-1.8-1c-0.3-1,1.2-0.8,1.7-1c1-0.3,1.8-0.8,1.8-1.9c0.1-0.2,0.2-0.8,0.3-1
				c-0.6,0.2-2.6,0.5-2.9,0c-0.3-1.1,2-0.4,2.2-0.4c0.6-0.1,1.2-0.9,1.8-0.4c0.5,0.4,0.5,1.3,1.1,1.6c0.1,0,0.2-0.1,0.4-0.1
				c0.3-0.4-0.1-1.2,0.3-1.8C44,37.6,44.2,37.4,44.1,37.2z"/>
		</g>
	</g>
	<g id="Shape_722_5_" class="st0">
		<g>
			<path class="st19" d="M41.2,32.8c-0.6,0-1.8,0-2.1-0.8c-0.3-1-0.3-2.2-0.4-3.3c-0.2-0.7-0.4-1.3-0.6-2c-0.2-0.7-0.1-1.3-0.2-2
				c-0.1-0.2-0.2-0.4-0.3-0.6c-1.5-1.5-3.4-1-4.3-2.9c-0.1-0.6-0.2-1.2-0.3-1.9c-0.2-1.3-0.6-2.8-0.4-4.1c0.2-1.8,2.9-1.2,4-2.1
				c0,0-0.1,0-0.1,0c0,0,0,0,0,0c-2.3,0-5.6,0.5-6.2,3.2c-0.3,1.4,0.1,2.9,0.1,4.3c0,0.8-0.9,1.6-0.7,2c0.2,0,0.3,0.1,0.5,0.1
				c2.5,0.4,4.7-0.4,6.5,1.8c0.4,0.5,1.2,4.1,1,4.8c-0.1,0.6-0.4,1.3-0.2,1.9c0.1,0.4,0.3,0.8,0.4,1.2c0.2,0.3,2.1,1,2.6,0.9
				C40.9,33.4,41.6,33.2,41.2,32.8z"/>
		</g>
	</g>
	<g id="Shape_723_5_" class="st0">
		<g>
			<path class="st8" d="M41.2,37.6c-0.3,0-0.7,0.1-1,0.1c-0.2-0.1-0.4-0.1-0.6-0.2c-0.3,0.1-0.6,0.2-0.9,0.3
				c-0.4-0.1-0.8-0.2-1.1-0.4c-0.5-0.1-1.1,0.4-1.6,0.1c-0.2-0.2,0.1-1.3-0.5-1.1c-0.3,0.2-0.3,0.6-0.5,0.8c-0.3,0.1-1-0.1-1.2-0.1
				c0,0,0,0.1-0.1,0.1c0,0,0-0.1,0-0.1c-0.2,0.2-1.1,1.1-0.5,1.3c0.2-0.1,0.5-0.1,0.7-0.2c0.2,0.3,0.3,0.6,0.5,0.8
				c0.7,0.5,1.7,0.8,2.6,0.9c0.3,0,1.2,0.2,1.2-0.2c-0.5-0.5-2.4-0.2-2.2-1.3c0.1-0.1,0.2-0.2,0.3-0.3c0.6-0.1,1.4,0.3,2,0.1
				c1-0.1,2.1-0.3,3.1-0.4c0.5-0.1,1.9,0.3,1.7-0.4C43,37.3,41.4,37.6,41.2,37.6z"/>
		</g>
	</g>
	<g id="Shape_724_5_" class="st0">
		<g>
			<path class="st20" d="M42.1,38c-0.2-0.2-0.8,0.2-1,0.3c-0.8,0.2-1.2-0.2-2.1,0c0,0-0.7,0-0.7,0c-0.6,0.7-0.1,1,0.5,1
				C39.4,39.4,42.3,38.7,42.1,38C42.1,38,42.1,38,42.1,38z"/>
		</g>
	</g>
	<g id="Shape_727_5_" class="st0">
		<g>
			<path class="st21" d="M31.5,49.4c0,0,0-0.1,0-0.1c0-0.1-0.1-0.1-0.1-0.2L31.5,49.4z M42.1,45.8c-0.2-0.2-0.5-0.1-0.7,0
				c-0.5,0.3-1,0.5-1,0.8c-0.3,0.2-1.4,1.1-1.8,1.3c-0.1,0-0.7,0.1-0.7,0.2c-1.4,0-2.6-0.2-4-0.2c0,0-0.1,0.1-0.1,0.1
				c-0.6,0-1,0.2-1.5,0.2c-0.2,0.2-0.7,0.6-0.8,0.6c0,0.2,0,0.4,0.1,0.5c0.6,0.9,2.3,2.1,2.3,2.2c0.5,0.3,1.1,0.6,1.6,0.9
				c0.6,0,1.3,0.2,2.1,0.2c0.3,0,0.8,0,0.8-0.2c0.4,0,0.5-1.1,0.7-1.1c0-0.1,0.1-0.2,0.2-0.2c0-0.1,1.4-1.7,1.6-1.7
				c0.2-0.4,0.5-0.8,0.7-1.2c0.2-0.6,0.4-1.2,0.7-1.8C42.2,46.2,42.1,45.9,42.1,45.8z"/>
		</g>
	</g>
	<g id="Shape_725_5_" class="st0">
		<g>
			<path class="st22" d="M42.7,37.8c-0.4-0.2-0.5-0.2-0.7-0.1c-0.2,0-0.4,0.1-0.9,0.1s-0.7,0-0.9,0.1s-1.1,0.2-1.4,0.2
				c-0.3,0-0.8,0-1,0s-1.5-0.2-1.9-0.2c-0.4,0-1.3,0-1.6-0.1c-0.3-0.1-0.5,0.1-0.7,0.2c-0.2,0.1-0.4,0.2-0.2,0.3
				c0,0,0.2-0.3,0.7-0.2c0.5,0.1,1.1,0.1,1.5,0.1c0.4,0,1.5-0.1,2,0.1c0.5,0.2,0.9,0,1.3,0c0.4,0,1.4-0.2,1.9-0.2c0.6,0,0.6,0,1-0.1
				c0.4-0.1,0.6,0.1,0.7,0.1C42.8,38.1,43,38,42.7,37.8z"/>
		</g>
	</g>
	<g id="Shape_726_5_" class="st0">
		<g>
			<path class="st23" d="M40.9,46c-1.3,0.9-2.9,1.3-4.6,1.3c0,0-1.1-0.5-1.3-0.5c0-0.1-2.7-1.2-2.7-1.3H32c-0.5-0.5-1-0.3-1.4-0.7
				c0-0.1-0.5-0.7-0.6-0.7c0-0.2-1.4-1.9-1.4-1.9c-0.4-1.1-1.3-2.1-1.8-2.1v0.8c0.2,0.5,0.4,1.1,0.7,1.6h-0.3c0-0.2-0.7-0.5-0.7-0.7
				v1.2c0,1.1,1.6,4.5,2.3,4.5c0,0.1,0.8,0.9,1,0.9c0.4,0.4,2.1,1.5,2.3,1.5c0-0.3-0.2-0.6-0.2-0.7c0.1,0,0.2-0.1,0.2-0.2
				c0.3-0.1,0.7-0.2,1-0.3c1.4,0,2.2-0.7,3.6-0.7c0.6,0,2.2,0.6,2.2,0.2c0.3,0,1.6-1.6,1.9-1.8C41,46.3,41,46,40.9,46z M40.8,46
				c-0.1,0-0.1,0-0.2,0.1C40.7,46,40.7,46.1,40.8,46z M40.8,46C40.9,46,40.9,46,40.8,46c0.1,0,0.1-0.1,0.2-0.1
				C40.9,45.9,40.9,46,40.8,46z"/>
		</g>
	</g>
	<g id="Shape_728_5_" class="st0">
		<g>
			<path class="st24" d="M24.6,31.1c-0.1-0.1-0.2-0.3-0.2-0.5c0,0.1-0.1,0.2-0.1,0.3L24.6,31.1z M51.6,13.2c0,0-1.4-2-1.4-2.2
				c-0.1,0-0.1,0-0.1-0.1c-0.1-0.1-0.9-1.3-0.9-1.3c-0.1,0-0.4-0.2-0.4-0.3c-0.8,0-2.4-1-2.4-1.7c-0.1,0-0.4-0.4-0.4-0.6
				C45.8,7,45,6.2,45,6.1c-0.3,0-3.5-0.9-3.6-1c-0.2,0-1.2-0.6-1.2-0.7c-0.5-0.2-1.1-0.3-1.6-0.5c-0.7,0-2.5,0-2.5,0.2
				c-0.1,0-1,0.1-1,0.2c-1.1,0-2.2-0.2-3.4-0.2c0,0.1-0.4,0.2-0.5,0.2c0,0.2-0.6,0.5-0.8,0.5c0,0.2-3.7,2.1-4,2.1c0,0.2-2.3,3-2.8,3
				c0,0.1-0.7,0.7-0.7,0.7v0.2c-0.2,0-0.7,1.2-0.7,1.2c0,1.2-0.6,5.4-1.1,5.9c0,0.6,0.1,1.3,0.1,1.9c0.1,0,0.4,1.5,0.4,1.7
				c0,0.8-0.1,3.7,0.8,3.7c0,0.1,0.3,0.4,0.4,0.4c0,0.4,0.9,0.8,0.9,1.3c0.1,0.1,0,0.2,0.2,0.2v0.1c0,0.4,0.6,1,0.6,1.5
				c0,0.1,0,0.2,0.1,0.2c0,0.5-0.2,1.2-0.1,1.7c0.3-0.7,0.7-1.2,0.7-2.2c0,0,0.1-0.1,0.1-0.1c0-1.2-0.1-2.5-0.1-3.5
				c0-0.3-0.1-1.2,0.2-1.2c0-0.2,0.2-1,0.4-1c0-1.4-0.3-2.3-0.3-3.6c0.1,0,0.4-1,0.4-1.2c0.1,0,0.1-0.1,0.1-0.2
				c0.4-0.4,0.5-0.7,0.8-1.1c0.3,0,1-1,1-1.4c0,0,0.5-0.7,0.5-0.7c0.3,0,2.1-1.3,2.2-1.3c0.1,0,0.9,0.2,0.9,0.1c0.9,0,3.5-0.4,3.5-1
				c0.4,0,1.4,0.1,1.4,0.4c0.3,0,1.7,0.4,1.7,0c0.8,0,2.8,0.9,2.8,1.1c0.3,0,1.1,0,1.3,0.2c1.1,0,2.3-0.1,3.4-0.1c0,0,1.2,0.8,1.2,1
				c0.1,0,0.2,0.2,0.1,0.2c-0.4,0,0.6,0.7,0.6,1c0.1,0,0.2,0.5,0.2,0.7c0,0,0.8,1.8,0.8,2.1c0,0.1,0,0.1,0.1,0.1
				c0,0.5,0.5,1.6,0.5,1.6c0,1.1-0.2,1.9-0.2,2.9c0,0.1,0,0.1-0.1,0.1c0,2,0.2,3.6,0.2,5.6c-0.1,0.6-0.2,1.2-0.3,1.7
				c0.1,0,0.1-0.1,0.2-0.1c0-0.1,0.1-0.2,0.1-0.3c0.2,0,0.7-1.4,0.7-1.9c0-0.1,0-0.1,0.1-0.1c0-0.2,0.1-1,0.2-1
				c0-0.2,0.2-1.1,0.3-1.1c0-0.3,0.5-1.1,0.7-1.1c0-0.2,0.5-1.1,0.5-1.1c0-0.3,0.2-1.7,0.2-1.7c0-0.8-0.1-1.8-0.1-2.6
				c0-0.3-0.1-1.4,0.1-1.6c0-0.5,0.2-1.6,0.6-1.6c0-0.1,0.3-1.2,0.3-1.2C52.1,14.5,51.6,14,51.6,13.2z"/>
		</g>
	</g>
	<g id="Shape_729_5_" class="st0">
		<g>
			<path class="st24" d="M23.5,27.3c-0.2-0.2-0.4-0.4-0.7-0.5c-0.6,0-1.8-1-1.8-1.6c-0.1,0-0.2,0-0.2,0.1c-0.3,0,0.2,1.2,0.2,1.2
				v-0.1c0.9,1.1,0.3,1.8,0.3,3.2c0,0.2,0.2,1.2,0.3,1.2c0,0.3,0.4,0.9,0.6,0.9c0,0.1,0.2,0.1,0.2-0.1l-0.3-0.6
				c0-0.6-0.3-1.2-0.3-1.9c0,0,0-0.1,0-0.1c0.1-0.3,0.1-0.6,0.2-0.9c0-0.3,0-0.7,0.2-0.8c0.1,0,0.2-0.1,0.3-0.1l0.5,0.8
				c0,0.5,0.3,1.3,0.3,1.9h0.2c0,0,0.1,0,0.1,0c0-0.5,0.3-0.7,0.3-1.4C23.8,28,23.7,27.6,23.5,27.3z"/>
		</g>
	</g>
	<g id="Shape_730_5_" class="st0">
		<g>
			<path class="st25" d="M51.6,14.9c0.1-0.2,0.1-0.4,0.2-0.6c0-1.7-1.8-1.6-1.8-3.3c-0.1,0-1-0.2-1.1-0.3c0-1.5-2.1-1.4-2.1-3
				c-0.1-0.1-0.2-0.3-0.3-0.4c-0.5,0-1.5-0.3-2-0.3c-0.4-0.4-1.1-1.5-1.6-1.5c-1.6,0-1.6,0.7-2.9-0.6l-0.8-0.2c-0.7,0-1.2,0.3-2,0.3
				c-0.8,0-0.8-0.7-1.6-0.7c-0.1,0-0.3,0-0.3,0.1c-1,0-1.5,1.1-2.5,1.1c-0.1,0-0.1,0.1-0.2,0.1c-0.5,0-2.6-0.7-2.6,0.2
				c-0.1,0.1-0.2,0.3-0.3,0.4c-0.1,0.1-0.2,0.2-0.4,0.4c-1.7,0-2.2,1-2.2,1.1c0,0-1.5,1.6-1.5,2c0,0.1-0.2,0.3,0,0.3
				c0,0.1,0.8,1,0.9,1c0,0.4,0.3,1,0.3,1.6c0.1,0.1,0.2,0.2,0.3,0.4c1,0,1.4-0.4,2.1-1.1c1.1,0,2,0.8,2-0.9l0.5-0.5
				c1,0,1.1,0.6,2.1,0.6c0.3-0.3,4.2-1.4,4.8-1.4c0.3,0,1.8,1.4,2,1.7c0.2,0,0.5,0.1,0.7,0.1c0.2-0.2,0.9-0.3,1.2-0.3
				c0.1,0.1,0.1,0.1,0.2,0.2c0,0.3,0.4,1.1,0.4,1.2c0.6,0,1.2-0.1,1.7-0.1c0,0.3-0.1,1.3,0.1,1.3h1.8c0,0.4,0.8,2.2,1.1,2.2
				c0,0.7-0.3,2.7,0.6,2.7c0.1,0.3,0.2,0.6,0.3,0.9c0,0.2-0.1,1.1-0.2,1.1c0,0.4,0.1,0.9,0.1,1.2c0,0.1,0,0.2,0.1,0.2
				c0,0.6-0.6,2.5-0.3,2.8c0,0.8,0.6,1.2,0.6,2c0,0.1,0,0.3,0.1,0.3c0,0.2,0,0.5-0.1,0.7c0,0.1-0.2,0.9,0,0.9l0.2-0.2
				c0-1.2,0.1-2.1,0.1-3.3c-0.3-0.3-0.4-2.4-0.4-3c0.2-0.5,0.3-0.9,0.5-1.4h0.2c0.1,0.1,0.4,0.8,0.4,0.9c0.2,0,0.4,0,0.6-0.1
				c0-0.4,0.1-1,0.1-1.6c-0.7-0.7,0.2-2.6,0.6-3c0-0.3-0.2-1.2-0.2-1.2v-0.1C51.1,15.5,51.3,15.2,51.6,14.9z"/>
		</g>
	</g>
	<g id="Shape_731_5_" class="st0">
		<g>
			<path class="st26" d="M34.2,26.1c-0.3-0.3-0.9-0.6-1.2-0.6c-0.4,0-2.3-0.2-2.7,1c0,0,1.2,0.6,2.1,0.5c1-0.1,1.4-0.4,1.6-0.5
				C34.4,26.3,34.5,26.4,34.2,26.1z"/>
		</g>
	</g>
	<g id="Shape_731_copy_5_" class="st0">
		<g>
			<path class="st27" d="M33.7,26.2c-0.2-0.2-0.2-0.4-0.5-0.4c-0.3,0-1.6-0.1-1.8,0.7c0,0,0.8,0.4,1.5,0.3c0.7-0.1,0.6-0.2,0.8-0.3
				C33.9,26.4,33.9,26.4,33.7,26.2z"/>
		</g>
	</g>
	<g id="Ellipse_18_5_" class="st0">
		<g>
			<path class="st28" d="M32.3,25.4c-0.6,0-1.4-0.1-1.4,0.5c0,0.3,0.1,0.6,0.4,0.8c0.2,0.2,0.5,0.2,0.8,0.2c0.2,0,0.3,0,0.5,0
				c0.4-0.2,0.6-0.6,0.6-1C33.2,25.3,33,25.4,32.3,25.4z"/>
		</g>
	</g>
	<g id="Shape_735_5_" class="st0">
		<g>
			<path class="st29" d="M43.4,23.8c0,0-0.1,0-0.1,0.1c0,0,0,0,0,0.1C43.3,23.9,43.4,23.8,43.4,23.8z M46.3,25.7L46.3,25.7
				c-0.1-0.1-0.2-0.1-0.2-0.2c0,0-0.1,0-0.1,0c0-0.3-1-0.4-1.2-0.5c-0.9,0-1.5,0.2-2.3,0.2c-0.1,0-0.1-0.1-0.2-0.1
				c-0.1,0-0.2-0.2-0.2-0.3c0-0.3,0.6-0.7,1.1-1c0,0,0,0,0-0.1c-0.5,0-2.8,1.1-2.8,1.6c0.1,0.1,0.2,0.3,0.3,0.4c0,0.3,0,0.5,0,0.8
				c0.3,0,2.2,0.6,2.4,0.8c0.3-0.1,0.7-0.1,1-0.2c0.2,0,1-0.1,1-0.2c0.2,0,1.2-0.3,1.2-0.4C46.6,26.6,46.3,25.8,46.3,25.7z"/>
		</g>
	</g>
	<g id="Ellipse_18_copy_3_5_" class="st0">
		<g>
			<ellipse transform="matrix(0.214 -0.9768 0.9768 0.214 -0.5575 51.9625)" class="st30" cx="32" cy="26.3" rx="0.5" ry="0.6"/>
		</g>
	</g>
	<g id="Ellipse_18_copy_5_" class="st0">
		<g>
			<circle class="st31" cx="32.1" cy="26" r="0.5"/>
		</g>
	</g>
	<g id="Ellipse_18_copy_2_5_" class="st0">
		<g>
			<circle class="st32" cx="32.7" cy="25.9" r="0.1"/>
		</g>
	</g>
	<g id="Shape_732_5_" class="st0">
		<g>
			<path class="st33" d="M32.9,25.2c-0.4,0-0.6,0.1-1,0.1c-0.1,0-0.3,0-0.4,0.1c0,0-0.2,0-0.4,0.1c-0.4,0.2-0.5,0.3-0.8,0.5
				c-0.3,0-0.4-0.1-0.6-0.1l-0.2,0.1c-0.1,0-0.1,0.1-0.2,0.1l0,0h0c0.2,0,0.3,0,0.5,0.1c0,0.1-0.1,0.2-0.1,0.3c0,0,0,0,0,0
				c0,0,0.2-0.1,0.4,0c0.3,0.1,1.4,0.3,1,0.2c-0.5-0.2-0.6-0.5-0.5-0.6c0.5-0.3,1.2-0.6,1.5-0.7c0.7-0.1,0.8,0,1.2,0
				c0.4,0.1,0.7,0.2,1.1,0.4v-0.1C34.3,25.5,33.4,25.2,32.9,25.2z"/>
		</g>
	</g>
	<g id="Shape_733_5_" class="st0">
		<g>
			<path class="st33" d="M34.1,25.2c0,0-0.4-0.1-0.5-0.2c-0.5-0.1-1-0.1-1.5-0.2c-0.9,0-2.8,0.6-2.8,1.4c0,0,0,0,0.1,0h0.1l0.1-0.1
				c0,0,0,0,0-0.1c0.1-0.2,0.7-0.6,0.9-0.6c0.4-0.1,0.8-0.2,1.2-0.4c0.9-0.4,2.9,0.2,3.5,0.6v-0.1C35.2,25.5,34.4,25.2,34.1,25.2z"
				/>
		</g>
	</g>
	<g id="Shape_731_copy_2_11_" class="st0">
		<g>
			<path class="st26" d="M45.7,26.1c-0.3-0.3-0.9-0.6-1.2-0.6c-0.4,0-2.3-0.2-2.7,1c0,0,1.2,0.5,2.1,0.4c1-0.1,1.4-0.2,1.6-0.4
				C45.9,26.3,46,26.5,45.7,26.1z"/>
		</g>
	</g>
	<g id="Shape_731_copy_2_9_" class="st0">
		<g>
			<path class="st27" d="M45.3,26.2c-0.2-0.2-0.2-0.4-0.5-0.4c-0.3,0-1.6-0.1-1.8,0.7c0,0,0.8,0.4,1.5,0.3s0.6-0.2,0.8-0.3
				C45.4,26.5,45.5,26.4,45.3,26.2z"/>
		</g>
	</g>
	<g id="Ellipse_18_copy_4_23_" class="st0">
		<g>
			<path class="st28" d="M43.9,25.5c-0.6,0-1.4-0.1-1.4,0.5c0,0.3,0.1,0.6,0.3,0.8c0.2,0.2,0.6,0.2,0.9,0.2c0.2,0,0.5,0,0.6,0
				c0.4-0.2,0.5-0.5,0.5-0.9C44.8,25.4,44.5,25.5,43.9,25.5z"/>
		</g>
	</g>
	<g id="Ellipse_18_copy_4_21_" class="st0">
		<g>
			
				<ellipse transform="matrix(0.5641 -0.8257 0.8257 0.5641 -2.8417 47.3139)" class="st30" cx="43.4" cy="26.3" rx="0.5" ry="0.6"/>
		</g>
	</g>
	<g id="Ellipse_18_copy_4_19_" class="st0">
		<g>
			<circle class="st31" cx="43.7" cy="26" r="0.5"/>
		</g>
	</g>
	<g id="Ellipse_18_copy_4_17_" class="st0">
		<g>
			<circle class="st32" cx="44.2" cy="26" r="0.1"/>
		</g>
	</g>
	<g id="Shape_734_5_" class="st0">
		<g>
			<path class="st34" d="M43.9,24.9c-0.4,0-1.7,0.1-1.7,0.3c-0.2,0-0.9,0.4-0.9,0.6c0,0,0,0,0,0c0.3-0.1,0.6-0.3,0.9-0.4
				c0,0,0,0,0,0v0c-0.4,0.3-0.9,0.6-1.3,0.9v0l0,0.1c1,0,1.3-1.1,2.2-1.1c0.1,0,0.3,0,0.4-0.1c0.2,0,1.2,0,1.2,0.2
				c0.3,0,0.7,0.4,0.7,0.7h0c0.2,0.1,0.5,0.1,0.7,0.2c0,0,0.1-0.1,0.1-0.1c0-0.2-1.1-1.1-1.4-1.1v-0.1c0.6,0,1.5,0.4,1.5,0.9
				c0,0,0,0,0.1,0.1c0,0,0,0,0-0.1C46.4,25.2,45.1,24.9,43.9,24.9z"/>
		</g>
	</g>
	<g id="Shape_736_5_" class="st0">
		<g>
			<path class="st35" d="M44.8,36.3c0-0.6-0.4-1.2-0.8-1.7v-0.1c-0.1,0-0.1-0.1-0.2-0.1c-0.2,0.2,0.3,2.1,0.3,2.3
				c0.1,0.1,0.3,0.1,0.4,0.2c0.1,0,0.2-0.1,0.2-0.2C44.9,36.6,44.8,36.4,44.8,36.3z"/>
		</g>
	</g>
	<g id="Shape_737_5_" class="st0">
		<g>
			<path class="st35" d="M41.5,31.1c0,0-0.1,0-0.1,0.1c0,0.2,0,0.9,0.1,0.9c0,0.3,0.6,0.6,0.9,0.6h0.2v-0.1
				C42.6,32.4,41.7,31.5,41.5,31.1z"/>
		</g>
	</g>
	<g id="Shape_739_5_" class="st0">
		<g>
			<path class="st5" d="M41.2,37c-0.4-0.2-0.9-0.3-1.3-0.5c-0.4,0.1-0.7,0.2-1.1,0.3c-0.3-0.1-0.5-0.1-0.8-0.2c0,0-0.1,0-0.1,0
				c-0.1,0.1-0.2,0.1-0.3,0.2c0,0.2,0,0.4,0,0.5c0.4,0,0.6,0.3,1.2,0.3c0.4-0.1,0.9-0.2,1.3-0.3c0.3,0,1.2,0.1,1.2-0.2
				C41.2,37.1,41.2,37,41.2,37z"/>
		</g>
	</g>
	<g id="Shape_743_5_" class="st0">
		<g>
			<path class="st36" d="M43.8,53c0.4-1.9,0-6.1-0.1-6.4c-0.1-0.4-0.7,4.3-2,5.1c-1.2,0.7-3.6,2.5-6.1,1.7s-6.8,2.6-6.2,4l7.9,23
				l7.9,0.4c0,0,0.1-12.5,0.2-16.6S43.4,54.9,43.8,53z"/>
		</g>
	</g>
	<g id="Shape_744_5_" class="st0">
		<g>
			<path class="st37" d="M41.8,65.5c-1.7-3.2-2.3-5.7-2.3-5.7s0.5-2.7,1.4-4.5s-1.1-2.2-1.1-2.2s-3.2,0.6-4.1,0.6s-2.3,1.5-2.1,2.3
				l2.3,4.2c0,0-0.5,2.7-0.5,4.6c0,2.6-0.1,9.5-0.1,9.5l2.1,6.2h7.3C44.8,80.6,43.6,68.7,41.8,65.5z"/>
		</g>
	</g>
	<g id="Shape_741_5_" class="st0">
		<g>
			<path class="st38" d="M28.9,47c-2.6-2.3-4.2-4.2-4.5-5.6c0,0-1.4,1.4-0.7,3.3c0.6,2,7,16.2,7,16.2l5.7-7.7
				C36.5,53.3,31.5,49.3,28.9,47z"/>
		</g>
	</g>
	<g id="Shape_742_5_" class="st0">
		<g>
			<path class="st38" d="M43.6,52.3c0.5-2.1,0-5.7,0-5.7s-1.1,2.8-2.3,4.2C40,52.2,38.7,53,38.7,53s1.4,0.7,2.5,2.6
				c1.1,1.9,3.8,6.1,3.8,6.1S43.1,54.4,43.6,52.3z"/>
		</g>
	</g>
	<g id="Shape_745_5_" class="st0">
		<g>
			<path class="st39" d="M17.5,51.2c0,0.2-0.1,0.5-0.1,0.7l0.5-3.2C17.9,48.7,17.7,49.2,17.5,51.2z M18.6,63.6l2.9-3l-4.3-2.5
				c0,0,0-4,0.2-6.3l-1,6.3l3.9,2.6l-2.4,2.8L28,80.3l0.5-0.5L18.6,63.6z"/>
		</g>
	</g>
	<g id="Shape_746_5_" class="st0">
		<g>
			<polygon class="st39" points="51.6,59 53.8,56.5 50.1,52.7 53,56.5 50.9,59.1 55.3,61.9 53.3,80.9 54.2,80.6 56.1,61.8 			"/>
		</g>
	</g>
	<g id="Shape_747_5_" class="st0">
		<g>
			<path class="st39" d="M64,59c0,0-2.7,12.4-3.1,14.7c-0.4,2.3,0,6.6,0,6.6l0.9,0.1c0,0-0.4-5.7,0.7-9.4C63.2,68.4,64,59,64,59z"/>
		</g>
	</g>
</g>
</svg>
