<?xml version="1.0" encoding="utf-8"?>
<!-- Generator: Adobe Illustrator 19.1.0, SVG Export Plug-In . SVG Version: 6.00 Build 0)  -->
<svg version="1.1" id="Layer_1" xmlns="http://www.w3.org/2000/svg" xmlns:xlink="http://www.w3.org/1999/xlink" x="0px" y="0px"
	 viewBox="0 0 150 150" style="enable-background:new 0 0 150 150;" xml:space="preserve">
<style type="text/css">
	.st0{clip-path:url(#SVGID_3_);}
	.st1{fill-rule:evenodd;clip-rule:evenodd;fill:#4F4F4F;}
	.st2{fill-rule:evenodd;clip-rule:evenodd;fill:#C09081;}
	.st3{fill-rule:evenodd;clip-rule:evenodd;fill:#AD7C72;}
	.st4{fill-rule:evenodd;clip-rule:evenodd;fill:#DCA996;}
	.st5{fill-rule:evenodd;clip-rule:evenodd;fill:#E6B6A5;}
	.st6{fill-rule:evenodd;clip-rule:evenodd;fill:#89645E;}
	.st7{fill-rule:evenodd;clip-rule:evenodd;fill:#BAC8C6;}
	.st8{fill-rule:evenodd;clip-rule:evenodd;fill:#7E5A5A;}
	.st9{fill-rule:evenodd;clip-rule:evenodd;fill:#1F2720;}
	.st10{fill-rule:evenodd;clip-rule:evenodd;fill:#D19B87;}
	.st11{fill-rule:evenodd;clip-rule:evenodd;fill:#E6BFB1;}
	.st12{fill-rule:evenodd;clip-rule:evenodd;fill:#835B55;}
	.st13{fill-rule:evenodd;clip-rule:evenodd;fill:#A6776D;}
	.st14{fill-rule:evenodd;clip-rule:evenodd;fill:#8D6056;}
	.st15{fill-rule:evenodd;clip-rule:evenodd;fill:#A3A6A8;}
	.st16{fill-rule:evenodd;clip-rule:evenodd;fill:#21191A;}
	.st17{fill-rule:evenodd;clip-rule:evenodd;fill:#DDD4BE;}
	.st18{fill-rule:evenodd;clip-rule:evenodd;fill:#1C251F;}
	.st19{fill-rule:evenodd;clip-rule:evenodd;fill:#F9ECEA;}
	.st20{fill-rule:evenodd;clip-rule:evenodd;fill:#F6D3CC;}
	.st21{fill-rule:evenodd;clip-rule:evenodd;fill:#B98478;}
	.st22{fill-rule:evenodd;clip-rule:evenodd;fill:#755D55;}
	.st23{fill-rule:evenodd;clip-rule:evenodd;fill:#434242;}
	.st24{fill-rule:evenodd;clip-rule:evenodd;fill:#966459;}
	.st25{fill-rule:evenodd;clip-rule:evenodd;fill:#7C7576;}
	.st26{fill-rule:evenodd;clip-rule:evenodd;fill:#BFCFD5;}
	.st27{fill-rule:evenodd;clip-rule:evenodd;fill:#B32625;}
	.st28{fill-rule:evenodd;clip-rule:evenodd;fill:#E7E7E4;}
</style>
<g>
	<defs>
		<circle id="SVGID_1_" cx="75" cy="75" r="75"/>
	</defs>
	<linearGradient id="SVGID_2_" gradientUnits="userSpaceOnUse" x1="75" y1="150" x2="75" y2="9.094947e-13">
		<stop  offset="0" style="stop-color:#212121"/>
		<stop  offset="1" style="stop-color:#EF4438"/>
	</linearGradient>
	<use xlink:href="#SVGID_1_"  style="overflow:visible;fill:url(#SVGID_2_);"/>
	<clipPath id="SVGID_3_">
		<use xlink:href="#SVGID_1_"  style="overflow:visible;"/>
	</clipPath>
	<g id="Shape_705_3_" class="st0">
		<g>
			<path class="st1" d="M148.8,116c-1.2-2.5-10.5-6.3-14.5-7.1S116.5,101,112,98.4s-7.8-8.4-10.9-11s-43.8,5.5-43.8,5.5
				s-4.8,4.2-8.2,6.1c-3.4,1.8-38.3,14.7-38.3,14.7l3.3,36.1h134.8C148.8,149.8,150,118.5,148.8,116z"/>
		</g>
	</g>
	<g id="Shape_669_3_" class="st0">
		<g>
			<path class="st2" d="M108.3,51.7c0.4-4.7-1.4-17.6-5.3-21.8c-3.9-4.2-6.1-6.2-7.5-6c-1.4,0.2-7.2-7.5-12.2-8.3
				c-5-0.8-13.3-1-19.5,1.8c-6.2,2.8-13.5,9.2-16.4,14c-2.9,4.8-4.8,7.8-3.1,13.7c1.7,5.8,2.8,10.4,2.8,10.4s-1.6-1.2-1.5,1.6
				c0.1,2.8-0.6,6,0,8.8c0.6,2.8,1,5,1.3,7.2c-0.1-0.6,1.2,6.2,1.2,4.9c-0.1-4.4,1.9,11.5,5.6,16.8c3.7,5.2,5.7,7.8,8.3,11.5
				s5.3,8.2,8.8,9s4.3,1.1,9.7-2.8s11.7-9.6,14-11.1s5-5.3,6.1-9.3c1.1-4,0.8-13,1.1-17.2c2.4,2.8,3.3,2.6,5.2-0.8
				c1.8-3.4,3.3-8.4,3.8-10.8C111,60.8,112.5,54,108.3,51.7z"/>
		</g>
	</g>
	<g id="Shape_674_3_" class="st0">
		<g>
			<path class="st3" d="M88.8,61.7c-1.3,0.6-2.1,1-3.7,1.1c-1.6,0.1-3.9,0.3-5.3-0.1c-1.4-0.4-0.2-1.7,1.5-2.2s3.2-0.1,4.7-0.6
				c1.4-0.5,2.3-0.8,3.1-1.1s2.3,0.8,2.3,0.8s1.2-1.2-0.1-1.3s-1.5-0.6-3-1.5s-4-1.2-5.5-1.6c-1.5-0.3-2.5,0.2-2.2-0.8
				c0.3-1,4.4-1.3,5.4-1.7c1-0.3,1.9-1.4,1.9-1.4s-13.8,2.7-14.8,3.5s0.8,1.3,0.2,1.9c-0.6,0.6-1.2,1.2-1.5,2.3
				c-0.3,1.1-0.8,2.3-0.7,3.9c0.1,1.6,0.9,1.6,1.9,2.3c1,0.7,2.5,1.5,1.8,0.8c-0.7-0.8-0.6-2.6-0.6-3.8c0-1.2,1.8-0.1,2.8,0.5
				c1,0.6,3.1,0.8,4.5,1.1c1.4,0.3,6.4-0.1,7.6-0.5c1.2-0.4,1.8-1.4,2.2-2.2C91.9,60.3,90.2,61.2,88.8,61.7z"/>
		</g>
	</g>
	<g id="Shape_671_3_" class="st0">
		<g>
			<path class="st4" d="M89.7,39.6c0.8-3.8-0.2-9.9-3.9-12.8c-3.8-2.9-10.6-1.9-16.9-0.4s-12.6,4.2-14,5.1c0,0-4.7,3.1-4.8,7.8
				c-0.2,4.7,0.3,9.3,0.4,11c0.1,1.7-0.4,3,0.3,3.9c0.8,0.9,0.8-1.4,4.1-1.1c3.3,0.3,6,0.5,7.6,1.3c1.6,0.8,3.6,1.2,4.2,2.5
				c0.6,1.3,3.9-1,5.9-2.5s4.3-1.8,7.5-2.7c3.2-0.8,3.5-2.3,5.9-1.8c2.4,0.6,1.9,0.4,3.8,0.7C91.5,50.8,88.8,43.3,89.7,39.6z"/>
		</g>
	</g>
	<g id="Shape_670_3_" class="st0">
		<g>
			<path class="st5" d="M79.3,44.6c-0.2-2.8,2.2-6.1,1-9.6s-9.5-0.5-9.5-0.5S70,34,68,38.3c-2,4.3-2,7.2-0.6,11.1
				c1.4,3.9,5.1,1.8,7.5,2.4c2.4,0.7,4.1,0.5,5.4-1.9S79.5,47.3,79.3,44.6z"/>
		</g>
	</g>
	<g id="Shape_712_3_" class="st0">
		<g>
			<path class="st5" d="M62.4,46.2c-2.5-1.8-6.3-0.8-8.3,0.3c-2,1.2-2.3,4-2.3,4c-1.3,1.4,11,1.7,12.8,1.4S64.9,48,62.4,46.2z"/>
		</g>
	</g>
	<g id="Shape_672_3_" class="st0">
		<g>
			<path class="st4" d="M97.5,79c-0.8-3.4-4-8.6-2.5-10.5s1.3-5.3,0.7-7.5c-0.7-2.2-5-5.5-4.9-3.5c0,0.4,0.1,0.7,0.1,0.9
				c0.1,0.2,0.1,0.3,0,0C90.7,58.2,90.5,58,90,58c-1.4,0-0.2,1.2-2,1.4s-4.6,0.8-6,0.8s-4.3,0.4-2.6,1.5c1.7,1.1,3.7,1.4,6.1,1
				s5-1.7,4.8-0.6s-3.2,2.4-5.5,2.3s-4.8,0.5-6.2-0.9c-1.5-1.4-4.6-3.8-4.2-2.2c0,0-0.3,3-0.1,4.2c0.2,1.2,0.4,3.2,2.5,4
				c2.1,0.8,3.4,1,5.1,2.8c1.7,1.7,4,2.3,5.8,3.6s3,1.2,3.2,3.2c0.1,2.1-0.7,6-1.2,8.4c-0.5,2.4-1.8,3.5-1.4,4.6s1.8-2.3,2.4-0.8
				c0.6,1.5,0.3,2.8-1.4,7.5s-3,5.6,0.3,3.4c3.3-2.2,3.5-2.7,5.7-5.3c2.2-2.7,1.9-7.8,3-11.1C99.1,82.4,98.3,82.4,97.5,79z"/>
		</g>
	</g>
	<g id="Shape_673_3_" class="st0">
		<g>
			<path class="st6" d="M87.2,50.7c-1.8-0.4-2.6-0.1-4.3,0.5s-3.1,0.8-5.1,1.3c-2,0.6-4.8,1.2-4.8,1.2s-0.8,0.6-0.5,1.3
				c0.3,0.8,4.8,0.2,5.8,0c0.9-0.2,3.3-1,5.1-1.9c1.8-0.9,3.2-0.5,4.4-1.2C88.9,51.1,89,51.1,87.2,50.7z"/>
		</g>
	</g>
	<g id="Shape_676_3_" class="st0">
		<g>
			<path class="st4" d="M76.2,70.9c-1.2,0.3-1.9,0.8-2.7,1s-1.7-2.2-0.8-2.4c0.8-0.2,1.7-2.2,0.7-3.2c-1-1.1-1.2-1.7-1.6-2.9
				c-0.3-1.2,0-3.5,0.3-4.6c0.3-1.1,0.9-1.8,1.4-2.3s0.2-1,0-1.5s-8.6-4-9.2-0.2c0,0,2.1,1.9,2.3,2.8c0.2,0.9,0.2,1.7-0.1,3
				c-0.2,1.3-0.8,3.7-1.2,5.1C65,67,64.1,69.3,63.9,70c-0.2,0.7-0.3-0.8-1.6,0.8c-1.2,1.7-2.2,3.9-0.7,4.6c1.6,0.7,2.4-0.9,3.8-0.4
				c1.3,0.5,3.2,2.2,5.2,1.8c1.9-0.4,2.8-1.1,4-1.2s3.4-0.1,3.6-1.4C78.3,72.9,77.3,70.6,76.2,70.9z"/>
		</g>
	</g>
	<g id="Shape_677_3_" class="st0">
		<g>
			<path class="st4" d="M88.4,51.8c0,0-6.1,0.9-7.5,2.2c-1.4,1.3-0.3,0.8,2,1.2c2.3,0.4,4.7,1.2,5.7,1.5S90.6,50.7,88.4,51.8z"/>
		</g>
	</g>
	<g id="Shape_680_3_" class="st0">
		<g>
			<path class="st7" d="M87.1,57.7c-1.2-0.2-6.9-0.4-7.2-0.2c0,0-1.9,0.9-1.8,1.2s1.3,0.7,3.2,0.8s4-0.2,5-0.8S88.3,57.9,87.1,57.7z
				"/>
		</g>
	</g>
	<g id="Shape_675_3_" class="st0">
		<g>
			<path class="st8" d="M89.8,57.9c0,0-1.8-1-2.4-1.2c-0.7-0.2-2.7-0.8-4.2-1c-1.5-0.2-2.9-0.3-4.4-0.2c-1.5,0.2-2.8,1.8-2.8,1.8
				c0.3,1,2,0,2.6-0.2c0.5-0.2,1.2-0.2,1.6-0.2c0.4,0-0.7,0.5-1,0.6c-0.3,0.1-1.2,0.8-2.1,1.2s-1.1,0.2-1.5,0.8
				c-0.4,0.5,1,0.5,1.8,0.4c0.8-0.1,0.8,0.5,1.1,0.2s0.4-0.7,0.1-0.8c-0.3-0.1-0.5-0.3-0.1-0.8c0.4-0.5,1-0.5,1.8-1
				c0.9-0.5,5,0.1,5,0.1s0.6,0.3,1.2,0.5c0.6,0.2,0.3,0.9,0.5,0.8s1.4-0.8,1.4-0.8s-0.4-0.1-1.2-0.6c-0.8-0.5-1.5-0.6-1.1-0.8
				c0.4-0.1,2.3,1.1,3,1.4C89.9,58.5,89.8,57.9,89.8,57.9z"/>
		</g>
	</g>
	<g id="Shape_679_3_" class="st0">
		<g>
			<path class="st9" d="M86.3,57.3c-1.3-0.5-3-0.4-4.3-0.4c-1.3,0-2.4,0.7-2.4,0.7s0.9-0.4,0.9,0.1c0,0.5,0.6,2.2,2.7,2s2.4-2,2.4-2
				s0.2,0.1,0.7,0.2S87.6,57.8,86.3,57.3z"/>
		</g>
	</g>
	<g id="Shape_678_3_" class="st0">
		<g>
			<path class="st10" d="M53.4,56.3c-0.9-0.2-2.5-0.9-2.5-0.9c-1.3,0.6-0.3,4.6,0.7,2.9C52.6,56.7,54.3,56.6,53.4,56.3z"/>
		</g>
	</g>
	<g id="Shape_681_3_" class="st0">
		<g>
			<path class="st4" d="M83.1,75.5c-1.6-1.1-2.5-2.9-3.4-2.6c0,0-0.8,2.7-1.5,3.2c-0.7,0.6-3.2,1.5-4.3,1.4c-1.1-0.1-2.1,1-2.8,2
				c-0.8,1-1.8,1.2-3.1,1.3c-1.3,0.1-3.8,0.7-4.8,1.1s3.3,0.6,5.2,1.2S71,83,73,82.9s4.2,0,5.3-0.3c1.2-0.3,5.5-2,6.5-4.3
				S84.7,76.6,83.1,75.5z"/>
		</g>
	</g>
	<g id="Ellipse_16_3_" class="st0">
		<g>
			<ellipse class="st11" cx="68.9" cy="73.6" rx="1.2" ry="0.9"/>
		</g>
	</g>
	<g id="Shape_687_3_" class="st0">
		<g>
			<path class="st12" d="M65.5,57.7c-0.5-0.5-0.8-1.2-1.6-1.7c-0.8-0.5-1.9-1.4-3.4-2.1c-1.5-0.7-4.8-0.8-6.6-0.2
				c-1.8,0.7,1,1.4,2.1,1.2c1.1-0.1,3.8,0.2,5,0.6c1.2,0.4,2.7,1.5,3.1,1.8c0.4,0.3,0.4,0.9,0.7,1.8c0.2,0.9-0.5,0.5-0.8,0
				c-0.3-0.5-0.7,0.1-1.4-0.3c-0.7-0.5-0.5-0.7,0.4-0.4c0.9,0.3,1.1,0,0.8-0.2c-0.3-0.3-1.7-1-3-1.4c-1.3-0.4-3.9,0.1-5.4,0.5
				s-2.7,0.4-2.7,0.4c-0.3,0-0.8,0.5-1.3,1.8s0.6,1.4,1.2,1.1c0.6-0.3,1,0.3,1.5,0.2s0.5-0.2,0.2-0.5s0-0.6,0.2-1.2
				c0.3-0.6,5.1,0.9,5.8,0.8c0.7-0.2,2.1-0.2,2.7-0.1c0.5,0.1-0.3,0.4-1.2,0.7c-0.8,0.3,0.8,0.5,2,0.2c1.2-0.3,1-0.1,1.3,0.2
				c0.4,0.3,0.3,1.2,0.1,2c-0.2,0.8,0,1.3,0.4,0.4c0.4-0.9,0.5-1.2,0.5-1.8c0-0.7,0.2-1.1,0.3-1.9C66.4,59,66,58.2,65.5,57.7z"/>
		</g>
	</g>
	<g id="Shape_693_3_" class="st0">
		<g>
			<path class="st10" d="M92.9,77.5c-2.4,0-4.2,8.7-4.6,10.9c-0.1,0.4-0.9,3.6-1.7,2.8c-0.3,0-0.4-2-0.2-2.2c0.5-0.8,3.4-6.5,2.3-7
				c-2.5,0-5,1.3-6.3,3.2c-0.5,0.4-1,0.8-1.6,1.2c-3.2,1.6-6.2,1.6-9.7,2.1c-2.3,0.3-5.2-1.6-7.1-0.4c-0.2,0.9,2.2,1.5,2.8,1.6
				c1.7,0.4,3.6,0.4,3.6,2.1c-0.1,0.2-0.2,0.5-0.3,0.7c-0.1,0.5-0.2,1-0.3,1.5c-2.6,1.7-5.6-0.6-7.5-2.6C61.7,90.9,60.8,89,60,89
				c0,1.7,2.1,4.4,1.6,5.8h-0.1c-0.6-0.9-1.2-1.8-1.7-2.7c-1-1.7-2.3-3.3-2.9-5.2c-0.4-1.3-0.6-2.7-1.3-3.9
				c-0.6-0.9-1.6-2.3-2.8-1.7c-0.1,0.2-0.1,0.4-0.2,0.6c0,0.1-0.1,0.2-0.1,0.3c0,0,0.1-0.1,0.1-0.1c0,1.2-0.2,2.4,0,3.7
				c0.2,1.3,3.1,4.3,4,5.6c0.5,0.9,1.1,1.8,1.6,2.8c1.9,2.8,0.5,4.9,4.5,6.5c0.7,0.3,1.4-0.4,2-0.6c0.9,0.1,1.9,0.2,2.8,0.3
				c0.6-0.6,4.5-0.8,5.5-0.5c1,0.3,2,1.8,2.9,2.4c1.3,0,2.5-0.2,3.8-0.2c0.7,0.7,0.6,2.8,2.2,2c2.1-1,5.2-6,5.7-8.2
				c0.2-1,2-4.6,3.1-4.9c0.7-0.5,1.4,2.4,1.9,2.7c0,0,0.1,0,0.1,0c0.4,0,0.4-2.9,0.4-3.6c0-3.2,0.1-6.2,0.4-9.4
				C93.5,79.9,93.7,78,92.9,77.5z"/>
		</g>
	</g>
	<g id="Shape_699_3_" class="st0">
		<g>
			<path class="st4" d="M76.7,95.8c-3.3-1.3-6.1-1.3-9.4-0.8c-0.8,0.1-1.6,0.2-2.4,0.3c0.2,0,0.3,0,0.5-0.1c-1.2,0.6-3.1,2-3.1,3.5
				c0.6,1.2,2.4,1,3.5,1.1c1.9,0.2,3.6-0.6,5.5-0.4c2.1,0.2,3.9,1,5.9,1.3c0.9,0.1,3.2,0.2,3.3-1.1C80.6,97.5,78.4,96.5,76.7,95.8z"
				/>
		</g>
	</g>
	<g id="Shape_684_3_" class="st0">
		<g>
			<path class="st13" d="M81.8,82.4C78.4,82,76,82.8,74,82.8c-2,0-3.9,0.9-5,0.7s-3.4-0.3-4.2-0.4c-0.9-0.1-3.2-0.2-4.4-0.5
				c-1.2-0.3-1,0.8-0.3,1.8c0.6,0.9,2.1,2.8,3.7,3.7c1.6,0.9,3,2.6,8.6,2.2c0,0,4.1-0.6,6.4-2.4c2.3-1.8,3.8-3,4.6-4
				C84,82.9,85.3,82.7,81.8,82.4z"/>
		</g>
	</g>
	<g id="Shape_698_3_" class="st0">
		<g>
			<path class="st14" d="M82.3,83c-0.8,0.1-1.6,0.2-2.4,0.4c-0.9,0.1-1.8,0.2-2.7,0.2c-1.8,0.3-3.8,0.3-5.4,1.4c0,0,0,0.1-0.1,0.1
				c0,0.1,0,0.1,0,0.2c0.7,0.4,1.5,0.9,2.2,1.3c1.3,0,2.5-0.1,3.8-0.1c1.2-0.4,2.7-1.2,3.6-2C81.5,84.4,82.5,83,82.3,83z"/>
		</g>
	</g>
	<g id="Shape_682_3_" class="st0">
		<g>
			<path class="st14" d="M88.8,78c-1-0.7-2.6-1.5-3.6-2.4c-1-0.9-3.7-3-4.3-3.5s-3.5-1.5-3.2-0.7c0,0,0.9,2,0.5,3
				c-0.4,1-1.8,1.3-3,1.3s-2.2,0.1-2.9,0.4c-0.7,0.3-2.4,1.5-4.1,1.3c-1.7-0.2-2.3-1.1-3.4-1.2c-1.1-0.1-2.7-0.4-1.9,0.1
				s1.5,0.5,2.4,0.8c0.9,0.2,2.7,1.1,4.2,0.7c1.6-0.4,2.8-1.3,4.1-1.4s2.7,0,3.9-0.5s1.7-1,1.7-2.2s0-1.8,1.2-0.8
				c1.2,0.9,3.4,3.2,4.8,4.1c1.4,0.8,3.2,1.2,3.4,2.9c0.2,1.8,0.2,2.9-0.2,4.3s1.1-1.5,1.2-2.2C89.8,81.2,89.8,78.7,88.8,78z"/>
		</g>
	</g>
	<g id="Shape_697_3_" class="st0">
		<g>
			<path class="st14" d="M71.9,87.6c-0.1-0.3-2.9-0.3-3.2-0.2c-2.1,0.2-6.4-1.1-6.4-3.8c0,0,0,0,0.1,0c0,0,0.1,0,0.1,0
				c1,1,4.3,1.4,5.7,1.4c-1.4-1.4-5.3-1.3-7.3-2.2c-1-0.4-2-1.3-3.1-1.4c-0.1,0.1-0.2,0.1-0.3,0.2c0,0,0,0,0-0.1
				c-0.1,0.2-0.2,0.3-0.4,0.5c0,0.1,0,0.3,0,0.4c0,0.3,2.1,0.8,2.4,0.9c0.4,0.5,0.7,0.9,1.1,1.4c1.4,2.8,5,2.8,7.6,3.3
				c0.5,0.1,3.3,0.6,3.6-0.1C71.9,87.7,71.9,87.7,71.9,87.6z"/>
		</g>
	</g>
	<g id="Shape_686_3_" class="st0">
		<g>
			<path class="st15" d="M61.9,59c-1.3-0.6-3.7-0.8-3.7-0.8l-3.8,0.8c0,0-0.2,0.6-0.2,1c0,0.4,0.8,1.1,3.2,1.1c2.4,0,3.8-0.9,4.5-1
				C62.7,59.9,63.3,59.6,61.9,59z"/>
		</g>
	</g>
	<g id="Shape_689_3_" class="st0">
		<g>
			<path class="st16" d="M63.3,84.1c0,0-2.2-1.1-2-0.6c0.2,0.5,1.9,2.4,2.4,2.8c0.5,0.3,0.9,0.5,1.5,0.6
				C65.8,87,64.6,84.5,63.3,84.1z"/>
		</g>
	</g>
	<g id="Shape_683_3_" class="st0">
		<g>
			<path class="st17" d="M80.9,83.4c-0.2,0-0.5,0.1-0.8,0.2c-0.2,0.2-0.5-0.4-0.8-0.2s-0.9,0.5-1.1,0.3c-0.2-0.2-1-0.2-1.5,0.2
				s-0.4,0.3-0.8,0.2c-0.3-0.1-1.4-0.1-1.8,0.3c-0.4,0.4-0.9,0.1-1.1,0.1c-0.2,0-1.3,0.4-1.7,0.5c-0.3,0.1-0.8,0.2-0.8,0.2
				S69.4,85,69.1,85c-0.3,0-1.8-0.1-1.8-0.1s-1.8-0.6-2-0.4c-0.2,0.2-2-0.6-2.2-0.4c0,0,0.4,2.3,0.8,2.4c0.4,0.1,0.6-0.7,0.9-0.2
				c0.3,0.4,0.2,0.6,1,0.8c0.8,0.2,1.2-0.1,1.3,0.2c0.2,0.3,2.9,0.5,2.9,0.5s0.2-0.6,0.5-0.3s2.8,0,2.8,0l0.5-0.6
				c0,0,0.2,0.4,1.1,0.4s1.3-0.3,1.4-0.8c0.1-0.4,0.2-0.5,0.6-0.2c0.4,0.3,0.8,0.7,1.1,0.2c0.2-0.4,0.3-0.8,0.7-0.6
				c0.3,0.2,1-0.2,1.1-0.5s0.9-0.4,1-0.8S81.1,83.4,80.9,83.4z"/>
		</g>
	</g>
	<g id="Shape_685_3_" class="st0">
		<g>
			<path class="st18" d="M58.1,57.7c-1.5-0.3-2.4,0-3.9,0.4s-2.6,1.8-2.4,2.3c0.2,0.6,0.9,0,1.4-0.1s0.4-0.8,0.9-1.1s2-0.6,2-0.6
				s-0.2,0.8,0.6,1.8c0.4,0.5,0.6,0.5,1.1,0.4c0.6-0.1,2.4-0.3,2.4-0.3s0.6-0.8,0.7-1.5c0-0.3,0.9-0.2,1.2-0.1
				C62,59,59.6,58,58.1,57.7z"/>
		</g>
	</g>
	<g id="Ellipse_17_3_" class="st0">
		<g>
			<ellipse class="st19" cx="59.2" cy="59" rx="0.6" ry="0.5"/>
		</g>
	</g>
	<g id="Ellipse_17_copy_3_" class="st0">
		<g>
			<ellipse class="st19" cx="84" cy="57.5" rx="0.6" ry="0.5"/>
		</g>
	</g>
	<g id="Shape_688_3_" class="st0">
		<g>
			<path class="st20" d="M73.2,89c-1.5,0.1-1.2,0.8-1.2,0.8s0.5,0.2,1.9-0.2C75.3,89.2,74.7,88.9,73.2,89z"/>
		</g>
	</g>
	<g id="Shape_710_3_" class="st0">
		<g>
			<path class="st21" d="M57,79c1.1-1.5,3.5-3.4,3.5-3.4l-0.2-1.8c0,0-0.8,1-3.8,3.2c-2.9,2.2-2,4.7-1.7,5.9
				c0.9,3.5,5.2,8.2,5.2,8.2s-2.5-4.5-3.6-7.5S55.9,80.5,57,79z"/>
		</g>
	</g>
	<g id="Shape_695_3_" class="st0">
		<g>
			<path class="st13" d="M56.4,77.6c0,0.1,0,0.1-0.1,0.2C56.3,77.7,56.3,77.6,56.4,77.6c-1.4,1-2.5,2.6-1.5,4.3
				c0.2,0.2,0.4,0.4,0.6,0.6c0,0,0,0,0-0.1c0.3-0.4,0-3.5,1-4.3c0-0.2,0-0.4,0.1-0.6C56.5,77.6,56.5,77.6,56.4,77.6z"/>
		</g>
	</g>
	<g id="Shape_690_3_" class="st0">
		<g>
			<path class="st4" d="M65.2,65.3c-0.6,0-1.9,2.5-3.1,1.2c0-0.5,0.7-1,0.2-1.6c0,0,0,0-0.1,0c-2.3,0-4.5,0.8-6.9,0.6
				c-0.6-0.1-1.5-0.5-1.5-1.2c0-0.1,0-0.3,0.1-0.4c0.8,0,1.7,0.1,2.5,0.1c1.5,0,2.6-0.4,3.6-1.4c-0.1-0.3-0.2-0.7-0.3-1
				c-2,0-6,1.2-7.3-0.9c0,0.1-0.1,0.1-0.1,0.2c-0.3,0.2-0.6,0.4-0.8,0.6c-0.2,0-0.3-0.1-0.5-0.1c-1-2.1,1.7-2.9,1.7-4.7
				c-0.5-0.7-1.6,0.1-2.1-1.1c0-1.6,2.3-1.6,2.3-3.2c-5.1,0-2.8,5.6-3.3,8.8c-0.2,0.8-0.5,1.5-0.7,2.3c-0.1,1.5-0.2,3-0.3,4.5
				c-0.3,1.5-0.6,3-0.9,4.5c-0.3,3-0.4,6.3,0.5,9.1c0.6,1.9,1.2,5.8,2.9,7.2c1.5,0.3,0.8-3,0.6-3.9c-0.8-3.2-2.4-7.9-0.5-11
				c1-1.6,3,2.9,4.8,2.3c1.1-0.4,1.6-1.6,2.6-2.3c0.8-0.5,2.5-3.1,2.7-4.1C63.2,68.1,65.3,68.3,65.2,65.3
				C65.3,65.3,65.2,65.3,65.2,65.3z"/>
		</g>
	</g>
	<g id="Shape_692_3_" class="st0">
		<g>
			<path class="st3" d="M68.4,50.2l1.9,5.6l1.2-0.3L68.4,50.2z M66.3,55.5l0.8-0.5l-0.6-4.4L66.3,55.5z"/>
		</g>
	</g>
	<g id="Shape_694_3_" class="st0">
		<g>
			<path class="st22" d="M54.9,96.7c0-0.1,0-0.1,0.1-0.2c0,0,0,0,0,0L54.9,96.7z M86.9,102.8c-0.8,0-3.4,2.2-5.3,2.3
				c-1.6,0.1-5.1-0.4-6.6-0.8c-2.4,0-4.8,0.1-7.1,0.1c-2.5-0.7-7.7-3.6-9.7-5.1c-1.1-1-2.1-2-3.2-2.9c0,0,0,0,0,0.1
				c1,1.7,2,3.4,3,5.2c1.3,1.6,3,3.5,4.9,4.4c1.1,1.4,2.3,2.7,3.4,4.1c1,0.9,2.1,1.9,3.1,2.8c0.8,0.2,1.9,0.8,2.7,0.6
				c2.4-0.5,4.3-4.3,7.5-4.9c3-0.6,6.2-2.4,7.6-5.2C87.1,103.3,87,103.1,86.9,102.8z"/>
		</g>
	</g>
	<g id="Shape_696_3_" class="st0">
		<g>
			<path class="st14" d="M61.8,71.3C61.8,71.3,61.8,71.3,61.8,71.3c0,0.1,0,0.1,0,0.1C61.8,71.4,61.8,71.3,61.8,71.3z M61.3,75.4
				c-1-1.3-0.4-2.8,0.4-4c0,0,0,0,0-0.1c-2.1,0-2.1,5,0,5l0.1-0.1C61.7,76,61.5,75.7,61.3,75.4z"/>
		</g>
	</g>
	<g id="Shape_700_3_" class="st0">
		<g>
			<path class="st11" d="M84.6,69.6c-0.1,0-0.2,0-0.3,0.1c0,0-0.1,0.1-0.1,0.1c0,0-0.1-0.1-0.1-0.1c-0.6,0-0.7,0-0.9,0.2
				c-0.6,1.3,3.9,2.3,3.9,0.4C86.9,69.6,85.3,69.6,84.6,69.6z"/>
		</g>
	</g>
	<g id="Shape_700_copy_3_" class="st0">
		<g>
			<path class="st11" d="M70.4,96.1c-0.3-0.8-1.9-0.4-2.6-0.3c-0.1,0-0.2,0.1-0.3,0.1c0,0.1,0,0.1-0.1,0.2c0,0-0.1,0-0.1-0.1
				c-0.6,0.1-0.7,0.1-0.9,0.4C66.1,97.9,70.8,97.9,70.4,96.1z"/>
		</g>
	</g>
	<g id="Shape_701_3_" class="st0">
		<g>
			<path class="st23" d="M101.8,26.9c-1.9-1.4-4.9-3.3-7.2-4.1c-0.9-1.7-2.8-4.6-4.7-5.4c-7.4-3.2-17.3-4.1-25.1-1.1
				c-6.4,2.5-10.9,5.8-15.3,11c-1,1.2-2.3,2.5-2.9,3.9c-0.9,2.3-1.8,4.5-2.6,6.9c-0.1,1.1-0.3,2.3-0.4,3.4
				c-0.8,4.9,0.8,9.3,3.1,13.4c0.9,1.6,1.1,3.5,1.5,5.2l-0.1,0.1l0,0.7c1.3-9-4-20.8,2.8-28.4c3.1-3.5,8.5-5.6,13.1-6.3
				c2.1-0.6,4.1-1.2,6.2-1.8c3.7-1.4,10-1.6,13.7-0.2c2.4,0.9,6.1,1.4,7.9,3.4c1.7,2,1.6,5.1,2.6,7.4c1.4,3.3,2.7,6.6,4.1,9.9
				c0.5,5.5,1,11,1.5,16.5h0.1c0,0,1.8-2.3,1.9-2.7c1.9-5.6,7.3-4.2,6.9-10.9C109,42.7,106.3,30.1,101.8,26.9z"/>
		</g>
	</g>
	<g id="Shape_702_3_" class="st0">
		<g>
			<path class="st24" d="M102.3,61.8c0.1,0,0.1-0.1,0.2-0.2c0,0,0,0,0,0C102.4,61.7,102.4,61.8,102.3,61.8z M108.2,53.5
				c-3.1,0-3.3,6.1-5.7,8.2c0,0.3,0.9,0.2,1.2,0.2c1.2,1.2,1,2,1,4c0,0-0.5,1-0.5,1.2c-0.4,0-1.7,1-1.7,1.5v0.8
				c0.2,0.2,0.4,0.7,0.7,0.7h0.8c0-1.7,3.5-3.5,3.5-3.7c0.4,0,0-1.1,0-1.3c-1.3,0-1.9-5-2.7-5c0-1.8,1.2-2.9,1.2-3.8h0.7
				c0.3,0.3,0.5,1.2,1,1.2c0.6-0.6,0.7-1.7,0.7-2.7c0.3,0.3,0.5,0.4,0.5,0.8c0.5,0,0.1,0.3,0.8,0.3C109.7,54.8,109,53.5,108.2,53.5z
				"/>
		</g>
	</g>
	<g id="Shape_703_3_" class="st0">
		<g>
			<path class="st4" d="M102.8,71.8C102.9,71.8,102.9,71.8,102.8,71.8c0.1-0.2,0.1-0.3,0.1-0.5L102.8,71.8z M103.4,70.9
				c-0.2,0.3-0.3,0.5-0.5,0.8c-0.3,1.4-0.1,3.2,1.7,3.2c0.6-0.6,1.3-1.5,1.3-2.4C105.4,72.1,104.3,70.6,103.4,70.9z"/>
		</g>
	</g>
	<g id="Shape_704_3_" class="st0">
		<g>
			<path class="st25" d="M47.7,29.5c0.3-0.1,0.5-0.2,0.7-0.4c-0.3,0.1-0.6,0.1-1,0.2C47.5,29.4,47.6,29.4,47.7,29.5z M84.9,18.5
				c0.1,0,2.6,0.4,2.7,0.4c-2.4-2.4-11.1-3-14.2-2.2c-4.6,1.1-10.1-0.4-14,2.5c-2.3,1.6-4.9,4.1-7.2,5.7c-1.5,0.9-2.5,3.3-3.8,4.4
				c1.6-0.4,3.2-0.7,4.9-1.1c5.6-2.1,11.5-5.8,17.7-5.8c1.9-0.1,3.7-0.2,5.6-0.3c0.6,0,1.1,0.1,1.7,0.1c-0.2,0-0.4,0-0.6-0.1
				c-1.4-0.3-2.3-1.3-3.8-1.3c0.6-0.1,1.1-0.3,1.7-0.4c1.2,0,2.3-0.1,3.5-0.1c2.2,0.2,4.4,0.3,6.6,0.8c0.6,0.2,4.4,2.2,4.7,2.2
				C90.3,21.9,86.3,18.5,84.9,18.5z"/>
		</g>
	</g>
	<g id="Shape_711_3_" class="st0">
		<g>
			<path class="st25" d="M93.9,27.4c0,0,0.1,0.1,0.3,0.4C94.2,27.6,94.1,27.5,93.9,27.4z M106,41.2c-1.3-2.4-4.2-8.6-4.2-8.6
				s1.2,8.8,1.4,11.5c-2.6-2-4.5-2.1-4.9-7.8c-0.3-3.8-3.1-7.4-4.1-8.5c0.5,1.2-0.2,4.9,0.2,7.2c0.5,2.7,2,7,3.2,8.9
				c1.2,1.9,1.3,5.8,1.2,8.6c-0.2,2.8,0.8,9.9,0.8,9.9s1.6-0.8,2.3-3.4c0.8-2.7,2.4-4.1,4.6-6.2C108.1,51.1,108.3,45.4,106,41.2z"/>
		</g>
	</g>
	<g id="Shape_708_3_" class="st0">
		<g>
			<path class="st26" d="M101.5,96.9c-0.3-4.4-17.8,13.8-23,16.7c-5.2,2.8-9.2,0.8-9.2,0.8c-1.6-1.2-10.2-9.1-12.5-0.3
				s-2,38.7-2,38.7l34.2,2.7c-0.2,0-1.5-0.9,5.1-16.8C101.3,121.5,101.8,101.3,101.5,96.9z"/>
		</g>
	</g>
	<g id="Shape_709_3_" class="st0">
		<g>
			<path class="st27" d="M85,153.5c-1.5-3.3-7-18.3-6.6-21.8c0.4-3.5,4.6-10.2,4.6-10.2s0.7-7.6-3.8-5.7c-4.5,1.9-9.8,0.2-9.8,0.2
				c-2.6-0.8-5.7,2.7-4.3,5c1.3,2.3,5.3,10.7,4.9,11.8c-0.4,1.2-7.7,20.5-7,20.6C63.6,153.5,86.5,156.8,85,153.5z"/>
		</g>
	</g>
	<g id="Shape_706_3_" class="st0">
		<g>
			<path class="st28" d="M101,92.7c0,0-19.2,19.7-22.1,21.7c-2.9,2-0.6,2.1-0.6,2.1l9.1,19.7c0,0,11.9-17.2,13.7-23.2
				S103.7,93.4,101,92.7z"/>
		</g>
	</g>
	<g id="Shape_707_3_" class="st0">
		<g>
			<path class="st28" d="M69.8,114.9c-3.1-1.8-11.8-13.6-11.9-13.5c-5.1,4.7,1.1,34,1.1,34s2.7-10.1,5.1-14.1S73.2,116.9,69.8,114.9
				z"/>
		</g>
	</g>
</g>
</svg>
