<?xml version="1.0" encoding="utf-8"?>
<!-- Generator: Adobe Illustrator 19.1.0, SVG Export Plug-In . SVG Version: 6.00 Build 0)  -->
<svg version="1.1" id="Layer_1" xmlns="http://www.w3.org/2000/svg" xmlns:xlink="http://www.w3.org/1999/xlink" x="0px" y="0px"
	 viewBox="0 0 150 150" style="enable-background:new 0 0 150 150;" xml:space="preserve">
<style type="text/css">
	.st0{clip-path:url(#SVGID_5_);fill-rule:evenodd;clip-rule:evenodd;fill:#434343;}
</style>
<g>
	<g>
		<defs>
			<circle id="SVGID_1_" cx="75" cy="75" r="75"/>
		</defs>
		<linearGradient id="SVGID_2_" gradientUnits="userSpaceOnUse" x1="74.9998" y1="150.0002" x2="74.9998" y2="2.255484e-04">
			<stop  offset="0" style="stop-color:#212121"/>
			<stop  offset="1" style="stop-color:#EF4438"/>
		</linearGradient>
		<use xlink:href="#SVGID_1_"  style="overflow:visible;fill:url(#SVGID_2_);"/>
		<clipPath id="SVGID_3_">
			<use xlink:href="#SVGID_1_"  style="overflow:visible;"/>
		</clipPath>
	</g>
	<g>
		<defs>
			<circle id="SVGID_4_" cx="75" cy="75" r="75"/>
		</defs>
		<clipPath id="SVGID_5_">
			<use xlink:href="#SVGID_4_"  style="overflow:visible;"/>
		</clipPath>
		<path class="st0" d="M152.5,146.3l-7.7-20.4c0,0-14-2.7-21.3-6.3c-7.3-3.7-8.7-3-13.3-6.3c-4.4-3.1-11.9-5.2-11.9-7.8
			c0-1.9,0.7-6.1,0.8-9.1c2.5-2.4,4.7-4.6,5.2-6.3c0.7-2.4,0.9-10.4,0.9-10.4s4.3-4.8,4.3-8c0-3.2,0.3-3.9,0.9-7.2
			c0.7-3.4,2.3-6.4,2.3-7.4c0-1.1-1.4-2.8-2.1-2.8c-0.7,0,0.7-10.4-2.5-18.1c-3.2-7.8-5.5-13-10.8-15.6c-5.3-2.6-13.5-5.4-20.1-4.9
			c-6.6,0.4-8.6-0.1-13.6,0.7c-4.6,0.7-8.2,1.6-11,4.9c-3.3,3.9-3.4,5.2-8.1,10.8c-2.8,3.4-4.4,16.2-3.2,18.8
			c1.1,2.6,2.3,8.6,2.3,8.6s-1.7-3.3-3.2-1.9c-2,1.9,1.1,4.8,1.4,8c0.2,3.2,0.6,6.6,2.2,9.6c1.6,3,3.5,4.4,3.5,5.7
			c0,1.3,2.3,2.1,2.7,1.3c0.4-0.8,0,4.5,1.1,6.5c0.4,0.7,1.7,2.2,3.3,3.9c0.2,3.9,0.5,9,0.4,9.8c-0.2,1.3-0.9,1.7-1.9,3.4
			c-1.1,1.7-11.8,7.2-14.6,8.9c-6.7,4-18.3,7.8-23,8.7c-4.7,0.9-16.4,17.7-16.4,17.7l-6.2,23l27.3,10.3l136.3-2.4L152.5,146.3z"/>
	</g>
</g>
</svg>
